M48
;GenerationSoftware,Autodesk,EAGLE,9.0.1*%
;CreationDate,2018-05-30T15:00:08Z*%
FMAT,2
ICI,OFF
METRIC,TZ,000.000
T11C0.350
T10C0.550
T9C1.000
T8C1.016
T7C1.150
T6C1.321
T5C2.794
T4C3.175
T3C3.200
T2C5.080
T1C14.224
%
G90
M71
T1
X142367Y142367
T2
X244424Y33147
T3
X175631Y281475
X165979Y281475
X154549Y281475
X187061Y281475
T4
X77876Y198272
X114427Y57480
X170307Y57480
X206858Y86512
X206858Y142392
X206858Y198272
X170307Y227279
X114427Y227279
X77876Y142392
X77876Y86512
T5
X257117Y43520
T6
X264160Y202946
X260350Y225806
X264737Y43520
X249497Y43520
X132080Y9144
X126746Y9144
X109982Y8890
X105156Y8890
X131826Y28956
X139700Y28702
X13716Y35814
X21590Y36068
X149098Y245364
X149098Y236728
X218592Y73381
X218592Y64491
X218592Y89891
X218592Y81001
X218592Y139421
X218592Y106401
X218592Y97511
X218592Y114021
X218592Y122911
X264922Y225806
X218592Y130531
X218592Y147041
X218592Y155931
X258572Y202946
T7
X35144Y271558
X32604Y271558
X45881Y271644
X37684Y271558
X50961Y271644
X48421Y271644
T8
X60688Y138623
X60688Y136083
X60688Y133543
X32998Y146243
X32998Y133543
X60688Y141163
X60688Y146243
X60688Y143703
T9
X243992Y138786
X226212Y138786
X226212Y131166
X226212Y147676
X226212Y155296
X243992Y114656
X243992Y117196
X243992Y119736
X243992Y122276
X226212Y122276
X226212Y114656
X243992Y131166
X243992Y155296
X243992Y98146
X243992Y100686
X243992Y103226
X243992Y105766
X226212Y105766
X226212Y98146
X243992Y152756
X243992Y150216
X243992Y81636
X243992Y84176
X243992Y86716
X243992Y147676
X226212Y89256
X226212Y81636
X176901Y272585
X178171Y275125
X243992Y65126
X243992Y67666
X243992Y70206
X243992Y72746
X226212Y72746
X226212Y65126
X179441Y272585
X180711Y275125
X181981Y272585
X155819Y272585
X183251Y275125
X184521Y272585
X185791Y275125
X157089Y275125
X158359Y272585
X159629Y275125
X160899Y272585
X162169Y275125
X163439Y272585
X164709Y275125
X243992Y133706
X243992Y136246
X243992Y89256
T10
X51808Y225308
T11
X277622Y210058
X231648Y210058
X46220Y219720
X46220Y216672
X46220Y221752
X48252Y224546
X172202Y261663
X188458Y261663
X269900Y94894
X268859Y90602
X271932Y128041
X268148Y104445
X275488Y105004
X71120Y254762
X47752Y256286
X45466Y200914
X167386Y260858
X81534Y259334
X164846Y260604
X207264Y209550
X23114Y251460
X30988Y257810
X264414Y230378
X145796Y259080
X140716Y257302
X165852Y266489
X169408Y266489
X146812Y258064
X141986Y255778
X186934Y266489
X190490Y266489
X149098Y255778
X144018Y253492
X52578Y229362
X42672Y230632
X148082Y256794
X143002Y254508
X50806Y228848
X41402Y229362
X54727Y93718
X40132Y226822
X66040Y131064
X54981Y113022
X54984Y107942
X54984Y80002
X57267Y80002
X56896Y113030
X38354Y227330
X55118Y200406
X279146Y69850
X279146Y76708
X273202Y115164
X277876Y71120
X49022Y200152
X40132Y200406
X39116Y207264
X43942Y197866
X50800Y200152
X50800Y197612
X159502Y263949
X160772Y268267
X156708Y264203
X159756Y270299
X180584Y263949
X181854Y268267
X177790Y264203
X180838Y270299
X171694Y262933
X134366Y262890
X142240Y263144
X152146Y262382
X26162Y249936
X46228Y243840
X30226Y221996
X45466Y234950
X279146Y225044
X266090Y76302
X208483Y181229
X100330Y65786
X100330Y63500
X266090Y78842
X209245Y165202
X99314Y228346
X102108Y228346
X183388Y230124
X186182Y229870
X209042Y202184
X266090Y81382
X211582Y100076
X211655Y103124
X211817Y116313
X211836Y118872
X211706Y132578
X211582Y135128
X212598Y123190
X100584Y170688
X266090Y83922
X111506Y87376
X113792Y86845
X140716Y87376
X145034Y87630
X168656Y86360
X171701Y86360
X183388Y83566
X185674Y83566
X209042Y112522
X209042Y115062
X208765Y138176
X266090Y86462
X209042Y124206
X185166Y139700
X100584Y143256
X266090Y89002
X141224Y151130
X275361Y119482
X268907Y110084
X267030Y134544
X265125Y128016
X267030Y137160
X266034Y127991
X267030Y139700
X266943Y127991
X266979Y142240
X267852Y127991
X266979Y144805
X268760Y128016
X266979Y147320
X269669Y128016
X269900Y100178
X264058Y106782
X272948Y117704
X275384Y123292
X267106Y101295
X270408Y74524
X115697Y142291
X110617Y142291
X142367Y85141
X142367Y87173
X143637Y168961
X138176Y168961
X171650Y167691
X169037Y167691
X110617Y170231
X114427Y170231
X140185Y198196
X143637Y198171
X143637Y171501
X144907Y167691
X172847Y196901
X169037Y196901
X144780Y120904
X144018Y117094
X171577Y165151
X167767Y165151
X111887Y199822
X111887Y196901
X144907Y88951
X142294Y90221
X140208Y196342
X140208Y200660
X172847Y116891
X168252Y116891
X139446Y170180
X142367Y170231
X110617Y168961
X114427Y168961
X114427Y115621
X114427Y113081
X140589Y113081
X145161Y119050
X146558Y168961
X146558Y171374
X186817Y69901
X188087Y69901
X189357Y71171
X188087Y71171
X186817Y71171
X189357Y72441
X188087Y72441
X186817Y72441
X189357Y73711
X188087Y73711
X186817Y73711
X188087Y74981
X186817Y74981
X181737Y69901
X181737Y71171
X181737Y72441
X181737Y73711
X181737Y74981
X180467Y74981
X180467Y73711
X180467Y72441
X180467Y71171
X180467Y69901
X179197Y71171
X179197Y72441
X179197Y73711
X186817Y97841
X188087Y97841
X189357Y99111
X188087Y99111
X186817Y99111
X189357Y100381
X188087Y100381
X186817Y100381
X189357Y101651
X188087Y101651
X186817Y101651
X188087Y102921
X186817Y102921
X181737Y97841
X181737Y99111
X181737Y100381
X181737Y101651
X181737Y102921
X180467Y102921
X180467Y101651
X180467Y100381
X180467Y99111
X180467Y97841
X179197Y99111
X179197Y100381
X179197Y101651
X186817Y125781
X188087Y125781
X189357Y127051
X188087Y127051
X186817Y127051
X189357Y128321
X188087Y128321
X186817Y128321
X189357Y129591
X188087Y129591
X186817Y129591
X188087Y130861
X186817Y130861
X181737Y125781
X181737Y127051
X181737Y128321
X181737Y129591
X181737Y130861
X180467Y130861
X180467Y129591
X180467Y128321
X180467Y127051
X180467Y125781
X179197Y127051
X179197Y128321
X179197Y129591
X186817Y153721
X188087Y153721
X189357Y154991
X188087Y154991
X186817Y154991
X189357Y156261
X188087Y156261
X186817Y156261
X189357Y157531
X188087Y157531
X186817Y157531
X188087Y158801
X186817Y158801
X181737Y153721
X181737Y154991
X181737Y156261
X181737Y157531
X181737Y158801
X180467Y158801
X180467Y157531
X180467Y156261
X180467Y154991
X180467Y153721
X179197Y154991
X179197Y156261
X179197Y157531
X186817Y181661
X188087Y181661
X189357Y182931
X188087Y182931
X186817Y182931
X189357Y184201
X188087Y184201
X186817Y184201
X189357Y185471
X188087Y185471
X186817Y185471
X188087Y186741
X186817Y186741
X181737Y181661
X181737Y182931
X181737Y184201
X181737Y185471
X181737Y186741
X180467Y186741
X180467Y185471
X180467Y184201
X180467Y182931
X180467Y181661
X179197Y182931
X179197Y184201
X179197Y185471
X186817Y209601
X188087Y209601
X189357Y210871
X188087Y210871
X186817Y210871
X189357Y212141
X188087Y212141
X186817Y212141
X189357Y213411
X188087Y213411
X186817Y213411
X188087Y214681
X186817Y214681
X181737Y209601
X181737Y210871
X181737Y212141
X181737Y213411
X181737Y214681
X180467Y214681
X180467Y213411
X180467Y212141
X180467Y210871
X180467Y209601
X179197Y210871
X179197Y212141
X179197Y213411
X102997Y69901
X104267Y69901
X105537Y71171
X104267Y71171
X102997Y71171
X105537Y72441
X104267Y72441
X102997Y72441
X105537Y73711
X104267Y73711
X102997Y73711
X104267Y74981
X102997Y74981
X97917Y69901
X97917Y71171
X97917Y72441
X97917Y73711
X97917Y74981
X96647Y74981
X96647Y73711
X96647Y72441
X96647Y71171
X96647Y69901
X95377Y71171
X95377Y72441
X95377Y73711
X102997Y97841
X104267Y97841
X105537Y99111
X104267Y99111
X102997Y99111
X105537Y100381
X104267Y100381
X102997Y100381
X105537Y101651
X104267Y101651
X102997Y101651
X104267Y102921
X102997Y102921
X97917Y97841
X97917Y99111
X97917Y100381
X97917Y101651
X97917Y102921
X96647Y102921
X96647Y101651
X96647Y100381
X96647Y99111
X96647Y97841
X95377Y99111
X95377Y100381
X95377Y101651
X102997Y125781
X104267Y125781
X105537Y127051
X104267Y127051
X102997Y127051
X105537Y128321
X104267Y128321
X102997Y128321
X105537Y129591
X104267Y129591
X102997Y129591
X104267Y130861
X102997Y130861
X97917Y125781
X97917Y127051
X97917Y128321
X97917Y129591
X97917Y130861
X96647Y130861
X96647Y129591
X96647Y128321
X96647Y127051
X96647Y125781
X95377Y127051
X95377Y128321
X95377Y129591
X102997Y153721
X104267Y153721
X105537Y154991
X104267Y154991
X102997Y154991
X105537Y156261
X104267Y156261
X102997Y156261
X105537Y157531
X104267Y157531
X102997Y157531
X104267Y158801
X102997Y158801
X97917Y153721
X97917Y154991
X97917Y156261
X97917Y157531
X97917Y158801
X96647Y158801
X96647Y157531
X96647Y156261
X96647Y154991
X96647Y153721
X95377Y154991
X95377Y156261
X95377Y157531
X102997Y181661
X104267Y181661
X105537Y182931
X104267Y182931
X102997Y182931
X105537Y184201
X104267Y184201
X102997Y184201
X105537Y185471
X104267Y185471
X102997Y185471
X104267Y186741
X102997Y186741
X97917Y181661
X97917Y182931
X97917Y184201
X97917Y185471
X97917Y186741
X96647Y186741
X96647Y185471
X96647Y184201
X96647Y182931
X96647Y181661
X95377Y182931
X95377Y184201
X95377Y185471
X102997Y209601
X104267Y209601
X105537Y210871
X104267Y210871
X102997Y210871
X105537Y212141
X104267Y212141
X102997Y212141
X105537Y213411
X104267Y213411
X102997Y213411
X104267Y214681
X102997Y214681
X97917Y209601
X97917Y210871
X97917Y212141
X97917Y213411
X97917Y214681
X96647Y214681
X96647Y213411
X96647Y212141
X96647Y210871
X96647Y209601
X95377Y210871
X95377Y212141
X95377Y213411
X130937Y69901
X132207Y69901
X133477Y71171
X132207Y71171
X130937Y71171
X133477Y72441
X132207Y72441
X130937Y72441
X133477Y73711
X132207Y73711
X130937Y73711
X132207Y74981
X130937Y74981
X125857Y69901
X125857Y71171
X125857Y72441
X125857Y73711
X125857Y74981
X124587Y74981
X124587Y73711
X124587Y72441
X124587Y71171
X124587Y69901
X123317Y71171
X123317Y72441
X123317Y73711
X130937Y97841
X132207Y97841
X133477Y99111
X132207Y99111
X130937Y99111
X133477Y100381
X132207Y100381
X130937Y100381
X133477Y101651
X132207Y101651
X130937Y101651
X132207Y102921
X130937Y102921
X125857Y97841
X125857Y99111
X125857Y100381
X125857Y101651
X125857Y102921
X124587Y102921
X124587Y101651
X124587Y100381
X124587Y99111
X124587Y97841
X123317Y99111
X123317Y100381
X123317Y101651
X130937Y125781
X132207Y125781
X133477Y127051
X132207Y127051
X130937Y127051
X133477Y128321
X132207Y128321
X130937Y128321
X133477Y129591
X132207Y129591
X130937Y129591
X132207Y130861
X130937Y130861
X125857Y125781
X125857Y127051
X125857Y128321
X125857Y129591
X125857Y130861
X124587Y130861
X124587Y129591
X124587Y128321
X124587Y127051
X124587Y125781
X123317Y127051
X123317Y128321
X123317Y129591
X130937Y153721
X132207Y153721
X133477Y154991
X132207Y154991
X130937Y154991
X133477Y156261
X132207Y156261
X130937Y156261
X133477Y157531
X132207Y157531
X130937Y157531
X132207Y158801
X130937Y158801
X125857Y153721
X125857Y154991
X125857Y156261
X125857Y157531
X125857Y158801
X124587Y158801
X124587Y157531
X124587Y156261
X124587Y154991
X124587Y153721
X123317Y154991
X123317Y156261
X123317Y157531
X130937Y181661
X132207Y181661
X133477Y182931
X132207Y182931
X130937Y182931
X133477Y184201
X132207Y184201
X130937Y184201
X133477Y185471
X132207Y185471
X130937Y185471
X132207Y186741
X130937Y186741
X125857Y181661
X125857Y182931
X125857Y184201
X125857Y185471
X125857Y186741
X124587Y186741
X124587Y185471
X124587Y184201
X124587Y182931
X124587Y181661
X123317Y182931
X123317Y184201
X123317Y185471
X130937Y209601
X132207Y209601
X133477Y210871
X132207Y210871
X130937Y210871
X133477Y212141
X132207Y212141
X130937Y212141
X133477Y213411
X132207Y213411
X130937Y213411
X132207Y214681
X130937Y214681
X125857Y209601
X125857Y210871
X125857Y212141
X125857Y213411
X125857Y214681
X124587Y214681
X124587Y213411
X124587Y212141
X124587Y210871
X124587Y209601
X123317Y210871
X123317Y212141
X123317Y213411
X158877Y69901
X160147Y69901
X161417Y71171
X160147Y71171
X158877Y71171
X161417Y72441
X160147Y72441
X158877Y72441
X161417Y73711
X160147Y73711
X158877Y73711
X160147Y74981
X158877Y74981
X153797Y69901
X153797Y71171
X153797Y72441
X153797Y73711
X153797Y74981
X152527Y74981
X152527Y73711
X152527Y72441
X152527Y71171
X152527Y69901
X151257Y71171
X151257Y72441
X151257Y73711
X158877Y97841
X160147Y97841
X161417Y99111
X160147Y99111
X158877Y99111
X161417Y100381
X160147Y100381
X158877Y100381
X162296Y268521
X160147Y101651
X158877Y101651
X160147Y102921
X158877Y102921
X153797Y97841
X153797Y99111
X153797Y100381
X153797Y101651
X153797Y102921
X152527Y102921
X152527Y101651
X152527Y100381
X152527Y99111
X152527Y97841
X151257Y99111
X151257Y100381
X151257Y101651
X158877Y125781
X160147Y125781
X161417Y127051
X160147Y127051
X158877Y127051
X161417Y128321
X160147Y128321
X158877Y128321
X161417Y129591
X160147Y129591
X158877Y129591
X160147Y130861
X158877Y130861
X153797Y125781
X153797Y127051
X153797Y128321
X153797Y129591
X153797Y130861
X152527Y130861
X152527Y129591
X152527Y128321
X152527Y127051
X152527Y125781
X151257Y127051
X151257Y128321
X151257Y129591
X158877Y153721
X160147Y153721
X161417Y154991
X160147Y154991
X158877Y154991
X161417Y156261
X160147Y156261
X158877Y156261
X161417Y157531
X160147Y157531
X158877Y157531
X160147Y158801
X158877Y158801
X153797Y153721
X153797Y154991
X153797Y156261
X153797Y157531
X153797Y158801
X152527Y158801
X152527Y157531
X152527Y156261
X152527Y154991
X152527Y153721
X151257Y154991
X151257Y156261
X151257Y157531
X158877Y181661
X160147Y181661
X161417Y182931
X160147Y182931
X158877Y182931
X161417Y184201
X160147Y184201
X158877Y184201
X161417Y185471
X160147Y185471
X158877Y185471
X160147Y186741
X158877Y186741
X153797Y181661
X153797Y182931
X153797Y184201
X153797Y185471
X153797Y186741
X152527Y186741
X152527Y185471
X152527Y184201
X152527Y182931
X152527Y181661
X151257Y182931
X151257Y184201
X151257Y185471
X158877Y209601
X160147Y209601
X161417Y210871
X160147Y210871
X158877Y210871
X161417Y212141
X160147Y212141
X158877Y212141
X161417Y213411
X160147Y213411
X158877Y213411
X160147Y214681
X158877Y214681
X153797Y209601
X153797Y210871
X153797Y212141
X153797Y213411
X153797Y214681
X152527Y214681
X152527Y213411
X152527Y212141
X152527Y210871
X152527Y209601
X151257Y210871
X151257Y212141
X151257Y213411
X124206Y259080
X107442Y27432
X110490Y30480
X202184Y247650
X244602Y212344
X245618Y222758
X46736Y200152
X42672Y196596
X161417Y101651
X69088Y239776
X69088Y216154
X69088Y213360
X43688Y208280
X43180Y205232
X28194Y196850
X35560Y196596
X28702Y73406
X28702Y75946
X209296Y241554
X209042Y244856
X202438Y253746
X50038Y232410
X35306Y228346
X33782Y203962
X211582Y241554
X37338Y208280
X202692Y256286
X211582Y244602
X162042Y264203
X157216Y268013
X157978Y270807
X183124Y264203
X178298Y268013
X178806Y270553
X44313Y87622
X45075Y108704
X272110Y123495
X263804Y117272
X271424Y100762
X262738Y103480
X268884Y61316
X272110Y119685
X266090Y92888
X42672Y248920
X38354Y241046
X40640Y239268
X28956Y200660
X31928Y203225
X44729Y204470
X52832Y210312
X237998Y70866
X133096Y241808
X264668Y134366
X23622Y83058
X32766Y77470
X52070Y76454
X60198Y78232
X57912Y110998
X63500Y124714
X62738Y128524
X64262Y132080
X68326Y136144
X55626Y144018
X24384Y156718
X25908Y170434
X22352Y129286
X24384Y115062
X30226Y108458
X26162Y223012
X24130Y232410
X58166Y231902
X64770Y218948
X58674Y250190
X24638Y259588
X45212Y277876
X64516Y279400
X79756Y271272
X110490Y269240
X95758Y268986
X102870Y278892
X81026Y281686
X109728Y281940
X98298Y281686
X117348Y280670
X121666Y280670
X125222Y280670
X130048Y280416
X142240Y280162
X146304Y279400
X146304Y282194
X148590Y278384
X141224Y274320
X134366Y271018
X124460Y270764
X117602Y271018
X145288Y267716
X160020Y240284
X179832Y247396
X197612Y243840
X201422Y249936
X213360Y257810
X246634Y257302
X242316Y225552
X229362Y225044
X214122Y238506
X232156Y227330
X275082Y241808
X116840Y14224
X148844Y12954
X142748Y21590
X145034Y34290
X121158Y37338
X110998Y37338
X114808Y27940
X120650Y18288
X133858Y15240
X141986Y16002
X58166Y208026
X213393Y214089
X208872Y213868
X213073Y216629
X17018Y62230
X17272Y58420
X17272Y57404
X17272Y56388
X18034Y56896
X18034Y57912
X138430Y265430
X256286Y151130
X256540Y157226
X46736Y213868
X49454Y213287
X58928Y211582
X74930Y235966
X154178Y247396
X264414Y209804
X72644Y234950
X57912Y213106
X74422Y240030
M30