G04 EAGLE Gerber X2 export*
%TF.Part,Single*%
%TF.FileFunction,Profile,NP*%
%TF.FilePolarity,Positive*%
%TF.GenerationSoftware,Autodesk,EAGLE,9.0.1*%
%TF.CreationDate,2018-05-30T15:00:16Z*%
G75*
%MOMM*%
%FSLAX34Y34*%
%LPD*%
%AMOC8*
5,1,8,0,0,1.08239X$1,22.5*%
G01*
%ADD10C,0.025000*%
%ADD11C,0.000000*%


D10*
X1899886Y2819400D02*
X1516227Y2819400D01*
X1516227Y2847340D01*
D11*
X0Y2847340D01*
X0Y2651760D01*
X0Y198120D02*
X0Y0D01*
X2847340Y0D01*
X2847340Y2847340D01*
X2245360Y2847340D01*
X2247270Y2847340D02*
X1899886Y2847907D01*
D10*
X1899886Y2819400D01*
X2658052Y121043D02*
X2658079Y123225D01*
X2658159Y125405D01*
X2658293Y127583D01*
X2658480Y129757D01*
X2658721Y131925D01*
X2659014Y134087D01*
X2659361Y136241D01*
X2659760Y138386D01*
X2660212Y140521D01*
X2660716Y142644D01*
X2661272Y144753D01*
X2661880Y146849D01*
X2662539Y148929D01*
X2663249Y150992D01*
X2664009Y153037D01*
X2664819Y155063D01*
X2665679Y157069D01*
X2666587Y159052D01*
X2667544Y161013D01*
X2668549Y162950D01*
X2669601Y164861D01*
X2670700Y166746D01*
X2671844Y168604D01*
X2673034Y170433D01*
X2674269Y172232D01*
X2675547Y174000D01*
X2676868Y175736D01*
X2678231Y177440D01*
X2679636Y179109D01*
X2681081Y180744D01*
X2682566Y182342D01*
X2684090Y183904D01*
X2685652Y185428D01*
X2687250Y186913D01*
X2688885Y188358D01*
X2690554Y189763D01*
X2692258Y191126D01*
X2693994Y192447D01*
X2695762Y193725D01*
X2697561Y194960D01*
X2699390Y196150D01*
X2701248Y197294D01*
X2703133Y198393D01*
X2705044Y199445D01*
X2706981Y200450D01*
X2708942Y201407D01*
X2710925Y202315D01*
X2712931Y203175D01*
X2714957Y203985D01*
X2717002Y204745D01*
X2719065Y205455D01*
X2721145Y206114D01*
X2723241Y206722D01*
X2725350Y207278D01*
X2727473Y207782D01*
X2729608Y208234D01*
X2731753Y208633D01*
X2733907Y208980D01*
X2736069Y209273D01*
X2738237Y209514D01*
X2740411Y209701D01*
X2742589Y209835D01*
X2744769Y209915D01*
X2746951Y209942D01*
X2749133Y209915D01*
X2751313Y209835D01*
X2753491Y209701D01*
X2755665Y209514D01*
X2757833Y209273D01*
X2759995Y208980D01*
X2762149Y208633D01*
X2764294Y208234D01*
X2766429Y207782D01*
X2768552Y207278D01*
X2770661Y206722D01*
X2772757Y206114D01*
X2774837Y205455D01*
X2776900Y204745D01*
X2778945Y203985D01*
X2780971Y203175D01*
X2782977Y202315D01*
X2784960Y201407D01*
X2786921Y200450D01*
X2788858Y199445D01*
X2790769Y198393D01*
X2792654Y197294D01*
X2794512Y196150D01*
X2796341Y194960D01*
X2798140Y193725D01*
X2799908Y192447D01*
X2801644Y191126D01*
X2803348Y189763D01*
X2805017Y188358D01*
X2806652Y186913D01*
X2808250Y185428D01*
X2809812Y183904D01*
X2811336Y182342D01*
X2812821Y180744D01*
X2814266Y179109D01*
X2815671Y177440D01*
X2817034Y175736D01*
X2818355Y174000D01*
X2819633Y172232D01*
X2820868Y170433D01*
X2822058Y168604D01*
X2823202Y166746D01*
X2824301Y164861D01*
X2825353Y162950D01*
X2826358Y161013D01*
X2827315Y159052D01*
X2828223Y157069D01*
X2829083Y155063D01*
X2829893Y153037D01*
X2830653Y150992D01*
X2831363Y148929D01*
X2832022Y146849D01*
X2832630Y144753D01*
X2833186Y142644D01*
X2833690Y140521D01*
X2834142Y138386D01*
X2834541Y136241D01*
X2834888Y134087D01*
X2835181Y131925D01*
X2835422Y129757D01*
X2835609Y127583D01*
X2835743Y125405D01*
X2835823Y123225D01*
X2835850Y121043D01*
X2835823Y118861D01*
X2835743Y116681D01*
X2835609Y114503D01*
X2835422Y112329D01*
X2835181Y110161D01*
X2834888Y107999D01*
X2834541Y105845D01*
X2834142Y103700D01*
X2833690Y101565D01*
X2833186Y99442D01*
X2832630Y97333D01*
X2832022Y95237D01*
X2831363Y93157D01*
X2830653Y91094D01*
X2829893Y89049D01*
X2829083Y87023D01*
X2828223Y85017D01*
X2827315Y83034D01*
X2826358Y81073D01*
X2825353Y79136D01*
X2824301Y77225D01*
X2823202Y75340D01*
X2822058Y73482D01*
X2820868Y71653D01*
X2819633Y69854D01*
X2818355Y68086D01*
X2817034Y66350D01*
X2815671Y64646D01*
X2814266Y62977D01*
X2812821Y61342D01*
X2811336Y59744D01*
X2809812Y58182D01*
X2808250Y56658D01*
X2806652Y55173D01*
X2805017Y53728D01*
X2803348Y52323D01*
X2801644Y50960D01*
X2799908Y49639D01*
X2798140Y48361D01*
X2796341Y47126D01*
X2794512Y45936D01*
X2792654Y44792D01*
X2790769Y43693D01*
X2788858Y42641D01*
X2786921Y41636D01*
X2784960Y40679D01*
X2782977Y39771D01*
X2780971Y38911D01*
X2778945Y38101D01*
X2776900Y37341D01*
X2774837Y36631D01*
X2772757Y35972D01*
X2770661Y35364D01*
X2768552Y34808D01*
X2766429Y34304D01*
X2764294Y33852D01*
X2762149Y33453D01*
X2759995Y33106D01*
X2757833Y32813D01*
X2755665Y32572D01*
X2753491Y32385D01*
X2751313Y32251D01*
X2749133Y32171D01*
X2746951Y32144D01*
X2744769Y32171D01*
X2742589Y32251D01*
X2740411Y32385D01*
X2738237Y32572D01*
X2736069Y32813D01*
X2733907Y33106D01*
X2731753Y33453D01*
X2729608Y33852D01*
X2727473Y34304D01*
X2725350Y34808D01*
X2723241Y35364D01*
X2721145Y35972D01*
X2719065Y36631D01*
X2717002Y37341D01*
X2714957Y38101D01*
X2712931Y38911D01*
X2710925Y39771D01*
X2708942Y40679D01*
X2706981Y41636D01*
X2705044Y42641D01*
X2703133Y43693D01*
X2701248Y44792D01*
X2699390Y45936D01*
X2697561Y47126D01*
X2695762Y48361D01*
X2693994Y49639D01*
X2692258Y50960D01*
X2690554Y52323D01*
X2688885Y53728D01*
X2687250Y55173D01*
X2685652Y56658D01*
X2684090Y58182D01*
X2682566Y59744D01*
X2681081Y61342D01*
X2679636Y62977D01*
X2678231Y64646D01*
X2676868Y66350D01*
X2675547Y68086D01*
X2674269Y69854D01*
X2673034Y71653D01*
X2671844Y73482D01*
X2670700Y75340D01*
X2669601Y77225D01*
X2668549Y79136D01*
X2667544Y81073D01*
X2666587Y83034D01*
X2665679Y85017D01*
X2664819Y87023D01*
X2664009Y89049D01*
X2663249Y91094D01*
X2662539Y93157D01*
X2661880Y95237D01*
X2661272Y97333D01*
X2660716Y99442D01*
X2660212Y101565D01*
X2659760Y103700D01*
X2659361Y105845D01*
X2659014Y107999D01*
X2658721Y110161D01*
X2658480Y112329D01*
X2658293Y114503D01*
X2658159Y116681D01*
X2658079Y118861D01*
X2658052Y121043D01*
X50834Y121043D02*
X50861Y123225D01*
X50941Y125405D01*
X51075Y127583D01*
X51262Y129757D01*
X51503Y131925D01*
X51796Y134087D01*
X52143Y136241D01*
X52542Y138386D01*
X52994Y140521D01*
X53498Y142644D01*
X54054Y144753D01*
X54662Y146849D01*
X55321Y148929D01*
X56031Y150992D01*
X56791Y153037D01*
X57601Y155063D01*
X58461Y157069D01*
X59369Y159052D01*
X60326Y161013D01*
X61331Y162950D01*
X62383Y164861D01*
X63482Y166746D01*
X64626Y168604D01*
X65816Y170433D01*
X67051Y172232D01*
X68329Y174000D01*
X69650Y175736D01*
X71013Y177440D01*
X72418Y179109D01*
X73863Y180744D01*
X75348Y182342D01*
X76872Y183904D01*
X78434Y185428D01*
X80032Y186913D01*
X81667Y188358D01*
X83336Y189763D01*
X85040Y191126D01*
X86776Y192447D01*
X88544Y193725D01*
X90343Y194960D01*
X92172Y196150D01*
X94030Y197294D01*
X95915Y198393D01*
X97826Y199445D01*
X99763Y200450D01*
X101724Y201407D01*
X103707Y202315D01*
X105713Y203175D01*
X107739Y203985D01*
X109784Y204745D01*
X111847Y205455D01*
X113927Y206114D01*
X116023Y206722D01*
X118132Y207278D01*
X120255Y207782D01*
X122390Y208234D01*
X124535Y208633D01*
X126689Y208980D01*
X128851Y209273D01*
X131019Y209514D01*
X133193Y209701D01*
X135371Y209835D01*
X137551Y209915D01*
X139733Y209942D01*
X141915Y209915D01*
X144095Y209835D01*
X146273Y209701D01*
X148447Y209514D01*
X150615Y209273D01*
X152777Y208980D01*
X154931Y208633D01*
X157076Y208234D01*
X159211Y207782D01*
X161334Y207278D01*
X163443Y206722D01*
X165539Y206114D01*
X167619Y205455D01*
X169682Y204745D01*
X171727Y203985D01*
X173753Y203175D01*
X175759Y202315D01*
X177742Y201407D01*
X179703Y200450D01*
X181640Y199445D01*
X183551Y198393D01*
X185436Y197294D01*
X187294Y196150D01*
X189123Y194960D01*
X190922Y193725D01*
X192690Y192447D01*
X194426Y191126D01*
X196130Y189763D01*
X197799Y188358D01*
X199434Y186913D01*
X201032Y185428D01*
X202594Y183904D01*
X204118Y182342D01*
X205603Y180744D01*
X207048Y179109D01*
X208453Y177440D01*
X209816Y175736D01*
X211137Y174000D01*
X212415Y172232D01*
X213650Y170433D01*
X214840Y168604D01*
X215984Y166746D01*
X217083Y164861D01*
X218135Y162950D01*
X219140Y161013D01*
X220097Y159052D01*
X221005Y157069D01*
X221865Y155063D01*
X222675Y153037D01*
X223435Y150992D01*
X224145Y148929D01*
X224804Y146849D01*
X225412Y144753D01*
X225968Y142644D01*
X226472Y140521D01*
X226924Y138386D01*
X227323Y136241D01*
X227670Y134087D01*
X227963Y131925D01*
X228204Y129757D01*
X228391Y127583D01*
X228525Y125405D01*
X228605Y123225D01*
X228632Y121043D01*
X228605Y118861D01*
X228525Y116681D01*
X228391Y114503D01*
X228204Y112329D01*
X227963Y110161D01*
X227670Y107999D01*
X227323Y105845D01*
X226924Y103700D01*
X226472Y101565D01*
X225968Y99442D01*
X225412Y97333D01*
X224804Y95237D01*
X224145Y93157D01*
X223435Y91094D01*
X222675Y89049D01*
X221865Y87023D01*
X221005Y85017D01*
X220097Y83034D01*
X219140Y81073D01*
X218135Y79136D01*
X217083Y77225D01*
X215984Y75340D01*
X214840Y73482D01*
X213650Y71653D01*
X212415Y69854D01*
X211137Y68086D01*
X209816Y66350D01*
X208453Y64646D01*
X207048Y62977D01*
X205603Y61342D01*
X204118Y59744D01*
X202594Y58182D01*
X201032Y56658D01*
X199434Y55173D01*
X197799Y53728D01*
X196130Y52323D01*
X194426Y50960D01*
X192690Y49639D01*
X190922Y48361D01*
X189123Y47126D01*
X187294Y45936D01*
X185436Y44792D01*
X183551Y43693D01*
X181640Y42641D01*
X179703Y41636D01*
X177742Y40679D01*
X175759Y39771D01*
X173753Y38911D01*
X171727Y38101D01*
X169682Y37341D01*
X167619Y36631D01*
X165539Y35972D01*
X163443Y35364D01*
X161334Y34808D01*
X159211Y34304D01*
X157076Y33852D01*
X154931Y33453D01*
X152777Y33106D01*
X150615Y32813D01*
X148447Y32572D01*
X146273Y32385D01*
X144095Y32251D01*
X141915Y32171D01*
X139733Y32144D01*
X137551Y32171D01*
X135371Y32251D01*
X133193Y32385D01*
X131019Y32572D01*
X128851Y32813D01*
X126689Y33106D01*
X124535Y33453D01*
X122390Y33852D01*
X120255Y34304D01*
X118132Y34808D01*
X116023Y35364D01*
X113927Y35972D01*
X111847Y36631D01*
X109784Y37341D01*
X107739Y38101D01*
X105713Y38911D01*
X103707Y39771D01*
X101724Y40679D01*
X99763Y41636D01*
X97826Y42641D01*
X95915Y43693D01*
X94030Y44792D01*
X92172Y45936D01*
X90343Y47126D01*
X88544Y48361D01*
X86776Y49639D01*
X85040Y50960D01*
X83336Y52323D01*
X81667Y53728D01*
X80032Y55173D01*
X78434Y56658D01*
X76872Y58182D01*
X75348Y59744D01*
X73863Y61342D01*
X72418Y62977D01*
X71013Y64646D01*
X69650Y66350D01*
X68329Y68086D01*
X67051Y69854D01*
X65816Y71653D01*
X64626Y73482D01*
X63482Y75340D01*
X62383Y77225D01*
X61331Y79136D01*
X60326Y81073D01*
X59369Y83034D01*
X58461Y85017D01*
X57601Y87023D01*
X56791Y89049D01*
X56031Y91094D01*
X55321Y93157D01*
X54662Y95237D01*
X54054Y97333D01*
X53498Y99442D01*
X52994Y101565D01*
X52542Y103700D01*
X52143Y105845D01*
X51796Y107999D01*
X51503Y110161D01*
X51262Y112329D01*
X51075Y114503D01*
X50941Y116681D01*
X50861Y118861D01*
X50834Y121043D01*
X1185484Y2356962D02*
X1185488Y2357256D01*
X1185498Y2357551D01*
X1185516Y2357844D01*
X1185542Y2358138D01*
X1185574Y2358430D01*
X1185614Y2358722D01*
X1185661Y2359013D01*
X1185714Y2359302D01*
X1185775Y2359590D01*
X1185843Y2359876D01*
X1185918Y2360161D01*
X1186000Y2360444D01*
X1186089Y2360724D01*
X1186185Y2361003D01*
X1186288Y2361279D01*
X1186397Y2361552D01*
X1186513Y2361822D01*
X1186636Y2362090D01*
X1186765Y2362355D01*
X1186900Y2362616D01*
X1187042Y2362874D01*
X1187190Y2363128D01*
X1187345Y2363379D01*
X1187505Y2363626D01*
X1187672Y2363868D01*
X1187844Y2364107D01*
X1188023Y2364341D01*
X1188207Y2364571D01*
X1188396Y2364796D01*
X1188591Y2365017D01*
X1188791Y2365232D01*
X1188997Y2365443D01*
X1189208Y2365649D01*
X1189423Y2365849D01*
X1189644Y2366044D01*
X1189869Y2366233D01*
X1190099Y2366417D01*
X1190333Y2366596D01*
X1190572Y2366768D01*
X1190814Y2366935D01*
X1191061Y2367095D01*
X1191312Y2367250D01*
X1191566Y2367398D01*
X1191824Y2367540D01*
X1192085Y2367675D01*
X1192350Y2367804D01*
X1192618Y2367927D01*
X1192888Y2368043D01*
X1193161Y2368152D01*
X1193437Y2368255D01*
X1193716Y2368351D01*
X1193996Y2368440D01*
X1194279Y2368522D01*
X1194564Y2368597D01*
X1194850Y2368665D01*
X1195138Y2368726D01*
X1195427Y2368779D01*
X1195718Y2368826D01*
X1196010Y2368866D01*
X1196302Y2368898D01*
X1196596Y2368924D01*
X1196889Y2368942D01*
X1197184Y2368952D01*
X1197478Y2368956D01*
X1197772Y2368952D01*
X1198067Y2368942D01*
X1198360Y2368924D01*
X1198654Y2368898D01*
X1198946Y2368866D01*
X1199238Y2368826D01*
X1199529Y2368779D01*
X1199818Y2368726D01*
X1200106Y2368665D01*
X1200392Y2368597D01*
X1200677Y2368522D01*
X1200960Y2368440D01*
X1201240Y2368351D01*
X1201519Y2368255D01*
X1201795Y2368152D01*
X1202068Y2368043D01*
X1202338Y2367927D01*
X1202606Y2367804D01*
X1202871Y2367675D01*
X1203132Y2367540D01*
X1203390Y2367398D01*
X1203644Y2367250D01*
X1203895Y2367095D01*
X1204142Y2366935D01*
X1204384Y2366768D01*
X1204623Y2366596D01*
X1204857Y2366417D01*
X1205087Y2366233D01*
X1205312Y2366044D01*
X1205533Y2365849D01*
X1205748Y2365649D01*
X1205959Y2365443D01*
X1206165Y2365232D01*
X1206365Y2365017D01*
X1206560Y2364796D01*
X1206749Y2364571D01*
X1206933Y2364341D01*
X1207112Y2364107D01*
X1207284Y2363868D01*
X1207451Y2363626D01*
X1207611Y2363379D01*
X1207766Y2363128D01*
X1207914Y2362874D01*
X1208056Y2362616D01*
X1208191Y2362355D01*
X1208320Y2362090D01*
X1208443Y2361822D01*
X1208559Y2361552D01*
X1208668Y2361279D01*
X1208771Y2361003D01*
X1208867Y2360724D01*
X1208956Y2360444D01*
X1209038Y2360161D01*
X1209113Y2359876D01*
X1209181Y2359590D01*
X1209242Y2359302D01*
X1209295Y2359013D01*
X1209342Y2358722D01*
X1209382Y2358430D01*
X1209414Y2358138D01*
X1209440Y2357844D01*
X1209458Y2357551D01*
X1209468Y2357256D01*
X1209472Y2356962D01*
X1209468Y2356668D01*
X1209458Y2356373D01*
X1209440Y2356080D01*
X1209414Y2355786D01*
X1209382Y2355494D01*
X1209342Y2355202D01*
X1209295Y2354911D01*
X1209242Y2354622D01*
X1209181Y2354334D01*
X1209113Y2354048D01*
X1209038Y2353763D01*
X1208956Y2353480D01*
X1208867Y2353200D01*
X1208771Y2352921D01*
X1208668Y2352645D01*
X1208559Y2352372D01*
X1208443Y2352102D01*
X1208320Y2351834D01*
X1208191Y2351569D01*
X1208056Y2351308D01*
X1207914Y2351050D01*
X1207766Y2350796D01*
X1207611Y2350545D01*
X1207451Y2350298D01*
X1207284Y2350056D01*
X1207112Y2349817D01*
X1206933Y2349583D01*
X1206749Y2349353D01*
X1206560Y2349128D01*
X1206365Y2348907D01*
X1206165Y2348692D01*
X1205959Y2348481D01*
X1205748Y2348275D01*
X1205533Y2348075D01*
X1205312Y2347880D01*
X1205087Y2347691D01*
X1204857Y2347507D01*
X1204623Y2347328D01*
X1204384Y2347156D01*
X1204142Y2346989D01*
X1203895Y2346829D01*
X1203644Y2346674D01*
X1203390Y2346526D01*
X1203132Y2346384D01*
X1202871Y2346249D01*
X1202606Y2346120D01*
X1202338Y2345997D01*
X1202068Y2345881D01*
X1201795Y2345772D01*
X1201519Y2345669D01*
X1201240Y2345573D01*
X1200960Y2345484D01*
X1200677Y2345402D01*
X1200392Y2345327D01*
X1200106Y2345259D01*
X1199818Y2345198D01*
X1199529Y2345145D01*
X1199238Y2345098D01*
X1198946Y2345058D01*
X1198654Y2345026D01*
X1198360Y2345000D01*
X1198067Y2344982D01*
X1197772Y2344972D01*
X1197478Y2344968D01*
X1197184Y2344972D01*
X1196889Y2344982D01*
X1196596Y2345000D01*
X1196302Y2345026D01*
X1196010Y2345058D01*
X1195718Y2345098D01*
X1195427Y2345145D01*
X1195138Y2345198D01*
X1194850Y2345259D01*
X1194564Y2345327D01*
X1194279Y2345402D01*
X1193996Y2345484D01*
X1193716Y2345573D01*
X1193437Y2345669D01*
X1193161Y2345772D01*
X1192888Y2345881D01*
X1192618Y2345997D01*
X1192350Y2346120D01*
X1192085Y2346249D01*
X1191824Y2346384D01*
X1191566Y2346526D01*
X1191312Y2346674D01*
X1191061Y2346829D01*
X1190814Y2346989D01*
X1190572Y2347156D01*
X1190333Y2347328D01*
X1190099Y2347507D01*
X1189869Y2347691D01*
X1189644Y2347880D01*
X1189423Y2348075D01*
X1189208Y2348275D01*
X1188997Y2348481D01*
X1188791Y2348692D01*
X1188591Y2348907D01*
X1188396Y2349128D01*
X1188207Y2349353D01*
X1188023Y2349583D01*
X1187844Y2349817D01*
X1187672Y2350056D01*
X1187505Y2350298D01*
X1187345Y2350545D01*
X1187190Y2350796D01*
X1187042Y2351050D01*
X1186900Y2351308D01*
X1186765Y2351569D01*
X1186636Y2351834D01*
X1186513Y2352102D01*
X1186397Y2352372D01*
X1186288Y2352645D01*
X1186185Y2352921D01*
X1186089Y2353200D01*
X1186000Y2353480D01*
X1185918Y2353763D01*
X1185843Y2354048D01*
X1185775Y2354334D01*
X1185714Y2354622D01*
X1185661Y2354911D01*
X1185614Y2355202D01*
X1185574Y2355494D01*
X1185542Y2355786D01*
X1185516Y2356080D01*
X1185498Y2356373D01*
X1185488Y2356668D01*
X1185484Y2356962D01*
X945581Y2596842D02*
X945585Y2597136D01*
X945595Y2597431D01*
X945613Y2597724D01*
X945639Y2598018D01*
X945671Y2598310D01*
X945711Y2598602D01*
X945758Y2598893D01*
X945811Y2599182D01*
X945872Y2599470D01*
X945940Y2599756D01*
X946015Y2600041D01*
X946097Y2600324D01*
X946186Y2600604D01*
X946282Y2600883D01*
X946385Y2601159D01*
X946494Y2601432D01*
X946610Y2601702D01*
X946733Y2601970D01*
X946862Y2602235D01*
X946997Y2602496D01*
X947139Y2602754D01*
X947287Y2603008D01*
X947442Y2603259D01*
X947602Y2603506D01*
X947769Y2603748D01*
X947941Y2603987D01*
X948120Y2604221D01*
X948304Y2604451D01*
X948493Y2604676D01*
X948688Y2604897D01*
X948888Y2605112D01*
X949094Y2605323D01*
X949305Y2605529D01*
X949520Y2605729D01*
X949741Y2605924D01*
X949966Y2606113D01*
X950196Y2606297D01*
X950430Y2606476D01*
X950669Y2606648D01*
X950911Y2606815D01*
X951158Y2606975D01*
X951409Y2607130D01*
X951663Y2607278D01*
X951921Y2607420D01*
X952182Y2607555D01*
X952447Y2607684D01*
X952715Y2607807D01*
X952985Y2607923D01*
X953258Y2608032D01*
X953534Y2608135D01*
X953813Y2608231D01*
X954093Y2608320D01*
X954376Y2608402D01*
X954661Y2608477D01*
X954947Y2608545D01*
X955235Y2608606D01*
X955524Y2608659D01*
X955815Y2608706D01*
X956107Y2608746D01*
X956399Y2608778D01*
X956693Y2608804D01*
X956986Y2608822D01*
X957281Y2608832D01*
X957575Y2608836D01*
X957869Y2608832D01*
X958164Y2608822D01*
X958457Y2608804D01*
X958751Y2608778D01*
X959043Y2608746D01*
X959335Y2608706D01*
X959626Y2608659D01*
X959915Y2608606D01*
X960203Y2608545D01*
X960489Y2608477D01*
X960774Y2608402D01*
X961057Y2608320D01*
X961337Y2608231D01*
X961616Y2608135D01*
X961892Y2608032D01*
X962165Y2607923D01*
X962435Y2607807D01*
X962703Y2607684D01*
X962968Y2607555D01*
X963229Y2607420D01*
X963487Y2607278D01*
X963741Y2607130D01*
X963992Y2606975D01*
X964239Y2606815D01*
X964481Y2606648D01*
X964720Y2606476D01*
X964954Y2606297D01*
X965184Y2606113D01*
X965409Y2605924D01*
X965630Y2605729D01*
X965845Y2605529D01*
X966056Y2605323D01*
X966262Y2605112D01*
X966462Y2604897D01*
X966657Y2604676D01*
X966846Y2604451D01*
X967030Y2604221D01*
X967209Y2603987D01*
X967381Y2603748D01*
X967548Y2603506D01*
X967708Y2603259D01*
X967863Y2603008D01*
X968011Y2602754D01*
X968153Y2602496D01*
X968288Y2602235D01*
X968417Y2601970D01*
X968540Y2601702D01*
X968656Y2601432D01*
X968765Y2601159D01*
X968868Y2600883D01*
X968964Y2600604D01*
X969053Y2600324D01*
X969135Y2600041D01*
X969210Y2599756D01*
X969278Y2599470D01*
X969339Y2599182D01*
X969392Y2598893D01*
X969439Y2598602D01*
X969479Y2598310D01*
X969511Y2598018D01*
X969537Y2597724D01*
X969555Y2597431D01*
X969565Y2597136D01*
X969569Y2596842D01*
X969565Y2596548D01*
X969555Y2596253D01*
X969537Y2595960D01*
X969511Y2595666D01*
X969479Y2595374D01*
X969439Y2595082D01*
X969392Y2594791D01*
X969339Y2594502D01*
X969278Y2594214D01*
X969210Y2593928D01*
X969135Y2593643D01*
X969053Y2593360D01*
X968964Y2593080D01*
X968868Y2592801D01*
X968765Y2592525D01*
X968656Y2592252D01*
X968540Y2591982D01*
X968417Y2591714D01*
X968288Y2591449D01*
X968153Y2591188D01*
X968011Y2590930D01*
X967863Y2590676D01*
X967708Y2590425D01*
X967548Y2590178D01*
X967381Y2589936D01*
X967209Y2589697D01*
X967030Y2589463D01*
X966846Y2589233D01*
X966657Y2589008D01*
X966462Y2588787D01*
X966262Y2588572D01*
X966056Y2588361D01*
X965845Y2588155D01*
X965630Y2587955D01*
X965409Y2587760D01*
X965184Y2587571D01*
X964954Y2587387D01*
X964720Y2587208D01*
X964481Y2587036D01*
X964239Y2586869D01*
X963992Y2586709D01*
X963741Y2586554D01*
X963487Y2586406D01*
X963229Y2586264D01*
X962968Y2586129D01*
X962703Y2586000D01*
X962435Y2585877D01*
X962165Y2585761D01*
X961892Y2585652D01*
X961616Y2585549D01*
X961337Y2585453D01*
X961057Y2585364D01*
X960774Y2585282D01*
X960489Y2585207D01*
X960203Y2585139D01*
X959915Y2585078D01*
X959626Y2585025D01*
X959335Y2584978D01*
X959043Y2584938D01*
X958751Y2584906D01*
X958457Y2584880D01*
X958164Y2584862D01*
X957869Y2584852D01*
X957575Y2584848D01*
X957281Y2584852D01*
X956986Y2584862D01*
X956693Y2584880D01*
X956399Y2584906D01*
X956107Y2584938D01*
X955815Y2584978D01*
X955524Y2585025D01*
X955235Y2585078D01*
X954947Y2585139D01*
X954661Y2585207D01*
X954376Y2585282D01*
X954093Y2585364D01*
X953813Y2585453D01*
X953534Y2585549D01*
X953258Y2585652D01*
X952985Y2585761D01*
X952715Y2585877D01*
X952447Y2586000D01*
X952182Y2586129D01*
X951921Y2586264D01*
X951663Y2586406D01*
X951409Y2586554D01*
X951158Y2586709D01*
X950911Y2586869D01*
X950669Y2587036D01*
X950430Y2587208D01*
X950196Y2587387D01*
X949966Y2587571D01*
X949741Y2587760D01*
X949520Y2587955D01*
X949305Y2588155D01*
X949094Y2588361D01*
X948888Y2588572D01*
X948688Y2588787D01*
X948493Y2589008D01*
X948304Y2589233D01*
X948120Y2589463D01*
X947941Y2589697D01*
X947769Y2589936D01*
X947602Y2590178D01*
X947442Y2590425D01*
X947287Y2590676D01*
X947139Y2590930D01*
X946997Y2591188D01*
X946862Y2591449D01*
X946733Y2591714D01*
X946610Y2591982D01*
X946494Y2592252D01*
X946385Y2592525D01*
X946282Y2592801D01*
X946186Y2593080D01*
X946097Y2593360D01*
X946015Y2593643D01*
X945940Y2593928D01*
X945872Y2594214D01*
X945811Y2594502D01*
X945758Y2594791D01*
X945711Y2595082D01*
X945671Y2595374D01*
X945639Y2595666D01*
X945613Y2595960D01*
X945595Y2596253D01*
X945585Y2596548D01*
X945581Y2596842D01*
X575485Y679310D02*
X575489Y679604D01*
X575499Y679899D01*
X575517Y680192D01*
X575543Y680486D01*
X575575Y680778D01*
X575615Y681070D01*
X575662Y681361D01*
X575715Y681650D01*
X575776Y681938D01*
X575844Y682224D01*
X575919Y682509D01*
X576001Y682792D01*
X576090Y683072D01*
X576186Y683351D01*
X576289Y683627D01*
X576398Y683900D01*
X576514Y684170D01*
X576637Y684438D01*
X576766Y684703D01*
X576901Y684964D01*
X577043Y685222D01*
X577191Y685476D01*
X577346Y685727D01*
X577506Y685974D01*
X577673Y686216D01*
X577845Y686455D01*
X578024Y686689D01*
X578208Y686919D01*
X578397Y687144D01*
X578592Y687365D01*
X578792Y687580D01*
X578998Y687791D01*
X579209Y687997D01*
X579424Y688197D01*
X579645Y688392D01*
X579870Y688581D01*
X580100Y688765D01*
X580334Y688944D01*
X580573Y689116D01*
X580815Y689283D01*
X581062Y689443D01*
X581313Y689598D01*
X581567Y689746D01*
X581825Y689888D01*
X582086Y690023D01*
X582351Y690152D01*
X582619Y690275D01*
X582889Y690391D01*
X583162Y690500D01*
X583438Y690603D01*
X583717Y690699D01*
X583997Y690788D01*
X584280Y690870D01*
X584565Y690945D01*
X584851Y691013D01*
X585139Y691074D01*
X585428Y691127D01*
X585719Y691174D01*
X586011Y691214D01*
X586303Y691246D01*
X586597Y691272D01*
X586890Y691290D01*
X587185Y691300D01*
X587479Y691304D01*
X587773Y691300D01*
X588068Y691290D01*
X588361Y691272D01*
X588655Y691246D01*
X588947Y691214D01*
X589239Y691174D01*
X589530Y691127D01*
X589819Y691074D01*
X590107Y691013D01*
X590393Y690945D01*
X590678Y690870D01*
X590961Y690788D01*
X591241Y690699D01*
X591520Y690603D01*
X591796Y690500D01*
X592069Y690391D01*
X592339Y690275D01*
X592607Y690152D01*
X592872Y690023D01*
X593133Y689888D01*
X593391Y689746D01*
X593645Y689598D01*
X593896Y689443D01*
X594143Y689283D01*
X594385Y689116D01*
X594624Y688944D01*
X594858Y688765D01*
X595088Y688581D01*
X595313Y688392D01*
X595534Y688197D01*
X595749Y687997D01*
X595960Y687791D01*
X596166Y687580D01*
X596366Y687365D01*
X596561Y687144D01*
X596750Y686919D01*
X596934Y686689D01*
X597113Y686455D01*
X597285Y686216D01*
X597452Y685974D01*
X597612Y685727D01*
X597767Y685476D01*
X597915Y685222D01*
X598057Y684964D01*
X598192Y684703D01*
X598321Y684438D01*
X598444Y684170D01*
X598560Y683900D01*
X598669Y683627D01*
X598772Y683351D01*
X598868Y683072D01*
X598957Y682792D01*
X599039Y682509D01*
X599114Y682224D01*
X599182Y681938D01*
X599243Y681650D01*
X599296Y681361D01*
X599343Y681070D01*
X599383Y680778D01*
X599415Y680486D01*
X599441Y680192D01*
X599459Y679899D01*
X599469Y679604D01*
X599473Y679310D01*
X599469Y679016D01*
X599459Y678721D01*
X599441Y678428D01*
X599415Y678134D01*
X599383Y677842D01*
X599343Y677550D01*
X599296Y677259D01*
X599243Y676970D01*
X599182Y676682D01*
X599114Y676396D01*
X599039Y676111D01*
X598957Y675828D01*
X598868Y675548D01*
X598772Y675269D01*
X598669Y674993D01*
X598560Y674720D01*
X598444Y674450D01*
X598321Y674182D01*
X598192Y673917D01*
X598057Y673656D01*
X597915Y673398D01*
X597767Y673144D01*
X597612Y672893D01*
X597452Y672646D01*
X597285Y672404D01*
X597113Y672165D01*
X596934Y671931D01*
X596750Y671701D01*
X596561Y671476D01*
X596366Y671255D01*
X596166Y671040D01*
X595960Y670829D01*
X595749Y670623D01*
X595534Y670423D01*
X595313Y670228D01*
X595088Y670039D01*
X594858Y669855D01*
X594624Y669676D01*
X594385Y669504D01*
X594143Y669337D01*
X593896Y669177D01*
X593645Y669022D01*
X593391Y668874D01*
X593133Y668732D01*
X592872Y668597D01*
X592607Y668468D01*
X592339Y668345D01*
X592069Y668229D01*
X591796Y668120D01*
X591520Y668017D01*
X591241Y667921D01*
X590961Y667832D01*
X590678Y667750D01*
X590393Y667675D01*
X590107Y667607D01*
X589819Y667546D01*
X589530Y667493D01*
X589239Y667446D01*
X588947Y667406D01*
X588655Y667374D01*
X588361Y667348D01*
X588068Y667330D01*
X587773Y667320D01*
X587479Y667316D01*
X587185Y667320D01*
X586890Y667330D01*
X586597Y667348D01*
X586303Y667374D01*
X586011Y667406D01*
X585719Y667446D01*
X585428Y667493D01*
X585139Y667546D01*
X584851Y667607D01*
X584565Y667675D01*
X584280Y667750D01*
X583997Y667832D01*
X583717Y667921D01*
X583438Y668017D01*
X583162Y668120D01*
X582889Y668229D01*
X582619Y668345D01*
X582351Y668468D01*
X582086Y668597D01*
X581825Y668732D01*
X581567Y668874D01*
X581313Y669022D01*
X581062Y669177D01*
X580815Y669337D01*
X580573Y669504D01*
X580334Y669676D01*
X580100Y669855D01*
X579870Y670039D01*
X579645Y670228D01*
X579424Y670423D01*
X579209Y670623D01*
X578998Y670829D01*
X578792Y671040D01*
X578592Y671255D01*
X578397Y671476D01*
X578208Y671701D01*
X578024Y671931D01*
X577845Y672165D01*
X577673Y672404D01*
X577506Y672646D01*
X577346Y672893D01*
X577191Y673144D01*
X577043Y673398D01*
X576901Y673656D01*
X576766Y673917D01*
X576637Y674182D01*
X576514Y674450D01*
X576398Y674720D01*
X576289Y674993D01*
X576186Y675269D01*
X576090Y675548D01*
X576001Y675828D01*
X575919Y676111D01*
X575844Y676396D01*
X575776Y676682D01*
X575715Y676970D01*
X575662Y677259D01*
X575615Y677550D01*
X575575Y677842D01*
X575543Y678134D01*
X575517Y678428D01*
X575499Y678721D01*
X575489Y679016D01*
X575485Y679310D01*
X335605Y439408D02*
X335609Y439702D01*
X335619Y439997D01*
X335637Y440290D01*
X335663Y440584D01*
X335695Y440876D01*
X335735Y441168D01*
X335782Y441459D01*
X335835Y441748D01*
X335896Y442036D01*
X335964Y442322D01*
X336039Y442607D01*
X336121Y442890D01*
X336210Y443170D01*
X336306Y443449D01*
X336409Y443725D01*
X336518Y443998D01*
X336634Y444268D01*
X336757Y444536D01*
X336886Y444801D01*
X337021Y445062D01*
X337163Y445320D01*
X337311Y445574D01*
X337466Y445825D01*
X337626Y446072D01*
X337793Y446314D01*
X337965Y446553D01*
X338144Y446787D01*
X338328Y447017D01*
X338517Y447242D01*
X338712Y447463D01*
X338912Y447678D01*
X339118Y447889D01*
X339329Y448095D01*
X339544Y448295D01*
X339765Y448490D01*
X339990Y448679D01*
X340220Y448863D01*
X340454Y449042D01*
X340693Y449214D01*
X340935Y449381D01*
X341182Y449541D01*
X341433Y449696D01*
X341687Y449844D01*
X341945Y449986D01*
X342206Y450121D01*
X342471Y450250D01*
X342739Y450373D01*
X343009Y450489D01*
X343282Y450598D01*
X343558Y450701D01*
X343837Y450797D01*
X344117Y450886D01*
X344400Y450968D01*
X344685Y451043D01*
X344971Y451111D01*
X345259Y451172D01*
X345548Y451225D01*
X345839Y451272D01*
X346131Y451312D01*
X346423Y451344D01*
X346717Y451370D01*
X347010Y451388D01*
X347305Y451398D01*
X347599Y451402D01*
X347893Y451398D01*
X348188Y451388D01*
X348481Y451370D01*
X348775Y451344D01*
X349067Y451312D01*
X349359Y451272D01*
X349650Y451225D01*
X349939Y451172D01*
X350227Y451111D01*
X350513Y451043D01*
X350798Y450968D01*
X351081Y450886D01*
X351361Y450797D01*
X351640Y450701D01*
X351916Y450598D01*
X352189Y450489D01*
X352459Y450373D01*
X352727Y450250D01*
X352992Y450121D01*
X353253Y449986D01*
X353511Y449844D01*
X353765Y449696D01*
X354016Y449541D01*
X354263Y449381D01*
X354505Y449214D01*
X354744Y449042D01*
X354978Y448863D01*
X355208Y448679D01*
X355433Y448490D01*
X355654Y448295D01*
X355869Y448095D01*
X356080Y447889D01*
X356286Y447678D01*
X356486Y447463D01*
X356681Y447242D01*
X356870Y447017D01*
X357054Y446787D01*
X357233Y446553D01*
X357405Y446314D01*
X357572Y446072D01*
X357732Y445825D01*
X357887Y445574D01*
X358035Y445320D01*
X358177Y445062D01*
X358312Y444801D01*
X358441Y444536D01*
X358564Y444268D01*
X358680Y443998D01*
X358789Y443725D01*
X358892Y443449D01*
X358988Y443170D01*
X359077Y442890D01*
X359159Y442607D01*
X359234Y442322D01*
X359302Y442036D01*
X359363Y441748D01*
X359416Y441459D01*
X359463Y441168D01*
X359503Y440876D01*
X359535Y440584D01*
X359561Y440290D01*
X359579Y439997D01*
X359589Y439702D01*
X359593Y439408D01*
X359589Y439114D01*
X359579Y438819D01*
X359561Y438526D01*
X359535Y438232D01*
X359503Y437940D01*
X359463Y437648D01*
X359416Y437357D01*
X359363Y437068D01*
X359302Y436780D01*
X359234Y436494D01*
X359159Y436209D01*
X359077Y435926D01*
X358988Y435646D01*
X358892Y435367D01*
X358789Y435091D01*
X358680Y434818D01*
X358564Y434548D01*
X358441Y434280D01*
X358312Y434015D01*
X358177Y433754D01*
X358035Y433496D01*
X357887Y433242D01*
X357732Y432991D01*
X357572Y432744D01*
X357405Y432502D01*
X357233Y432263D01*
X357054Y432029D01*
X356870Y431799D01*
X356681Y431574D01*
X356486Y431353D01*
X356286Y431138D01*
X356080Y430927D01*
X355869Y430721D01*
X355654Y430521D01*
X355433Y430326D01*
X355208Y430137D01*
X354978Y429953D01*
X354744Y429774D01*
X354505Y429602D01*
X354263Y429435D01*
X354016Y429275D01*
X353765Y429120D01*
X353511Y428972D01*
X353253Y428830D01*
X352992Y428695D01*
X352727Y428566D01*
X352459Y428443D01*
X352189Y428327D01*
X351916Y428218D01*
X351640Y428115D01*
X351361Y428019D01*
X351081Y427930D01*
X350798Y427848D01*
X350513Y427773D01*
X350227Y427705D01*
X349939Y427644D01*
X349650Y427591D01*
X349359Y427544D01*
X349067Y427504D01*
X348775Y427472D01*
X348481Y427446D01*
X348188Y427428D01*
X347893Y427418D01*
X347599Y427414D01*
X347305Y427418D01*
X347010Y427428D01*
X346717Y427446D01*
X346423Y427472D01*
X346131Y427504D01*
X345839Y427544D01*
X345548Y427591D01*
X345259Y427644D01*
X344971Y427705D01*
X344685Y427773D01*
X344400Y427848D01*
X344117Y427930D01*
X343837Y428019D01*
X343558Y428115D01*
X343282Y428218D01*
X343009Y428327D01*
X342739Y428443D01*
X342471Y428566D01*
X342206Y428695D01*
X341945Y428830D01*
X341687Y428972D01*
X341433Y429120D01*
X341182Y429275D01*
X340935Y429435D01*
X340693Y429602D01*
X340454Y429774D01*
X340220Y429953D01*
X339990Y430137D01*
X339765Y430326D01*
X339544Y430521D01*
X339329Y430721D01*
X339118Y430927D01*
X338912Y431138D01*
X338712Y431353D01*
X338517Y431574D01*
X338328Y431799D01*
X338144Y432029D01*
X337965Y432263D01*
X337793Y432502D01*
X337626Y432744D01*
X337466Y432991D01*
X337311Y433242D01*
X337163Y433496D01*
X337021Y433754D01*
X336886Y434015D01*
X336757Y434280D01*
X336634Y434548D01*
X336518Y434818D01*
X336409Y435091D01*
X336306Y435367D01*
X336210Y435646D01*
X336121Y435926D01*
X336039Y436209D01*
X335964Y436494D01*
X335896Y436780D01*
X335835Y437068D01*
X335782Y437357D01*
X335735Y437648D01*
X335695Y437940D01*
X335663Y438232D01*
X335637Y438526D01*
X335619Y438819D01*
X335609Y439114D01*
X335605Y439408D01*
X350520Y1704340D02*
X350558Y1707457D01*
X350673Y1710572D01*
X350864Y1713683D01*
X351132Y1716788D01*
X351475Y1719886D01*
X351895Y1722975D01*
X352390Y1726052D01*
X352960Y1729116D01*
X353606Y1732166D01*
X354326Y1735198D01*
X355120Y1738213D01*
X355989Y1741206D01*
X356930Y1744178D01*
X357944Y1747125D01*
X359030Y1750047D01*
X360187Y1752941D01*
X361415Y1755806D01*
X362713Y1758639D01*
X364081Y1761441D01*
X365516Y1764207D01*
X367019Y1766938D01*
X368588Y1769631D01*
X370224Y1772285D01*
X371923Y1774897D01*
X373687Y1777468D01*
X375513Y1779994D01*
X377400Y1782474D01*
X379348Y1784908D01*
X381354Y1787293D01*
X383419Y1789628D01*
X385541Y1791912D01*
X387717Y1794143D01*
X389948Y1796319D01*
X392232Y1798441D01*
X394567Y1800506D01*
X396952Y1802512D01*
X399386Y1804460D01*
X401866Y1806347D01*
X404392Y1808173D01*
X406963Y1809937D01*
X409575Y1811636D01*
X412229Y1813272D01*
X414922Y1814841D01*
X417653Y1816344D01*
X420419Y1817779D01*
X423221Y1819147D01*
X426054Y1820445D01*
X428919Y1821673D01*
X431813Y1822830D01*
X434735Y1823916D01*
X437682Y1824930D01*
X440654Y1825871D01*
X443647Y1826740D01*
X446662Y1827534D01*
X449694Y1828254D01*
X452744Y1828900D01*
X455808Y1829470D01*
X458885Y1829965D01*
X461974Y1830385D01*
X465072Y1830728D01*
X468177Y1830996D01*
X471288Y1831187D01*
X474403Y1831302D01*
X477520Y1831340D01*
X480637Y1831302D01*
X483752Y1831187D01*
X486863Y1830996D01*
X489968Y1830728D01*
X493066Y1830385D01*
X496155Y1829965D01*
X499232Y1829470D01*
X502296Y1828900D01*
X505346Y1828254D01*
X508378Y1827534D01*
X511393Y1826740D01*
X514386Y1825871D01*
X517358Y1824930D01*
X520305Y1823916D01*
X523227Y1822830D01*
X526121Y1821673D01*
X528986Y1820445D01*
X531819Y1819147D01*
X534621Y1817779D01*
X537387Y1816344D01*
X540118Y1814841D01*
X542811Y1813272D01*
X545465Y1811636D01*
X548077Y1809937D01*
X550648Y1808173D01*
X553174Y1806347D01*
X555654Y1804460D01*
X558088Y1802512D01*
X560473Y1800506D01*
X562808Y1798441D01*
X565092Y1796319D01*
X567323Y1794143D01*
X569499Y1791912D01*
X571621Y1789628D01*
X573686Y1787293D01*
X575692Y1784908D01*
X577640Y1782474D01*
X579527Y1779994D01*
X581353Y1777468D01*
X583117Y1774897D01*
X584816Y1772285D01*
X586452Y1769631D01*
X588021Y1766938D01*
X589524Y1764207D01*
X590959Y1761441D01*
X592327Y1758639D01*
X593625Y1755806D01*
X594853Y1752941D01*
X596010Y1750047D01*
X597096Y1747125D01*
X598110Y1744178D01*
X599051Y1741206D01*
X599920Y1738213D01*
X600714Y1735198D01*
X601434Y1732166D01*
X602080Y1729116D01*
X602650Y1726052D01*
X603145Y1722975D01*
X603565Y1719886D01*
X603908Y1716788D01*
X604176Y1713683D01*
X604367Y1710572D01*
X604482Y1707457D01*
X604520Y1704340D01*
X604482Y1701223D01*
X604367Y1698108D01*
X604176Y1694997D01*
X603908Y1691892D01*
X603565Y1688794D01*
X603145Y1685705D01*
X602650Y1682628D01*
X602080Y1679564D01*
X601434Y1676514D01*
X600714Y1673482D01*
X599920Y1670467D01*
X599051Y1667474D01*
X598110Y1664502D01*
X597096Y1661555D01*
X596010Y1658633D01*
X594853Y1655739D01*
X593625Y1652874D01*
X592327Y1650041D01*
X590959Y1647239D01*
X589524Y1644473D01*
X588021Y1641742D01*
X586452Y1639049D01*
X584816Y1636395D01*
X583117Y1633783D01*
X581353Y1631212D01*
X579527Y1628686D01*
X577640Y1626206D01*
X575692Y1623772D01*
X573686Y1621387D01*
X571621Y1619052D01*
X569499Y1616768D01*
X567323Y1614537D01*
X565092Y1612361D01*
X562808Y1610239D01*
X560473Y1608174D01*
X558088Y1606168D01*
X555654Y1604220D01*
X553174Y1602333D01*
X550648Y1600507D01*
X548077Y1598743D01*
X545465Y1597044D01*
X542811Y1595408D01*
X540118Y1593839D01*
X537387Y1592336D01*
X534621Y1590901D01*
X531819Y1589533D01*
X528986Y1588235D01*
X526121Y1587007D01*
X523227Y1585850D01*
X520305Y1584764D01*
X517358Y1583750D01*
X514386Y1582809D01*
X511393Y1581940D01*
X508378Y1581146D01*
X505346Y1580426D01*
X502296Y1579780D01*
X499232Y1579210D01*
X496155Y1578715D01*
X493066Y1578295D01*
X489968Y1577952D01*
X486863Y1577684D01*
X483752Y1577493D01*
X480637Y1577378D01*
X477520Y1577340D01*
X474403Y1577378D01*
X471288Y1577493D01*
X468177Y1577684D01*
X465072Y1577952D01*
X461974Y1578295D01*
X458885Y1578715D01*
X455808Y1579210D01*
X452744Y1579780D01*
X449694Y1580426D01*
X446662Y1581146D01*
X443647Y1581940D01*
X440654Y1582809D01*
X437682Y1583750D01*
X434735Y1584764D01*
X431813Y1585850D01*
X428919Y1587007D01*
X426054Y1588235D01*
X423221Y1589533D01*
X420419Y1590901D01*
X417653Y1592336D01*
X414922Y1593839D01*
X412229Y1595408D01*
X409575Y1597044D01*
X406963Y1598743D01*
X404392Y1600507D01*
X401866Y1602333D01*
X399386Y1604220D01*
X396952Y1606168D01*
X394567Y1608174D01*
X392232Y1610239D01*
X389948Y1612361D01*
X387717Y1614537D01*
X385541Y1616768D01*
X383419Y1619052D01*
X381354Y1621387D01*
X379348Y1623772D01*
X377400Y1626206D01*
X375513Y1628686D01*
X373687Y1631212D01*
X371923Y1633783D01*
X370224Y1636395D01*
X368588Y1639049D01*
X367019Y1641742D01*
X365516Y1644473D01*
X364081Y1647239D01*
X362713Y1650041D01*
X361415Y1652874D01*
X360187Y1655739D01*
X359030Y1658633D01*
X357944Y1661555D01*
X356930Y1664502D01*
X355989Y1667474D01*
X355120Y1670467D01*
X354326Y1673482D01*
X353606Y1676514D01*
X352960Y1679564D01*
X352390Y1682628D01*
X351895Y1685705D01*
X351475Y1688794D01*
X351132Y1691892D01*
X350864Y1694997D01*
X350673Y1698108D01*
X350558Y1701223D01*
X350520Y1704340D01*
X350534Y561347D02*
X350572Y564464D01*
X350687Y567579D01*
X350878Y570690D01*
X351146Y573795D01*
X351489Y576893D01*
X351909Y579982D01*
X352404Y583059D01*
X352974Y586123D01*
X353620Y589173D01*
X354340Y592205D01*
X355134Y595220D01*
X356003Y598213D01*
X356944Y601185D01*
X357958Y604132D01*
X359044Y607054D01*
X360201Y609948D01*
X361429Y612813D01*
X362727Y615646D01*
X364095Y618448D01*
X365530Y621214D01*
X367033Y623945D01*
X368602Y626638D01*
X370238Y629292D01*
X371937Y631904D01*
X373701Y634475D01*
X375527Y637001D01*
X377414Y639481D01*
X379362Y641915D01*
X381368Y644300D01*
X383433Y646635D01*
X385555Y648919D01*
X387731Y651150D01*
X389962Y653326D01*
X392246Y655448D01*
X394581Y657513D01*
X396966Y659519D01*
X399400Y661467D01*
X401880Y663354D01*
X404406Y665180D01*
X406977Y666944D01*
X409589Y668643D01*
X412243Y670279D01*
X414936Y671848D01*
X417667Y673351D01*
X420433Y674786D01*
X423235Y676154D01*
X426068Y677452D01*
X428933Y678680D01*
X431827Y679837D01*
X434749Y680923D01*
X437696Y681937D01*
X440668Y682878D01*
X443661Y683747D01*
X446676Y684541D01*
X449708Y685261D01*
X452758Y685907D01*
X455822Y686477D01*
X458899Y686972D01*
X461988Y687392D01*
X465086Y687735D01*
X468191Y688003D01*
X471302Y688194D01*
X474417Y688309D01*
X477534Y688347D01*
X480651Y688309D01*
X483766Y688194D01*
X486877Y688003D01*
X489982Y687735D01*
X493080Y687392D01*
X496169Y686972D01*
X499246Y686477D01*
X502310Y685907D01*
X505360Y685261D01*
X508392Y684541D01*
X511407Y683747D01*
X514400Y682878D01*
X517372Y681937D01*
X520319Y680923D01*
X523241Y679837D01*
X526135Y678680D01*
X529000Y677452D01*
X531833Y676154D01*
X534635Y674786D01*
X537401Y673351D01*
X540132Y671848D01*
X542825Y670279D01*
X545479Y668643D01*
X548091Y666944D01*
X550662Y665180D01*
X553188Y663354D01*
X555668Y661467D01*
X558102Y659519D01*
X560487Y657513D01*
X562822Y655448D01*
X565106Y653326D01*
X567337Y651150D01*
X569513Y648919D01*
X571635Y646635D01*
X573700Y644300D01*
X575706Y641915D01*
X577654Y639481D01*
X579541Y637001D01*
X581367Y634475D01*
X583131Y631904D01*
X584830Y629292D01*
X586466Y626638D01*
X588035Y623945D01*
X589538Y621214D01*
X590973Y618448D01*
X592341Y615646D01*
X593639Y612813D01*
X594867Y609948D01*
X596024Y607054D01*
X597110Y604132D01*
X598124Y601185D01*
X599065Y598213D01*
X599934Y595220D01*
X600728Y592205D01*
X601448Y589173D01*
X602094Y586123D01*
X602664Y583059D01*
X603159Y579982D01*
X603579Y576893D01*
X603922Y573795D01*
X604190Y570690D01*
X604381Y567579D01*
X604496Y564464D01*
X604534Y561347D01*
X604496Y558230D01*
X604381Y555115D01*
X604190Y552004D01*
X603922Y548899D01*
X603579Y545801D01*
X603159Y542712D01*
X602664Y539635D01*
X602094Y536571D01*
X601448Y533521D01*
X600728Y530489D01*
X599934Y527474D01*
X599065Y524481D01*
X598124Y521509D01*
X597110Y518562D01*
X596024Y515640D01*
X594867Y512746D01*
X593639Y509881D01*
X592341Y507048D01*
X590973Y504246D01*
X589538Y501480D01*
X588035Y498749D01*
X586466Y496056D01*
X584830Y493402D01*
X583131Y490790D01*
X581367Y488219D01*
X579541Y485693D01*
X577654Y483213D01*
X575706Y480779D01*
X573700Y478394D01*
X571635Y476059D01*
X569513Y473775D01*
X567337Y471544D01*
X565106Y469368D01*
X562822Y467246D01*
X560487Y465181D01*
X558102Y463175D01*
X555668Y461227D01*
X553188Y459340D01*
X550662Y457514D01*
X548091Y455750D01*
X545479Y454051D01*
X542825Y452415D01*
X540132Y450846D01*
X537401Y449343D01*
X534635Y447908D01*
X531833Y446540D01*
X529000Y445242D01*
X526135Y444014D01*
X523241Y442857D01*
X520319Y441771D01*
X517372Y440757D01*
X514400Y439816D01*
X511407Y438947D01*
X508392Y438153D01*
X505360Y437433D01*
X502310Y436787D01*
X499246Y436217D01*
X496169Y435722D01*
X493080Y435302D01*
X489982Y434959D01*
X486877Y434691D01*
X483766Y434500D01*
X480651Y434385D01*
X477534Y434347D01*
X474417Y434385D01*
X471302Y434500D01*
X468191Y434691D01*
X465086Y434959D01*
X461988Y435302D01*
X458899Y435722D01*
X455822Y436217D01*
X452758Y436787D01*
X449708Y437433D01*
X446676Y438153D01*
X443661Y438947D01*
X440668Y439816D01*
X437696Y440757D01*
X434749Y441771D01*
X431827Y442857D01*
X428933Y444014D01*
X426068Y445242D01*
X423235Y446540D01*
X420433Y447908D01*
X417667Y449343D01*
X414936Y450846D01*
X412243Y452415D01*
X409589Y454051D01*
X406977Y455750D01*
X404406Y457514D01*
X401880Y459340D01*
X399400Y461227D01*
X396966Y463175D01*
X394581Y465181D01*
X392246Y467246D01*
X389962Y469368D01*
X387731Y471544D01*
X385555Y473775D01*
X383433Y476059D01*
X381368Y478394D01*
X379362Y480779D01*
X377414Y483213D01*
X375527Y485693D01*
X373701Y488219D01*
X371937Y490790D01*
X370238Y493402D01*
X368602Y496056D01*
X367033Y498749D01*
X365530Y501480D01*
X364095Y504246D01*
X362727Y507048D01*
X361429Y509881D01*
X360201Y512746D01*
X359044Y515640D01*
X357958Y518562D01*
X356944Y521509D01*
X356003Y524481D01*
X355134Y527474D01*
X354340Y530489D01*
X353620Y533521D01*
X352974Y536571D01*
X352404Y539635D01*
X351909Y542712D01*
X351489Y545801D01*
X351146Y548899D01*
X350878Y552004D01*
X350687Y555115D01*
X350572Y558230D01*
X350534Y561347D01*
X2658052Y2726871D02*
X2658079Y2729053D01*
X2658159Y2731233D01*
X2658293Y2733411D01*
X2658480Y2735585D01*
X2658721Y2737753D01*
X2659014Y2739915D01*
X2659361Y2742069D01*
X2659760Y2744214D01*
X2660212Y2746349D01*
X2660716Y2748472D01*
X2661272Y2750581D01*
X2661880Y2752677D01*
X2662539Y2754757D01*
X2663249Y2756820D01*
X2664009Y2758865D01*
X2664819Y2760891D01*
X2665679Y2762897D01*
X2666587Y2764880D01*
X2667544Y2766841D01*
X2668549Y2768778D01*
X2669601Y2770689D01*
X2670700Y2772574D01*
X2671844Y2774432D01*
X2673034Y2776261D01*
X2674269Y2778060D01*
X2675547Y2779828D01*
X2676868Y2781564D01*
X2678231Y2783268D01*
X2679636Y2784937D01*
X2681081Y2786572D01*
X2682566Y2788170D01*
X2684090Y2789732D01*
X2685652Y2791256D01*
X2687250Y2792741D01*
X2688885Y2794186D01*
X2690554Y2795591D01*
X2692258Y2796954D01*
X2693994Y2798275D01*
X2695762Y2799553D01*
X2697561Y2800788D01*
X2699390Y2801978D01*
X2701248Y2803122D01*
X2703133Y2804221D01*
X2705044Y2805273D01*
X2706981Y2806278D01*
X2708942Y2807235D01*
X2710925Y2808143D01*
X2712931Y2809003D01*
X2714957Y2809813D01*
X2717002Y2810573D01*
X2719065Y2811283D01*
X2721145Y2811942D01*
X2723241Y2812550D01*
X2725350Y2813106D01*
X2727473Y2813610D01*
X2729608Y2814062D01*
X2731753Y2814461D01*
X2733907Y2814808D01*
X2736069Y2815101D01*
X2738237Y2815342D01*
X2740411Y2815529D01*
X2742589Y2815663D01*
X2744769Y2815743D01*
X2746951Y2815770D01*
X2749133Y2815743D01*
X2751313Y2815663D01*
X2753491Y2815529D01*
X2755665Y2815342D01*
X2757833Y2815101D01*
X2759995Y2814808D01*
X2762149Y2814461D01*
X2764294Y2814062D01*
X2766429Y2813610D01*
X2768552Y2813106D01*
X2770661Y2812550D01*
X2772757Y2811942D01*
X2774837Y2811283D01*
X2776900Y2810573D01*
X2778945Y2809813D01*
X2780971Y2809003D01*
X2782977Y2808143D01*
X2784960Y2807235D01*
X2786921Y2806278D01*
X2788858Y2805273D01*
X2790769Y2804221D01*
X2792654Y2803122D01*
X2794512Y2801978D01*
X2796341Y2800788D01*
X2798140Y2799553D01*
X2799908Y2798275D01*
X2801644Y2796954D01*
X2803348Y2795591D01*
X2805017Y2794186D01*
X2806652Y2792741D01*
X2808250Y2791256D01*
X2809812Y2789732D01*
X2811336Y2788170D01*
X2812821Y2786572D01*
X2814266Y2784937D01*
X2815671Y2783268D01*
X2817034Y2781564D01*
X2818355Y2779828D01*
X2819633Y2778060D01*
X2820868Y2776261D01*
X2822058Y2774432D01*
X2823202Y2772574D01*
X2824301Y2770689D01*
X2825353Y2768778D01*
X2826358Y2766841D01*
X2827315Y2764880D01*
X2828223Y2762897D01*
X2829083Y2760891D01*
X2829893Y2758865D01*
X2830653Y2756820D01*
X2831363Y2754757D01*
X2832022Y2752677D01*
X2832630Y2750581D01*
X2833186Y2748472D01*
X2833690Y2746349D01*
X2834142Y2744214D01*
X2834541Y2742069D01*
X2834888Y2739915D01*
X2835181Y2737753D01*
X2835422Y2735585D01*
X2835609Y2733411D01*
X2835743Y2731233D01*
X2835823Y2729053D01*
X2835850Y2726871D01*
X2835823Y2724689D01*
X2835743Y2722509D01*
X2835609Y2720331D01*
X2835422Y2718157D01*
X2835181Y2715989D01*
X2834888Y2713827D01*
X2834541Y2711673D01*
X2834142Y2709528D01*
X2833690Y2707393D01*
X2833186Y2705270D01*
X2832630Y2703161D01*
X2832022Y2701065D01*
X2831363Y2698985D01*
X2830653Y2696922D01*
X2829893Y2694877D01*
X2829083Y2692851D01*
X2828223Y2690845D01*
X2827315Y2688862D01*
X2826358Y2686901D01*
X2825353Y2684964D01*
X2824301Y2683053D01*
X2823202Y2681168D01*
X2822058Y2679310D01*
X2820868Y2677481D01*
X2819633Y2675682D01*
X2818355Y2673914D01*
X2817034Y2672178D01*
X2815671Y2670474D01*
X2814266Y2668805D01*
X2812821Y2667170D01*
X2811336Y2665572D01*
X2809812Y2664010D01*
X2808250Y2662486D01*
X2806652Y2661001D01*
X2805017Y2659556D01*
X2803348Y2658151D01*
X2801644Y2656788D01*
X2799908Y2655467D01*
X2798140Y2654189D01*
X2796341Y2652954D01*
X2794512Y2651764D01*
X2792654Y2650620D01*
X2790769Y2649521D01*
X2788858Y2648469D01*
X2786921Y2647464D01*
X2784960Y2646507D01*
X2782977Y2645599D01*
X2780971Y2644739D01*
X2778945Y2643929D01*
X2776900Y2643169D01*
X2774837Y2642459D01*
X2772757Y2641800D01*
X2770661Y2641192D01*
X2768552Y2640636D01*
X2766429Y2640132D01*
X2764294Y2639680D01*
X2762149Y2639281D01*
X2759995Y2638934D01*
X2757833Y2638641D01*
X2755665Y2638400D01*
X2753491Y2638213D01*
X2751313Y2638079D01*
X2749133Y2637999D01*
X2746951Y2637972D01*
X2744769Y2637999D01*
X2742589Y2638079D01*
X2740411Y2638213D01*
X2738237Y2638400D01*
X2736069Y2638641D01*
X2733907Y2638934D01*
X2731753Y2639281D01*
X2729608Y2639680D01*
X2727473Y2640132D01*
X2725350Y2640636D01*
X2723241Y2641192D01*
X2721145Y2641800D01*
X2719065Y2642459D01*
X2717002Y2643169D01*
X2714957Y2643929D01*
X2712931Y2644739D01*
X2710925Y2645599D01*
X2708942Y2646507D01*
X2706981Y2647464D01*
X2705044Y2648469D01*
X2703133Y2649521D01*
X2701248Y2650620D01*
X2699390Y2651764D01*
X2697561Y2652954D01*
X2695762Y2654189D01*
X2693994Y2655467D01*
X2692258Y2656788D01*
X2690554Y2658151D01*
X2688885Y2659556D01*
X2687250Y2661001D01*
X2685652Y2662486D01*
X2684090Y2664010D01*
X2682566Y2665572D01*
X2681081Y2667170D01*
X2679636Y2668805D01*
X2678231Y2670474D01*
X2676868Y2672178D01*
X2675547Y2673914D01*
X2674269Y2675682D01*
X2673034Y2677481D01*
X2671844Y2679310D01*
X2670700Y2681168D01*
X2669601Y2683053D01*
X2668549Y2684964D01*
X2667544Y2686901D01*
X2666587Y2688862D01*
X2665679Y2690845D01*
X2664819Y2692851D01*
X2664009Y2694877D01*
X2663249Y2696922D01*
X2662539Y2698985D01*
X2661880Y2701065D01*
X2661272Y2703161D01*
X2660716Y2705270D01*
X2660212Y2707393D01*
X2659760Y2709528D01*
X2659361Y2711673D01*
X2659014Y2713827D01*
X2658721Y2715989D01*
X2658480Y2718157D01*
X2658293Y2720331D01*
X2658159Y2722509D01*
X2658079Y2724689D01*
X2658052Y2726871D01*
X1489401Y259087D02*
X1489458Y263762D01*
X1489630Y268434D01*
X1489917Y273101D01*
X1490318Y277759D01*
X1490834Y282406D01*
X1491463Y287039D01*
X1492206Y291655D01*
X1493061Y296252D01*
X1494030Y300826D01*
X1495110Y305375D01*
X1496302Y309896D01*
X1497604Y314386D01*
X1499016Y318843D01*
X1500537Y323265D01*
X1502166Y327647D01*
X1503902Y331988D01*
X1505744Y336285D01*
X1507691Y340536D01*
X1509742Y344738D01*
X1511895Y348888D01*
X1514149Y352984D01*
X1516504Y357024D01*
X1518956Y361004D01*
X1521506Y364923D01*
X1524151Y368778D01*
X1526890Y372568D01*
X1529721Y376289D01*
X1532643Y379939D01*
X1535653Y383516D01*
X1538750Y387019D01*
X1541932Y390444D01*
X1545197Y393791D01*
X1548544Y397056D01*
X1551969Y400238D01*
X1555472Y403335D01*
X1559049Y406345D01*
X1562699Y409267D01*
X1566420Y412098D01*
X1570210Y414837D01*
X1574065Y417482D01*
X1577984Y420032D01*
X1581964Y422484D01*
X1586004Y424839D01*
X1590100Y427093D01*
X1594250Y429246D01*
X1598452Y431297D01*
X1602703Y433244D01*
X1607000Y435086D01*
X1611341Y436822D01*
X1615723Y438451D01*
X1620145Y439972D01*
X1624602Y441384D01*
X1629092Y442686D01*
X1633613Y443878D01*
X1638162Y444958D01*
X1642736Y445927D01*
X1647333Y446782D01*
X1651949Y447525D01*
X1656582Y448154D01*
X1661229Y448670D01*
X1665887Y449071D01*
X1670554Y449358D01*
X1675226Y449530D01*
X1679901Y449587D01*
X1684576Y449530D01*
X1689248Y449358D01*
X1693915Y449071D01*
X1698573Y448670D01*
X1703220Y448154D01*
X1707853Y447525D01*
X1712469Y446782D01*
X1717066Y445927D01*
X1721640Y444958D01*
X1726189Y443878D01*
X1730710Y442686D01*
X1735200Y441384D01*
X1739657Y439972D01*
X1744079Y438451D01*
X1748461Y436822D01*
X1752802Y435086D01*
X1757099Y433244D01*
X1761350Y431297D01*
X1765552Y429246D01*
X1769702Y427093D01*
X1773798Y424839D01*
X1777838Y422484D01*
X1781818Y420032D01*
X1785737Y417482D01*
X1789592Y414837D01*
X1793382Y412098D01*
X1797103Y409267D01*
X1800753Y406345D01*
X1804330Y403335D01*
X1807833Y400238D01*
X1811258Y397056D01*
X1814605Y393791D01*
X1817870Y390444D01*
X1821052Y387019D01*
X1824149Y383516D01*
X1827159Y379939D01*
X1830081Y376289D01*
X1832912Y372568D01*
X1835651Y368778D01*
X1838296Y364923D01*
X1840846Y361004D01*
X1843298Y357024D01*
X1845653Y352984D01*
X1847907Y348888D01*
X1850060Y344738D01*
X1852111Y340536D01*
X1854058Y336285D01*
X1855900Y331988D01*
X1857636Y327647D01*
X1859265Y323265D01*
X1860786Y318843D01*
X1862198Y314386D01*
X1863500Y309896D01*
X1864692Y305375D01*
X1865772Y300826D01*
X1866741Y296252D01*
X1867596Y291655D01*
X1868339Y287039D01*
X1868968Y282406D01*
X1869484Y277759D01*
X1869885Y273101D01*
X1870172Y268434D01*
X1870344Y263762D01*
X1870401Y259087D01*
X1870344Y254412D01*
X1870172Y249740D01*
X1869885Y245073D01*
X1869484Y240415D01*
X1868968Y235768D01*
X1868339Y231135D01*
X1867596Y226519D01*
X1866741Y221922D01*
X1865772Y217348D01*
X1864692Y212799D01*
X1863500Y208278D01*
X1862198Y203788D01*
X1860786Y199331D01*
X1859265Y194909D01*
X1857636Y190527D01*
X1855900Y186186D01*
X1854058Y181889D01*
X1852111Y177638D01*
X1850060Y173436D01*
X1847907Y169286D01*
X1845653Y165190D01*
X1843298Y161150D01*
X1840846Y157170D01*
X1838296Y153251D01*
X1835651Y149396D01*
X1832912Y145606D01*
X1830081Y141885D01*
X1827159Y138235D01*
X1824149Y134658D01*
X1821052Y131155D01*
X1817870Y127730D01*
X1814605Y124383D01*
X1811258Y121118D01*
X1807833Y117936D01*
X1804330Y114839D01*
X1800753Y111829D01*
X1797103Y108907D01*
X1793382Y106076D01*
X1789592Y103337D01*
X1785737Y100692D01*
X1781818Y98142D01*
X1777838Y95690D01*
X1773798Y93335D01*
X1769702Y91081D01*
X1765552Y88928D01*
X1761350Y86877D01*
X1757099Y84930D01*
X1752802Y83088D01*
X1748461Y81352D01*
X1744079Y79723D01*
X1739657Y78202D01*
X1735200Y76790D01*
X1730710Y75488D01*
X1726189Y74296D01*
X1721640Y73216D01*
X1717066Y72247D01*
X1712469Y71392D01*
X1707853Y70649D01*
X1703220Y70020D01*
X1698573Y69504D01*
X1693915Y69103D01*
X1689248Y68816D01*
X1684576Y68644D01*
X1679901Y68587D01*
X1675226Y68644D01*
X1670554Y68816D01*
X1665887Y69103D01*
X1661229Y69504D01*
X1656582Y70020D01*
X1651949Y70649D01*
X1647333Y71392D01*
X1642736Y72247D01*
X1638162Y73216D01*
X1633613Y74296D01*
X1629092Y75488D01*
X1624602Y76790D01*
X1620145Y78202D01*
X1615723Y79723D01*
X1611341Y81352D01*
X1607000Y83088D01*
X1602703Y84930D01*
X1598452Y86877D01*
X1594250Y88928D01*
X1590100Y91081D01*
X1586004Y93335D01*
X1581964Y95690D01*
X1577984Y98142D01*
X1574065Y100692D01*
X1570210Y103337D01*
X1566420Y106076D01*
X1562699Y108907D01*
X1559049Y111829D01*
X1555472Y114839D01*
X1551969Y117936D01*
X1548544Y121118D01*
X1545197Y124383D01*
X1541932Y127730D01*
X1538750Y131155D01*
X1535653Y134658D01*
X1532643Y138235D01*
X1529721Y141885D01*
X1526890Y145606D01*
X1524151Y149396D01*
X1521506Y153251D01*
X1518956Y157170D01*
X1516504Y161150D01*
X1514149Y165190D01*
X1511895Y169286D01*
X1509742Y173436D01*
X1507691Y177638D01*
X1505744Y181889D01*
X1503902Y186186D01*
X1502166Y190527D01*
X1500537Y194909D01*
X1499016Y199331D01*
X1497604Y203788D01*
X1496302Y208278D01*
X1495110Y212799D01*
X1494030Y217348D01*
X1493061Y221922D01*
X1492206Y226519D01*
X1491463Y231135D01*
X1490834Y235768D01*
X1490318Y240415D01*
X1489917Y245073D01*
X1489630Y249740D01*
X1489458Y254412D01*
X1489401Y259087D01*
X952514Y2466907D02*
X952552Y2470024D01*
X952667Y2473139D01*
X952858Y2476250D01*
X953126Y2479355D01*
X953469Y2482453D01*
X953889Y2485542D01*
X954384Y2488619D01*
X954954Y2491683D01*
X955600Y2494733D01*
X956320Y2497765D01*
X957114Y2500780D01*
X957983Y2503773D01*
X958924Y2506745D01*
X959938Y2509692D01*
X961024Y2512614D01*
X962181Y2515508D01*
X963409Y2518373D01*
X964707Y2521206D01*
X966075Y2524008D01*
X967510Y2526774D01*
X969013Y2529505D01*
X970582Y2532198D01*
X972218Y2534852D01*
X973917Y2537464D01*
X975681Y2540035D01*
X977507Y2542561D01*
X979394Y2545041D01*
X981342Y2547475D01*
X983348Y2549860D01*
X985413Y2552195D01*
X987535Y2554479D01*
X989711Y2556710D01*
X991942Y2558886D01*
X994226Y2561008D01*
X996561Y2563073D01*
X998946Y2565079D01*
X1001380Y2567027D01*
X1003860Y2568914D01*
X1006386Y2570740D01*
X1008957Y2572504D01*
X1011569Y2574203D01*
X1014223Y2575839D01*
X1016916Y2577408D01*
X1019647Y2578911D01*
X1022413Y2580346D01*
X1025215Y2581714D01*
X1028048Y2583012D01*
X1030913Y2584240D01*
X1033807Y2585397D01*
X1036729Y2586483D01*
X1039676Y2587497D01*
X1042648Y2588438D01*
X1045641Y2589307D01*
X1048656Y2590101D01*
X1051688Y2590821D01*
X1054738Y2591467D01*
X1057802Y2592037D01*
X1060879Y2592532D01*
X1063968Y2592952D01*
X1067066Y2593295D01*
X1070171Y2593563D01*
X1073282Y2593754D01*
X1076397Y2593869D01*
X1079514Y2593907D01*
X1082631Y2593869D01*
X1085746Y2593754D01*
X1088857Y2593563D01*
X1091962Y2593295D01*
X1095060Y2592952D01*
X1098149Y2592532D01*
X1101226Y2592037D01*
X1104290Y2591467D01*
X1107340Y2590821D01*
X1110372Y2590101D01*
X1113387Y2589307D01*
X1116380Y2588438D01*
X1119352Y2587497D01*
X1122299Y2586483D01*
X1125221Y2585397D01*
X1128115Y2584240D01*
X1130980Y2583012D01*
X1133813Y2581714D01*
X1136615Y2580346D01*
X1139381Y2578911D01*
X1142112Y2577408D01*
X1144805Y2575839D01*
X1147459Y2574203D01*
X1150071Y2572504D01*
X1152642Y2570740D01*
X1155168Y2568914D01*
X1157648Y2567027D01*
X1160082Y2565079D01*
X1162467Y2563073D01*
X1164802Y2561008D01*
X1167086Y2558886D01*
X1169317Y2556710D01*
X1171493Y2554479D01*
X1173615Y2552195D01*
X1175680Y2549860D01*
X1177686Y2547475D01*
X1179634Y2545041D01*
X1181521Y2542561D01*
X1183347Y2540035D01*
X1185111Y2537464D01*
X1186810Y2534852D01*
X1188446Y2532198D01*
X1190015Y2529505D01*
X1191518Y2526774D01*
X1192953Y2524008D01*
X1194321Y2521206D01*
X1195619Y2518373D01*
X1196847Y2515508D01*
X1198004Y2512614D01*
X1199090Y2509692D01*
X1200104Y2506745D01*
X1201045Y2503773D01*
X1201914Y2500780D01*
X1202708Y2497765D01*
X1203428Y2494733D01*
X1204074Y2491683D01*
X1204644Y2488619D01*
X1205139Y2485542D01*
X1205559Y2482453D01*
X1205902Y2479355D01*
X1206170Y2476250D01*
X1206361Y2473139D01*
X1206476Y2470024D01*
X1206514Y2466907D01*
X1206476Y2463790D01*
X1206361Y2460675D01*
X1206170Y2457564D01*
X1205902Y2454459D01*
X1205559Y2451361D01*
X1205139Y2448272D01*
X1204644Y2445195D01*
X1204074Y2442131D01*
X1203428Y2439081D01*
X1202708Y2436049D01*
X1201914Y2433034D01*
X1201045Y2430041D01*
X1200104Y2427069D01*
X1199090Y2424122D01*
X1198004Y2421200D01*
X1196847Y2418306D01*
X1195619Y2415441D01*
X1194321Y2412608D01*
X1192953Y2409806D01*
X1191518Y2407040D01*
X1190015Y2404309D01*
X1188446Y2401616D01*
X1186810Y2398962D01*
X1185111Y2396350D01*
X1183347Y2393779D01*
X1181521Y2391253D01*
X1179634Y2388773D01*
X1177686Y2386339D01*
X1175680Y2383954D01*
X1173615Y2381619D01*
X1171493Y2379335D01*
X1169317Y2377104D01*
X1167086Y2374928D01*
X1164802Y2372806D01*
X1162467Y2370741D01*
X1160082Y2368735D01*
X1157648Y2366787D01*
X1155168Y2364900D01*
X1152642Y2363074D01*
X1150071Y2361310D01*
X1147459Y2359611D01*
X1144805Y2357975D01*
X1142112Y2356406D01*
X1139381Y2354903D01*
X1136615Y2353468D01*
X1133813Y2352100D01*
X1130980Y2350802D01*
X1128115Y2349574D01*
X1125221Y2348417D01*
X1122299Y2347331D01*
X1119352Y2346317D01*
X1116380Y2345376D01*
X1113387Y2344507D01*
X1110372Y2343713D01*
X1107340Y2342993D01*
X1104290Y2342347D01*
X1101226Y2341777D01*
X1098149Y2341282D01*
X1095060Y2340862D01*
X1091962Y2340519D01*
X1088857Y2340251D01*
X1085746Y2340060D01*
X1082631Y2339945D01*
X1079514Y2339907D01*
X1076397Y2339945D01*
X1073282Y2340060D01*
X1070171Y2340251D01*
X1067066Y2340519D01*
X1063968Y2340862D01*
X1060879Y2341282D01*
X1057802Y2341777D01*
X1054738Y2342347D01*
X1051688Y2342993D01*
X1048656Y2343713D01*
X1045641Y2344507D01*
X1042648Y2345376D01*
X1039676Y2346317D01*
X1036729Y2347331D01*
X1033807Y2348417D01*
X1030913Y2349574D01*
X1028048Y2350802D01*
X1025215Y2352100D01*
X1022413Y2353468D01*
X1019647Y2354903D01*
X1016916Y2356406D01*
X1014223Y2357975D01*
X1011569Y2359611D01*
X1008957Y2361310D01*
X1006386Y2363074D01*
X1003860Y2364900D01*
X1001380Y2366787D01*
X998946Y2368735D01*
X996561Y2370741D01*
X994226Y2372806D01*
X991942Y2374928D01*
X989711Y2377104D01*
X987535Y2379335D01*
X985413Y2381619D01*
X983348Y2383954D01*
X981342Y2386339D01*
X979394Y2388773D01*
X977507Y2391253D01*
X975681Y2393779D01*
X973917Y2396350D01*
X972218Y2398962D01*
X970582Y2401616D01*
X969013Y2404309D01*
X967510Y2407040D01*
X966075Y2409806D01*
X964707Y2412608D01*
X963409Y2415441D01*
X962181Y2418306D01*
X961024Y2421200D01*
X959938Y2424122D01*
X958924Y2427069D01*
X957983Y2430041D01*
X957114Y2433034D01*
X956320Y2436049D01*
X955600Y2439081D01*
X954954Y2442131D01*
X954384Y2445195D01*
X953889Y2448272D01*
X953469Y2451361D01*
X953126Y2454459D01*
X952858Y2457564D01*
X952667Y2460675D01*
X952552Y2463790D01*
X952514Y2466907D01*
X916631Y2797107D02*
X827731Y2797107D01*
X916631Y2797107D02*
X916631Y2733607D01*
X827731Y2733607D01*
X827731Y2797107D01*
X827731Y2403407D02*
X916631Y2403407D01*
X916631Y2339907D01*
X827731Y2339907D01*
X827731Y2403407D01*
X1932631Y2403407D02*
X2021531Y2403407D01*
X2021531Y2339907D01*
X1932631Y2339907D01*
X1932631Y2403407D01*
X1932631Y2733607D02*
X2021531Y2733607D01*
X1932631Y2733607D02*
X1932631Y2797107D01*
X2021531Y2797107D01*
X2021531Y2733607D01*
X2021531Y114307D02*
X2021531Y50807D01*
X1932631Y50807D01*
X1932631Y114307D01*
X2021531Y114307D01*
X2021531Y444507D02*
X2021531Y508007D01*
X2021531Y444507D02*
X1932631Y444507D01*
X1932631Y508007D01*
X2021531Y508007D01*
X916631Y114307D02*
X916631Y50807D01*
X827731Y50807D01*
X827731Y114307D01*
X916631Y114307D01*
X916631Y444507D02*
X916631Y508007D01*
X916631Y444507D02*
X827731Y444507D01*
X827731Y508007D01*
X916631Y508007D01*
X50834Y2726871D02*
X50861Y2729053D01*
X50941Y2731233D01*
X51075Y2733411D01*
X51262Y2735585D01*
X51503Y2737753D01*
X51796Y2739915D01*
X52143Y2742069D01*
X52542Y2744214D01*
X52994Y2746349D01*
X53498Y2748472D01*
X54054Y2750581D01*
X54662Y2752677D01*
X55321Y2754757D01*
X56031Y2756820D01*
X56791Y2758865D01*
X57601Y2760891D01*
X58461Y2762897D01*
X59369Y2764880D01*
X60326Y2766841D01*
X61331Y2768778D01*
X62383Y2770689D01*
X63482Y2772574D01*
X64626Y2774432D01*
X65816Y2776261D01*
X67051Y2778060D01*
X68329Y2779828D01*
X69650Y2781564D01*
X71013Y2783268D01*
X72418Y2784937D01*
X73863Y2786572D01*
X75348Y2788170D01*
X76872Y2789732D01*
X78434Y2791256D01*
X80032Y2792741D01*
X81667Y2794186D01*
X83336Y2795591D01*
X85040Y2796954D01*
X86776Y2798275D01*
X88544Y2799553D01*
X90343Y2800788D01*
X92172Y2801978D01*
X94030Y2803122D01*
X95915Y2804221D01*
X97826Y2805273D01*
X99763Y2806278D01*
X101724Y2807235D01*
X103707Y2808143D01*
X105713Y2809003D01*
X107739Y2809813D01*
X109784Y2810573D01*
X111847Y2811283D01*
X113927Y2811942D01*
X116023Y2812550D01*
X118132Y2813106D01*
X120255Y2813610D01*
X122390Y2814062D01*
X124535Y2814461D01*
X126689Y2814808D01*
X128851Y2815101D01*
X131019Y2815342D01*
X133193Y2815529D01*
X135371Y2815663D01*
X137551Y2815743D01*
X139733Y2815770D01*
X141915Y2815743D01*
X144095Y2815663D01*
X146273Y2815529D01*
X148447Y2815342D01*
X150615Y2815101D01*
X152777Y2814808D01*
X154931Y2814461D01*
X157076Y2814062D01*
X159211Y2813610D01*
X161334Y2813106D01*
X163443Y2812550D01*
X165539Y2811942D01*
X167619Y2811283D01*
X169682Y2810573D01*
X171727Y2809813D01*
X173753Y2809003D01*
X175759Y2808143D01*
X177742Y2807235D01*
X179703Y2806278D01*
X181640Y2805273D01*
X183551Y2804221D01*
X185436Y2803122D01*
X187294Y2801978D01*
X189123Y2800788D01*
X190922Y2799553D01*
X192690Y2798275D01*
X194426Y2796954D01*
X196130Y2795591D01*
X197799Y2794186D01*
X199434Y2792741D01*
X201032Y2791256D01*
X202594Y2789732D01*
X204118Y2788170D01*
X205603Y2786572D01*
X207048Y2784937D01*
X208453Y2783268D01*
X209816Y2781564D01*
X211137Y2779828D01*
X212415Y2778060D01*
X213650Y2776261D01*
X214840Y2774432D01*
X215984Y2772574D01*
X217083Y2770689D01*
X218135Y2768778D01*
X219140Y2766841D01*
X220097Y2764880D01*
X221005Y2762897D01*
X221865Y2760891D01*
X222675Y2758865D01*
X223435Y2756820D01*
X224145Y2754757D01*
X224804Y2752677D01*
X225412Y2750581D01*
X225968Y2748472D01*
X226472Y2746349D01*
X226924Y2744214D01*
X227323Y2742069D01*
X227670Y2739915D01*
X227963Y2737753D01*
X228204Y2735585D01*
X228391Y2733411D01*
X228525Y2731233D01*
X228605Y2729053D01*
X228632Y2726871D01*
X228605Y2724689D01*
X228525Y2722509D01*
X228391Y2720331D01*
X228204Y2718157D01*
X227963Y2715989D01*
X227670Y2713827D01*
X227323Y2711673D01*
X226924Y2709528D01*
X226472Y2707393D01*
X225968Y2705270D01*
X225412Y2703161D01*
X224804Y2701065D01*
X224145Y2698985D01*
X223435Y2696922D01*
X222675Y2694877D01*
X221865Y2692851D01*
X221005Y2690845D01*
X220097Y2688862D01*
X219140Y2686901D01*
X218135Y2684964D01*
X217083Y2683053D01*
X215984Y2681168D01*
X214840Y2679310D01*
X213650Y2677481D01*
X212415Y2675682D01*
X211137Y2673914D01*
X209816Y2672178D01*
X208453Y2670474D01*
X207048Y2668805D01*
X205603Y2667170D01*
X204118Y2665572D01*
X202594Y2664010D01*
X201032Y2662486D01*
X199434Y2661001D01*
X197799Y2659556D01*
X196130Y2658151D01*
X194426Y2656788D01*
X192690Y2655467D01*
X190922Y2654189D01*
X189123Y2652954D01*
X187294Y2651764D01*
X185436Y2650620D01*
X183551Y2649521D01*
X181640Y2648469D01*
X179703Y2647464D01*
X177742Y2646507D01*
X175759Y2645599D01*
X173753Y2644739D01*
X171727Y2643929D01*
X169682Y2643169D01*
X167619Y2642459D01*
X165539Y2641800D01*
X163443Y2641192D01*
X161334Y2640636D01*
X159211Y2640132D01*
X157076Y2639680D01*
X154931Y2639281D01*
X152777Y2638934D01*
X150615Y2638641D01*
X148447Y2638400D01*
X146273Y2638213D01*
X144095Y2638079D01*
X141915Y2637999D01*
X139733Y2637972D01*
X137551Y2637999D01*
X135371Y2638079D01*
X133193Y2638213D01*
X131019Y2638400D01*
X128851Y2638641D01*
X126689Y2638934D01*
X124535Y2639281D01*
X122390Y2639680D01*
X120255Y2640132D01*
X118132Y2640636D01*
X116023Y2641192D01*
X113927Y2641800D01*
X111847Y2642459D01*
X109784Y2643169D01*
X107739Y2643929D01*
X105713Y2644739D01*
X103707Y2645599D01*
X101724Y2646507D01*
X99763Y2647464D01*
X97826Y2648469D01*
X95915Y2649521D01*
X94030Y2650620D01*
X92172Y2651764D01*
X90343Y2652954D01*
X88544Y2654189D01*
X86776Y2655467D01*
X85040Y2656788D01*
X83336Y2658151D01*
X81667Y2659556D01*
X80032Y2661001D01*
X78434Y2662486D01*
X76872Y2664010D01*
X75348Y2665572D01*
X73863Y2667170D01*
X72418Y2668805D01*
X71013Y2670474D01*
X69650Y2672178D01*
X68329Y2673914D01*
X67051Y2675682D01*
X65816Y2677481D01*
X64626Y2679310D01*
X63482Y2681168D01*
X62383Y2683053D01*
X61331Y2684964D01*
X60326Y2686901D01*
X59369Y2688862D01*
X58461Y2690845D01*
X57601Y2692851D01*
X56791Y2694877D01*
X56031Y2696922D01*
X55321Y2698985D01*
X54662Y2701065D01*
X54054Y2703161D01*
X53498Y2705270D01*
X52994Y2707393D01*
X52542Y2709528D01*
X52143Y2711673D01*
X51796Y2713827D01*
X51503Y2715989D01*
X51262Y2718157D01*
X51075Y2720331D01*
X50941Y2722509D01*
X50861Y2724689D01*
X50834Y2726871D01*
D11*
X1128395Y574802D02*
X1128400Y575192D01*
X1128414Y575581D01*
X1128438Y575970D01*
X1128471Y576358D01*
X1128514Y576745D01*
X1128567Y577131D01*
X1128629Y577516D01*
X1128700Y577899D01*
X1128781Y578280D01*
X1128871Y578659D01*
X1128970Y579036D01*
X1129079Y579410D01*
X1129196Y579782D01*
X1129323Y580150D01*
X1129459Y580515D01*
X1129603Y580877D01*
X1129757Y581235D01*
X1129919Y581589D01*
X1130090Y581940D01*
X1130269Y582285D01*
X1130457Y582627D01*
X1130654Y582963D01*
X1130858Y583295D01*
X1131070Y583622D01*
X1131291Y583943D01*
X1131519Y584259D01*
X1131755Y584569D01*
X1131998Y584873D01*
X1132249Y585171D01*
X1132507Y585463D01*
X1132773Y585748D01*
X1133045Y586027D01*
X1133324Y586299D01*
X1133609Y586565D01*
X1133901Y586823D01*
X1134199Y587074D01*
X1134503Y587317D01*
X1134813Y587553D01*
X1135129Y587781D01*
X1135450Y588002D01*
X1135777Y588214D01*
X1136109Y588418D01*
X1136445Y588615D01*
X1136787Y588803D01*
X1137132Y588982D01*
X1137483Y589153D01*
X1137837Y589315D01*
X1138195Y589469D01*
X1138557Y589613D01*
X1138922Y589749D01*
X1139290Y589876D01*
X1139662Y589993D01*
X1140036Y590102D01*
X1140413Y590201D01*
X1140792Y590291D01*
X1141173Y590372D01*
X1141556Y590443D01*
X1141941Y590505D01*
X1142327Y590558D01*
X1142714Y590601D01*
X1143102Y590634D01*
X1143491Y590658D01*
X1143880Y590672D01*
X1144270Y590677D01*
X1144660Y590672D01*
X1145049Y590658D01*
X1145438Y590634D01*
X1145826Y590601D01*
X1146213Y590558D01*
X1146599Y590505D01*
X1146984Y590443D01*
X1147367Y590372D01*
X1147748Y590291D01*
X1148127Y590201D01*
X1148504Y590102D01*
X1148878Y589993D01*
X1149250Y589876D01*
X1149618Y589749D01*
X1149983Y589613D01*
X1150345Y589469D01*
X1150703Y589315D01*
X1151057Y589153D01*
X1151408Y588982D01*
X1151753Y588803D01*
X1152095Y588615D01*
X1152431Y588418D01*
X1152763Y588214D01*
X1153090Y588002D01*
X1153411Y587781D01*
X1153727Y587553D01*
X1154037Y587317D01*
X1154341Y587074D01*
X1154639Y586823D01*
X1154931Y586565D01*
X1155216Y586299D01*
X1155495Y586027D01*
X1155767Y585748D01*
X1156033Y585463D01*
X1156291Y585171D01*
X1156542Y584873D01*
X1156785Y584569D01*
X1157021Y584259D01*
X1157249Y583943D01*
X1157470Y583622D01*
X1157682Y583295D01*
X1157886Y582963D01*
X1158083Y582627D01*
X1158271Y582285D01*
X1158450Y581940D01*
X1158621Y581589D01*
X1158783Y581235D01*
X1158937Y580877D01*
X1159081Y580515D01*
X1159217Y580150D01*
X1159344Y579782D01*
X1159461Y579410D01*
X1159570Y579036D01*
X1159669Y578659D01*
X1159759Y578280D01*
X1159840Y577899D01*
X1159911Y577516D01*
X1159973Y577131D01*
X1160026Y576745D01*
X1160069Y576358D01*
X1160102Y575970D01*
X1160126Y575581D01*
X1160140Y575192D01*
X1160145Y574802D01*
X1160140Y574412D01*
X1160126Y574023D01*
X1160102Y573634D01*
X1160069Y573246D01*
X1160026Y572859D01*
X1159973Y572473D01*
X1159911Y572088D01*
X1159840Y571705D01*
X1159759Y571324D01*
X1159669Y570945D01*
X1159570Y570568D01*
X1159461Y570194D01*
X1159344Y569822D01*
X1159217Y569454D01*
X1159081Y569089D01*
X1158937Y568727D01*
X1158783Y568369D01*
X1158621Y568015D01*
X1158450Y567664D01*
X1158271Y567319D01*
X1158083Y566977D01*
X1157886Y566641D01*
X1157682Y566309D01*
X1157470Y565982D01*
X1157249Y565661D01*
X1157021Y565345D01*
X1156785Y565035D01*
X1156542Y564731D01*
X1156291Y564433D01*
X1156033Y564141D01*
X1155767Y563856D01*
X1155495Y563577D01*
X1155216Y563305D01*
X1154931Y563039D01*
X1154639Y562781D01*
X1154341Y562530D01*
X1154037Y562287D01*
X1153727Y562051D01*
X1153411Y561823D01*
X1153090Y561602D01*
X1152763Y561390D01*
X1152431Y561186D01*
X1152095Y560989D01*
X1151753Y560801D01*
X1151408Y560622D01*
X1151057Y560451D01*
X1150703Y560289D01*
X1150345Y560135D01*
X1149983Y559991D01*
X1149618Y559855D01*
X1149250Y559728D01*
X1148878Y559611D01*
X1148504Y559502D01*
X1148127Y559403D01*
X1147748Y559313D01*
X1147367Y559232D01*
X1146984Y559161D01*
X1146599Y559099D01*
X1146213Y559046D01*
X1145826Y559003D01*
X1145438Y558970D01*
X1145049Y558946D01*
X1144660Y558932D01*
X1144270Y558927D01*
X1143880Y558932D01*
X1143491Y558946D01*
X1143102Y558970D01*
X1142714Y559003D01*
X1142327Y559046D01*
X1141941Y559099D01*
X1141556Y559161D01*
X1141173Y559232D01*
X1140792Y559313D01*
X1140413Y559403D01*
X1140036Y559502D01*
X1139662Y559611D01*
X1139290Y559728D01*
X1138922Y559855D01*
X1138557Y559991D01*
X1138195Y560135D01*
X1137837Y560289D01*
X1137483Y560451D01*
X1137132Y560622D01*
X1136787Y560801D01*
X1136445Y560989D01*
X1136109Y561186D01*
X1135777Y561390D01*
X1135450Y561602D01*
X1135129Y561823D01*
X1134813Y562051D01*
X1134503Y562287D01*
X1134199Y562530D01*
X1133901Y562781D01*
X1133609Y563039D01*
X1133324Y563305D01*
X1133045Y563577D01*
X1132773Y563856D01*
X1132507Y564141D01*
X1132249Y564433D01*
X1131998Y564731D01*
X1131755Y565035D01*
X1131519Y565345D01*
X1131291Y565661D01*
X1131070Y565982D01*
X1130858Y566309D01*
X1130654Y566641D01*
X1130457Y566977D01*
X1130269Y567319D01*
X1130090Y567664D01*
X1129919Y568015D01*
X1129757Y568369D01*
X1129603Y568727D01*
X1129459Y569089D01*
X1129323Y569454D01*
X1129196Y569822D01*
X1129079Y570194D01*
X1128970Y570568D01*
X1128871Y570945D01*
X1128781Y571324D01*
X1128700Y571705D01*
X1128629Y572088D01*
X1128567Y572473D01*
X1128514Y572859D01*
X1128471Y573246D01*
X1128438Y573634D01*
X1128414Y574023D01*
X1128400Y574412D01*
X1128395Y574802D01*
X1687195Y574802D02*
X1687200Y575192D01*
X1687214Y575581D01*
X1687238Y575970D01*
X1687271Y576358D01*
X1687314Y576745D01*
X1687367Y577131D01*
X1687429Y577516D01*
X1687500Y577899D01*
X1687581Y578280D01*
X1687671Y578659D01*
X1687770Y579036D01*
X1687879Y579410D01*
X1687996Y579782D01*
X1688123Y580150D01*
X1688259Y580515D01*
X1688403Y580877D01*
X1688557Y581235D01*
X1688719Y581589D01*
X1688890Y581940D01*
X1689069Y582285D01*
X1689257Y582627D01*
X1689454Y582963D01*
X1689658Y583295D01*
X1689870Y583622D01*
X1690091Y583943D01*
X1690319Y584259D01*
X1690555Y584569D01*
X1690798Y584873D01*
X1691049Y585171D01*
X1691307Y585463D01*
X1691573Y585748D01*
X1691845Y586027D01*
X1692124Y586299D01*
X1692409Y586565D01*
X1692701Y586823D01*
X1692999Y587074D01*
X1693303Y587317D01*
X1693613Y587553D01*
X1693929Y587781D01*
X1694250Y588002D01*
X1694577Y588214D01*
X1694909Y588418D01*
X1695245Y588615D01*
X1695587Y588803D01*
X1695932Y588982D01*
X1696283Y589153D01*
X1696637Y589315D01*
X1696995Y589469D01*
X1697357Y589613D01*
X1697722Y589749D01*
X1698090Y589876D01*
X1698462Y589993D01*
X1698836Y590102D01*
X1699213Y590201D01*
X1699592Y590291D01*
X1699973Y590372D01*
X1700356Y590443D01*
X1700741Y590505D01*
X1701127Y590558D01*
X1701514Y590601D01*
X1701902Y590634D01*
X1702291Y590658D01*
X1702680Y590672D01*
X1703070Y590677D01*
X1703460Y590672D01*
X1703849Y590658D01*
X1704238Y590634D01*
X1704626Y590601D01*
X1705013Y590558D01*
X1705399Y590505D01*
X1705784Y590443D01*
X1706167Y590372D01*
X1706548Y590291D01*
X1706927Y590201D01*
X1707304Y590102D01*
X1707678Y589993D01*
X1708050Y589876D01*
X1708418Y589749D01*
X1708783Y589613D01*
X1709145Y589469D01*
X1709503Y589315D01*
X1709857Y589153D01*
X1710208Y588982D01*
X1710553Y588803D01*
X1710895Y588615D01*
X1711231Y588418D01*
X1711563Y588214D01*
X1711890Y588002D01*
X1712211Y587781D01*
X1712527Y587553D01*
X1712837Y587317D01*
X1713141Y587074D01*
X1713439Y586823D01*
X1713731Y586565D01*
X1714016Y586299D01*
X1714295Y586027D01*
X1714567Y585748D01*
X1714833Y585463D01*
X1715091Y585171D01*
X1715342Y584873D01*
X1715585Y584569D01*
X1715821Y584259D01*
X1716049Y583943D01*
X1716270Y583622D01*
X1716482Y583295D01*
X1716686Y582963D01*
X1716883Y582627D01*
X1717071Y582285D01*
X1717250Y581940D01*
X1717421Y581589D01*
X1717583Y581235D01*
X1717737Y580877D01*
X1717881Y580515D01*
X1718017Y580150D01*
X1718144Y579782D01*
X1718261Y579410D01*
X1718370Y579036D01*
X1718469Y578659D01*
X1718559Y578280D01*
X1718640Y577899D01*
X1718711Y577516D01*
X1718773Y577131D01*
X1718826Y576745D01*
X1718869Y576358D01*
X1718902Y575970D01*
X1718926Y575581D01*
X1718940Y575192D01*
X1718945Y574802D01*
X1718940Y574412D01*
X1718926Y574023D01*
X1718902Y573634D01*
X1718869Y573246D01*
X1718826Y572859D01*
X1718773Y572473D01*
X1718711Y572088D01*
X1718640Y571705D01*
X1718559Y571324D01*
X1718469Y570945D01*
X1718370Y570568D01*
X1718261Y570194D01*
X1718144Y569822D01*
X1718017Y569454D01*
X1717881Y569089D01*
X1717737Y568727D01*
X1717583Y568369D01*
X1717421Y568015D01*
X1717250Y567664D01*
X1717071Y567319D01*
X1716883Y566977D01*
X1716686Y566641D01*
X1716482Y566309D01*
X1716270Y565982D01*
X1716049Y565661D01*
X1715821Y565345D01*
X1715585Y565035D01*
X1715342Y564731D01*
X1715091Y564433D01*
X1714833Y564141D01*
X1714567Y563856D01*
X1714295Y563577D01*
X1714016Y563305D01*
X1713731Y563039D01*
X1713439Y562781D01*
X1713141Y562530D01*
X1712837Y562287D01*
X1712527Y562051D01*
X1712211Y561823D01*
X1711890Y561602D01*
X1711563Y561390D01*
X1711231Y561186D01*
X1710895Y560989D01*
X1710553Y560801D01*
X1710208Y560622D01*
X1709857Y560451D01*
X1709503Y560289D01*
X1709145Y560135D01*
X1708783Y559991D01*
X1708418Y559855D01*
X1708050Y559728D01*
X1707678Y559611D01*
X1707304Y559502D01*
X1706927Y559403D01*
X1706548Y559313D01*
X1706167Y559232D01*
X1705784Y559161D01*
X1705399Y559099D01*
X1705013Y559046D01*
X1704626Y559003D01*
X1704238Y558970D01*
X1703849Y558946D01*
X1703460Y558932D01*
X1703070Y558927D01*
X1702680Y558932D01*
X1702291Y558946D01*
X1701902Y558970D01*
X1701514Y559003D01*
X1701127Y559046D01*
X1700741Y559099D01*
X1700356Y559161D01*
X1699973Y559232D01*
X1699592Y559313D01*
X1699213Y559403D01*
X1698836Y559502D01*
X1698462Y559611D01*
X1698090Y559728D01*
X1697722Y559855D01*
X1697357Y559991D01*
X1696995Y560135D01*
X1696637Y560289D01*
X1696283Y560451D01*
X1695932Y560622D01*
X1695587Y560801D01*
X1695245Y560989D01*
X1694909Y561186D01*
X1694577Y561390D01*
X1694250Y561602D01*
X1693929Y561823D01*
X1693613Y562051D01*
X1693303Y562287D01*
X1692999Y562530D01*
X1692701Y562781D01*
X1692409Y563039D01*
X1692124Y563305D01*
X1691845Y563577D01*
X1691573Y563856D01*
X1691307Y564141D01*
X1691049Y564433D01*
X1690798Y564731D01*
X1690555Y565035D01*
X1690319Y565345D01*
X1690091Y565661D01*
X1689870Y565982D01*
X1689658Y566309D01*
X1689454Y566641D01*
X1689257Y566977D01*
X1689069Y567319D01*
X1688890Y567664D01*
X1688719Y568015D01*
X1688557Y568369D01*
X1688403Y568727D01*
X1688259Y569089D01*
X1688123Y569454D01*
X1687996Y569822D01*
X1687879Y570194D01*
X1687770Y570568D01*
X1687671Y570945D01*
X1687581Y571324D01*
X1687500Y571705D01*
X1687429Y572088D01*
X1687367Y572473D01*
X1687314Y572859D01*
X1687271Y573246D01*
X1687238Y573634D01*
X1687214Y574023D01*
X1687200Y574412D01*
X1687195Y574802D01*
X2052701Y865124D02*
X2052706Y865514D01*
X2052720Y865903D01*
X2052744Y866292D01*
X2052777Y866680D01*
X2052820Y867067D01*
X2052873Y867453D01*
X2052935Y867838D01*
X2053006Y868221D01*
X2053087Y868602D01*
X2053177Y868981D01*
X2053276Y869358D01*
X2053385Y869732D01*
X2053502Y870104D01*
X2053629Y870472D01*
X2053765Y870837D01*
X2053909Y871199D01*
X2054063Y871557D01*
X2054225Y871911D01*
X2054396Y872262D01*
X2054575Y872607D01*
X2054763Y872949D01*
X2054960Y873285D01*
X2055164Y873617D01*
X2055376Y873944D01*
X2055597Y874265D01*
X2055825Y874581D01*
X2056061Y874891D01*
X2056304Y875195D01*
X2056555Y875493D01*
X2056813Y875785D01*
X2057079Y876070D01*
X2057351Y876349D01*
X2057630Y876621D01*
X2057915Y876887D01*
X2058207Y877145D01*
X2058505Y877396D01*
X2058809Y877639D01*
X2059119Y877875D01*
X2059435Y878103D01*
X2059756Y878324D01*
X2060083Y878536D01*
X2060415Y878740D01*
X2060751Y878937D01*
X2061093Y879125D01*
X2061438Y879304D01*
X2061789Y879475D01*
X2062143Y879637D01*
X2062501Y879791D01*
X2062863Y879935D01*
X2063228Y880071D01*
X2063596Y880198D01*
X2063968Y880315D01*
X2064342Y880424D01*
X2064719Y880523D01*
X2065098Y880613D01*
X2065479Y880694D01*
X2065862Y880765D01*
X2066247Y880827D01*
X2066633Y880880D01*
X2067020Y880923D01*
X2067408Y880956D01*
X2067797Y880980D01*
X2068186Y880994D01*
X2068576Y880999D01*
X2068966Y880994D01*
X2069355Y880980D01*
X2069744Y880956D01*
X2070132Y880923D01*
X2070519Y880880D01*
X2070905Y880827D01*
X2071290Y880765D01*
X2071673Y880694D01*
X2072054Y880613D01*
X2072433Y880523D01*
X2072810Y880424D01*
X2073184Y880315D01*
X2073556Y880198D01*
X2073924Y880071D01*
X2074289Y879935D01*
X2074651Y879791D01*
X2075009Y879637D01*
X2075363Y879475D01*
X2075714Y879304D01*
X2076059Y879125D01*
X2076401Y878937D01*
X2076737Y878740D01*
X2077069Y878536D01*
X2077396Y878324D01*
X2077717Y878103D01*
X2078033Y877875D01*
X2078343Y877639D01*
X2078647Y877396D01*
X2078945Y877145D01*
X2079237Y876887D01*
X2079522Y876621D01*
X2079801Y876349D01*
X2080073Y876070D01*
X2080339Y875785D01*
X2080597Y875493D01*
X2080848Y875195D01*
X2081091Y874891D01*
X2081327Y874581D01*
X2081555Y874265D01*
X2081776Y873944D01*
X2081988Y873617D01*
X2082192Y873285D01*
X2082389Y872949D01*
X2082577Y872607D01*
X2082756Y872262D01*
X2082927Y871911D01*
X2083089Y871557D01*
X2083243Y871199D01*
X2083387Y870837D01*
X2083523Y870472D01*
X2083650Y870104D01*
X2083767Y869732D01*
X2083876Y869358D01*
X2083975Y868981D01*
X2084065Y868602D01*
X2084146Y868221D01*
X2084217Y867838D01*
X2084279Y867453D01*
X2084332Y867067D01*
X2084375Y866680D01*
X2084408Y866292D01*
X2084432Y865903D01*
X2084446Y865514D01*
X2084451Y865124D01*
X2084446Y864734D01*
X2084432Y864345D01*
X2084408Y863956D01*
X2084375Y863568D01*
X2084332Y863181D01*
X2084279Y862795D01*
X2084217Y862410D01*
X2084146Y862027D01*
X2084065Y861646D01*
X2083975Y861267D01*
X2083876Y860890D01*
X2083767Y860516D01*
X2083650Y860144D01*
X2083523Y859776D01*
X2083387Y859411D01*
X2083243Y859049D01*
X2083089Y858691D01*
X2082927Y858337D01*
X2082756Y857986D01*
X2082577Y857641D01*
X2082389Y857299D01*
X2082192Y856963D01*
X2081988Y856631D01*
X2081776Y856304D01*
X2081555Y855983D01*
X2081327Y855667D01*
X2081091Y855357D01*
X2080848Y855053D01*
X2080597Y854755D01*
X2080339Y854463D01*
X2080073Y854178D01*
X2079801Y853899D01*
X2079522Y853627D01*
X2079237Y853361D01*
X2078945Y853103D01*
X2078647Y852852D01*
X2078343Y852609D01*
X2078033Y852373D01*
X2077717Y852145D01*
X2077396Y851924D01*
X2077069Y851712D01*
X2076737Y851508D01*
X2076401Y851311D01*
X2076059Y851123D01*
X2075714Y850944D01*
X2075363Y850773D01*
X2075009Y850611D01*
X2074651Y850457D01*
X2074289Y850313D01*
X2073924Y850177D01*
X2073556Y850050D01*
X2073184Y849933D01*
X2072810Y849824D01*
X2072433Y849725D01*
X2072054Y849635D01*
X2071673Y849554D01*
X2071290Y849483D01*
X2070905Y849421D01*
X2070519Y849368D01*
X2070132Y849325D01*
X2069744Y849292D01*
X2069355Y849268D01*
X2068966Y849254D01*
X2068576Y849249D01*
X2068186Y849254D01*
X2067797Y849268D01*
X2067408Y849292D01*
X2067020Y849325D01*
X2066633Y849368D01*
X2066247Y849421D01*
X2065862Y849483D01*
X2065479Y849554D01*
X2065098Y849635D01*
X2064719Y849725D01*
X2064342Y849824D01*
X2063968Y849933D01*
X2063596Y850050D01*
X2063228Y850177D01*
X2062863Y850313D01*
X2062501Y850457D01*
X2062143Y850611D01*
X2061789Y850773D01*
X2061438Y850944D01*
X2061093Y851123D01*
X2060751Y851311D01*
X2060415Y851508D01*
X2060083Y851712D01*
X2059756Y851924D01*
X2059435Y852145D01*
X2059119Y852373D01*
X2058809Y852609D01*
X2058505Y852852D01*
X2058207Y853103D01*
X2057915Y853361D01*
X2057630Y853627D01*
X2057351Y853899D01*
X2057079Y854178D01*
X2056813Y854463D01*
X2056555Y854755D01*
X2056304Y855053D01*
X2056061Y855357D01*
X2055825Y855667D01*
X2055597Y855983D01*
X2055376Y856304D01*
X2055164Y856631D01*
X2054960Y856963D01*
X2054763Y857299D01*
X2054575Y857641D01*
X2054396Y857986D01*
X2054225Y858337D01*
X2054063Y858691D01*
X2053909Y859049D01*
X2053765Y859411D01*
X2053629Y859776D01*
X2053502Y860144D01*
X2053385Y860516D01*
X2053276Y860890D01*
X2053177Y861267D01*
X2053087Y861646D01*
X2053006Y862027D01*
X2052935Y862410D01*
X2052873Y862795D01*
X2052820Y863181D01*
X2052777Y863568D01*
X2052744Y863956D01*
X2052720Y864345D01*
X2052706Y864734D01*
X2052701Y865124D01*
X2052701Y1423924D02*
X2052706Y1424314D01*
X2052720Y1424703D01*
X2052744Y1425092D01*
X2052777Y1425480D01*
X2052820Y1425867D01*
X2052873Y1426253D01*
X2052935Y1426638D01*
X2053006Y1427021D01*
X2053087Y1427402D01*
X2053177Y1427781D01*
X2053276Y1428158D01*
X2053385Y1428532D01*
X2053502Y1428904D01*
X2053629Y1429272D01*
X2053765Y1429637D01*
X2053909Y1429999D01*
X2054063Y1430357D01*
X2054225Y1430711D01*
X2054396Y1431062D01*
X2054575Y1431407D01*
X2054763Y1431749D01*
X2054960Y1432085D01*
X2055164Y1432417D01*
X2055376Y1432744D01*
X2055597Y1433065D01*
X2055825Y1433381D01*
X2056061Y1433691D01*
X2056304Y1433995D01*
X2056555Y1434293D01*
X2056813Y1434585D01*
X2057079Y1434870D01*
X2057351Y1435149D01*
X2057630Y1435421D01*
X2057915Y1435687D01*
X2058207Y1435945D01*
X2058505Y1436196D01*
X2058809Y1436439D01*
X2059119Y1436675D01*
X2059435Y1436903D01*
X2059756Y1437124D01*
X2060083Y1437336D01*
X2060415Y1437540D01*
X2060751Y1437737D01*
X2061093Y1437925D01*
X2061438Y1438104D01*
X2061789Y1438275D01*
X2062143Y1438437D01*
X2062501Y1438591D01*
X2062863Y1438735D01*
X2063228Y1438871D01*
X2063596Y1438998D01*
X2063968Y1439115D01*
X2064342Y1439224D01*
X2064719Y1439323D01*
X2065098Y1439413D01*
X2065479Y1439494D01*
X2065862Y1439565D01*
X2066247Y1439627D01*
X2066633Y1439680D01*
X2067020Y1439723D01*
X2067408Y1439756D01*
X2067797Y1439780D01*
X2068186Y1439794D01*
X2068576Y1439799D01*
X2068966Y1439794D01*
X2069355Y1439780D01*
X2069744Y1439756D01*
X2070132Y1439723D01*
X2070519Y1439680D01*
X2070905Y1439627D01*
X2071290Y1439565D01*
X2071673Y1439494D01*
X2072054Y1439413D01*
X2072433Y1439323D01*
X2072810Y1439224D01*
X2073184Y1439115D01*
X2073556Y1438998D01*
X2073924Y1438871D01*
X2074289Y1438735D01*
X2074651Y1438591D01*
X2075009Y1438437D01*
X2075363Y1438275D01*
X2075714Y1438104D01*
X2076059Y1437925D01*
X2076401Y1437737D01*
X2076737Y1437540D01*
X2077069Y1437336D01*
X2077396Y1437124D01*
X2077717Y1436903D01*
X2078033Y1436675D01*
X2078343Y1436439D01*
X2078647Y1436196D01*
X2078945Y1435945D01*
X2079237Y1435687D01*
X2079522Y1435421D01*
X2079801Y1435149D01*
X2080073Y1434870D01*
X2080339Y1434585D01*
X2080597Y1434293D01*
X2080848Y1433995D01*
X2081091Y1433691D01*
X2081327Y1433381D01*
X2081555Y1433065D01*
X2081776Y1432744D01*
X2081988Y1432417D01*
X2082192Y1432085D01*
X2082389Y1431749D01*
X2082577Y1431407D01*
X2082756Y1431062D01*
X2082927Y1430711D01*
X2083089Y1430357D01*
X2083243Y1429999D01*
X2083387Y1429637D01*
X2083523Y1429272D01*
X2083650Y1428904D01*
X2083767Y1428532D01*
X2083876Y1428158D01*
X2083975Y1427781D01*
X2084065Y1427402D01*
X2084146Y1427021D01*
X2084217Y1426638D01*
X2084279Y1426253D01*
X2084332Y1425867D01*
X2084375Y1425480D01*
X2084408Y1425092D01*
X2084432Y1424703D01*
X2084446Y1424314D01*
X2084451Y1423924D01*
X2084446Y1423534D01*
X2084432Y1423145D01*
X2084408Y1422756D01*
X2084375Y1422368D01*
X2084332Y1421981D01*
X2084279Y1421595D01*
X2084217Y1421210D01*
X2084146Y1420827D01*
X2084065Y1420446D01*
X2083975Y1420067D01*
X2083876Y1419690D01*
X2083767Y1419316D01*
X2083650Y1418944D01*
X2083523Y1418576D01*
X2083387Y1418211D01*
X2083243Y1417849D01*
X2083089Y1417491D01*
X2082927Y1417137D01*
X2082756Y1416786D01*
X2082577Y1416441D01*
X2082389Y1416099D01*
X2082192Y1415763D01*
X2081988Y1415431D01*
X2081776Y1415104D01*
X2081555Y1414783D01*
X2081327Y1414467D01*
X2081091Y1414157D01*
X2080848Y1413853D01*
X2080597Y1413555D01*
X2080339Y1413263D01*
X2080073Y1412978D01*
X2079801Y1412699D01*
X2079522Y1412427D01*
X2079237Y1412161D01*
X2078945Y1411903D01*
X2078647Y1411652D01*
X2078343Y1411409D01*
X2078033Y1411173D01*
X2077717Y1410945D01*
X2077396Y1410724D01*
X2077069Y1410512D01*
X2076737Y1410308D01*
X2076401Y1410111D01*
X2076059Y1409923D01*
X2075714Y1409744D01*
X2075363Y1409573D01*
X2075009Y1409411D01*
X2074651Y1409257D01*
X2074289Y1409113D01*
X2073924Y1408977D01*
X2073556Y1408850D01*
X2073184Y1408733D01*
X2072810Y1408624D01*
X2072433Y1408525D01*
X2072054Y1408435D01*
X2071673Y1408354D01*
X2071290Y1408283D01*
X2070905Y1408221D01*
X2070519Y1408168D01*
X2070132Y1408125D01*
X2069744Y1408092D01*
X2069355Y1408068D01*
X2068966Y1408054D01*
X2068576Y1408049D01*
X2068186Y1408054D01*
X2067797Y1408068D01*
X2067408Y1408092D01*
X2067020Y1408125D01*
X2066633Y1408168D01*
X2066247Y1408221D01*
X2065862Y1408283D01*
X2065479Y1408354D01*
X2065098Y1408435D01*
X2064719Y1408525D01*
X2064342Y1408624D01*
X2063968Y1408733D01*
X2063596Y1408850D01*
X2063228Y1408977D01*
X2062863Y1409113D01*
X2062501Y1409257D01*
X2062143Y1409411D01*
X2061789Y1409573D01*
X2061438Y1409744D01*
X2061093Y1409923D01*
X2060751Y1410111D01*
X2060415Y1410308D01*
X2060083Y1410512D01*
X2059756Y1410724D01*
X2059435Y1410945D01*
X2059119Y1411173D01*
X2058809Y1411409D01*
X2058505Y1411652D01*
X2058207Y1411903D01*
X2057915Y1412161D01*
X2057630Y1412427D01*
X2057351Y1412699D01*
X2057079Y1412978D01*
X2056813Y1413263D01*
X2056555Y1413555D01*
X2056304Y1413853D01*
X2056061Y1414157D01*
X2055825Y1414467D01*
X2055597Y1414783D01*
X2055376Y1415104D01*
X2055164Y1415431D01*
X2054960Y1415763D01*
X2054763Y1416099D01*
X2054575Y1416441D01*
X2054396Y1416786D01*
X2054225Y1417137D01*
X2054063Y1417491D01*
X2053909Y1417849D01*
X2053765Y1418211D01*
X2053629Y1418576D01*
X2053502Y1418944D01*
X2053385Y1419316D01*
X2053276Y1419690D01*
X2053177Y1420067D01*
X2053087Y1420446D01*
X2053006Y1420827D01*
X2052935Y1421210D01*
X2052873Y1421595D01*
X2052820Y1421981D01*
X2052777Y1422368D01*
X2052744Y1422756D01*
X2052720Y1423145D01*
X2052706Y1423534D01*
X2052701Y1423924D01*
X2052701Y1982724D02*
X2052706Y1983114D01*
X2052720Y1983503D01*
X2052744Y1983892D01*
X2052777Y1984280D01*
X2052820Y1984667D01*
X2052873Y1985053D01*
X2052935Y1985438D01*
X2053006Y1985821D01*
X2053087Y1986202D01*
X2053177Y1986581D01*
X2053276Y1986958D01*
X2053385Y1987332D01*
X2053502Y1987704D01*
X2053629Y1988072D01*
X2053765Y1988437D01*
X2053909Y1988799D01*
X2054063Y1989157D01*
X2054225Y1989511D01*
X2054396Y1989862D01*
X2054575Y1990207D01*
X2054763Y1990549D01*
X2054960Y1990885D01*
X2055164Y1991217D01*
X2055376Y1991544D01*
X2055597Y1991865D01*
X2055825Y1992181D01*
X2056061Y1992491D01*
X2056304Y1992795D01*
X2056555Y1993093D01*
X2056813Y1993385D01*
X2057079Y1993670D01*
X2057351Y1993949D01*
X2057630Y1994221D01*
X2057915Y1994487D01*
X2058207Y1994745D01*
X2058505Y1994996D01*
X2058809Y1995239D01*
X2059119Y1995475D01*
X2059435Y1995703D01*
X2059756Y1995924D01*
X2060083Y1996136D01*
X2060415Y1996340D01*
X2060751Y1996537D01*
X2061093Y1996725D01*
X2061438Y1996904D01*
X2061789Y1997075D01*
X2062143Y1997237D01*
X2062501Y1997391D01*
X2062863Y1997535D01*
X2063228Y1997671D01*
X2063596Y1997798D01*
X2063968Y1997915D01*
X2064342Y1998024D01*
X2064719Y1998123D01*
X2065098Y1998213D01*
X2065479Y1998294D01*
X2065862Y1998365D01*
X2066247Y1998427D01*
X2066633Y1998480D01*
X2067020Y1998523D01*
X2067408Y1998556D01*
X2067797Y1998580D01*
X2068186Y1998594D01*
X2068576Y1998599D01*
X2068966Y1998594D01*
X2069355Y1998580D01*
X2069744Y1998556D01*
X2070132Y1998523D01*
X2070519Y1998480D01*
X2070905Y1998427D01*
X2071290Y1998365D01*
X2071673Y1998294D01*
X2072054Y1998213D01*
X2072433Y1998123D01*
X2072810Y1998024D01*
X2073184Y1997915D01*
X2073556Y1997798D01*
X2073924Y1997671D01*
X2074289Y1997535D01*
X2074651Y1997391D01*
X2075009Y1997237D01*
X2075363Y1997075D01*
X2075714Y1996904D01*
X2076059Y1996725D01*
X2076401Y1996537D01*
X2076737Y1996340D01*
X2077069Y1996136D01*
X2077396Y1995924D01*
X2077717Y1995703D01*
X2078033Y1995475D01*
X2078343Y1995239D01*
X2078647Y1994996D01*
X2078945Y1994745D01*
X2079237Y1994487D01*
X2079522Y1994221D01*
X2079801Y1993949D01*
X2080073Y1993670D01*
X2080339Y1993385D01*
X2080597Y1993093D01*
X2080848Y1992795D01*
X2081091Y1992491D01*
X2081327Y1992181D01*
X2081555Y1991865D01*
X2081776Y1991544D01*
X2081988Y1991217D01*
X2082192Y1990885D01*
X2082389Y1990549D01*
X2082577Y1990207D01*
X2082756Y1989862D01*
X2082927Y1989511D01*
X2083089Y1989157D01*
X2083243Y1988799D01*
X2083387Y1988437D01*
X2083523Y1988072D01*
X2083650Y1987704D01*
X2083767Y1987332D01*
X2083876Y1986958D01*
X2083975Y1986581D01*
X2084065Y1986202D01*
X2084146Y1985821D01*
X2084217Y1985438D01*
X2084279Y1985053D01*
X2084332Y1984667D01*
X2084375Y1984280D01*
X2084408Y1983892D01*
X2084432Y1983503D01*
X2084446Y1983114D01*
X2084451Y1982724D01*
X2084446Y1982334D01*
X2084432Y1981945D01*
X2084408Y1981556D01*
X2084375Y1981168D01*
X2084332Y1980781D01*
X2084279Y1980395D01*
X2084217Y1980010D01*
X2084146Y1979627D01*
X2084065Y1979246D01*
X2083975Y1978867D01*
X2083876Y1978490D01*
X2083767Y1978116D01*
X2083650Y1977744D01*
X2083523Y1977376D01*
X2083387Y1977011D01*
X2083243Y1976649D01*
X2083089Y1976291D01*
X2082927Y1975937D01*
X2082756Y1975586D01*
X2082577Y1975241D01*
X2082389Y1974899D01*
X2082192Y1974563D01*
X2081988Y1974231D01*
X2081776Y1973904D01*
X2081555Y1973583D01*
X2081327Y1973267D01*
X2081091Y1972957D01*
X2080848Y1972653D01*
X2080597Y1972355D01*
X2080339Y1972063D01*
X2080073Y1971778D01*
X2079801Y1971499D01*
X2079522Y1971227D01*
X2079237Y1970961D01*
X2078945Y1970703D01*
X2078647Y1970452D01*
X2078343Y1970209D01*
X2078033Y1969973D01*
X2077717Y1969745D01*
X2077396Y1969524D01*
X2077069Y1969312D01*
X2076737Y1969108D01*
X2076401Y1968911D01*
X2076059Y1968723D01*
X2075714Y1968544D01*
X2075363Y1968373D01*
X2075009Y1968211D01*
X2074651Y1968057D01*
X2074289Y1967913D01*
X2073924Y1967777D01*
X2073556Y1967650D01*
X2073184Y1967533D01*
X2072810Y1967424D01*
X2072433Y1967325D01*
X2072054Y1967235D01*
X2071673Y1967154D01*
X2071290Y1967083D01*
X2070905Y1967021D01*
X2070519Y1966968D01*
X2070132Y1966925D01*
X2069744Y1966892D01*
X2069355Y1966868D01*
X2068966Y1966854D01*
X2068576Y1966849D01*
X2068186Y1966854D01*
X2067797Y1966868D01*
X2067408Y1966892D01*
X2067020Y1966925D01*
X2066633Y1966968D01*
X2066247Y1967021D01*
X2065862Y1967083D01*
X2065479Y1967154D01*
X2065098Y1967235D01*
X2064719Y1967325D01*
X2064342Y1967424D01*
X2063968Y1967533D01*
X2063596Y1967650D01*
X2063228Y1967777D01*
X2062863Y1967913D01*
X2062501Y1968057D01*
X2062143Y1968211D01*
X2061789Y1968373D01*
X2061438Y1968544D01*
X2061093Y1968723D01*
X2060751Y1968911D01*
X2060415Y1969108D01*
X2060083Y1969312D01*
X2059756Y1969524D01*
X2059435Y1969745D01*
X2059119Y1969973D01*
X2058809Y1970209D01*
X2058505Y1970452D01*
X2058207Y1970703D01*
X2057915Y1970961D01*
X2057630Y1971227D01*
X2057351Y1971499D01*
X2057079Y1971778D01*
X2056813Y1972063D01*
X2056555Y1972355D01*
X2056304Y1972653D01*
X2056061Y1972957D01*
X2055825Y1973267D01*
X2055597Y1973583D01*
X2055376Y1973904D01*
X2055164Y1974231D01*
X2054960Y1974563D01*
X2054763Y1974899D01*
X2054575Y1975241D01*
X2054396Y1975586D01*
X2054225Y1975937D01*
X2054063Y1976291D01*
X2053909Y1976649D01*
X2053765Y1977011D01*
X2053629Y1977376D01*
X2053502Y1977744D01*
X2053385Y1978116D01*
X2053276Y1978490D01*
X2053177Y1978867D01*
X2053087Y1979246D01*
X2053006Y1979627D01*
X2052935Y1980010D01*
X2052873Y1980395D01*
X2052820Y1980781D01*
X2052777Y1981168D01*
X2052744Y1981556D01*
X2052720Y1981945D01*
X2052706Y1982334D01*
X2052701Y1982724D01*
X1687195Y2272792D02*
X1687200Y2273182D01*
X1687214Y2273571D01*
X1687238Y2273960D01*
X1687271Y2274348D01*
X1687314Y2274735D01*
X1687367Y2275121D01*
X1687429Y2275506D01*
X1687500Y2275889D01*
X1687581Y2276270D01*
X1687671Y2276649D01*
X1687770Y2277026D01*
X1687879Y2277400D01*
X1687996Y2277772D01*
X1688123Y2278140D01*
X1688259Y2278505D01*
X1688403Y2278867D01*
X1688557Y2279225D01*
X1688719Y2279579D01*
X1688890Y2279930D01*
X1689069Y2280275D01*
X1689257Y2280617D01*
X1689454Y2280953D01*
X1689658Y2281285D01*
X1689870Y2281612D01*
X1690091Y2281933D01*
X1690319Y2282249D01*
X1690555Y2282559D01*
X1690798Y2282863D01*
X1691049Y2283161D01*
X1691307Y2283453D01*
X1691573Y2283738D01*
X1691845Y2284017D01*
X1692124Y2284289D01*
X1692409Y2284555D01*
X1692701Y2284813D01*
X1692999Y2285064D01*
X1693303Y2285307D01*
X1693613Y2285543D01*
X1693929Y2285771D01*
X1694250Y2285992D01*
X1694577Y2286204D01*
X1694909Y2286408D01*
X1695245Y2286605D01*
X1695587Y2286793D01*
X1695932Y2286972D01*
X1696283Y2287143D01*
X1696637Y2287305D01*
X1696995Y2287459D01*
X1697357Y2287603D01*
X1697722Y2287739D01*
X1698090Y2287866D01*
X1698462Y2287983D01*
X1698836Y2288092D01*
X1699213Y2288191D01*
X1699592Y2288281D01*
X1699973Y2288362D01*
X1700356Y2288433D01*
X1700741Y2288495D01*
X1701127Y2288548D01*
X1701514Y2288591D01*
X1701902Y2288624D01*
X1702291Y2288648D01*
X1702680Y2288662D01*
X1703070Y2288667D01*
X1703460Y2288662D01*
X1703849Y2288648D01*
X1704238Y2288624D01*
X1704626Y2288591D01*
X1705013Y2288548D01*
X1705399Y2288495D01*
X1705784Y2288433D01*
X1706167Y2288362D01*
X1706548Y2288281D01*
X1706927Y2288191D01*
X1707304Y2288092D01*
X1707678Y2287983D01*
X1708050Y2287866D01*
X1708418Y2287739D01*
X1708783Y2287603D01*
X1709145Y2287459D01*
X1709503Y2287305D01*
X1709857Y2287143D01*
X1710208Y2286972D01*
X1710553Y2286793D01*
X1710895Y2286605D01*
X1711231Y2286408D01*
X1711563Y2286204D01*
X1711890Y2285992D01*
X1712211Y2285771D01*
X1712527Y2285543D01*
X1712837Y2285307D01*
X1713141Y2285064D01*
X1713439Y2284813D01*
X1713731Y2284555D01*
X1714016Y2284289D01*
X1714295Y2284017D01*
X1714567Y2283738D01*
X1714833Y2283453D01*
X1715091Y2283161D01*
X1715342Y2282863D01*
X1715585Y2282559D01*
X1715821Y2282249D01*
X1716049Y2281933D01*
X1716270Y2281612D01*
X1716482Y2281285D01*
X1716686Y2280953D01*
X1716883Y2280617D01*
X1717071Y2280275D01*
X1717250Y2279930D01*
X1717421Y2279579D01*
X1717583Y2279225D01*
X1717737Y2278867D01*
X1717881Y2278505D01*
X1718017Y2278140D01*
X1718144Y2277772D01*
X1718261Y2277400D01*
X1718370Y2277026D01*
X1718469Y2276649D01*
X1718559Y2276270D01*
X1718640Y2275889D01*
X1718711Y2275506D01*
X1718773Y2275121D01*
X1718826Y2274735D01*
X1718869Y2274348D01*
X1718902Y2273960D01*
X1718926Y2273571D01*
X1718940Y2273182D01*
X1718945Y2272792D01*
X1718940Y2272402D01*
X1718926Y2272013D01*
X1718902Y2271624D01*
X1718869Y2271236D01*
X1718826Y2270849D01*
X1718773Y2270463D01*
X1718711Y2270078D01*
X1718640Y2269695D01*
X1718559Y2269314D01*
X1718469Y2268935D01*
X1718370Y2268558D01*
X1718261Y2268184D01*
X1718144Y2267812D01*
X1718017Y2267444D01*
X1717881Y2267079D01*
X1717737Y2266717D01*
X1717583Y2266359D01*
X1717421Y2266005D01*
X1717250Y2265654D01*
X1717071Y2265309D01*
X1716883Y2264967D01*
X1716686Y2264631D01*
X1716482Y2264299D01*
X1716270Y2263972D01*
X1716049Y2263651D01*
X1715821Y2263335D01*
X1715585Y2263025D01*
X1715342Y2262721D01*
X1715091Y2262423D01*
X1714833Y2262131D01*
X1714567Y2261846D01*
X1714295Y2261567D01*
X1714016Y2261295D01*
X1713731Y2261029D01*
X1713439Y2260771D01*
X1713141Y2260520D01*
X1712837Y2260277D01*
X1712527Y2260041D01*
X1712211Y2259813D01*
X1711890Y2259592D01*
X1711563Y2259380D01*
X1711231Y2259176D01*
X1710895Y2258979D01*
X1710553Y2258791D01*
X1710208Y2258612D01*
X1709857Y2258441D01*
X1709503Y2258279D01*
X1709145Y2258125D01*
X1708783Y2257981D01*
X1708418Y2257845D01*
X1708050Y2257718D01*
X1707678Y2257601D01*
X1707304Y2257492D01*
X1706927Y2257393D01*
X1706548Y2257303D01*
X1706167Y2257222D01*
X1705784Y2257151D01*
X1705399Y2257089D01*
X1705013Y2257036D01*
X1704626Y2256993D01*
X1704238Y2256960D01*
X1703849Y2256936D01*
X1703460Y2256922D01*
X1703070Y2256917D01*
X1702680Y2256922D01*
X1702291Y2256936D01*
X1701902Y2256960D01*
X1701514Y2256993D01*
X1701127Y2257036D01*
X1700741Y2257089D01*
X1700356Y2257151D01*
X1699973Y2257222D01*
X1699592Y2257303D01*
X1699213Y2257393D01*
X1698836Y2257492D01*
X1698462Y2257601D01*
X1698090Y2257718D01*
X1697722Y2257845D01*
X1697357Y2257981D01*
X1696995Y2258125D01*
X1696637Y2258279D01*
X1696283Y2258441D01*
X1695932Y2258612D01*
X1695587Y2258791D01*
X1695245Y2258979D01*
X1694909Y2259176D01*
X1694577Y2259380D01*
X1694250Y2259592D01*
X1693929Y2259813D01*
X1693613Y2260041D01*
X1693303Y2260277D01*
X1692999Y2260520D01*
X1692701Y2260771D01*
X1692409Y2261029D01*
X1692124Y2261295D01*
X1691845Y2261567D01*
X1691573Y2261846D01*
X1691307Y2262131D01*
X1691049Y2262423D01*
X1690798Y2262721D01*
X1690555Y2263025D01*
X1690319Y2263335D01*
X1690091Y2263651D01*
X1689870Y2263972D01*
X1689658Y2264299D01*
X1689454Y2264631D01*
X1689257Y2264967D01*
X1689069Y2265309D01*
X1688890Y2265654D01*
X1688719Y2266005D01*
X1688557Y2266359D01*
X1688403Y2266717D01*
X1688259Y2267079D01*
X1688123Y2267444D01*
X1687996Y2267812D01*
X1687879Y2268184D01*
X1687770Y2268558D01*
X1687671Y2268935D01*
X1687581Y2269314D01*
X1687500Y2269695D01*
X1687429Y2270078D01*
X1687367Y2270463D01*
X1687314Y2270849D01*
X1687271Y2271236D01*
X1687238Y2271624D01*
X1687214Y2272013D01*
X1687200Y2272402D01*
X1687195Y2272792D01*
X1128395Y2272792D02*
X1128400Y2273182D01*
X1128414Y2273571D01*
X1128438Y2273960D01*
X1128471Y2274348D01*
X1128514Y2274735D01*
X1128567Y2275121D01*
X1128629Y2275506D01*
X1128700Y2275889D01*
X1128781Y2276270D01*
X1128871Y2276649D01*
X1128970Y2277026D01*
X1129079Y2277400D01*
X1129196Y2277772D01*
X1129323Y2278140D01*
X1129459Y2278505D01*
X1129603Y2278867D01*
X1129757Y2279225D01*
X1129919Y2279579D01*
X1130090Y2279930D01*
X1130269Y2280275D01*
X1130457Y2280617D01*
X1130654Y2280953D01*
X1130858Y2281285D01*
X1131070Y2281612D01*
X1131291Y2281933D01*
X1131519Y2282249D01*
X1131755Y2282559D01*
X1131998Y2282863D01*
X1132249Y2283161D01*
X1132507Y2283453D01*
X1132773Y2283738D01*
X1133045Y2284017D01*
X1133324Y2284289D01*
X1133609Y2284555D01*
X1133901Y2284813D01*
X1134199Y2285064D01*
X1134503Y2285307D01*
X1134813Y2285543D01*
X1135129Y2285771D01*
X1135450Y2285992D01*
X1135777Y2286204D01*
X1136109Y2286408D01*
X1136445Y2286605D01*
X1136787Y2286793D01*
X1137132Y2286972D01*
X1137483Y2287143D01*
X1137837Y2287305D01*
X1138195Y2287459D01*
X1138557Y2287603D01*
X1138922Y2287739D01*
X1139290Y2287866D01*
X1139662Y2287983D01*
X1140036Y2288092D01*
X1140413Y2288191D01*
X1140792Y2288281D01*
X1141173Y2288362D01*
X1141556Y2288433D01*
X1141941Y2288495D01*
X1142327Y2288548D01*
X1142714Y2288591D01*
X1143102Y2288624D01*
X1143491Y2288648D01*
X1143880Y2288662D01*
X1144270Y2288667D01*
X1144660Y2288662D01*
X1145049Y2288648D01*
X1145438Y2288624D01*
X1145826Y2288591D01*
X1146213Y2288548D01*
X1146599Y2288495D01*
X1146984Y2288433D01*
X1147367Y2288362D01*
X1147748Y2288281D01*
X1148127Y2288191D01*
X1148504Y2288092D01*
X1148878Y2287983D01*
X1149250Y2287866D01*
X1149618Y2287739D01*
X1149983Y2287603D01*
X1150345Y2287459D01*
X1150703Y2287305D01*
X1151057Y2287143D01*
X1151408Y2286972D01*
X1151753Y2286793D01*
X1152095Y2286605D01*
X1152431Y2286408D01*
X1152763Y2286204D01*
X1153090Y2285992D01*
X1153411Y2285771D01*
X1153727Y2285543D01*
X1154037Y2285307D01*
X1154341Y2285064D01*
X1154639Y2284813D01*
X1154931Y2284555D01*
X1155216Y2284289D01*
X1155495Y2284017D01*
X1155767Y2283738D01*
X1156033Y2283453D01*
X1156291Y2283161D01*
X1156542Y2282863D01*
X1156785Y2282559D01*
X1157021Y2282249D01*
X1157249Y2281933D01*
X1157470Y2281612D01*
X1157682Y2281285D01*
X1157886Y2280953D01*
X1158083Y2280617D01*
X1158271Y2280275D01*
X1158450Y2279930D01*
X1158621Y2279579D01*
X1158783Y2279225D01*
X1158937Y2278867D01*
X1159081Y2278505D01*
X1159217Y2278140D01*
X1159344Y2277772D01*
X1159461Y2277400D01*
X1159570Y2277026D01*
X1159669Y2276649D01*
X1159759Y2276270D01*
X1159840Y2275889D01*
X1159911Y2275506D01*
X1159973Y2275121D01*
X1160026Y2274735D01*
X1160069Y2274348D01*
X1160102Y2273960D01*
X1160126Y2273571D01*
X1160140Y2273182D01*
X1160145Y2272792D01*
X1160140Y2272402D01*
X1160126Y2272013D01*
X1160102Y2271624D01*
X1160069Y2271236D01*
X1160026Y2270849D01*
X1159973Y2270463D01*
X1159911Y2270078D01*
X1159840Y2269695D01*
X1159759Y2269314D01*
X1159669Y2268935D01*
X1159570Y2268558D01*
X1159461Y2268184D01*
X1159344Y2267812D01*
X1159217Y2267444D01*
X1159081Y2267079D01*
X1158937Y2266717D01*
X1158783Y2266359D01*
X1158621Y2266005D01*
X1158450Y2265654D01*
X1158271Y2265309D01*
X1158083Y2264967D01*
X1157886Y2264631D01*
X1157682Y2264299D01*
X1157470Y2263972D01*
X1157249Y2263651D01*
X1157021Y2263335D01*
X1156785Y2263025D01*
X1156542Y2262721D01*
X1156291Y2262423D01*
X1156033Y2262131D01*
X1155767Y2261846D01*
X1155495Y2261567D01*
X1155216Y2261295D01*
X1154931Y2261029D01*
X1154639Y2260771D01*
X1154341Y2260520D01*
X1154037Y2260277D01*
X1153727Y2260041D01*
X1153411Y2259813D01*
X1153090Y2259592D01*
X1152763Y2259380D01*
X1152431Y2259176D01*
X1152095Y2258979D01*
X1151753Y2258791D01*
X1151408Y2258612D01*
X1151057Y2258441D01*
X1150703Y2258279D01*
X1150345Y2258125D01*
X1149983Y2257981D01*
X1149618Y2257845D01*
X1149250Y2257718D01*
X1148878Y2257601D01*
X1148504Y2257492D01*
X1148127Y2257393D01*
X1147748Y2257303D01*
X1147367Y2257222D01*
X1146984Y2257151D01*
X1146599Y2257089D01*
X1146213Y2257036D01*
X1145826Y2256993D01*
X1145438Y2256960D01*
X1145049Y2256936D01*
X1144660Y2256922D01*
X1144270Y2256917D01*
X1143880Y2256922D01*
X1143491Y2256936D01*
X1143102Y2256960D01*
X1142714Y2256993D01*
X1142327Y2257036D01*
X1141941Y2257089D01*
X1141556Y2257151D01*
X1141173Y2257222D01*
X1140792Y2257303D01*
X1140413Y2257393D01*
X1140036Y2257492D01*
X1139662Y2257601D01*
X1139290Y2257718D01*
X1138922Y2257845D01*
X1138557Y2257981D01*
X1138195Y2258125D01*
X1137837Y2258279D01*
X1137483Y2258441D01*
X1137132Y2258612D01*
X1136787Y2258791D01*
X1136445Y2258979D01*
X1136109Y2259176D01*
X1135777Y2259380D01*
X1135450Y2259592D01*
X1135129Y2259813D01*
X1134813Y2260041D01*
X1134503Y2260277D01*
X1134199Y2260520D01*
X1133901Y2260771D01*
X1133609Y2261029D01*
X1133324Y2261295D01*
X1133045Y2261567D01*
X1132773Y2261846D01*
X1132507Y2262131D01*
X1132249Y2262423D01*
X1131998Y2262721D01*
X1131755Y2263025D01*
X1131519Y2263335D01*
X1131291Y2263651D01*
X1131070Y2263972D01*
X1130858Y2264299D01*
X1130654Y2264631D01*
X1130457Y2264967D01*
X1130269Y2265309D01*
X1130090Y2265654D01*
X1129919Y2266005D01*
X1129757Y2266359D01*
X1129603Y2266717D01*
X1129459Y2267079D01*
X1129323Y2267444D01*
X1129196Y2267812D01*
X1129079Y2268184D01*
X1128970Y2268558D01*
X1128871Y2268935D01*
X1128781Y2269314D01*
X1128700Y2269695D01*
X1128629Y2270078D01*
X1128567Y2270463D01*
X1128514Y2270849D01*
X1128471Y2271236D01*
X1128438Y2271624D01*
X1128414Y2272013D01*
X1128400Y2272402D01*
X1128395Y2272792D01*
X762889Y1982724D02*
X762894Y1983114D01*
X762908Y1983503D01*
X762932Y1983892D01*
X762965Y1984280D01*
X763008Y1984667D01*
X763061Y1985053D01*
X763123Y1985438D01*
X763194Y1985821D01*
X763275Y1986202D01*
X763365Y1986581D01*
X763464Y1986958D01*
X763573Y1987332D01*
X763690Y1987704D01*
X763817Y1988072D01*
X763953Y1988437D01*
X764097Y1988799D01*
X764251Y1989157D01*
X764413Y1989511D01*
X764584Y1989862D01*
X764763Y1990207D01*
X764951Y1990549D01*
X765148Y1990885D01*
X765352Y1991217D01*
X765564Y1991544D01*
X765785Y1991865D01*
X766013Y1992181D01*
X766249Y1992491D01*
X766492Y1992795D01*
X766743Y1993093D01*
X767001Y1993385D01*
X767267Y1993670D01*
X767539Y1993949D01*
X767818Y1994221D01*
X768103Y1994487D01*
X768395Y1994745D01*
X768693Y1994996D01*
X768997Y1995239D01*
X769307Y1995475D01*
X769623Y1995703D01*
X769944Y1995924D01*
X770271Y1996136D01*
X770603Y1996340D01*
X770939Y1996537D01*
X771281Y1996725D01*
X771626Y1996904D01*
X771977Y1997075D01*
X772331Y1997237D01*
X772689Y1997391D01*
X773051Y1997535D01*
X773416Y1997671D01*
X773784Y1997798D01*
X774156Y1997915D01*
X774530Y1998024D01*
X774907Y1998123D01*
X775286Y1998213D01*
X775667Y1998294D01*
X776050Y1998365D01*
X776435Y1998427D01*
X776821Y1998480D01*
X777208Y1998523D01*
X777596Y1998556D01*
X777985Y1998580D01*
X778374Y1998594D01*
X778764Y1998599D01*
X779154Y1998594D01*
X779543Y1998580D01*
X779932Y1998556D01*
X780320Y1998523D01*
X780707Y1998480D01*
X781093Y1998427D01*
X781478Y1998365D01*
X781861Y1998294D01*
X782242Y1998213D01*
X782621Y1998123D01*
X782998Y1998024D01*
X783372Y1997915D01*
X783744Y1997798D01*
X784112Y1997671D01*
X784477Y1997535D01*
X784839Y1997391D01*
X785197Y1997237D01*
X785551Y1997075D01*
X785902Y1996904D01*
X786247Y1996725D01*
X786589Y1996537D01*
X786925Y1996340D01*
X787257Y1996136D01*
X787584Y1995924D01*
X787905Y1995703D01*
X788221Y1995475D01*
X788531Y1995239D01*
X788835Y1994996D01*
X789133Y1994745D01*
X789425Y1994487D01*
X789710Y1994221D01*
X789989Y1993949D01*
X790261Y1993670D01*
X790527Y1993385D01*
X790785Y1993093D01*
X791036Y1992795D01*
X791279Y1992491D01*
X791515Y1992181D01*
X791743Y1991865D01*
X791964Y1991544D01*
X792176Y1991217D01*
X792380Y1990885D01*
X792577Y1990549D01*
X792765Y1990207D01*
X792944Y1989862D01*
X793115Y1989511D01*
X793277Y1989157D01*
X793431Y1988799D01*
X793575Y1988437D01*
X793711Y1988072D01*
X793838Y1987704D01*
X793955Y1987332D01*
X794064Y1986958D01*
X794163Y1986581D01*
X794253Y1986202D01*
X794334Y1985821D01*
X794405Y1985438D01*
X794467Y1985053D01*
X794520Y1984667D01*
X794563Y1984280D01*
X794596Y1983892D01*
X794620Y1983503D01*
X794634Y1983114D01*
X794639Y1982724D01*
X794634Y1982334D01*
X794620Y1981945D01*
X794596Y1981556D01*
X794563Y1981168D01*
X794520Y1980781D01*
X794467Y1980395D01*
X794405Y1980010D01*
X794334Y1979627D01*
X794253Y1979246D01*
X794163Y1978867D01*
X794064Y1978490D01*
X793955Y1978116D01*
X793838Y1977744D01*
X793711Y1977376D01*
X793575Y1977011D01*
X793431Y1976649D01*
X793277Y1976291D01*
X793115Y1975937D01*
X792944Y1975586D01*
X792765Y1975241D01*
X792577Y1974899D01*
X792380Y1974563D01*
X792176Y1974231D01*
X791964Y1973904D01*
X791743Y1973583D01*
X791515Y1973267D01*
X791279Y1972957D01*
X791036Y1972653D01*
X790785Y1972355D01*
X790527Y1972063D01*
X790261Y1971778D01*
X789989Y1971499D01*
X789710Y1971227D01*
X789425Y1970961D01*
X789133Y1970703D01*
X788835Y1970452D01*
X788531Y1970209D01*
X788221Y1969973D01*
X787905Y1969745D01*
X787584Y1969524D01*
X787257Y1969312D01*
X786925Y1969108D01*
X786589Y1968911D01*
X786247Y1968723D01*
X785902Y1968544D01*
X785551Y1968373D01*
X785197Y1968211D01*
X784839Y1968057D01*
X784477Y1967913D01*
X784112Y1967777D01*
X783744Y1967650D01*
X783372Y1967533D01*
X782998Y1967424D01*
X782621Y1967325D01*
X782242Y1967235D01*
X781861Y1967154D01*
X781478Y1967083D01*
X781093Y1967021D01*
X780707Y1966968D01*
X780320Y1966925D01*
X779932Y1966892D01*
X779543Y1966868D01*
X779154Y1966854D01*
X778764Y1966849D01*
X778374Y1966854D01*
X777985Y1966868D01*
X777596Y1966892D01*
X777208Y1966925D01*
X776821Y1966968D01*
X776435Y1967021D01*
X776050Y1967083D01*
X775667Y1967154D01*
X775286Y1967235D01*
X774907Y1967325D01*
X774530Y1967424D01*
X774156Y1967533D01*
X773784Y1967650D01*
X773416Y1967777D01*
X773051Y1967913D01*
X772689Y1968057D01*
X772331Y1968211D01*
X771977Y1968373D01*
X771626Y1968544D01*
X771281Y1968723D01*
X770939Y1968911D01*
X770603Y1969108D01*
X770271Y1969312D01*
X769944Y1969524D01*
X769623Y1969745D01*
X769307Y1969973D01*
X768997Y1970209D01*
X768693Y1970452D01*
X768395Y1970703D01*
X768103Y1970961D01*
X767818Y1971227D01*
X767539Y1971499D01*
X767267Y1971778D01*
X767001Y1972063D01*
X766743Y1972355D01*
X766492Y1972653D01*
X766249Y1972957D01*
X766013Y1973267D01*
X765785Y1973583D01*
X765564Y1973904D01*
X765352Y1974231D01*
X765148Y1974563D01*
X764951Y1974899D01*
X764763Y1975241D01*
X764584Y1975586D01*
X764413Y1975937D01*
X764251Y1976291D01*
X764097Y1976649D01*
X763953Y1977011D01*
X763817Y1977376D01*
X763690Y1977744D01*
X763573Y1978116D01*
X763464Y1978490D01*
X763365Y1978867D01*
X763275Y1979246D01*
X763194Y1979627D01*
X763123Y1980010D01*
X763061Y1980395D01*
X763008Y1980781D01*
X762965Y1981168D01*
X762932Y1981556D01*
X762908Y1981945D01*
X762894Y1982334D01*
X762889Y1982724D01*
X762889Y1423924D02*
X762894Y1424314D01*
X762908Y1424703D01*
X762932Y1425092D01*
X762965Y1425480D01*
X763008Y1425867D01*
X763061Y1426253D01*
X763123Y1426638D01*
X763194Y1427021D01*
X763275Y1427402D01*
X763365Y1427781D01*
X763464Y1428158D01*
X763573Y1428532D01*
X763690Y1428904D01*
X763817Y1429272D01*
X763953Y1429637D01*
X764097Y1429999D01*
X764251Y1430357D01*
X764413Y1430711D01*
X764584Y1431062D01*
X764763Y1431407D01*
X764951Y1431749D01*
X765148Y1432085D01*
X765352Y1432417D01*
X765564Y1432744D01*
X765785Y1433065D01*
X766013Y1433381D01*
X766249Y1433691D01*
X766492Y1433995D01*
X766743Y1434293D01*
X767001Y1434585D01*
X767267Y1434870D01*
X767539Y1435149D01*
X767818Y1435421D01*
X768103Y1435687D01*
X768395Y1435945D01*
X768693Y1436196D01*
X768997Y1436439D01*
X769307Y1436675D01*
X769623Y1436903D01*
X769944Y1437124D01*
X770271Y1437336D01*
X770603Y1437540D01*
X770939Y1437737D01*
X771281Y1437925D01*
X771626Y1438104D01*
X771977Y1438275D01*
X772331Y1438437D01*
X772689Y1438591D01*
X773051Y1438735D01*
X773416Y1438871D01*
X773784Y1438998D01*
X774156Y1439115D01*
X774530Y1439224D01*
X774907Y1439323D01*
X775286Y1439413D01*
X775667Y1439494D01*
X776050Y1439565D01*
X776435Y1439627D01*
X776821Y1439680D01*
X777208Y1439723D01*
X777596Y1439756D01*
X777985Y1439780D01*
X778374Y1439794D01*
X778764Y1439799D01*
X779154Y1439794D01*
X779543Y1439780D01*
X779932Y1439756D01*
X780320Y1439723D01*
X780707Y1439680D01*
X781093Y1439627D01*
X781478Y1439565D01*
X781861Y1439494D01*
X782242Y1439413D01*
X782621Y1439323D01*
X782998Y1439224D01*
X783372Y1439115D01*
X783744Y1438998D01*
X784112Y1438871D01*
X784477Y1438735D01*
X784839Y1438591D01*
X785197Y1438437D01*
X785551Y1438275D01*
X785902Y1438104D01*
X786247Y1437925D01*
X786589Y1437737D01*
X786925Y1437540D01*
X787257Y1437336D01*
X787584Y1437124D01*
X787905Y1436903D01*
X788221Y1436675D01*
X788531Y1436439D01*
X788835Y1436196D01*
X789133Y1435945D01*
X789425Y1435687D01*
X789710Y1435421D01*
X789989Y1435149D01*
X790261Y1434870D01*
X790527Y1434585D01*
X790785Y1434293D01*
X791036Y1433995D01*
X791279Y1433691D01*
X791515Y1433381D01*
X791743Y1433065D01*
X791964Y1432744D01*
X792176Y1432417D01*
X792380Y1432085D01*
X792577Y1431749D01*
X792765Y1431407D01*
X792944Y1431062D01*
X793115Y1430711D01*
X793277Y1430357D01*
X793431Y1429999D01*
X793575Y1429637D01*
X793711Y1429272D01*
X793838Y1428904D01*
X793955Y1428532D01*
X794064Y1428158D01*
X794163Y1427781D01*
X794253Y1427402D01*
X794334Y1427021D01*
X794405Y1426638D01*
X794467Y1426253D01*
X794520Y1425867D01*
X794563Y1425480D01*
X794596Y1425092D01*
X794620Y1424703D01*
X794634Y1424314D01*
X794639Y1423924D01*
X794634Y1423534D01*
X794620Y1423145D01*
X794596Y1422756D01*
X794563Y1422368D01*
X794520Y1421981D01*
X794467Y1421595D01*
X794405Y1421210D01*
X794334Y1420827D01*
X794253Y1420446D01*
X794163Y1420067D01*
X794064Y1419690D01*
X793955Y1419316D01*
X793838Y1418944D01*
X793711Y1418576D01*
X793575Y1418211D01*
X793431Y1417849D01*
X793277Y1417491D01*
X793115Y1417137D01*
X792944Y1416786D01*
X792765Y1416441D01*
X792577Y1416099D01*
X792380Y1415763D01*
X792176Y1415431D01*
X791964Y1415104D01*
X791743Y1414783D01*
X791515Y1414467D01*
X791279Y1414157D01*
X791036Y1413853D01*
X790785Y1413555D01*
X790527Y1413263D01*
X790261Y1412978D01*
X789989Y1412699D01*
X789710Y1412427D01*
X789425Y1412161D01*
X789133Y1411903D01*
X788835Y1411652D01*
X788531Y1411409D01*
X788221Y1411173D01*
X787905Y1410945D01*
X787584Y1410724D01*
X787257Y1410512D01*
X786925Y1410308D01*
X786589Y1410111D01*
X786247Y1409923D01*
X785902Y1409744D01*
X785551Y1409573D01*
X785197Y1409411D01*
X784839Y1409257D01*
X784477Y1409113D01*
X784112Y1408977D01*
X783744Y1408850D01*
X783372Y1408733D01*
X782998Y1408624D01*
X782621Y1408525D01*
X782242Y1408435D01*
X781861Y1408354D01*
X781478Y1408283D01*
X781093Y1408221D01*
X780707Y1408168D01*
X780320Y1408125D01*
X779932Y1408092D01*
X779543Y1408068D01*
X779154Y1408054D01*
X778764Y1408049D01*
X778374Y1408054D01*
X777985Y1408068D01*
X777596Y1408092D01*
X777208Y1408125D01*
X776821Y1408168D01*
X776435Y1408221D01*
X776050Y1408283D01*
X775667Y1408354D01*
X775286Y1408435D01*
X774907Y1408525D01*
X774530Y1408624D01*
X774156Y1408733D01*
X773784Y1408850D01*
X773416Y1408977D01*
X773051Y1409113D01*
X772689Y1409257D01*
X772331Y1409411D01*
X771977Y1409573D01*
X771626Y1409744D01*
X771281Y1409923D01*
X770939Y1410111D01*
X770603Y1410308D01*
X770271Y1410512D01*
X769944Y1410724D01*
X769623Y1410945D01*
X769307Y1411173D01*
X768997Y1411409D01*
X768693Y1411652D01*
X768395Y1411903D01*
X768103Y1412161D01*
X767818Y1412427D01*
X767539Y1412699D01*
X767267Y1412978D01*
X767001Y1413263D01*
X766743Y1413555D01*
X766492Y1413853D01*
X766249Y1414157D01*
X766013Y1414467D01*
X765785Y1414783D01*
X765564Y1415104D01*
X765352Y1415431D01*
X765148Y1415763D01*
X764951Y1416099D01*
X764763Y1416441D01*
X764584Y1416786D01*
X764413Y1417137D01*
X764251Y1417491D01*
X764097Y1417849D01*
X763953Y1418211D01*
X763817Y1418576D01*
X763690Y1418944D01*
X763573Y1419316D01*
X763464Y1419690D01*
X763365Y1420067D01*
X763275Y1420446D01*
X763194Y1420827D01*
X763123Y1421210D01*
X763061Y1421595D01*
X763008Y1421981D01*
X762965Y1422368D01*
X762932Y1422756D01*
X762908Y1423145D01*
X762894Y1423534D01*
X762889Y1423924D01*
X762889Y865124D02*
X762894Y865514D01*
X762908Y865903D01*
X762932Y866292D01*
X762965Y866680D01*
X763008Y867067D01*
X763061Y867453D01*
X763123Y867838D01*
X763194Y868221D01*
X763275Y868602D01*
X763365Y868981D01*
X763464Y869358D01*
X763573Y869732D01*
X763690Y870104D01*
X763817Y870472D01*
X763953Y870837D01*
X764097Y871199D01*
X764251Y871557D01*
X764413Y871911D01*
X764584Y872262D01*
X764763Y872607D01*
X764951Y872949D01*
X765148Y873285D01*
X765352Y873617D01*
X765564Y873944D01*
X765785Y874265D01*
X766013Y874581D01*
X766249Y874891D01*
X766492Y875195D01*
X766743Y875493D01*
X767001Y875785D01*
X767267Y876070D01*
X767539Y876349D01*
X767818Y876621D01*
X768103Y876887D01*
X768395Y877145D01*
X768693Y877396D01*
X768997Y877639D01*
X769307Y877875D01*
X769623Y878103D01*
X769944Y878324D01*
X770271Y878536D01*
X770603Y878740D01*
X770939Y878937D01*
X771281Y879125D01*
X771626Y879304D01*
X771977Y879475D01*
X772331Y879637D01*
X772689Y879791D01*
X773051Y879935D01*
X773416Y880071D01*
X773784Y880198D01*
X774156Y880315D01*
X774530Y880424D01*
X774907Y880523D01*
X775286Y880613D01*
X775667Y880694D01*
X776050Y880765D01*
X776435Y880827D01*
X776821Y880880D01*
X777208Y880923D01*
X777596Y880956D01*
X777985Y880980D01*
X778374Y880994D01*
X778764Y880999D01*
X779154Y880994D01*
X779543Y880980D01*
X779932Y880956D01*
X780320Y880923D01*
X780707Y880880D01*
X781093Y880827D01*
X781478Y880765D01*
X781861Y880694D01*
X782242Y880613D01*
X782621Y880523D01*
X782998Y880424D01*
X783372Y880315D01*
X783744Y880198D01*
X784112Y880071D01*
X784477Y879935D01*
X784839Y879791D01*
X785197Y879637D01*
X785551Y879475D01*
X785902Y879304D01*
X786247Y879125D01*
X786589Y878937D01*
X786925Y878740D01*
X787257Y878536D01*
X787584Y878324D01*
X787905Y878103D01*
X788221Y877875D01*
X788531Y877639D01*
X788835Y877396D01*
X789133Y877145D01*
X789425Y876887D01*
X789710Y876621D01*
X789989Y876349D01*
X790261Y876070D01*
X790527Y875785D01*
X790785Y875493D01*
X791036Y875195D01*
X791279Y874891D01*
X791515Y874581D01*
X791743Y874265D01*
X791964Y873944D01*
X792176Y873617D01*
X792380Y873285D01*
X792577Y872949D01*
X792765Y872607D01*
X792944Y872262D01*
X793115Y871911D01*
X793277Y871557D01*
X793431Y871199D01*
X793575Y870837D01*
X793711Y870472D01*
X793838Y870104D01*
X793955Y869732D01*
X794064Y869358D01*
X794163Y868981D01*
X794253Y868602D01*
X794334Y868221D01*
X794405Y867838D01*
X794467Y867453D01*
X794520Y867067D01*
X794563Y866680D01*
X794596Y866292D01*
X794620Y865903D01*
X794634Y865514D01*
X794639Y865124D01*
X794634Y864734D01*
X794620Y864345D01*
X794596Y863956D01*
X794563Y863568D01*
X794520Y863181D01*
X794467Y862795D01*
X794405Y862410D01*
X794334Y862027D01*
X794253Y861646D01*
X794163Y861267D01*
X794064Y860890D01*
X793955Y860516D01*
X793838Y860144D01*
X793711Y859776D01*
X793575Y859411D01*
X793431Y859049D01*
X793277Y858691D01*
X793115Y858337D01*
X792944Y857986D01*
X792765Y857641D01*
X792577Y857299D01*
X792380Y856963D01*
X792176Y856631D01*
X791964Y856304D01*
X791743Y855983D01*
X791515Y855667D01*
X791279Y855357D01*
X791036Y855053D01*
X790785Y854755D01*
X790527Y854463D01*
X790261Y854178D01*
X789989Y853899D01*
X789710Y853627D01*
X789425Y853361D01*
X789133Y853103D01*
X788835Y852852D01*
X788531Y852609D01*
X788221Y852373D01*
X787905Y852145D01*
X787584Y851924D01*
X787257Y851712D01*
X786925Y851508D01*
X786589Y851311D01*
X786247Y851123D01*
X785902Y850944D01*
X785551Y850773D01*
X785197Y850611D01*
X784839Y850457D01*
X784477Y850313D01*
X784112Y850177D01*
X783744Y850050D01*
X783372Y849933D01*
X782998Y849824D01*
X782621Y849725D01*
X782242Y849635D01*
X781861Y849554D01*
X781478Y849483D01*
X781093Y849421D01*
X780707Y849368D01*
X780320Y849325D01*
X779932Y849292D01*
X779543Y849268D01*
X779154Y849254D01*
X778764Y849249D01*
X778374Y849254D01*
X777985Y849268D01*
X777596Y849292D01*
X777208Y849325D01*
X776821Y849368D01*
X776435Y849421D01*
X776050Y849483D01*
X775667Y849554D01*
X775286Y849635D01*
X774907Y849725D01*
X774530Y849824D01*
X774156Y849933D01*
X773784Y850050D01*
X773416Y850177D01*
X773051Y850313D01*
X772689Y850457D01*
X772331Y850611D01*
X771977Y850773D01*
X771626Y850944D01*
X771281Y851123D01*
X770939Y851311D01*
X770603Y851508D01*
X770271Y851712D01*
X769944Y851924D01*
X769623Y852145D01*
X769307Y852373D01*
X768997Y852609D01*
X768693Y852852D01*
X768395Y853103D01*
X768103Y853361D01*
X767818Y853627D01*
X767539Y853899D01*
X767267Y854178D01*
X767001Y854463D01*
X766743Y854755D01*
X766492Y855053D01*
X766249Y855357D01*
X766013Y855667D01*
X765785Y855983D01*
X765564Y856304D01*
X765352Y856631D01*
X765148Y856963D01*
X764951Y857299D01*
X764763Y857641D01*
X764584Y857986D01*
X764413Y858337D01*
X764251Y858691D01*
X764097Y859049D01*
X763953Y859411D01*
X763817Y859776D01*
X763690Y860144D01*
X763573Y860516D01*
X763464Y860890D01*
X763365Y861267D01*
X763275Y861646D01*
X763194Y862027D01*
X763123Y862410D01*
X763061Y862795D01*
X763008Y863181D01*
X762965Y863568D01*
X762932Y863956D01*
X762908Y864345D01*
X762894Y864734D01*
X762889Y865124D01*
X1352550Y1423670D02*
X1352571Y1425415D01*
X1352636Y1427160D01*
X1352743Y1428902D01*
X1352892Y1430641D01*
X1353085Y1432376D01*
X1353320Y1434105D01*
X1353597Y1435829D01*
X1353917Y1437545D01*
X1354278Y1439252D01*
X1354681Y1440951D01*
X1355126Y1442639D01*
X1355612Y1444315D01*
X1356140Y1445979D01*
X1356707Y1447630D01*
X1357316Y1449266D01*
X1357964Y1450886D01*
X1358651Y1452491D01*
X1359378Y1454078D01*
X1360144Y1455646D01*
X1360948Y1457196D01*
X1361789Y1458725D01*
X1362668Y1460233D01*
X1363584Y1461719D01*
X1364536Y1463182D01*
X1365523Y1464621D01*
X1366546Y1466036D01*
X1367603Y1467425D01*
X1368693Y1468788D01*
X1369817Y1470124D01*
X1370974Y1471431D01*
X1372162Y1472710D01*
X1373381Y1473959D01*
X1374630Y1475178D01*
X1375909Y1476366D01*
X1377216Y1477523D01*
X1378552Y1478647D01*
X1379915Y1479737D01*
X1381304Y1480794D01*
X1382719Y1481817D01*
X1384158Y1482804D01*
X1385621Y1483756D01*
X1387107Y1484672D01*
X1388615Y1485551D01*
X1390144Y1486392D01*
X1391694Y1487196D01*
X1393262Y1487962D01*
X1394849Y1488689D01*
X1396454Y1489376D01*
X1398074Y1490024D01*
X1399710Y1490633D01*
X1401361Y1491200D01*
X1403025Y1491728D01*
X1404701Y1492214D01*
X1406389Y1492659D01*
X1408088Y1493062D01*
X1409795Y1493423D01*
X1411511Y1493743D01*
X1413235Y1494020D01*
X1414964Y1494255D01*
X1416699Y1494448D01*
X1418438Y1494597D01*
X1420180Y1494704D01*
X1421925Y1494769D01*
X1423670Y1494790D01*
X1425415Y1494769D01*
X1427160Y1494704D01*
X1428902Y1494597D01*
X1430641Y1494448D01*
X1432376Y1494255D01*
X1434105Y1494020D01*
X1435829Y1493743D01*
X1437545Y1493423D01*
X1439252Y1493062D01*
X1440951Y1492659D01*
X1442639Y1492214D01*
X1444315Y1491728D01*
X1445979Y1491200D01*
X1447630Y1490633D01*
X1449266Y1490024D01*
X1450886Y1489376D01*
X1452491Y1488689D01*
X1454078Y1487962D01*
X1455646Y1487196D01*
X1457196Y1486392D01*
X1458725Y1485551D01*
X1460233Y1484672D01*
X1461719Y1483756D01*
X1463182Y1482804D01*
X1464621Y1481817D01*
X1466036Y1480794D01*
X1467425Y1479737D01*
X1468788Y1478647D01*
X1470124Y1477523D01*
X1471431Y1476366D01*
X1472710Y1475178D01*
X1473959Y1473959D01*
X1475178Y1472710D01*
X1476366Y1471431D01*
X1477523Y1470124D01*
X1478647Y1468788D01*
X1479737Y1467425D01*
X1480794Y1466036D01*
X1481817Y1464621D01*
X1482804Y1463182D01*
X1483756Y1461719D01*
X1484672Y1460233D01*
X1485551Y1458725D01*
X1486392Y1457196D01*
X1487196Y1455646D01*
X1487962Y1454078D01*
X1488689Y1452491D01*
X1489376Y1450886D01*
X1490024Y1449266D01*
X1490633Y1447630D01*
X1491200Y1445979D01*
X1491728Y1444315D01*
X1492214Y1442639D01*
X1492659Y1440951D01*
X1493062Y1439252D01*
X1493423Y1437545D01*
X1493743Y1435829D01*
X1494020Y1434105D01*
X1494255Y1432376D01*
X1494448Y1430641D01*
X1494597Y1428902D01*
X1494704Y1427160D01*
X1494769Y1425415D01*
X1494790Y1423670D01*
X1494769Y1421925D01*
X1494704Y1420180D01*
X1494597Y1418438D01*
X1494448Y1416699D01*
X1494255Y1414964D01*
X1494020Y1413235D01*
X1493743Y1411511D01*
X1493423Y1409795D01*
X1493062Y1408088D01*
X1492659Y1406389D01*
X1492214Y1404701D01*
X1491728Y1403025D01*
X1491200Y1401361D01*
X1490633Y1399710D01*
X1490024Y1398074D01*
X1489376Y1396454D01*
X1488689Y1394849D01*
X1487962Y1393262D01*
X1487196Y1391694D01*
X1486392Y1390144D01*
X1485551Y1388615D01*
X1484672Y1387107D01*
X1483756Y1385621D01*
X1482804Y1384158D01*
X1481817Y1382719D01*
X1480794Y1381304D01*
X1479737Y1379915D01*
X1478647Y1378552D01*
X1477523Y1377216D01*
X1476366Y1375909D01*
X1475178Y1374630D01*
X1473959Y1373381D01*
X1472710Y1372162D01*
X1471431Y1370974D01*
X1470124Y1369817D01*
X1468788Y1368693D01*
X1467425Y1367603D01*
X1466036Y1366546D01*
X1464621Y1365523D01*
X1463182Y1364536D01*
X1461719Y1363584D01*
X1460233Y1362668D01*
X1458725Y1361789D01*
X1457196Y1360948D01*
X1455646Y1360144D01*
X1454078Y1359378D01*
X1452491Y1358651D01*
X1450886Y1357964D01*
X1449266Y1357316D01*
X1447630Y1356707D01*
X1445979Y1356140D01*
X1444315Y1355612D01*
X1442639Y1355126D01*
X1440951Y1354681D01*
X1439252Y1354278D01*
X1437545Y1353917D01*
X1435829Y1353597D01*
X1434105Y1353320D01*
X1432376Y1353085D01*
X1430641Y1352892D01*
X1428902Y1352743D01*
X1427160Y1352636D01*
X1425415Y1352571D01*
X1423670Y1352550D01*
X1421925Y1352571D01*
X1420180Y1352636D01*
X1418438Y1352743D01*
X1416699Y1352892D01*
X1414964Y1353085D01*
X1413235Y1353320D01*
X1411511Y1353597D01*
X1409795Y1353917D01*
X1408088Y1354278D01*
X1406389Y1354681D01*
X1404701Y1355126D01*
X1403025Y1355612D01*
X1401361Y1356140D01*
X1399710Y1356707D01*
X1398074Y1357316D01*
X1396454Y1357964D01*
X1394849Y1358651D01*
X1393262Y1359378D01*
X1391694Y1360144D01*
X1390144Y1360948D01*
X1388615Y1361789D01*
X1387107Y1362668D01*
X1385621Y1363584D01*
X1384158Y1364536D01*
X1382719Y1365523D01*
X1381304Y1366546D01*
X1379915Y1367603D01*
X1378552Y1368693D01*
X1377216Y1369817D01*
X1375909Y1370974D01*
X1374630Y1372162D01*
X1373381Y1373381D01*
X1372162Y1374630D01*
X1370974Y1375909D01*
X1369817Y1377216D01*
X1368693Y1378552D01*
X1367603Y1379915D01*
X1366546Y1381304D01*
X1365523Y1382719D01*
X1364536Y1384158D01*
X1363584Y1385621D01*
X1362668Y1387107D01*
X1361789Y1388615D01*
X1360948Y1390144D01*
X1360144Y1391694D01*
X1359378Y1393262D01*
X1358651Y1394849D01*
X1357964Y1396454D01*
X1357316Y1398074D01*
X1356707Y1399710D01*
X1356140Y1401361D01*
X1355612Y1403025D01*
X1355126Y1404701D01*
X1354681Y1406389D01*
X1354278Y1408088D01*
X1353917Y1409795D01*
X1353597Y1411511D01*
X1353320Y1413235D01*
X1353085Y1414964D01*
X1352892Y1416699D01*
X1352743Y1418438D01*
X1352636Y1420180D01*
X1352571Y1421925D01*
X1352550Y1423670D01*
X96520Y2555240D02*
X0Y2651760D01*
X96520Y2555240D02*
X96520Y294640D01*
X0Y198120D01*
X2369820Y2329180D02*
X2369820Y2532380D01*
X2369820Y2329180D02*
X2547620Y2329180D01*
X2547620Y2473960D01*
X2710180Y2532380D02*
X2369820Y2532380D01*
X2547620Y2473960D02*
X2710180Y2473960D01*
X2710180Y2532380D01*
X2418842Y331470D02*
X2418850Y332093D01*
X2418873Y332716D01*
X2418911Y333339D01*
X2418964Y333960D01*
X2419033Y334579D01*
X2419117Y335197D01*
X2419216Y335812D01*
X2419330Y336425D01*
X2419459Y337035D01*
X2419603Y337642D01*
X2419762Y338245D01*
X2419936Y338843D01*
X2420124Y339438D01*
X2420327Y340027D01*
X2420544Y340611D01*
X2420775Y341190D01*
X2421021Y341763D01*
X2421281Y342330D01*
X2421554Y342890D01*
X2421841Y343443D01*
X2422142Y343990D01*
X2422456Y344528D01*
X2422783Y345059D01*
X2423123Y345581D01*
X2423475Y346096D01*
X2423841Y346601D01*
X2424218Y347097D01*
X2424608Y347584D01*
X2425009Y348061D01*
X2425422Y348528D01*
X2425846Y348984D01*
X2426281Y349431D01*
X2426728Y349866D01*
X2427184Y350290D01*
X2427651Y350703D01*
X2428128Y351104D01*
X2428615Y351494D01*
X2429111Y351871D01*
X2429616Y352237D01*
X2430131Y352589D01*
X2430653Y352929D01*
X2431184Y353256D01*
X2431722Y353570D01*
X2432269Y353871D01*
X2432822Y354158D01*
X2433382Y354431D01*
X2433949Y354691D01*
X2434522Y354937D01*
X2435101Y355168D01*
X2435685Y355385D01*
X2436274Y355588D01*
X2436869Y355776D01*
X2437467Y355950D01*
X2438070Y356109D01*
X2438677Y356253D01*
X2439287Y356382D01*
X2439900Y356496D01*
X2440515Y356595D01*
X2441133Y356679D01*
X2441752Y356748D01*
X2442373Y356801D01*
X2442996Y356839D01*
X2443619Y356862D01*
X2444242Y356870D01*
X2444865Y356862D01*
X2445488Y356839D01*
X2446111Y356801D01*
X2446732Y356748D01*
X2447351Y356679D01*
X2447969Y356595D01*
X2448584Y356496D01*
X2449197Y356382D01*
X2449807Y356253D01*
X2450414Y356109D01*
X2451017Y355950D01*
X2451615Y355776D01*
X2452210Y355588D01*
X2452799Y355385D01*
X2453383Y355168D01*
X2453962Y354937D01*
X2454535Y354691D01*
X2455102Y354431D01*
X2455662Y354158D01*
X2456215Y353871D01*
X2456762Y353570D01*
X2457300Y353256D01*
X2457831Y352929D01*
X2458353Y352589D01*
X2458868Y352237D01*
X2459373Y351871D01*
X2459869Y351494D01*
X2460356Y351104D01*
X2460833Y350703D01*
X2461300Y350290D01*
X2461756Y349866D01*
X2462203Y349431D01*
X2462638Y348984D01*
X2463062Y348528D01*
X2463475Y348061D01*
X2463876Y347584D01*
X2464266Y347097D01*
X2464643Y346601D01*
X2465009Y346096D01*
X2465361Y345581D01*
X2465701Y345059D01*
X2466028Y344528D01*
X2466342Y343990D01*
X2466643Y343443D01*
X2466930Y342890D01*
X2467203Y342330D01*
X2467463Y341763D01*
X2467709Y341190D01*
X2467940Y340611D01*
X2468157Y340027D01*
X2468360Y339438D01*
X2468548Y338843D01*
X2468722Y338245D01*
X2468881Y337642D01*
X2469025Y337035D01*
X2469154Y336425D01*
X2469268Y335812D01*
X2469367Y335197D01*
X2469451Y334579D01*
X2469520Y333960D01*
X2469573Y333339D01*
X2469611Y332716D01*
X2469634Y332093D01*
X2469642Y331470D01*
X2469634Y330847D01*
X2469611Y330224D01*
X2469573Y329601D01*
X2469520Y328980D01*
X2469451Y328361D01*
X2469367Y327743D01*
X2469268Y327128D01*
X2469154Y326515D01*
X2469025Y325905D01*
X2468881Y325298D01*
X2468722Y324695D01*
X2468548Y324097D01*
X2468360Y323502D01*
X2468157Y322913D01*
X2467940Y322329D01*
X2467709Y321750D01*
X2467463Y321177D01*
X2467203Y320610D01*
X2466930Y320050D01*
X2466643Y319497D01*
X2466342Y318950D01*
X2466028Y318412D01*
X2465701Y317881D01*
X2465361Y317359D01*
X2465009Y316844D01*
X2464643Y316339D01*
X2464266Y315843D01*
X2463876Y315356D01*
X2463475Y314879D01*
X2463062Y314412D01*
X2462638Y313956D01*
X2462203Y313509D01*
X2461756Y313074D01*
X2461300Y312650D01*
X2460833Y312237D01*
X2460356Y311836D01*
X2459869Y311446D01*
X2459373Y311069D01*
X2458868Y310703D01*
X2458353Y310351D01*
X2457831Y310011D01*
X2457300Y309684D01*
X2456762Y309370D01*
X2456215Y309069D01*
X2455662Y308782D01*
X2455102Y308509D01*
X2454535Y308249D01*
X2453962Y308003D01*
X2453383Y307772D01*
X2452799Y307555D01*
X2452210Y307352D01*
X2451615Y307164D01*
X2451017Y306990D01*
X2450414Y306831D01*
X2449807Y306687D01*
X2449197Y306558D01*
X2448584Y306444D01*
X2447969Y306345D01*
X2447351Y306261D01*
X2446732Y306192D01*
X2446111Y306139D01*
X2445488Y306101D01*
X2444865Y306078D01*
X2444242Y306070D01*
X2443619Y306078D01*
X2442996Y306101D01*
X2442373Y306139D01*
X2441752Y306192D01*
X2441133Y306261D01*
X2440515Y306345D01*
X2439900Y306444D01*
X2439287Y306558D01*
X2438677Y306687D01*
X2438070Y306831D01*
X2437467Y306990D01*
X2436869Y307164D01*
X2436274Y307352D01*
X2435685Y307555D01*
X2435101Y307772D01*
X2434522Y308003D01*
X2433949Y308249D01*
X2433382Y308509D01*
X2432822Y308782D01*
X2432269Y309069D01*
X2431722Y309370D01*
X2431184Y309684D01*
X2430653Y310011D01*
X2430131Y310351D01*
X2429616Y310703D01*
X2429111Y311069D01*
X2428615Y311446D01*
X2428128Y311836D01*
X2427651Y312237D01*
X2427184Y312650D01*
X2426728Y313074D01*
X2426281Y313509D01*
X2425846Y313956D01*
X2425422Y314412D01*
X2425009Y314879D01*
X2424608Y315356D01*
X2424218Y315843D01*
X2423841Y316339D01*
X2423475Y316844D01*
X2423123Y317359D01*
X2422783Y317881D01*
X2422456Y318412D01*
X2422142Y318950D01*
X2421841Y319497D01*
X2421554Y320050D01*
X2421281Y320610D01*
X2421021Y321177D01*
X2420775Y321750D01*
X2420544Y322329D01*
X2420327Y322913D01*
X2420124Y323502D01*
X2419936Y324097D01*
X2419762Y324695D01*
X2419603Y325298D01*
X2419459Y325905D01*
X2419330Y326515D01*
X2419216Y327128D01*
X2419117Y327743D01*
X2419033Y328361D01*
X2418964Y328980D01*
X2418911Y329601D01*
X2418873Y330224D01*
X2418850Y330847D01*
X2418842Y331470D01*
X2557196Y435204D02*
X2557200Y435547D01*
X2557213Y435889D01*
X2557234Y436232D01*
X2557263Y436573D01*
X2557301Y436914D01*
X2557347Y437254D01*
X2557402Y437592D01*
X2557464Y437929D01*
X2557535Y438265D01*
X2557615Y438598D01*
X2557702Y438930D01*
X2557798Y439259D01*
X2557901Y439586D01*
X2558013Y439910D01*
X2558132Y440232D01*
X2558259Y440550D01*
X2558394Y440865D01*
X2558537Y441177D01*
X2558688Y441485D01*
X2558846Y441789D01*
X2559011Y442090D01*
X2559184Y442386D01*
X2559363Y442678D01*
X2559550Y442965D01*
X2559744Y443248D01*
X2559945Y443526D01*
X2560153Y443799D01*
X2560367Y444066D01*
X2560588Y444329D01*
X2560815Y444586D01*
X2561048Y444837D01*
X2561288Y445082D01*
X2561533Y445322D01*
X2561784Y445555D01*
X2562041Y445782D01*
X2562304Y446003D01*
X2562571Y446217D01*
X2562844Y446425D01*
X2563122Y446626D01*
X2563405Y446820D01*
X2563692Y447007D01*
X2563984Y447186D01*
X2564280Y447359D01*
X2564581Y447524D01*
X2564885Y447682D01*
X2565193Y447833D01*
X2565505Y447976D01*
X2565820Y448111D01*
X2566138Y448238D01*
X2566460Y448357D01*
X2566784Y448469D01*
X2567111Y448572D01*
X2567440Y448668D01*
X2567772Y448755D01*
X2568105Y448835D01*
X2568441Y448906D01*
X2568778Y448968D01*
X2569116Y449023D01*
X2569456Y449069D01*
X2569797Y449107D01*
X2570138Y449136D01*
X2570481Y449157D01*
X2570823Y449170D01*
X2571166Y449174D01*
X2571509Y449170D01*
X2571851Y449157D01*
X2572194Y449136D01*
X2572535Y449107D01*
X2572876Y449069D01*
X2573216Y449023D01*
X2573554Y448968D01*
X2573891Y448906D01*
X2574227Y448835D01*
X2574560Y448755D01*
X2574892Y448668D01*
X2575221Y448572D01*
X2575548Y448469D01*
X2575872Y448357D01*
X2576194Y448238D01*
X2576512Y448111D01*
X2576827Y447976D01*
X2577139Y447833D01*
X2577447Y447682D01*
X2577751Y447524D01*
X2578052Y447359D01*
X2578348Y447186D01*
X2578640Y447007D01*
X2578927Y446820D01*
X2579210Y446626D01*
X2579488Y446425D01*
X2579761Y446217D01*
X2580028Y446003D01*
X2580291Y445782D01*
X2580548Y445555D01*
X2580799Y445322D01*
X2581044Y445082D01*
X2581284Y444837D01*
X2581517Y444586D01*
X2581744Y444329D01*
X2581965Y444066D01*
X2582179Y443799D01*
X2582387Y443526D01*
X2582588Y443248D01*
X2582782Y442965D01*
X2582969Y442678D01*
X2583148Y442386D01*
X2583321Y442090D01*
X2583486Y441789D01*
X2583644Y441485D01*
X2583795Y441177D01*
X2583938Y440865D01*
X2584073Y440550D01*
X2584200Y440232D01*
X2584319Y439910D01*
X2584431Y439586D01*
X2584534Y439259D01*
X2584630Y438930D01*
X2584717Y438598D01*
X2584797Y438265D01*
X2584868Y437929D01*
X2584930Y437592D01*
X2584985Y437254D01*
X2585031Y436914D01*
X2585069Y436573D01*
X2585098Y436232D01*
X2585119Y435889D01*
X2585132Y435547D01*
X2585136Y435204D01*
X2585132Y434861D01*
X2585119Y434519D01*
X2585098Y434176D01*
X2585069Y433835D01*
X2585031Y433494D01*
X2584985Y433154D01*
X2584930Y432816D01*
X2584868Y432479D01*
X2584797Y432143D01*
X2584717Y431810D01*
X2584630Y431478D01*
X2584534Y431149D01*
X2584431Y430822D01*
X2584319Y430498D01*
X2584200Y430176D01*
X2584073Y429858D01*
X2583938Y429543D01*
X2583795Y429231D01*
X2583644Y428923D01*
X2583486Y428619D01*
X2583321Y428318D01*
X2583148Y428022D01*
X2582969Y427730D01*
X2582782Y427443D01*
X2582588Y427160D01*
X2582387Y426882D01*
X2582179Y426609D01*
X2581965Y426342D01*
X2581744Y426079D01*
X2581517Y425822D01*
X2581284Y425571D01*
X2581044Y425326D01*
X2580799Y425086D01*
X2580548Y424853D01*
X2580291Y424626D01*
X2580028Y424405D01*
X2579761Y424191D01*
X2579488Y423983D01*
X2579210Y423782D01*
X2578927Y423588D01*
X2578640Y423401D01*
X2578348Y423222D01*
X2578052Y423049D01*
X2577751Y422884D01*
X2577447Y422726D01*
X2577139Y422575D01*
X2576827Y422432D01*
X2576512Y422297D01*
X2576194Y422170D01*
X2575872Y422051D01*
X2575548Y421939D01*
X2575221Y421836D01*
X2574892Y421740D01*
X2574560Y421653D01*
X2574227Y421573D01*
X2573891Y421502D01*
X2573554Y421440D01*
X2573216Y421385D01*
X2572876Y421339D01*
X2572535Y421301D01*
X2572194Y421272D01*
X2571851Y421251D01*
X2571509Y421238D01*
X2571166Y421234D01*
X2570823Y421238D01*
X2570481Y421251D01*
X2570138Y421272D01*
X2569797Y421301D01*
X2569456Y421339D01*
X2569116Y421385D01*
X2568778Y421440D01*
X2568441Y421502D01*
X2568105Y421573D01*
X2567772Y421653D01*
X2567440Y421740D01*
X2567111Y421836D01*
X2566784Y421939D01*
X2566460Y422051D01*
X2566138Y422170D01*
X2565820Y422297D01*
X2565505Y422432D01*
X2565193Y422575D01*
X2564885Y422726D01*
X2564581Y422884D01*
X2564280Y423049D01*
X2563984Y423222D01*
X2563692Y423401D01*
X2563405Y423588D01*
X2563122Y423782D01*
X2562844Y423983D01*
X2562571Y424191D01*
X2562304Y424405D01*
X2562041Y424626D01*
X2561784Y424853D01*
X2561533Y425086D01*
X2561288Y425326D01*
X2561048Y425571D01*
X2560815Y425822D01*
X2560588Y426079D01*
X2560367Y426342D01*
X2560153Y426609D01*
X2559945Y426882D01*
X2559744Y427160D01*
X2559550Y427443D01*
X2559363Y427730D01*
X2559184Y428022D01*
X2559011Y428318D01*
X2558846Y428619D01*
X2558688Y428923D01*
X2558537Y429231D01*
X2558394Y429543D01*
X2558259Y429858D01*
X2558132Y430176D01*
X2558013Y430498D01*
X2557901Y430822D01*
X2557798Y431149D01*
X2557702Y431478D01*
X2557615Y431810D01*
X2557535Y432143D01*
X2557464Y432479D01*
X2557402Y432816D01*
X2557347Y433154D01*
X2557301Y433494D01*
X2557263Y433835D01*
X2557234Y434176D01*
X2557213Y434519D01*
X2557200Y434861D01*
X2557196Y435204D01*
X1643788Y2814752D02*
X1643793Y2815145D01*
X1643807Y2815537D01*
X1643831Y2815929D01*
X1643865Y2816320D01*
X1643908Y2816711D01*
X1643961Y2817100D01*
X1644024Y2817487D01*
X1644095Y2817873D01*
X1644177Y2818258D01*
X1644267Y2818640D01*
X1644368Y2819019D01*
X1644477Y2819397D01*
X1644596Y2819771D01*
X1644723Y2820142D01*
X1644860Y2820510D01*
X1645006Y2820875D01*
X1645161Y2821236D01*
X1645324Y2821593D01*
X1645496Y2821946D01*
X1645677Y2822294D01*
X1645867Y2822638D01*
X1646064Y2822978D01*
X1646270Y2823312D01*
X1646484Y2823641D01*
X1646707Y2823965D01*
X1646937Y2824283D01*
X1647174Y2824596D01*
X1647420Y2824902D01*
X1647673Y2825203D01*
X1647933Y2825497D01*
X1648200Y2825785D01*
X1648474Y2826066D01*
X1648755Y2826340D01*
X1649043Y2826607D01*
X1649337Y2826867D01*
X1649638Y2827120D01*
X1649944Y2827366D01*
X1650257Y2827603D01*
X1650575Y2827833D01*
X1650899Y2828056D01*
X1651228Y2828270D01*
X1651562Y2828476D01*
X1651902Y2828673D01*
X1652246Y2828863D01*
X1652594Y2829044D01*
X1652947Y2829216D01*
X1653304Y2829379D01*
X1653665Y2829534D01*
X1654030Y2829680D01*
X1654398Y2829817D01*
X1654769Y2829944D01*
X1655143Y2830063D01*
X1655521Y2830172D01*
X1655900Y2830273D01*
X1656282Y2830363D01*
X1656667Y2830445D01*
X1657053Y2830516D01*
X1657440Y2830579D01*
X1657829Y2830632D01*
X1658220Y2830675D01*
X1658611Y2830709D01*
X1659003Y2830733D01*
X1659395Y2830747D01*
X1659788Y2830752D01*
X1660181Y2830747D01*
X1660573Y2830733D01*
X1660965Y2830709D01*
X1661356Y2830675D01*
X1661747Y2830632D01*
X1662136Y2830579D01*
X1662523Y2830516D01*
X1662909Y2830445D01*
X1663294Y2830363D01*
X1663676Y2830273D01*
X1664055Y2830172D01*
X1664433Y2830063D01*
X1664807Y2829944D01*
X1665178Y2829817D01*
X1665546Y2829680D01*
X1665911Y2829534D01*
X1666272Y2829379D01*
X1666629Y2829216D01*
X1666982Y2829044D01*
X1667330Y2828863D01*
X1667674Y2828673D01*
X1668014Y2828476D01*
X1668348Y2828270D01*
X1668677Y2828056D01*
X1669001Y2827833D01*
X1669319Y2827603D01*
X1669632Y2827366D01*
X1669938Y2827120D01*
X1670239Y2826867D01*
X1670533Y2826607D01*
X1670821Y2826340D01*
X1671102Y2826066D01*
X1671376Y2825785D01*
X1671643Y2825497D01*
X1671903Y2825203D01*
X1672156Y2824902D01*
X1672402Y2824596D01*
X1672639Y2824283D01*
X1672869Y2823965D01*
X1673092Y2823641D01*
X1673306Y2823312D01*
X1673512Y2822978D01*
X1673709Y2822638D01*
X1673899Y2822294D01*
X1674080Y2821946D01*
X1674252Y2821593D01*
X1674415Y2821236D01*
X1674570Y2820875D01*
X1674716Y2820510D01*
X1674853Y2820142D01*
X1674980Y2819771D01*
X1675099Y2819397D01*
X1675208Y2819019D01*
X1675309Y2818640D01*
X1675399Y2818258D01*
X1675481Y2817873D01*
X1675552Y2817487D01*
X1675615Y2817100D01*
X1675668Y2816711D01*
X1675711Y2816320D01*
X1675745Y2815929D01*
X1675769Y2815537D01*
X1675783Y2815145D01*
X1675788Y2814752D01*
X1675783Y2814359D01*
X1675769Y2813967D01*
X1675745Y2813575D01*
X1675711Y2813184D01*
X1675668Y2812793D01*
X1675615Y2812404D01*
X1675552Y2812017D01*
X1675481Y2811631D01*
X1675399Y2811246D01*
X1675309Y2810864D01*
X1675208Y2810485D01*
X1675099Y2810107D01*
X1674980Y2809733D01*
X1674853Y2809362D01*
X1674716Y2808994D01*
X1674570Y2808629D01*
X1674415Y2808268D01*
X1674252Y2807911D01*
X1674080Y2807558D01*
X1673899Y2807210D01*
X1673709Y2806866D01*
X1673512Y2806526D01*
X1673306Y2806192D01*
X1673092Y2805863D01*
X1672869Y2805539D01*
X1672639Y2805221D01*
X1672402Y2804908D01*
X1672156Y2804602D01*
X1671903Y2804301D01*
X1671643Y2804007D01*
X1671376Y2803719D01*
X1671102Y2803438D01*
X1670821Y2803164D01*
X1670533Y2802897D01*
X1670239Y2802637D01*
X1669938Y2802384D01*
X1669632Y2802138D01*
X1669319Y2801901D01*
X1669001Y2801671D01*
X1668677Y2801448D01*
X1668348Y2801234D01*
X1668014Y2801028D01*
X1667674Y2800831D01*
X1667330Y2800641D01*
X1666982Y2800460D01*
X1666629Y2800288D01*
X1666272Y2800125D01*
X1665911Y2799970D01*
X1665546Y2799824D01*
X1665178Y2799687D01*
X1664807Y2799560D01*
X1664433Y2799441D01*
X1664055Y2799332D01*
X1663676Y2799231D01*
X1663294Y2799141D01*
X1662909Y2799059D01*
X1662523Y2798988D01*
X1662136Y2798925D01*
X1661747Y2798872D01*
X1661356Y2798829D01*
X1660965Y2798795D01*
X1660573Y2798771D01*
X1660181Y2798757D01*
X1659788Y2798752D01*
X1659395Y2798757D01*
X1659003Y2798771D01*
X1658611Y2798795D01*
X1658220Y2798829D01*
X1657829Y2798872D01*
X1657440Y2798925D01*
X1657053Y2798988D01*
X1656667Y2799059D01*
X1656282Y2799141D01*
X1655900Y2799231D01*
X1655521Y2799332D01*
X1655143Y2799441D01*
X1654769Y2799560D01*
X1654398Y2799687D01*
X1654030Y2799824D01*
X1653665Y2799970D01*
X1653304Y2800125D01*
X1652947Y2800288D01*
X1652594Y2800460D01*
X1652246Y2800641D01*
X1651902Y2800831D01*
X1651562Y2801028D01*
X1651228Y2801234D01*
X1650899Y2801448D01*
X1650575Y2801671D01*
X1650257Y2801901D01*
X1649944Y2802138D01*
X1649638Y2802384D01*
X1649337Y2802637D01*
X1649043Y2802897D01*
X1648755Y2803164D01*
X1648474Y2803438D01*
X1648200Y2803719D01*
X1647933Y2804007D01*
X1647673Y2804301D01*
X1647420Y2804602D01*
X1647174Y2804908D01*
X1646937Y2805221D01*
X1646707Y2805539D01*
X1646484Y2805863D01*
X1646270Y2806192D01*
X1646064Y2806526D01*
X1645867Y2806866D01*
X1645677Y2807210D01*
X1645496Y2807558D01*
X1645324Y2807911D01*
X1645161Y2808268D01*
X1645006Y2808629D01*
X1644860Y2808994D01*
X1644723Y2809362D01*
X1644596Y2809733D01*
X1644477Y2810107D01*
X1644368Y2810485D01*
X1644267Y2810864D01*
X1644177Y2811246D01*
X1644095Y2811631D01*
X1644024Y2812017D01*
X1643961Y2812404D01*
X1643908Y2812793D01*
X1643865Y2813184D01*
X1643831Y2813575D01*
X1643807Y2813967D01*
X1643793Y2814359D01*
X1643788Y2814752D01*
X1529488Y2814752D02*
X1529493Y2815145D01*
X1529507Y2815537D01*
X1529531Y2815929D01*
X1529565Y2816320D01*
X1529608Y2816711D01*
X1529661Y2817100D01*
X1529724Y2817487D01*
X1529795Y2817873D01*
X1529877Y2818258D01*
X1529967Y2818640D01*
X1530068Y2819019D01*
X1530177Y2819397D01*
X1530296Y2819771D01*
X1530423Y2820142D01*
X1530560Y2820510D01*
X1530706Y2820875D01*
X1530861Y2821236D01*
X1531024Y2821593D01*
X1531196Y2821946D01*
X1531377Y2822294D01*
X1531567Y2822638D01*
X1531764Y2822978D01*
X1531970Y2823312D01*
X1532184Y2823641D01*
X1532407Y2823965D01*
X1532637Y2824283D01*
X1532874Y2824596D01*
X1533120Y2824902D01*
X1533373Y2825203D01*
X1533633Y2825497D01*
X1533900Y2825785D01*
X1534174Y2826066D01*
X1534455Y2826340D01*
X1534743Y2826607D01*
X1535037Y2826867D01*
X1535338Y2827120D01*
X1535644Y2827366D01*
X1535957Y2827603D01*
X1536275Y2827833D01*
X1536599Y2828056D01*
X1536928Y2828270D01*
X1537262Y2828476D01*
X1537602Y2828673D01*
X1537946Y2828863D01*
X1538294Y2829044D01*
X1538647Y2829216D01*
X1539004Y2829379D01*
X1539365Y2829534D01*
X1539730Y2829680D01*
X1540098Y2829817D01*
X1540469Y2829944D01*
X1540843Y2830063D01*
X1541221Y2830172D01*
X1541600Y2830273D01*
X1541982Y2830363D01*
X1542367Y2830445D01*
X1542753Y2830516D01*
X1543140Y2830579D01*
X1543529Y2830632D01*
X1543920Y2830675D01*
X1544311Y2830709D01*
X1544703Y2830733D01*
X1545095Y2830747D01*
X1545488Y2830752D01*
X1545881Y2830747D01*
X1546273Y2830733D01*
X1546665Y2830709D01*
X1547056Y2830675D01*
X1547447Y2830632D01*
X1547836Y2830579D01*
X1548223Y2830516D01*
X1548609Y2830445D01*
X1548994Y2830363D01*
X1549376Y2830273D01*
X1549755Y2830172D01*
X1550133Y2830063D01*
X1550507Y2829944D01*
X1550878Y2829817D01*
X1551246Y2829680D01*
X1551611Y2829534D01*
X1551972Y2829379D01*
X1552329Y2829216D01*
X1552682Y2829044D01*
X1553030Y2828863D01*
X1553374Y2828673D01*
X1553714Y2828476D01*
X1554048Y2828270D01*
X1554377Y2828056D01*
X1554701Y2827833D01*
X1555019Y2827603D01*
X1555332Y2827366D01*
X1555638Y2827120D01*
X1555939Y2826867D01*
X1556233Y2826607D01*
X1556521Y2826340D01*
X1556802Y2826066D01*
X1557076Y2825785D01*
X1557343Y2825497D01*
X1557603Y2825203D01*
X1557856Y2824902D01*
X1558102Y2824596D01*
X1558339Y2824283D01*
X1558569Y2823965D01*
X1558792Y2823641D01*
X1559006Y2823312D01*
X1559212Y2822978D01*
X1559409Y2822638D01*
X1559599Y2822294D01*
X1559780Y2821946D01*
X1559952Y2821593D01*
X1560115Y2821236D01*
X1560270Y2820875D01*
X1560416Y2820510D01*
X1560553Y2820142D01*
X1560680Y2819771D01*
X1560799Y2819397D01*
X1560908Y2819019D01*
X1561009Y2818640D01*
X1561099Y2818258D01*
X1561181Y2817873D01*
X1561252Y2817487D01*
X1561315Y2817100D01*
X1561368Y2816711D01*
X1561411Y2816320D01*
X1561445Y2815929D01*
X1561469Y2815537D01*
X1561483Y2815145D01*
X1561488Y2814752D01*
X1561483Y2814359D01*
X1561469Y2813967D01*
X1561445Y2813575D01*
X1561411Y2813184D01*
X1561368Y2812793D01*
X1561315Y2812404D01*
X1561252Y2812017D01*
X1561181Y2811631D01*
X1561099Y2811246D01*
X1561009Y2810864D01*
X1560908Y2810485D01*
X1560799Y2810107D01*
X1560680Y2809733D01*
X1560553Y2809362D01*
X1560416Y2808994D01*
X1560270Y2808629D01*
X1560115Y2808268D01*
X1559952Y2807911D01*
X1559780Y2807558D01*
X1559599Y2807210D01*
X1559409Y2806866D01*
X1559212Y2806526D01*
X1559006Y2806192D01*
X1558792Y2805863D01*
X1558569Y2805539D01*
X1558339Y2805221D01*
X1558102Y2804908D01*
X1557856Y2804602D01*
X1557603Y2804301D01*
X1557343Y2804007D01*
X1557076Y2803719D01*
X1556802Y2803438D01*
X1556521Y2803164D01*
X1556233Y2802897D01*
X1555939Y2802637D01*
X1555638Y2802384D01*
X1555332Y2802138D01*
X1555019Y2801901D01*
X1554701Y2801671D01*
X1554377Y2801448D01*
X1554048Y2801234D01*
X1553714Y2801028D01*
X1553374Y2800831D01*
X1553030Y2800641D01*
X1552682Y2800460D01*
X1552329Y2800288D01*
X1551972Y2800125D01*
X1551611Y2799970D01*
X1551246Y2799824D01*
X1550878Y2799687D01*
X1550507Y2799560D01*
X1550133Y2799441D01*
X1549755Y2799332D01*
X1549376Y2799231D01*
X1548994Y2799141D01*
X1548609Y2799059D01*
X1548223Y2798988D01*
X1547836Y2798925D01*
X1547447Y2798872D01*
X1547056Y2798829D01*
X1546665Y2798795D01*
X1546273Y2798771D01*
X1545881Y2798757D01*
X1545488Y2798752D01*
X1545095Y2798757D01*
X1544703Y2798771D01*
X1544311Y2798795D01*
X1543920Y2798829D01*
X1543529Y2798872D01*
X1543140Y2798925D01*
X1542753Y2798988D01*
X1542367Y2799059D01*
X1541982Y2799141D01*
X1541600Y2799231D01*
X1541221Y2799332D01*
X1540843Y2799441D01*
X1540469Y2799560D01*
X1540098Y2799687D01*
X1539730Y2799824D01*
X1539365Y2799970D01*
X1539004Y2800125D01*
X1538647Y2800288D01*
X1538294Y2800460D01*
X1537946Y2800641D01*
X1537602Y2800831D01*
X1537262Y2801028D01*
X1536928Y2801234D01*
X1536599Y2801448D01*
X1536275Y2801671D01*
X1535957Y2801901D01*
X1535644Y2802138D01*
X1535338Y2802384D01*
X1535037Y2802637D01*
X1534743Y2802897D01*
X1534455Y2803164D01*
X1534174Y2803438D01*
X1533900Y2803719D01*
X1533633Y2804007D01*
X1533373Y2804301D01*
X1533120Y2804602D01*
X1532874Y2804908D01*
X1532637Y2805221D01*
X1532407Y2805539D01*
X1532184Y2805863D01*
X1531970Y2806192D01*
X1531764Y2806526D01*
X1531567Y2806866D01*
X1531377Y2807210D01*
X1531196Y2807558D01*
X1531024Y2807911D01*
X1530861Y2808268D01*
X1530706Y2808629D01*
X1530560Y2808994D01*
X1530423Y2809362D01*
X1530296Y2809733D01*
X1530177Y2810107D01*
X1530068Y2810485D01*
X1529967Y2810864D01*
X1529877Y2811246D01*
X1529795Y2811631D01*
X1529724Y2812017D01*
X1529661Y2812404D01*
X1529608Y2812793D01*
X1529565Y2813184D01*
X1529531Y2813575D01*
X1529507Y2813967D01*
X1529493Y2814359D01*
X1529488Y2814752D01*
X1854608Y2814752D02*
X1854613Y2815145D01*
X1854627Y2815537D01*
X1854651Y2815929D01*
X1854685Y2816320D01*
X1854728Y2816711D01*
X1854781Y2817100D01*
X1854844Y2817487D01*
X1854915Y2817873D01*
X1854997Y2818258D01*
X1855087Y2818640D01*
X1855188Y2819019D01*
X1855297Y2819397D01*
X1855416Y2819771D01*
X1855543Y2820142D01*
X1855680Y2820510D01*
X1855826Y2820875D01*
X1855981Y2821236D01*
X1856144Y2821593D01*
X1856316Y2821946D01*
X1856497Y2822294D01*
X1856687Y2822638D01*
X1856884Y2822978D01*
X1857090Y2823312D01*
X1857304Y2823641D01*
X1857527Y2823965D01*
X1857757Y2824283D01*
X1857994Y2824596D01*
X1858240Y2824902D01*
X1858493Y2825203D01*
X1858753Y2825497D01*
X1859020Y2825785D01*
X1859294Y2826066D01*
X1859575Y2826340D01*
X1859863Y2826607D01*
X1860157Y2826867D01*
X1860458Y2827120D01*
X1860764Y2827366D01*
X1861077Y2827603D01*
X1861395Y2827833D01*
X1861719Y2828056D01*
X1862048Y2828270D01*
X1862382Y2828476D01*
X1862722Y2828673D01*
X1863066Y2828863D01*
X1863414Y2829044D01*
X1863767Y2829216D01*
X1864124Y2829379D01*
X1864485Y2829534D01*
X1864850Y2829680D01*
X1865218Y2829817D01*
X1865589Y2829944D01*
X1865963Y2830063D01*
X1866341Y2830172D01*
X1866720Y2830273D01*
X1867102Y2830363D01*
X1867487Y2830445D01*
X1867873Y2830516D01*
X1868260Y2830579D01*
X1868649Y2830632D01*
X1869040Y2830675D01*
X1869431Y2830709D01*
X1869823Y2830733D01*
X1870215Y2830747D01*
X1870608Y2830752D01*
X1871001Y2830747D01*
X1871393Y2830733D01*
X1871785Y2830709D01*
X1872176Y2830675D01*
X1872567Y2830632D01*
X1872956Y2830579D01*
X1873343Y2830516D01*
X1873729Y2830445D01*
X1874114Y2830363D01*
X1874496Y2830273D01*
X1874875Y2830172D01*
X1875253Y2830063D01*
X1875627Y2829944D01*
X1875998Y2829817D01*
X1876366Y2829680D01*
X1876731Y2829534D01*
X1877092Y2829379D01*
X1877449Y2829216D01*
X1877802Y2829044D01*
X1878150Y2828863D01*
X1878494Y2828673D01*
X1878834Y2828476D01*
X1879168Y2828270D01*
X1879497Y2828056D01*
X1879821Y2827833D01*
X1880139Y2827603D01*
X1880452Y2827366D01*
X1880758Y2827120D01*
X1881059Y2826867D01*
X1881353Y2826607D01*
X1881641Y2826340D01*
X1881922Y2826066D01*
X1882196Y2825785D01*
X1882463Y2825497D01*
X1882723Y2825203D01*
X1882976Y2824902D01*
X1883222Y2824596D01*
X1883459Y2824283D01*
X1883689Y2823965D01*
X1883912Y2823641D01*
X1884126Y2823312D01*
X1884332Y2822978D01*
X1884529Y2822638D01*
X1884719Y2822294D01*
X1884900Y2821946D01*
X1885072Y2821593D01*
X1885235Y2821236D01*
X1885390Y2820875D01*
X1885536Y2820510D01*
X1885673Y2820142D01*
X1885800Y2819771D01*
X1885919Y2819397D01*
X1886028Y2819019D01*
X1886129Y2818640D01*
X1886219Y2818258D01*
X1886301Y2817873D01*
X1886372Y2817487D01*
X1886435Y2817100D01*
X1886488Y2816711D01*
X1886531Y2816320D01*
X1886565Y2815929D01*
X1886589Y2815537D01*
X1886603Y2815145D01*
X1886608Y2814752D01*
X1886603Y2814359D01*
X1886589Y2813967D01*
X1886565Y2813575D01*
X1886531Y2813184D01*
X1886488Y2812793D01*
X1886435Y2812404D01*
X1886372Y2812017D01*
X1886301Y2811631D01*
X1886219Y2811246D01*
X1886129Y2810864D01*
X1886028Y2810485D01*
X1885919Y2810107D01*
X1885800Y2809733D01*
X1885673Y2809362D01*
X1885536Y2808994D01*
X1885390Y2808629D01*
X1885235Y2808268D01*
X1885072Y2807911D01*
X1884900Y2807558D01*
X1884719Y2807210D01*
X1884529Y2806866D01*
X1884332Y2806526D01*
X1884126Y2806192D01*
X1883912Y2805863D01*
X1883689Y2805539D01*
X1883459Y2805221D01*
X1883222Y2804908D01*
X1882976Y2804602D01*
X1882723Y2804301D01*
X1882463Y2804007D01*
X1882196Y2803719D01*
X1881922Y2803438D01*
X1881641Y2803164D01*
X1881353Y2802897D01*
X1881059Y2802637D01*
X1880758Y2802384D01*
X1880452Y2802138D01*
X1880139Y2801901D01*
X1879821Y2801671D01*
X1879497Y2801448D01*
X1879168Y2801234D01*
X1878834Y2801028D01*
X1878494Y2800831D01*
X1878150Y2800641D01*
X1877802Y2800460D01*
X1877449Y2800288D01*
X1877092Y2800125D01*
X1876731Y2799970D01*
X1876366Y2799824D01*
X1875998Y2799687D01*
X1875627Y2799560D01*
X1875253Y2799441D01*
X1874875Y2799332D01*
X1874496Y2799231D01*
X1874114Y2799141D01*
X1873729Y2799059D01*
X1873343Y2798988D01*
X1872956Y2798925D01*
X1872567Y2798872D01*
X1872176Y2798829D01*
X1871785Y2798795D01*
X1871393Y2798771D01*
X1871001Y2798757D01*
X1870608Y2798752D01*
X1870215Y2798757D01*
X1869823Y2798771D01*
X1869431Y2798795D01*
X1869040Y2798829D01*
X1868649Y2798872D01*
X1868260Y2798925D01*
X1867873Y2798988D01*
X1867487Y2799059D01*
X1867102Y2799141D01*
X1866720Y2799231D01*
X1866341Y2799332D01*
X1865963Y2799441D01*
X1865589Y2799560D01*
X1865218Y2799687D01*
X1864850Y2799824D01*
X1864485Y2799970D01*
X1864124Y2800125D01*
X1863767Y2800288D01*
X1863414Y2800460D01*
X1863066Y2800641D01*
X1862722Y2800831D01*
X1862382Y2801028D01*
X1862048Y2801234D01*
X1861719Y2801448D01*
X1861395Y2801671D01*
X1861077Y2801901D01*
X1860764Y2802138D01*
X1860458Y2802384D01*
X1860157Y2802637D01*
X1859863Y2802897D01*
X1859575Y2803164D01*
X1859294Y2803438D01*
X1859020Y2803719D01*
X1858753Y2804007D01*
X1858493Y2804301D01*
X1858240Y2804602D01*
X1857994Y2804908D01*
X1857757Y2805221D01*
X1857527Y2805539D01*
X1857304Y2805863D01*
X1857090Y2806192D01*
X1856884Y2806526D01*
X1856687Y2806866D01*
X1856497Y2807210D01*
X1856316Y2807558D01*
X1856144Y2807911D01*
X1855981Y2808268D01*
X1855826Y2808629D01*
X1855680Y2808994D01*
X1855543Y2809362D01*
X1855416Y2809733D01*
X1855297Y2810107D01*
X1855188Y2810485D01*
X1855087Y2810864D01*
X1854997Y2811246D01*
X1854915Y2811631D01*
X1854844Y2812017D01*
X1854781Y2812404D01*
X1854728Y2812793D01*
X1854685Y2813184D01*
X1854651Y2813575D01*
X1854627Y2813967D01*
X1854613Y2814359D01*
X1854608Y2814752D01*
X1740308Y2814752D02*
X1740313Y2815145D01*
X1740327Y2815537D01*
X1740351Y2815929D01*
X1740385Y2816320D01*
X1740428Y2816711D01*
X1740481Y2817100D01*
X1740544Y2817487D01*
X1740615Y2817873D01*
X1740697Y2818258D01*
X1740787Y2818640D01*
X1740888Y2819019D01*
X1740997Y2819397D01*
X1741116Y2819771D01*
X1741243Y2820142D01*
X1741380Y2820510D01*
X1741526Y2820875D01*
X1741681Y2821236D01*
X1741844Y2821593D01*
X1742016Y2821946D01*
X1742197Y2822294D01*
X1742387Y2822638D01*
X1742584Y2822978D01*
X1742790Y2823312D01*
X1743004Y2823641D01*
X1743227Y2823965D01*
X1743457Y2824283D01*
X1743694Y2824596D01*
X1743940Y2824902D01*
X1744193Y2825203D01*
X1744453Y2825497D01*
X1744720Y2825785D01*
X1744994Y2826066D01*
X1745275Y2826340D01*
X1745563Y2826607D01*
X1745857Y2826867D01*
X1746158Y2827120D01*
X1746464Y2827366D01*
X1746777Y2827603D01*
X1747095Y2827833D01*
X1747419Y2828056D01*
X1747748Y2828270D01*
X1748082Y2828476D01*
X1748422Y2828673D01*
X1748766Y2828863D01*
X1749114Y2829044D01*
X1749467Y2829216D01*
X1749824Y2829379D01*
X1750185Y2829534D01*
X1750550Y2829680D01*
X1750918Y2829817D01*
X1751289Y2829944D01*
X1751663Y2830063D01*
X1752041Y2830172D01*
X1752420Y2830273D01*
X1752802Y2830363D01*
X1753187Y2830445D01*
X1753573Y2830516D01*
X1753960Y2830579D01*
X1754349Y2830632D01*
X1754740Y2830675D01*
X1755131Y2830709D01*
X1755523Y2830733D01*
X1755915Y2830747D01*
X1756308Y2830752D01*
X1756701Y2830747D01*
X1757093Y2830733D01*
X1757485Y2830709D01*
X1757876Y2830675D01*
X1758267Y2830632D01*
X1758656Y2830579D01*
X1759043Y2830516D01*
X1759429Y2830445D01*
X1759814Y2830363D01*
X1760196Y2830273D01*
X1760575Y2830172D01*
X1760953Y2830063D01*
X1761327Y2829944D01*
X1761698Y2829817D01*
X1762066Y2829680D01*
X1762431Y2829534D01*
X1762792Y2829379D01*
X1763149Y2829216D01*
X1763502Y2829044D01*
X1763850Y2828863D01*
X1764194Y2828673D01*
X1764534Y2828476D01*
X1764868Y2828270D01*
X1765197Y2828056D01*
X1765521Y2827833D01*
X1765839Y2827603D01*
X1766152Y2827366D01*
X1766458Y2827120D01*
X1766759Y2826867D01*
X1767053Y2826607D01*
X1767341Y2826340D01*
X1767622Y2826066D01*
X1767896Y2825785D01*
X1768163Y2825497D01*
X1768423Y2825203D01*
X1768676Y2824902D01*
X1768922Y2824596D01*
X1769159Y2824283D01*
X1769389Y2823965D01*
X1769612Y2823641D01*
X1769826Y2823312D01*
X1770032Y2822978D01*
X1770229Y2822638D01*
X1770419Y2822294D01*
X1770600Y2821946D01*
X1770772Y2821593D01*
X1770935Y2821236D01*
X1771090Y2820875D01*
X1771236Y2820510D01*
X1771373Y2820142D01*
X1771500Y2819771D01*
X1771619Y2819397D01*
X1771728Y2819019D01*
X1771829Y2818640D01*
X1771919Y2818258D01*
X1772001Y2817873D01*
X1772072Y2817487D01*
X1772135Y2817100D01*
X1772188Y2816711D01*
X1772231Y2816320D01*
X1772265Y2815929D01*
X1772289Y2815537D01*
X1772303Y2815145D01*
X1772308Y2814752D01*
X1772303Y2814359D01*
X1772289Y2813967D01*
X1772265Y2813575D01*
X1772231Y2813184D01*
X1772188Y2812793D01*
X1772135Y2812404D01*
X1772072Y2812017D01*
X1772001Y2811631D01*
X1771919Y2811246D01*
X1771829Y2810864D01*
X1771728Y2810485D01*
X1771619Y2810107D01*
X1771500Y2809733D01*
X1771373Y2809362D01*
X1771236Y2808994D01*
X1771090Y2808629D01*
X1770935Y2808268D01*
X1770772Y2807911D01*
X1770600Y2807558D01*
X1770419Y2807210D01*
X1770229Y2806866D01*
X1770032Y2806526D01*
X1769826Y2806192D01*
X1769612Y2805863D01*
X1769389Y2805539D01*
X1769159Y2805221D01*
X1768922Y2804908D01*
X1768676Y2804602D01*
X1768423Y2804301D01*
X1768163Y2804007D01*
X1767896Y2803719D01*
X1767622Y2803438D01*
X1767341Y2803164D01*
X1767053Y2802897D01*
X1766759Y2802637D01*
X1766458Y2802384D01*
X1766152Y2802138D01*
X1765839Y2801901D01*
X1765521Y2801671D01*
X1765197Y2801448D01*
X1764868Y2801234D01*
X1764534Y2801028D01*
X1764194Y2800831D01*
X1763850Y2800641D01*
X1763502Y2800460D01*
X1763149Y2800288D01*
X1762792Y2800125D01*
X1762431Y2799970D01*
X1762066Y2799824D01*
X1761698Y2799687D01*
X1761327Y2799560D01*
X1760953Y2799441D01*
X1760575Y2799332D01*
X1760196Y2799231D01*
X1759814Y2799141D01*
X1759429Y2799059D01*
X1759043Y2798988D01*
X1758656Y2798925D01*
X1758267Y2798872D01*
X1757876Y2798829D01*
X1757485Y2798795D01*
X1757093Y2798771D01*
X1756701Y2798757D01*
X1756308Y2798752D01*
X1755915Y2798757D01*
X1755523Y2798771D01*
X1755131Y2798795D01*
X1754740Y2798829D01*
X1754349Y2798872D01*
X1753960Y2798925D01*
X1753573Y2798988D01*
X1753187Y2799059D01*
X1752802Y2799141D01*
X1752420Y2799231D01*
X1752041Y2799332D01*
X1751663Y2799441D01*
X1751289Y2799560D01*
X1750918Y2799687D01*
X1750550Y2799824D01*
X1750185Y2799970D01*
X1749824Y2800125D01*
X1749467Y2800288D01*
X1749114Y2800460D01*
X1748766Y2800641D01*
X1748422Y2800831D01*
X1748082Y2801028D01*
X1747748Y2801234D01*
X1747419Y2801448D01*
X1747095Y2801671D01*
X1746777Y2801901D01*
X1746464Y2802138D01*
X1746158Y2802384D01*
X1745857Y2802637D01*
X1745563Y2802897D01*
X1745275Y2803164D01*
X1744994Y2803438D01*
X1744720Y2803719D01*
X1744453Y2804007D01*
X1744193Y2804301D01*
X1743940Y2804602D01*
X1743694Y2804908D01*
X1743457Y2805221D01*
X1743227Y2805539D01*
X1743004Y2805863D01*
X1742790Y2806192D01*
X1742584Y2806526D01*
X1742387Y2806866D01*
X1742197Y2807210D01*
X1742016Y2807558D01*
X1741844Y2807911D01*
X1741681Y2808268D01*
X1741526Y2808629D01*
X1741380Y2808994D01*
X1741243Y2809362D01*
X1741116Y2809733D01*
X1740997Y2810107D01*
X1740888Y2810485D01*
X1740787Y2810864D01*
X1740697Y2811246D01*
X1740615Y2811631D01*
X1740544Y2812017D01*
X1740481Y2812404D01*
X1740428Y2812793D01*
X1740385Y2813184D01*
X1740351Y2813575D01*
X1740327Y2813967D01*
X1740313Y2814359D01*
X1740308Y2814752D01*
M02*
