G04 EAGLE Gerber X2 export*
%TF.Part,Single*%
%TF.FileFunction,Soldermask,Bot,1*%
%TF.FilePolarity,Negative*%
%TF.GenerationSoftware,Autodesk,EAGLE,9.0.1*%
%TF.CreationDate,2018-05-30T15:00:16Z*%
G75*
%MOMM*%
%FSLAX34Y34*%
%LPD*%
%AMOC8*
5,1,8,0,0,1.08239X$1,22.5*%
G01*
%ADD10C,3.378200*%
%ADD11C,14.427200*%
%ADD12C,5.283200*%
%ADD13C,2.743200*%
%ADD14C,2.997200*%
%ADD15R,1.711200X1.711200*%
%ADD16C,1.711200*%
%ADD17C,3.403200*%
%ADD18C,1.953200*%
%ADD19C,1.727200*%
%ADD20P,3.656530X8X22.500000*%
%ADD21R,3.503200X0.703200*%
%ADD22R,3.503200X1.503200*%
%ADD23R,0.703200X0.653200*%
%ADD24P,4.343848X8X22.500000*%
%ADD25P,4.343848X8X202.500000*%


D10*
X1144270Y574802D03*
X1703070Y574802D03*
X2068576Y865124D03*
X2068576Y1423924D03*
X2068576Y1982724D03*
X1703070Y2272792D03*
X1144270Y2272792D03*
X778764Y1982724D03*
X778764Y1423924D03*
X778764Y865124D03*
D11*
X1423670Y1423670D03*
D12*
X2444242Y331470D03*
D13*
X2647366Y422504D02*
X2647366Y447904D01*
X2494966Y447904D02*
X2494966Y422504D01*
D14*
X2571166Y435204D03*
D15*
X1647088Y2751252D03*
D16*
X1634388Y2725852D03*
X1621688Y2751252D03*
X1608988Y2725852D03*
X1596288Y2751252D03*
X1583588Y2725852D03*
X1570888Y2751252D03*
X1558188Y2725852D03*
D17*
X1659788Y2814752D03*
X1545488Y2814752D03*
D15*
X1857908Y2751252D03*
D16*
X1845208Y2725852D03*
X1832508Y2751252D03*
X1819808Y2725852D03*
X1807108Y2751252D03*
X1794408Y2725852D03*
X1781708Y2751252D03*
X1769008Y2725852D03*
D17*
X1870608Y2814752D03*
X1756308Y2814752D03*
D18*
X509606Y2716444D03*
X484206Y2716444D03*
X458806Y2716444D03*
D19*
X599262Y1462430D02*
X614502Y1462430D01*
X614502Y1437030D02*
X599262Y1437030D01*
X599262Y1411630D02*
X614502Y1411630D01*
X614502Y1386230D02*
X599262Y1386230D01*
X599262Y1360830D02*
X614502Y1360830D01*
X614502Y1335430D02*
X599262Y1335430D01*
X337602Y1462430D02*
X322362Y1462430D01*
X322362Y1335430D02*
X337602Y1335430D01*
D16*
X2439924Y1476756D03*
X2439924Y1502156D03*
X2439924Y1527556D03*
X2439924Y1552956D03*
X2262124Y1552956D03*
X2262124Y1476756D03*
D20*
X2185924Y1470406D03*
X2185924Y1559306D03*
D16*
X2439924Y1311656D03*
X2439924Y1337056D03*
X2439924Y1362456D03*
X2439924Y1387856D03*
X2262124Y1387856D03*
X2262124Y1311656D03*
D20*
X2185924Y1305306D03*
X2185924Y1394206D03*
D16*
X2439924Y1146556D03*
X2439924Y1171956D03*
X2439924Y1197356D03*
X2439924Y1222756D03*
X2262124Y1222756D03*
X2262124Y1146556D03*
D20*
X2185924Y1140206D03*
X2185924Y1229106D03*
D16*
X2439924Y981456D03*
X2439924Y1006856D03*
X2439924Y1032256D03*
X2439924Y1057656D03*
X2262124Y1057656D03*
X2262124Y981456D03*
D20*
X2185924Y975106D03*
X2185924Y1064006D03*
D16*
X2439924Y816356D03*
X2439924Y841756D03*
X2439924Y867156D03*
X2439924Y892556D03*
X2262124Y892556D03*
X2262124Y816356D03*
D20*
X2185924Y810006D03*
X2185924Y898906D03*
D16*
X2439924Y651256D03*
X2439924Y676656D03*
X2439924Y702056D03*
X2439924Y727456D03*
X2262124Y727456D03*
X2262124Y651256D03*
D20*
X2185924Y644906D03*
X2185924Y733806D03*
D21*
X1283970Y1549624D03*
D22*
X1283970Y1563624D03*
D23*
X1283970Y1546374D03*
D21*
X1283970Y1577624D03*
D23*
X1283970Y1580874D03*
D21*
X1563370Y1549624D03*
D22*
X1563370Y1563624D03*
D23*
X1563370Y1546374D03*
D21*
X1563370Y1577624D03*
D23*
X1563370Y1580874D03*
D21*
X1283970Y711424D03*
D22*
X1283970Y725424D03*
D23*
X1283970Y708174D03*
D21*
X1283970Y739424D03*
D23*
X1283970Y742674D03*
D21*
X1004570Y2108424D03*
D22*
X1004570Y2122424D03*
D23*
X1004570Y2105174D03*
D21*
X1004570Y2136424D03*
D23*
X1004570Y2139674D03*
D21*
X1842770Y1549624D03*
D22*
X1842770Y1563624D03*
D23*
X1842770Y1546374D03*
D21*
X1842770Y1577624D03*
D23*
X1842770Y1580874D03*
D21*
X1563370Y990824D03*
D22*
X1563370Y1004824D03*
D23*
X1563370Y987574D03*
D21*
X1563370Y1018824D03*
D23*
X1563370Y1022074D03*
D21*
X1283970Y2108424D03*
D22*
X1283970Y2122424D03*
D23*
X1283970Y2105174D03*
D21*
X1283970Y2136424D03*
D23*
X1283970Y2139674D03*
D21*
X1004570Y711424D03*
D22*
X1004570Y725424D03*
D23*
X1004570Y708174D03*
D21*
X1004570Y739424D03*
D23*
X1004570Y742674D03*
D21*
X1842770Y711424D03*
D22*
X1842770Y725424D03*
D23*
X1842770Y708174D03*
D21*
X1842770Y739424D03*
D23*
X1842770Y742674D03*
D21*
X1563370Y1829024D03*
D22*
X1563370Y1843024D03*
D23*
X1563370Y1825774D03*
D21*
X1563370Y1857024D03*
D23*
X1563370Y1860274D03*
D21*
X1283970Y1270224D03*
D22*
X1283970Y1284224D03*
D23*
X1283970Y1266974D03*
D21*
X1283970Y1298224D03*
D23*
X1283970Y1301474D03*
D21*
X1563370Y711424D03*
D22*
X1563370Y725424D03*
D23*
X1563370Y708174D03*
D21*
X1563370Y739424D03*
D23*
X1563370Y742674D03*
D21*
X1004570Y1829024D03*
D22*
X1004570Y1843024D03*
D23*
X1004570Y1825774D03*
D21*
X1004570Y1857024D03*
D23*
X1004570Y1860274D03*
D21*
X1842770Y1270224D03*
D22*
X1842770Y1284224D03*
D23*
X1842770Y1266974D03*
D21*
X1842770Y1298224D03*
D23*
X1842770Y1301474D03*
D21*
X1563370Y2108424D03*
D22*
X1563370Y2122424D03*
D23*
X1563370Y2105174D03*
D21*
X1563370Y2136424D03*
D23*
X1563370Y2139674D03*
D21*
X1283970Y990824D03*
D22*
X1283970Y1004824D03*
D23*
X1283970Y987574D03*
D21*
X1283970Y1018824D03*
D23*
X1283970Y1022074D03*
D21*
X1004570Y1549624D03*
D22*
X1004570Y1563624D03*
D23*
X1004570Y1546374D03*
D21*
X1004570Y1577624D03*
D23*
X1004570Y1580874D03*
D21*
X1842770Y1829024D03*
D22*
X1842770Y1843024D03*
D23*
X1842770Y1825774D03*
D21*
X1842770Y1857024D03*
D23*
X1842770Y1860274D03*
D21*
X1004570Y1270224D03*
D22*
X1004570Y1284224D03*
D23*
X1004570Y1266974D03*
D21*
X1004570Y1298224D03*
D23*
X1004570Y1301474D03*
D21*
X1842770Y2108424D03*
D22*
X1842770Y2122424D03*
D23*
X1842770Y2105174D03*
D21*
X1842770Y2136424D03*
D23*
X1842770Y2139674D03*
D21*
X1563370Y1270224D03*
D22*
X1563370Y1284224D03*
D23*
X1563370Y1266974D03*
D21*
X1563370Y1298224D03*
D23*
X1563370Y1301474D03*
D21*
X1283970Y1829024D03*
D22*
X1283970Y1843024D03*
D23*
X1283970Y1825774D03*
D21*
X1283970Y1857024D03*
D23*
X1283970Y1860274D03*
D21*
X1004570Y990824D03*
D22*
X1004570Y1004824D03*
D23*
X1004570Y987574D03*
D21*
X1004570Y1018824D03*
D23*
X1004570Y1022074D03*
D21*
X1842770Y990824D03*
D22*
X1842770Y1004824D03*
D23*
X1842770Y987574D03*
D21*
X1842770Y1018824D03*
D23*
X1842770Y1022074D03*
D18*
X376840Y2715580D03*
X351440Y2715580D03*
X326040Y2715580D03*
D24*
X1490980Y2367280D03*
X1490980Y2453640D03*
D25*
X215900Y360680D03*
X137160Y358140D03*
D24*
X1397000Y287020D03*
X1318260Y289560D03*
X1051560Y88900D03*
X1099820Y88900D03*
X1267460Y91440D03*
X1320800Y91440D03*
X2603500Y2258060D03*
X2649220Y2258060D03*
X2585720Y2029460D03*
X2641600Y2029460D03*
M02*
