G04 EAGLE Gerber X2 export*
%TF.Part,Single*%
%TF.FileFunction,Paste,Bot*%
%TF.FilePolarity,Positive*%
%TF.GenerationSoftware,Autodesk,EAGLE,9.0.1*%
%TF.CreationDate,2018-05-30T15:00:16Z*%
G75*
%MOMM*%
%FSLAX34Y34*%
%LPD*%
%AMOC8*
5,1,8,0,0,1.08239X$1,22.5*%
G01*
%ADD10R,3.300000X0.500000*%
%ADD11R,0.500000X0.450000*%
%ADD12R,0.750000X1.010000*%


D10*
X1283970Y1549624D03*
D11*
X1283970Y1546374D03*
D10*
X1283970Y1577624D03*
D11*
X1283970Y1580874D03*
D12*
X1283970Y1563624D03*
X1273970Y1563624D03*
X1293970Y1563624D03*
D10*
X1563370Y1549624D03*
D11*
X1563370Y1546374D03*
D10*
X1563370Y1577624D03*
D11*
X1563370Y1580874D03*
D12*
X1563370Y1563624D03*
X1553370Y1563624D03*
X1573370Y1563624D03*
D10*
X1283970Y711424D03*
D11*
X1283970Y708174D03*
D10*
X1283970Y739424D03*
D11*
X1283970Y742674D03*
D12*
X1283970Y725424D03*
X1273970Y725424D03*
X1293970Y725424D03*
D10*
X1004570Y2108424D03*
D11*
X1004570Y2105174D03*
D10*
X1004570Y2136424D03*
D11*
X1004570Y2139674D03*
D12*
X1004570Y2122424D03*
X994570Y2122424D03*
X1014570Y2122424D03*
D10*
X1842770Y1549624D03*
D11*
X1842770Y1546374D03*
D10*
X1842770Y1577624D03*
D11*
X1842770Y1580874D03*
D12*
X1842770Y1563624D03*
X1832770Y1563624D03*
X1852770Y1563624D03*
D10*
X1563370Y990824D03*
D11*
X1563370Y987574D03*
D10*
X1563370Y1018824D03*
D11*
X1563370Y1022074D03*
D12*
X1563370Y1004824D03*
X1553370Y1004824D03*
X1573370Y1004824D03*
D10*
X1283970Y2108424D03*
D11*
X1283970Y2105174D03*
D10*
X1283970Y2136424D03*
D11*
X1283970Y2139674D03*
D12*
X1283970Y2122424D03*
X1273970Y2122424D03*
X1293970Y2122424D03*
D10*
X1004570Y711424D03*
D11*
X1004570Y708174D03*
D10*
X1004570Y739424D03*
D11*
X1004570Y742674D03*
D12*
X1004570Y725424D03*
X994570Y725424D03*
X1014570Y725424D03*
D10*
X1842770Y711424D03*
D11*
X1842770Y708174D03*
D10*
X1842770Y739424D03*
D11*
X1842770Y742674D03*
D12*
X1842770Y725424D03*
X1832770Y725424D03*
X1852770Y725424D03*
D10*
X1563370Y1829024D03*
D11*
X1563370Y1825774D03*
D10*
X1563370Y1857024D03*
D11*
X1563370Y1860274D03*
D12*
X1563370Y1843024D03*
X1553370Y1843024D03*
X1573370Y1843024D03*
D10*
X1283970Y1270224D03*
D11*
X1283970Y1266974D03*
D10*
X1283970Y1298224D03*
D11*
X1283970Y1301474D03*
D12*
X1283970Y1284224D03*
X1273970Y1284224D03*
X1293970Y1284224D03*
D10*
X1563370Y711424D03*
D11*
X1563370Y708174D03*
D10*
X1563370Y739424D03*
D11*
X1563370Y742674D03*
D12*
X1563370Y725424D03*
X1553370Y725424D03*
X1573370Y725424D03*
D10*
X1004570Y1829024D03*
D11*
X1004570Y1825774D03*
D10*
X1004570Y1857024D03*
D11*
X1004570Y1860274D03*
D12*
X1004570Y1843024D03*
X994570Y1843024D03*
X1014570Y1843024D03*
D10*
X1842770Y1270224D03*
D11*
X1842770Y1266974D03*
D10*
X1842770Y1298224D03*
D11*
X1842770Y1301474D03*
D12*
X1842770Y1284224D03*
X1832770Y1284224D03*
X1852770Y1284224D03*
D10*
X1563370Y2108424D03*
D11*
X1563370Y2105174D03*
D10*
X1563370Y2136424D03*
D11*
X1563370Y2139674D03*
D12*
X1563370Y2122424D03*
X1553370Y2122424D03*
X1573370Y2122424D03*
D10*
X1283970Y990824D03*
D11*
X1283970Y987574D03*
D10*
X1283970Y1018824D03*
D11*
X1283970Y1022074D03*
D12*
X1283970Y1004824D03*
X1273970Y1004824D03*
X1293970Y1004824D03*
D10*
X1004570Y1549624D03*
D11*
X1004570Y1546374D03*
D10*
X1004570Y1577624D03*
D11*
X1004570Y1580874D03*
D12*
X1004570Y1563624D03*
X994570Y1563624D03*
X1014570Y1563624D03*
D10*
X1842770Y1829024D03*
D11*
X1842770Y1825774D03*
D10*
X1842770Y1857024D03*
D11*
X1842770Y1860274D03*
D12*
X1842770Y1843024D03*
X1832770Y1843024D03*
X1852770Y1843024D03*
D10*
X1004570Y1270224D03*
D11*
X1004570Y1266974D03*
D10*
X1004570Y1298224D03*
D11*
X1004570Y1301474D03*
D12*
X1004570Y1284224D03*
X994570Y1284224D03*
X1014570Y1284224D03*
D10*
X1842770Y2108424D03*
D11*
X1842770Y2105174D03*
D10*
X1842770Y2136424D03*
D11*
X1842770Y2139674D03*
D12*
X1842770Y2122424D03*
X1832770Y2122424D03*
X1852770Y2122424D03*
D10*
X1563370Y1270224D03*
D11*
X1563370Y1266974D03*
D10*
X1563370Y1298224D03*
D11*
X1563370Y1301474D03*
D12*
X1563370Y1284224D03*
X1553370Y1284224D03*
X1573370Y1284224D03*
D10*
X1283970Y1829024D03*
D11*
X1283970Y1825774D03*
D10*
X1283970Y1857024D03*
D11*
X1283970Y1860274D03*
D12*
X1283970Y1843024D03*
X1273970Y1843024D03*
X1293970Y1843024D03*
D10*
X1004570Y990824D03*
D11*
X1004570Y987574D03*
D10*
X1004570Y1018824D03*
D11*
X1004570Y1022074D03*
D12*
X1004570Y1004824D03*
X994570Y1004824D03*
X1014570Y1004824D03*
D10*
X1842770Y990824D03*
D11*
X1842770Y987574D03*
D10*
X1842770Y1018824D03*
D11*
X1842770Y1022074D03*
D12*
X1842770Y1004824D03*
X1832770Y1004824D03*
X1852770Y1004824D03*
M02*
