G04 EAGLE Gerber X2 export*
%TF.Part,Single*%
%TF.FileFunction,Paste,Top*%
%TF.FilePolarity,Positive*%
%TF.GenerationSoftware,Autodesk,EAGLE,9.0.1*%
%TF.CreationDate,2018-05-30T15:00:16Z*%
G75*
%MOMM*%
%FSLAX34Y34*%
%LPD*%
%AMOC8*
5,1,8,0,0,1.08239X$1,22.5*%
G01*
%ADD10R,1.000000X1.100000*%
%ADD11R,2.400000X1.800000*%
%ADD12R,1.800000X1.600000*%
%ADD13R,1.803400X1.117600*%
%ADD14R,0.406400X1.981200*%
%ADD15R,1.100000X1.000000*%
%ADD16R,1.400000X0.300000*%
%ADD17R,0.800000X0.800000*%
%ADD18R,0.799997X0.755600*%
%ADD19R,4.400000X3.300000*%
%ADD20R,6.750000X3.900000*%
%ADD21R,6.200000X3.900000*%
%ADD22R,0.600000X0.400000*%
%ADD23R,1.500000X1.300000*%
%ADD24R,1.803000X1.600000*%
%ADD25R,0.400000X0.300000*%
%ADD26R,1.270000X1.651000*%
%ADD27R,3.403600X0.889000*%
%ADD28R,3.251200X0.889000*%
%ADD29R,1.800000X5.700000*%
%ADD30R,0.350000X1.200000*%
%ADD31R,0.755600X0.799997*%
%ADD32R,0.990600X0.304800*%
%ADD33R,0.838200X1.600200*%
%ADD34R,3.098800X1.600200*%
%ADD35R,1.300000X1.500000*%
%ADD36R,1.981200X0.406400*%
%ADD37R,1.000000X1.500000*%
%ADD38R,1.000000X1.400000*%
%ADD39R,0.939800X1.701800*%
%ADD40R,6.654800X7.721600*%
%ADD41R,1.500000X1.000000*%
%ADD42R,1.701800X0.939800*%
%ADD43R,7.721600X6.654800*%
%ADD44R,2.540000X1.270000*%
%ADD45R,3.556000X1.270000*%
%ADD46R,1.400000X1.000000*%


D10*
X2310714Y459756D03*
X2310714Y442756D03*
D11*
X2425014Y456266D03*
X2425014Y415766D03*
D12*
X2346274Y457636D03*
X2346274Y429636D03*
D13*
X2386914Y458622D03*
X2386914Y428650D03*
D10*
X363144Y2209022D03*
X363144Y2226022D03*
X454974Y2246732D03*
X471974Y2246732D03*
D14*
X452234Y2225904D03*
X445734Y2225904D03*
X439234Y2225904D03*
X432734Y2225904D03*
X426234Y2225904D03*
X419734Y2225904D03*
X413234Y2225904D03*
X406734Y2225904D03*
X400234Y2225904D03*
X393734Y2225904D03*
X387234Y2225904D03*
X380734Y2225904D03*
X380734Y2168500D03*
X387234Y2168500D03*
X393734Y2168500D03*
X400234Y2168500D03*
X406734Y2168500D03*
X413234Y2168500D03*
X419734Y2168500D03*
X426234Y2168500D03*
X432734Y2168500D03*
X439234Y2168500D03*
X445734Y2168500D03*
X452234Y2168500D03*
D15*
X490264Y2173582D03*
X473264Y2173582D03*
X520234Y2173582D03*
X503234Y2173582D03*
X490514Y2219042D03*
X473514Y2219042D03*
X520234Y2219042D03*
X503234Y2219042D03*
X490264Y2196442D03*
X473264Y2196442D03*
X520234Y2196442D03*
X503234Y2196442D03*
D16*
X1617018Y2651082D03*
X1617018Y2656082D03*
X1617018Y2661082D03*
X1617018Y2666082D03*
X1617018Y2671082D03*
X1573018Y2671082D03*
X1573018Y2666082D03*
X1573018Y2661082D03*
X1573018Y2656082D03*
X1573018Y2651082D03*
D10*
X1596678Y2628062D03*
X1613678Y2628062D03*
X1566198Y2628062D03*
X1583198Y2628062D03*
X1535718Y2628062D03*
X1552718Y2628062D03*
D15*
X1539138Y2661962D03*
X1539138Y2644962D03*
D10*
X1573038Y2692832D03*
X1556038Y2692832D03*
D15*
X1539138Y2692442D03*
X1539138Y2675442D03*
X1644548Y2665772D03*
X1644548Y2648772D03*
X1672488Y2665772D03*
X1672488Y2648772D03*
D16*
X1827838Y2651082D03*
X1827838Y2656082D03*
X1827838Y2661082D03*
X1827838Y2666082D03*
X1827838Y2671082D03*
X1783838Y2671082D03*
X1783838Y2666082D03*
X1783838Y2661082D03*
X1783838Y2656082D03*
X1783838Y2651082D03*
D10*
X1807498Y2628062D03*
X1824498Y2628062D03*
X1777018Y2628062D03*
X1794018Y2628062D03*
X1746538Y2628062D03*
X1763538Y2628062D03*
D15*
X1749958Y2661962D03*
X1749958Y2644962D03*
D10*
X1783858Y2692832D03*
X1766858Y2692832D03*
D15*
X1749958Y2692442D03*
X1749958Y2675442D03*
X1855368Y2665772D03*
X1855368Y2648772D03*
X1883308Y2665772D03*
X1883308Y2648772D03*
D10*
X447142Y2124396D03*
X447142Y2107396D03*
X467284Y2124422D03*
X467284Y2107422D03*
D17*
X228702Y2392876D03*
X228702Y2407876D03*
D18*
X228702Y2461178D03*
X228702Y2476734D03*
D17*
X261722Y2392876D03*
X261722Y2407876D03*
D18*
X261722Y2461178D03*
X261722Y2476734D03*
D17*
X294742Y2395416D03*
X294742Y2410416D03*
D18*
X294742Y2461178D03*
X294742Y2476734D03*
D19*
X2759732Y355090D03*
D20*
X2849232Y284090D03*
D21*
X2849232Y413090D03*
D22*
X463108Y1059104D03*
X484108Y1059104D03*
X463108Y1065104D03*
X463108Y1071104D03*
X463108Y1053104D03*
X463108Y1047104D03*
X484108Y1047104D03*
X484108Y1053104D03*
X484108Y1065104D03*
X484108Y1071104D03*
X473608Y1059104D03*
D23*
X506628Y1048284D03*
X506628Y1029284D03*
D24*
X436778Y1033954D03*
X436778Y1005514D03*
D10*
X436778Y1065844D03*
X436778Y1082844D03*
D22*
X472808Y1188644D03*
X472808Y1178644D03*
X472808Y1198644D03*
X499808Y1188644D03*
X499808Y1178644D03*
X499808Y1198644D03*
D15*
X477808Y1221664D03*
X494808Y1221664D03*
D25*
X462148Y878604D03*
X462148Y868604D03*
X462148Y858604D03*
X490148Y858604D03*
X490148Y868604D03*
X490148Y878604D03*
D26*
X476148Y868604D03*
D15*
X484648Y835584D03*
X467648Y835584D03*
D10*
X637362Y1385350D03*
X637362Y1402350D03*
D15*
X2397624Y1470406D03*
X2380624Y1470406D03*
X2295534Y1552956D03*
X2312534Y1552956D03*
D27*
X2561336Y1551686D03*
D28*
X2500884Y1551178D03*
D29*
X2551824Y1470406D03*
X2505824Y1470406D03*
D15*
X2397624Y1305306D03*
X2380624Y1305306D03*
X2295534Y1387856D03*
X2312534Y1387856D03*
D27*
X2561336Y1386586D03*
D28*
X2500884Y1386078D03*
D29*
X2551824Y1305306D03*
X2505824Y1305306D03*
D15*
X2397624Y1140206D03*
X2380624Y1140206D03*
X2295534Y1222756D03*
X2312534Y1222756D03*
D27*
X2561336Y1221486D03*
D28*
X2500884Y1220978D03*
D29*
X2551824Y1140206D03*
X2505824Y1140206D03*
D15*
X2397624Y975106D03*
X2380624Y975106D03*
X2295534Y1057656D03*
X2312534Y1057656D03*
D27*
X2561336Y1056386D03*
D28*
X2500884Y1055878D03*
D29*
X2551824Y975106D03*
X2505824Y975106D03*
D15*
X2397624Y810006D03*
X2380624Y810006D03*
X2295534Y892556D03*
X2312534Y892556D03*
D27*
X2561336Y891286D03*
D28*
X2500884Y890778D03*
D29*
X2551824Y810006D03*
X2505824Y810006D03*
D15*
X2397624Y644906D03*
X2380624Y644906D03*
X2295534Y727456D03*
X2312534Y727456D03*
D27*
X2561336Y726186D03*
D28*
X2500884Y725678D03*
D29*
X2551824Y644906D03*
X2505824Y644906D03*
D30*
X2676034Y1001816D03*
X2669534Y1001816D03*
X2663034Y1001816D03*
X2656534Y1001816D03*
X2650034Y1001816D03*
X2643534Y1001816D03*
X2637034Y1001816D03*
X2630534Y1001816D03*
X2630534Y943316D03*
X2637034Y943316D03*
X2643534Y943316D03*
X2650034Y943316D03*
X2656534Y943316D03*
X2663034Y943316D03*
X2669534Y943316D03*
X2676034Y943316D03*
D15*
X2681614Y1020826D03*
X2698614Y1020826D03*
D23*
X2699004Y964336D03*
X2699004Y983336D03*
D31*
X2689002Y763016D03*
X2673446Y763016D03*
X2689002Y788416D03*
X2673446Y788416D03*
X2689002Y813816D03*
X2673446Y813816D03*
X2689002Y839216D03*
X2673446Y839216D03*
X2689002Y864616D03*
X2673446Y864616D03*
X2689002Y890016D03*
X2673446Y890016D03*
D32*
X2650522Y1257386D03*
X2650522Y1250886D03*
X2650522Y1244386D03*
X2650522Y1237886D03*
X2650522Y1231386D03*
X2650522Y1224886D03*
X2650522Y1218386D03*
X2650522Y1211886D03*
X2650522Y1205386D03*
X2650522Y1198886D03*
X2650522Y1192386D03*
X2650522Y1185886D03*
X2650522Y1179386D03*
X2650522Y1172886D03*
X2708878Y1172886D03*
X2708878Y1179386D03*
X2708878Y1185886D03*
X2708878Y1192386D03*
X2708878Y1198886D03*
X2708878Y1205386D03*
X2708878Y1211886D03*
X2708878Y1218386D03*
X2708878Y1224886D03*
X2708878Y1231386D03*
X2708878Y1237886D03*
X2708878Y1244386D03*
X2708878Y1250886D03*
X2708878Y1257386D03*
D31*
X2654490Y1485646D03*
X2670046Y1485646D03*
X2654490Y1460246D03*
X2670046Y1460246D03*
X2654490Y1434846D03*
X2670046Y1434846D03*
X2654810Y1409446D03*
X2670366Y1409446D03*
X2654810Y1384046D03*
X2670366Y1384046D03*
X2654810Y1358646D03*
X2670366Y1358646D03*
D18*
X2725420Y1224819D03*
X2725420Y1209263D03*
D23*
X2738374Y1265326D03*
X2738374Y1284326D03*
D18*
X2665984Y1042258D03*
X2665984Y1057814D03*
X2640584Y1103534D03*
X2640584Y1087978D03*
D17*
X438030Y2528570D03*
X423030Y2528570D03*
D31*
X409098Y2528570D03*
X393542Y2528570D03*
D33*
X434480Y2472944D03*
X411480Y2472944D03*
X388480Y2472944D03*
D34*
X411480Y2408936D03*
D15*
X447920Y2504440D03*
X430920Y2504440D03*
D35*
X391820Y2504440D03*
X410820Y2504440D03*
D18*
X386080Y2560162D03*
X386080Y2575718D03*
D36*
X419862Y1984970D03*
X419862Y1991470D03*
X419862Y1997970D03*
X419862Y2004470D03*
X419862Y2010970D03*
X419862Y2017470D03*
X419862Y2023970D03*
X419862Y2030470D03*
X419862Y2036970D03*
X419862Y2043470D03*
X362458Y2043470D03*
X362458Y2036970D03*
X362458Y2030470D03*
X362458Y2023970D03*
X362458Y2017470D03*
X362458Y2010970D03*
X362458Y2004470D03*
X362458Y1997970D03*
X362458Y1991470D03*
X362458Y1984970D03*
D10*
X548640Y2055740D03*
X548640Y2038740D03*
X528320Y2055740D03*
X528320Y2038740D03*
X528320Y2086220D03*
X528320Y2069220D03*
X548640Y2086220D03*
X548640Y2069220D03*
X472440Y2013340D03*
X472440Y2030340D03*
X508000Y2013340D03*
X508000Y2030340D03*
X490220Y2013340D03*
X490220Y2030340D03*
X444500Y2015880D03*
X444500Y2032880D03*
D37*
X1442720Y2471055D03*
X1442720Y2492105D03*
X1356360Y2509885D03*
X1356360Y2488835D03*
D38*
X1404620Y2470580D03*
X1395120Y2492580D03*
X1414120Y2492580D03*
D39*
X1434740Y2438527D03*
X1389740Y2438527D03*
D40*
X1412240Y2377440D03*
D41*
X162925Y601980D03*
X141875Y601980D03*
D37*
X210820Y670195D03*
X210820Y691245D03*
D38*
X203200Y611300D03*
X193700Y633300D03*
X212700Y633300D03*
D39*
X205380Y564007D03*
X160380Y564007D03*
D40*
X182880Y502920D03*
D37*
X1244600Y276495D03*
X1244600Y297545D03*
D41*
X1158605Y241300D03*
X1137555Y241300D03*
D38*
X1203960Y275160D03*
X1213460Y253160D03*
X1194460Y253160D03*
D42*
X1262253Y233320D03*
X1262253Y188320D03*
D43*
X1323340Y210820D03*
D44*
X302260Y2169160D03*
X302260Y2133600D03*
X302260Y2098040D03*
X302260Y2067560D03*
D45*
X2750820Y1770380D03*
X2750820Y1795780D03*
X2750820Y1821180D03*
X2750820Y1846580D03*
X2750820Y1871980D03*
X2750820Y1897380D03*
X2750820Y1922780D03*
X2750820Y1948180D03*
X2750820Y1973580D03*
X2750820Y1998980D03*
X2750820Y2024380D03*
X2750820Y2049780D03*
X2750820Y2075180D03*
X2750820Y2100580D03*
X2750820Y2125980D03*
X2750820Y2151380D03*
X2750820Y2176780D03*
X2750820Y2202180D03*
X2750820Y2227580D03*
X2750820Y2252980D03*
X2750820Y2278380D03*
X2750820Y2303780D03*
X2750820Y2329180D03*
X2698750Y1770380D03*
X2698750Y1795780D03*
X2698750Y1821180D03*
X2698750Y1846580D03*
X2698750Y1871980D03*
X2698750Y1897380D03*
X2698750Y1922780D03*
X2698750Y1948180D03*
X2698750Y1973580D03*
X2698750Y1998980D03*
X2698750Y2024380D03*
X2698750Y2049780D03*
X2698750Y2075180D03*
X2698750Y2100580D03*
X2698750Y2125980D03*
X2698750Y2151380D03*
X2698750Y2176780D03*
X2698750Y2202180D03*
X2698750Y2227580D03*
X2698750Y2252980D03*
X2698750Y2278380D03*
X2698750Y2303780D03*
X2698750Y2329180D03*
X2268220Y1770380D03*
X2268220Y1795780D03*
X2268220Y1821180D03*
X2268220Y1846580D03*
X2268220Y1871980D03*
X2268220Y1897380D03*
X2268220Y1922780D03*
X2268220Y1948180D03*
X2268220Y1973580D03*
X2268220Y1998980D03*
X2268220Y2024380D03*
X2268220Y2049780D03*
X2268220Y2075180D03*
X2268220Y2100580D03*
X2268220Y2125980D03*
X2268220Y2151380D03*
X2268220Y2176780D03*
X2268220Y2202180D03*
X2268220Y2227580D03*
X2268220Y2252980D03*
X2268220Y2278380D03*
X2268220Y2303780D03*
X2268220Y2329180D03*
X2216150Y1770380D03*
X2216150Y1795780D03*
X2216150Y1821180D03*
X2216150Y1846580D03*
X2216150Y1871980D03*
X2216150Y1897380D03*
X2216150Y1922780D03*
X2216150Y1948180D03*
X2216150Y1973580D03*
X2216150Y1998980D03*
X2216150Y2024380D03*
X2216150Y2049780D03*
X2216150Y2075180D03*
X2216150Y2100580D03*
X2216150Y2125980D03*
X2216150Y2151380D03*
X2216150Y2176780D03*
X2216150Y2202180D03*
X2216150Y2227580D03*
X2216150Y2252980D03*
X2216150Y2278380D03*
X2216150Y2303780D03*
X2216150Y2329180D03*
D37*
X1330960Y2509885D03*
X1330960Y2488835D03*
D41*
X1091835Y241300D03*
X1112885Y241300D03*
D37*
X210820Y739505D03*
X210820Y718455D03*
D41*
X2502265Y2186940D03*
X2481215Y2186940D03*
X2461625Y2164080D03*
X2440575Y2164080D03*
D46*
X2515440Y2153920D03*
X2493440Y2144420D03*
X2493440Y2163420D03*
D39*
X2522580Y2191893D03*
X2567580Y2191893D03*
D40*
X2545080Y2252980D03*
D41*
X2461625Y2186940D03*
X2440575Y2186940D03*
X2461625Y1925320D03*
X2440575Y1925320D03*
X2415905Y1897380D03*
X2394855Y1897380D03*
D46*
X2474800Y1892300D03*
X2452800Y1882800D03*
X2452800Y1901800D03*
D39*
X2489560Y1948053D03*
X2534560Y1948053D03*
D40*
X2512060Y2009140D03*
D41*
X2415905Y1925320D03*
X2394855Y1925320D03*
M02*
