G04 EAGLE Gerber X2 export*
%TF.Part,Single*%
%TF.FileFunction,Soldermask,Bot,1*%
%TF.FilePolarity,Negative*%
%TF.GenerationSoftware,Autodesk,EAGLE,9.1.1*%
%TF.CreationDate,2018-08-01T17:30:24Z*%
G75*
%MOMM*%
%FSLAX34Y34*%
%LPD*%
%AMOC8*
5,1,8,0,0,1.08239X$1,22.5*%
G01*
%ADD10C,3.378200*%
%ADD11C,14.427200*%
%ADD12C,5.283200*%
%ADD13C,2.743200*%
%ADD14C,2.997200*%
%ADD15R,1.711200X1.711200*%
%ADD16C,1.711200*%
%ADD17C,3.403200*%
%ADD18C,1.953200*%
%ADD19C,1.727200*%
%ADD20R,3.503200X0.703200*%
%ADD21R,3.503200X1.503200*%
%ADD22R,0.703200X0.653200*%
%ADD23P,4.343848X8X22.500000*%
%ADD24P,2.969212X8X202.500000*%
%ADD25C,1.841500*%
%ADD26C,2.603500*%
%ADD27R,4.403200X1.203200*%
%ADD28C,3.519200*%
%ADD29R,2.082800X2.082800*%
%ADD30C,2.082800*%
%ADD31R,1.671200X1.671200*%
%ADD32R,1.631200X1.631200*%
%ADD33R,2.228200X2.228200*%


D10*
X1144270Y574802D03*
X1703070Y574802D03*
X2068576Y865124D03*
X2068576Y1423924D03*
X2068576Y1982724D03*
X1703070Y2272792D03*
X1144270Y2272792D03*
X778764Y1982724D03*
X778764Y1423924D03*
X778764Y865124D03*
D11*
X1423670Y1423670D03*
D12*
X2444242Y331470D03*
D13*
X2647366Y422504D02*
X2647366Y447904D01*
X2494966Y447904D02*
X2494966Y422504D01*
D14*
X2571166Y435204D03*
D15*
X1647088Y2751252D03*
D16*
X1634388Y2725852D03*
X1621688Y2751252D03*
X1608988Y2725852D03*
X1596288Y2751252D03*
X1583588Y2725852D03*
X1570888Y2751252D03*
X1558188Y2725852D03*
D17*
X1659788Y2814752D03*
X1545488Y2814752D03*
D15*
X1857908Y2751252D03*
D16*
X1845208Y2725852D03*
X1832508Y2751252D03*
X1819808Y2725852D03*
X1807108Y2751252D03*
X1794408Y2725852D03*
X1781708Y2751252D03*
X1769008Y2725852D03*
D17*
X1870608Y2814752D03*
X1756308Y2814752D03*
D18*
X509606Y2716444D03*
X484206Y2716444D03*
X458806Y2716444D03*
D19*
X599262Y1462430D02*
X614502Y1462430D01*
X614502Y1437030D02*
X599262Y1437030D01*
X599262Y1411630D02*
X614502Y1411630D01*
X614502Y1386230D02*
X599262Y1386230D01*
X599262Y1360830D02*
X614502Y1360830D01*
X614502Y1335430D02*
X599262Y1335430D01*
X337602Y1462430D02*
X322362Y1462430D01*
X322362Y1335430D02*
X337602Y1335430D01*
D20*
X1283970Y1549624D03*
D21*
X1283970Y1563624D03*
D22*
X1283970Y1546374D03*
D20*
X1283970Y1577624D03*
D22*
X1283970Y1580874D03*
D20*
X1563370Y1549624D03*
D21*
X1563370Y1563624D03*
D22*
X1563370Y1546374D03*
D20*
X1563370Y1577624D03*
D22*
X1563370Y1580874D03*
D20*
X1283970Y711424D03*
D21*
X1283970Y725424D03*
D22*
X1283970Y708174D03*
D20*
X1283970Y739424D03*
D22*
X1283970Y742674D03*
D20*
X1004570Y2108424D03*
D21*
X1004570Y2122424D03*
D22*
X1004570Y2105174D03*
D20*
X1004570Y2136424D03*
D22*
X1004570Y2139674D03*
D20*
X1842770Y1549624D03*
D21*
X1842770Y1563624D03*
D22*
X1842770Y1546374D03*
D20*
X1842770Y1577624D03*
D22*
X1842770Y1580874D03*
D20*
X1563370Y990824D03*
D21*
X1563370Y1004824D03*
D22*
X1563370Y987574D03*
D20*
X1563370Y1018824D03*
D22*
X1563370Y1022074D03*
D20*
X1283970Y2108424D03*
D21*
X1283970Y2122424D03*
D22*
X1283970Y2105174D03*
D20*
X1283970Y2136424D03*
D22*
X1283970Y2139674D03*
D20*
X1004570Y711424D03*
D21*
X1004570Y725424D03*
D22*
X1004570Y708174D03*
D20*
X1004570Y739424D03*
D22*
X1004570Y742674D03*
D20*
X1842770Y711424D03*
D21*
X1842770Y725424D03*
D22*
X1842770Y708174D03*
D20*
X1842770Y739424D03*
D22*
X1842770Y742674D03*
D20*
X1563370Y1829024D03*
D21*
X1563370Y1843024D03*
D22*
X1563370Y1825774D03*
D20*
X1563370Y1857024D03*
D22*
X1563370Y1860274D03*
D20*
X1283970Y1270224D03*
D21*
X1283970Y1284224D03*
D22*
X1283970Y1266974D03*
D20*
X1283970Y1298224D03*
D22*
X1283970Y1301474D03*
D20*
X1563370Y711424D03*
D21*
X1563370Y725424D03*
D22*
X1563370Y708174D03*
D20*
X1563370Y739424D03*
D22*
X1563370Y742674D03*
D20*
X1004570Y1829024D03*
D21*
X1004570Y1843024D03*
D22*
X1004570Y1825774D03*
D20*
X1004570Y1857024D03*
D22*
X1004570Y1860274D03*
D20*
X1842770Y1270224D03*
D21*
X1842770Y1284224D03*
D22*
X1842770Y1266974D03*
D20*
X1842770Y1298224D03*
D22*
X1842770Y1301474D03*
D20*
X1563370Y2108424D03*
D21*
X1563370Y2122424D03*
D22*
X1563370Y2105174D03*
D20*
X1563370Y2136424D03*
D22*
X1563370Y2139674D03*
D20*
X1283970Y990824D03*
D21*
X1283970Y1004824D03*
D22*
X1283970Y987574D03*
D20*
X1283970Y1018824D03*
D22*
X1283970Y1022074D03*
D20*
X1004570Y1549624D03*
D21*
X1004570Y1563624D03*
D22*
X1004570Y1546374D03*
D20*
X1004570Y1577624D03*
D22*
X1004570Y1580874D03*
D20*
X1842770Y1829024D03*
D21*
X1842770Y1843024D03*
D22*
X1842770Y1825774D03*
D20*
X1842770Y1857024D03*
D22*
X1842770Y1860274D03*
D20*
X1004570Y1270224D03*
D21*
X1004570Y1284224D03*
D22*
X1004570Y1266974D03*
D20*
X1004570Y1298224D03*
D22*
X1004570Y1301474D03*
D20*
X1842770Y2108424D03*
D21*
X1842770Y2122424D03*
D22*
X1842770Y2105174D03*
D20*
X1842770Y2136424D03*
D22*
X1842770Y2139674D03*
D20*
X1563370Y1270224D03*
D21*
X1563370Y1284224D03*
D22*
X1563370Y1266974D03*
D20*
X1563370Y1298224D03*
D22*
X1563370Y1301474D03*
D20*
X1283970Y1829024D03*
D21*
X1283970Y1843024D03*
D22*
X1283970Y1825774D03*
D20*
X1283970Y1857024D03*
D22*
X1283970Y1860274D03*
D20*
X1004570Y990824D03*
D21*
X1004570Y1004824D03*
D22*
X1004570Y987574D03*
D20*
X1004570Y1018824D03*
D22*
X1004570Y1022074D03*
D20*
X1842770Y990824D03*
D21*
X1842770Y1004824D03*
D22*
X1842770Y987574D03*
D20*
X1842770Y1018824D03*
D22*
X1842770Y1022074D03*
D18*
X376840Y2715580D03*
X351440Y2715580D03*
X326040Y2715580D03*
D23*
X1051560Y88900D03*
X1099820Y88900D03*
X1267460Y91440D03*
X1320800Y91440D03*
D24*
X2312035Y1605280D03*
X2312035Y1558290D03*
X2312035Y1417320D03*
X2312035Y1367790D03*
X2312035Y1224280D03*
X2312035Y1177290D03*
X2314575Y1033780D03*
X2312035Y986790D03*
X2312035Y850900D03*
X2312035Y796290D03*
X2312035Y657860D03*
X2312035Y605790D03*
D25*
X137160Y119380D03*
D26*
X105918Y150622D03*
X105918Y88138D03*
X168402Y88138D03*
X168402Y150622D03*
D25*
X2661920Y2758440D03*
D26*
X2693162Y2727198D03*
X2693162Y2789682D03*
X2630678Y2789682D03*
X2630678Y2727198D03*
D25*
X132080Y2702560D03*
D26*
X100838Y2733802D03*
X100838Y2671318D03*
X163322Y2671318D03*
X163322Y2733802D03*
D27*
X2755900Y2740660D03*
X2755900Y2715660D03*
X2755900Y2695660D03*
X2755900Y2670660D03*
D28*
X2797900Y2771360D03*
X2797900Y2639960D03*
D29*
X508000Y74930D03*
D30*
X508000Y100330D03*
X508000Y125730D03*
X508000Y151130D03*
D19*
X426720Y87630D02*
X411480Y87630D01*
X411480Y113030D02*
X426720Y113030D01*
X426720Y138430D02*
X411480Y138430D01*
X248920Y138430D02*
X233680Y138430D01*
X233680Y113030D02*
X248920Y113030D01*
X248920Y87630D02*
X233680Y87630D01*
D29*
X140970Y2336800D03*
D30*
X166370Y2336800D03*
X191770Y2336800D03*
X217170Y2336800D03*
D19*
X153670Y2418080D02*
X153670Y2433320D01*
X179070Y2433320D02*
X179070Y2418080D01*
X204470Y2418080D02*
X204470Y2433320D01*
X204470Y2595880D02*
X204470Y2611120D01*
X179070Y2611120D02*
X179070Y2595880D01*
X153670Y2595880D02*
X153670Y2611120D01*
D29*
X2291080Y2790190D03*
D30*
X2291080Y2764790D03*
X2291080Y2739390D03*
X2291080Y2713990D03*
D19*
X2372360Y2777490D02*
X2387600Y2777490D01*
X2387600Y2752090D02*
X2372360Y2752090D01*
X2372360Y2726690D02*
X2387600Y2726690D01*
X2550160Y2726690D02*
X2565400Y2726690D01*
X2565400Y2752090D02*
X2550160Y2752090D01*
X2550160Y2777490D02*
X2565400Y2777490D01*
D31*
X2235200Y482600D03*
D32*
X2235200Y462600D03*
X2235200Y442600D03*
X2235200Y422600D03*
D33*
X2262400Y489900D03*
X2208000Y489900D03*
X2262400Y419900D03*
X2208000Y419900D03*
D31*
X2131060Y482600D03*
D32*
X2131060Y462600D03*
X2131060Y442600D03*
X2131060Y422600D03*
D33*
X2158260Y489900D03*
X2103860Y489900D03*
X2158260Y419900D03*
X2103860Y419900D03*
M02*
