*
%FSLAX25Y25*%
%MOIN*%
%ADD10R,0.043307X0.039370*%
%ADD11R,0.051181X0.059055*%
%ADD12R,0.029748X0.031496*%
%ADD13R,0.031496X0.029748*%
%ADD14R,0.059055X0.051181*%
%ADD15R,0.283465X0.102362*%
%ADD16R,0.031496X0.031496*%
%ADD17C,0.015748*%
%ADD18R,0.039370X0.043307*%
%ADD19R,0.085843X0.064173*%
%ADD20R,0.129921X0.173228*%
%ADD21R,0.153543X0.265748*%
%ADD22R,0.153543X0.244094*%
%ADD23R,0.047244X0.013780*%
%ADD24R,0.055118X0.011811*%
%ADD25R,0.063000X0.033000*%
%ADD26R,0.063000X0.122000*%
%ADD27R,0.026772X0.047244*%
%ADD28R,0.075984X0.120079*%
%ADD29R,0.059055X0.041339*%
%ADD30R,0.059055X0.094488*%
%ADD31R,0.187000X0.551000*%
%ADD32R,0.059055X0.039370*%
%ADD33R,0.039370X0.055118*%
%ADD34R,0.055118X0.039370*%
%ADD35R,0.039370X0.059055*%
%IPPOS*%
%LNpst.ger*%
%LPD*%
G75*
G54D10*
X0212154Y0273501D03*
X0218847Y0273501D03*
G54D11*
X0212260Y0281001D03*
X0219741Y0281001D03*
G54D12*
X0192063Y0293001D03*
X0185938Y0293001D03*
G54D13*
X0221001Y0267063D03*
X0221001Y0260938D03*
X0211501Y0267063D03*
X0211501Y0260938D03*
G54D10*
X0140347Y0344001D03*
X0133654Y0344001D03*
G54D11*
X0140741Y0384001D03*
X0133260Y0384001D03*
G54D12*
X0289938Y0295701D03*
X0296063Y0295701D03*
G54D13*
X0281001Y0301763D03*
X0281001Y0295638D03*
X0275001Y0295638D03*
X0275001Y0301763D03*
X0275001Y0307638D03*
X0275001Y0313763D03*
G54D12*
X0274938Y0319701D03*
X0281063Y0319701D03*
G54D13*
X0281001Y0313763D03*
X0281001Y0307638D03*
G54D12*
X0321063Y0301201D03*
X0314938Y0301201D03*
X0321063Y0293201D03*
X0314938Y0293201D03*
G54D11*
X0198260Y0351001D03*
X0205741Y0351001D03*
X0181260Y0351001D03*
X0188741Y0351001D03*
G54D14*
X0170751Y0383741D03*
X0170751Y0376260D03*
G54D15*
X0193001Y0381056D03*
X0193001Y0362945D03*
G54D16*
X0168048Y0362001D03*
X0173953Y0362001D03*
G54D12*
X0174063Y0351001D03*
X0167938Y0351001D03*
G54D16*
X0123953Y0386001D03*
X0118048Y0386001D03*
G54D12*
X0116938Y0344001D03*
X0123063Y0344001D03*
G54D17*
X0234001Y0361701D03*
X0234001Y0357701D03*
X0234001Y0375701D03*
X0276001Y0276001D03*
X0279001Y0276001D03*
X0373001Y0361701D03*
X0373001Y0357701D03*
X0373001Y0374701D03*
X0373001Y0312701D03*
X0373001Y0308701D03*
X0123001Y0338001D03*
X0150001Y0343001D03*
X0105001Y0374001D03*
X0150001Y0390001D03*
X0150001Y0362001D03*
G54D14*
X0443001Y0272741D03*
X0443001Y0265260D03*
X0427001Y0272741D03*
X0427001Y0265260D03*
G54D18*
X0457001Y0272347D03*
X0457001Y0265654D03*
G54D13*
X0413001Y0264938D03*
X0413001Y0271063D03*
G54D16*
X0400001Y0270953D03*
X0400001Y0265048D03*
G54D19*
X0476689Y0269001D03*
X0491312Y0269001D03*
G54D17*
X0077001Y0244001D03*
X0085001Y0274001D03*
X0133001Y0404001D03*
X0127001Y0324001D03*
X0137001Y0324001D03*
X0207001Y0261001D03*
X0180001Y0292001D03*
X0058001Y0188001D03*
X0491001Y0377001D03*
G54D20*
X0443441Y0322639D03*
G54D21*
X0471394Y0357875D03*
G54D22*
X0420607Y0357875D03*
G54D23*
X0199516Y0269044D03*
X0199516Y0271603D03*
X0199516Y0274162D03*
X0199516Y0276721D03*
X0199516Y0279280D03*
X0199516Y0281839D03*
X0199516Y0284398D03*
X0199516Y0286957D03*
X0176485Y0286957D03*
X0176485Y0284398D03*
X0176485Y0281839D03*
X0176485Y0279280D03*
X0176485Y0276721D03*
X0176485Y0274162D03*
X0176485Y0271603D03*
X0176485Y0269044D03*
G54D13*
X0130001Y0261063D03*
X0130001Y0254938D03*
X0137001Y0261063D03*
X0137001Y0254938D03*
X0144001Y0261063D03*
X0144001Y0254938D03*
X0150001Y0261063D03*
X0150001Y0254938D03*
X0116001Y0261063D03*
X0116001Y0254938D03*
X0123001Y0261063D03*
X0123001Y0254938D03*
G54D24*
X0309662Y0306763D03*
X0309662Y0308732D03*
X0309662Y0310701D03*
X0309662Y0312669D03*
X0309662Y0314638D03*
X0292339Y0314638D03*
X0292339Y0312669D03*
X0292339Y0310701D03*
X0292339Y0308732D03*
X0292339Y0306763D03*
G54D25*
X0140601Y0356945D03*
X0140601Y0366001D03*
X0140601Y0375056D03*
G54D26*
X0115401Y0366001D03*
G54D17*
X0483001Y0258001D03*
X0433001Y0258001D03*
X0500501Y0332501D03*
X0391001Y0277001D03*
G54D27*
X0083345Y0211497D03*
X0095156Y0211497D03*
X0089251Y0198504D03*
X0083345Y0198504D03*
X0095156Y0198504D03*
G54D28*
X0089251Y0206871D03*
G54D18*
X0078001Y0212097D03*
X0078001Y0205404D03*
X0103001Y0204154D03*
X0103001Y0210847D03*
G54D29*
X0070501Y0198632D03*
G54D30*
X0070501Y0207884D03*
G54D11*
X0092991Y0220001D03*
X0085510Y0220001D03*
G54D31*
X0072301Y0166251D03*
X0108701Y0166251D03*
G54D11*
X0074241Y0220001D03*
X0066760Y0220001D03*
G54D27*
X0158345Y0211497D03*
X0170156Y0211497D03*
X0164251Y0198504D03*
X0158345Y0198504D03*
X0170156Y0198504D03*
G54D28*
X0164251Y0206871D03*
G54D18*
X0153001Y0212097D03*
X0153001Y0205404D03*
X0178001Y0204154D03*
X0178001Y0210847D03*
G54D29*
X0145501Y0198632D03*
G54D30*
X0145501Y0207884D03*
G54D11*
X0167991Y0220001D03*
X0160510Y0220001D03*
G54D31*
X0147301Y0166251D03*
X0183701Y0166251D03*
G54D11*
X0149241Y0220001D03*
X0141760Y0220001D03*
G54D27*
X0233345Y0211497D03*
X0245156Y0211497D03*
X0239251Y0198504D03*
X0233345Y0198504D03*
X0245156Y0198504D03*
G54D28*
X0239251Y0206871D03*
G54D18*
X0228001Y0212097D03*
X0228001Y0205404D03*
X0253001Y0204154D03*
X0253001Y0210847D03*
G54D29*
X0220501Y0198632D03*
G54D30*
X0220501Y0207884D03*
G54D11*
X0242991Y0220001D03*
X0235510Y0220001D03*
G54D31*
X0222301Y0166251D03*
X0258701Y0166251D03*
G54D11*
X0224241Y0220001D03*
X0216760Y0220001D03*
G54D27*
X0308345Y0211497D03*
X0320156Y0211497D03*
X0314251Y0198504D03*
X0308345Y0198504D03*
X0320156Y0198504D03*
G54D28*
X0314251Y0206871D03*
G54D18*
X0303001Y0212097D03*
X0303001Y0205404D03*
X0328001Y0204154D03*
X0328001Y0210847D03*
G54D29*
X0295501Y0198632D03*
G54D30*
X0295501Y0207884D03*
G54D11*
X0317991Y0220001D03*
X0310510Y0220001D03*
G54D31*
X0297301Y0166251D03*
X0333701Y0166251D03*
G54D11*
X0299241Y0220001D03*
X0291760Y0220001D03*
G54D27*
X0383345Y0211497D03*
X0395156Y0211497D03*
X0389251Y0198504D03*
X0383345Y0198504D03*
X0395156Y0198504D03*
G54D28*
X0389251Y0206871D03*
G54D18*
X0378001Y0212097D03*
X0378001Y0205404D03*
X0403001Y0204154D03*
X0403001Y0210847D03*
G54D29*
X0370501Y0198632D03*
G54D30*
X0370501Y0207884D03*
G54D11*
X0392991Y0220001D03*
X0385510Y0220001D03*
G54D31*
X0372301Y0166251D03*
X0408701Y0166251D03*
G54D11*
X0374241Y0220001D03*
X0366760Y0220001D03*
G54D27*
X0458345Y0211497D03*
X0470156Y0211497D03*
X0464251Y0198504D03*
X0458345Y0198504D03*
X0470156Y0198504D03*
G54D28*
X0464251Y0206871D03*
G54D18*
X0453001Y0212097D03*
X0453001Y0205404D03*
X0478001Y0204154D03*
X0478001Y0210847D03*
G54D29*
X0445501Y0198632D03*
G54D30*
X0445501Y0207884D03*
G54D11*
X0467991Y0220001D03*
X0460510Y0220001D03*
G54D31*
X0447301Y0166251D03*
X0483701Y0166251D03*
G54D11*
X0449241Y0220001D03*
X0441760Y0220001D03*
G54D32*
X0059857Y0344001D03*
X0068144Y0344001D03*
X0059857Y0304001D03*
X0068144Y0304001D03*
G54D33*
X0064001Y0323331D03*
X0067741Y0314670D03*
X0060260Y0314670D03*
G54D32*
X0059857Y0334001D03*
X0068144Y0334001D03*
G54D34*
X0088331Y0319001D03*
X0079670Y0315260D03*
X0079670Y0322741D03*
G54D32*
X0079857Y0304001D03*
X0088144Y0304001D03*
X0079857Y0334001D03*
X0088144Y0334001D03*
X0079857Y0344001D03*
X0088144Y0344001D03*
G54D33*
X0077001Y0115331D03*
X0080741Y0106670D03*
X0073260Y0106670D03*
X0150001Y0115331D03*
X0153741Y0106670D03*
X0146260Y0106670D03*
X0224501Y0115331D03*
X0228241Y0106670D03*
X0220760Y0106670D03*
X0300001Y0115331D03*
X0303741Y0106670D03*
X0296260Y0106670D03*
X0371001Y0115331D03*
X0374741Y0106670D03*
X0367260Y0106670D03*
X0450501Y0115331D03*
X0454241Y0106670D03*
X0446760Y0106670D03*
G54D35*
X0062501Y0091857D03*
X0062501Y0100144D03*
X0062001Y0121144D03*
X0062001Y0112857D03*
X0135001Y0091857D03*
X0135001Y0100144D03*
X0134501Y0124144D03*
X0134501Y0115857D03*
X0210501Y0091857D03*
X0210501Y0100144D03*
X0211001Y0112857D03*
X0211001Y0121144D03*
X0285001Y0091857D03*
X0285001Y0100144D03*
X0285001Y0113857D03*
X0285001Y0122144D03*
X0356001Y0091857D03*
X0356001Y0100144D03*
X0356001Y0113857D03*
X0356001Y0122144D03*
X0434001Y0091857D03*
X0434001Y0100144D03*
X0434001Y0112857D03*
X0434001Y0121144D03*
G54D32*
X0079857Y0294001D03*
X0088144Y0294001D03*
X0059857Y0294001D03*
X0068144Y0294001D03*
G54D10*
X0212154Y0643501D03*
X0218847Y0643501D03*
G54D11*
X0212260Y0651001D03*
X0219741Y0651001D03*
G54D12*
X0192063Y0663001D03*
X0185938Y0663001D03*
G54D13*
X0221001Y0637063D03*
X0221001Y0630938D03*
X0211501Y0637063D03*
X0211501Y0630938D03*
G54D10*
X0140347Y0714001D03*
X0133654Y0714001D03*
G54D11*
X0140741Y0754001D03*
X0133260Y0754001D03*
G54D12*
X0289938Y0665701D03*
X0296063Y0665701D03*
G54D13*
X0281001Y0671763D03*
X0281001Y0665638D03*
X0275001Y0665638D03*
X0275001Y0671763D03*
X0275001Y0677638D03*
X0275001Y0683763D03*
G54D12*
X0274938Y0689701D03*
X0281063Y0689701D03*
G54D13*
X0281001Y0683763D03*
X0281001Y0677638D03*
G54D12*
X0321063Y0671201D03*
X0314938Y0671201D03*
X0321063Y0663201D03*
X0314938Y0663201D03*
G54D11*
X0198260Y0721001D03*
X0205741Y0721001D03*
X0181260Y0721001D03*
X0188741Y0721001D03*
G54D14*
X0170751Y0753741D03*
X0170751Y0746260D03*
G54D15*
X0193001Y0751056D03*
X0193001Y0732945D03*
G54D16*
X0168048Y0732001D03*
X0173953Y0732001D03*
G54D12*
X0174063Y0721001D03*
X0167938Y0721001D03*
G54D16*
X0123953Y0756001D03*
X0118048Y0756001D03*
G54D12*
X0116938Y0714001D03*
X0123063Y0714001D03*
G54D17*
X0234001Y0731701D03*
X0234001Y0727701D03*
X0234001Y0745701D03*
X0276001Y0646001D03*
X0279001Y0646001D03*
X0373001Y0731701D03*
X0373001Y0727701D03*
X0373001Y0744701D03*
X0373001Y0682701D03*
X0373001Y0678701D03*
X0123001Y0708001D03*
X0150001Y0713001D03*
X0105001Y0744001D03*
X0150001Y0760001D03*
X0150001Y0732001D03*
G54D14*
X0443001Y0642741D03*
X0443001Y0635260D03*
X0427001Y0642741D03*
X0427001Y0635260D03*
G54D18*
X0457001Y0642347D03*
X0457001Y0635654D03*
G54D13*
X0413001Y0634938D03*
X0413001Y0641063D03*
G54D16*
X0400001Y0640953D03*
X0400001Y0635048D03*
G54D19*
X0476689Y0639001D03*
X0491312Y0639001D03*
G54D17*
X0077001Y0614001D03*
X0085001Y0644001D03*
X0133001Y0774001D03*
X0127001Y0694001D03*
X0137001Y0694001D03*
X0207001Y0631001D03*
X0180001Y0662001D03*
X0058001Y0558001D03*
X0491001Y0747001D03*
G54D20*
X0443441Y0692639D03*
G54D21*
X0471394Y0727875D03*
G54D22*
X0420607Y0727875D03*
G54D23*
X0199516Y0639044D03*
X0199516Y0641603D03*
X0199516Y0644162D03*
X0199516Y0646721D03*
X0199516Y0649280D03*
X0199516Y0651839D03*
X0199516Y0654398D03*
X0199516Y0656957D03*
X0176485Y0656957D03*
X0176485Y0654398D03*
X0176485Y0651839D03*
X0176485Y0649280D03*
X0176485Y0646721D03*
X0176485Y0644162D03*
X0176485Y0641603D03*
X0176485Y0639044D03*
G54D13*
X0130001Y0631063D03*
X0130001Y0624938D03*
X0137001Y0631063D03*
X0137001Y0624938D03*
X0144001Y0631063D03*
X0144001Y0624938D03*
X0150001Y0631063D03*
X0150001Y0624938D03*
X0116001Y0631063D03*
X0116001Y0624938D03*
X0123001Y0631063D03*
X0123001Y0624938D03*
G54D24*
X0309662Y0676763D03*
X0309662Y0678732D03*
X0309662Y0680701D03*
X0309662Y0682669D03*
X0309662Y0684638D03*
X0292339Y0684638D03*
X0292339Y0682669D03*
X0292339Y0680701D03*
X0292339Y0678732D03*
X0292339Y0676763D03*
G54D25*
X0140601Y0726945D03*
X0140601Y0736001D03*
X0140601Y0745056D03*
G54D26*
X0115401Y0736001D03*
G54D17*
X0483001Y0628001D03*
X0433001Y0628001D03*
X0500501Y0702501D03*
X0391001Y0647001D03*
G54D27*
X0083345Y0581497D03*
X0095156Y0581497D03*
X0089251Y0568504D03*
X0083345Y0568504D03*
X0095156Y0568504D03*
G54D28*
X0089251Y0576871D03*
G54D18*
X0078001Y0582097D03*
X0078001Y0575404D03*
X0103001Y0574154D03*
X0103001Y0580847D03*
G54D29*
X0070501Y0568632D03*
G54D30*
X0070501Y0577884D03*
G54D11*
X0092991Y0590001D03*
X0085510Y0590001D03*
G54D31*
X0072301Y0536251D03*
X0108701Y0536251D03*
G54D11*
X0074241Y0590001D03*
X0066760Y0590001D03*
G54D27*
X0158345Y0581497D03*
X0170156Y0581497D03*
X0164251Y0568504D03*
X0158345Y0568504D03*
X0170156Y0568504D03*
G54D28*
X0164251Y0576871D03*
G54D18*
X0153001Y0582097D03*
X0153001Y0575404D03*
X0178001Y0574154D03*
X0178001Y0580847D03*
G54D29*
X0145501Y0568632D03*
G54D30*
X0145501Y0577884D03*
G54D11*
X0167991Y0590001D03*
X0160510Y0590001D03*
G54D31*
X0147301Y0536251D03*
X0183701Y0536251D03*
G54D11*
X0149241Y0590001D03*
X0141760Y0590001D03*
G54D27*
X0233345Y0581497D03*
X0245156Y0581497D03*
X0239251Y0568504D03*
X0233345Y0568504D03*
X0245156Y0568504D03*
G54D28*
X0239251Y0576871D03*
G54D18*
X0228001Y0582097D03*
X0228001Y0575404D03*
X0253001Y0574154D03*
X0253001Y0580847D03*
G54D29*
X0220501Y0568632D03*
G54D30*
X0220501Y0577884D03*
G54D11*
X0242991Y0590001D03*
X0235510Y0590001D03*
G54D31*
X0222301Y0536251D03*
X0258701Y0536251D03*
G54D11*
X0224241Y0590001D03*
X0216760Y0590001D03*
G54D27*
X0308345Y0581497D03*
X0320156Y0581497D03*
X0314251Y0568504D03*
X0308345Y0568504D03*
X0320156Y0568504D03*
G54D28*
X0314251Y0576871D03*
G54D18*
X0303001Y0582097D03*
X0303001Y0575404D03*
X0328001Y0574154D03*
X0328001Y0580847D03*
G54D29*
X0295501Y0568632D03*
G54D30*
X0295501Y0577884D03*
G54D11*
X0317991Y0590001D03*
X0310510Y0590001D03*
G54D31*
X0297301Y0536251D03*
X0333701Y0536251D03*
G54D11*
X0299241Y0590001D03*
X0291760Y0590001D03*
G54D27*
X0383345Y0581497D03*
X0395156Y0581497D03*
X0389251Y0568504D03*
X0383345Y0568504D03*
X0395156Y0568504D03*
G54D28*
X0389251Y0576871D03*
G54D18*
X0378001Y0582097D03*
X0378001Y0575404D03*
X0403001Y0574154D03*
X0403001Y0580847D03*
G54D29*
X0370501Y0568632D03*
G54D30*
X0370501Y0577884D03*
G54D11*
X0392991Y0590001D03*
X0385510Y0590001D03*
G54D31*
X0372301Y0536251D03*
X0408701Y0536251D03*
G54D11*
X0374241Y0590001D03*
X0366760Y0590001D03*
G54D27*
X0458345Y0581497D03*
X0470156Y0581497D03*
X0464251Y0568504D03*
X0458345Y0568504D03*
X0470156Y0568504D03*
G54D28*
X0464251Y0576871D03*
G54D18*
X0453001Y0582097D03*
X0453001Y0575404D03*
X0478001Y0574154D03*
X0478001Y0580847D03*
G54D29*
X0445501Y0568632D03*
G54D30*
X0445501Y0577884D03*
G54D11*
X0467991Y0590001D03*
X0460510Y0590001D03*
G54D31*
X0447301Y0536251D03*
X0483701Y0536251D03*
G54D11*
X0449241Y0590001D03*
X0441760Y0590001D03*
G54D32*
X0059857Y0714001D03*
X0068144Y0714001D03*
X0059857Y0674001D03*
X0068144Y0674001D03*
G54D33*
X0064001Y0693331D03*
X0067741Y0684670D03*
X0060260Y0684670D03*
G54D32*
X0059857Y0704001D03*
X0068144Y0704001D03*
G54D34*
X0088331Y0689001D03*
X0079670Y0685260D03*
X0079670Y0692741D03*
G54D32*
X0079857Y0674001D03*
X0088144Y0674001D03*
X0079857Y0704001D03*
X0088144Y0704001D03*
X0079857Y0714001D03*
X0088144Y0714001D03*
G54D33*
X0077001Y0485331D03*
X0080741Y0476670D03*
X0073260Y0476670D03*
X0150001Y0485331D03*
X0153741Y0476670D03*
X0146260Y0476670D03*
X0224501Y0485331D03*
X0228241Y0476670D03*
X0220760Y0476670D03*
X0300001Y0485331D03*
X0303741Y0476670D03*
X0296260Y0476670D03*
X0371001Y0485331D03*
X0374741Y0476670D03*
X0367260Y0476670D03*
X0450501Y0485331D03*
X0454241Y0476670D03*
X0446760Y0476670D03*
G54D35*
X0062501Y0461857D03*
X0062501Y0470144D03*
X0062001Y0491144D03*
X0062001Y0482857D03*
X0135001Y0461857D03*
X0135001Y0470144D03*
X0134501Y0494144D03*
X0134501Y0485857D03*
X0210501Y0461857D03*
X0210501Y0470144D03*
X0211001Y0482857D03*
X0211001Y0491144D03*
X0285001Y0461857D03*
X0285001Y0470144D03*
X0285001Y0483857D03*
X0285001Y0492144D03*
X0356001Y0461857D03*
X0356001Y0470144D03*
X0356001Y0483857D03*
X0356001Y0492144D03*
X0434001Y0461857D03*
X0434001Y0470144D03*
X0434001Y0482857D03*
X0434001Y0491144D03*
G54D32*
X0079857Y0664001D03*
X0088144Y0664001D03*
X0059857Y0664001D03*
X0068144Y0664001D03*
G54D10*
X0212154Y1013501D03*
X0218847Y1013501D03*
G54D11*
X0212260Y1021001D03*
X0219741Y1021001D03*
G54D12*
X0192063Y1033001D03*
X0185938Y1033001D03*
G54D13*
X0221001Y1007063D03*
X0221001Y1000938D03*
X0211501Y1007063D03*
X0211501Y1000938D03*
G54D10*
X0140347Y1084001D03*
X0133654Y1084001D03*
G54D11*
X0140741Y1124001D03*
X0133260Y1124001D03*
G54D12*
X0289938Y1035701D03*
X0296063Y1035701D03*
G54D13*
X0281001Y1041763D03*
X0281001Y1035638D03*
X0275001Y1035638D03*
X0275001Y1041763D03*
X0275001Y1047638D03*
X0275001Y1053763D03*
G54D12*
X0274938Y1059701D03*
X0281063Y1059701D03*
G54D13*
X0281001Y1053763D03*
X0281001Y1047638D03*
G54D12*
X0321063Y1041201D03*
X0314938Y1041201D03*
X0321063Y1033201D03*
X0314938Y1033201D03*
G54D11*
X0198260Y1091001D03*
X0205741Y1091001D03*
X0181260Y1091001D03*
X0188741Y1091001D03*
G54D14*
X0170751Y1123741D03*
X0170751Y1116260D03*
G54D15*
X0193001Y1121056D03*
X0193001Y1102945D03*
G54D16*
X0168048Y1102001D03*
X0173953Y1102001D03*
G54D12*
X0174063Y1091001D03*
X0167938Y1091001D03*
G54D16*
X0123953Y1126001D03*
X0118048Y1126001D03*
G54D12*
X0116938Y1084001D03*
X0123063Y1084001D03*
G54D17*
X0234001Y1101701D03*
X0234001Y1097701D03*
X0234001Y1115701D03*
X0276001Y1016001D03*
X0279001Y1016001D03*
X0373001Y1101701D03*
X0373001Y1097701D03*
X0373001Y1114701D03*
X0373001Y1052701D03*
X0373001Y1048701D03*
X0123001Y1078001D03*
X0150001Y1083001D03*
X0105001Y1114001D03*
X0150001Y1130001D03*
X0150001Y1102001D03*
G54D14*
X0443001Y1012741D03*
X0443001Y1005260D03*
X0427001Y1012741D03*
X0427001Y1005260D03*
G54D18*
X0457001Y1012347D03*
X0457001Y1005654D03*
G54D13*
X0413001Y1004938D03*
X0413001Y1011063D03*
G54D16*
X0400001Y1010953D03*
X0400001Y1005048D03*
G54D19*
X0476689Y1009001D03*
X0491312Y1009001D03*
G54D17*
X0077001Y0984001D03*
X0085001Y1014001D03*
X0133001Y1144001D03*
X0127001Y1064001D03*
X0137001Y1064001D03*
X0207001Y1001001D03*
X0180001Y1032001D03*
X0058001Y0928001D03*
X0491001Y1117001D03*
G54D20*
X0443441Y1062639D03*
G54D21*
X0471394Y1097875D03*
G54D22*
X0420607Y1097875D03*
G54D23*
X0199516Y1009044D03*
X0199516Y1011603D03*
X0199516Y1014162D03*
X0199516Y1016721D03*
X0199516Y1019280D03*
X0199516Y1021839D03*
X0199516Y1024398D03*
X0199516Y1026957D03*
X0176485Y1026957D03*
X0176485Y1024398D03*
X0176485Y1021839D03*
X0176485Y1019280D03*
X0176485Y1016721D03*
X0176485Y1014162D03*
X0176485Y1011603D03*
X0176485Y1009044D03*
G54D13*
X0130001Y1001063D03*
X0130001Y0994938D03*
X0137001Y1001063D03*
X0137001Y0994938D03*
X0144001Y1001063D03*
X0144001Y0994938D03*
X0150001Y1001063D03*
X0150001Y0994938D03*
X0116001Y1001063D03*
X0116001Y0994938D03*
X0123001Y1001063D03*
X0123001Y0994938D03*
G54D24*
X0309662Y1046763D03*
X0309662Y1048732D03*
X0309662Y1050701D03*
X0309662Y1052669D03*
X0309662Y1054638D03*
X0292339Y1054638D03*
X0292339Y1052669D03*
X0292339Y1050701D03*
X0292339Y1048732D03*
X0292339Y1046763D03*
G54D25*
X0140601Y1096945D03*
X0140601Y1106001D03*
X0140601Y1115056D03*
G54D26*
X0115401Y1106001D03*
G54D17*
X0483001Y0998001D03*
X0433001Y0998001D03*
X0500501Y1072501D03*
X0391001Y1017001D03*
G54D27*
X0083345Y0951497D03*
X0095156Y0951497D03*
X0089251Y0938504D03*
X0083345Y0938504D03*
X0095156Y0938504D03*
G54D28*
X0089251Y0946871D03*
G54D18*
X0078001Y0952097D03*
X0078001Y0945404D03*
X0103001Y0944154D03*
X0103001Y0950847D03*
G54D29*
X0070501Y0938632D03*
G54D30*
X0070501Y0947884D03*
G54D11*
X0092991Y0960001D03*
X0085510Y0960001D03*
G54D31*
X0072301Y0906251D03*
X0108701Y0906251D03*
G54D11*
X0074241Y0960001D03*
X0066760Y0960001D03*
G54D27*
X0158345Y0951497D03*
X0170156Y0951497D03*
X0164251Y0938504D03*
X0158345Y0938504D03*
X0170156Y0938504D03*
G54D28*
X0164251Y0946871D03*
G54D18*
X0153001Y0952097D03*
X0153001Y0945404D03*
X0178001Y0944154D03*
X0178001Y0950847D03*
G54D29*
X0145501Y0938632D03*
G54D30*
X0145501Y0947884D03*
G54D11*
X0167991Y0960001D03*
X0160510Y0960001D03*
G54D31*
X0147301Y0906251D03*
X0183701Y0906251D03*
G54D11*
X0149241Y0960001D03*
X0141760Y0960001D03*
G54D27*
X0233345Y0951497D03*
X0245156Y0951497D03*
X0239251Y0938504D03*
X0233345Y0938504D03*
X0245156Y0938504D03*
G54D28*
X0239251Y0946871D03*
G54D18*
X0228001Y0952097D03*
X0228001Y0945404D03*
X0253001Y0944154D03*
X0253001Y0950847D03*
G54D29*
X0220501Y0938632D03*
G54D30*
X0220501Y0947884D03*
G54D11*
X0242991Y0960001D03*
X0235510Y0960001D03*
G54D31*
X0222301Y0906251D03*
X0258701Y0906251D03*
G54D11*
X0224241Y0960001D03*
X0216760Y0960001D03*
G54D27*
X0308345Y0951497D03*
X0320156Y0951497D03*
X0314251Y0938504D03*
X0308345Y0938504D03*
X0320156Y0938504D03*
G54D28*
X0314251Y0946871D03*
G54D18*
X0303001Y0952097D03*
X0303001Y0945404D03*
X0328001Y0944154D03*
X0328001Y0950847D03*
G54D29*
X0295501Y0938632D03*
G54D30*
X0295501Y0947884D03*
G54D11*
X0317991Y0960001D03*
X0310510Y0960001D03*
G54D31*
X0297301Y0906251D03*
X0333701Y0906251D03*
G54D11*
X0299241Y0960001D03*
X0291760Y0960001D03*
G54D27*
X0383345Y0951497D03*
X0395156Y0951497D03*
X0389251Y0938504D03*
X0383345Y0938504D03*
X0395156Y0938504D03*
G54D28*
X0389251Y0946871D03*
G54D18*
X0378001Y0952097D03*
X0378001Y0945404D03*
X0403001Y0944154D03*
X0403001Y0950847D03*
G54D29*
X0370501Y0938632D03*
G54D30*
X0370501Y0947884D03*
G54D11*
X0392991Y0960001D03*
X0385510Y0960001D03*
G54D31*
X0372301Y0906251D03*
X0408701Y0906251D03*
G54D11*
X0374241Y0960001D03*
X0366760Y0960001D03*
G54D27*
X0458345Y0951497D03*
X0470156Y0951497D03*
X0464251Y0938504D03*
X0458345Y0938504D03*
X0470156Y0938504D03*
G54D28*
X0464251Y0946871D03*
G54D18*
X0453001Y0952097D03*
X0453001Y0945404D03*
X0478001Y0944154D03*
X0478001Y0950847D03*
G54D29*
X0445501Y0938632D03*
G54D30*
X0445501Y0947884D03*
G54D11*
X0467991Y0960001D03*
X0460510Y0960001D03*
G54D31*
X0447301Y0906251D03*
X0483701Y0906251D03*
G54D11*
X0449241Y0960001D03*
X0441760Y0960001D03*
G54D32*
X0059857Y1084001D03*
X0068144Y1084001D03*
X0059857Y1044001D03*
X0068144Y1044001D03*
G54D33*
X0064001Y1063331D03*
X0067741Y1054670D03*
X0060260Y1054670D03*
G54D32*
X0059857Y1074001D03*
X0068144Y1074001D03*
G54D34*
X0088331Y1059001D03*
X0079670Y1055260D03*
X0079670Y1062741D03*
G54D32*
X0079857Y1044001D03*
X0088144Y1044001D03*
X0079857Y1074001D03*
X0088144Y1074001D03*
X0079857Y1084001D03*
X0088144Y1084001D03*
G54D33*
X0077001Y0855331D03*
X0080741Y0846670D03*
X0073260Y0846670D03*
X0150001Y0855331D03*
X0153741Y0846670D03*
X0146260Y0846670D03*
X0224501Y0855331D03*
X0228241Y0846670D03*
X0220760Y0846670D03*
X0300001Y0855331D03*
X0303741Y0846670D03*
X0296260Y0846670D03*
X0371001Y0855331D03*
X0374741Y0846670D03*
X0367260Y0846670D03*
X0450501Y0855331D03*
X0454241Y0846670D03*
X0446760Y0846670D03*
G54D35*
X0062501Y0831857D03*
X0062501Y0840144D03*
X0062001Y0861144D03*
X0062001Y0852857D03*
X0135001Y0831857D03*
X0135001Y0840144D03*
X0134501Y0864144D03*
X0134501Y0855857D03*
X0210501Y0831857D03*
X0210501Y0840144D03*
X0211001Y0852857D03*
X0211001Y0861144D03*
X0285001Y0831857D03*
X0285001Y0840144D03*
X0285001Y0853857D03*
X0285001Y0862144D03*
X0356001Y0831857D03*
X0356001Y0840144D03*
X0356001Y0853857D03*
X0356001Y0862144D03*
X0434001Y0831857D03*
X0434001Y0840144D03*
X0434001Y0852857D03*
X0434001Y0861144D03*
G54D32*
X0079857Y1034001D03*
X0088144Y1034001D03*
X0059857Y1034001D03*
X0068144Y1034001D03*
G54D10*
X0699154Y0273501D03*
X0705847Y0273501D03*
G54D11*
X0699260Y0281001D03*
X0706741Y0281001D03*
G54D12*
X0679063Y0293001D03*
X0672938Y0293001D03*
G54D13*
X0708001Y0267063D03*
X0708001Y0260938D03*
X0698501Y0267063D03*
X0698501Y0260938D03*
G54D10*
X0627347Y0344001D03*
X0620654Y0344001D03*
G54D11*
X0627741Y0384001D03*
X0620260Y0384001D03*
G54D12*
X0776938Y0295701D03*
X0783063Y0295701D03*
G54D13*
X0768001Y0301763D03*
X0768001Y0295638D03*
X0762001Y0295638D03*
X0762001Y0301763D03*
X0762001Y0307638D03*
X0762001Y0313763D03*
G54D12*
X0761938Y0319701D03*
X0768063Y0319701D03*
G54D13*
X0768001Y0313763D03*
X0768001Y0307638D03*
G54D12*
X0808063Y0301201D03*
X0801938Y0301201D03*
X0808063Y0293201D03*
X0801938Y0293201D03*
G54D11*
X0685260Y0351001D03*
X0692741Y0351001D03*
X0668260Y0351001D03*
X0675741Y0351001D03*
G54D14*
X0657751Y0383741D03*
X0657751Y0376260D03*
G54D15*
X0680001Y0381056D03*
X0680001Y0362945D03*
G54D16*
X0655048Y0362001D03*
X0660953Y0362001D03*
G54D12*
X0661063Y0351001D03*
X0654938Y0351001D03*
G54D16*
X0610953Y0386001D03*
X0605048Y0386001D03*
G54D12*
X0603938Y0344001D03*
X0610063Y0344001D03*
G54D17*
X0721001Y0361701D03*
X0721001Y0357701D03*
X0721001Y0375701D03*
X0763001Y0276001D03*
X0766001Y0276001D03*
X0860001Y0361701D03*
X0860001Y0357701D03*
X0860001Y0374701D03*
X0860001Y0312701D03*
X0860001Y0308701D03*
X0610001Y0338001D03*
X0637001Y0343001D03*
X0592001Y0374001D03*
X0637001Y0390001D03*
X0637001Y0362001D03*
G54D14*
X0930001Y0272741D03*
X0930001Y0265260D03*
X0914001Y0272741D03*
X0914001Y0265260D03*
G54D18*
X0944001Y0272347D03*
X0944001Y0265654D03*
G54D13*
X0900001Y0264938D03*
X0900001Y0271063D03*
G54D16*
X0887001Y0270953D03*
X0887001Y0265048D03*
G54D19*
X0963689Y0269001D03*
X0978312Y0269001D03*
G54D17*
X0564001Y0244001D03*
X0572001Y0274001D03*
X0620001Y0404001D03*
X0614001Y0324001D03*
X0624001Y0324001D03*
X0694001Y0261001D03*
X0667001Y0292001D03*
X0545001Y0188001D03*
X0978001Y0377001D03*
G54D20*
X0930441Y0322639D03*
G54D21*
X0958394Y0357875D03*
G54D22*
X0907607Y0357875D03*
G54D23*
X0686516Y0269044D03*
X0686516Y0271603D03*
X0686516Y0274162D03*
X0686516Y0276721D03*
X0686516Y0279280D03*
X0686516Y0281839D03*
X0686516Y0284398D03*
X0686516Y0286957D03*
X0663485Y0286957D03*
X0663485Y0284398D03*
X0663485Y0281839D03*
X0663485Y0279280D03*
X0663485Y0276721D03*
X0663485Y0274162D03*
X0663485Y0271603D03*
X0663485Y0269044D03*
G54D13*
X0617001Y0261063D03*
X0617001Y0254938D03*
X0624001Y0261063D03*
X0624001Y0254938D03*
X0631001Y0261063D03*
X0631001Y0254938D03*
X0637001Y0261063D03*
X0637001Y0254938D03*
X0603001Y0261063D03*
X0603001Y0254938D03*
X0610001Y0261063D03*
X0610001Y0254938D03*
G54D24*
X0796662Y0306763D03*
X0796662Y0308732D03*
X0796662Y0310701D03*
X0796662Y0312669D03*
X0796662Y0314638D03*
X0779339Y0314638D03*
X0779339Y0312669D03*
X0779339Y0310701D03*
X0779339Y0308732D03*
X0779339Y0306763D03*
G54D25*
X0627601Y0356945D03*
X0627601Y0366001D03*
X0627601Y0375056D03*
G54D26*
X0602401Y0366001D03*
G54D17*
X0970001Y0258001D03*
X0920001Y0258001D03*
X0987501Y0332501D03*
X0878001Y0277001D03*
G54D27*
X0570345Y0211497D03*
X0582156Y0211497D03*
X0576251Y0198504D03*
X0570345Y0198504D03*
X0582156Y0198504D03*
G54D28*
X0576251Y0206871D03*
G54D18*
X0565001Y0212097D03*
X0565001Y0205404D03*
X0590001Y0204154D03*
X0590001Y0210847D03*
G54D29*
X0557501Y0198632D03*
G54D30*
X0557501Y0207884D03*
G54D11*
X0579991Y0220001D03*
X0572510Y0220001D03*
G54D31*
X0559301Y0166251D03*
X0595701Y0166251D03*
G54D11*
X0561241Y0220001D03*
X0553760Y0220001D03*
G54D27*
X0645345Y0211497D03*
X0657156Y0211497D03*
X0651251Y0198504D03*
X0645345Y0198504D03*
X0657156Y0198504D03*
G54D28*
X0651251Y0206871D03*
G54D18*
X0640001Y0212097D03*
X0640001Y0205404D03*
X0665001Y0204154D03*
X0665001Y0210847D03*
G54D29*
X0632501Y0198632D03*
G54D30*
X0632501Y0207884D03*
G54D11*
X0654991Y0220001D03*
X0647510Y0220001D03*
G54D31*
X0634301Y0166251D03*
X0670701Y0166251D03*
G54D11*
X0636241Y0220001D03*
X0628760Y0220001D03*
G54D27*
X0720345Y0211497D03*
X0732156Y0211497D03*
X0726251Y0198504D03*
X0720345Y0198504D03*
X0732156Y0198504D03*
G54D28*
X0726251Y0206871D03*
G54D18*
X0715001Y0212097D03*
X0715001Y0205404D03*
X0740001Y0204154D03*
X0740001Y0210847D03*
G54D29*
X0707501Y0198632D03*
G54D30*
X0707501Y0207884D03*
G54D11*
X0729991Y0220001D03*
X0722510Y0220001D03*
G54D31*
X0709301Y0166251D03*
X0745701Y0166251D03*
G54D11*
X0711241Y0220001D03*
X0703760Y0220001D03*
G54D27*
X0795345Y0211497D03*
X0807156Y0211497D03*
X0801251Y0198504D03*
X0795345Y0198504D03*
X0807156Y0198504D03*
G54D28*
X0801251Y0206871D03*
G54D18*
X0790001Y0212097D03*
X0790001Y0205404D03*
X0815001Y0204154D03*
X0815001Y0210847D03*
G54D29*
X0782501Y0198632D03*
G54D30*
X0782501Y0207884D03*
G54D11*
X0804991Y0220001D03*
X0797510Y0220001D03*
G54D31*
X0784301Y0166251D03*
X0820701Y0166251D03*
G54D11*
X0786241Y0220001D03*
X0778760Y0220001D03*
G54D27*
X0870345Y0211497D03*
X0882156Y0211497D03*
X0876251Y0198504D03*
X0870345Y0198504D03*
X0882156Y0198504D03*
G54D28*
X0876251Y0206871D03*
G54D18*
X0865001Y0212097D03*
X0865001Y0205404D03*
X0890001Y0204154D03*
X0890001Y0210847D03*
G54D29*
X0857501Y0198632D03*
G54D30*
X0857501Y0207884D03*
G54D11*
X0879991Y0220001D03*
X0872510Y0220001D03*
G54D31*
X0859301Y0166251D03*
X0895701Y0166251D03*
G54D11*
X0861241Y0220001D03*
X0853760Y0220001D03*
G54D27*
X0945345Y0211497D03*
X0957156Y0211497D03*
X0951251Y0198504D03*
X0945345Y0198504D03*
X0957156Y0198504D03*
G54D28*
X0951251Y0206871D03*
G54D18*
X0940001Y0212097D03*
X0940001Y0205404D03*
X0965001Y0204154D03*
X0965001Y0210847D03*
G54D29*
X0932501Y0198632D03*
G54D30*
X0932501Y0207884D03*
G54D11*
X0954991Y0220001D03*
X0947510Y0220001D03*
G54D31*
X0934301Y0166251D03*
X0970701Y0166251D03*
G54D11*
X0936241Y0220001D03*
X0928760Y0220001D03*
G54D32*
X0546857Y0344001D03*
X0555144Y0344001D03*
X0546857Y0304001D03*
X0555144Y0304001D03*
G54D33*
X0551001Y0323331D03*
X0554741Y0314670D03*
X0547260Y0314670D03*
G54D32*
X0546857Y0334001D03*
X0555144Y0334001D03*
G54D34*
X0575331Y0319001D03*
X0566670Y0315260D03*
X0566670Y0322741D03*
G54D32*
X0566857Y0304001D03*
X0575144Y0304001D03*
X0566857Y0334001D03*
X0575144Y0334001D03*
X0566857Y0344001D03*
X0575144Y0344001D03*
G54D33*
X0564001Y0115331D03*
X0567741Y0106670D03*
X0560260Y0106670D03*
X0637001Y0115331D03*
X0640741Y0106670D03*
X0633260Y0106670D03*
X0711501Y0115331D03*
X0715241Y0106670D03*
X0707760Y0106670D03*
X0787001Y0115331D03*
X0790741Y0106670D03*
X0783260Y0106670D03*
X0858001Y0115331D03*
X0861741Y0106670D03*
X0854260Y0106670D03*
X0937501Y0115331D03*
X0941241Y0106670D03*
X0933760Y0106670D03*
G54D35*
X0549501Y0091857D03*
X0549501Y0100144D03*
X0549001Y0121144D03*
X0549001Y0112857D03*
X0622001Y0091857D03*
X0622001Y0100144D03*
X0621501Y0124144D03*
X0621501Y0115857D03*
X0697501Y0091857D03*
X0697501Y0100144D03*
X0698001Y0112857D03*
X0698001Y0121144D03*
X0772001Y0091857D03*
X0772001Y0100144D03*
X0772001Y0113857D03*
X0772001Y0122144D03*
X0843001Y0091857D03*
X0843001Y0100144D03*
X0843001Y0113857D03*
X0843001Y0122144D03*
X0921001Y0091857D03*
X0921001Y0100144D03*
X0921001Y0112857D03*
X0921001Y0121144D03*
G54D32*
X0566857Y0294001D03*
X0575144Y0294001D03*
X0546857Y0294001D03*
X0555144Y0294001D03*
G54D10*
X0699154Y0643501D03*
X0705847Y0643501D03*
G54D11*
X0699260Y0651001D03*
X0706741Y0651001D03*
G54D12*
X0679063Y0663001D03*
X0672938Y0663001D03*
G54D13*
X0708001Y0637063D03*
X0708001Y0630938D03*
X0698501Y0637063D03*
X0698501Y0630938D03*
G54D10*
X0627347Y0714001D03*
X0620654Y0714001D03*
G54D11*
X0627741Y0754001D03*
X0620260Y0754001D03*
G54D12*
X0776938Y0665701D03*
X0783063Y0665701D03*
G54D13*
X0768001Y0671763D03*
X0768001Y0665638D03*
X0762001Y0665638D03*
X0762001Y0671763D03*
X0762001Y0677638D03*
X0762001Y0683763D03*
G54D12*
X0761938Y0689701D03*
X0768063Y0689701D03*
G54D13*
X0768001Y0683763D03*
X0768001Y0677638D03*
G54D12*
X0808063Y0671201D03*
X0801938Y0671201D03*
X0808063Y0663201D03*
X0801938Y0663201D03*
G54D11*
X0685260Y0721001D03*
X0692741Y0721001D03*
X0668260Y0721001D03*
X0675741Y0721001D03*
G54D14*
X0657751Y0753741D03*
X0657751Y0746260D03*
G54D15*
X0680001Y0751056D03*
X0680001Y0732945D03*
G54D16*
X0655048Y0732001D03*
X0660953Y0732001D03*
G54D12*
X0661063Y0721001D03*
X0654938Y0721001D03*
G54D16*
X0610953Y0756001D03*
X0605048Y0756001D03*
G54D12*
X0603938Y0714001D03*
X0610063Y0714001D03*
G54D17*
X0721001Y0731701D03*
X0721001Y0727701D03*
X0721001Y0745701D03*
X0763001Y0646001D03*
X0766001Y0646001D03*
X0860001Y0731701D03*
X0860001Y0727701D03*
X0860001Y0744701D03*
X0860001Y0682701D03*
X0860001Y0678701D03*
X0610001Y0708001D03*
X0637001Y0713001D03*
X0592001Y0744001D03*
X0637001Y0760001D03*
X0637001Y0732001D03*
G54D14*
X0930001Y0642741D03*
X0930001Y0635260D03*
X0914001Y0642741D03*
X0914001Y0635260D03*
G54D18*
X0944001Y0642347D03*
X0944001Y0635654D03*
G54D13*
X0900001Y0634938D03*
X0900001Y0641063D03*
G54D16*
X0887001Y0640953D03*
X0887001Y0635048D03*
G54D19*
X0963689Y0639001D03*
X0978312Y0639001D03*
G54D17*
X0564001Y0614001D03*
X0572001Y0644001D03*
X0620001Y0774001D03*
X0614001Y0694001D03*
X0624001Y0694001D03*
X0694001Y0631001D03*
X0667001Y0662001D03*
X0545001Y0558001D03*
X0978001Y0747001D03*
G54D20*
X0930441Y0692639D03*
G54D21*
X0958394Y0727875D03*
G54D22*
X0907607Y0727875D03*
G54D23*
X0686516Y0639044D03*
X0686516Y0641603D03*
X0686516Y0644162D03*
X0686516Y0646721D03*
X0686516Y0649280D03*
X0686516Y0651839D03*
X0686516Y0654398D03*
X0686516Y0656957D03*
X0663485Y0656957D03*
X0663485Y0654398D03*
X0663485Y0651839D03*
X0663485Y0649280D03*
X0663485Y0646721D03*
X0663485Y0644162D03*
X0663485Y0641603D03*
X0663485Y0639044D03*
G54D13*
X0617001Y0631063D03*
X0617001Y0624938D03*
X0624001Y0631063D03*
X0624001Y0624938D03*
X0631001Y0631063D03*
X0631001Y0624938D03*
X0637001Y0631063D03*
X0637001Y0624938D03*
X0603001Y0631063D03*
X0603001Y0624938D03*
X0610001Y0631063D03*
X0610001Y0624938D03*
G54D24*
X0796662Y0676763D03*
X0796662Y0678732D03*
X0796662Y0680701D03*
X0796662Y0682669D03*
X0796662Y0684638D03*
X0779339Y0684638D03*
X0779339Y0682669D03*
X0779339Y0680701D03*
X0779339Y0678732D03*
X0779339Y0676763D03*
G54D25*
X0627601Y0726945D03*
X0627601Y0736001D03*
X0627601Y0745056D03*
G54D26*
X0602401Y0736001D03*
G54D17*
X0970001Y0628001D03*
X0920001Y0628001D03*
X0987501Y0702501D03*
X0878001Y0647001D03*
G54D27*
X0570345Y0581497D03*
X0582156Y0581497D03*
X0576251Y0568504D03*
X0570345Y0568504D03*
X0582156Y0568504D03*
G54D28*
X0576251Y0576871D03*
G54D18*
X0565001Y0582097D03*
X0565001Y0575404D03*
X0590001Y0574154D03*
X0590001Y0580847D03*
G54D29*
X0557501Y0568632D03*
G54D30*
X0557501Y0577884D03*
G54D11*
X0579991Y0590001D03*
X0572510Y0590001D03*
G54D31*
X0559301Y0536251D03*
X0595701Y0536251D03*
G54D11*
X0561241Y0590001D03*
X0553760Y0590001D03*
G54D27*
X0645345Y0581497D03*
X0657156Y0581497D03*
X0651251Y0568504D03*
X0645345Y0568504D03*
X0657156Y0568504D03*
G54D28*
X0651251Y0576871D03*
G54D18*
X0640001Y0582097D03*
X0640001Y0575404D03*
X0665001Y0574154D03*
X0665001Y0580847D03*
G54D29*
X0632501Y0568632D03*
G54D30*
X0632501Y0577884D03*
G54D11*
X0654991Y0590001D03*
X0647510Y0590001D03*
G54D31*
X0634301Y0536251D03*
X0670701Y0536251D03*
G54D11*
X0636241Y0590001D03*
X0628760Y0590001D03*
G54D27*
X0720345Y0581497D03*
X0732156Y0581497D03*
X0726251Y0568504D03*
X0720345Y0568504D03*
X0732156Y0568504D03*
G54D28*
X0726251Y0576871D03*
G54D18*
X0715001Y0582097D03*
X0715001Y0575404D03*
X0740001Y0574154D03*
X0740001Y0580847D03*
G54D29*
X0707501Y0568632D03*
G54D30*
X0707501Y0577884D03*
G54D11*
X0729991Y0590001D03*
X0722510Y0590001D03*
G54D31*
X0709301Y0536251D03*
X0745701Y0536251D03*
G54D11*
X0711241Y0590001D03*
X0703760Y0590001D03*
G54D27*
X0795345Y0581497D03*
X0807156Y0581497D03*
X0801251Y0568504D03*
X0795345Y0568504D03*
X0807156Y0568504D03*
G54D28*
X0801251Y0576871D03*
G54D18*
X0790001Y0582097D03*
X0790001Y0575404D03*
X0815001Y0574154D03*
X0815001Y0580847D03*
G54D29*
X0782501Y0568632D03*
G54D30*
X0782501Y0577884D03*
G54D11*
X0804991Y0590001D03*
X0797510Y0590001D03*
G54D31*
X0784301Y0536251D03*
X0820701Y0536251D03*
G54D11*
X0786241Y0590001D03*
X0778760Y0590001D03*
G54D27*
X0870345Y0581497D03*
X0882156Y0581497D03*
X0876251Y0568504D03*
X0870345Y0568504D03*
X0882156Y0568504D03*
G54D28*
X0876251Y0576871D03*
G54D18*
X0865001Y0582097D03*
X0865001Y0575404D03*
X0890001Y0574154D03*
X0890001Y0580847D03*
G54D29*
X0857501Y0568632D03*
G54D30*
X0857501Y0577884D03*
G54D11*
X0879991Y0590001D03*
X0872510Y0590001D03*
G54D31*
X0859301Y0536251D03*
X0895701Y0536251D03*
G54D11*
X0861241Y0590001D03*
X0853760Y0590001D03*
G54D27*
X0945345Y0581497D03*
X0957156Y0581497D03*
X0951251Y0568504D03*
X0945345Y0568504D03*
X0957156Y0568504D03*
G54D28*
X0951251Y0576871D03*
G54D18*
X0940001Y0582097D03*
X0940001Y0575404D03*
X0965001Y0574154D03*
X0965001Y0580847D03*
G54D29*
X0932501Y0568632D03*
G54D30*
X0932501Y0577884D03*
G54D11*
X0954991Y0590001D03*
X0947510Y0590001D03*
G54D31*
X0934301Y0536251D03*
X0970701Y0536251D03*
G54D11*
X0936241Y0590001D03*
X0928760Y0590001D03*
G54D32*
X0546857Y0714001D03*
X0555144Y0714001D03*
X0546857Y0674001D03*
X0555144Y0674001D03*
G54D33*
X0551001Y0693331D03*
X0554741Y0684670D03*
X0547260Y0684670D03*
G54D32*
X0546857Y0704001D03*
X0555144Y0704001D03*
G54D34*
X0575331Y0689001D03*
X0566670Y0685260D03*
X0566670Y0692741D03*
G54D32*
X0566857Y0674001D03*
X0575144Y0674001D03*
X0566857Y0704001D03*
X0575144Y0704001D03*
X0566857Y0714001D03*
X0575144Y0714001D03*
G54D33*
X0564001Y0485331D03*
X0567741Y0476670D03*
X0560260Y0476670D03*
X0637001Y0485331D03*
X0640741Y0476670D03*
X0633260Y0476670D03*
X0711501Y0485331D03*
X0715241Y0476670D03*
X0707760Y0476670D03*
X0787001Y0485331D03*
X0790741Y0476670D03*
X0783260Y0476670D03*
X0858001Y0485331D03*
X0861741Y0476670D03*
X0854260Y0476670D03*
X0937501Y0485331D03*
X0941241Y0476670D03*
X0933760Y0476670D03*
G54D35*
X0549501Y0461857D03*
X0549501Y0470144D03*
X0549001Y0491144D03*
X0549001Y0482857D03*
X0622001Y0461857D03*
X0622001Y0470144D03*
X0621501Y0494144D03*
X0621501Y0485857D03*
X0697501Y0461857D03*
X0697501Y0470144D03*
X0698001Y0482857D03*
X0698001Y0491144D03*
X0772001Y0461857D03*
X0772001Y0470144D03*
X0772001Y0483857D03*
X0772001Y0492144D03*
X0843001Y0461857D03*
X0843001Y0470144D03*
X0843001Y0483857D03*
X0843001Y0492144D03*
X0921001Y0461857D03*
X0921001Y0470144D03*
X0921001Y0482857D03*
X0921001Y0491144D03*
G54D32*
X0566857Y0664001D03*
X0575144Y0664001D03*
X0546857Y0664001D03*
X0555144Y0664001D03*
G54D10*
X0699154Y1013501D03*
X0705847Y1013501D03*
G54D11*
X0699260Y1021001D03*
X0706741Y1021001D03*
G54D12*
X0679063Y1033001D03*
X0672938Y1033001D03*
G54D13*
X0708001Y1007063D03*
X0708001Y1000938D03*
X0698501Y1007063D03*
X0698501Y1000938D03*
G54D10*
X0627347Y1084001D03*
X0620654Y1084001D03*
G54D11*
X0627741Y1124001D03*
X0620260Y1124001D03*
G54D12*
X0776938Y1035701D03*
X0783063Y1035701D03*
G54D13*
X0768001Y1041763D03*
X0768001Y1035638D03*
X0762001Y1035638D03*
X0762001Y1041763D03*
X0762001Y1047638D03*
X0762001Y1053763D03*
G54D12*
X0761938Y1059701D03*
X0768063Y1059701D03*
G54D13*
X0768001Y1053763D03*
X0768001Y1047638D03*
G54D12*
X0808063Y1041201D03*
X0801938Y1041201D03*
X0808063Y1033201D03*
X0801938Y1033201D03*
G54D11*
X0685260Y1091001D03*
X0692741Y1091001D03*
X0668260Y1091001D03*
X0675741Y1091001D03*
G54D14*
X0657751Y1123741D03*
X0657751Y1116260D03*
G54D15*
X0680001Y1121056D03*
X0680001Y1102945D03*
G54D16*
X0655048Y1102001D03*
X0660953Y1102001D03*
G54D12*
X0661063Y1091001D03*
X0654938Y1091001D03*
G54D16*
X0610953Y1126001D03*
X0605048Y1126001D03*
G54D12*
X0603938Y1084001D03*
X0610063Y1084001D03*
G54D17*
X0721001Y1101701D03*
X0721001Y1097701D03*
X0721001Y1115701D03*
X0763001Y1016001D03*
X0766001Y1016001D03*
X0860001Y1101701D03*
X0860001Y1097701D03*
X0860001Y1114701D03*
X0860001Y1052701D03*
X0860001Y1048701D03*
X0610001Y1078001D03*
X0637001Y1083001D03*
X0592001Y1114001D03*
X0637001Y1130001D03*
X0637001Y1102001D03*
G54D14*
X0930001Y1012741D03*
X0930001Y1005260D03*
X0914001Y1012741D03*
X0914001Y1005260D03*
G54D18*
X0944001Y1012347D03*
X0944001Y1005654D03*
G54D13*
X0900001Y1004938D03*
X0900001Y1011063D03*
G54D16*
X0887001Y1010953D03*
X0887001Y1005048D03*
G54D19*
X0963689Y1009001D03*
X0978312Y1009001D03*
G54D17*
X0564001Y0984001D03*
X0572001Y1014001D03*
X0620001Y1144001D03*
X0614001Y1064001D03*
X0624001Y1064001D03*
X0694001Y1001001D03*
X0667001Y1032001D03*
X0545001Y0928001D03*
X0978001Y1117001D03*
G54D20*
X0930441Y1062639D03*
G54D21*
X0958394Y1097875D03*
G54D22*
X0907607Y1097875D03*
G54D23*
X0686516Y1009044D03*
X0686516Y1011603D03*
X0686516Y1014162D03*
X0686516Y1016721D03*
X0686516Y1019280D03*
X0686516Y1021839D03*
X0686516Y1024398D03*
X0686516Y1026957D03*
X0663485Y1026957D03*
X0663485Y1024398D03*
X0663485Y1021839D03*
X0663485Y1019280D03*
X0663485Y1016721D03*
X0663485Y1014162D03*
X0663485Y1011603D03*
X0663485Y1009044D03*
G54D13*
X0617001Y1001063D03*
X0617001Y0994938D03*
X0624001Y1001063D03*
X0624001Y0994938D03*
X0631001Y1001063D03*
X0631001Y0994938D03*
X0637001Y1001063D03*
X0637001Y0994938D03*
X0603001Y1001063D03*
X0603001Y0994938D03*
X0610001Y1001063D03*
X0610001Y0994938D03*
G54D24*
X0796662Y1046763D03*
X0796662Y1048732D03*
X0796662Y1050701D03*
X0796662Y1052669D03*
X0796662Y1054638D03*
X0779339Y1054638D03*
X0779339Y1052669D03*
X0779339Y1050701D03*
X0779339Y1048732D03*
X0779339Y1046763D03*
G54D25*
X0627601Y1096945D03*
X0627601Y1106001D03*
X0627601Y1115056D03*
G54D26*
X0602401Y1106001D03*
G54D17*
X0970001Y0998001D03*
X0920001Y0998001D03*
X0987501Y1072501D03*
X0878001Y1017001D03*
G54D27*
X0570345Y0951497D03*
X0582156Y0951497D03*
X0576251Y0938504D03*
X0570345Y0938504D03*
X0582156Y0938504D03*
G54D28*
X0576251Y0946871D03*
G54D18*
X0565001Y0952097D03*
X0565001Y0945404D03*
X0590001Y0944154D03*
X0590001Y0950847D03*
G54D29*
X0557501Y0938632D03*
G54D30*
X0557501Y0947884D03*
G54D11*
X0579991Y0960001D03*
X0572510Y0960001D03*
G54D31*
X0559301Y0906251D03*
X0595701Y0906251D03*
G54D11*
X0561241Y0960001D03*
X0553760Y0960001D03*
G54D27*
X0645345Y0951497D03*
X0657156Y0951497D03*
X0651251Y0938504D03*
X0645345Y0938504D03*
X0657156Y0938504D03*
G54D28*
X0651251Y0946871D03*
G54D18*
X0640001Y0952097D03*
X0640001Y0945404D03*
X0665001Y0944154D03*
X0665001Y0950847D03*
G54D29*
X0632501Y0938632D03*
G54D30*
X0632501Y0947884D03*
G54D11*
X0654991Y0960001D03*
X0647510Y0960001D03*
G54D31*
X0634301Y0906251D03*
X0670701Y0906251D03*
G54D11*
X0636241Y0960001D03*
X0628760Y0960001D03*
G54D27*
X0720345Y0951497D03*
X0732156Y0951497D03*
X0726251Y0938504D03*
X0720345Y0938504D03*
X0732156Y0938504D03*
G54D28*
X0726251Y0946871D03*
G54D18*
X0715001Y0952097D03*
X0715001Y0945404D03*
X0740001Y0944154D03*
X0740001Y0950847D03*
G54D29*
X0707501Y0938632D03*
G54D30*
X0707501Y0947884D03*
G54D11*
X0729991Y0960001D03*
X0722510Y0960001D03*
G54D31*
X0709301Y0906251D03*
X0745701Y0906251D03*
G54D11*
X0711241Y0960001D03*
X0703760Y0960001D03*
G54D27*
X0795345Y0951497D03*
X0807156Y0951497D03*
X0801251Y0938504D03*
X0795345Y0938504D03*
X0807156Y0938504D03*
G54D28*
X0801251Y0946871D03*
G54D18*
X0790001Y0952097D03*
X0790001Y0945404D03*
X0815001Y0944154D03*
X0815001Y0950847D03*
G54D29*
X0782501Y0938632D03*
G54D30*
X0782501Y0947884D03*
G54D11*
X0804991Y0960001D03*
X0797510Y0960001D03*
G54D31*
X0784301Y0906251D03*
X0820701Y0906251D03*
G54D11*
X0786241Y0960001D03*
X0778760Y0960001D03*
G54D27*
X0870345Y0951497D03*
X0882156Y0951497D03*
X0876251Y0938504D03*
X0870345Y0938504D03*
X0882156Y0938504D03*
G54D28*
X0876251Y0946871D03*
G54D18*
X0865001Y0952097D03*
X0865001Y0945404D03*
X0890001Y0944154D03*
X0890001Y0950847D03*
G54D29*
X0857501Y0938632D03*
G54D30*
X0857501Y0947884D03*
G54D11*
X0879991Y0960001D03*
X0872510Y0960001D03*
G54D31*
X0859301Y0906251D03*
X0895701Y0906251D03*
G54D11*
X0861241Y0960001D03*
X0853760Y0960001D03*
G54D27*
X0945345Y0951497D03*
X0957156Y0951497D03*
X0951251Y0938504D03*
X0945345Y0938504D03*
X0957156Y0938504D03*
G54D28*
X0951251Y0946871D03*
G54D18*
X0940001Y0952097D03*
X0940001Y0945404D03*
X0965001Y0944154D03*
X0965001Y0950847D03*
G54D29*
X0932501Y0938632D03*
G54D30*
X0932501Y0947884D03*
G54D11*
X0954991Y0960001D03*
X0947510Y0960001D03*
G54D31*
X0934301Y0906251D03*
X0970701Y0906251D03*
G54D11*
X0936241Y0960001D03*
X0928760Y0960001D03*
G54D32*
X0546857Y1084001D03*
X0555144Y1084001D03*
X0546857Y1044001D03*
X0555144Y1044001D03*
G54D33*
X0551001Y1063331D03*
X0554741Y1054670D03*
X0547260Y1054670D03*
G54D32*
X0546857Y1074001D03*
X0555144Y1074001D03*
G54D34*
X0575331Y1059001D03*
X0566670Y1055260D03*
X0566670Y1062741D03*
G54D32*
X0566857Y1044001D03*
X0575144Y1044001D03*
X0566857Y1074001D03*
X0575144Y1074001D03*
X0566857Y1084001D03*
X0575144Y1084001D03*
G54D33*
X0564001Y0855331D03*
X0567741Y0846670D03*
X0560260Y0846670D03*
X0637001Y0855331D03*
X0640741Y0846670D03*
X0633260Y0846670D03*
X0711501Y0855331D03*
X0715241Y0846670D03*
X0707760Y0846670D03*
X0787001Y0855331D03*
X0790741Y0846670D03*
X0783260Y0846670D03*
X0858001Y0855331D03*
X0861741Y0846670D03*
X0854260Y0846670D03*
X0937501Y0855331D03*
X0941241Y0846670D03*
X0933760Y0846670D03*
G54D35*
X0549501Y0831857D03*
X0549501Y0840144D03*
X0549001Y0861144D03*
X0549001Y0852857D03*
X0622001Y0831857D03*
X0622001Y0840144D03*
X0621501Y0864144D03*
X0621501Y0855857D03*
X0697501Y0831857D03*
X0697501Y0840144D03*
X0698001Y0852857D03*
X0698001Y0861144D03*
X0772001Y0831857D03*
X0772001Y0840144D03*
X0772001Y0853857D03*
X0772001Y0862144D03*
X0843001Y0831857D03*
X0843001Y0840144D03*
X0843001Y0853857D03*
X0843001Y0862144D03*
X0921001Y0831857D03*
X0921001Y0840144D03*
X0921001Y0852857D03*
X0921001Y0861144D03*
G54D32*
X0566857Y1034001D03*
X0575144Y1034001D03*
X0546857Y1034001D03*
X0555144Y1034001D03*
M02*
