*
%FSLAX25Y25*%
%MOIN*%
%ADD10C,0.010000*%
%IPPOS*%
%LNu.ger*%
%LPD*%
G75*
G54D10*
X0000000Y0000000D02*
X0000000Y1200001D01*
X0000000Y1200001D02*
X1064001Y1200001D01*
X1064001Y1200001D02*
X1064001Y0000000D01*
X1064001Y0000000D02*
X0000000Y0000000D01*
X0050001Y0050001D02*
X0050001Y0089905D01*
X0050001Y0410001D02*
X0158526Y0410001D01*
X0527001Y0410001D02*
X0527001Y0370096D01*
X0527001Y0050001D02*
X0418476Y0050001D01*
X0050001Y0237151D02*
X0050001Y0355796D01*
X0050001Y0104205D02*
X0050001Y0222851D01*
X0050001Y0370096D02*
X0050001Y0410001D01*
X0404176Y0050001D02*
X0172826Y0050001D01*
X0158526Y0050001D02*
X0050001Y0050001D01*
X0527001Y0222851D02*
X0527001Y0104205D01*
X0527001Y0355796D02*
X0527001Y0237151D01*
X0527001Y0089905D02*
X0527001Y0050001D01*
X0418476Y0410001D02*
X0527001Y0410001D01*
X0172826Y0410001D02*
X0404176Y0410001D01*
X0537001Y0050001D02*
X0537001Y0089905D01*
X0537001Y0410001D02*
X0645526Y0410001D01*
X1014001Y0410001D02*
X1014001Y0370096D01*
X1014001Y0050001D02*
X0905476Y0050001D01*
X0537001Y0237151D02*
X0537001Y0355796D01*
X0537001Y0104205D02*
X0537001Y0222851D01*
X0537001Y0370096D02*
X0537001Y0410001D01*
X0891176Y0050001D02*
X0659826Y0050001D01*
X0645526Y0050001D02*
X0537001Y0050001D01*
X1014001Y0222851D02*
X1014001Y0104205D01*
X1014001Y0355796D02*
X1014001Y0237151D01*
X1014001Y0089905D02*
X1014001Y0050001D01*
X0905476Y0410001D02*
X1014001Y0410001D01*
X0659826Y0410001D02*
X0891176Y0410001D01*
X0050001Y0420001D02*
X0050001Y0459905D01*
X0050001Y0780001D02*
X0158526Y0780001D01*
X0527001Y0780001D02*
X0527001Y0740096D01*
X0527001Y0420001D02*
X0418476Y0420001D01*
X0050001Y0607151D02*
X0050001Y0725796D01*
X0050001Y0474205D02*
X0050001Y0592851D01*
X0050001Y0740096D02*
X0050001Y0780001D01*
X0404176Y0420001D02*
X0172826Y0420001D01*
X0158526Y0420001D02*
X0050001Y0420001D01*
X0527001Y0592851D02*
X0527001Y0474205D01*
X0527001Y0725796D02*
X0527001Y0607151D01*
X0527001Y0459905D02*
X0527001Y0420001D01*
X0418476Y0780001D02*
X0527001Y0780001D01*
X0172826Y0780001D02*
X0404176Y0780001D01*
X0537001Y0420001D02*
X0537001Y0459905D01*
X0537001Y0780001D02*
X0645526Y0780001D01*
X1014001Y0780001D02*
X1014001Y0740096D01*
X1014001Y0420001D02*
X0905476Y0420001D01*
X0537001Y0607151D02*
X0537001Y0725796D01*
X0537001Y0474205D02*
X0537001Y0592851D01*
X0537001Y0740096D02*
X0537001Y0780001D01*
X0891176Y0420001D02*
X0659826Y0420001D01*
X0645526Y0420001D02*
X0537001Y0420001D01*
X1014001Y0592851D02*
X1014001Y0474205D01*
X1014001Y0725796D02*
X1014001Y0607151D01*
X1014001Y0459905D02*
X1014001Y0420001D01*
X0905476Y0780001D02*
X1014001Y0780001D01*
X0659826Y0780001D02*
X0891176Y0780001D01*
X0050001Y0790001D02*
X0050001Y0829905D01*
X0050001Y1150001D02*
X0158526Y1150001D01*
X0527001Y1150001D02*
X0527001Y1110096D01*
X0527001Y0790001D02*
X0418476Y0790001D01*
X0050001Y0977151D02*
X0050001Y1095796D01*
X0050001Y0844205D02*
X0050001Y0962851D01*
X0050001Y1110096D02*
X0050001Y1150001D01*
X0404176Y0790001D02*
X0172826Y0790001D01*
X0158526Y0790001D02*
X0050001Y0790001D01*
X0527001Y0962851D02*
X0527001Y0844205D01*
X0527001Y1095796D02*
X0527001Y0977151D01*
X0527001Y0829905D02*
X0527001Y0790001D01*
X0418476Y1150001D02*
X0527001Y1150001D01*
X0172826Y1150001D02*
X0404176Y1150001D01*
X0537001Y0790001D02*
X0537001Y0829905D01*
X0537001Y1150001D02*
X0645526Y1150001D01*
X1014001Y1150001D02*
X1014001Y1110096D01*
X1014001Y0790001D02*
X0905476Y0790001D01*
X0537001Y0977151D02*
X0537001Y1095796D01*
X0537001Y0844205D02*
X0537001Y0962851D01*
X0537001Y1110096D02*
X0537001Y1150001D01*
X0891176Y0790001D02*
X0659826Y0790001D01*
X0645526Y0790001D02*
X0537001Y0790001D01*
X1014001Y0962851D02*
X1014001Y0844205D01*
X1014001Y1095796D02*
X1014001Y0977151D01*
X1014001Y0829905D02*
X1014001Y0790001D01*
X0905476Y1150001D02*
X1014001Y1150001D01*
X0659826Y1150001D02*
X0891176Y1150001D01*
M02*
