G04 EAGLE Gerber X2 export*
%TF.Part,Single*%
%TF.FileFunction,Soldermask,Top,1*%
%TF.FilePolarity,Negative*%
%TF.GenerationSoftware,Autodesk,EAGLE,8.6.1*%
%TF.CreationDate,2018-02-09T18:52:30Z*%
G75*
%MOMM*%
%FSLAX34Y34*%
%LPD*%
%AMOC8*
5,1,8,0,0,1.08239X$1,22.5*%
G01*
%ADD10C,3.378200*%
%ADD11C,14.427200*%
%ADD12R,1.203200X1.303200*%
%ADD13R,2.006600X2.844800*%
%ADD14R,2.603200X2.003200*%
%ADD15R,2.003200X1.803200*%
%ADD16R,2.006600X1.320800*%
%ADD17C,2.743200*%
%ADD18C,2.997200*%
%ADD19R,0.609600X2.184400*%
%ADD20R,1.303200X1.203200*%
%ADD21R,1.603200X0.503200*%
%ADD22R,1.711200X1.711200*%
%ADD23C,1.711200*%
%ADD24C,3.403200*%
%ADD25R,2.082800X2.082800*%
%ADD26C,2.082800*%
%ADD27C,1.953200*%
%ADD28R,3.503200X4.603200*%
%ADD29R,4.103200X6.953200*%
%ADD30R,4.103200X6.403200*%
%ADD31R,1.003200X1.003200*%
%ADD32R,1.003197X0.958800*%
%ADD33R,0.803200X0.603200*%
%ADD34R,1.703200X1.503200*%
%ADD35R,2.006200X1.803200*%
%ADD36C,0.803200*%
%ADD37R,0.603200X0.503200*%
%ADD38R,1.473200X1.854200*%
%ADD39C,1.727200*%
%ADD40R,3.606800X1.092200*%
%ADD41R,3.454400X1.092200*%
%ADD42R,2.003200X5.903200*%
%ADD43P,3.656530X8X22.500000*%
%ADD44R,0.450000X1.350000*%
%ADD45R,0.958800X1.003197*%
%ADD46R,1.193800X0.508000*%
%ADD47R,0.152400X1.828800*%
%ADD48R,1.371600X1.803400*%
%ADD49R,1.828800X0.152400*%
%ADD50R,1.803400X1.371600*%
%ADD51R,1.041400X1.803400*%
%ADD52R,3.302000X1.803400*%
%ADD53R,1.503200X1.703200*%
%ADD54R,2.184400X0.609600*%
%ADD55R,1.203200X1.703200*%
%ADD56R,1.203200X1.603200*%
%ADD57P,4.343848X8X22.500000*%
%ADD58R,1.143000X1.905000*%
%ADD59R,6.858000X7.924800*%
%ADD60R,1.703200X1.203200*%
%ADD61P,4.343848X8X202.500000*%
%ADD62R,1.905000X1.143000*%
%ADD63R,7.924800X6.858000*%
%ADD64R,2.743200X1.473200*%
%ADD65C,1.359600*%


D10*
X1144270Y574802D03*
X1703070Y574802D03*
X2068576Y865124D03*
X2068576Y1423924D03*
X2068576Y1982724D03*
X1703070Y2272792D03*
X1144270Y2272792D03*
X778764Y1982724D03*
X778764Y1423924D03*
X778764Y865124D03*
D11*
X1423670Y1423670D03*
D12*
X529006Y2768584D03*
X529006Y2785584D03*
D13*
X707695Y2759304D03*
X655117Y2759304D03*
D14*
X615366Y2766994D03*
X615366Y2807494D03*
D15*
X554406Y2768164D03*
X554406Y2796164D03*
D16*
X582346Y2767178D03*
X582346Y2797150D03*
D17*
X757606Y2705964D02*
X757606Y2680564D01*
X605206Y2680564D02*
X605206Y2705964D01*
D18*
X681406Y2693264D03*
D12*
X363144Y2209022D03*
X363144Y2226022D03*
X454974Y2246732D03*
X471974Y2246732D03*
D19*
X452234Y2225904D03*
X445734Y2225904D03*
X439234Y2225904D03*
X432734Y2225904D03*
X426234Y2225904D03*
X419734Y2225904D03*
X413234Y2225904D03*
X406734Y2225904D03*
X400234Y2225904D03*
X393734Y2225904D03*
X387234Y2225904D03*
X380734Y2225904D03*
X380734Y2168500D03*
X387234Y2168500D03*
X393734Y2168500D03*
X400234Y2168500D03*
X406734Y2168500D03*
X413234Y2168500D03*
X419734Y2168500D03*
X426234Y2168500D03*
X432734Y2168500D03*
X439234Y2168500D03*
X445734Y2168500D03*
X452234Y2168500D03*
D20*
X490264Y2173582D03*
X473264Y2173582D03*
X520234Y2173582D03*
X503234Y2173582D03*
X490514Y2219042D03*
X473514Y2219042D03*
X520234Y2219042D03*
X503234Y2219042D03*
X490264Y2196442D03*
X473264Y2196442D03*
X520234Y2196442D03*
X503234Y2196442D03*
D21*
X1617018Y2651082D03*
X1617018Y2656082D03*
X1617018Y2661082D03*
X1617018Y2666082D03*
X1617018Y2671082D03*
X1573018Y2671082D03*
X1573018Y2666082D03*
X1573018Y2661082D03*
X1573018Y2656082D03*
X1573018Y2651082D03*
D22*
X1647088Y2751252D03*
D23*
X1634388Y2725852D03*
X1621688Y2751252D03*
X1608988Y2725852D03*
X1596288Y2751252D03*
X1583588Y2725852D03*
X1570888Y2751252D03*
X1558188Y2725852D03*
D24*
X1659788Y2814752D03*
X1545488Y2814752D03*
D12*
X1596678Y2628062D03*
X1613678Y2628062D03*
X1566198Y2628062D03*
X1583198Y2628062D03*
X1535718Y2628062D03*
X1552718Y2628062D03*
D20*
X1539138Y2661962D03*
X1539138Y2644962D03*
D12*
X1573038Y2692832D03*
X1556038Y2692832D03*
D20*
X1539138Y2692442D03*
X1539138Y2675442D03*
X1644548Y2665772D03*
X1644548Y2648772D03*
X1672488Y2665772D03*
X1672488Y2648772D03*
D21*
X1827838Y2651082D03*
X1827838Y2656082D03*
X1827838Y2661082D03*
X1827838Y2666082D03*
X1827838Y2671082D03*
X1783838Y2671082D03*
X1783838Y2666082D03*
X1783838Y2661082D03*
X1783838Y2656082D03*
X1783838Y2651082D03*
D22*
X1857908Y2751252D03*
D23*
X1845208Y2725852D03*
X1832508Y2751252D03*
X1819808Y2725852D03*
X1807108Y2751252D03*
X1794408Y2725852D03*
X1781708Y2751252D03*
X1769008Y2725852D03*
D24*
X1870608Y2814752D03*
X1756308Y2814752D03*
D12*
X1807498Y2628062D03*
X1824498Y2628062D03*
X1777018Y2628062D03*
X1794018Y2628062D03*
X1746538Y2628062D03*
X1763538Y2628062D03*
D20*
X1749958Y2661962D03*
X1749958Y2644962D03*
D12*
X1783858Y2692832D03*
X1766858Y2692832D03*
D20*
X1749958Y2692442D03*
X1749958Y2675442D03*
X1855368Y2665772D03*
X1855368Y2648772D03*
X1883308Y2665772D03*
X1883308Y2648772D03*
D10*
X2073808Y2756840D03*
X2105558Y2096440D03*
X2524658Y2096440D03*
X2556408Y2756840D03*
D25*
X2061108Y2699690D03*
D26*
X2086508Y2699690D03*
X2061108Y2674290D03*
X2086508Y2674290D03*
X2061108Y2648890D03*
X2086508Y2648890D03*
X2061108Y2623490D03*
X2086508Y2623490D03*
X2061108Y2598090D03*
X2086508Y2598090D03*
X2061108Y2572690D03*
X2086508Y2572690D03*
X2061108Y2547290D03*
X2086508Y2547290D03*
X2061108Y2521890D03*
X2086508Y2521890D03*
X2061108Y2496490D03*
X2086508Y2496490D03*
X2061108Y2471090D03*
X2086508Y2471090D03*
X2061108Y2445690D03*
X2086508Y2445690D03*
X2061108Y2420290D03*
X2086508Y2420290D03*
X2061108Y2394890D03*
X2086508Y2394890D03*
X2061108Y2369490D03*
X2086508Y2369490D03*
X2061108Y2344090D03*
X2086508Y2344090D03*
X2061108Y2318690D03*
X2086508Y2318690D03*
X2061108Y2293290D03*
X2086508Y2293290D03*
X2061108Y2267890D03*
X2086508Y2267890D03*
X2061108Y2242490D03*
X2086508Y2242490D03*
X2061108Y2217090D03*
X2086508Y2217090D03*
X2061108Y2191690D03*
X2086508Y2191690D03*
X2061108Y2166290D03*
X2086508Y2166290D03*
X2061108Y2140890D03*
X2086508Y2140890D03*
D25*
X2543708Y2699690D03*
D26*
X2569108Y2699690D03*
X2543708Y2674290D03*
X2569108Y2674290D03*
X2543708Y2648890D03*
X2569108Y2648890D03*
X2543708Y2623490D03*
X2569108Y2623490D03*
X2543708Y2598090D03*
X2569108Y2598090D03*
X2543708Y2572690D03*
X2569108Y2572690D03*
X2543708Y2547290D03*
X2569108Y2547290D03*
X2543708Y2521890D03*
X2569108Y2521890D03*
X2543708Y2496490D03*
X2569108Y2496490D03*
X2543708Y2471090D03*
X2569108Y2471090D03*
X2543708Y2445690D03*
X2569108Y2445690D03*
X2543708Y2420290D03*
X2569108Y2420290D03*
X2543708Y2394890D03*
X2569108Y2394890D03*
X2543708Y2369490D03*
X2569108Y2369490D03*
X2543708Y2344090D03*
X2569108Y2344090D03*
X2543708Y2318690D03*
X2569108Y2318690D03*
X2543708Y2293290D03*
X2569108Y2293290D03*
X2543708Y2267890D03*
X2569108Y2267890D03*
X2543708Y2242490D03*
X2569108Y2242490D03*
X2543708Y2217090D03*
X2569108Y2217090D03*
X2543708Y2191690D03*
X2569108Y2191690D03*
X2543708Y2166290D03*
X2569108Y2166290D03*
X2543708Y2140890D03*
X2569108Y2140890D03*
D27*
X509606Y2716444D03*
X484206Y2716444D03*
X458806Y2716444D03*
D28*
X1100838Y2766844D03*
D29*
X1171838Y2856344D03*
D30*
X1042838Y2856344D03*
D12*
X447142Y2124396D03*
X447142Y2107396D03*
X467284Y2124422D03*
X467284Y2107422D03*
D31*
X228702Y2392876D03*
X228702Y2407876D03*
D32*
X228702Y2461178D03*
X228702Y2476734D03*
D31*
X261722Y2392876D03*
X261722Y2407876D03*
D32*
X261722Y2461178D03*
X261722Y2476734D03*
D31*
X294742Y2395416D03*
X294742Y2410416D03*
D32*
X294742Y2461178D03*
X294742Y2476734D03*
D28*
X1359410Y2764812D03*
D29*
X1430410Y2854312D03*
D30*
X1301410Y2854312D03*
D33*
X463108Y1059104D03*
X484108Y1059104D03*
X463108Y1065104D03*
X463108Y1071104D03*
X463108Y1053104D03*
X463108Y1047104D03*
X484108Y1047104D03*
X484108Y1053104D03*
X484108Y1065104D03*
X484108Y1071104D03*
X473608Y1059104D03*
D34*
X506628Y1048284D03*
X506628Y1029284D03*
D35*
X436778Y1033954D03*
X436778Y1005514D03*
D12*
X436778Y1065844D03*
X436778Y1082844D03*
D36*
X532028Y1079424D03*
X532028Y1066724D03*
X417728Y1021004D03*
X532028Y1000684D03*
D33*
X472808Y1188644D03*
X472808Y1178644D03*
X472808Y1198644D03*
X499808Y1188644D03*
X499808Y1178644D03*
X499808Y1198644D03*
D20*
X477808Y1221664D03*
X494808Y1221664D03*
D36*
X491388Y1153084D03*
X481228Y1153084D03*
X415188Y1181024D03*
X463448Y1241984D03*
D37*
X462148Y878604D03*
X462148Y868604D03*
X462148Y858604D03*
X490148Y858604D03*
X490148Y868604D03*
X490148Y878604D03*
D38*
X476148Y868604D03*
D20*
X484648Y835584D03*
X467648Y835584D03*
D36*
X529488Y812724D03*
X519328Y810184D03*
X465988Y911784D03*
X478688Y810184D03*
D39*
X599262Y1462430D02*
X614502Y1462430D01*
X614502Y1437030D02*
X599262Y1437030D01*
X599262Y1411630D02*
X614502Y1411630D01*
X614502Y1386230D02*
X599262Y1386230D01*
X599262Y1360830D02*
X614502Y1360830D01*
X614502Y1335430D02*
X599262Y1335430D01*
X337602Y1462430D02*
X322362Y1462430D01*
X322362Y1335430D02*
X337602Y1335430D01*
D12*
X637362Y1385350D03*
X637362Y1402350D03*
D36*
X662762Y1332890D03*
X662762Y1343050D03*
X662762Y1381150D03*
X459562Y1495450D03*
D23*
X2434844Y1819656D03*
X2434844Y1845056D03*
X2434844Y1870456D03*
X2434844Y1895856D03*
X2257044Y1895856D03*
X2257044Y1819656D03*
D20*
X2392544Y1813306D03*
X2375544Y1813306D03*
X2290454Y1895856D03*
X2307454Y1895856D03*
D40*
X2556256Y1894586D03*
D41*
X2495804Y1894078D03*
D42*
X2546744Y1813306D03*
X2500744Y1813306D03*
D43*
X2180844Y1813306D03*
X2180844Y1902206D03*
D23*
X2434844Y1654556D03*
X2434844Y1679956D03*
X2434844Y1705356D03*
X2434844Y1730756D03*
X2257044Y1730756D03*
X2257044Y1654556D03*
D20*
X2392544Y1648206D03*
X2375544Y1648206D03*
X2290454Y1730756D03*
X2307454Y1730756D03*
D40*
X2556256Y1729486D03*
D41*
X2495804Y1728978D03*
D42*
X2546744Y1648206D03*
X2500744Y1648206D03*
D43*
X2180844Y1648206D03*
X2180844Y1737106D03*
D23*
X2434844Y1489456D03*
X2434844Y1514856D03*
X2434844Y1540256D03*
X2434844Y1565656D03*
X2257044Y1565656D03*
X2257044Y1489456D03*
D20*
X2392544Y1483106D03*
X2375544Y1483106D03*
X2290454Y1565656D03*
X2307454Y1565656D03*
D40*
X2556256Y1564386D03*
D41*
X2495804Y1563878D03*
D42*
X2546744Y1483106D03*
X2500744Y1483106D03*
D43*
X2180844Y1483106D03*
X2180844Y1572006D03*
D23*
X2434844Y1324356D03*
X2434844Y1349756D03*
X2434844Y1375156D03*
X2434844Y1400556D03*
X2257044Y1400556D03*
X2257044Y1324356D03*
D20*
X2392544Y1318006D03*
X2375544Y1318006D03*
X2290454Y1400556D03*
X2307454Y1400556D03*
D40*
X2556256Y1399286D03*
D41*
X2495804Y1398778D03*
D42*
X2546744Y1318006D03*
X2500744Y1318006D03*
D43*
X2180844Y1318006D03*
X2180844Y1406906D03*
D23*
X2434844Y1159256D03*
X2434844Y1184656D03*
X2434844Y1210056D03*
X2434844Y1235456D03*
X2257044Y1235456D03*
X2257044Y1159256D03*
D20*
X2392544Y1152906D03*
X2375544Y1152906D03*
X2290454Y1235456D03*
X2307454Y1235456D03*
D40*
X2556256Y1234186D03*
D41*
X2495804Y1233678D03*
D42*
X2546744Y1152906D03*
X2500744Y1152906D03*
D43*
X2180844Y1152906D03*
X2180844Y1241806D03*
D23*
X2434844Y994156D03*
X2434844Y1019556D03*
X2434844Y1044956D03*
X2434844Y1070356D03*
X2257044Y1070356D03*
X2257044Y994156D03*
D20*
X2392544Y987806D03*
X2375544Y987806D03*
X2290454Y1070356D03*
X2307454Y1070356D03*
D40*
X2556256Y1069086D03*
D41*
X2495804Y1068578D03*
D42*
X2546744Y987806D03*
X2500744Y987806D03*
D43*
X2180844Y987806D03*
X2180844Y1076706D03*
D44*
X2670954Y1344716D03*
X2664454Y1344716D03*
X2657954Y1344716D03*
X2651454Y1344716D03*
X2644954Y1344716D03*
X2638454Y1344716D03*
X2631954Y1344716D03*
X2625454Y1344716D03*
X2625454Y1286216D03*
X2631954Y1286216D03*
X2638454Y1286216D03*
X2644954Y1286216D03*
X2651454Y1286216D03*
X2657954Y1286216D03*
X2664454Y1286216D03*
X2670954Y1286216D03*
D20*
X2676534Y1363726D03*
X2693534Y1363726D03*
D34*
X2693924Y1307236D03*
X2693924Y1326236D03*
D45*
X2683922Y1105916D03*
X2668366Y1105916D03*
X2683922Y1131316D03*
X2668366Y1131316D03*
X2683922Y1156716D03*
X2668366Y1156716D03*
X2683922Y1182116D03*
X2668366Y1182116D03*
X2683922Y1207516D03*
X2668366Y1207516D03*
X2683922Y1232916D03*
X2668366Y1232916D03*
D46*
X2645442Y1600286D03*
X2645442Y1593786D03*
X2645442Y1587286D03*
X2645442Y1580786D03*
X2645442Y1574286D03*
X2645442Y1567786D03*
X2645442Y1561286D03*
X2645442Y1554786D03*
X2645442Y1548286D03*
X2645442Y1541786D03*
X2645442Y1535286D03*
X2645442Y1528786D03*
X2645442Y1522286D03*
X2645442Y1515786D03*
X2703798Y1515786D03*
X2703798Y1522286D03*
X2703798Y1528786D03*
X2703798Y1535286D03*
X2703798Y1541786D03*
X2703798Y1548286D03*
X2703798Y1554786D03*
X2703798Y1561286D03*
X2703798Y1567786D03*
X2703798Y1574286D03*
X2703798Y1580786D03*
X2703798Y1587286D03*
X2703798Y1593786D03*
X2703798Y1600286D03*
D47*
X2706558Y1701546D03*
D48*
X2714178Y1701546D03*
X2698938Y1701546D03*
D47*
X2706558Y1726946D03*
D48*
X2714178Y1726946D03*
X2698938Y1726946D03*
D47*
X2706558Y1752346D03*
D48*
X2714178Y1752346D03*
X2698938Y1752346D03*
D47*
X2706558Y1777746D03*
D48*
X2714178Y1777746D03*
X2698938Y1777746D03*
D47*
X2706558Y1803146D03*
D48*
X2714178Y1803146D03*
X2698938Y1803146D03*
D47*
X2706558Y1828546D03*
D48*
X2714178Y1828546D03*
X2698938Y1828546D03*
D45*
X2649410Y1828546D03*
X2664966Y1828546D03*
X2649410Y1803146D03*
X2664966Y1803146D03*
X2649410Y1777746D03*
X2664966Y1777746D03*
X2649730Y1752346D03*
X2665286Y1752346D03*
X2649730Y1726946D03*
X2665286Y1726946D03*
X2649730Y1701546D03*
X2665286Y1701546D03*
D32*
X2720340Y1567719D03*
X2720340Y1552163D03*
D34*
X2733294Y1608226D03*
X2733294Y1627226D03*
D49*
X2522474Y1814576D03*
D50*
X2522474Y1822196D03*
X2522474Y1806956D03*
D49*
X2521204Y1649476D03*
D50*
X2521204Y1657096D03*
X2521204Y1641856D03*
D49*
X2521204Y1484376D03*
D50*
X2521204Y1491996D03*
X2521204Y1476756D03*
D49*
X2521204Y1319276D03*
D50*
X2521204Y1326896D03*
X2521204Y1311656D03*
D49*
X2521204Y1154176D03*
D50*
X2521204Y1161796D03*
X2521204Y1146556D03*
D49*
X2521204Y989076D03*
D50*
X2521204Y996696D03*
X2521204Y981456D03*
D32*
X2660904Y1385158D03*
X2660904Y1400714D03*
X2635504Y1446434D03*
X2635504Y1430878D03*
D47*
X2691384Y1024636D03*
D48*
X2683764Y1024636D03*
X2699004Y1024636D03*
D47*
X2691384Y981456D03*
D48*
X2683764Y981456D03*
X2699004Y981456D03*
D31*
X438030Y2528570D03*
X423030Y2528570D03*
D45*
X409098Y2528570D03*
X393542Y2528570D03*
D51*
X434480Y2472944D03*
X411480Y2472944D03*
X388480Y2472944D03*
D52*
X411480Y2408936D03*
D20*
X447920Y2504440D03*
X430920Y2504440D03*
D53*
X391820Y2504440D03*
X410820Y2504440D03*
D49*
X436880Y2567940D03*
D50*
X436880Y2575560D03*
X436880Y2560320D03*
D32*
X386080Y2560162D03*
X386080Y2575718D03*
D36*
X363220Y2481580D03*
X477520Y2423160D03*
X477520Y2547620D03*
D27*
X376840Y2715580D03*
X351440Y2715580D03*
X326040Y2715580D03*
D54*
X419862Y1984970D03*
X419862Y1991470D03*
X419862Y1997970D03*
X419862Y2004470D03*
X419862Y2010970D03*
X419862Y2017470D03*
X419862Y2023970D03*
X419862Y2030470D03*
X419862Y2036970D03*
X419862Y2043470D03*
X362458Y2043470D03*
X362458Y2036970D03*
X362458Y2030470D03*
X362458Y2023970D03*
X362458Y2017470D03*
X362458Y2010970D03*
X362458Y2004470D03*
X362458Y1997970D03*
X362458Y1991470D03*
X362458Y1984970D03*
D12*
X548640Y2055740D03*
X548640Y2038740D03*
X528320Y2055740D03*
X528320Y2038740D03*
X528320Y2086220D03*
X528320Y2069220D03*
X548640Y2086220D03*
X548640Y2069220D03*
X472440Y2013340D03*
X472440Y2030340D03*
X508000Y2013340D03*
X508000Y2030340D03*
X490220Y2013340D03*
X490220Y2030340D03*
X444500Y2015880D03*
X444500Y2032880D03*
D55*
X1442720Y2471055D03*
X1442720Y2492105D03*
X1356360Y2509885D03*
X1356360Y2488835D03*
D56*
X1404620Y2470580D03*
X1395120Y2492580D03*
X1414120Y2492580D03*
D57*
X1490980Y2367280D03*
X1490980Y2453640D03*
D58*
X1434740Y2438527D03*
X1389740Y2438527D03*
D59*
X1412240Y2377440D03*
D60*
X162925Y601980D03*
X141875Y601980D03*
D55*
X210820Y670195D03*
X210820Y691245D03*
D56*
X203200Y611300D03*
X193700Y633300D03*
X212700Y633300D03*
D61*
X83820Y490220D03*
X83820Y568960D03*
D58*
X205380Y564007D03*
X160380Y564007D03*
D59*
X182880Y502920D03*
D55*
X1244600Y276495D03*
X1244600Y297545D03*
D60*
X1158605Y241300D03*
X1137555Y241300D03*
D56*
X1203960Y275160D03*
X1213460Y253160D03*
X1194460Y253160D03*
D57*
X1397000Y287020D03*
X1318260Y289560D03*
D62*
X1262253Y233320D03*
X1262253Y188320D03*
D63*
X1323340Y210820D03*
D57*
X1051560Y88900D03*
X1099820Y88900D03*
X1267460Y91440D03*
X1338580Y91440D03*
D64*
X165100Y2169160D03*
X165100Y2133600D03*
X165100Y2098040D03*
X165100Y2062480D03*
D65*
X1993900Y2674620D03*
X1971040Y2674620D03*
M02*
