%
M48
M72
T01C0.01378
T02C0.03937
T03C0.04000
T04C0.08661
T05C0.15000
%
T01
X224993Y18600
X302993Y22600
X303340Y28946
X323993Y34600
X423993Y41600
X508493Y40100
X551993Y37600
X528993Y24600
X580993Y18600
X476993Y17600
X320493Y48100
X276993Y50600
X299993Y63600
X247993Y69600
X351993Y70600
X423993Y56600
X504993Y53600
X525647Y59254
X525993Y65600
X603993Y69600
T02
X439993Y59100
X388993Y59100
X388993Y49100
X439993Y49100
X439993Y39100
X388993Y39100
X388993Y29100
X439993Y29100
T03
X456993Y29100
X491993Y34100
X456993Y39100
X491993Y44100
X456993Y49100
X491993Y54100
X456993Y59100
X371993Y59100
X336993Y54100
X371993Y49100
X336993Y44100
X371993Y39100
X336993Y34100
X371993Y29100
X266993Y34100
X206993Y34100
X206993Y44100
X266993Y44100
X266993Y54100
X561993Y54100
X621993Y54100
X621993Y44100
X561993Y44100
X561993Y34100
T04
X186993Y24100
X186993Y64100
X641993Y64100
X641993Y24100
T05
X591993Y44100
X236993Y44100
M30
