G75*
%MOIN*%
%OFA0B0*%
%FSLAX25Y25*%
%IPPOS*%
%LPD*%
%AMOC8*
5,1,8,0,0,1.08239X$1,22.5*
%
%ADD10R,0.07900X0.07900*%
%ADD11C,0.07900*%
%ADD12C,0.13161*%
%ADD13C,0.06500*%
%ADD14C,0.06406*%
%ADD15C,0.15500*%
D10*
X0371993Y0029100D03*
X0456993Y0059100D03*
D11*
X0456993Y0049100D03*
X0456993Y0039100D03*
X0456993Y0029100D03*
X0371993Y0039100D03*
X0371993Y0049100D03*
X0371993Y0059100D03*
D12*
X0186993Y0024100D03*
X0186993Y0064100D03*
X0641993Y0064100D03*
X0641993Y0024100D03*
D13*
X0564993Y0034100D02*
X0558993Y0034100D01*
X0494993Y0034100D02*
X0488993Y0034100D01*
X0488993Y0044100D02*
X0494993Y0044100D01*
X0558993Y0044100D02*
X0564993Y0044100D01*
X0618993Y0044100D02*
X0624993Y0044100D01*
X0624993Y0054100D02*
X0618993Y0054100D01*
X0564993Y0054100D02*
X0558993Y0054100D01*
X0494993Y0054100D02*
X0488993Y0054100D01*
X0339993Y0054100D02*
X0333993Y0054100D01*
X0269993Y0054100D02*
X0263993Y0054100D01*
X0263993Y0044100D02*
X0269993Y0044100D01*
X0209993Y0044100D02*
X0203993Y0044100D01*
X0203993Y0034100D02*
X0209993Y0034100D01*
X0263993Y0034100D02*
X0269993Y0034100D01*
X0333993Y0034100D02*
X0339993Y0034100D01*
X0339993Y0044100D02*
X0333993Y0044100D01*
D14*
X0386041Y0039100D02*
X0391946Y0039100D01*
X0437041Y0039100D02*
X0442946Y0039100D01*
X0442946Y0029100D02*
X0437041Y0029100D01*
X0391946Y0029100D02*
X0386041Y0029100D01*
X0386041Y0049100D02*
X0391946Y0049100D01*
X0437041Y0049100D02*
X0442946Y0049100D01*
X0442946Y0059100D02*
X0437041Y0059100D01*
X0391946Y0059100D02*
X0386041Y0059100D01*
D15*
X0236993Y0044100D03*
X0591993Y0044100D03*
M02*
