G75*
%MOIN*%
%OFA0B0*%
%FSLAX25Y25*%
%IPPOS*%
%LPD*%
%AMOC8*
5,1,8,0,0,1.08239X$1,22.5*
%
%ADD10R,0.07400X0.07400*%
%ADD11C,0.07400*%
%ADD12C,0.12661*%
%ADD13C,0.06000*%
%ADD14C,0.05906*%
%ADD15C,0.01200*%
%ADD16C,0.02378*%
%ADD17C,0.04000*%
%ADD18C,0.02200*%
D10*
X0371993Y0029100D03*
X0456993Y0059100D03*
D11*
X0456993Y0049100D03*
X0456993Y0039100D03*
X0456993Y0029100D03*
X0371993Y0039100D03*
X0371993Y0049100D03*
X0371993Y0059100D03*
D12*
X0186993Y0064100D03*
X0186993Y0024100D03*
X0641993Y0024100D03*
X0641993Y0064100D03*
D13*
X0624993Y0054100D02*
X0618993Y0054100D01*
X0564993Y0054100D02*
X0558993Y0054100D01*
X0494993Y0054100D02*
X0488993Y0054100D01*
X0488993Y0044100D02*
X0494993Y0044100D01*
X0558993Y0044100D02*
X0564993Y0044100D01*
X0618993Y0044100D02*
X0624993Y0044100D01*
X0564993Y0034100D02*
X0558993Y0034100D01*
X0494993Y0034100D02*
X0488993Y0034100D01*
X0339993Y0034100D02*
X0333993Y0034100D01*
X0269993Y0034100D02*
X0263993Y0034100D01*
X0209993Y0034100D02*
X0203993Y0034100D01*
X0203993Y0044100D02*
X0209993Y0044100D01*
X0263993Y0044100D02*
X0269993Y0044100D01*
X0333993Y0044100D02*
X0339993Y0044100D01*
X0339993Y0054100D02*
X0333993Y0054100D01*
X0269993Y0054100D02*
X0263993Y0054100D01*
D14*
X0386041Y0049100D02*
X0391946Y0049100D01*
X0437041Y0049100D02*
X0442946Y0049100D01*
X0442946Y0039100D02*
X0437041Y0039100D01*
X0391946Y0039100D02*
X0386041Y0039100D01*
X0386041Y0029100D02*
X0391946Y0029100D01*
X0437041Y0029100D02*
X0442946Y0029100D01*
X0442946Y0059100D02*
X0437041Y0059100D01*
X0391946Y0059100D02*
X0386041Y0059100D01*
D15*
X0174143Y0084450D02*
X0174143Y0003750D01*
X0654843Y0003750D01*
X0654843Y0084450D01*
X0174143Y0084450D01*
X0174143Y0084297D02*
X0654843Y0084297D01*
X0654843Y0083099D02*
X0174143Y0083099D01*
X0174143Y0081900D02*
X0654843Y0081900D01*
X0651993Y0081600D02*
X0426993Y0081600D01*
X0426993Y0006600D01*
X0651993Y0006600D01*
X0651993Y0081600D01*
X0651993Y0080702D02*
X0426993Y0080702D01*
X0426993Y0079503D02*
X0651993Y0079503D01*
X0651993Y0078305D02*
X0426993Y0078305D01*
X0426993Y0077106D02*
X0651993Y0077106D01*
X0651993Y0075908D02*
X0426993Y0075908D01*
X0426993Y0074709D02*
X0651993Y0074709D01*
X0654843Y0074709D02*
X0174143Y0074709D01*
X0174143Y0075908D02*
X0654843Y0075908D01*
X0654843Y0077106D02*
X0174143Y0077106D01*
X0176993Y0077106D02*
X0401993Y0077106D01*
X0401993Y0075908D02*
X0176993Y0075908D01*
X0176993Y0074709D02*
X0401993Y0074709D01*
X0401993Y0073511D02*
X0176993Y0073511D01*
X0176993Y0072312D02*
X0401993Y0072312D01*
X0401993Y0071114D02*
X0191307Y0071114D01*
X0637679Y0071114D01*
X0426993Y0071114D01*
X0426993Y0072312D02*
X0651993Y0072312D01*
X0651993Y0071114D02*
X0646307Y0071114D01*
X0654843Y0071114D01*
X0654843Y0072312D02*
X0174143Y0072312D01*
X0174143Y0071114D02*
X0182679Y0071114D01*
X0176993Y0071114D01*
X0180100Y0068706D02*
X0182388Y0070993D01*
X0185376Y0072231D01*
X0188611Y0072231D01*
X0191599Y0070993D01*
X0193886Y0068706D01*
X0195124Y0065717D01*
X0195124Y0062483D01*
X0193886Y0059494D01*
X0191599Y0057207D01*
X0188611Y0055969D01*
X0185376Y0055969D01*
X0182388Y0057207D01*
X0180100Y0059494D01*
X0178863Y0062483D01*
X0178863Y0065717D01*
X0180100Y0068706D01*
X0178863Y0065717D01*
X0178863Y0062483D01*
X0180100Y0059494D01*
X0182388Y0057207D01*
X0185376Y0055969D01*
X0188611Y0055969D01*
X0191599Y0057207D01*
X0193886Y0059494D01*
X0195124Y0062483D01*
X0195124Y0065717D01*
X0193886Y0068706D01*
X0191599Y0070993D01*
X0188611Y0072231D01*
X0185376Y0072231D01*
X0182388Y0070993D01*
X0180100Y0068706D01*
X0180111Y0068717D02*
X0176993Y0068717D01*
X0176993Y0069915D02*
X0181310Y0069915D01*
X0174143Y0069915D01*
X0174143Y0068717D02*
X0180111Y0068717D01*
X0179609Y0067518D02*
X0174143Y0067518D01*
X0176993Y0067518D02*
X0179609Y0067518D01*
X0179112Y0066320D02*
X0174143Y0066320D01*
X0174143Y0065121D02*
X0178863Y0065121D01*
X0176993Y0065121D01*
X0176993Y0063923D02*
X0178863Y0063923D01*
X0174143Y0063923D01*
X0174143Y0062724D02*
X0178863Y0062724D01*
X0176993Y0062724D01*
X0176993Y0061526D02*
X0179259Y0061526D01*
X0174143Y0061526D01*
X0174143Y0060327D02*
X0179756Y0060327D01*
X0176993Y0060327D01*
X0176993Y0059129D02*
X0180466Y0059129D01*
X0174143Y0059129D01*
X0174143Y0057930D02*
X0181665Y0057930D01*
X0176993Y0057930D01*
X0176993Y0056732D02*
X0183536Y0056732D01*
X0174143Y0056732D01*
X0174143Y0055533D02*
X0220143Y0055533D01*
X0176993Y0055533D01*
X0176993Y0054334D02*
X0220143Y0054334D01*
X0174143Y0054334D01*
X0174143Y0053136D02*
X0220143Y0053136D01*
X0176993Y0053136D01*
X0176993Y0051937D02*
X0220143Y0051937D01*
X0174143Y0051937D01*
X0174143Y0050739D02*
X0220143Y0050739D01*
X0176993Y0050739D01*
X0176993Y0049540D02*
X0220143Y0049540D01*
X0174143Y0049540D01*
X0174143Y0048342D02*
X0201691Y0048342D01*
X0176993Y0048342D01*
X0176993Y0047143D02*
X0200249Y0047143D01*
X0174143Y0047143D01*
X0174143Y0045945D02*
X0199562Y0045945D01*
X0176993Y0045945D01*
X0176993Y0044746D02*
X0199193Y0044746D01*
X0174143Y0044746D01*
X0174143Y0043548D02*
X0199193Y0043548D01*
X0176993Y0043548D01*
X0176993Y0042349D02*
X0199523Y0042349D01*
X0174143Y0042349D01*
X0174143Y0041151D02*
X0200154Y0041151D01*
X0176993Y0041151D01*
X0176993Y0039952D02*
X0201464Y0039952D01*
X0174143Y0039952D01*
X0174143Y0038754D02*
X0202686Y0038754D01*
X0176993Y0038754D01*
X0176993Y0037555D02*
X0200661Y0037555D01*
X0174143Y0037555D01*
X0174143Y0036357D02*
X0199733Y0036357D01*
X0176993Y0036357D01*
X0176993Y0035158D02*
X0199236Y0035158D01*
X0174143Y0035158D01*
X0174143Y0033960D02*
X0199193Y0033960D01*
X0176993Y0033960D01*
X0176993Y0032761D02*
X0199352Y0032761D01*
X0174143Y0032761D01*
X0174143Y0031563D02*
X0183764Y0031563D01*
X0176993Y0031563D01*
X0180100Y0028706D02*
X0182388Y0030993D01*
X0185376Y0032231D01*
X0188611Y0032231D01*
X0191599Y0030993D01*
X0193886Y0028706D01*
X0195124Y0025717D01*
X0195124Y0022483D01*
X0193886Y0019494D01*
X0191599Y0017207D01*
X0188611Y0015969D01*
X0185376Y0015969D01*
X0182388Y0017207D01*
X0180100Y0019494D01*
X0178863Y0022483D01*
X0178863Y0025717D01*
X0180100Y0028706D01*
X0178863Y0025717D01*
X0178863Y0022483D01*
X0180100Y0019494D01*
X0182388Y0017207D01*
X0185376Y0015969D01*
X0188611Y0015969D01*
X0191599Y0017207D01*
X0193886Y0019494D01*
X0195124Y0022483D01*
X0195124Y0025717D01*
X0193886Y0028706D01*
X0191599Y0030993D01*
X0188611Y0032231D01*
X0185376Y0032231D01*
X0182388Y0030993D01*
X0180100Y0028706D01*
X0180561Y0029166D02*
X0174143Y0029166D01*
X0174143Y0030364D02*
X0181759Y0030364D01*
X0176993Y0030364D01*
X0176993Y0029166D02*
X0180561Y0029166D01*
X0179795Y0027967D02*
X0174143Y0027967D01*
X0176993Y0027967D02*
X0179795Y0027967D01*
X0179298Y0026769D02*
X0174143Y0026769D01*
X0174143Y0025570D02*
X0178863Y0025570D01*
X0176993Y0025570D01*
X0176993Y0024372D02*
X0178863Y0024372D01*
X0174143Y0024372D01*
X0174143Y0023173D02*
X0178863Y0023173D01*
X0176993Y0023173D01*
X0176993Y0021975D02*
X0179073Y0021975D01*
X0174143Y0021975D01*
X0174143Y0020776D02*
X0179570Y0020776D01*
X0176993Y0020776D01*
X0176993Y0019578D02*
X0180066Y0019578D01*
X0174143Y0019578D01*
X0174143Y0018379D02*
X0181216Y0018379D01*
X0176993Y0018379D01*
X0176993Y0017181D02*
X0182452Y0017181D01*
X0174143Y0017181D01*
X0174143Y0015982D02*
X0185345Y0015982D01*
X0176993Y0015982D01*
X0176993Y0014784D02*
X0401993Y0014784D01*
X0401993Y0015982D02*
X0188642Y0015982D01*
X0640345Y0015982D01*
X0426993Y0015982D01*
X0426993Y0014784D02*
X0651993Y0014784D01*
X0651993Y0015982D02*
X0643642Y0015982D01*
X0654843Y0015982D01*
X0654843Y0014784D02*
X0174143Y0014784D01*
X0174143Y0013585D02*
X0654843Y0013585D01*
X0651993Y0013585D02*
X0426993Y0013585D01*
X0426993Y0012387D02*
X0651993Y0012387D01*
X0651993Y0011188D02*
X0426993Y0011188D01*
X0426993Y0009990D02*
X0651993Y0009990D01*
X0654843Y0009990D02*
X0174143Y0009990D01*
X0174143Y0011188D02*
X0654843Y0011188D01*
X0654843Y0012387D02*
X0174143Y0012387D01*
X0176993Y0012387D02*
X0401993Y0012387D01*
X0401993Y0011188D02*
X0176993Y0011188D01*
X0176993Y0009990D02*
X0401993Y0009990D01*
X0401993Y0008791D02*
X0176993Y0008791D01*
X0176993Y0007593D02*
X0401993Y0007593D01*
X0401993Y0006600D02*
X0176993Y0006600D01*
X0176993Y0081600D01*
X0401993Y0081600D01*
X0401993Y0006600D01*
X0426993Y0007593D02*
X0651993Y0007593D01*
X0651993Y0008791D02*
X0426993Y0008791D01*
X0401993Y0013585D02*
X0176993Y0013585D01*
X0191535Y0017181D02*
X0401993Y0017181D01*
X0401993Y0018379D02*
X0192771Y0018379D01*
X0636216Y0018379D01*
X0426993Y0018379D01*
X0426993Y0017181D02*
X0637452Y0017181D01*
X0191535Y0017181D01*
X0193921Y0019578D02*
X0401993Y0019578D01*
X0401993Y0020776D02*
X0194417Y0020776D01*
X0634570Y0020776D01*
X0426993Y0020776D01*
X0426993Y0021975D02*
X0506753Y0021975D01*
X0194914Y0021975D01*
X0401993Y0021975D01*
X0401993Y0023173D02*
X0195124Y0023173D01*
X0505319Y0023173D01*
X0426993Y0023173D01*
X0426993Y0024372D02*
X0436036Y0024372D01*
X0376928Y0024372D01*
X0401993Y0024372D01*
X0401993Y0025570D02*
X0394833Y0025570D01*
X0433849Y0025570D01*
X0426993Y0025570D01*
X0426993Y0026769D02*
X0432862Y0026769D01*
X0395868Y0026769D01*
X0401993Y0026769D01*
X0396387Y0028034D02*
X0396165Y0027352D01*
X0395840Y0026714D01*
X0395419Y0026134D01*
X0394912Y0025627D01*
X0394332Y0025206D01*
X0393694Y0024881D01*
X0393012Y0024659D01*
X0392304Y0024547D01*
X0389378Y0024547D01*
X0389378Y0028716D01*
X0389378Y0029484D01*
X0396495Y0029484D01*
X0396387Y0030166D01*
X0396165Y0030848D01*
X0395840Y0031486D01*
X0395419Y0032066D01*
X0394912Y0032573D01*
X0394332Y0032994D01*
X0393694Y0033319D01*
X0393012Y0033541D01*
X0392304Y0033653D01*
X0389378Y0033653D01*
X0389378Y0029484D01*
X0396495Y0029484D01*
X0396387Y0030166D01*
X0396165Y0030848D01*
X0395840Y0031486D01*
X0395419Y0032066D01*
X0394912Y0032573D01*
X0394332Y0032994D01*
X0393694Y0033319D01*
X0393012Y0033541D01*
X0392304Y0033653D01*
X0389378Y0033653D01*
X0389378Y0029484D01*
X0389378Y0028716D01*
X0396495Y0028716D01*
X0396387Y0028034D01*
X0396495Y0028716D01*
X0389378Y0028716D01*
X0388609Y0028716D01*
X0381492Y0028716D01*
X0381600Y0028034D01*
X0381821Y0027352D01*
X0382147Y0026714D01*
X0382568Y0026134D01*
X0383075Y0025627D01*
X0383654Y0025206D01*
X0384293Y0024881D01*
X0384975Y0024659D01*
X0385682Y0024547D01*
X0388609Y0024547D01*
X0388609Y0028716D01*
X0388609Y0029484D01*
X0381492Y0029484D01*
X0381600Y0030166D01*
X0381821Y0030848D01*
X0382147Y0031486D01*
X0382568Y0032066D01*
X0383075Y0032573D01*
X0383654Y0032994D01*
X0384293Y0033319D01*
X0384975Y0033541D01*
X0385682Y0033653D01*
X0388609Y0033653D01*
X0388609Y0029484D01*
X0388609Y0028716D01*
X0381492Y0028716D01*
X0381600Y0028034D01*
X0381821Y0027352D01*
X0382147Y0026714D01*
X0382568Y0026134D01*
X0383075Y0025627D01*
X0383654Y0025206D01*
X0384293Y0024881D01*
X0384975Y0024659D01*
X0385682Y0024547D01*
X0388609Y0024547D01*
X0388609Y0028716D01*
X0389378Y0028716D01*
X0389378Y0024547D01*
X0392304Y0024547D01*
X0393012Y0024659D01*
X0393694Y0024881D01*
X0394332Y0025206D01*
X0394912Y0025627D01*
X0395419Y0026134D01*
X0395840Y0026714D01*
X0396165Y0027352D01*
X0396387Y0028034D01*
X0396365Y0027967D02*
X0401993Y0027967D01*
X0401993Y0029166D02*
X0389378Y0029166D01*
X0432288Y0029166D01*
X0426993Y0029166D01*
X0426993Y0030364D02*
X0432420Y0030364D01*
X0396322Y0030364D01*
X0401993Y0030364D01*
X0389378Y0030364D02*
X0388609Y0030364D01*
X0389378Y0030364D01*
X0389378Y0029484D02*
X0388609Y0029484D01*
X0381492Y0029484D01*
X0381600Y0030166D01*
X0381821Y0030848D01*
X0382147Y0031486D01*
X0382568Y0032066D01*
X0383075Y0032573D01*
X0383654Y0032994D01*
X0384293Y0033319D01*
X0384975Y0033541D01*
X0385682Y0033653D01*
X0388609Y0033653D01*
X0388609Y0029484D01*
X0389378Y0029484D01*
X0388609Y0029166D02*
X0372393Y0029166D01*
X0388609Y0029166D01*
X0388609Y0027967D02*
X0389378Y0027967D01*
X0388609Y0027967D01*
X0381622Y0027967D02*
X0377293Y0027967D01*
X0381622Y0027967D01*
X0377293Y0028700D02*
X0372393Y0028700D01*
X0372393Y0023800D01*
X0375904Y0023800D01*
X0376311Y0023909D01*
X0376676Y0024120D01*
X0376974Y0024418D01*
X0377184Y0024782D01*
X0377293Y0025189D01*
X0377293Y0028700D01*
X0372393Y0028700D01*
X0371593Y0028700D01*
X0366693Y0028700D01*
X0366693Y0025189D01*
X0366802Y0024782D01*
X0367013Y0024418D01*
X0367311Y0024120D01*
X0367676Y0023909D01*
X0368083Y0023800D01*
X0371593Y0023800D01*
X0371593Y0028700D01*
X0371593Y0029500D01*
X0366693Y0029500D01*
X0366693Y0033011D01*
X0366802Y0033418D01*
X0367013Y0033782D01*
X0367311Y0034080D01*
X0367676Y0034291D01*
X0368083Y0034400D01*
X0368968Y0034400D01*
X0368878Y0034437D01*
X0367331Y0035984D01*
X0367241Y0036200D01*
X0366695Y0036200D01*
X0356836Y0026341D01*
X0355770Y0025900D01*
X0331221Y0025900D01*
X0330868Y0026046D01*
X0304149Y0026046D01*
X0303934Y0025957D01*
X0302745Y0025957D01*
X0301647Y0026413D01*
X0300806Y0027253D01*
X0300351Y0028352D01*
X0300351Y0029541D01*
X0300806Y0030640D01*
X0301647Y0031480D01*
X0302745Y0031935D01*
X0303934Y0031935D01*
X0304149Y0031846D01*
X0329731Y0031846D01*
X0329193Y0033145D01*
X0329193Y0035055D01*
X0329924Y0036819D01*
X0331274Y0038169D01*
X0333039Y0038900D01*
X0340948Y0038900D01*
X0342712Y0038169D01*
X0344063Y0036819D01*
X0344793Y0035055D01*
X0344793Y0033145D01*
X0344195Y0031700D01*
X0353992Y0031700D01*
X0363851Y0041558D01*
X0364917Y0042000D01*
X0367241Y0042000D01*
X0367331Y0042215D01*
X0368878Y0043763D01*
X0369692Y0044100D01*
X0368878Y0044437D01*
X0367331Y0045984D01*
X0366493Y0048006D01*
X0366493Y0050194D01*
X0367331Y0052215D01*
X0368878Y0053763D01*
X0369692Y0054100D01*
X0368878Y0054437D01*
X0367331Y0055984D01*
X0366493Y0058006D01*
X0366493Y0060194D01*
X0367331Y0062215D01*
X0368878Y0063763D01*
X0370899Y0064600D01*
X0373087Y0064600D01*
X0375109Y0063763D01*
X0376656Y0062215D01*
X0377493Y0060194D01*
X0377493Y0058006D01*
X0376656Y0055984D01*
X0375109Y0054437D01*
X0374294Y0054100D01*
X0375109Y0053763D01*
X0376656Y0052215D01*
X0377093Y0051160D01*
X0377093Y0055177D01*
X0377535Y0056243D01*
X0381288Y0059996D01*
X0381288Y0060045D01*
X0382011Y0061792D01*
X0383348Y0063129D01*
X0385095Y0063853D01*
X0392892Y0063853D01*
X0394638Y0063129D01*
X0395975Y0061792D01*
X0396699Y0060045D01*
X0396699Y0058155D01*
X0395975Y0056408D01*
X0394638Y0055071D01*
X0392892Y0054347D01*
X0385095Y0054347D01*
X0384209Y0054714D01*
X0382893Y0053399D01*
X0382893Y0052674D01*
X0383348Y0053129D01*
X0385095Y0053853D01*
X0392892Y0053853D01*
X0394638Y0053129D01*
X0395975Y0051792D01*
X0396699Y0050045D01*
X0396699Y0048155D01*
X0395975Y0046408D01*
X0394638Y0045071D01*
X0392892Y0044347D01*
X0385095Y0044347D01*
X0383348Y0045071D01*
X0382601Y0045818D01*
X0382452Y0045457D01*
X0377404Y0040410D01*
X0377493Y0040194D01*
X0377493Y0038006D01*
X0376656Y0035984D01*
X0375109Y0034437D01*
X0375019Y0034400D01*
X0375904Y0034400D01*
X0376311Y0034291D01*
X0376676Y0034080D01*
X0376974Y0033782D01*
X0377184Y0033418D01*
X0377293Y0033011D01*
X0377293Y0029500D01*
X0372393Y0029500D01*
X0372393Y0028700D01*
X0372393Y0023800D01*
X0375904Y0023800D01*
X0376311Y0023909D01*
X0376676Y0024120D01*
X0376974Y0024418D01*
X0377184Y0024782D01*
X0377293Y0025189D01*
X0377293Y0028700D01*
X0377293Y0029500D02*
X0372393Y0029500D01*
X0372393Y0028700D01*
X0371593Y0028700D01*
X0366693Y0028700D01*
X0366693Y0025189D01*
X0366802Y0024782D01*
X0367013Y0024418D01*
X0367311Y0024120D01*
X0367676Y0023909D01*
X0368083Y0023800D01*
X0371593Y0023800D01*
X0371593Y0028700D01*
X0371593Y0029500D01*
X0366693Y0029500D01*
X0366693Y0033011D01*
X0366802Y0033418D01*
X0367013Y0033782D01*
X0367311Y0034080D01*
X0367676Y0034291D01*
X0368083Y0034400D01*
X0368968Y0034400D01*
X0368878Y0034437D01*
X0367331Y0035984D01*
X0367241Y0036200D01*
X0366695Y0036200D01*
X0356836Y0026341D01*
X0355770Y0025900D01*
X0331221Y0025900D01*
X0330868Y0026046D01*
X0304149Y0026046D01*
X0303934Y0025957D01*
X0302745Y0025957D01*
X0301647Y0026413D01*
X0300806Y0027253D01*
X0300351Y0028352D01*
X0300351Y0029541D01*
X0300806Y0030640D01*
X0301647Y0031480D01*
X0302745Y0031935D01*
X0303934Y0031935D01*
X0304149Y0031846D01*
X0329731Y0031846D01*
X0329193Y0033145D01*
X0329193Y0035055D01*
X0329924Y0036819D01*
X0331274Y0038169D01*
X0333039Y0038900D01*
X0340948Y0038900D01*
X0342712Y0038169D01*
X0344063Y0036819D01*
X0344793Y0035055D01*
X0344793Y0033145D01*
X0344195Y0031700D01*
X0353992Y0031700D01*
X0363851Y0041558D01*
X0364917Y0042000D01*
X0367241Y0042000D01*
X0367331Y0042215D01*
X0368878Y0043763D01*
X0369692Y0044100D01*
X0368878Y0044437D01*
X0367331Y0045984D01*
X0366493Y0048006D01*
X0366493Y0050194D01*
X0367331Y0052215D01*
X0368878Y0053763D01*
X0369692Y0054100D01*
X0368878Y0054437D01*
X0367331Y0055984D01*
X0366493Y0058006D01*
X0366493Y0060194D01*
X0367331Y0062215D01*
X0368878Y0063763D01*
X0370899Y0064600D01*
X0373087Y0064600D01*
X0375109Y0063763D01*
X0376656Y0062215D01*
X0377493Y0060194D01*
X0377493Y0058006D01*
X0376656Y0055984D01*
X0375109Y0054437D01*
X0374294Y0054100D01*
X0375109Y0053763D01*
X0376656Y0052215D01*
X0377093Y0051160D01*
X0377093Y0055177D01*
X0377535Y0056243D01*
X0381288Y0059996D01*
X0381288Y0060045D01*
X0382011Y0061792D01*
X0383348Y0063129D01*
X0385095Y0063853D01*
X0392892Y0063853D01*
X0394638Y0063129D01*
X0395975Y0061792D01*
X0396699Y0060045D01*
X0396699Y0058155D01*
X0395975Y0056408D01*
X0394638Y0055071D01*
X0392892Y0054347D01*
X0385095Y0054347D01*
X0384209Y0054714D01*
X0382893Y0053399D01*
X0382893Y0052674D01*
X0383348Y0053129D01*
X0385095Y0053853D01*
X0392892Y0053853D01*
X0394638Y0053129D01*
X0395975Y0051792D01*
X0396699Y0050045D01*
X0396699Y0048155D01*
X0395975Y0046408D01*
X0394638Y0045071D01*
X0392892Y0044347D01*
X0385095Y0044347D01*
X0383348Y0045071D01*
X0382601Y0045818D01*
X0382452Y0045457D01*
X0377404Y0040410D01*
X0377493Y0040194D01*
X0377493Y0038006D01*
X0376656Y0035984D01*
X0375109Y0034437D01*
X0375019Y0034400D01*
X0375904Y0034400D01*
X0376311Y0034291D01*
X0376676Y0034080D01*
X0376974Y0033782D01*
X0377184Y0033418D01*
X0377293Y0033011D01*
X0377293Y0029500D01*
X0377293Y0030364D02*
X0381664Y0030364D01*
X0377293Y0030364D01*
X0371593Y0029166D02*
X0359660Y0029166D01*
X0371593Y0029166D01*
X0371593Y0027967D02*
X0372393Y0027967D01*
X0371593Y0027967D01*
X0366693Y0027967D02*
X0358462Y0027967D01*
X0366693Y0027967D01*
X0366693Y0026769D02*
X0357263Y0026769D01*
X0366693Y0026769D01*
X0366693Y0025570D02*
X0195124Y0025570D01*
X0366693Y0025570D01*
X0367059Y0024372D02*
X0195124Y0024372D01*
X0367059Y0024372D01*
X0371593Y0024372D02*
X0372393Y0024372D01*
X0371593Y0024372D01*
X0371593Y0025570D02*
X0372393Y0025570D01*
X0371593Y0025570D01*
X0371593Y0026769D02*
X0372393Y0026769D01*
X0371593Y0026769D01*
X0377293Y0026769D02*
X0382119Y0026769D01*
X0377293Y0026769D01*
X0377293Y0025570D02*
X0383153Y0025570D01*
X0377293Y0025570D01*
X0388609Y0025570D02*
X0389378Y0025570D01*
X0388609Y0025570D01*
X0388609Y0026769D02*
X0389378Y0026769D01*
X0388609Y0026769D01*
X0396365Y0027967D02*
X0432365Y0027967D01*
X0426993Y0027967D01*
X0432288Y0028155D02*
X0433011Y0026408D01*
X0434348Y0025071D01*
X0436095Y0024347D01*
X0443892Y0024347D01*
X0445638Y0025071D01*
X0446975Y0026408D01*
X0447699Y0028155D01*
X0447699Y0028204D01*
X0451452Y0031957D01*
X0451893Y0033023D01*
X0451893Y0037040D01*
X0452331Y0035984D01*
X0453878Y0034437D01*
X0454692Y0034100D01*
X0453878Y0033763D01*
X0452331Y0032215D01*
X0451493Y0030194D01*
X0451493Y0028006D01*
X0452331Y0025984D01*
X0453878Y0024437D01*
X0455899Y0023600D01*
X0458087Y0023600D01*
X0460109Y0024437D01*
X0461656Y0025984D01*
X0462493Y0028006D01*
X0462493Y0030194D01*
X0461656Y0032215D01*
X0460109Y0033763D01*
X0459294Y0034100D01*
X0460109Y0034437D01*
X0461656Y0035984D01*
X0462493Y0038006D01*
X0462493Y0040194D01*
X0461656Y0042215D01*
X0460109Y0043763D01*
X0459294Y0044100D01*
X0460109Y0044437D01*
X0461656Y0045984D01*
X0461745Y0046200D01*
X0464070Y0046200D01*
X0465136Y0046641D01*
X0474995Y0056500D01*
X0484792Y0056500D01*
X0484193Y0055055D01*
X0484193Y0053145D01*
X0484924Y0051381D01*
X0486274Y0050031D01*
X0488039Y0049300D01*
X0495948Y0049300D01*
X0497712Y0050031D01*
X0499063Y0051381D01*
X0499793Y0053145D01*
X0499793Y0055055D01*
X0499255Y0056354D01*
X0524838Y0056354D01*
X0525052Y0056265D01*
X0526241Y0056265D01*
X0527340Y0056720D01*
X0528181Y0057560D01*
X0528636Y0058659D01*
X0528636Y0059848D01*
X0528181Y0060947D01*
X0527340Y0061787D01*
X0526241Y0062243D01*
X0525052Y0062243D01*
X0524838Y0062154D01*
X0498119Y0062154D01*
X0497766Y0062300D01*
X0473217Y0062300D01*
X0472151Y0061858D01*
X0462292Y0052000D01*
X0461745Y0052000D01*
X0461656Y0052215D01*
X0460109Y0053763D01*
X0460019Y0053800D01*
X0460904Y0053800D01*
X0461311Y0053909D01*
X0461676Y0054120D01*
X0461974Y0054418D01*
X0462184Y0054782D01*
X0462293Y0055189D01*
X0462293Y0058700D01*
X0457393Y0058700D01*
X0457393Y0059500D01*
X0456593Y0059500D01*
X0456593Y0058700D01*
X0451693Y0058700D01*
X0451693Y0055189D01*
X0451802Y0054782D01*
X0452013Y0054418D01*
X0452311Y0054120D01*
X0452676Y0053909D01*
X0453083Y0053800D01*
X0453968Y0053800D01*
X0453878Y0053763D01*
X0452331Y0052215D01*
X0451493Y0050194D01*
X0451493Y0048006D01*
X0451583Y0047790D01*
X0447351Y0043558D01*
X0446535Y0042743D01*
X0446385Y0042382D01*
X0445638Y0043129D01*
X0443892Y0043853D01*
X0436095Y0043853D01*
X0434348Y0043129D01*
X0433011Y0041792D01*
X0432288Y0040045D01*
X0432288Y0038155D01*
X0433011Y0036408D01*
X0434348Y0035071D01*
X0436095Y0034347D01*
X0443892Y0034347D01*
X0445638Y0035071D01*
X0446093Y0035526D01*
X0446093Y0034801D01*
X0444778Y0033486D01*
X0443892Y0033853D01*
X0436095Y0033853D01*
X0434348Y0033129D01*
X0433011Y0031792D01*
X0432288Y0030045D01*
X0432288Y0028155D01*
X0433011Y0026408D01*
X0434348Y0025071D01*
X0436095Y0024347D01*
X0443892Y0024347D01*
X0445638Y0025071D01*
X0446975Y0026408D01*
X0447699Y0028155D01*
X0447699Y0028204D01*
X0451452Y0031957D01*
X0451893Y0033023D01*
X0451893Y0037040D01*
X0452331Y0035984D01*
X0453878Y0034437D01*
X0454692Y0034100D01*
X0453878Y0033763D01*
X0452331Y0032215D01*
X0451493Y0030194D01*
X0451493Y0028006D01*
X0452331Y0025984D01*
X0453878Y0024437D01*
X0455899Y0023600D01*
X0458087Y0023600D01*
X0460109Y0024437D01*
X0461656Y0025984D01*
X0462493Y0028006D01*
X0462493Y0030194D01*
X0461656Y0032215D01*
X0460109Y0033763D01*
X0459294Y0034100D01*
X0460109Y0034437D01*
X0461656Y0035984D01*
X0462493Y0038006D01*
X0462493Y0040194D01*
X0461656Y0042215D01*
X0460109Y0043763D01*
X0459294Y0044100D01*
X0460109Y0044437D01*
X0461656Y0045984D01*
X0461745Y0046200D01*
X0464070Y0046200D01*
X0465136Y0046641D01*
X0474995Y0056500D01*
X0484792Y0056500D01*
X0484193Y0055055D01*
X0484193Y0053145D01*
X0484924Y0051381D01*
X0486274Y0050031D01*
X0488039Y0049300D01*
X0495948Y0049300D01*
X0497712Y0050031D01*
X0499063Y0051381D01*
X0499793Y0053145D01*
X0499793Y0055055D01*
X0499255Y0056354D01*
X0524838Y0056354D01*
X0525052Y0056265D01*
X0526241Y0056265D01*
X0527340Y0056720D01*
X0528181Y0057560D01*
X0528636Y0058659D01*
X0528636Y0059848D01*
X0528181Y0060947D01*
X0527340Y0061787D01*
X0526241Y0062243D01*
X0525052Y0062243D01*
X0524838Y0062154D01*
X0498119Y0062154D01*
X0497766Y0062300D01*
X0473217Y0062300D01*
X0472151Y0061858D01*
X0462292Y0052000D01*
X0461745Y0052000D01*
X0461656Y0052215D01*
X0460109Y0053763D01*
X0460019Y0053800D01*
X0460904Y0053800D01*
X0461311Y0053909D01*
X0461676Y0054120D01*
X0461974Y0054418D01*
X0462184Y0054782D01*
X0462293Y0055189D01*
X0462293Y0058700D01*
X0457393Y0058700D01*
X0457393Y0059500D01*
X0457393Y0064400D01*
X0460904Y0064400D01*
X0461311Y0064291D01*
X0461676Y0064080D01*
X0461974Y0063782D01*
X0462184Y0063418D01*
X0462293Y0063011D01*
X0462293Y0059500D01*
X0457393Y0059500D01*
X0456593Y0059500D01*
X0451693Y0059500D01*
X0451693Y0063011D01*
X0451802Y0063418D01*
X0452013Y0063782D01*
X0452311Y0064080D01*
X0452676Y0064291D01*
X0453083Y0064400D01*
X0456593Y0064400D01*
X0456593Y0059500D01*
X0456593Y0058700D01*
X0451693Y0058700D01*
X0451693Y0055189D01*
X0451802Y0054782D01*
X0452013Y0054418D01*
X0452311Y0054120D01*
X0452676Y0053909D01*
X0453083Y0053800D01*
X0453968Y0053800D01*
X0453878Y0053763D01*
X0452331Y0052215D01*
X0451493Y0050194D01*
X0451493Y0048006D01*
X0451583Y0047790D01*
X0447351Y0043558D01*
X0446535Y0042743D01*
X0446385Y0042382D01*
X0445638Y0043129D01*
X0443892Y0043853D01*
X0436095Y0043853D01*
X0434348Y0043129D01*
X0433011Y0041792D01*
X0432288Y0040045D01*
X0432288Y0038155D01*
X0433011Y0036408D01*
X0434348Y0035071D01*
X0436095Y0034347D01*
X0443892Y0034347D01*
X0445638Y0035071D01*
X0446093Y0035526D01*
X0446093Y0034801D01*
X0444778Y0033486D01*
X0443892Y0033853D01*
X0436095Y0033853D01*
X0434348Y0033129D01*
X0433011Y0031792D01*
X0432288Y0030045D01*
X0432288Y0028155D01*
X0447125Y0026769D02*
X0452006Y0026769D01*
X0447125Y0026769D01*
X0446138Y0025570D02*
X0452745Y0025570D01*
X0446138Y0025570D01*
X0443951Y0024372D02*
X0454036Y0024372D01*
X0443951Y0024372D01*
X0459950Y0024372D02*
X0504120Y0024372D01*
X0459950Y0024372D01*
X0461242Y0025570D02*
X0502922Y0025570D01*
X0461242Y0025570D01*
X0461981Y0026769D02*
X0501723Y0026769D01*
X0461981Y0026769D01*
X0462477Y0027967D02*
X0500525Y0027967D01*
X0462477Y0027967D01*
X0462493Y0029166D02*
X0499326Y0029166D01*
X0462493Y0029166D01*
X0462423Y0030364D02*
X0485941Y0030364D01*
X0462423Y0030364D01*
X0451564Y0030364D02*
X0449859Y0030364D01*
X0451564Y0030364D01*
X0451493Y0029166D02*
X0448660Y0029166D01*
X0451493Y0029166D01*
X0451509Y0027967D02*
X0447621Y0027967D01*
X0451509Y0027967D01*
X0451057Y0031563D02*
X0452060Y0031563D01*
X0451057Y0031563D01*
X0451785Y0032761D02*
X0452877Y0032761D01*
X0451785Y0032761D01*
X0451893Y0033960D02*
X0454354Y0033960D01*
X0451893Y0033960D01*
X0445252Y0033960D02*
X0426993Y0033960D01*
X0426993Y0032761D02*
X0433981Y0032761D01*
X0394652Y0032761D01*
X0401993Y0032761D01*
X0401993Y0031563D02*
X0395784Y0031563D01*
X0432916Y0031563D01*
X0426993Y0031563D01*
X0445252Y0033960D02*
X0376796Y0033960D01*
X0401993Y0033960D01*
X0395975Y0036408D02*
X0394638Y0035071D01*
X0392892Y0034347D01*
X0385095Y0034347D01*
X0383348Y0035071D01*
X0382011Y0036408D01*
X0381288Y0038155D01*
X0381288Y0040045D01*
X0382011Y0041792D01*
X0383348Y0043129D01*
X0385095Y0043853D01*
X0392892Y0043853D01*
X0394638Y0043129D01*
X0395975Y0041792D01*
X0396699Y0040045D01*
X0396699Y0038155D01*
X0395975Y0036408D01*
X0396699Y0038155D01*
X0396699Y0040045D01*
X0395975Y0041792D01*
X0394638Y0043129D01*
X0392892Y0043853D01*
X0385095Y0043853D01*
X0383348Y0043129D01*
X0382011Y0041792D01*
X0381288Y0040045D01*
X0381288Y0038155D01*
X0382011Y0036408D01*
X0383348Y0035071D01*
X0385095Y0034347D01*
X0392892Y0034347D01*
X0394638Y0035071D01*
X0395975Y0036408D01*
X0395924Y0036357D02*
X0401993Y0036357D01*
X0401993Y0037555D02*
X0396451Y0037555D01*
X0432536Y0037555D01*
X0426993Y0037555D01*
X0426993Y0036357D02*
X0433062Y0036357D01*
X0395924Y0036357D01*
X0394726Y0035158D02*
X0401993Y0035158D01*
X0394726Y0035158D02*
X0434261Y0035158D01*
X0426993Y0035158D01*
X0425686Y0039066D02*
X0424588Y0038611D01*
X0423399Y0038611D01*
X0422300Y0039066D01*
X0421459Y0039907D01*
X0421004Y0041005D01*
X0421004Y0042195D01*
X0421459Y0043293D01*
X0421593Y0043427D01*
X0421593Y0054773D01*
X0421459Y0054907D01*
X0421004Y0056005D01*
X0421004Y0057195D01*
X0421459Y0058293D01*
X0422300Y0059134D01*
X0423399Y0059589D01*
X0424588Y0059589D01*
X0425686Y0059134D01*
X0426527Y0058293D01*
X0426982Y0057195D01*
X0426982Y0056005D01*
X0426527Y0054907D01*
X0426393Y0054773D01*
X0426393Y0043427D01*
X0426527Y0043293D01*
X0426982Y0042195D01*
X0426982Y0041005D01*
X0426527Y0039907D01*
X0425686Y0039066D01*
X0424933Y0038754D02*
X0432288Y0038754D01*
X0426993Y0038754D01*
X0426993Y0039952D02*
X0432288Y0039952D01*
X0426546Y0039952D01*
X0426982Y0041151D02*
X0432746Y0041151D01*
X0426993Y0041151D01*
X0423993Y0041600D02*
X0423993Y0056600D01*
X0421200Y0055533D02*
X0395101Y0055533D01*
X0401993Y0055533D01*
X0401993Y0054334D02*
X0383829Y0054334D01*
X0421593Y0054334D01*
X0421593Y0053136D02*
X0394622Y0053136D01*
X0401993Y0053136D01*
X0401993Y0051937D02*
X0395830Y0051937D01*
X0421593Y0051937D01*
X0421593Y0050739D02*
X0396412Y0050739D01*
X0401993Y0050739D01*
X0401993Y0049540D02*
X0396699Y0049540D01*
X0421593Y0049540D01*
X0426393Y0049540D02*
X0432288Y0049540D01*
X0426993Y0049540D01*
X0426993Y0050739D02*
X0432575Y0050739D01*
X0426393Y0050739D01*
X0426393Y0051937D02*
X0433157Y0051937D01*
X0426993Y0051937D01*
X0432288Y0050045D02*
X0433011Y0051792D01*
X0434348Y0053129D01*
X0436095Y0053853D01*
X0443892Y0053853D01*
X0445638Y0053129D01*
X0446975Y0051792D01*
X0447699Y0050045D01*
X0447699Y0048155D01*
X0446975Y0046408D01*
X0445638Y0045071D01*
X0443892Y0044347D01*
X0436095Y0044347D01*
X0434348Y0045071D01*
X0433011Y0046408D01*
X0432288Y0048155D01*
X0432288Y0050045D01*
X0432288Y0048155D01*
X0433011Y0046408D01*
X0434348Y0045071D01*
X0436095Y0044347D01*
X0443892Y0044347D01*
X0445638Y0045071D01*
X0446975Y0046408D01*
X0447699Y0048155D01*
X0447699Y0050045D01*
X0446975Y0051792D01*
X0445638Y0053129D01*
X0443892Y0053853D01*
X0436095Y0053853D01*
X0434348Y0053129D01*
X0433011Y0051792D01*
X0432288Y0050045D01*
X0432288Y0048342D02*
X0426993Y0048342D01*
X0426393Y0048342D02*
X0432288Y0048342D01*
X0432707Y0047143D02*
X0426993Y0047143D01*
X0426393Y0047143D02*
X0432707Y0047143D01*
X0433474Y0045945D02*
X0426993Y0045945D01*
X0426393Y0045945D02*
X0433474Y0045945D01*
X0421593Y0045945D02*
X0395512Y0045945D01*
X0401993Y0045945D01*
X0401993Y0047143D02*
X0396280Y0047143D01*
X0421593Y0047143D01*
X0421593Y0048342D02*
X0396699Y0048342D01*
X0401993Y0048342D01*
X0401993Y0044746D02*
X0393855Y0044746D01*
X0421593Y0044746D01*
X0421593Y0043548D02*
X0393627Y0043548D01*
X0401993Y0043548D01*
X0401993Y0042349D02*
X0395418Y0042349D01*
X0421069Y0042349D01*
X0426393Y0043548D02*
X0435359Y0043548D01*
X0426993Y0043548D01*
X0426993Y0044746D02*
X0435132Y0044746D01*
X0426393Y0044746D01*
X0426918Y0042349D02*
X0433569Y0042349D01*
X0426993Y0042349D01*
X0421004Y0041151D02*
X0396241Y0041151D01*
X0401993Y0041151D01*
X0401993Y0039952D02*
X0396699Y0039952D01*
X0421441Y0039952D01*
X0423054Y0038754D02*
X0396699Y0038754D01*
X0401993Y0038754D01*
X0381746Y0041151D02*
X0378145Y0041151D01*
X0381746Y0041151D01*
X0381288Y0039952D02*
X0377493Y0039952D01*
X0381288Y0039952D01*
X0381288Y0038754D02*
X0377493Y0038754D01*
X0381288Y0038754D01*
X0381536Y0037555D02*
X0377307Y0037555D01*
X0381536Y0037555D01*
X0382062Y0036357D02*
X0376810Y0036357D01*
X0382062Y0036357D01*
X0383261Y0035158D02*
X0375830Y0035158D01*
X0383261Y0035158D01*
X0368157Y0035158D02*
X0365653Y0035158D01*
X0368157Y0035158D01*
X0367190Y0033960D02*
X0364454Y0033960D01*
X0367190Y0033960D01*
X0366693Y0032761D02*
X0363256Y0032761D01*
X0366693Y0032761D01*
X0366693Y0031563D02*
X0362057Y0031563D01*
X0366693Y0031563D01*
X0377293Y0031563D02*
X0382202Y0031563D01*
X0377293Y0031563D01*
X0377293Y0032761D02*
X0383334Y0032761D01*
X0377293Y0032761D01*
X0388609Y0032761D02*
X0389378Y0032761D01*
X0388609Y0032761D01*
X0388609Y0031563D02*
X0389378Y0031563D01*
X0388609Y0031563D01*
X0366693Y0030364D02*
X0360859Y0030364D01*
X0366693Y0030364D01*
X0355053Y0032761D02*
X0344634Y0032761D01*
X0355053Y0032761D01*
X0356252Y0033960D02*
X0344793Y0033960D01*
X0356252Y0033960D01*
X0357450Y0035158D02*
X0344750Y0035158D01*
X0357450Y0035158D01*
X0358649Y0036357D02*
X0344254Y0036357D01*
X0358649Y0036357D01*
X0359848Y0037555D02*
X0343326Y0037555D01*
X0359848Y0037555D01*
X0361046Y0038754D02*
X0341301Y0038754D01*
X0361046Y0038754D01*
X0362245Y0039952D02*
X0342523Y0039952D01*
X0362245Y0039952D01*
X0363443Y0041151D02*
X0343832Y0041151D01*
X0363443Y0041151D01*
X0367465Y0042349D02*
X0344464Y0042349D01*
X0367465Y0042349D01*
X0368663Y0043548D02*
X0344793Y0043548D01*
X0368663Y0043548D01*
X0368569Y0044746D02*
X0344793Y0044746D01*
X0368569Y0044746D01*
X0380542Y0043548D02*
X0384359Y0043548D01*
X0380542Y0043548D01*
X0379344Y0042349D02*
X0382569Y0042349D01*
X0379344Y0042349D01*
X0381741Y0044746D02*
X0384132Y0044746D01*
X0381741Y0044746D01*
X0367370Y0045945D02*
X0344425Y0045945D01*
X0367370Y0045945D01*
X0366851Y0047143D02*
X0343738Y0047143D01*
X0366851Y0047143D01*
X0366493Y0048342D02*
X0342295Y0048342D01*
X0366493Y0048342D01*
X0366493Y0049540D02*
X0341529Y0049540D01*
X0366493Y0049540D01*
X0366719Y0050739D02*
X0343421Y0050739D01*
X0366719Y0050739D01*
X0367216Y0051937D02*
X0344293Y0051937D01*
X0367216Y0051937D01*
X0376771Y0051937D02*
X0377093Y0051937D01*
X0376771Y0051937D01*
X0377093Y0053136D02*
X0375736Y0053136D01*
X0377093Y0053136D01*
X0377093Y0054334D02*
X0374861Y0054334D01*
X0377093Y0054334D01*
X0377241Y0055533D02*
X0376205Y0055533D01*
X0377241Y0055533D01*
X0369126Y0054334D02*
X0344793Y0054334D01*
X0369126Y0054334D01*
X0368251Y0053136D02*
X0344790Y0053136D01*
X0368251Y0053136D01*
X0367782Y0055533D02*
X0344595Y0055533D01*
X0367782Y0055533D01*
X0367021Y0056732D02*
X0344099Y0056732D01*
X0367021Y0056732D01*
X0366525Y0057930D02*
X0342952Y0057930D01*
X0366525Y0057930D01*
X0366493Y0059129D02*
X0329726Y0059129D01*
X0366493Y0059129D01*
X0377493Y0059129D02*
X0380421Y0059129D01*
X0377493Y0059129D01*
X0377462Y0057930D02*
X0379222Y0057930D01*
X0377462Y0057930D01*
X0376965Y0056732D02*
X0378024Y0056732D01*
X0376965Y0056732D01*
X0396109Y0056732D02*
X0401993Y0056732D01*
X0401993Y0057930D02*
X0396606Y0057930D01*
X0421309Y0057930D01*
X0421004Y0056732D02*
X0396109Y0056732D01*
X0396699Y0059129D02*
X0401993Y0059129D01*
X0396699Y0059129D02*
X0422295Y0059129D01*
X0425692Y0059129D02*
X0439609Y0059129D01*
X0426993Y0059129D01*
X0426993Y0057930D02*
X0432634Y0057930D01*
X0426678Y0057930D01*
X0426982Y0056732D02*
X0433138Y0056732D01*
X0426993Y0056732D01*
X0432600Y0058034D02*
X0432821Y0057352D01*
X0433147Y0056714D01*
X0433568Y0056134D01*
X0434075Y0055627D01*
X0434654Y0055206D01*
X0435293Y0054881D01*
X0435975Y0054659D01*
X0436682Y0054547D01*
X0439609Y0054547D01*
X0439609Y0058716D01*
X0432492Y0058716D01*
X0432600Y0058034D01*
X0432821Y0057352D01*
X0433147Y0056714D01*
X0433568Y0056134D01*
X0434075Y0055627D01*
X0434654Y0055206D01*
X0435293Y0054881D01*
X0435975Y0054659D01*
X0436682Y0054547D01*
X0439609Y0054547D01*
X0439609Y0058716D01*
X0439609Y0059484D01*
X0432492Y0059484D01*
X0432600Y0060166D01*
X0432821Y0060848D01*
X0433147Y0061486D01*
X0433568Y0062066D01*
X0434075Y0062573D01*
X0434654Y0062994D01*
X0435293Y0063319D01*
X0435975Y0063541D01*
X0436682Y0063653D01*
X0439609Y0063653D01*
X0439609Y0059484D01*
X0439609Y0058716D01*
X0432492Y0058716D01*
X0432600Y0058034D01*
X0439609Y0057930D02*
X0440378Y0057930D01*
X0439609Y0057930D01*
X0439609Y0058716D02*
X0440378Y0058716D01*
X0440378Y0059484D01*
X0447495Y0059484D01*
X0447387Y0060166D01*
X0447165Y0060848D01*
X0446840Y0061486D01*
X0446419Y0062066D01*
X0445912Y0062573D01*
X0445332Y0062994D01*
X0444694Y0063319D01*
X0444012Y0063541D01*
X0443304Y0063653D01*
X0440378Y0063653D01*
X0440378Y0059484D01*
X0447495Y0059484D01*
X0447387Y0060166D01*
X0447165Y0060848D01*
X0446840Y0061486D01*
X0446419Y0062066D01*
X0445912Y0062573D01*
X0445332Y0062994D01*
X0444694Y0063319D01*
X0444012Y0063541D01*
X0443304Y0063653D01*
X0440378Y0063653D01*
X0440378Y0059484D01*
X0440378Y0058716D01*
X0447495Y0058716D01*
X0447387Y0058034D01*
X0447165Y0057352D01*
X0446840Y0056714D01*
X0446419Y0056134D01*
X0445912Y0055627D01*
X0445332Y0055206D01*
X0444694Y0054881D01*
X0444012Y0054659D01*
X0443304Y0054547D01*
X0440378Y0054547D01*
X0440378Y0058716D01*
X0447495Y0058716D01*
X0447387Y0058034D01*
X0447165Y0057352D01*
X0446840Y0056714D01*
X0446419Y0056134D01*
X0445912Y0055627D01*
X0445332Y0055206D01*
X0444694Y0054881D01*
X0444012Y0054659D01*
X0443304Y0054547D01*
X0440378Y0054547D01*
X0440378Y0058716D01*
X0439609Y0058716D01*
X0439609Y0059484D02*
X0432492Y0059484D01*
X0432600Y0060166D01*
X0432821Y0060848D01*
X0433147Y0061486D01*
X0433568Y0062066D01*
X0434075Y0062573D01*
X0434654Y0062994D01*
X0435293Y0063319D01*
X0435975Y0063541D01*
X0436682Y0063653D01*
X0439609Y0063653D01*
X0439609Y0059484D01*
X0440378Y0059484D01*
X0439609Y0059484D01*
X0439609Y0060327D02*
X0440378Y0060327D01*
X0439609Y0060327D01*
X0439609Y0061526D02*
X0440378Y0061526D01*
X0439609Y0061526D01*
X0439609Y0062724D02*
X0440378Y0062724D01*
X0439609Y0062724D01*
X0434283Y0062724D02*
X0426993Y0062724D01*
X0426993Y0061526D02*
X0433175Y0061526D01*
X0396086Y0061526D01*
X0401993Y0061526D01*
X0401993Y0062724D02*
X0395043Y0062724D01*
X0434283Y0062724D01*
X0432652Y0060327D02*
X0426993Y0060327D01*
X0432652Y0060327D02*
X0396582Y0060327D01*
X0401993Y0060327D01*
X0382943Y0062724D02*
X0376147Y0062724D01*
X0382943Y0062724D01*
X0381901Y0061526D02*
X0376942Y0061526D01*
X0381901Y0061526D01*
X0381405Y0060327D02*
X0377438Y0060327D01*
X0381405Y0060327D01*
X0367045Y0061526D02*
X0327169Y0061526D01*
X0367045Y0061526D01*
X0366548Y0060327D02*
X0328368Y0060327D01*
X0366548Y0060327D01*
X0367839Y0062724D02*
X0325971Y0062724D01*
X0367839Y0062724D01*
X0369264Y0063923D02*
X0324772Y0063923D01*
X0369264Y0063923D01*
X0374723Y0063923D02*
X0401993Y0063923D01*
X0401993Y0065121D02*
X0323573Y0065121D01*
X0633863Y0065121D01*
X0426993Y0065121D01*
X0426993Y0063923D02*
X0452153Y0063923D01*
X0374723Y0063923D01*
X0401993Y0066320D02*
X0322006Y0066320D01*
X0634112Y0066320D01*
X0426993Y0066320D01*
X0426993Y0067518D02*
X0634609Y0067518D01*
X0194378Y0067518D01*
X0401993Y0067518D01*
X0401993Y0068717D02*
X0193875Y0068717D01*
X0635111Y0068717D01*
X0426993Y0068717D01*
X0426993Y0069915D02*
X0636310Y0069915D01*
X0192677Y0069915D01*
X0401993Y0069915D01*
X0426993Y0073511D02*
X0651993Y0073511D01*
X0654843Y0073511D02*
X0174143Y0073511D01*
X0174143Y0078305D02*
X0654843Y0078305D01*
X0654843Y0079503D02*
X0174143Y0079503D01*
X0174143Y0080702D02*
X0654843Y0080702D01*
X0646599Y0070993D02*
X0643611Y0072231D01*
X0640376Y0072231D01*
X0637388Y0070993D01*
X0635100Y0068706D01*
X0633863Y0065717D01*
X0633863Y0062483D01*
X0635100Y0059494D01*
X0637388Y0057207D01*
X0640376Y0055969D01*
X0643611Y0055969D01*
X0646599Y0057207D01*
X0648886Y0059494D01*
X0650124Y0062483D01*
X0650124Y0065717D01*
X0648886Y0068706D01*
X0646599Y0070993D01*
X0643611Y0072231D01*
X0640376Y0072231D01*
X0637388Y0070993D01*
X0635100Y0068706D01*
X0633863Y0065717D01*
X0633863Y0062483D01*
X0635100Y0059494D01*
X0637388Y0057207D01*
X0640376Y0055969D01*
X0643611Y0055969D01*
X0646599Y0057207D01*
X0648886Y0059494D01*
X0650124Y0062483D01*
X0650124Y0065717D01*
X0648886Y0068706D01*
X0646599Y0070993D01*
X0647677Y0069915D02*
X0651993Y0069915D01*
X0651993Y0068717D02*
X0648875Y0068717D01*
X0654843Y0068717D01*
X0654843Y0069915D02*
X0647677Y0069915D01*
X0649378Y0067518D02*
X0651993Y0067518D01*
X0649378Y0067518D02*
X0654843Y0067518D01*
X0654843Y0066320D02*
X0649875Y0066320D01*
X0651993Y0066320D01*
X0651993Y0065121D02*
X0650124Y0065121D01*
X0654843Y0065121D01*
X0654843Y0063923D02*
X0650124Y0063923D01*
X0651993Y0063923D01*
X0651993Y0062724D02*
X0650124Y0062724D01*
X0654843Y0062724D01*
X0654843Y0061526D02*
X0649728Y0061526D01*
X0651993Y0061526D01*
X0651993Y0060327D02*
X0649231Y0060327D01*
X0654843Y0060327D01*
X0654843Y0059129D02*
X0648520Y0059129D01*
X0651993Y0059129D01*
X0651993Y0057930D02*
X0647322Y0057930D01*
X0654843Y0057930D01*
X0654843Y0056732D02*
X0645451Y0056732D01*
X0651993Y0056732D01*
X0651993Y0055533D02*
X0629595Y0055533D01*
X0654843Y0055533D01*
X0654843Y0054334D02*
X0629793Y0054334D01*
X0651993Y0054334D01*
X0651993Y0053136D02*
X0629790Y0053136D01*
X0654843Y0053136D01*
X0654843Y0051937D02*
X0629293Y0051937D01*
X0651993Y0051937D01*
X0651993Y0050739D02*
X0628421Y0050739D01*
X0654843Y0050739D01*
X0654843Y0049540D02*
X0626529Y0049540D01*
X0651993Y0049540D01*
X0651993Y0048342D02*
X0627295Y0048342D01*
X0654843Y0048342D01*
X0654843Y0047143D02*
X0628738Y0047143D01*
X0651993Y0047143D01*
X0651993Y0045945D02*
X0629425Y0045945D01*
X0654843Y0045945D01*
X0654843Y0044746D02*
X0629793Y0044746D01*
X0651993Y0044746D01*
X0651993Y0043548D02*
X0629793Y0043548D01*
X0654843Y0043548D01*
X0654843Y0042349D02*
X0629464Y0042349D01*
X0651993Y0042349D01*
X0651993Y0041151D02*
X0628832Y0041151D01*
X0654843Y0041151D01*
X0654843Y0039952D02*
X0627523Y0039952D01*
X0651993Y0039952D01*
X0651993Y0038754D02*
X0608843Y0038754D01*
X0654843Y0038754D01*
X0654843Y0037555D02*
X0608843Y0037555D01*
X0651993Y0037555D01*
X0651993Y0036357D02*
X0608843Y0036357D01*
X0654843Y0036357D01*
X0654843Y0035158D02*
X0608843Y0035158D01*
X0651993Y0035158D01*
X0651993Y0033960D02*
X0608843Y0033960D01*
X0654843Y0033960D01*
X0654843Y0032761D02*
X0608843Y0032761D01*
X0651993Y0032761D01*
X0651993Y0031563D02*
X0645223Y0031563D01*
X0654843Y0031563D01*
X0648886Y0028706D02*
X0646599Y0030993D01*
X0643611Y0032231D01*
X0640376Y0032231D01*
X0637388Y0030993D01*
X0635100Y0028706D01*
X0633863Y0025717D01*
X0633863Y0022483D01*
X0635100Y0019494D01*
X0637388Y0017207D01*
X0640376Y0015969D01*
X0643611Y0015969D01*
X0646599Y0017207D01*
X0648886Y0019494D01*
X0650124Y0022483D01*
X0650124Y0025717D01*
X0648886Y0028706D01*
X0646599Y0030993D01*
X0643611Y0032231D01*
X0640376Y0032231D01*
X0637388Y0030993D01*
X0635100Y0028706D01*
X0633863Y0025717D01*
X0633863Y0022483D01*
X0635100Y0019494D01*
X0637388Y0017207D01*
X0640376Y0015969D01*
X0643611Y0015969D01*
X0646599Y0017207D01*
X0648886Y0019494D01*
X0650124Y0022483D01*
X0650124Y0025717D01*
X0648886Y0028706D01*
X0648426Y0029166D02*
X0651993Y0029166D01*
X0651993Y0030364D02*
X0647228Y0030364D01*
X0654843Y0030364D01*
X0654843Y0029166D02*
X0648426Y0029166D01*
X0649192Y0027967D02*
X0651993Y0027967D01*
X0649192Y0027967D02*
X0654843Y0027967D01*
X0654843Y0026769D02*
X0649689Y0026769D01*
X0651993Y0026769D01*
X0651993Y0025570D02*
X0650124Y0025570D01*
X0654843Y0025570D01*
X0654843Y0024372D02*
X0650124Y0024372D01*
X0651993Y0024372D01*
X0651993Y0023173D02*
X0650124Y0023173D01*
X0654843Y0023173D01*
X0654843Y0021975D02*
X0649914Y0021975D01*
X0651993Y0021975D01*
X0651993Y0020776D02*
X0649417Y0020776D01*
X0654843Y0020776D01*
X0654843Y0019578D02*
X0648921Y0019578D01*
X0651993Y0019578D01*
X0651993Y0018379D02*
X0647771Y0018379D01*
X0654843Y0018379D01*
X0654843Y0017181D02*
X0646535Y0017181D01*
X0651993Y0017181D01*
X0635066Y0019578D02*
X0426993Y0019578D01*
X0486274Y0030031D02*
X0488039Y0029300D01*
X0495948Y0029300D01*
X0497712Y0030031D01*
X0498272Y0030591D01*
X0498535Y0029957D01*
X0505535Y0022957D01*
X0506351Y0022141D01*
X0507417Y0021700D01*
X0528184Y0021700D01*
X0528399Y0021611D01*
X0529588Y0021611D01*
X0530686Y0022066D01*
X0531527Y0022907D01*
X0531982Y0024005D01*
X0531982Y0025195D01*
X0531527Y0026293D01*
X0530686Y0027134D01*
X0529588Y0027589D01*
X0528399Y0027589D01*
X0528184Y0027500D01*
X0509195Y0027500D01*
X0503893Y0032801D01*
X0503893Y0038399D01*
X0504993Y0039499D01*
X0505870Y0038622D01*
X0505959Y0038407D01*
X0506800Y0037566D01*
X0507899Y0037111D01*
X0509088Y0037111D01*
X0510186Y0037566D01*
X0511027Y0038407D01*
X0511482Y0039505D01*
X0511482Y0040695D01*
X0511027Y0041793D01*
X0510186Y0042634D01*
X0509972Y0042723D01*
X0508452Y0044243D01*
X0507636Y0045058D01*
X0506570Y0045500D01*
X0503417Y0045500D01*
X0502351Y0045058D01*
X0499351Y0042058D01*
X0499338Y0042046D01*
X0499793Y0043145D01*
X0499793Y0045055D01*
X0499063Y0046819D01*
X0497712Y0048169D01*
X0495948Y0048900D01*
X0488039Y0048900D01*
X0486274Y0048169D01*
X0484924Y0046819D01*
X0484193Y0045055D01*
X0484193Y0043145D01*
X0484924Y0041381D01*
X0486274Y0040031D01*
X0488039Y0039300D01*
X0495948Y0039300D01*
X0497712Y0040031D01*
X0498260Y0040578D01*
X0498093Y0040177D01*
X0498093Y0037788D01*
X0497712Y0038169D01*
X0495948Y0038900D01*
X0488039Y0038900D01*
X0486274Y0038169D01*
X0484924Y0036819D01*
X0484193Y0035055D01*
X0484193Y0033145D01*
X0484924Y0031381D01*
X0486274Y0030031D01*
X0488039Y0029300D01*
X0495948Y0029300D01*
X0497712Y0030031D01*
X0498272Y0030591D01*
X0498535Y0029957D01*
X0505535Y0022957D01*
X0506351Y0022141D01*
X0507417Y0021700D01*
X0528184Y0021700D01*
X0528399Y0021611D01*
X0529588Y0021611D01*
X0530686Y0022066D01*
X0531527Y0022907D01*
X0531982Y0024005D01*
X0531982Y0025195D01*
X0531527Y0026293D01*
X0530686Y0027134D01*
X0529588Y0027589D01*
X0528399Y0027589D01*
X0528184Y0027500D01*
X0509195Y0027500D01*
X0503893Y0032801D01*
X0503893Y0038399D01*
X0504993Y0039499D01*
X0505870Y0038622D01*
X0505959Y0038407D01*
X0506800Y0037566D01*
X0507899Y0037111D01*
X0509088Y0037111D01*
X0510186Y0037566D01*
X0511027Y0038407D01*
X0511482Y0039505D01*
X0511482Y0040695D01*
X0511027Y0041793D01*
X0510186Y0042634D01*
X0509972Y0042723D01*
X0508452Y0044243D01*
X0507636Y0045058D01*
X0506570Y0045500D01*
X0503417Y0045500D01*
X0502351Y0045058D01*
X0499351Y0042058D01*
X0499338Y0042046D01*
X0499793Y0043145D01*
X0499793Y0045055D01*
X0499063Y0046819D01*
X0497712Y0048169D01*
X0495948Y0048900D01*
X0488039Y0048900D01*
X0486274Y0048169D01*
X0484924Y0046819D01*
X0484193Y0045055D01*
X0484193Y0043145D01*
X0484924Y0041381D01*
X0486274Y0040031D01*
X0488039Y0039300D01*
X0495948Y0039300D01*
X0497712Y0040031D01*
X0498260Y0040578D01*
X0498093Y0040177D01*
X0498093Y0037788D01*
X0497712Y0038169D01*
X0495948Y0038900D01*
X0488039Y0038900D01*
X0486274Y0038169D01*
X0484924Y0036819D01*
X0484193Y0035055D01*
X0484193Y0033145D01*
X0484924Y0031381D01*
X0486274Y0030031D01*
X0484849Y0031563D02*
X0461926Y0031563D01*
X0484849Y0031563D01*
X0484352Y0032761D02*
X0461110Y0032761D01*
X0484352Y0032761D01*
X0484193Y0033960D02*
X0459633Y0033960D01*
X0484193Y0033960D01*
X0484236Y0035158D02*
X0460830Y0035158D01*
X0484236Y0035158D01*
X0484733Y0036357D02*
X0461810Y0036357D01*
X0484733Y0036357D01*
X0485661Y0037555D02*
X0462307Y0037555D01*
X0485661Y0037555D01*
X0487686Y0038754D02*
X0462493Y0038754D01*
X0487686Y0038754D01*
X0486464Y0039952D02*
X0462493Y0039952D01*
X0486464Y0039952D01*
X0485154Y0041151D02*
X0462097Y0041151D01*
X0485154Y0041151D01*
X0484523Y0042349D02*
X0461522Y0042349D01*
X0484523Y0042349D01*
X0484193Y0043548D02*
X0460324Y0043548D01*
X0484193Y0043548D01*
X0484193Y0044746D02*
X0460418Y0044746D01*
X0484193Y0044746D01*
X0484562Y0045945D02*
X0461616Y0045945D01*
X0484562Y0045945D01*
X0485249Y0047143D02*
X0465638Y0047143D01*
X0485249Y0047143D01*
X0486691Y0048342D02*
X0466837Y0048342D01*
X0486691Y0048342D01*
X0487458Y0049540D02*
X0468035Y0049540D01*
X0487458Y0049540D01*
X0485566Y0050739D02*
X0469234Y0050739D01*
X0485566Y0050739D01*
X0484694Y0051937D02*
X0470432Y0051937D01*
X0484694Y0051937D01*
X0484197Y0053136D02*
X0471631Y0053136D01*
X0484197Y0053136D01*
X0484193Y0054334D02*
X0472829Y0054334D01*
X0484193Y0054334D01*
X0484391Y0055533D02*
X0474028Y0055533D01*
X0484391Y0055533D01*
X0499595Y0055533D02*
X0554391Y0055533D01*
X0499595Y0055533D01*
X0499793Y0054334D02*
X0554193Y0054334D01*
X0499793Y0054334D01*
X0499790Y0053136D02*
X0554197Y0053136D01*
X0499790Y0053136D01*
X0499293Y0051937D02*
X0554694Y0051937D01*
X0499293Y0051937D01*
X0498421Y0050739D02*
X0555566Y0050739D01*
X0498421Y0050739D01*
X0496529Y0049540D02*
X0557458Y0049540D01*
X0496529Y0049540D01*
X0497295Y0048342D02*
X0556691Y0048342D01*
X0497295Y0048342D01*
X0498738Y0047143D02*
X0555249Y0047143D01*
X0498738Y0047143D01*
X0499425Y0045945D02*
X0554562Y0045945D01*
X0499425Y0045945D01*
X0499793Y0044746D02*
X0502039Y0044746D01*
X0499793Y0044746D01*
X0499793Y0043548D02*
X0500840Y0043548D01*
X0499793Y0043548D01*
X0499642Y0042349D02*
X0499464Y0042349D01*
X0499642Y0042349D01*
X0509147Y0043548D02*
X0554193Y0043548D01*
X0509147Y0043548D01*
X0507948Y0044746D02*
X0554193Y0044746D01*
X0507948Y0044746D01*
X0510471Y0042349D02*
X0554523Y0042349D01*
X0510471Y0042349D01*
X0511293Y0041151D02*
X0555154Y0041151D01*
X0511293Y0041151D01*
X0511482Y0039952D02*
X0556464Y0039952D01*
X0511482Y0039952D01*
X0511171Y0038754D02*
X0557686Y0038754D01*
X0511171Y0038754D01*
X0505738Y0038754D02*
X0504248Y0038754D01*
X0505738Y0038754D01*
X0498093Y0038754D02*
X0496301Y0038754D01*
X0498093Y0038754D01*
X0498093Y0039952D02*
X0497523Y0039952D01*
X0498093Y0039952D01*
X0503893Y0037555D02*
X0506826Y0037555D01*
X0503893Y0037555D01*
X0503893Y0036357D02*
X0554733Y0036357D01*
X0503893Y0036357D01*
X0503893Y0035158D02*
X0554236Y0035158D01*
X0503893Y0035158D01*
X0503893Y0033960D02*
X0554193Y0033960D01*
X0503893Y0033960D01*
X0503933Y0032761D02*
X0554352Y0032761D01*
X0503933Y0032761D01*
X0505132Y0031563D02*
X0554849Y0031563D01*
X0505132Y0031563D01*
X0506330Y0030364D02*
X0555941Y0030364D01*
X0506330Y0030364D01*
X0507529Y0029166D02*
X0575143Y0029166D01*
X0507529Y0029166D01*
X0508727Y0027967D02*
X0575510Y0027967D01*
X0508727Y0027967D01*
X0498366Y0030364D02*
X0498046Y0030364D01*
X0498366Y0030364D01*
X0531052Y0026769D02*
X0634298Y0026769D01*
X0531052Y0026769D01*
X0531827Y0025570D02*
X0633863Y0025570D01*
X0531827Y0025570D01*
X0531982Y0024372D02*
X0633863Y0024372D01*
X0531982Y0024372D01*
X0531638Y0023173D02*
X0633863Y0023173D01*
X0531638Y0023173D01*
X0530466Y0021975D02*
X0634073Y0021975D01*
X0530466Y0021975D01*
X0575143Y0028334D02*
X0576227Y0027250D01*
X0607760Y0027250D01*
X0608843Y0028334D01*
X0608843Y0059866D01*
X0607760Y0060950D01*
X0576227Y0060950D01*
X0575143Y0059866D01*
X0575143Y0058334D01*
X0575143Y0029866D01*
X0575143Y0028334D01*
X0576227Y0027250D01*
X0607760Y0027250D01*
X0608843Y0028334D01*
X0608843Y0059866D01*
X0607760Y0060950D01*
X0576227Y0060950D01*
X0575143Y0059866D01*
X0575143Y0058334D01*
X0575143Y0029866D01*
X0575143Y0028334D01*
X0567712Y0030031D02*
X0565948Y0029300D01*
X0558039Y0029300D01*
X0556274Y0030031D01*
X0554924Y0031381D01*
X0554193Y0033145D01*
X0554193Y0035055D01*
X0554924Y0036819D01*
X0556274Y0038169D01*
X0558039Y0038900D01*
X0565948Y0038900D01*
X0567712Y0038169D01*
X0569063Y0036819D01*
X0569793Y0035055D01*
X0569793Y0033145D01*
X0569063Y0031381D01*
X0567712Y0030031D01*
X0569063Y0031381D01*
X0569793Y0033145D01*
X0569793Y0035055D01*
X0569063Y0036819D01*
X0567712Y0038169D01*
X0565948Y0038900D01*
X0558039Y0038900D01*
X0556274Y0038169D01*
X0554924Y0036819D01*
X0554193Y0035055D01*
X0554193Y0033145D01*
X0554924Y0031381D01*
X0556274Y0030031D01*
X0558039Y0029300D01*
X0565948Y0029300D01*
X0567712Y0030031D01*
X0568046Y0030364D02*
X0575143Y0030364D01*
X0568046Y0030364D01*
X0569138Y0031563D02*
X0575143Y0031563D01*
X0569138Y0031563D01*
X0569634Y0032761D02*
X0575143Y0032761D01*
X0569634Y0032761D01*
X0569793Y0033960D02*
X0575143Y0033960D01*
X0569793Y0033960D01*
X0569750Y0035158D02*
X0575143Y0035158D01*
X0569750Y0035158D01*
X0569254Y0036357D02*
X0575143Y0036357D01*
X0569254Y0036357D01*
X0568326Y0037555D02*
X0575143Y0037555D01*
X0568326Y0037555D01*
X0566301Y0038754D02*
X0575143Y0038754D01*
X0566301Y0038754D01*
X0565948Y0039300D02*
X0567712Y0040031D01*
X0569063Y0041381D01*
X0569793Y0043145D01*
X0569793Y0045055D01*
X0569063Y0046819D01*
X0567712Y0048169D01*
X0565948Y0048900D01*
X0558039Y0048900D01*
X0556274Y0048169D01*
X0554924Y0046819D01*
X0554193Y0045055D01*
X0554193Y0043145D01*
X0554924Y0041381D01*
X0556274Y0040031D01*
X0558039Y0039300D01*
X0565948Y0039300D01*
X0567712Y0040031D01*
X0569063Y0041381D01*
X0569793Y0043145D01*
X0569793Y0045055D01*
X0569063Y0046819D01*
X0567712Y0048169D01*
X0565948Y0048900D01*
X0558039Y0048900D01*
X0556274Y0048169D01*
X0554924Y0046819D01*
X0554193Y0045055D01*
X0554193Y0043145D01*
X0554924Y0041381D01*
X0556274Y0040031D01*
X0558039Y0039300D01*
X0565948Y0039300D01*
X0567523Y0039952D02*
X0575143Y0039952D01*
X0567523Y0039952D01*
X0568832Y0041151D02*
X0575143Y0041151D01*
X0568832Y0041151D01*
X0569464Y0042349D02*
X0575143Y0042349D01*
X0569464Y0042349D01*
X0569793Y0043548D02*
X0575143Y0043548D01*
X0569793Y0043548D01*
X0569793Y0044746D02*
X0575143Y0044746D01*
X0569793Y0044746D01*
X0569425Y0045945D02*
X0575143Y0045945D01*
X0569425Y0045945D01*
X0568738Y0047143D02*
X0575143Y0047143D01*
X0568738Y0047143D01*
X0567295Y0048342D02*
X0575143Y0048342D01*
X0567295Y0048342D01*
X0565948Y0049300D02*
X0558039Y0049300D01*
X0556274Y0050031D01*
X0554924Y0051381D01*
X0554193Y0053145D01*
X0554193Y0055055D01*
X0554924Y0056819D01*
X0556274Y0058169D01*
X0558039Y0058900D01*
X0565948Y0058900D01*
X0567712Y0058169D01*
X0569063Y0056819D01*
X0569793Y0055055D01*
X0569793Y0053145D01*
X0569063Y0051381D01*
X0567712Y0050031D01*
X0565948Y0049300D01*
X0567712Y0050031D01*
X0569063Y0051381D01*
X0569793Y0053145D01*
X0569793Y0055055D01*
X0569063Y0056819D01*
X0567712Y0058169D01*
X0565948Y0058900D01*
X0558039Y0058900D01*
X0556274Y0058169D01*
X0554924Y0056819D01*
X0554193Y0055055D01*
X0554193Y0053145D01*
X0554924Y0051381D01*
X0556274Y0050031D01*
X0558039Y0049300D01*
X0565948Y0049300D01*
X0566529Y0049540D02*
X0575143Y0049540D01*
X0566529Y0049540D01*
X0568421Y0050739D02*
X0575143Y0050739D01*
X0568421Y0050739D01*
X0569293Y0051937D02*
X0575143Y0051937D01*
X0569293Y0051937D01*
X0569790Y0053136D02*
X0575143Y0053136D01*
X0569790Y0053136D01*
X0569793Y0054334D02*
X0575143Y0054334D01*
X0569793Y0054334D01*
X0569595Y0055533D02*
X0575143Y0055533D01*
X0569595Y0055533D01*
X0569099Y0056732D02*
X0575143Y0056732D01*
X0569099Y0056732D01*
X0567952Y0057930D02*
X0575143Y0057930D01*
X0567952Y0057930D01*
X0575143Y0059129D02*
X0528636Y0059129D01*
X0575143Y0059129D01*
X0575604Y0060327D02*
X0528438Y0060327D01*
X0575604Y0060327D01*
X0556035Y0057930D02*
X0528334Y0057930D01*
X0556035Y0057930D01*
X0554888Y0056732D02*
X0527352Y0056732D01*
X0554888Y0056732D01*
X0527602Y0061526D02*
X0634259Y0061526D01*
X0527602Y0061526D01*
X0471818Y0061526D02*
X0462293Y0061526D01*
X0471818Y0061526D01*
X0470619Y0060327D02*
X0462293Y0060327D01*
X0470619Y0060327D01*
X0462293Y0059500D02*
X0462293Y0063011D01*
X0462184Y0063418D01*
X0461974Y0063782D01*
X0461676Y0064080D01*
X0461311Y0064291D01*
X0460904Y0064400D01*
X0457393Y0064400D01*
X0457393Y0059500D01*
X0462293Y0059500D01*
X0457393Y0059129D02*
X0469421Y0059129D01*
X0457393Y0059129D01*
X0456593Y0059129D02*
X0440378Y0059129D01*
X0456593Y0059129D01*
X0456593Y0059500D02*
X0451693Y0059500D01*
X0451693Y0063011D01*
X0451802Y0063418D01*
X0452013Y0063782D01*
X0452311Y0064080D01*
X0452676Y0064291D01*
X0453083Y0064400D01*
X0456593Y0064400D01*
X0456593Y0059500D01*
X0456593Y0060327D02*
X0457393Y0060327D01*
X0456593Y0060327D01*
X0456593Y0061526D02*
X0457393Y0061526D01*
X0456593Y0061526D01*
X0456593Y0062724D02*
X0457393Y0062724D01*
X0456593Y0062724D01*
X0451693Y0062724D02*
X0445704Y0062724D01*
X0451693Y0062724D01*
X0451693Y0061526D02*
X0446811Y0061526D01*
X0451693Y0061526D01*
X0451693Y0060327D02*
X0447334Y0060327D01*
X0451693Y0060327D01*
X0462293Y0062724D02*
X0633863Y0062724D01*
X0462293Y0062724D01*
X0461834Y0063923D02*
X0633863Y0063923D01*
X0461834Y0063923D01*
X0457393Y0063923D02*
X0456593Y0063923D01*
X0457393Y0063923D01*
X0462293Y0057930D02*
X0468222Y0057930D01*
X0462293Y0057930D01*
X0462293Y0056732D02*
X0467024Y0056732D01*
X0462293Y0056732D01*
X0451693Y0056732D02*
X0446849Y0056732D01*
X0451693Y0056732D01*
X0451693Y0057930D02*
X0447353Y0057930D01*
X0451693Y0057930D01*
X0440378Y0056732D02*
X0439609Y0056732D01*
X0440378Y0056732D01*
X0440378Y0055533D02*
X0439609Y0055533D01*
X0440378Y0055533D01*
X0445782Y0055533D02*
X0451693Y0055533D01*
X0445782Y0055533D01*
X0452096Y0054334D02*
X0426993Y0054334D01*
X0426393Y0054334D02*
X0452096Y0054334D01*
X0453251Y0053136D02*
X0445622Y0053136D01*
X0453251Y0053136D01*
X0460736Y0053136D02*
X0463428Y0053136D01*
X0460736Y0053136D01*
X0461891Y0054334D02*
X0464627Y0054334D01*
X0461891Y0054334D01*
X0462293Y0055533D02*
X0465825Y0055533D01*
X0462293Y0055533D01*
X0452216Y0051937D02*
X0446830Y0051937D01*
X0452216Y0051937D01*
X0451719Y0050739D02*
X0447412Y0050739D01*
X0451719Y0050739D01*
X0451493Y0049540D02*
X0447699Y0049540D01*
X0451493Y0049540D01*
X0451493Y0048342D02*
X0447699Y0048342D01*
X0451493Y0048342D01*
X0450936Y0047143D02*
X0447280Y0047143D01*
X0450936Y0047143D01*
X0449737Y0045945D02*
X0446512Y0045945D01*
X0449737Y0045945D01*
X0448539Y0044746D02*
X0444855Y0044746D01*
X0448539Y0044746D01*
X0447340Y0043548D02*
X0444627Y0043548D01*
X0447340Y0043548D01*
X0451893Y0036357D02*
X0452176Y0036357D01*
X0451893Y0036357D01*
X0451893Y0035158D02*
X0453157Y0035158D01*
X0451893Y0035158D01*
X0446093Y0035158D02*
X0445726Y0035158D01*
X0446093Y0035158D01*
X0510161Y0037555D02*
X0555661Y0037555D01*
X0510161Y0037555D01*
X0608843Y0039952D02*
X0616464Y0039952D01*
X0608843Y0039952D01*
X0608843Y0041151D02*
X0615154Y0041151D01*
X0608843Y0041151D01*
X0614193Y0043145D02*
X0614924Y0041381D01*
X0616274Y0040031D01*
X0618039Y0039300D01*
X0625948Y0039300D01*
X0627712Y0040031D01*
X0629063Y0041381D01*
X0629793Y0043145D01*
X0629793Y0045055D01*
X0629063Y0046819D01*
X0627712Y0048169D01*
X0625948Y0048900D01*
X0618039Y0048900D01*
X0616274Y0048169D01*
X0614924Y0046819D01*
X0614193Y0045055D01*
X0614193Y0043145D01*
X0614924Y0041381D01*
X0616274Y0040031D01*
X0618039Y0039300D01*
X0625948Y0039300D01*
X0627712Y0040031D01*
X0629063Y0041381D01*
X0629793Y0043145D01*
X0629793Y0045055D01*
X0629063Y0046819D01*
X0627712Y0048169D01*
X0625948Y0048900D01*
X0618039Y0048900D01*
X0616274Y0048169D01*
X0614924Y0046819D01*
X0614193Y0045055D01*
X0614193Y0043145D01*
X0614193Y0043548D02*
X0608843Y0043548D01*
X0614193Y0043548D01*
X0614193Y0044746D02*
X0608843Y0044746D01*
X0614193Y0044746D01*
X0614562Y0045945D02*
X0608843Y0045945D01*
X0614562Y0045945D01*
X0615249Y0047143D02*
X0608843Y0047143D01*
X0615249Y0047143D01*
X0616691Y0048342D02*
X0608843Y0048342D01*
X0616691Y0048342D01*
X0618039Y0049300D02*
X0625948Y0049300D01*
X0627712Y0050031D01*
X0629063Y0051381D01*
X0629793Y0053145D01*
X0629793Y0055055D01*
X0629063Y0056819D01*
X0627712Y0058169D01*
X0625948Y0058900D01*
X0618039Y0058900D01*
X0616274Y0058169D01*
X0614924Y0056819D01*
X0614193Y0055055D01*
X0614193Y0053145D01*
X0614924Y0051381D01*
X0616274Y0050031D01*
X0618039Y0049300D01*
X0625948Y0049300D01*
X0627712Y0050031D01*
X0629063Y0051381D01*
X0629793Y0053145D01*
X0629793Y0055055D01*
X0629063Y0056819D01*
X0627712Y0058169D01*
X0625948Y0058900D01*
X0618039Y0058900D01*
X0616274Y0058169D01*
X0614924Y0056819D01*
X0614193Y0055055D01*
X0614193Y0053145D01*
X0614924Y0051381D01*
X0616274Y0050031D01*
X0618039Y0049300D01*
X0617458Y0049540D02*
X0608843Y0049540D01*
X0617458Y0049540D01*
X0615566Y0050739D02*
X0608843Y0050739D01*
X0615566Y0050739D01*
X0614694Y0051937D02*
X0608843Y0051937D01*
X0614694Y0051937D01*
X0614197Y0053136D02*
X0608843Y0053136D01*
X0614197Y0053136D01*
X0614193Y0054334D02*
X0608843Y0054334D01*
X0614193Y0054334D01*
X0614391Y0055533D02*
X0608843Y0055533D01*
X0614391Y0055533D01*
X0614888Y0056732D02*
X0608843Y0056732D01*
X0614888Y0056732D01*
X0616035Y0057930D02*
X0608843Y0057930D01*
X0616035Y0057930D01*
X0608843Y0059129D02*
X0635466Y0059129D01*
X0608843Y0059129D01*
X0608383Y0060327D02*
X0634756Y0060327D01*
X0608383Y0060327D01*
X0627952Y0057930D02*
X0636665Y0057930D01*
X0627952Y0057930D01*
X0629099Y0056732D02*
X0638536Y0056732D01*
X0629099Y0056732D01*
X0614523Y0042349D02*
X0608843Y0042349D01*
X0614523Y0042349D01*
X0608843Y0031563D02*
X0638764Y0031563D01*
X0608843Y0031563D01*
X0608843Y0030364D02*
X0636759Y0030364D01*
X0608843Y0030364D01*
X0608843Y0029166D02*
X0635561Y0029166D01*
X0608843Y0029166D01*
X0608477Y0027967D02*
X0634795Y0027967D01*
X0608477Y0027967D01*
X0635066Y0019578D02*
X0193921Y0019578D01*
X0194689Y0026769D02*
X0301291Y0026769D01*
X0194689Y0026769D01*
X0194192Y0027967D02*
X0220510Y0027967D01*
X0194192Y0027967D01*
X0193426Y0029166D02*
X0220143Y0029166D01*
X0193426Y0029166D01*
X0192228Y0030364D02*
X0200941Y0030364D01*
X0192228Y0030364D01*
X0199193Y0033145D02*
X0199924Y0031381D01*
X0201274Y0030031D01*
X0203039Y0029300D01*
X0210948Y0029300D01*
X0212712Y0030031D01*
X0214063Y0031381D01*
X0214793Y0033145D01*
X0214793Y0035055D01*
X0214063Y0036819D01*
X0212712Y0038169D01*
X0210948Y0038900D01*
X0203039Y0038900D01*
X0201274Y0038169D01*
X0199924Y0036819D01*
X0199193Y0035055D01*
X0199193Y0033145D01*
X0199924Y0031381D01*
X0201274Y0030031D01*
X0203039Y0029300D01*
X0210948Y0029300D01*
X0212712Y0030031D01*
X0214063Y0031381D01*
X0214793Y0033145D01*
X0214793Y0035055D01*
X0214063Y0036819D01*
X0212712Y0038169D01*
X0210948Y0038900D01*
X0203039Y0038900D01*
X0201274Y0038169D01*
X0199924Y0036819D01*
X0199193Y0035055D01*
X0199193Y0033145D01*
X0199849Y0031563D02*
X0190223Y0031563D01*
X0199849Y0031563D01*
X0213046Y0030364D02*
X0220143Y0030364D01*
X0213046Y0030364D01*
X0214138Y0031563D02*
X0220143Y0031563D01*
X0214138Y0031563D01*
X0214634Y0032761D02*
X0220143Y0032761D01*
X0214634Y0032761D01*
X0214793Y0033960D02*
X0220143Y0033960D01*
X0214793Y0033960D01*
X0214750Y0035158D02*
X0220143Y0035158D01*
X0214750Y0035158D01*
X0214254Y0036357D02*
X0220143Y0036357D01*
X0214254Y0036357D01*
X0213326Y0037555D02*
X0220143Y0037555D01*
X0213326Y0037555D01*
X0211301Y0038754D02*
X0220143Y0038754D01*
X0211301Y0038754D01*
X0210948Y0039300D02*
X0212712Y0040031D01*
X0214063Y0041381D01*
X0214793Y0043145D01*
X0214793Y0045055D01*
X0214063Y0046819D01*
X0212712Y0048169D01*
X0210948Y0048900D01*
X0203039Y0048900D01*
X0201274Y0048169D01*
X0199924Y0046819D01*
X0199193Y0045055D01*
X0199193Y0043145D01*
X0199924Y0041381D01*
X0201274Y0040031D01*
X0203039Y0039300D01*
X0210948Y0039300D01*
X0212712Y0040031D01*
X0214063Y0041381D01*
X0214793Y0043145D01*
X0214793Y0045055D01*
X0214063Y0046819D01*
X0212712Y0048169D01*
X0210948Y0048900D01*
X0203039Y0048900D01*
X0201274Y0048169D01*
X0199924Y0046819D01*
X0199193Y0045055D01*
X0199193Y0043145D01*
X0199924Y0041381D01*
X0201274Y0040031D01*
X0203039Y0039300D01*
X0210948Y0039300D01*
X0212523Y0039952D02*
X0220143Y0039952D01*
X0212523Y0039952D01*
X0213832Y0041151D02*
X0220143Y0041151D01*
X0213832Y0041151D01*
X0214464Y0042349D02*
X0220143Y0042349D01*
X0214464Y0042349D01*
X0214793Y0043548D02*
X0220143Y0043548D01*
X0214793Y0043548D01*
X0214793Y0044746D02*
X0220143Y0044746D01*
X0214793Y0044746D01*
X0214425Y0045945D02*
X0220143Y0045945D01*
X0214425Y0045945D01*
X0213738Y0047143D02*
X0220143Y0047143D01*
X0213738Y0047143D01*
X0212295Y0048342D02*
X0220143Y0048342D01*
X0212295Y0048342D01*
X0253843Y0048342D02*
X0261691Y0048342D01*
X0253843Y0048342D01*
X0253843Y0047143D02*
X0260249Y0047143D01*
X0253843Y0047143D01*
X0253843Y0045945D02*
X0259562Y0045945D01*
X0253843Y0045945D01*
X0259193Y0045055D02*
X0259193Y0043145D01*
X0259924Y0041381D01*
X0261274Y0040031D01*
X0263039Y0039300D01*
X0270948Y0039300D01*
X0272712Y0040031D01*
X0274063Y0041381D01*
X0274793Y0043145D01*
X0274793Y0045055D01*
X0274063Y0046819D01*
X0272712Y0048169D01*
X0270948Y0048900D01*
X0263039Y0048900D01*
X0261274Y0048169D01*
X0259924Y0046819D01*
X0259193Y0045055D01*
X0259193Y0043145D01*
X0259924Y0041381D01*
X0261274Y0040031D01*
X0263039Y0039300D01*
X0270948Y0039300D01*
X0272712Y0040031D01*
X0274063Y0041381D01*
X0274793Y0043145D01*
X0274793Y0045055D01*
X0274063Y0046819D01*
X0272712Y0048169D01*
X0270948Y0048900D01*
X0263039Y0048900D01*
X0261274Y0048169D01*
X0259924Y0046819D01*
X0259193Y0045055D01*
X0259193Y0044746D02*
X0253843Y0044746D01*
X0259193Y0044746D01*
X0259193Y0043548D02*
X0253843Y0043548D01*
X0259193Y0043548D01*
X0259523Y0042349D02*
X0253843Y0042349D01*
X0259523Y0042349D01*
X0260154Y0041151D02*
X0253843Y0041151D01*
X0260154Y0041151D01*
X0261464Y0039952D02*
X0253843Y0039952D01*
X0261464Y0039952D01*
X0262686Y0038754D02*
X0253843Y0038754D01*
X0262686Y0038754D01*
X0263039Y0038900D02*
X0261274Y0038169D01*
X0259924Y0036819D01*
X0259193Y0035055D01*
X0259193Y0033145D01*
X0259924Y0031381D01*
X0261274Y0030031D01*
X0263039Y0029300D01*
X0270948Y0029300D01*
X0272712Y0030031D01*
X0274063Y0031381D01*
X0274793Y0033145D01*
X0274793Y0035055D01*
X0274063Y0036819D01*
X0272712Y0038169D01*
X0270948Y0038900D01*
X0263039Y0038900D01*
X0261274Y0038169D01*
X0259924Y0036819D01*
X0259193Y0035055D01*
X0259193Y0033145D01*
X0259924Y0031381D01*
X0261274Y0030031D01*
X0263039Y0029300D01*
X0270948Y0029300D01*
X0272712Y0030031D01*
X0274063Y0031381D01*
X0274793Y0033145D01*
X0274793Y0035055D01*
X0274063Y0036819D01*
X0272712Y0038169D01*
X0270948Y0038900D01*
X0263039Y0038900D01*
X0271301Y0038754D02*
X0332686Y0038754D01*
X0271301Y0038754D01*
X0272523Y0039952D02*
X0331464Y0039952D01*
X0272523Y0039952D01*
X0273832Y0041151D02*
X0330154Y0041151D01*
X0273832Y0041151D01*
X0274464Y0042349D02*
X0329523Y0042349D01*
X0274464Y0042349D01*
X0274793Y0043548D02*
X0320944Y0043548D01*
X0274793Y0043548D01*
X0274793Y0044746D02*
X0319746Y0044746D01*
X0274793Y0044746D01*
X0274425Y0045945D02*
X0318421Y0045945D01*
X0274425Y0045945D01*
X0273738Y0047143D02*
X0317654Y0047143D01*
X0273738Y0047143D01*
X0272295Y0048342D02*
X0317504Y0048342D01*
X0272295Y0048342D01*
X0270948Y0049300D02*
X0263039Y0049300D01*
X0261274Y0050031D01*
X0259924Y0051381D01*
X0259193Y0053145D01*
X0259193Y0055055D01*
X0259924Y0056819D01*
X0261274Y0058169D01*
X0263039Y0058900D01*
X0270948Y0058900D01*
X0272712Y0058169D01*
X0274063Y0056819D01*
X0274793Y0055055D01*
X0274793Y0053145D01*
X0274063Y0051381D01*
X0272712Y0050031D01*
X0270948Y0049300D01*
X0272712Y0050031D01*
X0274063Y0051381D01*
X0274793Y0053145D01*
X0274793Y0055055D01*
X0274063Y0056819D01*
X0272712Y0058169D01*
X0270948Y0058900D01*
X0263039Y0058900D01*
X0261274Y0058169D01*
X0259924Y0056819D01*
X0259193Y0055055D01*
X0259193Y0053145D01*
X0259924Y0051381D01*
X0261274Y0050031D01*
X0263039Y0049300D01*
X0270948Y0049300D01*
X0271529Y0049540D02*
X0317855Y0049540D01*
X0271529Y0049540D01*
X0273421Y0050739D02*
X0319054Y0050739D01*
X0273421Y0050739D01*
X0274293Y0051937D02*
X0325093Y0051937D01*
X0274293Y0051937D01*
X0260566Y0050739D02*
X0253843Y0050739D01*
X0260566Y0050739D01*
X0259694Y0051937D02*
X0253843Y0051937D01*
X0259694Y0051937D01*
X0259197Y0053136D02*
X0253843Y0053136D01*
X0259197Y0053136D01*
X0259193Y0054334D02*
X0253843Y0054334D01*
X0259193Y0054334D01*
X0259391Y0055533D02*
X0253843Y0055533D01*
X0259391Y0055533D01*
X0259888Y0056732D02*
X0253843Y0056732D01*
X0259888Y0056732D01*
X0261035Y0057930D02*
X0253843Y0057930D01*
X0261035Y0057930D01*
X0253843Y0058334D02*
X0253843Y0029866D01*
X0253843Y0028334D01*
X0252760Y0027250D01*
X0221227Y0027250D01*
X0220143Y0028334D01*
X0220143Y0059866D01*
X0221227Y0060950D01*
X0252760Y0060950D01*
X0253843Y0059866D01*
X0253843Y0058334D01*
X0253843Y0029866D01*
X0253843Y0028334D01*
X0252760Y0027250D01*
X0221227Y0027250D01*
X0220143Y0028334D01*
X0220143Y0059866D01*
X0221227Y0060950D01*
X0252760Y0060950D01*
X0253843Y0059866D01*
X0253843Y0058334D01*
X0253843Y0059129D02*
X0321364Y0059129D01*
X0253843Y0059129D01*
X0253383Y0060327D02*
X0320165Y0060327D01*
X0253383Y0060327D01*
X0272952Y0057930D02*
X0322562Y0057930D01*
X0272952Y0057930D01*
X0274099Y0056732D02*
X0323761Y0056732D01*
X0274099Y0056732D01*
X0274595Y0055533D02*
X0324959Y0055533D01*
X0274595Y0055533D01*
X0274793Y0054334D02*
X0325093Y0054334D01*
X0274793Y0054334D01*
X0274790Y0053136D02*
X0325093Y0053136D01*
X0274790Y0053136D01*
X0262458Y0049540D02*
X0253843Y0049540D01*
X0262458Y0049540D01*
X0317504Y0048695D02*
X0317504Y0047505D01*
X0317959Y0046407D01*
X0318800Y0045566D01*
X0319015Y0045477D01*
X0320535Y0043957D01*
X0321351Y0043141D01*
X0322417Y0042700D01*
X0325570Y0042700D01*
X0326636Y0043141D01*
X0329636Y0046141D01*
X0329649Y0046154D01*
X0329193Y0045055D01*
X0329193Y0043145D01*
X0329924Y0041381D01*
X0331274Y0040031D01*
X0333039Y0039300D01*
X0340948Y0039300D01*
X0342712Y0040031D01*
X0344063Y0041381D01*
X0344793Y0043145D01*
X0344793Y0045055D01*
X0344063Y0046819D01*
X0342712Y0048169D01*
X0340948Y0048900D01*
X0333039Y0048900D01*
X0331274Y0048169D01*
X0330727Y0047622D01*
X0330893Y0048023D01*
X0330893Y0050412D01*
X0331274Y0050031D01*
X0333039Y0049300D01*
X0340948Y0049300D01*
X0342712Y0050031D01*
X0344063Y0051381D01*
X0344793Y0053145D01*
X0344793Y0055055D01*
X0344063Y0056819D01*
X0342712Y0058169D01*
X0340948Y0058900D01*
X0333039Y0058900D01*
X0332039Y0058486D01*
X0329505Y0059190D01*
X0323452Y0065243D01*
X0322636Y0066058D01*
X0321570Y0066500D01*
X0300803Y0066500D01*
X0300588Y0066589D01*
X0299399Y0066589D01*
X0298300Y0066134D01*
X0297459Y0065293D01*
X0297004Y0064195D01*
X0297004Y0063005D01*
X0297459Y0061907D01*
X0298300Y0061066D01*
X0299399Y0060611D01*
X0300588Y0060611D01*
X0300803Y0060700D01*
X0319792Y0060700D01*
X0325093Y0055399D01*
X0325093Y0049801D01*
X0323993Y0048701D01*
X0323116Y0049578D01*
X0323027Y0049793D01*
X0322186Y0050634D01*
X0321088Y0051089D01*
X0319899Y0051089D01*
X0318800Y0050634D01*
X0317959Y0049793D01*
X0317504Y0048695D01*
X0317504Y0047505D01*
X0317959Y0046407D01*
X0318800Y0045566D01*
X0319015Y0045477D01*
X0320535Y0043957D01*
X0321351Y0043141D01*
X0322417Y0042700D01*
X0325570Y0042700D01*
X0326636Y0043141D01*
X0329636Y0046141D01*
X0329649Y0046154D01*
X0329193Y0045055D01*
X0329193Y0043145D01*
X0329924Y0041381D01*
X0331274Y0040031D01*
X0333039Y0039300D01*
X0340948Y0039300D01*
X0342712Y0040031D01*
X0344063Y0041381D01*
X0344793Y0043145D01*
X0344793Y0045055D01*
X0344063Y0046819D01*
X0342712Y0048169D01*
X0340948Y0048900D01*
X0333039Y0048900D01*
X0331274Y0048169D01*
X0330727Y0047622D01*
X0330893Y0048023D01*
X0330893Y0050412D01*
X0331274Y0050031D01*
X0333039Y0049300D01*
X0340948Y0049300D01*
X0342712Y0050031D01*
X0344063Y0051381D01*
X0344793Y0053145D01*
X0344793Y0055055D01*
X0344063Y0056819D01*
X0342712Y0058169D01*
X0340948Y0058900D01*
X0333039Y0058900D01*
X0332039Y0058486D01*
X0329505Y0059190D01*
X0323452Y0065243D01*
X0322636Y0066058D01*
X0321570Y0066500D01*
X0300803Y0066500D01*
X0300588Y0066589D01*
X0299399Y0066589D01*
X0298300Y0066134D01*
X0297459Y0065293D01*
X0297004Y0064195D01*
X0297004Y0063005D01*
X0297459Y0061907D01*
X0298300Y0061066D01*
X0299399Y0060611D01*
X0300588Y0060611D01*
X0300803Y0060700D01*
X0319792Y0060700D01*
X0325093Y0055399D01*
X0325093Y0049801D01*
X0323993Y0048701D01*
X0323116Y0049578D01*
X0323027Y0049793D01*
X0322186Y0050634D01*
X0321088Y0051089D01*
X0319899Y0051089D01*
X0318800Y0050634D01*
X0317959Y0049793D01*
X0317504Y0048695D01*
X0323154Y0049540D02*
X0324833Y0049540D01*
X0323154Y0049540D01*
X0321933Y0050739D02*
X0325093Y0050739D01*
X0321933Y0050739D01*
X0330893Y0049540D02*
X0332458Y0049540D01*
X0330893Y0049540D01*
X0330893Y0048342D02*
X0331691Y0048342D01*
X0330893Y0048342D01*
X0329562Y0045945D02*
X0329440Y0045945D01*
X0329562Y0045945D01*
X0329193Y0044746D02*
X0328241Y0044746D01*
X0329193Y0044746D01*
X0329193Y0043548D02*
X0327042Y0043548D01*
X0329193Y0043548D01*
X0330661Y0037555D02*
X0273326Y0037555D01*
X0330661Y0037555D01*
X0329733Y0036357D02*
X0274254Y0036357D01*
X0329733Y0036357D01*
X0329236Y0035158D02*
X0274750Y0035158D01*
X0329236Y0035158D01*
X0329193Y0033960D02*
X0274793Y0033960D01*
X0329193Y0033960D01*
X0329352Y0032761D02*
X0274634Y0032761D01*
X0329352Y0032761D01*
X0301846Y0031563D02*
X0274138Y0031563D01*
X0301846Y0031563D01*
X0300692Y0030364D02*
X0273046Y0030364D01*
X0300692Y0030364D01*
X0300351Y0029166D02*
X0253843Y0029166D01*
X0300351Y0029166D01*
X0300510Y0027967D02*
X0253477Y0027967D01*
X0300510Y0027967D01*
X0260941Y0030364D02*
X0253843Y0030364D01*
X0260941Y0030364D01*
X0259849Y0031563D02*
X0253843Y0031563D01*
X0259849Y0031563D01*
X0259352Y0032761D02*
X0253843Y0032761D01*
X0259352Y0032761D01*
X0259193Y0033960D02*
X0253843Y0033960D01*
X0259193Y0033960D01*
X0259236Y0035158D02*
X0253843Y0035158D01*
X0259236Y0035158D01*
X0259733Y0036357D02*
X0253843Y0036357D01*
X0259733Y0036357D01*
X0260661Y0037555D02*
X0253843Y0037555D01*
X0260661Y0037555D01*
X0179298Y0026769D02*
X0176993Y0026769D01*
X0174143Y0008791D02*
X0654843Y0008791D01*
X0654843Y0007593D02*
X0174143Y0007593D01*
X0174143Y0006394D02*
X0654843Y0006394D01*
X0654843Y0005196D02*
X0174143Y0005196D01*
X0174143Y0003997D02*
X0654843Y0003997D01*
X0434365Y0053136D02*
X0426993Y0053136D01*
X0426393Y0053136D02*
X0434365Y0053136D01*
X0434205Y0055533D02*
X0426993Y0055533D01*
X0426787Y0055533D02*
X0434205Y0055533D01*
X0383365Y0053136D02*
X0382893Y0053136D01*
X0383365Y0053136D01*
X0297841Y0061526D02*
X0194728Y0061526D01*
X0297841Y0061526D01*
X0297121Y0062724D02*
X0195124Y0062724D01*
X0297121Y0062724D01*
X0297004Y0063923D02*
X0195124Y0063923D01*
X0297004Y0063923D01*
X0297388Y0065121D02*
X0195124Y0065121D01*
X0297388Y0065121D01*
X0298749Y0066320D02*
X0194875Y0066320D01*
X0298749Y0066320D01*
X0220604Y0060327D02*
X0194231Y0060327D01*
X0220604Y0060327D01*
X0220143Y0059129D02*
X0193520Y0059129D01*
X0220143Y0059129D01*
X0220143Y0057930D02*
X0192322Y0057930D01*
X0220143Y0057930D01*
X0220143Y0056732D02*
X0190451Y0056732D01*
X0220143Y0056732D01*
X0179112Y0066320D02*
X0176993Y0066320D01*
X0176993Y0078305D02*
X0401993Y0078305D01*
X0401993Y0079503D02*
X0176993Y0079503D01*
X0176993Y0080702D02*
X0401993Y0080702D01*
D16*
X0351993Y0070600D03*
X0299993Y0063600D03*
X0247993Y0069600D03*
X0276993Y0050600D03*
X0320493Y0048100D03*
X0423993Y0041600D03*
X0508493Y0040100D03*
X0551993Y0037600D03*
X0528993Y0024600D03*
X0580993Y0018600D03*
X0476993Y0017600D03*
X0323993Y0034600D03*
X0303340Y0028946D03*
X0302993Y0022600D03*
X0224993Y0018600D03*
X0504993Y0053600D03*
X0525647Y0059254D03*
X0525993Y0065600D03*
X0603993Y0069600D03*
X0423993Y0056600D03*
D17*
X0439993Y0059100D02*
X0456993Y0059100D01*
X0388993Y0029100D02*
X0371993Y0029100D01*
D18*
X0365493Y0039100D02*
X0355193Y0028800D01*
X0331798Y0028800D01*
X0331652Y0028946D01*
X0303340Y0028946D01*
X0365493Y0039100D02*
X0371993Y0039100D01*
X0379993Y0047100D01*
X0379993Y0054600D01*
X0384493Y0059100D01*
X0388993Y0059100D01*
X0336993Y0054100D02*
X0327993Y0056600D01*
X0320993Y0063600D01*
X0299993Y0063600D01*
X0327993Y0056600D02*
X0327993Y0048600D01*
X0324993Y0045600D01*
X0322993Y0045600D01*
X0320493Y0048100D01*
X0444493Y0029100D02*
X0448993Y0033600D01*
X0448993Y0041100D01*
X0456993Y0049100D01*
X0463493Y0049100D01*
X0473793Y0059400D01*
X0497189Y0059400D01*
X0497335Y0059254D01*
X0525647Y0059254D01*
X0508493Y0040100D02*
X0505993Y0042600D01*
X0503993Y0042600D01*
X0500993Y0039600D01*
X0500993Y0033600D01*
X0500493Y0034100D01*
X0491993Y0034100D01*
X0500993Y0033600D02*
X0500993Y0031600D01*
X0507993Y0024600D01*
X0528993Y0024600D01*
X0444493Y0029100D02*
X0439993Y0029100D01*
M02*
