G75*
%MOIN*%
%OFA0B0*%
%FSLAX25Y25*%
%IPPOS*%
%LPD*%
%AMOC8*
5,1,8,0,0,1.08239X$1,22.5*
%
%ADD10C,0.00100*%
%ADD11C,0.00600*%
%ADD12C,0.00200*%
%ADD13C,0.00400*%
%ADD14C,0.00800*%
%ADD15C,0.00500*%
%ADD16C,0.03000*%
%ADD17C,0.00300*%
%ADD18C,0.00000*%
D10*
X0171993Y0001600D02*
X0171993Y0086600D01*
X0656993Y0086600D01*
X0656993Y0001600D01*
X0171993Y0001600D01*
D11*
X0066993Y0006600D02*
X0066993Y0081600D01*
X0176993Y0081600D01*
X0176993Y0076600D01*
X0071993Y0076600D01*
X0071993Y0011600D01*
X0176993Y0011600D01*
X0176993Y0006600D01*
X0401993Y0006600D01*
X0401993Y0026600D01*
X0396993Y0026600D02*
X0396993Y0011600D01*
X0176993Y0011600D01*
X0174493Y0009100D02*
X0170051Y0009100D01*
X0166114Y0009100D02*
X0161671Y0009100D01*
X0157734Y0009100D02*
X0153291Y0009100D01*
X0149354Y0009100D02*
X0144911Y0009100D01*
X0140974Y0009100D02*
X0136532Y0009100D01*
X0132595Y0009100D02*
X0128152Y0009100D01*
X0124215Y0009100D02*
X0119772Y0009100D01*
X0115835Y0009100D02*
X0111392Y0009100D01*
X0107455Y0009100D02*
X0103012Y0009100D01*
X0099075Y0009100D02*
X0094633Y0009100D01*
X0090696Y0009100D02*
X0086253Y0009100D01*
X0082316Y0009100D02*
X0077873Y0009100D01*
X0073936Y0009100D02*
X0069493Y0009100D01*
X0069493Y0013335D01*
X0069493Y0017272D02*
X0069493Y0021506D01*
X0069493Y0025444D02*
X0069493Y0029678D01*
X0069493Y0033615D02*
X0069493Y0037850D01*
X0069493Y0055350D02*
X0069493Y0060642D01*
X0069493Y0064579D02*
X0069493Y0069871D01*
X0069493Y0073808D02*
X0069493Y0079100D01*
X0073936Y0079100D01*
X0077873Y0079100D02*
X0082316Y0079100D01*
X0086253Y0079100D02*
X0090696Y0079100D01*
X0094633Y0079100D02*
X0099075Y0079100D01*
X0103012Y0079100D02*
X0107455Y0079100D01*
X0111392Y0079100D02*
X0115835Y0079100D01*
X0119772Y0079100D02*
X0124215Y0079100D01*
X0128152Y0079100D02*
X0132595Y0079100D01*
X0136532Y0079100D02*
X0140974Y0079100D01*
X0144911Y0079100D02*
X0149354Y0079100D01*
X0153291Y0079100D02*
X0157734Y0079100D01*
X0161671Y0079100D02*
X0166114Y0079100D01*
X0170051Y0079100D02*
X0174493Y0079100D01*
X0179493Y0079100D02*
X0183534Y0079100D01*
X0187471Y0079100D02*
X0191512Y0079100D01*
X0195449Y0079100D02*
X0199489Y0079100D01*
X0203426Y0079100D02*
X0207467Y0079100D01*
X0211404Y0079100D02*
X0215445Y0079100D01*
X0219382Y0079100D02*
X0223422Y0079100D01*
X0227359Y0079100D02*
X0231400Y0079100D01*
X0235337Y0079100D02*
X0239378Y0079100D01*
X0243315Y0079100D02*
X0247355Y0079100D01*
X0251292Y0079100D02*
X0255333Y0079100D01*
X0259270Y0079100D02*
X0263310Y0079100D01*
X0267247Y0079100D02*
X0271288Y0079100D01*
X0275225Y0079100D02*
X0279266Y0079100D01*
X0283203Y0079100D02*
X0287243Y0079100D01*
X0299493Y0079100D02*
X0303552Y0079100D01*
X0307489Y0079100D02*
X0311547Y0079100D01*
X0315484Y0079100D02*
X0319542Y0079100D01*
X0323479Y0079100D02*
X0327537Y0079100D01*
X0331474Y0079100D02*
X0335532Y0079100D01*
X0339469Y0079100D02*
X0343527Y0079100D01*
X0347464Y0079100D02*
X0351522Y0079100D01*
X0355459Y0079100D02*
X0359518Y0079100D01*
X0363455Y0079100D02*
X0367513Y0079100D01*
X0371450Y0079100D02*
X0375508Y0079100D01*
X0379445Y0079100D02*
X0383503Y0079100D01*
X0387440Y0079100D02*
X0391498Y0079100D01*
X0395435Y0079100D02*
X0399493Y0079100D01*
X0399493Y0076069D01*
X0396993Y0076600D02*
X0396993Y0066600D01*
X0401993Y0066600D02*
X0401993Y0081600D01*
X0176993Y0081600D01*
X0176993Y0076600D02*
X0396993Y0076600D01*
X0429493Y0079100D02*
X0429493Y0073569D01*
X0431993Y0076600D02*
X0431993Y0061600D01*
X0426993Y0061600D02*
X0426993Y0081600D01*
X0651993Y0081600D01*
X0651993Y0076600D01*
X0431993Y0076600D01*
X0433648Y0079100D02*
X0429493Y0079100D01*
X0437585Y0079100D02*
X0441739Y0079100D01*
X0445676Y0079100D02*
X0449830Y0079100D01*
X0453767Y0079100D02*
X0457922Y0079100D01*
X0461859Y0079100D02*
X0466013Y0079100D01*
X0469950Y0079100D02*
X0474104Y0079100D01*
X0478041Y0079100D02*
X0482196Y0079100D01*
X0486133Y0079100D02*
X0490287Y0079100D01*
X0494224Y0079100D02*
X0498378Y0079100D01*
X0502315Y0079100D02*
X0506469Y0079100D01*
X0510406Y0079100D02*
X0514561Y0079100D01*
X0518498Y0079100D02*
X0522652Y0079100D01*
X0526589Y0079100D02*
X0530743Y0079100D01*
X0542243Y0079100D02*
X0546248Y0079100D01*
X0550185Y0079100D02*
X0554190Y0079100D01*
X0558127Y0079100D02*
X0562132Y0079100D01*
X0566069Y0079100D02*
X0570074Y0079100D01*
X0574011Y0079100D02*
X0578016Y0079100D01*
X0581953Y0079100D02*
X0585958Y0079100D01*
X0589895Y0079100D02*
X0593900Y0079100D01*
X0597837Y0079100D02*
X0601842Y0079100D01*
X0605779Y0079100D02*
X0609784Y0079100D01*
X0613721Y0079100D02*
X0617726Y0079100D01*
X0621663Y0079100D02*
X0625668Y0079100D01*
X0629605Y0079100D02*
X0633610Y0079100D01*
X0637547Y0079100D02*
X0641551Y0079100D01*
X0645488Y0079100D02*
X0649493Y0079100D01*
X0654493Y0079100D02*
X0658936Y0079100D01*
X0662873Y0079100D02*
X0667316Y0079100D01*
X0671253Y0079100D02*
X0675696Y0079100D01*
X0679633Y0079100D02*
X0684075Y0079100D01*
X0688012Y0079100D02*
X0692455Y0079100D01*
X0696392Y0079100D02*
X0700835Y0079100D01*
X0704772Y0079100D02*
X0709215Y0079100D01*
X0713152Y0079100D02*
X0717595Y0079100D01*
X0721532Y0079100D02*
X0725974Y0079100D01*
X0729911Y0079100D02*
X0734354Y0079100D01*
X0738291Y0079100D02*
X0742734Y0079100D01*
X0746671Y0079100D02*
X0751114Y0079100D01*
X0755051Y0079100D02*
X0759493Y0079100D01*
X0759493Y0074865D01*
X0756993Y0076600D02*
X0756993Y0011600D01*
X0651993Y0011600D01*
X0651993Y0006600D01*
X0761993Y0006600D01*
X0761993Y0081600D01*
X0651993Y0081600D01*
X0651993Y0076600D02*
X0756993Y0076600D01*
X0759493Y0070928D02*
X0759493Y0066694D01*
X0759493Y0062756D02*
X0759493Y0058522D01*
X0759493Y0054585D02*
X0759493Y0050350D01*
X0759493Y0032850D02*
X0759493Y0027558D01*
X0759493Y0023621D02*
X0759493Y0018329D01*
X0759493Y0014392D02*
X0759493Y0009100D01*
X0755051Y0009100D01*
X0751114Y0009100D02*
X0746671Y0009100D01*
X0742734Y0009100D02*
X0738291Y0009100D01*
X0734354Y0009100D02*
X0729911Y0009100D01*
X0725974Y0009100D02*
X0721532Y0009100D01*
X0717595Y0009100D02*
X0713152Y0009100D01*
X0709215Y0009100D02*
X0704772Y0009100D01*
X0700835Y0009100D02*
X0696392Y0009100D01*
X0692455Y0009100D02*
X0688012Y0009100D01*
X0684075Y0009100D02*
X0679633Y0009100D01*
X0675696Y0009100D02*
X0671253Y0009100D01*
X0667316Y0009100D02*
X0662873Y0009100D01*
X0658936Y0009100D02*
X0654493Y0009100D01*
X0649493Y0009100D02*
X0645453Y0009100D01*
X0641516Y0009100D02*
X0637475Y0009100D01*
X0633538Y0009100D02*
X0629497Y0009100D01*
X0625560Y0009100D02*
X0621520Y0009100D01*
X0617583Y0009100D02*
X0613542Y0009100D01*
X0609605Y0009100D02*
X0605565Y0009100D01*
X0601628Y0009100D02*
X0597587Y0009100D01*
X0593650Y0009100D02*
X0589609Y0009100D01*
X0585672Y0009100D02*
X0581632Y0009100D01*
X0577695Y0009100D02*
X0573654Y0009100D01*
X0569717Y0009100D02*
X0565676Y0009100D01*
X0561739Y0009100D02*
X0557699Y0009100D01*
X0553762Y0009100D02*
X0549721Y0009100D01*
X0545784Y0009100D02*
X0541743Y0009100D01*
X0529493Y0009100D02*
X0525435Y0009100D01*
X0521498Y0009100D02*
X0517440Y0009100D01*
X0513503Y0009100D02*
X0509445Y0009100D01*
X0505508Y0009100D02*
X0501450Y0009100D01*
X0497513Y0009100D02*
X0493455Y0009100D01*
X0489518Y0009100D02*
X0485459Y0009100D01*
X0481522Y0009100D02*
X0477464Y0009100D01*
X0473527Y0009100D02*
X0469469Y0009100D01*
X0465532Y0009100D02*
X0461474Y0009100D01*
X0457537Y0009100D02*
X0453479Y0009100D01*
X0449542Y0009100D02*
X0445484Y0009100D01*
X0441547Y0009100D02*
X0437489Y0009100D01*
X0433552Y0009100D02*
X0429493Y0009100D01*
X0429493Y0012131D01*
X0431993Y0011600D02*
X0431993Y0021600D01*
X0426993Y0021600D02*
X0426993Y0006600D01*
X0651993Y0006600D01*
X0651993Y0011600D02*
X0431993Y0011600D01*
X0399493Y0009100D02*
X0399493Y0014631D01*
X0399493Y0018569D02*
X0399493Y0024100D01*
X0396993Y0024100D02*
X0396993Y0034100D01*
X0401993Y0034100D01*
X0401993Y0024100D01*
X0396993Y0024100D01*
X0381993Y0024100D01*
X0381993Y0064100D01*
X0396993Y0064100D01*
X0396993Y0054100D01*
X0401993Y0054100D01*
X0401993Y0044100D01*
X0396993Y0044100D01*
X0396993Y0034100D01*
X0401993Y0034100D02*
X0401993Y0044100D01*
X0396993Y0044100D02*
X0396993Y0054100D01*
X0401993Y0054100D02*
X0401993Y0064100D01*
X0396993Y0064100D01*
X0426993Y0064100D02*
X0431993Y0064100D01*
X0431993Y0054100D01*
X0426993Y0054100D01*
X0426993Y0064100D01*
X0429493Y0064100D02*
X0429493Y0069631D01*
X0399493Y0069100D02*
X0399493Y0072131D01*
X0347993Y0070600D02*
X0255993Y0070600D01*
X0255993Y0015600D01*
X0347993Y0015600D01*
X0347993Y0070600D01*
X0431993Y0064100D02*
X0446993Y0064100D01*
X0446993Y0024100D01*
X0431993Y0024100D01*
X0431993Y0034100D01*
X0426993Y0034100D01*
X0426993Y0044100D01*
X0431993Y0044100D01*
X0431993Y0054100D01*
X0426993Y0054100D02*
X0426993Y0044100D01*
X0431993Y0044100D02*
X0431993Y0034100D01*
X0426993Y0034100D02*
X0426993Y0024100D01*
X0431993Y0024100D01*
X0429493Y0019100D02*
X0429493Y0016069D01*
X0399493Y0009100D02*
X0395339Y0009100D01*
X0391402Y0009100D02*
X0387248Y0009100D01*
X0383311Y0009100D02*
X0379156Y0009100D01*
X0375219Y0009100D02*
X0371065Y0009100D01*
X0367128Y0009100D02*
X0362974Y0009100D01*
X0359037Y0009100D02*
X0354883Y0009100D01*
X0350946Y0009100D02*
X0346791Y0009100D01*
X0342854Y0009100D02*
X0338700Y0009100D01*
X0334763Y0009100D02*
X0330609Y0009100D01*
X0326672Y0009100D02*
X0322517Y0009100D01*
X0318580Y0009100D02*
X0314426Y0009100D01*
X0310489Y0009100D02*
X0306335Y0009100D01*
X0302398Y0009100D02*
X0298243Y0009100D01*
X0286743Y0009100D02*
X0282738Y0009100D01*
X0278801Y0009100D02*
X0274797Y0009100D01*
X0270860Y0009100D02*
X0266855Y0009100D01*
X0262918Y0009100D02*
X0258913Y0009100D01*
X0254976Y0009100D02*
X0250971Y0009100D01*
X0247034Y0009100D02*
X0243029Y0009100D01*
X0239092Y0009100D02*
X0235087Y0009100D01*
X0231150Y0009100D02*
X0227145Y0009100D01*
X0223208Y0009100D02*
X0219203Y0009100D01*
X0215266Y0009100D02*
X0211261Y0009100D01*
X0207324Y0009100D02*
X0203319Y0009100D01*
X0199382Y0009100D02*
X0195377Y0009100D01*
X0191440Y0009100D02*
X0187435Y0009100D01*
X0183498Y0009100D02*
X0179493Y0009100D01*
X0176993Y0006600D02*
X0066993Y0006600D01*
X0261993Y0031600D02*
X0264493Y0029100D01*
X0269493Y0029100D01*
X0271993Y0031600D01*
X0271993Y0036600D01*
X0269493Y0039100D01*
X0264493Y0039100D01*
X0261993Y0036600D01*
X0261993Y0031600D01*
X0302593Y0037200D02*
X0302593Y0054000D01*
X0323393Y0054000D02*
X0323393Y0037200D01*
X0331993Y0036600D02*
X0334493Y0039100D01*
X0331993Y0041600D01*
X0331993Y0046600D01*
X0334493Y0049100D01*
X0331993Y0051600D01*
X0331993Y0056600D01*
X0334493Y0059100D01*
X0339493Y0059100D01*
X0341993Y0056600D01*
X0341993Y0051600D01*
X0339493Y0049100D01*
X0341993Y0046600D01*
X0341993Y0041600D01*
X0339493Y0039100D01*
X0341993Y0036600D01*
X0341993Y0031600D01*
X0339493Y0029100D01*
X0334493Y0029100D01*
X0331993Y0031600D01*
X0331993Y0036600D01*
X0334493Y0039100D02*
X0339493Y0039100D01*
X0271993Y0041600D02*
X0269493Y0039100D01*
X0264493Y0039100D02*
X0261993Y0041600D01*
X0261993Y0046600D01*
X0264493Y0049100D01*
X0261993Y0051600D01*
X0261993Y0056600D01*
X0264493Y0059100D01*
X0269493Y0059100D01*
X0271993Y0056600D01*
X0271993Y0051600D01*
X0269493Y0049100D01*
X0271993Y0046600D01*
X0271993Y0041600D01*
X0269493Y0049100D02*
X0264493Y0049100D01*
X0334493Y0049100D02*
X0339493Y0049100D01*
X0486993Y0046600D02*
X0486993Y0041600D01*
X0489493Y0039100D01*
X0486993Y0036600D01*
X0486993Y0031600D01*
X0489493Y0029100D01*
X0494493Y0029100D01*
X0496993Y0031600D01*
X0496993Y0036600D01*
X0494493Y0039100D01*
X0489493Y0039100D01*
X0494493Y0039100D02*
X0496993Y0041600D01*
X0496993Y0046600D01*
X0494493Y0049100D01*
X0489493Y0049100D01*
X0486993Y0046600D01*
X0489493Y0049100D02*
X0486993Y0051600D01*
X0486993Y0056600D01*
X0489493Y0059100D01*
X0494493Y0059100D01*
X0496993Y0056600D01*
X0496993Y0051600D01*
X0494493Y0049100D01*
X0505593Y0051000D02*
X0505593Y0034200D01*
X0526393Y0034200D02*
X0526393Y0051000D01*
X0556993Y0051600D02*
X0556993Y0056600D01*
X0559493Y0059100D01*
X0564493Y0059100D01*
X0566993Y0056600D01*
X0566993Y0051600D01*
X0564493Y0049100D01*
X0566993Y0046600D01*
X0566993Y0041600D01*
X0564493Y0039100D01*
X0566993Y0036600D01*
X0566993Y0031600D01*
X0564493Y0029100D01*
X0559493Y0029100D01*
X0556993Y0031600D01*
X0556993Y0036600D01*
X0559493Y0039100D01*
X0556993Y0041600D01*
X0556993Y0046600D01*
X0559493Y0049100D01*
X0556993Y0051600D01*
X0559493Y0049100D02*
X0564493Y0049100D01*
X0564493Y0039100D02*
X0559493Y0039100D01*
X0572993Y0017600D02*
X0480993Y0017600D01*
X0480993Y0072600D01*
X0572993Y0072600D01*
X0572993Y0017600D01*
D12*
X0537893Y0010500D02*
X0537271Y0010500D01*
X0537222Y0010498D01*
X0537174Y0010492D01*
X0537126Y0010483D01*
X0537079Y0010470D01*
X0537033Y0010453D01*
X0536989Y0010432D01*
X0536946Y0010408D01*
X0536905Y0010381D01*
X0536867Y0010351D01*
X0536831Y0010318D01*
X0536798Y0010282D01*
X0536768Y0010244D01*
X0536741Y0010203D01*
X0536717Y0010160D01*
X0536696Y0010116D01*
X0536679Y0010070D01*
X0536666Y0010023D01*
X0536657Y0009975D01*
X0536651Y0009927D01*
X0536649Y0009878D01*
X0536649Y0008322D01*
X0536651Y0008273D01*
X0536657Y0008225D01*
X0536666Y0008177D01*
X0536679Y0008130D01*
X0536696Y0008084D01*
X0536717Y0008040D01*
X0536741Y0007997D01*
X0536768Y0007956D01*
X0536798Y0007918D01*
X0536831Y0007882D01*
X0536867Y0007849D01*
X0536905Y0007819D01*
X0536946Y0007792D01*
X0536989Y0007768D01*
X0537033Y0007747D01*
X0537079Y0007730D01*
X0537126Y0007717D01*
X0537174Y0007708D01*
X0537222Y0007702D01*
X0537271Y0007700D01*
X0537893Y0007700D01*
X0535422Y0007700D02*
X0535422Y0010500D01*
X0533866Y0010500D02*
X0535422Y0007700D01*
X0533866Y0007700D02*
X0533866Y0010500D01*
X0541216Y0025187D02*
X0542771Y0025187D01*
X0542820Y0025189D01*
X0542868Y0025195D01*
X0542916Y0025204D01*
X0542963Y0025217D01*
X0543009Y0025234D01*
X0543053Y0025255D01*
X0543096Y0025279D01*
X0543137Y0025306D01*
X0543175Y0025336D01*
X0543211Y0025369D01*
X0543244Y0025405D01*
X0543274Y0025443D01*
X0543301Y0025484D01*
X0543325Y0025527D01*
X0543346Y0025571D01*
X0543363Y0025617D01*
X0543376Y0025664D01*
X0543385Y0025712D01*
X0543391Y0025760D01*
X0543393Y0025809D01*
X0543393Y0026432D01*
X0542616Y0027444D02*
X0541838Y0027444D01*
X0541838Y0028378D01*
X0541838Y0027445D02*
X0541768Y0027447D01*
X0541699Y0027453D01*
X0541630Y0027463D01*
X0541561Y0027476D01*
X0541494Y0027494D01*
X0541427Y0027515D01*
X0541362Y0027540D01*
X0541298Y0027568D01*
X0541236Y0027600D01*
X0541176Y0027636D01*
X0541118Y0027674D01*
X0541062Y0027716D01*
X0541009Y0027761D01*
X0540958Y0027809D01*
X0540910Y0027860D01*
X0540865Y0027913D01*
X0540823Y0027969D01*
X0540785Y0028027D01*
X0540749Y0028087D01*
X0540717Y0028149D01*
X0540689Y0028213D01*
X0540664Y0028278D01*
X0540643Y0028345D01*
X0540625Y0028412D01*
X0540612Y0028481D01*
X0540602Y0028550D01*
X0540596Y0028619D01*
X0540594Y0028689D01*
X0542460Y0029000D02*
X0542616Y0029000D01*
X0542460Y0029000D02*
X0542411Y0028998D01*
X0542363Y0028992D01*
X0542315Y0028983D01*
X0542268Y0028970D01*
X0542222Y0028953D01*
X0542178Y0028932D01*
X0542135Y0028908D01*
X0542094Y0028881D01*
X0542056Y0028851D01*
X0542020Y0028818D01*
X0541987Y0028782D01*
X0541957Y0028744D01*
X0541930Y0028703D01*
X0541906Y0028660D01*
X0541885Y0028616D01*
X0541868Y0028570D01*
X0541855Y0028523D01*
X0541846Y0028475D01*
X0541840Y0028427D01*
X0541838Y0028378D01*
X0542616Y0029000D02*
X0542672Y0028998D01*
X0542727Y0028992D01*
X0542781Y0028982D01*
X0542835Y0028968D01*
X0542888Y0028951D01*
X0542939Y0028930D01*
X0542989Y0028905D01*
X0543037Y0028876D01*
X0543082Y0028845D01*
X0543125Y0028810D01*
X0543166Y0028772D01*
X0543204Y0028731D01*
X0543239Y0028688D01*
X0543270Y0028643D01*
X0543299Y0028595D01*
X0543324Y0028545D01*
X0543345Y0028494D01*
X0543362Y0028441D01*
X0543376Y0028387D01*
X0543386Y0028333D01*
X0543392Y0028278D01*
X0543394Y0028222D01*
X0543392Y0028166D01*
X0543386Y0028111D01*
X0543376Y0028057D01*
X0543362Y0028003D01*
X0543345Y0027950D01*
X0543324Y0027899D01*
X0543299Y0027849D01*
X0543270Y0027801D01*
X0543239Y0027756D01*
X0543204Y0027713D01*
X0543166Y0027672D01*
X0543125Y0027634D01*
X0543082Y0027599D01*
X0543037Y0027568D01*
X0542989Y0027539D01*
X0542939Y0027514D01*
X0542888Y0027493D01*
X0542835Y0027476D01*
X0542781Y0027462D01*
X0542727Y0027452D01*
X0542672Y0027446D01*
X0542616Y0027444D01*
X0540593Y0026432D02*
X0540593Y0025809D01*
X0540594Y0025810D02*
X0540596Y0025761D01*
X0540602Y0025713D01*
X0540611Y0025665D01*
X0540624Y0025618D01*
X0540641Y0025572D01*
X0540662Y0025528D01*
X0540686Y0025485D01*
X0540713Y0025444D01*
X0540743Y0025406D01*
X0540776Y0025370D01*
X0540812Y0025337D01*
X0540850Y0025307D01*
X0540891Y0025280D01*
X0540934Y0025256D01*
X0540978Y0025235D01*
X0541024Y0025218D01*
X0541071Y0025205D01*
X0541119Y0025196D01*
X0541167Y0025190D01*
X0541216Y0025188D01*
X0569093Y0029657D02*
X0571893Y0030591D01*
X0569093Y0031524D01*
X0569716Y0032506D02*
X0571271Y0032506D01*
X0571320Y0032508D01*
X0571368Y0032514D01*
X0571416Y0032523D01*
X0571463Y0032536D01*
X0571509Y0032553D01*
X0571553Y0032574D01*
X0571596Y0032598D01*
X0571637Y0032625D01*
X0571675Y0032655D01*
X0571711Y0032688D01*
X0571744Y0032724D01*
X0571774Y0032762D01*
X0571801Y0032803D01*
X0571825Y0032846D01*
X0571846Y0032890D01*
X0571863Y0032936D01*
X0571876Y0032983D01*
X0571885Y0033031D01*
X0571891Y0033079D01*
X0571893Y0033128D01*
X0571893Y0033750D01*
X0571271Y0034756D02*
X0569716Y0034756D01*
X0569667Y0034758D01*
X0569619Y0034764D01*
X0569571Y0034773D01*
X0569524Y0034786D01*
X0569478Y0034803D01*
X0569434Y0034824D01*
X0569391Y0034848D01*
X0569350Y0034875D01*
X0569312Y0034905D01*
X0569276Y0034938D01*
X0569243Y0034974D01*
X0569213Y0035012D01*
X0569186Y0035053D01*
X0569162Y0035096D01*
X0569141Y0035140D01*
X0569124Y0035186D01*
X0569111Y0035233D01*
X0569102Y0035281D01*
X0569096Y0035329D01*
X0569094Y0035378D01*
X0569093Y0035378D02*
X0569093Y0036000D01*
X0571271Y0034756D02*
X0571320Y0034758D01*
X0571368Y0034764D01*
X0571416Y0034773D01*
X0571463Y0034786D01*
X0571509Y0034803D01*
X0571553Y0034824D01*
X0571596Y0034848D01*
X0571637Y0034875D01*
X0571675Y0034905D01*
X0571711Y0034938D01*
X0571744Y0034974D01*
X0571774Y0035012D01*
X0571801Y0035053D01*
X0571825Y0035096D01*
X0571846Y0035140D01*
X0571863Y0035186D01*
X0571876Y0035233D01*
X0571885Y0035281D01*
X0571891Y0035329D01*
X0571893Y0035378D01*
X0571893Y0036000D01*
X0569093Y0033750D02*
X0569093Y0033128D01*
X0569094Y0033128D02*
X0569096Y0033079D01*
X0569102Y0033031D01*
X0569111Y0032983D01*
X0569124Y0032936D01*
X0569141Y0032890D01*
X0569162Y0032846D01*
X0569186Y0032803D01*
X0569213Y0032762D01*
X0569243Y0032724D01*
X0569276Y0032688D01*
X0569312Y0032655D01*
X0569350Y0032625D01*
X0569391Y0032598D01*
X0569434Y0032574D01*
X0569478Y0032553D01*
X0569524Y0032536D01*
X0569571Y0032523D01*
X0569619Y0032514D01*
X0569667Y0032508D01*
X0569716Y0032506D01*
X0547883Y0038750D02*
X0547105Y0035950D01*
X0545199Y0035950D02*
X0544577Y0037194D01*
X0544421Y0037194D02*
X0543643Y0037194D01*
X0544421Y0037194D02*
X0544477Y0037196D01*
X0544532Y0037202D01*
X0544586Y0037212D01*
X0544640Y0037226D01*
X0544693Y0037243D01*
X0544744Y0037264D01*
X0544794Y0037289D01*
X0544842Y0037318D01*
X0544887Y0037349D01*
X0544930Y0037384D01*
X0544971Y0037422D01*
X0545009Y0037463D01*
X0545044Y0037506D01*
X0545075Y0037551D01*
X0545104Y0037599D01*
X0545129Y0037649D01*
X0545150Y0037700D01*
X0545167Y0037753D01*
X0545181Y0037807D01*
X0545191Y0037861D01*
X0545197Y0037916D01*
X0545199Y0037972D01*
X0545197Y0038028D01*
X0545191Y0038083D01*
X0545181Y0038137D01*
X0545167Y0038191D01*
X0545150Y0038244D01*
X0545129Y0038295D01*
X0545104Y0038345D01*
X0545075Y0038393D01*
X0545044Y0038438D01*
X0545009Y0038481D01*
X0544971Y0038522D01*
X0544930Y0038560D01*
X0544887Y0038595D01*
X0544842Y0038626D01*
X0544794Y0038655D01*
X0544744Y0038680D01*
X0544693Y0038701D01*
X0544640Y0038718D01*
X0544586Y0038732D01*
X0544532Y0038742D01*
X0544477Y0038748D01*
X0544421Y0038750D01*
X0543643Y0038750D01*
X0543643Y0035950D01*
X0546327Y0038439D02*
X0546327Y0038750D01*
X0547883Y0038750D01*
X0545199Y0040950D02*
X0544577Y0042194D01*
X0544421Y0042194D02*
X0543643Y0042194D01*
X0544421Y0042194D02*
X0544477Y0042196D01*
X0544532Y0042202D01*
X0544586Y0042212D01*
X0544640Y0042226D01*
X0544693Y0042243D01*
X0544744Y0042264D01*
X0544794Y0042289D01*
X0544842Y0042318D01*
X0544887Y0042349D01*
X0544930Y0042384D01*
X0544971Y0042422D01*
X0545009Y0042463D01*
X0545044Y0042506D01*
X0545075Y0042551D01*
X0545104Y0042599D01*
X0545129Y0042649D01*
X0545150Y0042700D01*
X0545167Y0042753D01*
X0545181Y0042807D01*
X0545191Y0042861D01*
X0545197Y0042916D01*
X0545199Y0042972D01*
X0545197Y0043028D01*
X0545191Y0043083D01*
X0545181Y0043137D01*
X0545167Y0043191D01*
X0545150Y0043244D01*
X0545129Y0043295D01*
X0545104Y0043345D01*
X0545075Y0043393D01*
X0545044Y0043438D01*
X0545009Y0043481D01*
X0544971Y0043522D01*
X0544930Y0043560D01*
X0544887Y0043595D01*
X0544842Y0043626D01*
X0544794Y0043655D01*
X0544744Y0043680D01*
X0544693Y0043701D01*
X0544640Y0043718D01*
X0544586Y0043732D01*
X0544532Y0043742D01*
X0544477Y0043748D01*
X0544421Y0043750D01*
X0543643Y0043750D01*
X0543643Y0040950D01*
X0546327Y0041728D02*
X0546329Y0041672D01*
X0546335Y0041617D01*
X0546345Y0041563D01*
X0546359Y0041509D01*
X0546376Y0041456D01*
X0546397Y0041405D01*
X0546422Y0041355D01*
X0546451Y0041307D01*
X0546482Y0041262D01*
X0546517Y0041219D01*
X0546555Y0041178D01*
X0546596Y0041140D01*
X0546639Y0041105D01*
X0546684Y0041074D01*
X0546732Y0041045D01*
X0546782Y0041020D01*
X0546833Y0040999D01*
X0546886Y0040982D01*
X0546940Y0040968D01*
X0546994Y0040958D01*
X0547049Y0040952D01*
X0547105Y0040950D01*
X0547161Y0040952D01*
X0547216Y0040958D01*
X0547270Y0040968D01*
X0547324Y0040982D01*
X0547377Y0040999D01*
X0547428Y0041020D01*
X0547478Y0041045D01*
X0547526Y0041074D01*
X0547571Y0041105D01*
X0547614Y0041140D01*
X0547655Y0041178D01*
X0547693Y0041219D01*
X0547728Y0041262D01*
X0547759Y0041307D01*
X0547788Y0041355D01*
X0547813Y0041405D01*
X0547834Y0041456D01*
X0547851Y0041509D01*
X0547865Y0041563D01*
X0547875Y0041617D01*
X0547881Y0041672D01*
X0547883Y0041728D01*
X0547881Y0041784D01*
X0547875Y0041839D01*
X0547865Y0041893D01*
X0547851Y0041947D01*
X0547834Y0042000D01*
X0547813Y0042051D01*
X0547788Y0042101D01*
X0547759Y0042149D01*
X0547728Y0042194D01*
X0547693Y0042237D01*
X0547655Y0042278D01*
X0547614Y0042316D01*
X0547571Y0042351D01*
X0547526Y0042382D01*
X0547478Y0042411D01*
X0547428Y0042436D01*
X0547377Y0042457D01*
X0547324Y0042474D01*
X0547270Y0042488D01*
X0547216Y0042498D01*
X0547161Y0042504D01*
X0547105Y0042506D01*
X0547049Y0042504D01*
X0546994Y0042498D01*
X0546940Y0042488D01*
X0546886Y0042474D01*
X0546833Y0042457D01*
X0546782Y0042436D01*
X0546732Y0042411D01*
X0546684Y0042382D01*
X0546639Y0042351D01*
X0546596Y0042316D01*
X0546555Y0042278D01*
X0546517Y0042237D01*
X0546482Y0042194D01*
X0546451Y0042149D01*
X0546422Y0042101D01*
X0546397Y0042051D01*
X0546376Y0042000D01*
X0546359Y0041947D01*
X0546345Y0041893D01*
X0546335Y0041839D01*
X0546329Y0041784D01*
X0546327Y0041728D01*
X0546483Y0043128D02*
X0546485Y0043079D01*
X0546491Y0043031D01*
X0546500Y0042983D01*
X0546513Y0042936D01*
X0546530Y0042890D01*
X0546551Y0042846D01*
X0546575Y0042803D01*
X0546602Y0042762D01*
X0546632Y0042724D01*
X0546665Y0042688D01*
X0546701Y0042655D01*
X0546739Y0042625D01*
X0546780Y0042598D01*
X0546823Y0042574D01*
X0546867Y0042553D01*
X0546913Y0042536D01*
X0546960Y0042523D01*
X0547008Y0042514D01*
X0547056Y0042508D01*
X0547105Y0042506D01*
X0547154Y0042508D01*
X0547202Y0042514D01*
X0547250Y0042523D01*
X0547297Y0042536D01*
X0547343Y0042553D01*
X0547387Y0042574D01*
X0547430Y0042598D01*
X0547471Y0042625D01*
X0547509Y0042655D01*
X0547545Y0042688D01*
X0547578Y0042724D01*
X0547608Y0042762D01*
X0547635Y0042803D01*
X0547659Y0042846D01*
X0547680Y0042890D01*
X0547697Y0042936D01*
X0547710Y0042983D01*
X0547719Y0043031D01*
X0547725Y0043079D01*
X0547727Y0043128D01*
X0547725Y0043177D01*
X0547719Y0043225D01*
X0547710Y0043273D01*
X0547697Y0043320D01*
X0547680Y0043366D01*
X0547659Y0043410D01*
X0547635Y0043453D01*
X0547608Y0043494D01*
X0547578Y0043532D01*
X0547545Y0043568D01*
X0547509Y0043601D01*
X0547471Y0043631D01*
X0547430Y0043658D01*
X0547387Y0043682D01*
X0547343Y0043703D01*
X0547297Y0043720D01*
X0547250Y0043733D01*
X0547202Y0043742D01*
X0547154Y0043748D01*
X0547105Y0043750D01*
X0547056Y0043748D01*
X0547008Y0043742D01*
X0546960Y0043733D01*
X0546913Y0043720D01*
X0546867Y0043703D01*
X0546823Y0043682D01*
X0546780Y0043658D01*
X0546739Y0043631D01*
X0546701Y0043601D01*
X0546665Y0043568D01*
X0546632Y0043532D01*
X0546602Y0043494D01*
X0546575Y0043453D01*
X0546551Y0043410D01*
X0546530Y0043366D01*
X0546513Y0043320D01*
X0546500Y0043273D01*
X0546491Y0043225D01*
X0546485Y0043177D01*
X0546483Y0043128D01*
X0530393Y0045677D02*
X0530393Y0046610D01*
X0530393Y0045677D02*
X0530391Y0045628D01*
X0530385Y0045580D01*
X0530376Y0045532D01*
X0530363Y0045485D01*
X0530346Y0045439D01*
X0530325Y0045395D01*
X0530301Y0045352D01*
X0530274Y0045311D01*
X0530244Y0045273D01*
X0530211Y0045237D01*
X0530175Y0045204D01*
X0530137Y0045174D01*
X0530096Y0045147D01*
X0530053Y0045123D01*
X0530009Y0045102D01*
X0529963Y0045085D01*
X0529916Y0045072D01*
X0529868Y0045063D01*
X0529820Y0045057D01*
X0529771Y0045055D01*
X0529722Y0045057D01*
X0529674Y0045063D01*
X0529626Y0045072D01*
X0529579Y0045085D01*
X0529533Y0045102D01*
X0529489Y0045123D01*
X0529446Y0045147D01*
X0529405Y0045174D01*
X0529367Y0045204D01*
X0529331Y0045237D01*
X0529298Y0045273D01*
X0529268Y0045311D01*
X0529241Y0045352D01*
X0529217Y0045395D01*
X0529196Y0045439D01*
X0529179Y0045485D01*
X0529166Y0045532D01*
X0529157Y0045580D01*
X0529151Y0045628D01*
X0529149Y0045677D01*
X0529149Y0046299D01*
X0529149Y0045832D02*
X0529147Y0045776D01*
X0529141Y0045721D01*
X0529131Y0045667D01*
X0529117Y0045613D01*
X0529100Y0045560D01*
X0529079Y0045509D01*
X0529054Y0045459D01*
X0529025Y0045411D01*
X0528994Y0045366D01*
X0528959Y0045323D01*
X0528921Y0045282D01*
X0528880Y0045244D01*
X0528837Y0045209D01*
X0528792Y0045178D01*
X0528744Y0045149D01*
X0528694Y0045124D01*
X0528643Y0045103D01*
X0528590Y0045086D01*
X0528536Y0045072D01*
X0528482Y0045062D01*
X0528427Y0045056D01*
X0528371Y0045054D01*
X0528315Y0045056D01*
X0528260Y0045062D01*
X0528206Y0045072D01*
X0528152Y0045086D01*
X0528099Y0045103D01*
X0528048Y0045124D01*
X0527998Y0045149D01*
X0527950Y0045178D01*
X0527905Y0045209D01*
X0527862Y0045244D01*
X0527821Y0045282D01*
X0527783Y0045323D01*
X0527748Y0045366D01*
X0527717Y0045411D01*
X0527688Y0045459D01*
X0527663Y0045509D01*
X0527642Y0045560D01*
X0527625Y0045613D01*
X0527611Y0045667D01*
X0527601Y0045721D01*
X0527595Y0045776D01*
X0527593Y0045832D01*
X0527593Y0046610D01*
X0528371Y0047844D02*
X0530393Y0047844D01*
X0530393Y0049400D02*
X0528371Y0049400D01*
X0528315Y0049398D01*
X0528260Y0049392D01*
X0528206Y0049382D01*
X0528152Y0049368D01*
X0528099Y0049351D01*
X0528048Y0049330D01*
X0527998Y0049305D01*
X0527950Y0049276D01*
X0527905Y0049245D01*
X0527862Y0049210D01*
X0527821Y0049172D01*
X0527783Y0049131D01*
X0527748Y0049088D01*
X0527717Y0049043D01*
X0527688Y0048995D01*
X0527663Y0048945D01*
X0527642Y0048894D01*
X0527625Y0048841D01*
X0527611Y0048787D01*
X0527601Y0048733D01*
X0527595Y0048678D01*
X0527593Y0048622D01*
X0527595Y0048566D01*
X0527601Y0048511D01*
X0527611Y0048457D01*
X0527625Y0048403D01*
X0527642Y0048350D01*
X0527663Y0048299D01*
X0527688Y0048249D01*
X0527717Y0048201D01*
X0527748Y0048156D01*
X0527783Y0048113D01*
X0527821Y0048072D01*
X0527862Y0048034D01*
X0527905Y0047999D01*
X0527950Y0047968D01*
X0527998Y0047939D01*
X0528048Y0047914D01*
X0528099Y0047893D01*
X0528152Y0047876D01*
X0528206Y0047862D01*
X0528260Y0047852D01*
X0528315Y0047846D01*
X0528371Y0047844D01*
X0543643Y0047194D02*
X0544421Y0047194D01*
X0544577Y0047194D02*
X0545199Y0045950D01*
X0546327Y0045950D02*
X0547261Y0045950D01*
X0547310Y0045952D01*
X0547358Y0045958D01*
X0547406Y0045967D01*
X0547453Y0045980D01*
X0547499Y0045997D01*
X0547543Y0046018D01*
X0547586Y0046042D01*
X0547627Y0046069D01*
X0547665Y0046099D01*
X0547701Y0046132D01*
X0547734Y0046168D01*
X0547764Y0046206D01*
X0547791Y0046247D01*
X0547815Y0046290D01*
X0547836Y0046334D01*
X0547853Y0046380D01*
X0547866Y0046427D01*
X0547875Y0046475D01*
X0547881Y0046523D01*
X0547883Y0046572D01*
X0547883Y0046883D01*
X0547881Y0046932D01*
X0547875Y0046980D01*
X0547866Y0047028D01*
X0547853Y0047075D01*
X0547836Y0047121D01*
X0547815Y0047165D01*
X0547791Y0047208D01*
X0547764Y0047249D01*
X0547734Y0047287D01*
X0547701Y0047323D01*
X0547665Y0047356D01*
X0547627Y0047386D01*
X0547586Y0047413D01*
X0547543Y0047437D01*
X0547499Y0047458D01*
X0547453Y0047475D01*
X0547406Y0047488D01*
X0547358Y0047497D01*
X0547310Y0047503D01*
X0547261Y0047505D01*
X0547261Y0047506D02*
X0546327Y0047506D01*
X0546327Y0048750D01*
X0547883Y0048750D01*
X0544421Y0048750D02*
X0543643Y0048750D01*
X0543643Y0045950D01*
X0544421Y0047194D02*
X0544477Y0047196D01*
X0544532Y0047202D01*
X0544586Y0047212D01*
X0544640Y0047226D01*
X0544693Y0047243D01*
X0544744Y0047264D01*
X0544794Y0047289D01*
X0544842Y0047318D01*
X0544887Y0047349D01*
X0544930Y0047384D01*
X0544971Y0047422D01*
X0545009Y0047463D01*
X0545044Y0047506D01*
X0545075Y0047551D01*
X0545104Y0047599D01*
X0545129Y0047649D01*
X0545150Y0047700D01*
X0545167Y0047753D01*
X0545181Y0047807D01*
X0545191Y0047861D01*
X0545197Y0047916D01*
X0545199Y0047972D01*
X0545197Y0048028D01*
X0545191Y0048083D01*
X0545181Y0048137D01*
X0545167Y0048191D01*
X0545150Y0048244D01*
X0545129Y0048295D01*
X0545104Y0048345D01*
X0545075Y0048393D01*
X0545044Y0048438D01*
X0545009Y0048481D01*
X0544971Y0048522D01*
X0544930Y0048560D01*
X0544887Y0048595D01*
X0544842Y0048626D01*
X0544794Y0048655D01*
X0544744Y0048680D01*
X0544693Y0048701D01*
X0544640Y0048718D01*
X0544586Y0048732D01*
X0544532Y0048742D01*
X0544477Y0048748D01*
X0544421Y0048750D01*
X0543643Y0050950D02*
X0543643Y0053750D01*
X0544421Y0053750D01*
X0544477Y0053748D01*
X0544532Y0053742D01*
X0544586Y0053732D01*
X0544640Y0053718D01*
X0544693Y0053701D01*
X0544744Y0053680D01*
X0544794Y0053655D01*
X0544842Y0053626D01*
X0544887Y0053595D01*
X0544930Y0053560D01*
X0544971Y0053522D01*
X0545009Y0053481D01*
X0545044Y0053438D01*
X0545075Y0053393D01*
X0545104Y0053345D01*
X0545129Y0053295D01*
X0545150Y0053244D01*
X0545167Y0053191D01*
X0545181Y0053137D01*
X0545191Y0053083D01*
X0545197Y0053028D01*
X0545199Y0052972D01*
X0545197Y0052916D01*
X0545191Y0052861D01*
X0545181Y0052807D01*
X0545167Y0052753D01*
X0545150Y0052700D01*
X0545129Y0052649D01*
X0545104Y0052599D01*
X0545075Y0052551D01*
X0545044Y0052506D01*
X0545009Y0052463D01*
X0544971Y0052422D01*
X0544930Y0052384D01*
X0544887Y0052349D01*
X0544842Y0052318D01*
X0544794Y0052289D01*
X0544744Y0052264D01*
X0544693Y0052243D01*
X0544640Y0052226D01*
X0544586Y0052212D01*
X0544532Y0052202D01*
X0544477Y0052196D01*
X0544421Y0052194D01*
X0543643Y0052194D01*
X0544577Y0052194D02*
X0545199Y0050950D01*
X0546327Y0051728D02*
X0546327Y0052506D01*
X0547261Y0052506D01*
X0546328Y0052506D02*
X0546330Y0052576D01*
X0546336Y0052645D01*
X0546346Y0052714D01*
X0546359Y0052783D01*
X0546377Y0052850D01*
X0546398Y0052917D01*
X0546423Y0052982D01*
X0546451Y0053046D01*
X0546483Y0053108D01*
X0546519Y0053168D01*
X0546557Y0053226D01*
X0546599Y0053282D01*
X0546644Y0053335D01*
X0546692Y0053386D01*
X0546743Y0053434D01*
X0546796Y0053479D01*
X0546852Y0053521D01*
X0546910Y0053559D01*
X0546970Y0053595D01*
X0547032Y0053627D01*
X0547096Y0053655D01*
X0547161Y0053680D01*
X0547228Y0053701D01*
X0547295Y0053719D01*
X0547364Y0053732D01*
X0547433Y0053742D01*
X0547502Y0053748D01*
X0547572Y0053750D01*
X0547883Y0051883D02*
X0547883Y0051728D01*
X0547883Y0051883D02*
X0547881Y0051932D01*
X0547875Y0051980D01*
X0547866Y0052028D01*
X0547853Y0052075D01*
X0547836Y0052121D01*
X0547815Y0052165D01*
X0547791Y0052208D01*
X0547764Y0052249D01*
X0547734Y0052287D01*
X0547701Y0052323D01*
X0547665Y0052356D01*
X0547627Y0052386D01*
X0547586Y0052413D01*
X0547543Y0052437D01*
X0547499Y0052458D01*
X0547453Y0052475D01*
X0547406Y0052488D01*
X0547358Y0052497D01*
X0547310Y0052503D01*
X0547261Y0052505D01*
X0547883Y0051728D02*
X0547881Y0051672D01*
X0547875Y0051617D01*
X0547865Y0051563D01*
X0547851Y0051509D01*
X0547834Y0051456D01*
X0547813Y0051405D01*
X0547788Y0051355D01*
X0547759Y0051307D01*
X0547728Y0051262D01*
X0547693Y0051219D01*
X0547655Y0051178D01*
X0547614Y0051140D01*
X0547571Y0051105D01*
X0547526Y0051074D01*
X0547478Y0051045D01*
X0547428Y0051020D01*
X0547377Y0050999D01*
X0547324Y0050982D01*
X0547270Y0050968D01*
X0547216Y0050958D01*
X0547161Y0050952D01*
X0547105Y0050950D01*
X0547049Y0050952D01*
X0546994Y0050958D01*
X0546940Y0050968D01*
X0546886Y0050982D01*
X0546833Y0050999D01*
X0546782Y0051020D01*
X0546732Y0051045D01*
X0546684Y0051074D01*
X0546639Y0051105D01*
X0546596Y0051140D01*
X0546555Y0051178D01*
X0546517Y0051219D01*
X0546482Y0051262D01*
X0546451Y0051307D01*
X0546422Y0051355D01*
X0546397Y0051405D01*
X0546376Y0051456D01*
X0546359Y0051509D01*
X0546345Y0051563D01*
X0546335Y0051617D01*
X0546329Y0051672D01*
X0546327Y0051728D01*
X0569093Y0051799D02*
X0569093Y0051021D01*
X0571893Y0051021D01*
X0570649Y0051021D02*
X0570649Y0051799D01*
X0570647Y0051855D01*
X0570641Y0051910D01*
X0570631Y0051964D01*
X0570617Y0052018D01*
X0570600Y0052071D01*
X0570579Y0052122D01*
X0570554Y0052172D01*
X0570525Y0052220D01*
X0570494Y0052265D01*
X0570459Y0052308D01*
X0570421Y0052349D01*
X0570380Y0052387D01*
X0570337Y0052422D01*
X0570292Y0052453D01*
X0570244Y0052482D01*
X0570194Y0052507D01*
X0570143Y0052528D01*
X0570090Y0052545D01*
X0570036Y0052559D01*
X0569982Y0052569D01*
X0569927Y0052575D01*
X0569871Y0052577D01*
X0569815Y0052575D01*
X0569760Y0052569D01*
X0569706Y0052559D01*
X0569652Y0052545D01*
X0569599Y0052528D01*
X0569548Y0052507D01*
X0569498Y0052482D01*
X0569450Y0052453D01*
X0569405Y0052422D01*
X0569362Y0052387D01*
X0569321Y0052349D01*
X0569283Y0052308D01*
X0569248Y0052265D01*
X0569217Y0052220D01*
X0569188Y0052172D01*
X0569163Y0052122D01*
X0569142Y0052071D01*
X0569125Y0052018D01*
X0569111Y0051964D01*
X0569101Y0051910D01*
X0569095Y0051855D01*
X0569093Y0051799D01*
X0569716Y0053684D02*
X0571271Y0053684D01*
X0571271Y0053685D02*
X0571320Y0053687D01*
X0571368Y0053693D01*
X0571416Y0053702D01*
X0571463Y0053715D01*
X0571509Y0053732D01*
X0571553Y0053753D01*
X0571596Y0053777D01*
X0571637Y0053804D01*
X0571675Y0053834D01*
X0571711Y0053867D01*
X0571744Y0053903D01*
X0571774Y0053941D01*
X0571801Y0053982D01*
X0571825Y0054025D01*
X0571846Y0054069D01*
X0571863Y0054115D01*
X0571876Y0054162D01*
X0571885Y0054210D01*
X0571891Y0054258D01*
X0571893Y0054307D01*
X0571893Y0055240D01*
X0570338Y0055240D01*
X0570338Y0054773D01*
X0569716Y0053685D02*
X0569667Y0053687D01*
X0569619Y0053693D01*
X0569571Y0053702D01*
X0569524Y0053715D01*
X0569478Y0053732D01*
X0569434Y0053753D01*
X0569391Y0053777D01*
X0569350Y0053804D01*
X0569312Y0053834D01*
X0569276Y0053867D01*
X0569243Y0053903D01*
X0569213Y0053941D01*
X0569186Y0053982D01*
X0569162Y0054025D01*
X0569141Y0054069D01*
X0569124Y0054115D01*
X0569111Y0054162D01*
X0569102Y0054210D01*
X0569096Y0054258D01*
X0569094Y0054307D01*
X0569093Y0054307D02*
X0569093Y0055240D01*
X0569093Y0056564D02*
X0571893Y0058120D01*
X0569093Y0058120D01*
X0569093Y0059444D02*
X0569093Y0060222D01*
X0569093Y0059444D02*
X0571893Y0059444D01*
X0571893Y0060222D01*
X0571894Y0060222D02*
X0571892Y0060275D01*
X0571887Y0060328D01*
X0571878Y0060380D01*
X0571865Y0060432D01*
X0571849Y0060483D01*
X0571830Y0060532D01*
X0571807Y0060580D01*
X0571781Y0060626D01*
X0571752Y0060671D01*
X0571720Y0060713D01*
X0571685Y0060753D01*
X0571647Y0060791D01*
X0571607Y0060826D01*
X0571565Y0060858D01*
X0571520Y0060887D01*
X0571474Y0060913D01*
X0571426Y0060936D01*
X0571377Y0060955D01*
X0571326Y0060971D01*
X0571274Y0060984D01*
X0571222Y0060993D01*
X0571169Y0060998D01*
X0571116Y0061000D01*
X0569871Y0061000D01*
X0569815Y0060998D01*
X0569760Y0060992D01*
X0569706Y0060982D01*
X0569652Y0060968D01*
X0569599Y0060951D01*
X0569548Y0060930D01*
X0569498Y0060905D01*
X0569450Y0060876D01*
X0569405Y0060845D01*
X0569362Y0060810D01*
X0569321Y0060772D01*
X0569283Y0060731D01*
X0569248Y0060688D01*
X0569217Y0060643D01*
X0569188Y0060595D01*
X0569163Y0060545D01*
X0569142Y0060494D01*
X0569125Y0060441D01*
X0569111Y0060387D01*
X0569101Y0060333D01*
X0569095Y0060278D01*
X0569093Y0060222D01*
X0544393Y0061809D02*
X0544393Y0062432D01*
X0544393Y0061809D02*
X0544391Y0061760D01*
X0544385Y0061712D01*
X0544376Y0061664D01*
X0544363Y0061617D01*
X0544346Y0061571D01*
X0544325Y0061527D01*
X0544301Y0061484D01*
X0544274Y0061443D01*
X0544244Y0061405D01*
X0544211Y0061369D01*
X0544175Y0061336D01*
X0544137Y0061306D01*
X0544096Y0061279D01*
X0544053Y0061255D01*
X0544009Y0061234D01*
X0543963Y0061217D01*
X0543916Y0061204D01*
X0543868Y0061195D01*
X0543820Y0061189D01*
X0543771Y0061187D01*
X0542216Y0061187D01*
X0542216Y0061188D02*
X0542167Y0061190D01*
X0542119Y0061196D01*
X0542071Y0061205D01*
X0542024Y0061218D01*
X0541978Y0061235D01*
X0541934Y0061256D01*
X0541891Y0061280D01*
X0541850Y0061307D01*
X0541812Y0061337D01*
X0541776Y0061370D01*
X0541743Y0061406D01*
X0541713Y0061444D01*
X0541686Y0061485D01*
X0541662Y0061528D01*
X0541641Y0061572D01*
X0541624Y0061618D01*
X0541611Y0061665D01*
X0541602Y0061713D01*
X0541596Y0061761D01*
X0541594Y0061810D01*
X0541593Y0061809D02*
X0541593Y0062432D01*
X0541593Y0063444D02*
X0541593Y0065000D01*
X0542838Y0064378D02*
X0542838Y0063444D01*
X0541593Y0063444D01*
X0542838Y0064378D02*
X0542840Y0064427D01*
X0542846Y0064475D01*
X0542855Y0064523D01*
X0542868Y0064570D01*
X0542885Y0064616D01*
X0542906Y0064660D01*
X0542930Y0064703D01*
X0542957Y0064744D01*
X0542987Y0064782D01*
X0543020Y0064818D01*
X0543056Y0064851D01*
X0543094Y0064881D01*
X0543135Y0064908D01*
X0543178Y0064932D01*
X0543222Y0064953D01*
X0543268Y0064970D01*
X0543315Y0064983D01*
X0543363Y0064992D01*
X0543411Y0064998D01*
X0543460Y0065000D01*
X0543771Y0065000D01*
X0543820Y0064998D01*
X0543868Y0064992D01*
X0543916Y0064983D01*
X0543963Y0064970D01*
X0544009Y0064953D01*
X0544053Y0064932D01*
X0544096Y0064908D01*
X0544137Y0064881D01*
X0544175Y0064851D01*
X0544211Y0064818D01*
X0544244Y0064782D01*
X0544274Y0064744D01*
X0544301Y0064703D01*
X0544325Y0064660D01*
X0544346Y0064616D01*
X0544363Y0064570D01*
X0544376Y0064523D01*
X0544385Y0064475D01*
X0544391Y0064427D01*
X0544393Y0064378D01*
X0544393Y0063444D01*
X0569093Y0056564D02*
X0571893Y0056564D01*
X0571893Y0046222D02*
X0571893Y0045444D01*
X0569093Y0045444D01*
X0569093Y0046222D01*
X0569094Y0046222D02*
X0569096Y0046271D01*
X0569102Y0046319D01*
X0569111Y0046367D01*
X0569124Y0046414D01*
X0569141Y0046460D01*
X0569162Y0046504D01*
X0569186Y0046547D01*
X0569213Y0046588D01*
X0569243Y0046626D01*
X0569276Y0046662D01*
X0569312Y0046695D01*
X0569350Y0046725D01*
X0569391Y0046752D01*
X0569434Y0046776D01*
X0569478Y0046797D01*
X0569524Y0046814D01*
X0569571Y0046827D01*
X0569619Y0046836D01*
X0569667Y0046842D01*
X0569716Y0046844D01*
X0569765Y0046842D01*
X0569813Y0046836D01*
X0569861Y0046827D01*
X0569908Y0046814D01*
X0569954Y0046797D01*
X0569998Y0046776D01*
X0570041Y0046752D01*
X0570082Y0046725D01*
X0570120Y0046695D01*
X0570156Y0046662D01*
X0570189Y0046626D01*
X0570219Y0046588D01*
X0570246Y0046547D01*
X0570270Y0046504D01*
X0570291Y0046460D01*
X0570308Y0046414D01*
X0570321Y0046367D01*
X0570330Y0046319D01*
X0570336Y0046271D01*
X0570338Y0046222D01*
X0570338Y0045444D01*
X0570338Y0046222D02*
X0570340Y0046278D01*
X0570346Y0046333D01*
X0570356Y0046387D01*
X0570370Y0046441D01*
X0570387Y0046494D01*
X0570408Y0046545D01*
X0570433Y0046595D01*
X0570462Y0046643D01*
X0570493Y0046688D01*
X0570528Y0046731D01*
X0570566Y0046772D01*
X0570607Y0046810D01*
X0570650Y0046845D01*
X0570695Y0046876D01*
X0570743Y0046905D01*
X0570793Y0046930D01*
X0570844Y0046951D01*
X0570897Y0046968D01*
X0570951Y0046982D01*
X0571005Y0046992D01*
X0571060Y0046998D01*
X0571116Y0047000D01*
X0571172Y0046998D01*
X0571227Y0046992D01*
X0571281Y0046982D01*
X0571335Y0046968D01*
X0571388Y0046951D01*
X0571439Y0046930D01*
X0571489Y0046905D01*
X0571537Y0046876D01*
X0571582Y0046845D01*
X0571625Y0046810D01*
X0571666Y0046772D01*
X0571704Y0046731D01*
X0571739Y0046688D01*
X0571770Y0046643D01*
X0571799Y0046595D01*
X0571824Y0046545D01*
X0571845Y0046494D01*
X0571862Y0046441D01*
X0571876Y0046387D01*
X0571886Y0046333D01*
X0571892Y0046278D01*
X0571894Y0046222D01*
X0571893Y0044189D02*
X0570649Y0043567D01*
X0570649Y0043412D02*
X0570649Y0042634D01*
X0570649Y0043412D02*
X0570647Y0043468D01*
X0570641Y0043523D01*
X0570631Y0043577D01*
X0570617Y0043631D01*
X0570600Y0043684D01*
X0570579Y0043735D01*
X0570554Y0043785D01*
X0570525Y0043833D01*
X0570494Y0043878D01*
X0570459Y0043921D01*
X0570421Y0043962D01*
X0570380Y0044000D01*
X0570337Y0044035D01*
X0570292Y0044066D01*
X0570244Y0044095D01*
X0570194Y0044120D01*
X0570143Y0044141D01*
X0570090Y0044158D01*
X0570036Y0044172D01*
X0569982Y0044182D01*
X0569927Y0044188D01*
X0569871Y0044190D01*
X0569815Y0044188D01*
X0569760Y0044182D01*
X0569706Y0044172D01*
X0569652Y0044158D01*
X0569599Y0044141D01*
X0569548Y0044120D01*
X0569498Y0044095D01*
X0569450Y0044066D01*
X0569405Y0044035D01*
X0569362Y0044000D01*
X0569321Y0043962D01*
X0569283Y0043921D01*
X0569248Y0043878D01*
X0569217Y0043833D01*
X0569188Y0043785D01*
X0569163Y0043735D01*
X0569142Y0043684D01*
X0569125Y0043631D01*
X0569111Y0043577D01*
X0569101Y0043523D01*
X0569095Y0043468D01*
X0569093Y0043412D01*
X0569093Y0042634D01*
X0571893Y0042634D01*
X0570649Y0040732D02*
X0570649Y0039954D01*
X0570649Y0040732D02*
X0570647Y0040788D01*
X0570641Y0040843D01*
X0570631Y0040897D01*
X0570617Y0040951D01*
X0570600Y0041004D01*
X0570579Y0041055D01*
X0570554Y0041105D01*
X0570525Y0041153D01*
X0570494Y0041198D01*
X0570459Y0041241D01*
X0570421Y0041282D01*
X0570380Y0041320D01*
X0570337Y0041355D01*
X0570292Y0041386D01*
X0570244Y0041415D01*
X0570194Y0041440D01*
X0570143Y0041461D01*
X0570090Y0041478D01*
X0570036Y0041492D01*
X0569982Y0041502D01*
X0569927Y0041508D01*
X0569871Y0041510D01*
X0569815Y0041508D01*
X0569760Y0041502D01*
X0569706Y0041492D01*
X0569652Y0041478D01*
X0569599Y0041461D01*
X0569548Y0041440D01*
X0569498Y0041415D01*
X0569450Y0041386D01*
X0569405Y0041355D01*
X0569362Y0041320D01*
X0569321Y0041282D01*
X0569283Y0041241D01*
X0569248Y0041198D01*
X0569217Y0041153D01*
X0569188Y0041105D01*
X0569163Y0041055D01*
X0569142Y0041004D01*
X0569125Y0040951D01*
X0569111Y0040897D01*
X0569101Y0040843D01*
X0569095Y0040788D01*
X0569093Y0040732D01*
X0569093Y0039954D01*
X0571893Y0039954D01*
X0484893Y0037222D02*
X0484893Y0036444D01*
X0482093Y0036444D01*
X0482093Y0037222D01*
X0482095Y0037278D01*
X0482101Y0037333D01*
X0482111Y0037387D01*
X0482125Y0037441D01*
X0482142Y0037494D01*
X0482163Y0037545D01*
X0482188Y0037595D01*
X0482217Y0037643D01*
X0482248Y0037688D01*
X0482283Y0037731D01*
X0482321Y0037772D01*
X0482362Y0037810D01*
X0482405Y0037845D01*
X0482450Y0037876D01*
X0482498Y0037905D01*
X0482548Y0037930D01*
X0482599Y0037951D01*
X0482652Y0037968D01*
X0482706Y0037982D01*
X0482760Y0037992D01*
X0482815Y0037998D01*
X0482871Y0038000D01*
X0484116Y0038000D01*
X0484169Y0037998D01*
X0484222Y0037993D01*
X0484274Y0037984D01*
X0484326Y0037971D01*
X0484377Y0037955D01*
X0484426Y0037936D01*
X0484474Y0037913D01*
X0484520Y0037887D01*
X0484565Y0037858D01*
X0484607Y0037826D01*
X0484647Y0037791D01*
X0484685Y0037753D01*
X0484720Y0037713D01*
X0484752Y0037671D01*
X0484781Y0037626D01*
X0484807Y0037580D01*
X0484830Y0037532D01*
X0484849Y0037483D01*
X0484865Y0037432D01*
X0484878Y0037380D01*
X0484887Y0037328D01*
X0484892Y0037275D01*
X0484894Y0037222D01*
X0475838Y0038200D02*
X0475216Y0038200D01*
X0475167Y0038202D01*
X0475119Y0038208D01*
X0475071Y0038217D01*
X0475024Y0038230D01*
X0474978Y0038247D01*
X0474934Y0038268D01*
X0474891Y0038292D01*
X0474850Y0038319D01*
X0474812Y0038349D01*
X0474776Y0038382D01*
X0474743Y0038418D01*
X0474713Y0038456D01*
X0474686Y0038497D01*
X0474662Y0038540D01*
X0474641Y0038584D01*
X0474624Y0038630D01*
X0474611Y0038677D01*
X0474602Y0038725D01*
X0474596Y0038773D01*
X0474594Y0038822D01*
X0474593Y0038822D02*
X0474593Y0040378D01*
X0474594Y0040378D02*
X0474596Y0040427D01*
X0474602Y0040475D01*
X0474611Y0040523D01*
X0474624Y0040570D01*
X0474641Y0040616D01*
X0474662Y0040660D01*
X0474686Y0040703D01*
X0474713Y0040744D01*
X0474743Y0040782D01*
X0474776Y0040818D01*
X0474812Y0040851D01*
X0474850Y0040881D01*
X0474891Y0040908D01*
X0474934Y0040932D01*
X0474978Y0040953D01*
X0475024Y0040970D01*
X0475071Y0040983D01*
X0475119Y0040992D01*
X0475167Y0040998D01*
X0475216Y0041000D01*
X0475838Y0041000D01*
X0477006Y0040378D02*
X0477008Y0040329D01*
X0477014Y0040281D01*
X0477023Y0040233D01*
X0477036Y0040186D01*
X0477053Y0040140D01*
X0477074Y0040096D01*
X0477098Y0040053D01*
X0477125Y0040012D01*
X0477155Y0039974D01*
X0477188Y0039938D01*
X0477224Y0039905D01*
X0477262Y0039875D01*
X0477303Y0039848D01*
X0477346Y0039824D01*
X0477390Y0039803D01*
X0477436Y0039786D01*
X0477483Y0039773D01*
X0477531Y0039764D01*
X0477579Y0039758D01*
X0477628Y0039756D01*
X0477677Y0039758D01*
X0477725Y0039764D01*
X0477773Y0039773D01*
X0477820Y0039786D01*
X0477866Y0039803D01*
X0477910Y0039824D01*
X0477953Y0039848D01*
X0477994Y0039875D01*
X0478032Y0039905D01*
X0478068Y0039938D01*
X0478101Y0039974D01*
X0478131Y0040012D01*
X0478158Y0040053D01*
X0478182Y0040096D01*
X0478203Y0040140D01*
X0478220Y0040186D01*
X0478233Y0040233D01*
X0478242Y0040281D01*
X0478248Y0040329D01*
X0478250Y0040378D01*
X0478248Y0040427D01*
X0478242Y0040475D01*
X0478233Y0040523D01*
X0478220Y0040570D01*
X0478203Y0040616D01*
X0478182Y0040660D01*
X0478158Y0040703D01*
X0478131Y0040744D01*
X0478101Y0040782D01*
X0478068Y0040818D01*
X0478032Y0040851D01*
X0477994Y0040881D01*
X0477953Y0040908D01*
X0477910Y0040932D01*
X0477866Y0040953D01*
X0477820Y0040970D01*
X0477773Y0040983D01*
X0477725Y0040992D01*
X0477677Y0040998D01*
X0477628Y0041000D01*
X0477579Y0040998D01*
X0477531Y0040992D01*
X0477483Y0040983D01*
X0477436Y0040970D01*
X0477390Y0040953D01*
X0477346Y0040932D01*
X0477303Y0040908D01*
X0477262Y0040881D01*
X0477224Y0040851D01*
X0477188Y0040818D01*
X0477155Y0040782D01*
X0477125Y0040744D01*
X0477098Y0040703D01*
X0477074Y0040660D01*
X0477053Y0040616D01*
X0477036Y0040570D01*
X0477023Y0040523D01*
X0477014Y0040475D01*
X0477008Y0040427D01*
X0477006Y0040378D01*
X0476850Y0038978D02*
X0476852Y0038922D01*
X0476858Y0038867D01*
X0476868Y0038813D01*
X0476882Y0038759D01*
X0476899Y0038706D01*
X0476920Y0038655D01*
X0476945Y0038605D01*
X0476974Y0038557D01*
X0477005Y0038512D01*
X0477040Y0038469D01*
X0477078Y0038428D01*
X0477119Y0038390D01*
X0477162Y0038355D01*
X0477207Y0038324D01*
X0477255Y0038295D01*
X0477305Y0038270D01*
X0477356Y0038249D01*
X0477409Y0038232D01*
X0477463Y0038218D01*
X0477517Y0038208D01*
X0477572Y0038202D01*
X0477628Y0038200D01*
X0477684Y0038202D01*
X0477739Y0038208D01*
X0477793Y0038218D01*
X0477847Y0038232D01*
X0477900Y0038249D01*
X0477951Y0038270D01*
X0478001Y0038295D01*
X0478049Y0038324D01*
X0478094Y0038355D01*
X0478137Y0038390D01*
X0478178Y0038428D01*
X0478216Y0038469D01*
X0478251Y0038512D01*
X0478282Y0038557D01*
X0478311Y0038605D01*
X0478336Y0038655D01*
X0478357Y0038706D01*
X0478374Y0038759D01*
X0478388Y0038813D01*
X0478398Y0038867D01*
X0478404Y0038922D01*
X0478406Y0038978D01*
X0478404Y0039034D01*
X0478398Y0039089D01*
X0478388Y0039143D01*
X0478374Y0039197D01*
X0478357Y0039250D01*
X0478336Y0039301D01*
X0478311Y0039351D01*
X0478282Y0039399D01*
X0478251Y0039444D01*
X0478216Y0039487D01*
X0478178Y0039528D01*
X0478137Y0039566D01*
X0478094Y0039601D01*
X0478049Y0039632D01*
X0478001Y0039661D01*
X0477951Y0039686D01*
X0477900Y0039707D01*
X0477847Y0039724D01*
X0477793Y0039738D01*
X0477739Y0039748D01*
X0477684Y0039754D01*
X0477628Y0039756D01*
X0477572Y0039754D01*
X0477517Y0039748D01*
X0477463Y0039738D01*
X0477409Y0039724D01*
X0477356Y0039707D01*
X0477305Y0039686D01*
X0477255Y0039661D01*
X0477207Y0039632D01*
X0477162Y0039601D01*
X0477119Y0039566D01*
X0477078Y0039528D01*
X0477040Y0039487D01*
X0477005Y0039444D01*
X0476974Y0039399D01*
X0476945Y0039351D01*
X0476920Y0039301D01*
X0476899Y0039250D01*
X0476882Y0039197D01*
X0476868Y0039143D01*
X0476858Y0039089D01*
X0476852Y0039034D01*
X0476850Y0038978D01*
X0482093Y0042769D02*
X0482093Y0044324D01*
X0482093Y0043547D02*
X0484893Y0043547D01*
X0484893Y0045133D02*
X0482093Y0047000D01*
X0482093Y0045133D02*
X0484893Y0047000D01*
X0484893Y0052605D02*
X0482093Y0052605D01*
X0482093Y0053383D01*
X0482095Y0053439D01*
X0482101Y0053494D01*
X0482111Y0053548D01*
X0482125Y0053602D01*
X0482142Y0053655D01*
X0482163Y0053706D01*
X0482188Y0053756D01*
X0482217Y0053804D01*
X0482248Y0053849D01*
X0482283Y0053892D01*
X0482321Y0053933D01*
X0482362Y0053971D01*
X0482405Y0054006D01*
X0482450Y0054037D01*
X0482498Y0054066D01*
X0482548Y0054091D01*
X0482599Y0054112D01*
X0482652Y0054129D01*
X0482706Y0054143D01*
X0482760Y0054153D01*
X0482815Y0054159D01*
X0482871Y0054161D01*
X0482927Y0054159D01*
X0482982Y0054153D01*
X0483036Y0054143D01*
X0483090Y0054129D01*
X0483143Y0054112D01*
X0483194Y0054091D01*
X0483244Y0054066D01*
X0483292Y0054037D01*
X0483337Y0054006D01*
X0483380Y0053971D01*
X0483421Y0053933D01*
X0483459Y0053892D01*
X0483494Y0053849D01*
X0483525Y0053804D01*
X0483554Y0053756D01*
X0483579Y0053706D01*
X0483600Y0053655D01*
X0483617Y0053602D01*
X0483631Y0053548D01*
X0483641Y0053494D01*
X0483647Y0053439D01*
X0483649Y0053383D01*
X0483649Y0052605D01*
X0483649Y0053538D02*
X0484893Y0054160D01*
X0484893Y0055133D02*
X0482093Y0057000D01*
X0482093Y0055133D02*
X0484893Y0057000D01*
X0478406Y0060000D02*
X0477628Y0057200D01*
X0475838Y0057200D02*
X0475216Y0057200D01*
X0475167Y0057202D01*
X0475119Y0057208D01*
X0475071Y0057217D01*
X0475024Y0057230D01*
X0474978Y0057247D01*
X0474934Y0057268D01*
X0474891Y0057292D01*
X0474850Y0057319D01*
X0474812Y0057349D01*
X0474776Y0057382D01*
X0474743Y0057418D01*
X0474713Y0057456D01*
X0474686Y0057497D01*
X0474662Y0057540D01*
X0474641Y0057584D01*
X0474624Y0057630D01*
X0474611Y0057677D01*
X0474602Y0057725D01*
X0474596Y0057773D01*
X0474594Y0057822D01*
X0474593Y0057822D02*
X0474593Y0059378D01*
X0474594Y0059378D02*
X0474596Y0059427D01*
X0474602Y0059475D01*
X0474611Y0059523D01*
X0474624Y0059570D01*
X0474641Y0059616D01*
X0474662Y0059660D01*
X0474686Y0059703D01*
X0474713Y0059744D01*
X0474743Y0059782D01*
X0474776Y0059818D01*
X0474812Y0059851D01*
X0474850Y0059881D01*
X0474891Y0059908D01*
X0474934Y0059932D01*
X0474978Y0059953D01*
X0475024Y0059970D01*
X0475071Y0059983D01*
X0475119Y0059992D01*
X0475167Y0059998D01*
X0475216Y0060000D01*
X0475838Y0060000D01*
X0476851Y0060000D02*
X0478406Y0060000D01*
X0476851Y0060000D02*
X0476851Y0059689D01*
X0430693Y0059368D02*
X0428093Y0059368D01*
X0430693Y0060812D01*
X0428093Y0060812D01*
X0428093Y0062056D02*
X0428093Y0062778D01*
X0428093Y0062056D02*
X0430693Y0062056D01*
X0430693Y0062778D01*
X0430691Y0062830D01*
X0430686Y0062881D01*
X0430677Y0062931D01*
X0430664Y0062981D01*
X0430647Y0063030D01*
X0430628Y0063078D01*
X0430605Y0063124D01*
X0430578Y0063168D01*
X0430549Y0063211D01*
X0430517Y0063251D01*
X0430482Y0063289D01*
X0430444Y0063324D01*
X0430404Y0063356D01*
X0430361Y0063385D01*
X0430317Y0063412D01*
X0430271Y0063435D01*
X0430223Y0063454D01*
X0430174Y0063471D01*
X0430124Y0063484D01*
X0430074Y0063493D01*
X0430023Y0063498D01*
X0429971Y0063500D01*
X0428816Y0063500D01*
X0428765Y0063498D01*
X0428713Y0063493D01*
X0428663Y0063484D01*
X0428613Y0063471D01*
X0428564Y0063454D01*
X0428516Y0063435D01*
X0428470Y0063412D01*
X0428426Y0063385D01*
X0428383Y0063356D01*
X0428343Y0063324D01*
X0428305Y0063289D01*
X0428270Y0063251D01*
X0428238Y0063211D01*
X0428209Y0063168D01*
X0428182Y0063124D01*
X0428159Y0063078D01*
X0428140Y0063030D01*
X0428123Y0062981D01*
X0428111Y0062931D01*
X0428101Y0062881D01*
X0428096Y0062830D01*
X0428094Y0062778D01*
X0400893Y0061878D02*
X0400893Y0061100D01*
X0400894Y0061878D02*
X0400892Y0061934D01*
X0400886Y0061989D01*
X0400876Y0062043D01*
X0400862Y0062097D01*
X0400845Y0062150D01*
X0400824Y0062201D01*
X0400799Y0062251D01*
X0400770Y0062299D01*
X0400739Y0062344D01*
X0400704Y0062387D01*
X0400666Y0062428D01*
X0400625Y0062466D01*
X0400582Y0062501D01*
X0400537Y0062532D01*
X0400489Y0062561D01*
X0400439Y0062586D01*
X0400388Y0062607D01*
X0400335Y0062624D01*
X0400281Y0062638D01*
X0400227Y0062648D01*
X0400172Y0062654D01*
X0400116Y0062656D01*
X0400060Y0062654D01*
X0400005Y0062648D01*
X0399951Y0062638D01*
X0399897Y0062624D01*
X0399844Y0062607D01*
X0399793Y0062586D01*
X0399743Y0062561D01*
X0399695Y0062532D01*
X0399650Y0062501D01*
X0399607Y0062466D01*
X0399566Y0062428D01*
X0399528Y0062387D01*
X0399493Y0062344D01*
X0399462Y0062299D01*
X0399433Y0062251D01*
X0399408Y0062201D01*
X0399387Y0062150D01*
X0399370Y0062097D01*
X0399356Y0062043D01*
X0399346Y0061989D01*
X0399340Y0061934D01*
X0399338Y0061878D01*
X0399338Y0062033D02*
X0399338Y0061411D01*
X0399338Y0062033D02*
X0399336Y0062082D01*
X0399330Y0062130D01*
X0399321Y0062178D01*
X0399308Y0062225D01*
X0399291Y0062271D01*
X0399270Y0062315D01*
X0399246Y0062358D01*
X0399219Y0062399D01*
X0399189Y0062437D01*
X0399156Y0062473D01*
X0399120Y0062506D01*
X0399082Y0062536D01*
X0399041Y0062563D01*
X0398998Y0062587D01*
X0398954Y0062608D01*
X0398908Y0062625D01*
X0398861Y0062638D01*
X0398813Y0062647D01*
X0398765Y0062653D01*
X0398716Y0062655D01*
X0398667Y0062653D01*
X0398619Y0062647D01*
X0398571Y0062638D01*
X0398524Y0062625D01*
X0398478Y0062608D01*
X0398434Y0062587D01*
X0398391Y0062563D01*
X0398350Y0062536D01*
X0398312Y0062506D01*
X0398276Y0062473D01*
X0398243Y0062437D01*
X0398213Y0062399D01*
X0398186Y0062358D01*
X0398162Y0062315D01*
X0398141Y0062271D01*
X0398124Y0062225D01*
X0398111Y0062178D01*
X0398102Y0062130D01*
X0398096Y0062082D01*
X0398094Y0062033D01*
X0398093Y0062033D02*
X0398093Y0061100D01*
X0398093Y0060111D02*
X0400893Y0059178D01*
X0398093Y0058244D01*
X0398093Y0056633D02*
X0398093Y0055700D01*
X0398094Y0056633D02*
X0398096Y0056682D01*
X0398102Y0056730D01*
X0398111Y0056778D01*
X0398124Y0056825D01*
X0398141Y0056871D01*
X0398162Y0056915D01*
X0398186Y0056958D01*
X0398213Y0056999D01*
X0398243Y0057037D01*
X0398276Y0057073D01*
X0398312Y0057106D01*
X0398350Y0057136D01*
X0398391Y0057163D01*
X0398434Y0057187D01*
X0398478Y0057208D01*
X0398524Y0057225D01*
X0398571Y0057238D01*
X0398619Y0057247D01*
X0398667Y0057253D01*
X0398716Y0057255D01*
X0398765Y0057253D01*
X0398813Y0057247D01*
X0398861Y0057238D01*
X0398908Y0057225D01*
X0398954Y0057208D01*
X0398998Y0057187D01*
X0399041Y0057163D01*
X0399082Y0057136D01*
X0399120Y0057106D01*
X0399156Y0057073D01*
X0399189Y0057037D01*
X0399219Y0056999D01*
X0399246Y0056958D01*
X0399270Y0056915D01*
X0399291Y0056871D01*
X0399308Y0056825D01*
X0399321Y0056778D01*
X0399330Y0056730D01*
X0399336Y0056682D01*
X0399338Y0056633D01*
X0399338Y0056011D01*
X0399338Y0056478D02*
X0399340Y0056534D01*
X0399346Y0056589D01*
X0399356Y0056643D01*
X0399370Y0056697D01*
X0399387Y0056750D01*
X0399408Y0056801D01*
X0399433Y0056851D01*
X0399462Y0056899D01*
X0399493Y0056944D01*
X0399528Y0056987D01*
X0399566Y0057028D01*
X0399607Y0057066D01*
X0399650Y0057101D01*
X0399695Y0057132D01*
X0399743Y0057161D01*
X0399793Y0057186D01*
X0399844Y0057207D01*
X0399897Y0057224D01*
X0399951Y0057238D01*
X0400005Y0057248D01*
X0400060Y0057254D01*
X0400116Y0057256D01*
X0400172Y0057254D01*
X0400227Y0057248D01*
X0400281Y0057238D01*
X0400335Y0057224D01*
X0400388Y0057207D01*
X0400439Y0057186D01*
X0400489Y0057161D01*
X0400537Y0057132D01*
X0400582Y0057101D01*
X0400625Y0057066D01*
X0400666Y0057028D01*
X0400704Y0056987D01*
X0400739Y0056944D01*
X0400770Y0056899D01*
X0400799Y0056851D01*
X0400824Y0056801D01*
X0400845Y0056750D01*
X0400862Y0056697D01*
X0400876Y0056643D01*
X0400886Y0056589D01*
X0400892Y0056534D01*
X0400894Y0056478D01*
X0400893Y0056478D02*
X0400893Y0055700D01*
X0400893Y0051901D02*
X0398093Y0050968D01*
X0400893Y0050034D01*
X0400193Y0050268D02*
X0400193Y0051668D01*
X0400116Y0048956D02*
X0398871Y0048956D01*
X0398815Y0048954D01*
X0398760Y0048948D01*
X0398706Y0048938D01*
X0398652Y0048924D01*
X0398599Y0048907D01*
X0398548Y0048886D01*
X0398498Y0048861D01*
X0398450Y0048832D01*
X0398405Y0048801D01*
X0398362Y0048766D01*
X0398321Y0048728D01*
X0398283Y0048687D01*
X0398248Y0048644D01*
X0398217Y0048599D01*
X0398188Y0048551D01*
X0398163Y0048501D01*
X0398142Y0048450D01*
X0398125Y0048397D01*
X0398111Y0048343D01*
X0398101Y0048289D01*
X0398095Y0048234D01*
X0398093Y0048178D01*
X0398093Y0047400D01*
X0400893Y0047400D01*
X0400893Y0048178D01*
X0400894Y0048178D02*
X0400892Y0048231D01*
X0400887Y0048284D01*
X0400878Y0048336D01*
X0400865Y0048388D01*
X0400849Y0048439D01*
X0400830Y0048488D01*
X0400807Y0048536D01*
X0400781Y0048582D01*
X0400752Y0048627D01*
X0400720Y0048669D01*
X0400685Y0048709D01*
X0400647Y0048747D01*
X0400607Y0048782D01*
X0400565Y0048814D01*
X0400520Y0048843D01*
X0400474Y0048869D01*
X0400426Y0048892D01*
X0400377Y0048911D01*
X0400326Y0048927D01*
X0400274Y0048940D01*
X0400222Y0048949D01*
X0400169Y0048954D01*
X0400116Y0048956D01*
X0399727Y0045944D02*
X0399260Y0045089D01*
X0398093Y0045400D02*
X0398095Y0045463D01*
X0398100Y0045525D01*
X0398108Y0045587D01*
X0398120Y0045648D01*
X0398135Y0045709D01*
X0398153Y0045769D01*
X0398174Y0045828D01*
X0398199Y0045885D01*
X0398226Y0045942D01*
X0398257Y0045996D01*
X0398290Y0046049D01*
X0398326Y0046100D01*
X0399260Y0045089D02*
X0399235Y0045050D01*
X0399207Y0045012D01*
X0399176Y0044977D01*
X0399143Y0044944D01*
X0399107Y0044914D01*
X0399069Y0044886D01*
X0399030Y0044861D01*
X0398988Y0044840D01*
X0398945Y0044821D01*
X0398901Y0044806D01*
X0398855Y0044794D01*
X0398809Y0044785D01*
X0398763Y0044780D01*
X0398716Y0044778D01*
X0398667Y0044780D01*
X0398619Y0044786D01*
X0398571Y0044795D01*
X0398524Y0044808D01*
X0398478Y0044825D01*
X0398434Y0044846D01*
X0398391Y0044870D01*
X0398350Y0044897D01*
X0398312Y0044927D01*
X0398276Y0044960D01*
X0398243Y0044996D01*
X0398213Y0045034D01*
X0398186Y0045075D01*
X0398162Y0045118D01*
X0398141Y0045162D01*
X0398124Y0045208D01*
X0398111Y0045255D01*
X0398102Y0045303D01*
X0398096Y0045351D01*
X0398094Y0045400D01*
X0400504Y0044700D02*
X0400552Y0044750D01*
X0400597Y0044802D01*
X0400639Y0044857D01*
X0400679Y0044914D01*
X0400715Y0044973D01*
X0400748Y0045034D01*
X0400778Y0045096D01*
X0400805Y0045160D01*
X0400828Y0045225D01*
X0400848Y0045291D01*
X0400864Y0045358D01*
X0400877Y0045426D01*
X0400886Y0045495D01*
X0400891Y0045564D01*
X0400893Y0045633D01*
X0400891Y0045682D01*
X0400885Y0045730D01*
X0400876Y0045778D01*
X0400863Y0045825D01*
X0400846Y0045871D01*
X0400825Y0045915D01*
X0400801Y0045958D01*
X0400774Y0045999D01*
X0400744Y0046037D01*
X0400711Y0046073D01*
X0400675Y0046106D01*
X0400637Y0046136D01*
X0400596Y0046163D01*
X0400553Y0046187D01*
X0400509Y0046208D01*
X0400463Y0046225D01*
X0400416Y0046238D01*
X0400368Y0046247D01*
X0400320Y0046253D01*
X0400271Y0046255D01*
X0400271Y0046256D02*
X0400224Y0046254D01*
X0400178Y0046249D01*
X0400132Y0046240D01*
X0400086Y0046228D01*
X0400042Y0046213D01*
X0399999Y0046194D01*
X0399957Y0046173D01*
X0399918Y0046148D01*
X0399880Y0046120D01*
X0399844Y0046090D01*
X0399811Y0046057D01*
X0399780Y0046022D01*
X0399752Y0045984D01*
X0399727Y0045945D01*
X0428093Y0042567D02*
X0430893Y0043500D01*
X0430193Y0043267D02*
X0430193Y0041867D01*
X0430893Y0041633D02*
X0428093Y0042567D01*
X0428871Y0040554D02*
X0430116Y0040554D01*
X0430116Y0040555D02*
X0430169Y0040553D01*
X0430222Y0040548D01*
X0430274Y0040539D01*
X0430326Y0040526D01*
X0430377Y0040510D01*
X0430426Y0040491D01*
X0430474Y0040468D01*
X0430520Y0040442D01*
X0430565Y0040413D01*
X0430607Y0040381D01*
X0430647Y0040346D01*
X0430685Y0040308D01*
X0430720Y0040268D01*
X0430752Y0040226D01*
X0430781Y0040181D01*
X0430807Y0040135D01*
X0430830Y0040087D01*
X0430849Y0040038D01*
X0430865Y0039987D01*
X0430878Y0039935D01*
X0430887Y0039883D01*
X0430892Y0039830D01*
X0430894Y0039777D01*
X0430893Y0039777D02*
X0430893Y0038999D01*
X0428093Y0038999D01*
X0428093Y0039777D01*
X0428095Y0039833D01*
X0428101Y0039888D01*
X0428111Y0039942D01*
X0428125Y0039996D01*
X0428142Y0040049D01*
X0428163Y0040100D01*
X0428188Y0040150D01*
X0428217Y0040198D01*
X0428248Y0040243D01*
X0428283Y0040286D01*
X0428321Y0040327D01*
X0428362Y0040365D01*
X0428405Y0040400D01*
X0428450Y0040431D01*
X0428498Y0040460D01*
X0428548Y0040485D01*
X0428599Y0040506D01*
X0428652Y0040523D01*
X0428706Y0040537D01*
X0428760Y0040547D01*
X0428815Y0040553D01*
X0428871Y0040555D01*
X0429727Y0037543D02*
X0429260Y0036688D01*
X0428093Y0036999D02*
X0428095Y0037062D01*
X0428100Y0037124D01*
X0428108Y0037186D01*
X0428120Y0037247D01*
X0428135Y0037308D01*
X0428153Y0037368D01*
X0428174Y0037427D01*
X0428199Y0037484D01*
X0428226Y0037541D01*
X0428257Y0037595D01*
X0428290Y0037648D01*
X0428326Y0037699D01*
X0429260Y0036688D02*
X0429235Y0036649D01*
X0429207Y0036611D01*
X0429176Y0036576D01*
X0429143Y0036543D01*
X0429107Y0036513D01*
X0429069Y0036485D01*
X0429030Y0036460D01*
X0428988Y0036439D01*
X0428945Y0036420D01*
X0428901Y0036405D01*
X0428855Y0036393D01*
X0428809Y0036384D01*
X0428763Y0036379D01*
X0428716Y0036377D01*
X0428667Y0036379D01*
X0428619Y0036385D01*
X0428571Y0036394D01*
X0428524Y0036407D01*
X0428478Y0036424D01*
X0428434Y0036445D01*
X0428391Y0036469D01*
X0428350Y0036496D01*
X0428312Y0036526D01*
X0428276Y0036559D01*
X0428243Y0036595D01*
X0428213Y0036633D01*
X0428186Y0036674D01*
X0428162Y0036717D01*
X0428141Y0036761D01*
X0428124Y0036807D01*
X0428111Y0036854D01*
X0428102Y0036902D01*
X0428096Y0036950D01*
X0428094Y0036999D01*
X0430504Y0036299D02*
X0430552Y0036349D01*
X0430597Y0036401D01*
X0430639Y0036456D01*
X0430679Y0036513D01*
X0430715Y0036572D01*
X0430748Y0036633D01*
X0430778Y0036695D01*
X0430805Y0036759D01*
X0430828Y0036824D01*
X0430848Y0036890D01*
X0430864Y0036957D01*
X0430877Y0037025D01*
X0430886Y0037094D01*
X0430891Y0037163D01*
X0430893Y0037232D01*
X0430891Y0037281D01*
X0430885Y0037329D01*
X0430876Y0037377D01*
X0430863Y0037424D01*
X0430846Y0037470D01*
X0430825Y0037514D01*
X0430801Y0037557D01*
X0430774Y0037598D01*
X0430744Y0037636D01*
X0430711Y0037672D01*
X0430675Y0037705D01*
X0430637Y0037735D01*
X0430596Y0037762D01*
X0430553Y0037786D01*
X0430509Y0037807D01*
X0430463Y0037824D01*
X0430416Y0037837D01*
X0430368Y0037846D01*
X0430320Y0037852D01*
X0430271Y0037854D01*
X0430271Y0037855D02*
X0430224Y0037853D01*
X0430178Y0037848D01*
X0430132Y0037839D01*
X0430086Y0037827D01*
X0430042Y0037812D01*
X0429999Y0037793D01*
X0429957Y0037772D01*
X0429918Y0037747D01*
X0429880Y0037719D01*
X0429844Y0037689D01*
X0429811Y0037656D01*
X0429780Y0037621D01*
X0429752Y0037583D01*
X0429727Y0037544D01*
X0400893Y0038425D02*
X0400893Y0039047D01*
X0400893Y0038425D02*
X0400891Y0038376D01*
X0400885Y0038328D01*
X0400876Y0038280D01*
X0400863Y0038233D01*
X0400846Y0038187D01*
X0400825Y0038143D01*
X0400801Y0038100D01*
X0400774Y0038059D01*
X0400744Y0038021D01*
X0400711Y0037985D01*
X0400675Y0037952D01*
X0400637Y0037922D01*
X0400596Y0037895D01*
X0400553Y0037871D01*
X0400509Y0037850D01*
X0400463Y0037833D01*
X0400416Y0037820D01*
X0400368Y0037811D01*
X0400320Y0037805D01*
X0400271Y0037803D01*
X0398716Y0037803D01*
X0398667Y0037805D01*
X0398619Y0037811D01*
X0398571Y0037820D01*
X0398524Y0037833D01*
X0398478Y0037850D01*
X0398434Y0037871D01*
X0398391Y0037895D01*
X0398350Y0037922D01*
X0398312Y0037952D01*
X0398276Y0037985D01*
X0398243Y0038021D01*
X0398213Y0038059D01*
X0398186Y0038100D01*
X0398162Y0038143D01*
X0398141Y0038187D01*
X0398124Y0038233D01*
X0398111Y0038280D01*
X0398102Y0038328D01*
X0398096Y0038376D01*
X0398094Y0038425D01*
X0398093Y0038425D02*
X0398093Y0039047D01*
X0398093Y0040155D02*
X0400893Y0040155D01*
X0400893Y0041399D01*
X0399727Y0036444D02*
X0399260Y0035589D01*
X0398093Y0035900D02*
X0398095Y0035963D01*
X0398100Y0036025D01*
X0398108Y0036087D01*
X0398120Y0036148D01*
X0398135Y0036209D01*
X0398153Y0036269D01*
X0398174Y0036328D01*
X0398199Y0036385D01*
X0398226Y0036442D01*
X0398257Y0036496D01*
X0398290Y0036549D01*
X0398326Y0036600D01*
X0399260Y0035589D02*
X0399235Y0035550D01*
X0399207Y0035512D01*
X0399176Y0035477D01*
X0399143Y0035444D01*
X0399107Y0035414D01*
X0399069Y0035386D01*
X0399030Y0035361D01*
X0398988Y0035340D01*
X0398945Y0035321D01*
X0398901Y0035306D01*
X0398855Y0035294D01*
X0398809Y0035285D01*
X0398763Y0035280D01*
X0398716Y0035278D01*
X0398667Y0035280D01*
X0398619Y0035286D01*
X0398571Y0035295D01*
X0398524Y0035308D01*
X0398478Y0035325D01*
X0398434Y0035346D01*
X0398391Y0035370D01*
X0398350Y0035397D01*
X0398312Y0035427D01*
X0398276Y0035460D01*
X0398243Y0035496D01*
X0398213Y0035534D01*
X0398186Y0035575D01*
X0398162Y0035618D01*
X0398141Y0035662D01*
X0398124Y0035708D01*
X0398111Y0035755D01*
X0398102Y0035803D01*
X0398096Y0035851D01*
X0398094Y0035900D01*
X0400504Y0035200D02*
X0400552Y0035250D01*
X0400597Y0035302D01*
X0400639Y0035357D01*
X0400679Y0035414D01*
X0400715Y0035473D01*
X0400748Y0035534D01*
X0400778Y0035596D01*
X0400805Y0035660D01*
X0400828Y0035725D01*
X0400848Y0035791D01*
X0400864Y0035858D01*
X0400877Y0035926D01*
X0400886Y0035995D01*
X0400891Y0036064D01*
X0400893Y0036133D01*
X0400891Y0036182D01*
X0400885Y0036230D01*
X0400876Y0036278D01*
X0400863Y0036325D01*
X0400846Y0036371D01*
X0400825Y0036415D01*
X0400801Y0036458D01*
X0400774Y0036499D01*
X0400744Y0036537D01*
X0400711Y0036573D01*
X0400675Y0036606D01*
X0400637Y0036636D01*
X0400596Y0036663D01*
X0400553Y0036687D01*
X0400509Y0036708D01*
X0400463Y0036725D01*
X0400416Y0036738D01*
X0400368Y0036747D01*
X0400320Y0036753D01*
X0400271Y0036755D01*
X0400271Y0036756D02*
X0400224Y0036754D01*
X0400178Y0036749D01*
X0400132Y0036740D01*
X0400086Y0036728D01*
X0400042Y0036713D01*
X0399999Y0036694D01*
X0399957Y0036673D01*
X0399918Y0036648D01*
X0399880Y0036620D01*
X0399844Y0036590D01*
X0399811Y0036557D01*
X0399780Y0036522D01*
X0399752Y0036484D01*
X0399727Y0036445D01*
X0400171Y0031520D02*
X0399016Y0031520D01*
X0398965Y0031518D01*
X0398913Y0031513D01*
X0398863Y0031504D01*
X0398813Y0031491D01*
X0398764Y0031474D01*
X0398716Y0031455D01*
X0398670Y0031432D01*
X0398626Y0031405D01*
X0398583Y0031376D01*
X0398543Y0031344D01*
X0398505Y0031309D01*
X0398470Y0031271D01*
X0398438Y0031231D01*
X0398409Y0031188D01*
X0398382Y0031144D01*
X0398359Y0031098D01*
X0398340Y0031050D01*
X0398323Y0031001D01*
X0398311Y0030951D01*
X0398301Y0030901D01*
X0398296Y0030850D01*
X0398294Y0030798D01*
X0398293Y0030798D02*
X0398293Y0030076D01*
X0400893Y0030076D01*
X0400893Y0030798D01*
X0400891Y0030850D01*
X0400886Y0030901D01*
X0400877Y0030951D01*
X0400864Y0031001D01*
X0400847Y0031050D01*
X0400828Y0031098D01*
X0400805Y0031144D01*
X0400778Y0031188D01*
X0400749Y0031231D01*
X0400717Y0031271D01*
X0400682Y0031309D01*
X0400644Y0031344D01*
X0400604Y0031376D01*
X0400561Y0031405D01*
X0400517Y0031432D01*
X0400471Y0031455D01*
X0400423Y0031474D01*
X0400374Y0031491D01*
X0400324Y0031504D01*
X0400274Y0031513D01*
X0400223Y0031518D01*
X0400171Y0031520D01*
X0400893Y0028832D02*
X0398293Y0028832D01*
X0398293Y0027388D02*
X0400893Y0028832D01*
X0400893Y0027388D02*
X0398293Y0027388D01*
X0398293Y0026144D02*
X0398293Y0025278D01*
X0398295Y0025230D01*
X0398301Y0025183D01*
X0398311Y0025136D01*
X0398324Y0025090D01*
X0398342Y0025046D01*
X0398363Y0025003D01*
X0398387Y0024962D01*
X0398415Y0024923D01*
X0398446Y0024887D01*
X0398480Y0024853D01*
X0398516Y0024822D01*
X0398555Y0024794D01*
X0398596Y0024770D01*
X0398639Y0024749D01*
X0398683Y0024731D01*
X0398729Y0024718D01*
X0398776Y0024708D01*
X0398823Y0024702D01*
X0398871Y0024700D01*
X0400316Y0024700D01*
X0400364Y0024702D01*
X0400411Y0024708D01*
X0400458Y0024718D01*
X0400504Y0024731D01*
X0400548Y0024749D01*
X0400591Y0024770D01*
X0400632Y0024794D01*
X0400671Y0024822D01*
X0400707Y0024853D01*
X0400741Y0024887D01*
X0400772Y0024923D01*
X0400800Y0024962D01*
X0400824Y0025003D01*
X0400845Y0025046D01*
X0400863Y0025090D01*
X0400876Y0025136D01*
X0400886Y0025183D01*
X0400892Y0025230D01*
X0400894Y0025278D01*
X0400893Y0025278D02*
X0400893Y0026144D01*
X0399449Y0026144D01*
X0399449Y0025711D01*
X0428093Y0025544D02*
X0428093Y0026478D01*
X0428094Y0026478D02*
X0428096Y0026527D01*
X0428102Y0026575D01*
X0428111Y0026623D01*
X0428124Y0026670D01*
X0428141Y0026716D01*
X0428162Y0026760D01*
X0428186Y0026803D01*
X0428213Y0026844D01*
X0428243Y0026882D01*
X0428276Y0026918D01*
X0428312Y0026951D01*
X0428350Y0026981D01*
X0428391Y0027008D01*
X0428434Y0027032D01*
X0428478Y0027053D01*
X0428524Y0027070D01*
X0428571Y0027083D01*
X0428619Y0027092D01*
X0428667Y0027098D01*
X0428716Y0027100D01*
X0428765Y0027098D01*
X0428813Y0027092D01*
X0428861Y0027083D01*
X0428908Y0027070D01*
X0428954Y0027053D01*
X0428998Y0027032D01*
X0429041Y0027008D01*
X0429082Y0026981D01*
X0429120Y0026951D01*
X0429156Y0026918D01*
X0429189Y0026882D01*
X0429219Y0026844D01*
X0429246Y0026803D01*
X0429270Y0026760D01*
X0429291Y0026716D01*
X0429308Y0026670D01*
X0429321Y0026623D01*
X0429330Y0026575D01*
X0429336Y0026527D01*
X0429338Y0026478D01*
X0429338Y0025856D01*
X0429338Y0026322D02*
X0429340Y0026378D01*
X0429346Y0026433D01*
X0429356Y0026487D01*
X0429370Y0026541D01*
X0429387Y0026594D01*
X0429408Y0026645D01*
X0429433Y0026695D01*
X0429462Y0026743D01*
X0429493Y0026788D01*
X0429528Y0026831D01*
X0429566Y0026872D01*
X0429607Y0026910D01*
X0429650Y0026945D01*
X0429695Y0026976D01*
X0429743Y0027005D01*
X0429793Y0027030D01*
X0429844Y0027051D01*
X0429897Y0027068D01*
X0429951Y0027082D01*
X0430005Y0027092D01*
X0430060Y0027098D01*
X0430116Y0027100D01*
X0430172Y0027098D01*
X0430227Y0027092D01*
X0430281Y0027082D01*
X0430335Y0027068D01*
X0430388Y0027051D01*
X0430439Y0027030D01*
X0430489Y0027005D01*
X0430537Y0026976D01*
X0430582Y0026945D01*
X0430625Y0026910D01*
X0430666Y0026872D01*
X0430704Y0026831D01*
X0430739Y0026788D01*
X0430770Y0026743D01*
X0430799Y0026695D01*
X0430824Y0026645D01*
X0430845Y0026594D01*
X0430862Y0026541D01*
X0430876Y0026487D01*
X0430886Y0026433D01*
X0430892Y0026378D01*
X0430894Y0026322D01*
X0430893Y0026322D02*
X0430893Y0025544D01*
X0430893Y0029022D02*
X0428093Y0028089D01*
X0428093Y0029956D02*
X0430893Y0029022D01*
X0430893Y0030944D02*
X0430893Y0031722D01*
X0430894Y0031722D02*
X0430892Y0031778D01*
X0430886Y0031833D01*
X0430876Y0031887D01*
X0430862Y0031941D01*
X0430845Y0031994D01*
X0430824Y0032045D01*
X0430799Y0032095D01*
X0430770Y0032143D01*
X0430739Y0032188D01*
X0430704Y0032231D01*
X0430666Y0032272D01*
X0430625Y0032310D01*
X0430582Y0032345D01*
X0430537Y0032376D01*
X0430489Y0032405D01*
X0430439Y0032430D01*
X0430388Y0032451D01*
X0430335Y0032468D01*
X0430281Y0032482D01*
X0430227Y0032492D01*
X0430172Y0032498D01*
X0430116Y0032500D01*
X0430060Y0032498D01*
X0430005Y0032492D01*
X0429951Y0032482D01*
X0429897Y0032468D01*
X0429844Y0032451D01*
X0429793Y0032430D01*
X0429743Y0032405D01*
X0429695Y0032376D01*
X0429650Y0032345D01*
X0429607Y0032310D01*
X0429566Y0032272D01*
X0429528Y0032231D01*
X0429493Y0032188D01*
X0429462Y0032143D01*
X0429433Y0032095D01*
X0429408Y0032045D01*
X0429387Y0031994D01*
X0429370Y0031941D01*
X0429356Y0031887D01*
X0429346Y0031833D01*
X0429340Y0031778D01*
X0429338Y0031722D01*
X0429338Y0031878D02*
X0429338Y0031256D01*
X0429338Y0031878D02*
X0429336Y0031927D01*
X0429330Y0031975D01*
X0429321Y0032023D01*
X0429308Y0032070D01*
X0429291Y0032116D01*
X0429270Y0032160D01*
X0429246Y0032203D01*
X0429219Y0032244D01*
X0429189Y0032282D01*
X0429156Y0032318D01*
X0429120Y0032351D01*
X0429082Y0032381D01*
X0429041Y0032408D01*
X0428998Y0032432D01*
X0428954Y0032453D01*
X0428908Y0032470D01*
X0428861Y0032483D01*
X0428813Y0032492D01*
X0428765Y0032498D01*
X0428716Y0032500D01*
X0428667Y0032498D01*
X0428619Y0032492D01*
X0428571Y0032483D01*
X0428524Y0032470D01*
X0428478Y0032453D01*
X0428434Y0032432D01*
X0428391Y0032408D01*
X0428350Y0032381D01*
X0428312Y0032351D01*
X0428276Y0032318D01*
X0428243Y0032282D01*
X0428213Y0032244D01*
X0428186Y0032203D01*
X0428162Y0032160D01*
X0428141Y0032116D01*
X0428124Y0032070D01*
X0428111Y0032023D01*
X0428102Y0031975D01*
X0428096Y0031927D01*
X0428094Y0031878D01*
X0428093Y0031878D02*
X0428093Y0030944D01*
X0482093Y0031307D02*
X0482093Y0032240D01*
X0482094Y0031307D02*
X0482096Y0031258D01*
X0482102Y0031210D01*
X0482111Y0031162D01*
X0482124Y0031115D01*
X0482141Y0031069D01*
X0482162Y0031025D01*
X0482186Y0030982D01*
X0482213Y0030941D01*
X0482243Y0030903D01*
X0482276Y0030867D01*
X0482312Y0030834D01*
X0482350Y0030804D01*
X0482391Y0030777D01*
X0482434Y0030753D01*
X0482478Y0030732D01*
X0482524Y0030715D01*
X0482571Y0030702D01*
X0482619Y0030693D01*
X0482667Y0030687D01*
X0482716Y0030685D01*
X0482716Y0030684D02*
X0484271Y0030684D01*
X0484271Y0030685D02*
X0484320Y0030687D01*
X0484368Y0030693D01*
X0484416Y0030702D01*
X0484463Y0030715D01*
X0484509Y0030732D01*
X0484553Y0030753D01*
X0484596Y0030777D01*
X0484637Y0030804D01*
X0484675Y0030834D01*
X0484711Y0030867D01*
X0484744Y0030903D01*
X0484774Y0030941D01*
X0484801Y0030982D01*
X0484825Y0031025D01*
X0484846Y0031069D01*
X0484863Y0031115D01*
X0484876Y0031162D01*
X0484885Y0031210D01*
X0484891Y0031258D01*
X0484893Y0031307D01*
X0484893Y0032240D01*
X0483338Y0032240D01*
X0483338Y0031773D01*
X0482093Y0033564D02*
X0484893Y0035120D01*
X0482093Y0035120D01*
X0482093Y0033564D02*
X0484893Y0033564D01*
X0429727Y0048045D02*
X0429260Y0047190D01*
X0428093Y0047501D02*
X0428095Y0047564D01*
X0428100Y0047626D01*
X0428108Y0047688D01*
X0428120Y0047749D01*
X0428135Y0047810D01*
X0428153Y0047870D01*
X0428174Y0047929D01*
X0428199Y0047986D01*
X0428226Y0048043D01*
X0428257Y0048097D01*
X0428290Y0048150D01*
X0428326Y0048201D01*
X0429260Y0047189D02*
X0429235Y0047150D01*
X0429207Y0047112D01*
X0429176Y0047077D01*
X0429143Y0047044D01*
X0429107Y0047014D01*
X0429069Y0046986D01*
X0429030Y0046961D01*
X0428988Y0046940D01*
X0428945Y0046921D01*
X0428901Y0046906D01*
X0428855Y0046894D01*
X0428809Y0046885D01*
X0428763Y0046880D01*
X0428716Y0046878D01*
X0428716Y0046879D02*
X0428667Y0046881D01*
X0428619Y0046887D01*
X0428571Y0046896D01*
X0428524Y0046909D01*
X0428478Y0046926D01*
X0428434Y0046947D01*
X0428391Y0046971D01*
X0428350Y0046998D01*
X0428312Y0047028D01*
X0428276Y0047061D01*
X0428243Y0047097D01*
X0428213Y0047135D01*
X0428186Y0047176D01*
X0428162Y0047219D01*
X0428141Y0047263D01*
X0428124Y0047309D01*
X0428111Y0047356D01*
X0428102Y0047404D01*
X0428096Y0047452D01*
X0428094Y0047501D01*
X0430504Y0046801D02*
X0430552Y0046851D01*
X0430597Y0046903D01*
X0430639Y0046958D01*
X0430679Y0047015D01*
X0430715Y0047074D01*
X0430748Y0047135D01*
X0430778Y0047197D01*
X0430805Y0047261D01*
X0430828Y0047326D01*
X0430848Y0047392D01*
X0430864Y0047459D01*
X0430877Y0047527D01*
X0430886Y0047596D01*
X0430891Y0047665D01*
X0430893Y0047734D01*
X0430891Y0047783D01*
X0430885Y0047831D01*
X0430876Y0047879D01*
X0430863Y0047926D01*
X0430846Y0047972D01*
X0430825Y0048016D01*
X0430801Y0048059D01*
X0430774Y0048100D01*
X0430744Y0048138D01*
X0430711Y0048174D01*
X0430675Y0048207D01*
X0430637Y0048237D01*
X0430596Y0048264D01*
X0430553Y0048288D01*
X0430509Y0048309D01*
X0430463Y0048326D01*
X0430416Y0048339D01*
X0430368Y0048348D01*
X0430320Y0048354D01*
X0430271Y0048356D01*
X0430224Y0048354D01*
X0430178Y0048349D01*
X0430132Y0048340D01*
X0430086Y0048328D01*
X0430042Y0048313D01*
X0429999Y0048294D01*
X0429957Y0048273D01*
X0429918Y0048248D01*
X0429880Y0048220D01*
X0429844Y0048190D01*
X0429811Y0048157D01*
X0429780Y0048122D01*
X0429752Y0048084D01*
X0429727Y0048045D01*
X0430271Y0049403D02*
X0428716Y0049403D01*
X0428716Y0049404D02*
X0428667Y0049406D01*
X0428619Y0049412D01*
X0428571Y0049421D01*
X0428524Y0049434D01*
X0428478Y0049451D01*
X0428434Y0049472D01*
X0428391Y0049496D01*
X0428350Y0049523D01*
X0428312Y0049553D01*
X0428276Y0049586D01*
X0428243Y0049622D01*
X0428213Y0049660D01*
X0428186Y0049701D01*
X0428162Y0049744D01*
X0428141Y0049788D01*
X0428124Y0049834D01*
X0428111Y0049881D01*
X0428102Y0049929D01*
X0428096Y0049977D01*
X0428094Y0050026D01*
X0428093Y0050026D02*
X0428093Y0050648D01*
X0428093Y0051756D02*
X0430893Y0051756D01*
X0430893Y0053000D01*
X0430893Y0050648D02*
X0430893Y0050026D01*
X0430891Y0049977D01*
X0430885Y0049929D01*
X0430876Y0049881D01*
X0430863Y0049834D01*
X0430846Y0049788D01*
X0430825Y0049744D01*
X0430801Y0049701D01*
X0430774Y0049660D01*
X0430744Y0049622D01*
X0430711Y0049586D01*
X0430675Y0049553D01*
X0430637Y0049523D01*
X0430596Y0049496D01*
X0430553Y0049472D01*
X0430509Y0049451D01*
X0430463Y0049434D01*
X0430416Y0049421D01*
X0430368Y0049412D01*
X0430320Y0049406D01*
X0430271Y0049404D01*
X0430116Y0056680D02*
X0428671Y0056680D01*
X0428671Y0056679D02*
X0428623Y0056681D01*
X0428576Y0056687D01*
X0428529Y0056697D01*
X0428483Y0056710D01*
X0428439Y0056728D01*
X0428396Y0056749D01*
X0428355Y0056773D01*
X0428316Y0056801D01*
X0428280Y0056832D01*
X0428246Y0056866D01*
X0428215Y0056902D01*
X0428187Y0056941D01*
X0428163Y0056982D01*
X0428142Y0057025D01*
X0428124Y0057069D01*
X0428111Y0057115D01*
X0428101Y0057162D01*
X0428095Y0057209D01*
X0428093Y0057257D01*
X0428093Y0058124D01*
X0429249Y0058124D02*
X0430693Y0058124D01*
X0430693Y0057257D01*
X0430694Y0057257D02*
X0430692Y0057209D01*
X0430686Y0057162D01*
X0430676Y0057115D01*
X0430663Y0057069D01*
X0430645Y0057025D01*
X0430624Y0056982D01*
X0430600Y0056941D01*
X0430572Y0056902D01*
X0430541Y0056866D01*
X0430507Y0056832D01*
X0430471Y0056801D01*
X0430432Y0056773D01*
X0430391Y0056749D01*
X0430348Y0056728D01*
X0430304Y0056710D01*
X0430258Y0056697D01*
X0430211Y0056687D01*
X0430164Y0056681D01*
X0430116Y0056679D01*
X0429249Y0057691D02*
X0429249Y0058124D01*
X0353460Y0050000D02*
X0352838Y0047822D01*
X0354393Y0047822D01*
X0353927Y0048444D02*
X0353927Y0047200D01*
X0351825Y0047200D02*
X0351203Y0047200D01*
X0351154Y0047202D01*
X0351106Y0047208D01*
X0351058Y0047217D01*
X0351011Y0047230D01*
X0350965Y0047247D01*
X0350921Y0047268D01*
X0350878Y0047292D01*
X0350837Y0047319D01*
X0350799Y0047349D01*
X0350763Y0047382D01*
X0350730Y0047418D01*
X0350700Y0047456D01*
X0350673Y0047497D01*
X0350649Y0047540D01*
X0350628Y0047584D01*
X0350611Y0047630D01*
X0350598Y0047677D01*
X0350589Y0047725D01*
X0350583Y0047773D01*
X0350581Y0047822D01*
X0350581Y0049378D01*
X0350583Y0049427D01*
X0350589Y0049475D01*
X0350598Y0049523D01*
X0350611Y0049570D01*
X0350628Y0049616D01*
X0350649Y0049660D01*
X0350673Y0049703D01*
X0350700Y0049744D01*
X0350730Y0049782D01*
X0350763Y0049818D01*
X0350799Y0049851D01*
X0350837Y0049881D01*
X0350878Y0049908D01*
X0350921Y0049932D01*
X0350965Y0049953D01*
X0351011Y0049970D01*
X0351058Y0049983D01*
X0351106Y0049992D01*
X0351154Y0049998D01*
X0351203Y0050000D01*
X0351825Y0050000D01*
X0346893Y0050822D02*
X0346893Y0051756D01*
X0345338Y0051756D01*
X0345338Y0051289D01*
X0344716Y0050200D02*
X0344667Y0050202D01*
X0344619Y0050208D01*
X0344571Y0050217D01*
X0344524Y0050230D01*
X0344478Y0050247D01*
X0344434Y0050268D01*
X0344391Y0050292D01*
X0344350Y0050319D01*
X0344312Y0050349D01*
X0344276Y0050382D01*
X0344243Y0050418D01*
X0344213Y0050456D01*
X0344186Y0050497D01*
X0344162Y0050540D01*
X0344141Y0050584D01*
X0344124Y0050630D01*
X0344111Y0050677D01*
X0344102Y0050725D01*
X0344096Y0050773D01*
X0344094Y0050822D01*
X0344093Y0050822D02*
X0344093Y0051756D01*
X0346271Y0050200D02*
X0346320Y0050202D01*
X0346368Y0050208D01*
X0346416Y0050217D01*
X0346463Y0050230D01*
X0346509Y0050247D01*
X0346553Y0050268D01*
X0346596Y0050292D01*
X0346637Y0050319D01*
X0346675Y0050349D01*
X0346711Y0050382D01*
X0346744Y0050418D01*
X0346774Y0050456D01*
X0346801Y0050497D01*
X0346825Y0050540D01*
X0346846Y0050584D01*
X0346863Y0050630D01*
X0346876Y0050677D01*
X0346885Y0050725D01*
X0346891Y0050773D01*
X0346893Y0050822D01*
X0346271Y0050200D02*
X0344716Y0050200D01*
X0344093Y0053080D02*
X0346893Y0054636D01*
X0344093Y0054636D01*
X0344093Y0053080D02*
X0346893Y0053080D01*
X0346893Y0055960D02*
X0346893Y0056738D01*
X0346894Y0056738D02*
X0346892Y0056791D01*
X0346887Y0056844D01*
X0346878Y0056896D01*
X0346865Y0056948D01*
X0346849Y0056999D01*
X0346830Y0057048D01*
X0346807Y0057096D01*
X0346781Y0057142D01*
X0346752Y0057187D01*
X0346720Y0057229D01*
X0346685Y0057269D01*
X0346647Y0057307D01*
X0346607Y0057342D01*
X0346565Y0057374D01*
X0346520Y0057403D01*
X0346474Y0057429D01*
X0346426Y0057452D01*
X0346377Y0057471D01*
X0346326Y0057487D01*
X0346274Y0057500D01*
X0346222Y0057509D01*
X0346169Y0057514D01*
X0346116Y0057516D01*
X0344871Y0057516D01*
X0344815Y0057514D01*
X0344760Y0057508D01*
X0344706Y0057498D01*
X0344652Y0057484D01*
X0344599Y0057467D01*
X0344548Y0057446D01*
X0344498Y0057421D01*
X0344450Y0057392D01*
X0344405Y0057361D01*
X0344362Y0057326D01*
X0344321Y0057288D01*
X0344283Y0057247D01*
X0344248Y0057204D01*
X0344217Y0057159D01*
X0344188Y0057111D01*
X0344163Y0057061D01*
X0344142Y0057010D01*
X0344125Y0056957D01*
X0344111Y0056903D01*
X0344101Y0056849D01*
X0344095Y0056794D01*
X0344093Y0056738D01*
X0344093Y0055960D01*
X0346893Y0055960D01*
X0288393Y0059822D02*
X0288393Y0060444D01*
X0288393Y0059822D02*
X0288391Y0059773D01*
X0288385Y0059725D01*
X0288376Y0059677D01*
X0288363Y0059630D01*
X0288346Y0059584D01*
X0288325Y0059540D01*
X0288301Y0059497D01*
X0288274Y0059456D01*
X0288244Y0059418D01*
X0288211Y0059382D01*
X0288175Y0059349D01*
X0288137Y0059319D01*
X0288096Y0059292D01*
X0288053Y0059268D01*
X0288009Y0059247D01*
X0287963Y0059230D01*
X0287916Y0059217D01*
X0287868Y0059208D01*
X0287820Y0059202D01*
X0287771Y0059200D01*
X0286216Y0059200D01*
X0286167Y0059202D01*
X0286119Y0059208D01*
X0286071Y0059217D01*
X0286024Y0059230D01*
X0285978Y0059247D01*
X0285934Y0059268D01*
X0285891Y0059292D01*
X0285850Y0059319D01*
X0285812Y0059349D01*
X0285776Y0059382D01*
X0285743Y0059418D01*
X0285713Y0059456D01*
X0285686Y0059497D01*
X0285662Y0059540D01*
X0285641Y0059584D01*
X0285624Y0059630D01*
X0285611Y0059677D01*
X0285602Y0059725D01*
X0285596Y0059773D01*
X0285594Y0059822D01*
X0285593Y0059822D02*
X0285593Y0060444D01*
X0286838Y0062779D02*
X0288393Y0061457D01*
X0288393Y0063013D01*
X0286216Y0061458D02*
X0286163Y0061477D01*
X0286111Y0061499D01*
X0286061Y0061525D01*
X0286012Y0061554D01*
X0285965Y0061585D01*
X0285920Y0061620D01*
X0285878Y0061657D01*
X0285838Y0061697D01*
X0285801Y0061740D01*
X0285766Y0061784D01*
X0285734Y0061831D01*
X0285705Y0061880D01*
X0285680Y0061930D01*
X0285657Y0061982D01*
X0285638Y0062035D01*
X0285622Y0062089D01*
X0285610Y0062144D01*
X0285601Y0062200D01*
X0285596Y0062257D01*
X0285594Y0062313D01*
X0285593Y0062313D02*
X0285595Y0062363D01*
X0285600Y0062413D01*
X0285609Y0062462D01*
X0285621Y0062510D01*
X0285637Y0062558D01*
X0285656Y0062604D01*
X0285679Y0062648D01*
X0285704Y0062691D01*
X0285733Y0062732D01*
X0285764Y0062771D01*
X0285798Y0062808D01*
X0285835Y0062842D01*
X0285874Y0062873D01*
X0285915Y0062902D01*
X0285958Y0062927D01*
X0286002Y0062950D01*
X0286048Y0062969D01*
X0286096Y0062985D01*
X0286144Y0062997D01*
X0286193Y0063006D01*
X0286243Y0063011D01*
X0286293Y0063013D01*
X0286344Y0063011D01*
X0286394Y0063006D01*
X0286444Y0062998D01*
X0286494Y0062986D01*
X0286542Y0062971D01*
X0286589Y0062952D01*
X0286635Y0062931D01*
X0286680Y0062906D01*
X0286722Y0062879D01*
X0286763Y0062848D01*
X0286801Y0062815D01*
X0286838Y0062780D01*
X0259893Y0058543D02*
X0259893Y0057921D01*
X0259891Y0057872D01*
X0259885Y0057824D01*
X0259876Y0057776D01*
X0259863Y0057729D01*
X0259846Y0057683D01*
X0259825Y0057639D01*
X0259801Y0057596D01*
X0259774Y0057555D01*
X0259744Y0057517D01*
X0259711Y0057481D01*
X0259675Y0057448D01*
X0259637Y0057418D01*
X0259596Y0057391D01*
X0259553Y0057367D01*
X0259509Y0057346D01*
X0259463Y0057329D01*
X0259416Y0057316D01*
X0259368Y0057307D01*
X0259320Y0057301D01*
X0259271Y0057299D01*
X0259271Y0057298D02*
X0257716Y0057298D01*
X0257716Y0057299D02*
X0257667Y0057301D01*
X0257619Y0057307D01*
X0257571Y0057316D01*
X0257524Y0057329D01*
X0257478Y0057346D01*
X0257434Y0057367D01*
X0257391Y0057391D01*
X0257350Y0057418D01*
X0257312Y0057448D01*
X0257276Y0057481D01*
X0257243Y0057517D01*
X0257213Y0057555D01*
X0257186Y0057596D01*
X0257162Y0057639D01*
X0257141Y0057683D01*
X0257124Y0057729D01*
X0257111Y0057776D01*
X0257102Y0057824D01*
X0257096Y0057872D01*
X0257094Y0057921D01*
X0257093Y0057921D02*
X0257093Y0058543D01*
X0257093Y0056293D02*
X0257093Y0055671D01*
X0257094Y0055671D02*
X0257096Y0055622D01*
X0257102Y0055574D01*
X0257111Y0055526D01*
X0257124Y0055479D01*
X0257141Y0055433D01*
X0257162Y0055389D01*
X0257186Y0055346D01*
X0257213Y0055305D01*
X0257243Y0055267D01*
X0257276Y0055231D01*
X0257312Y0055198D01*
X0257350Y0055168D01*
X0257391Y0055141D01*
X0257434Y0055117D01*
X0257478Y0055096D01*
X0257524Y0055079D01*
X0257571Y0055066D01*
X0257619Y0055057D01*
X0257667Y0055051D01*
X0257716Y0055049D01*
X0257716Y0055048D02*
X0259271Y0055048D01*
X0259271Y0055049D02*
X0259320Y0055051D01*
X0259368Y0055057D01*
X0259416Y0055066D01*
X0259463Y0055079D01*
X0259509Y0055096D01*
X0259553Y0055117D01*
X0259596Y0055141D01*
X0259637Y0055168D01*
X0259675Y0055198D01*
X0259711Y0055231D01*
X0259744Y0055267D01*
X0259774Y0055305D01*
X0259801Y0055346D01*
X0259825Y0055389D01*
X0259846Y0055433D01*
X0259863Y0055479D01*
X0259876Y0055526D01*
X0259885Y0055574D01*
X0259891Y0055622D01*
X0259893Y0055671D01*
X0259893Y0056293D01*
X0259893Y0053133D02*
X0257093Y0054067D01*
X0257093Y0052200D02*
X0259893Y0053133D01*
X0280643Y0051750D02*
X0281421Y0051750D01*
X0280643Y0051750D02*
X0280643Y0048950D01*
X0280643Y0050194D02*
X0281421Y0050194D01*
X0281577Y0050194D02*
X0282199Y0048950D01*
X0283327Y0048950D02*
X0284105Y0048950D01*
X0284161Y0048952D01*
X0284216Y0048958D01*
X0284270Y0048968D01*
X0284324Y0048982D01*
X0284377Y0048999D01*
X0284428Y0049020D01*
X0284478Y0049045D01*
X0284526Y0049074D01*
X0284571Y0049105D01*
X0284614Y0049140D01*
X0284655Y0049178D01*
X0284693Y0049219D01*
X0284728Y0049262D01*
X0284759Y0049307D01*
X0284788Y0049355D01*
X0284813Y0049405D01*
X0284834Y0049456D01*
X0284851Y0049509D01*
X0284865Y0049563D01*
X0284875Y0049617D01*
X0284881Y0049672D01*
X0284883Y0049728D01*
X0284881Y0049784D01*
X0284875Y0049839D01*
X0284865Y0049893D01*
X0284851Y0049947D01*
X0284834Y0050000D01*
X0284813Y0050051D01*
X0284788Y0050101D01*
X0284759Y0050149D01*
X0284728Y0050194D01*
X0284693Y0050237D01*
X0284655Y0050278D01*
X0284614Y0050316D01*
X0284571Y0050351D01*
X0284526Y0050382D01*
X0284478Y0050411D01*
X0284428Y0050436D01*
X0284377Y0050457D01*
X0284324Y0050474D01*
X0284270Y0050488D01*
X0284216Y0050498D01*
X0284161Y0050504D01*
X0284105Y0050506D01*
X0284261Y0050506D02*
X0283639Y0050506D01*
X0284261Y0050506D02*
X0284310Y0050508D01*
X0284358Y0050514D01*
X0284406Y0050523D01*
X0284453Y0050536D01*
X0284499Y0050553D01*
X0284543Y0050574D01*
X0284586Y0050598D01*
X0284627Y0050625D01*
X0284665Y0050655D01*
X0284701Y0050688D01*
X0284734Y0050724D01*
X0284764Y0050762D01*
X0284791Y0050803D01*
X0284815Y0050846D01*
X0284836Y0050890D01*
X0284853Y0050936D01*
X0284866Y0050983D01*
X0284875Y0051031D01*
X0284881Y0051079D01*
X0284883Y0051128D01*
X0284881Y0051177D01*
X0284875Y0051225D01*
X0284866Y0051273D01*
X0284853Y0051320D01*
X0284836Y0051366D01*
X0284815Y0051410D01*
X0284791Y0051453D01*
X0284764Y0051494D01*
X0284734Y0051532D01*
X0284701Y0051568D01*
X0284665Y0051601D01*
X0284627Y0051631D01*
X0284586Y0051658D01*
X0284543Y0051682D01*
X0284499Y0051703D01*
X0284453Y0051720D01*
X0284406Y0051733D01*
X0284358Y0051742D01*
X0284310Y0051748D01*
X0284261Y0051750D01*
X0283327Y0051750D01*
X0281421Y0051750D02*
X0281477Y0051748D01*
X0281532Y0051742D01*
X0281586Y0051732D01*
X0281640Y0051718D01*
X0281693Y0051701D01*
X0281744Y0051680D01*
X0281794Y0051655D01*
X0281842Y0051626D01*
X0281887Y0051595D01*
X0281930Y0051560D01*
X0281971Y0051522D01*
X0282009Y0051481D01*
X0282044Y0051438D01*
X0282075Y0051393D01*
X0282104Y0051345D01*
X0282129Y0051295D01*
X0282150Y0051244D01*
X0282167Y0051191D01*
X0282181Y0051137D01*
X0282191Y0051083D01*
X0282197Y0051028D01*
X0282199Y0050972D01*
X0282197Y0050916D01*
X0282191Y0050861D01*
X0282181Y0050807D01*
X0282167Y0050753D01*
X0282150Y0050700D01*
X0282129Y0050649D01*
X0282104Y0050599D01*
X0282075Y0050551D01*
X0282044Y0050506D01*
X0282009Y0050463D01*
X0281971Y0050422D01*
X0281930Y0050384D01*
X0281887Y0050349D01*
X0281842Y0050318D01*
X0281794Y0050289D01*
X0281744Y0050264D01*
X0281693Y0050243D01*
X0281640Y0050226D01*
X0281586Y0050212D01*
X0281532Y0050202D01*
X0281477Y0050196D01*
X0281421Y0050194D01*
X0259893Y0047468D02*
X0259893Y0046690D01*
X0257093Y0046690D01*
X0257093Y0047468D01*
X0257094Y0047468D02*
X0257096Y0047517D01*
X0257102Y0047565D01*
X0257111Y0047613D01*
X0257124Y0047660D01*
X0257141Y0047706D01*
X0257162Y0047750D01*
X0257186Y0047793D01*
X0257213Y0047834D01*
X0257243Y0047872D01*
X0257276Y0047908D01*
X0257312Y0047941D01*
X0257350Y0047971D01*
X0257391Y0047998D01*
X0257434Y0048022D01*
X0257478Y0048043D01*
X0257524Y0048060D01*
X0257571Y0048073D01*
X0257619Y0048082D01*
X0257667Y0048088D01*
X0257716Y0048090D01*
X0257765Y0048088D01*
X0257813Y0048082D01*
X0257861Y0048073D01*
X0257908Y0048060D01*
X0257954Y0048043D01*
X0257998Y0048022D01*
X0258041Y0047998D01*
X0258082Y0047971D01*
X0258120Y0047941D01*
X0258156Y0047908D01*
X0258189Y0047872D01*
X0258219Y0047834D01*
X0258246Y0047793D01*
X0258270Y0047750D01*
X0258291Y0047706D01*
X0258308Y0047660D01*
X0258321Y0047613D01*
X0258330Y0047565D01*
X0258336Y0047517D01*
X0258338Y0047468D01*
X0258338Y0046690D01*
X0258338Y0047468D02*
X0258340Y0047524D01*
X0258346Y0047579D01*
X0258356Y0047633D01*
X0258370Y0047687D01*
X0258387Y0047740D01*
X0258408Y0047791D01*
X0258433Y0047841D01*
X0258462Y0047889D01*
X0258493Y0047934D01*
X0258528Y0047977D01*
X0258566Y0048018D01*
X0258607Y0048056D01*
X0258650Y0048091D01*
X0258695Y0048122D01*
X0258743Y0048151D01*
X0258793Y0048176D01*
X0258844Y0048197D01*
X0258897Y0048214D01*
X0258951Y0048228D01*
X0259005Y0048238D01*
X0259060Y0048244D01*
X0259116Y0048246D01*
X0259172Y0048244D01*
X0259227Y0048238D01*
X0259281Y0048228D01*
X0259335Y0048214D01*
X0259388Y0048197D01*
X0259439Y0048176D01*
X0259489Y0048151D01*
X0259537Y0048122D01*
X0259582Y0048091D01*
X0259625Y0048056D01*
X0259666Y0048018D01*
X0259704Y0047977D01*
X0259739Y0047934D01*
X0259770Y0047889D01*
X0259799Y0047841D01*
X0259824Y0047791D01*
X0259845Y0047740D01*
X0259862Y0047687D01*
X0259876Y0047633D01*
X0259886Y0047579D01*
X0259892Y0047524D01*
X0259894Y0047468D01*
X0259893Y0045435D02*
X0258649Y0044813D01*
X0258649Y0044657D02*
X0258649Y0043879D01*
X0258649Y0044657D02*
X0258647Y0044713D01*
X0258641Y0044768D01*
X0258631Y0044822D01*
X0258617Y0044876D01*
X0258600Y0044929D01*
X0258579Y0044980D01*
X0258554Y0045030D01*
X0258525Y0045078D01*
X0258494Y0045123D01*
X0258459Y0045166D01*
X0258421Y0045207D01*
X0258380Y0045245D01*
X0258337Y0045280D01*
X0258292Y0045311D01*
X0258244Y0045340D01*
X0258194Y0045365D01*
X0258143Y0045386D01*
X0258090Y0045403D01*
X0258036Y0045417D01*
X0257982Y0045427D01*
X0257927Y0045433D01*
X0257871Y0045435D01*
X0257815Y0045433D01*
X0257760Y0045427D01*
X0257706Y0045417D01*
X0257652Y0045403D01*
X0257599Y0045386D01*
X0257548Y0045365D01*
X0257498Y0045340D01*
X0257450Y0045311D01*
X0257405Y0045280D01*
X0257362Y0045245D01*
X0257321Y0045207D01*
X0257283Y0045166D01*
X0257248Y0045123D01*
X0257217Y0045078D01*
X0257188Y0045030D01*
X0257163Y0044980D01*
X0257142Y0044929D01*
X0257125Y0044876D01*
X0257111Y0044822D01*
X0257101Y0044768D01*
X0257095Y0044713D01*
X0257093Y0044657D01*
X0257093Y0043879D01*
X0259893Y0043879D01*
X0258649Y0041978D02*
X0258649Y0041200D01*
X0258649Y0041978D02*
X0258647Y0042034D01*
X0258641Y0042089D01*
X0258631Y0042143D01*
X0258617Y0042197D01*
X0258600Y0042250D01*
X0258579Y0042301D01*
X0258554Y0042351D01*
X0258525Y0042399D01*
X0258494Y0042444D01*
X0258459Y0042487D01*
X0258421Y0042528D01*
X0258380Y0042566D01*
X0258337Y0042601D01*
X0258292Y0042632D01*
X0258244Y0042661D01*
X0258194Y0042686D01*
X0258143Y0042707D01*
X0258090Y0042724D01*
X0258036Y0042738D01*
X0257982Y0042748D01*
X0257927Y0042754D01*
X0257871Y0042756D01*
X0257815Y0042754D01*
X0257760Y0042748D01*
X0257706Y0042738D01*
X0257652Y0042724D01*
X0257599Y0042707D01*
X0257548Y0042686D01*
X0257498Y0042661D01*
X0257450Y0042632D01*
X0257405Y0042601D01*
X0257362Y0042566D01*
X0257321Y0042528D01*
X0257283Y0042487D01*
X0257248Y0042444D01*
X0257217Y0042399D01*
X0257188Y0042351D01*
X0257163Y0042301D01*
X0257142Y0042250D01*
X0257125Y0042197D01*
X0257111Y0042143D01*
X0257101Y0042089D01*
X0257095Y0042034D01*
X0257093Y0041978D01*
X0257093Y0041200D01*
X0259893Y0041200D01*
X0280643Y0041750D02*
X0280643Y0038950D01*
X0280643Y0040194D02*
X0281421Y0040194D01*
X0281577Y0040194D02*
X0282199Y0038950D01*
X0283327Y0038950D02*
X0284883Y0038950D01*
X0284105Y0038950D02*
X0284105Y0041750D01*
X0283327Y0041128D01*
X0281421Y0041750D02*
X0281477Y0041748D01*
X0281532Y0041742D01*
X0281586Y0041732D01*
X0281640Y0041718D01*
X0281693Y0041701D01*
X0281744Y0041680D01*
X0281794Y0041655D01*
X0281842Y0041626D01*
X0281887Y0041595D01*
X0281930Y0041560D01*
X0281971Y0041522D01*
X0282009Y0041481D01*
X0282044Y0041438D01*
X0282075Y0041393D01*
X0282104Y0041345D01*
X0282129Y0041295D01*
X0282150Y0041244D01*
X0282167Y0041191D01*
X0282181Y0041137D01*
X0282191Y0041083D01*
X0282197Y0041028D01*
X0282199Y0040972D01*
X0282197Y0040916D01*
X0282191Y0040861D01*
X0282181Y0040807D01*
X0282167Y0040753D01*
X0282150Y0040700D01*
X0282129Y0040649D01*
X0282104Y0040599D01*
X0282075Y0040551D01*
X0282044Y0040506D01*
X0282009Y0040463D01*
X0281971Y0040422D01*
X0281930Y0040384D01*
X0281887Y0040349D01*
X0281842Y0040318D01*
X0281794Y0040289D01*
X0281744Y0040264D01*
X0281693Y0040243D01*
X0281640Y0040226D01*
X0281586Y0040212D01*
X0281532Y0040202D01*
X0281477Y0040196D01*
X0281421Y0040194D01*
X0281421Y0041750D02*
X0280643Y0041750D01*
X0280643Y0043950D02*
X0280643Y0046750D01*
X0281421Y0046750D01*
X0281477Y0046748D01*
X0281532Y0046742D01*
X0281586Y0046732D01*
X0281640Y0046718D01*
X0281693Y0046701D01*
X0281744Y0046680D01*
X0281794Y0046655D01*
X0281842Y0046626D01*
X0281887Y0046595D01*
X0281930Y0046560D01*
X0281971Y0046522D01*
X0282009Y0046481D01*
X0282044Y0046438D01*
X0282075Y0046393D01*
X0282104Y0046345D01*
X0282129Y0046295D01*
X0282150Y0046244D01*
X0282167Y0046191D01*
X0282181Y0046137D01*
X0282191Y0046083D01*
X0282197Y0046028D01*
X0282199Y0045972D01*
X0282197Y0045916D01*
X0282191Y0045861D01*
X0282181Y0045807D01*
X0282167Y0045753D01*
X0282150Y0045700D01*
X0282129Y0045649D01*
X0282104Y0045599D01*
X0282075Y0045551D01*
X0282044Y0045506D01*
X0282009Y0045463D01*
X0281971Y0045422D01*
X0281930Y0045384D01*
X0281887Y0045349D01*
X0281842Y0045318D01*
X0281794Y0045289D01*
X0281744Y0045264D01*
X0281693Y0045243D01*
X0281640Y0045226D01*
X0281586Y0045212D01*
X0281532Y0045202D01*
X0281477Y0045196D01*
X0281421Y0045194D01*
X0280643Y0045194D01*
X0281577Y0045194D02*
X0282199Y0043950D01*
X0283327Y0044572D02*
X0284883Y0044572D01*
X0284416Y0045194D02*
X0284416Y0043950D01*
X0283327Y0044572D02*
X0283950Y0046750D01*
X0298593Y0042368D02*
X0301393Y0042368D01*
X0301393Y0041590D02*
X0301393Y0043146D01*
X0299216Y0041590D02*
X0298593Y0042368D01*
X0298593Y0040356D02*
X0300616Y0040356D01*
X0300672Y0040354D01*
X0300727Y0040348D01*
X0300781Y0040338D01*
X0300835Y0040324D01*
X0300888Y0040307D01*
X0300939Y0040286D01*
X0300989Y0040261D01*
X0301037Y0040232D01*
X0301082Y0040201D01*
X0301125Y0040166D01*
X0301166Y0040128D01*
X0301204Y0040087D01*
X0301239Y0040044D01*
X0301270Y0039999D01*
X0301299Y0039951D01*
X0301324Y0039901D01*
X0301345Y0039850D01*
X0301362Y0039797D01*
X0301376Y0039743D01*
X0301386Y0039689D01*
X0301392Y0039634D01*
X0301394Y0039578D01*
X0301392Y0039522D01*
X0301386Y0039467D01*
X0301376Y0039413D01*
X0301362Y0039359D01*
X0301345Y0039306D01*
X0301324Y0039255D01*
X0301299Y0039205D01*
X0301270Y0039157D01*
X0301239Y0039112D01*
X0301204Y0039069D01*
X0301166Y0039028D01*
X0301125Y0038990D01*
X0301082Y0038955D01*
X0301037Y0038924D01*
X0300989Y0038895D01*
X0300939Y0038870D01*
X0300888Y0038849D01*
X0300835Y0038832D01*
X0300781Y0038818D01*
X0300727Y0038808D01*
X0300672Y0038802D01*
X0300616Y0038800D01*
X0298593Y0038800D01*
X0284883Y0036050D02*
X0284881Y0036100D01*
X0284876Y0036150D01*
X0284867Y0036199D01*
X0284855Y0036247D01*
X0284839Y0036295D01*
X0284820Y0036341D01*
X0284797Y0036385D01*
X0284772Y0036428D01*
X0284743Y0036469D01*
X0284712Y0036508D01*
X0284678Y0036545D01*
X0284641Y0036579D01*
X0284602Y0036610D01*
X0284561Y0036639D01*
X0284518Y0036664D01*
X0284474Y0036687D01*
X0284428Y0036706D01*
X0284380Y0036722D01*
X0284332Y0036734D01*
X0284283Y0036743D01*
X0284233Y0036748D01*
X0284183Y0036750D01*
X0284883Y0036050D02*
X0284881Y0035999D01*
X0284876Y0035949D01*
X0284868Y0035899D01*
X0284856Y0035849D01*
X0284841Y0035801D01*
X0284822Y0035754D01*
X0284801Y0035708D01*
X0284776Y0035663D01*
X0284749Y0035621D01*
X0284718Y0035580D01*
X0284685Y0035542D01*
X0284650Y0035505D01*
X0284650Y0035506D02*
X0283327Y0033950D01*
X0284883Y0033950D01*
X0282199Y0033950D02*
X0281577Y0035194D01*
X0281421Y0035194D02*
X0280643Y0035194D01*
X0281421Y0035194D02*
X0281477Y0035196D01*
X0281532Y0035202D01*
X0281586Y0035212D01*
X0281640Y0035226D01*
X0281693Y0035243D01*
X0281744Y0035264D01*
X0281794Y0035289D01*
X0281842Y0035318D01*
X0281887Y0035349D01*
X0281930Y0035384D01*
X0281971Y0035422D01*
X0282009Y0035463D01*
X0282044Y0035506D01*
X0282075Y0035551D01*
X0282104Y0035599D01*
X0282129Y0035649D01*
X0282150Y0035700D01*
X0282167Y0035753D01*
X0282181Y0035807D01*
X0282191Y0035861D01*
X0282197Y0035916D01*
X0282199Y0035972D01*
X0282197Y0036028D01*
X0282191Y0036083D01*
X0282181Y0036137D01*
X0282167Y0036191D01*
X0282150Y0036244D01*
X0282129Y0036295D01*
X0282104Y0036345D01*
X0282075Y0036393D01*
X0282044Y0036438D01*
X0282009Y0036481D01*
X0281971Y0036522D01*
X0281930Y0036560D01*
X0281887Y0036595D01*
X0281842Y0036626D01*
X0281794Y0036655D01*
X0281744Y0036680D01*
X0281693Y0036701D01*
X0281640Y0036718D01*
X0281586Y0036732D01*
X0281532Y0036742D01*
X0281477Y0036748D01*
X0281421Y0036750D01*
X0280643Y0036750D01*
X0280643Y0033950D01*
X0283328Y0036128D02*
X0283347Y0036181D01*
X0283369Y0036233D01*
X0283395Y0036283D01*
X0283424Y0036332D01*
X0283455Y0036379D01*
X0283490Y0036424D01*
X0283527Y0036466D01*
X0283567Y0036506D01*
X0283610Y0036543D01*
X0283654Y0036578D01*
X0283701Y0036610D01*
X0283750Y0036639D01*
X0283800Y0036664D01*
X0283852Y0036687D01*
X0283905Y0036706D01*
X0283959Y0036722D01*
X0284014Y0036734D01*
X0284070Y0036743D01*
X0284127Y0036748D01*
X0284183Y0036750D01*
X0259893Y0036401D02*
X0259893Y0035623D01*
X0257093Y0035623D01*
X0257093Y0036401D01*
X0257095Y0036457D01*
X0257101Y0036512D01*
X0257111Y0036566D01*
X0257125Y0036620D01*
X0257142Y0036673D01*
X0257163Y0036724D01*
X0257188Y0036774D01*
X0257217Y0036822D01*
X0257248Y0036867D01*
X0257283Y0036910D01*
X0257321Y0036951D01*
X0257362Y0036989D01*
X0257405Y0037024D01*
X0257450Y0037055D01*
X0257498Y0037084D01*
X0257548Y0037109D01*
X0257599Y0037130D01*
X0257652Y0037147D01*
X0257706Y0037161D01*
X0257760Y0037171D01*
X0257815Y0037177D01*
X0257871Y0037179D01*
X0259116Y0037179D01*
X0259169Y0037177D01*
X0259222Y0037172D01*
X0259274Y0037163D01*
X0259326Y0037150D01*
X0259377Y0037134D01*
X0259426Y0037115D01*
X0259474Y0037092D01*
X0259520Y0037066D01*
X0259565Y0037037D01*
X0259607Y0037005D01*
X0259647Y0036970D01*
X0259685Y0036932D01*
X0259720Y0036892D01*
X0259752Y0036850D01*
X0259781Y0036805D01*
X0259807Y0036759D01*
X0259830Y0036711D01*
X0259849Y0036662D01*
X0259865Y0036611D01*
X0259878Y0036559D01*
X0259887Y0036507D01*
X0259892Y0036454D01*
X0259894Y0036401D01*
X0259893Y0034299D02*
X0257093Y0034299D01*
X0257093Y0032743D02*
X0259893Y0034299D01*
X0259893Y0032743D02*
X0257093Y0032743D01*
X0257093Y0031419D02*
X0257093Y0030486D01*
X0257094Y0030486D02*
X0257096Y0030437D01*
X0257102Y0030389D01*
X0257111Y0030341D01*
X0257124Y0030294D01*
X0257141Y0030248D01*
X0257162Y0030204D01*
X0257186Y0030161D01*
X0257213Y0030120D01*
X0257243Y0030082D01*
X0257276Y0030046D01*
X0257312Y0030013D01*
X0257350Y0029983D01*
X0257391Y0029956D01*
X0257434Y0029932D01*
X0257478Y0029911D01*
X0257524Y0029894D01*
X0257571Y0029881D01*
X0257619Y0029872D01*
X0257667Y0029866D01*
X0257716Y0029864D01*
X0257716Y0029863D02*
X0259271Y0029863D01*
X0259271Y0029864D02*
X0259320Y0029866D01*
X0259368Y0029872D01*
X0259416Y0029881D01*
X0259463Y0029894D01*
X0259509Y0029911D01*
X0259553Y0029932D01*
X0259596Y0029956D01*
X0259637Y0029983D01*
X0259675Y0030013D01*
X0259711Y0030046D01*
X0259744Y0030082D01*
X0259774Y0030120D01*
X0259801Y0030161D01*
X0259825Y0030204D01*
X0259846Y0030248D01*
X0259863Y0030294D01*
X0259876Y0030341D01*
X0259885Y0030389D01*
X0259891Y0030437D01*
X0259893Y0030486D01*
X0259893Y0031419D01*
X0258338Y0031419D01*
X0258338Y0030952D01*
X0258649Y0027978D02*
X0258649Y0027200D01*
X0258649Y0027978D02*
X0258647Y0028034D01*
X0258641Y0028089D01*
X0258631Y0028143D01*
X0258617Y0028197D01*
X0258600Y0028250D01*
X0258579Y0028301D01*
X0258554Y0028351D01*
X0258525Y0028399D01*
X0258494Y0028444D01*
X0258459Y0028487D01*
X0258421Y0028528D01*
X0258380Y0028566D01*
X0258337Y0028601D01*
X0258292Y0028632D01*
X0258244Y0028661D01*
X0258194Y0028686D01*
X0258143Y0028707D01*
X0258090Y0028724D01*
X0258036Y0028738D01*
X0257982Y0028748D01*
X0257927Y0028754D01*
X0257871Y0028756D01*
X0257815Y0028754D01*
X0257760Y0028748D01*
X0257706Y0028738D01*
X0257652Y0028724D01*
X0257599Y0028707D01*
X0257548Y0028686D01*
X0257498Y0028661D01*
X0257450Y0028632D01*
X0257405Y0028601D01*
X0257362Y0028566D01*
X0257321Y0028528D01*
X0257283Y0028487D01*
X0257248Y0028444D01*
X0257217Y0028399D01*
X0257188Y0028351D01*
X0257163Y0028301D01*
X0257142Y0028250D01*
X0257125Y0028197D01*
X0257111Y0028143D01*
X0257101Y0028089D01*
X0257095Y0028034D01*
X0257093Y0027978D01*
X0257093Y0027200D01*
X0259893Y0027200D01*
X0284593Y0026235D02*
X0285216Y0025457D01*
X0284593Y0026235D02*
X0287393Y0026235D01*
X0287393Y0025457D02*
X0287393Y0027013D01*
X0287393Y0024444D02*
X0287393Y0023822D01*
X0287391Y0023773D01*
X0287385Y0023725D01*
X0287376Y0023677D01*
X0287363Y0023630D01*
X0287346Y0023584D01*
X0287325Y0023540D01*
X0287301Y0023497D01*
X0287274Y0023456D01*
X0287244Y0023418D01*
X0287211Y0023382D01*
X0287175Y0023349D01*
X0287137Y0023319D01*
X0287096Y0023292D01*
X0287053Y0023268D01*
X0287009Y0023247D01*
X0286963Y0023230D01*
X0286916Y0023217D01*
X0286868Y0023208D01*
X0286820Y0023202D01*
X0286771Y0023200D01*
X0285216Y0023200D01*
X0285167Y0023202D01*
X0285119Y0023208D01*
X0285071Y0023217D01*
X0285024Y0023230D01*
X0284978Y0023247D01*
X0284934Y0023268D01*
X0284891Y0023292D01*
X0284850Y0023319D01*
X0284812Y0023349D01*
X0284776Y0023382D01*
X0284743Y0023418D01*
X0284713Y0023456D01*
X0284686Y0023497D01*
X0284662Y0023540D01*
X0284641Y0023584D01*
X0284624Y0023630D01*
X0284611Y0023677D01*
X0284602Y0023725D01*
X0284596Y0023773D01*
X0284594Y0023822D01*
X0284593Y0023822D02*
X0284593Y0024444D01*
X0344093Y0031200D02*
X0344093Y0031978D01*
X0344093Y0031200D02*
X0346893Y0031200D01*
X0345649Y0031200D02*
X0345649Y0031978D01*
X0345649Y0032133D02*
X0346893Y0032756D01*
X0346893Y0033728D02*
X0344093Y0035595D01*
X0344093Y0033728D02*
X0346893Y0035595D01*
X0345649Y0031978D02*
X0345647Y0032034D01*
X0345641Y0032089D01*
X0345631Y0032143D01*
X0345617Y0032197D01*
X0345600Y0032250D01*
X0345579Y0032301D01*
X0345554Y0032351D01*
X0345525Y0032399D01*
X0345494Y0032444D01*
X0345459Y0032487D01*
X0345421Y0032528D01*
X0345380Y0032566D01*
X0345337Y0032601D01*
X0345292Y0032632D01*
X0345244Y0032661D01*
X0345194Y0032686D01*
X0345143Y0032707D01*
X0345090Y0032724D01*
X0345036Y0032738D01*
X0344982Y0032748D01*
X0344927Y0032754D01*
X0344871Y0032756D01*
X0344815Y0032754D01*
X0344760Y0032748D01*
X0344706Y0032738D01*
X0344652Y0032724D01*
X0344599Y0032707D01*
X0344548Y0032686D01*
X0344498Y0032661D01*
X0344450Y0032632D01*
X0344405Y0032601D01*
X0344362Y0032566D01*
X0344321Y0032528D01*
X0344283Y0032487D01*
X0344248Y0032444D01*
X0344217Y0032399D01*
X0344188Y0032351D01*
X0344163Y0032301D01*
X0344142Y0032250D01*
X0344125Y0032197D01*
X0344111Y0032143D01*
X0344101Y0032089D01*
X0344095Y0032034D01*
X0344093Y0031978D01*
X0351203Y0031000D02*
X0351825Y0031000D01*
X0351203Y0031000D02*
X0351154Y0030998D01*
X0351106Y0030992D01*
X0351058Y0030983D01*
X0351011Y0030970D01*
X0350965Y0030953D01*
X0350921Y0030932D01*
X0350878Y0030908D01*
X0350837Y0030881D01*
X0350799Y0030851D01*
X0350763Y0030818D01*
X0350730Y0030782D01*
X0350700Y0030744D01*
X0350673Y0030703D01*
X0350649Y0030660D01*
X0350628Y0030616D01*
X0350611Y0030570D01*
X0350598Y0030523D01*
X0350589Y0030475D01*
X0350583Y0030427D01*
X0350581Y0030378D01*
X0350581Y0028822D01*
X0350583Y0028773D01*
X0350589Y0028725D01*
X0350598Y0028677D01*
X0350611Y0028630D01*
X0350628Y0028584D01*
X0350649Y0028540D01*
X0350673Y0028497D01*
X0350700Y0028456D01*
X0350730Y0028418D01*
X0350763Y0028382D01*
X0350799Y0028349D01*
X0350837Y0028319D01*
X0350878Y0028292D01*
X0350921Y0028268D01*
X0350965Y0028247D01*
X0351011Y0028230D01*
X0351058Y0028217D01*
X0351106Y0028208D01*
X0351154Y0028202D01*
X0351203Y0028200D01*
X0351825Y0028200D01*
X0352838Y0028200D02*
X0353616Y0028200D01*
X0353672Y0028202D01*
X0353727Y0028208D01*
X0353781Y0028218D01*
X0353835Y0028232D01*
X0353888Y0028249D01*
X0353939Y0028270D01*
X0353989Y0028295D01*
X0354037Y0028324D01*
X0354082Y0028355D01*
X0354125Y0028390D01*
X0354166Y0028428D01*
X0354204Y0028469D01*
X0354239Y0028512D01*
X0354270Y0028557D01*
X0354299Y0028605D01*
X0354324Y0028655D01*
X0354345Y0028706D01*
X0354362Y0028759D01*
X0354376Y0028813D01*
X0354386Y0028867D01*
X0354392Y0028922D01*
X0354394Y0028978D01*
X0354392Y0029034D01*
X0354386Y0029089D01*
X0354376Y0029143D01*
X0354362Y0029197D01*
X0354345Y0029250D01*
X0354324Y0029301D01*
X0354299Y0029351D01*
X0354270Y0029399D01*
X0354239Y0029444D01*
X0354204Y0029487D01*
X0354166Y0029528D01*
X0354125Y0029566D01*
X0354082Y0029601D01*
X0354037Y0029632D01*
X0353989Y0029661D01*
X0353939Y0029686D01*
X0353888Y0029707D01*
X0353835Y0029724D01*
X0353781Y0029738D01*
X0353727Y0029748D01*
X0353672Y0029754D01*
X0353616Y0029756D01*
X0353771Y0029756D02*
X0353149Y0029756D01*
X0353771Y0029756D02*
X0353820Y0029758D01*
X0353868Y0029764D01*
X0353916Y0029773D01*
X0353963Y0029786D01*
X0354009Y0029803D01*
X0354053Y0029824D01*
X0354096Y0029848D01*
X0354137Y0029875D01*
X0354175Y0029905D01*
X0354211Y0029938D01*
X0354244Y0029974D01*
X0354274Y0030012D01*
X0354301Y0030053D01*
X0354325Y0030096D01*
X0354346Y0030140D01*
X0354363Y0030186D01*
X0354376Y0030233D01*
X0354385Y0030281D01*
X0354391Y0030329D01*
X0354393Y0030378D01*
X0354391Y0030427D01*
X0354385Y0030475D01*
X0354376Y0030523D01*
X0354363Y0030570D01*
X0354346Y0030616D01*
X0354325Y0030660D01*
X0354301Y0030703D01*
X0354274Y0030744D01*
X0354244Y0030782D01*
X0354211Y0030818D01*
X0354175Y0030851D01*
X0354137Y0030881D01*
X0354096Y0030908D01*
X0354053Y0030932D01*
X0354009Y0030953D01*
X0353963Y0030970D01*
X0353916Y0030983D01*
X0353868Y0030992D01*
X0353820Y0030998D01*
X0353771Y0031000D01*
X0352838Y0031000D01*
X0344093Y0041200D02*
X0344093Y0042756D01*
X0344093Y0041978D02*
X0346893Y0041978D01*
X0346893Y0043564D02*
X0344093Y0045431D01*
X0344093Y0043564D02*
X0346893Y0045431D01*
X0467548Y0070978D02*
X0467548Y0073000D01*
X0469103Y0073000D02*
X0469103Y0070978D01*
X0469104Y0070978D02*
X0469102Y0070922D01*
X0469096Y0070867D01*
X0469086Y0070813D01*
X0469072Y0070759D01*
X0469055Y0070706D01*
X0469034Y0070655D01*
X0469009Y0070605D01*
X0468980Y0070557D01*
X0468949Y0070512D01*
X0468914Y0070469D01*
X0468876Y0070428D01*
X0468835Y0070390D01*
X0468792Y0070355D01*
X0468747Y0070324D01*
X0468699Y0070295D01*
X0468649Y0070270D01*
X0468598Y0070249D01*
X0468545Y0070232D01*
X0468491Y0070218D01*
X0468437Y0070208D01*
X0468382Y0070202D01*
X0468326Y0070200D01*
X0468270Y0070202D01*
X0468215Y0070208D01*
X0468161Y0070218D01*
X0468107Y0070232D01*
X0468054Y0070249D01*
X0468003Y0070270D01*
X0467953Y0070295D01*
X0467905Y0070324D01*
X0467860Y0070355D01*
X0467817Y0070390D01*
X0467776Y0070428D01*
X0467738Y0070469D01*
X0467703Y0070512D01*
X0467672Y0070557D01*
X0467643Y0070605D01*
X0467618Y0070655D01*
X0467597Y0070706D01*
X0467580Y0070759D01*
X0467566Y0070813D01*
X0467556Y0070867D01*
X0467550Y0070922D01*
X0467548Y0070978D01*
X0470338Y0070822D02*
X0471893Y0070822D01*
X0471427Y0071444D02*
X0471427Y0070200D01*
X0470338Y0070822D02*
X0470960Y0073000D01*
X0534866Y0077700D02*
X0534866Y0080500D01*
X0536422Y0077700D01*
X0536422Y0080500D01*
X0537649Y0079878D02*
X0537649Y0078322D01*
X0537651Y0078273D01*
X0537657Y0078225D01*
X0537666Y0078177D01*
X0537679Y0078130D01*
X0537696Y0078084D01*
X0537717Y0078040D01*
X0537741Y0077997D01*
X0537768Y0077956D01*
X0537798Y0077918D01*
X0537831Y0077882D01*
X0537867Y0077849D01*
X0537905Y0077819D01*
X0537946Y0077792D01*
X0537989Y0077768D01*
X0538033Y0077747D01*
X0538079Y0077730D01*
X0538126Y0077717D01*
X0538174Y0077708D01*
X0538222Y0077702D01*
X0538271Y0077700D01*
X0538893Y0077700D01*
X0537649Y0079878D02*
X0537651Y0079927D01*
X0537657Y0079975D01*
X0537666Y0080023D01*
X0537679Y0080070D01*
X0537696Y0080116D01*
X0537717Y0080160D01*
X0537741Y0080203D01*
X0537768Y0080244D01*
X0537798Y0080282D01*
X0537831Y0080318D01*
X0537867Y0080351D01*
X0537905Y0080381D01*
X0537946Y0080408D01*
X0537989Y0080432D01*
X0538033Y0080453D01*
X0538079Y0080470D01*
X0538126Y0080483D01*
X0538174Y0080492D01*
X0538222Y0080498D01*
X0538271Y0080500D01*
X0538893Y0080500D01*
X0606093Y0072067D02*
X0608271Y0071444D01*
X0608271Y0073000D01*
X0607649Y0072533D02*
X0608893Y0072533D01*
X0608271Y0070220D02*
X0606093Y0070220D01*
X0608271Y0070220D02*
X0608320Y0070218D01*
X0608368Y0070212D01*
X0608416Y0070203D01*
X0608463Y0070190D01*
X0608509Y0070173D01*
X0608553Y0070152D01*
X0608596Y0070128D01*
X0608637Y0070101D01*
X0608675Y0070071D01*
X0608711Y0070038D01*
X0608744Y0070002D01*
X0608774Y0069964D01*
X0608801Y0069923D01*
X0608825Y0069880D01*
X0608846Y0069836D01*
X0608863Y0069790D01*
X0608876Y0069743D01*
X0608885Y0069695D01*
X0608891Y0069647D01*
X0608893Y0069598D01*
X0608893Y0069287D01*
X0758093Y0047500D02*
X0758093Y0046256D01*
X0760893Y0046256D01*
X0760893Y0047500D01*
X0759338Y0047189D02*
X0759338Y0046256D01*
X0759338Y0044926D02*
X0760893Y0044926D01*
X0760893Y0043993D01*
X0760891Y0043944D01*
X0760885Y0043896D01*
X0760876Y0043848D01*
X0760863Y0043801D01*
X0760846Y0043755D01*
X0760825Y0043711D01*
X0760801Y0043668D01*
X0760774Y0043627D01*
X0760744Y0043589D01*
X0760711Y0043553D01*
X0760675Y0043520D01*
X0760637Y0043490D01*
X0760596Y0043463D01*
X0760553Y0043439D01*
X0760509Y0043418D01*
X0760463Y0043401D01*
X0760416Y0043388D01*
X0760368Y0043379D01*
X0760320Y0043373D01*
X0760271Y0043371D01*
X0758716Y0043371D01*
X0758667Y0043373D01*
X0758619Y0043379D01*
X0758571Y0043388D01*
X0758524Y0043401D01*
X0758478Y0043418D01*
X0758434Y0043439D01*
X0758391Y0043463D01*
X0758350Y0043490D01*
X0758312Y0043520D01*
X0758276Y0043553D01*
X0758243Y0043589D01*
X0758213Y0043627D01*
X0758186Y0043668D01*
X0758162Y0043711D01*
X0758141Y0043755D01*
X0758124Y0043801D01*
X0758111Y0043848D01*
X0758102Y0043896D01*
X0758096Y0043944D01*
X0758094Y0043993D01*
X0758093Y0043993D02*
X0758093Y0044926D01*
X0759338Y0044926D02*
X0759338Y0044460D01*
X0758871Y0042046D02*
X0760116Y0042046D01*
X0760169Y0042044D01*
X0760222Y0042039D01*
X0760274Y0042030D01*
X0760326Y0042017D01*
X0760377Y0042001D01*
X0760426Y0041982D01*
X0760474Y0041959D01*
X0760520Y0041933D01*
X0760565Y0041904D01*
X0760607Y0041872D01*
X0760647Y0041837D01*
X0760685Y0041799D01*
X0760720Y0041759D01*
X0760752Y0041717D01*
X0760781Y0041672D01*
X0760807Y0041626D01*
X0760830Y0041578D01*
X0760849Y0041529D01*
X0760865Y0041478D01*
X0760878Y0041426D01*
X0760887Y0041374D01*
X0760892Y0041321D01*
X0760894Y0041268D01*
X0760893Y0041268D02*
X0760893Y0040491D01*
X0758093Y0040491D01*
X0758093Y0041268D01*
X0758095Y0041324D01*
X0758101Y0041379D01*
X0758111Y0041433D01*
X0758125Y0041487D01*
X0758142Y0041540D01*
X0758163Y0041591D01*
X0758188Y0041641D01*
X0758217Y0041689D01*
X0758248Y0041734D01*
X0758283Y0041777D01*
X0758321Y0041818D01*
X0758362Y0041856D01*
X0758405Y0041891D01*
X0758450Y0041922D01*
X0758498Y0041951D01*
X0758548Y0041976D01*
X0758599Y0041997D01*
X0758652Y0042014D01*
X0758706Y0042028D01*
X0758760Y0042038D01*
X0758815Y0042044D01*
X0758871Y0042046D01*
X0758093Y0039400D02*
X0758093Y0038156D01*
X0760893Y0038156D01*
X0760893Y0039400D01*
X0759338Y0039089D02*
X0759338Y0038156D01*
X0361439Y0015200D02*
X0359883Y0015200D01*
X0361206Y0016756D01*
X0360739Y0018000D02*
X0360683Y0017998D01*
X0360626Y0017993D01*
X0360570Y0017984D01*
X0360515Y0017972D01*
X0360461Y0017956D01*
X0360408Y0017937D01*
X0360356Y0017914D01*
X0360306Y0017889D01*
X0360257Y0017860D01*
X0360210Y0017828D01*
X0360166Y0017793D01*
X0360123Y0017756D01*
X0360083Y0017716D01*
X0360046Y0017674D01*
X0360011Y0017629D01*
X0359980Y0017582D01*
X0359951Y0017533D01*
X0359925Y0017483D01*
X0359903Y0017431D01*
X0359884Y0017378D01*
X0361206Y0016755D02*
X0361241Y0016792D01*
X0361274Y0016830D01*
X0361305Y0016871D01*
X0361332Y0016913D01*
X0361357Y0016958D01*
X0361378Y0017004D01*
X0361397Y0017051D01*
X0361412Y0017099D01*
X0361424Y0017149D01*
X0361432Y0017199D01*
X0361437Y0017249D01*
X0361439Y0017300D01*
X0361437Y0017350D01*
X0361432Y0017400D01*
X0361423Y0017449D01*
X0361411Y0017497D01*
X0361395Y0017545D01*
X0361376Y0017591D01*
X0361353Y0017635D01*
X0361328Y0017678D01*
X0361299Y0017719D01*
X0361268Y0017758D01*
X0361234Y0017795D01*
X0361197Y0017829D01*
X0361158Y0017860D01*
X0361117Y0017889D01*
X0361074Y0017914D01*
X0361030Y0017937D01*
X0360984Y0017956D01*
X0360936Y0017972D01*
X0360888Y0017984D01*
X0360839Y0017993D01*
X0360789Y0017998D01*
X0360739Y0018000D01*
X0358649Y0018000D02*
X0358649Y0015978D01*
X0358647Y0015922D01*
X0358641Y0015867D01*
X0358631Y0015813D01*
X0358617Y0015759D01*
X0358600Y0015706D01*
X0358579Y0015655D01*
X0358554Y0015605D01*
X0358525Y0015557D01*
X0358494Y0015512D01*
X0358459Y0015469D01*
X0358421Y0015428D01*
X0358380Y0015390D01*
X0358337Y0015355D01*
X0358292Y0015324D01*
X0358244Y0015295D01*
X0358194Y0015270D01*
X0358143Y0015249D01*
X0358090Y0015232D01*
X0358036Y0015218D01*
X0357982Y0015208D01*
X0357927Y0015202D01*
X0357871Y0015200D01*
X0357815Y0015202D01*
X0357760Y0015208D01*
X0357706Y0015218D01*
X0357652Y0015232D01*
X0357599Y0015249D01*
X0357548Y0015270D01*
X0357498Y0015295D01*
X0357450Y0015324D01*
X0357405Y0015355D01*
X0357362Y0015390D01*
X0357321Y0015428D01*
X0357283Y0015469D01*
X0357248Y0015512D01*
X0357217Y0015557D01*
X0357188Y0015605D01*
X0357163Y0015655D01*
X0357142Y0015706D01*
X0357125Y0015759D01*
X0357111Y0015813D01*
X0357101Y0015867D01*
X0357095Y0015922D01*
X0357093Y0015978D01*
X0357093Y0018000D01*
X0294121Y0010500D02*
X0293498Y0010500D01*
X0293449Y0010498D01*
X0293401Y0010492D01*
X0293353Y0010483D01*
X0293306Y0010470D01*
X0293260Y0010453D01*
X0293216Y0010432D01*
X0293173Y0010408D01*
X0293132Y0010381D01*
X0293094Y0010351D01*
X0293058Y0010318D01*
X0293025Y0010282D01*
X0292995Y0010244D01*
X0292968Y0010203D01*
X0292944Y0010160D01*
X0292923Y0010116D01*
X0292906Y0010070D01*
X0292893Y0010023D01*
X0292884Y0009975D01*
X0292878Y0009927D01*
X0292876Y0009878D01*
X0292876Y0008322D01*
X0292878Y0008273D01*
X0292884Y0008225D01*
X0292893Y0008177D01*
X0292906Y0008130D01*
X0292923Y0008084D01*
X0292944Y0008040D01*
X0292968Y0007997D01*
X0292995Y0007956D01*
X0293025Y0007918D01*
X0293058Y0007882D01*
X0293094Y0007849D01*
X0293132Y0007819D01*
X0293173Y0007792D01*
X0293216Y0007768D01*
X0293260Y0007747D01*
X0293306Y0007730D01*
X0293353Y0007717D01*
X0293401Y0007708D01*
X0293449Y0007702D01*
X0293498Y0007700D01*
X0294121Y0007700D01*
X0291649Y0007700D02*
X0291649Y0010500D01*
X0290093Y0010500D02*
X0291649Y0007700D01*
X0290093Y0007700D02*
X0290093Y0010500D01*
X0222893Y0015200D02*
X0222893Y0015511D01*
X0222891Y0015560D01*
X0222885Y0015608D01*
X0222876Y0015656D01*
X0222863Y0015703D01*
X0222846Y0015749D01*
X0222825Y0015793D01*
X0222801Y0015836D01*
X0222774Y0015877D01*
X0222744Y0015915D01*
X0222711Y0015951D01*
X0222675Y0015984D01*
X0222637Y0016014D01*
X0222596Y0016041D01*
X0222553Y0016065D01*
X0222509Y0016086D01*
X0222463Y0016103D01*
X0222416Y0016116D01*
X0222368Y0016125D01*
X0222320Y0016131D01*
X0222271Y0016133D01*
X0220093Y0016133D01*
X0221338Y0018680D02*
X0222893Y0017358D01*
X0222893Y0018913D01*
X0220716Y0017358D02*
X0220663Y0017377D01*
X0220611Y0017399D01*
X0220561Y0017425D01*
X0220512Y0017454D01*
X0220465Y0017485D01*
X0220420Y0017520D01*
X0220378Y0017557D01*
X0220338Y0017597D01*
X0220301Y0017640D01*
X0220266Y0017684D01*
X0220234Y0017731D01*
X0220205Y0017780D01*
X0220180Y0017830D01*
X0220157Y0017882D01*
X0220138Y0017935D01*
X0220122Y0017989D01*
X0220110Y0018044D01*
X0220101Y0018100D01*
X0220096Y0018157D01*
X0220094Y0018213D01*
X0220093Y0018213D02*
X0220095Y0018263D01*
X0220100Y0018313D01*
X0220109Y0018362D01*
X0220121Y0018410D01*
X0220137Y0018458D01*
X0220156Y0018504D01*
X0220179Y0018548D01*
X0220204Y0018591D01*
X0220233Y0018632D01*
X0220264Y0018671D01*
X0220298Y0018708D01*
X0220335Y0018742D01*
X0220374Y0018773D01*
X0220415Y0018802D01*
X0220458Y0018827D01*
X0220502Y0018850D01*
X0220548Y0018869D01*
X0220596Y0018885D01*
X0220644Y0018897D01*
X0220693Y0018906D01*
X0220743Y0018911D01*
X0220793Y0018913D01*
X0220844Y0018911D01*
X0220894Y0018906D01*
X0220944Y0018898D01*
X0220994Y0018886D01*
X0221042Y0018871D01*
X0221089Y0018852D01*
X0221135Y0018831D01*
X0221180Y0018806D01*
X0221222Y0018779D01*
X0221263Y0018748D01*
X0221301Y0018715D01*
X0221338Y0018680D01*
X0070893Y0040700D02*
X0068093Y0040700D01*
X0068093Y0041944D01*
X0068093Y0043035D02*
X0068093Y0043813D01*
X0068093Y0043035D02*
X0070893Y0043035D01*
X0070893Y0043813D01*
X0070894Y0043813D02*
X0070892Y0043866D01*
X0070887Y0043919D01*
X0070878Y0043971D01*
X0070865Y0044023D01*
X0070849Y0044074D01*
X0070830Y0044123D01*
X0070807Y0044171D01*
X0070781Y0044217D01*
X0070752Y0044262D01*
X0070720Y0044304D01*
X0070685Y0044344D01*
X0070647Y0044382D01*
X0070607Y0044417D01*
X0070565Y0044449D01*
X0070520Y0044478D01*
X0070474Y0044504D01*
X0070426Y0044527D01*
X0070377Y0044546D01*
X0070326Y0044562D01*
X0070274Y0044575D01*
X0070222Y0044584D01*
X0070169Y0044589D01*
X0070116Y0044591D01*
X0068871Y0044591D01*
X0068815Y0044589D01*
X0068760Y0044583D01*
X0068706Y0044573D01*
X0068652Y0044559D01*
X0068599Y0044542D01*
X0068548Y0044521D01*
X0068498Y0044496D01*
X0068450Y0044467D01*
X0068405Y0044436D01*
X0068362Y0044401D01*
X0068321Y0044363D01*
X0068283Y0044322D01*
X0068248Y0044279D01*
X0068217Y0044234D01*
X0068188Y0044186D01*
X0068163Y0044136D01*
X0068142Y0044085D01*
X0068125Y0044032D01*
X0068111Y0043978D01*
X0068101Y0043924D01*
X0068095Y0043869D01*
X0068093Y0043813D01*
X0069338Y0041633D02*
X0069338Y0040700D01*
X0070893Y0040700D02*
X0070893Y0041944D01*
X0070271Y0045915D02*
X0068716Y0045915D01*
X0068667Y0045917D01*
X0068619Y0045923D01*
X0068571Y0045932D01*
X0068524Y0045945D01*
X0068478Y0045962D01*
X0068434Y0045983D01*
X0068391Y0046007D01*
X0068350Y0046034D01*
X0068312Y0046064D01*
X0068276Y0046097D01*
X0068243Y0046133D01*
X0068213Y0046171D01*
X0068186Y0046212D01*
X0068162Y0046255D01*
X0068141Y0046299D01*
X0068124Y0046345D01*
X0068111Y0046392D01*
X0068102Y0046440D01*
X0068096Y0046488D01*
X0068094Y0046537D01*
X0068093Y0046537D02*
X0068093Y0047471D01*
X0069338Y0047471D02*
X0070893Y0047471D01*
X0070893Y0046537D01*
X0070891Y0046488D01*
X0070885Y0046440D01*
X0070876Y0046392D01*
X0070863Y0046345D01*
X0070846Y0046299D01*
X0070825Y0046255D01*
X0070801Y0046212D01*
X0070774Y0046171D01*
X0070744Y0046133D01*
X0070711Y0046097D01*
X0070675Y0046064D01*
X0070637Y0046034D01*
X0070596Y0046007D01*
X0070553Y0045983D01*
X0070509Y0045962D01*
X0070463Y0045945D01*
X0070416Y0045932D01*
X0070368Y0045923D01*
X0070320Y0045917D01*
X0070271Y0045915D01*
X0069338Y0047004D02*
X0069338Y0047471D01*
X0069338Y0048800D02*
X0069338Y0049733D01*
X0068093Y0050044D02*
X0068093Y0048800D01*
X0070893Y0048800D01*
X0070893Y0050044D01*
X0291093Y0077700D02*
X0291093Y0080500D01*
X0292649Y0077700D01*
X0292649Y0080500D01*
X0293876Y0079878D02*
X0293876Y0078322D01*
X0293878Y0078273D01*
X0293884Y0078225D01*
X0293893Y0078177D01*
X0293906Y0078130D01*
X0293923Y0078084D01*
X0293944Y0078040D01*
X0293968Y0077997D01*
X0293995Y0077956D01*
X0294025Y0077918D01*
X0294058Y0077882D01*
X0294094Y0077849D01*
X0294132Y0077819D01*
X0294173Y0077792D01*
X0294216Y0077768D01*
X0294260Y0077747D01*
X0294306Y0077730D01*
X0294353Y0077717D01*
X0294401Y0077708D01*
X0294449Y0077702D01*
X0294498Y0077700D01*
X0295121Y0077700D01*
X0293876Y0079878D02*
X0293878Y0079927D01*
X0293884Y0079975D01*
X0293893Y0080023D01*
X0293906Y0080070D01*
X0293923Y0080116D01*
X0293944Y0080160D01*
X0293968Y0080203D01*
X0293995Y0080244D01*
X0294025Y0080282D01*
X0294058Y0080318D01*
X0294094Y0080351D01*
X0294132Y0080381D01*
X0294173Y0080408D01*
X0294216Y0080432D01*
X0294260Y0080453D01*
X0294306Y0080470D01*
X0294353Y0080483D01*
X0294401Y0080492D01*
X0294449Y0080498D01*
X0294498Y0080500D01*
X0295121Y0080500D01*
D13*
X0412193Y0079483D02*
X0413216Y0078205D01*
X0413727Y0076455D02*
X0416793Y0075433D01*
X0413727Y0074411D01*
X0414749Y0070305D02*
X0415260Y0070305D01*
X0415260Y0068261D01*
X0414749Y0068261D02*
X0416027Y0068261D01*
X0416082Y0068263D01*
X0416136Y0068269D01*
X0416190Y0068279D01*
X0416243Y0068292D01*
X0416295Y0068309D01*
X0416346Y0068330D01*
X0416395Y0068355D01*
X0416442Y0068383D01*
X0416487Y0068414D01*
X0416529Y0068448D01*
X0416569Y0068486D01*
X0416607Y0068526D01*
X0416641Y0068568D01*
X0416672Y0068613D01*
X0416700Y0068660D01*
X0416725Y0068709D01*
X0416746Y0068760D01*
X0416763Y0068812D01*
X0416776Y0068865D01*
X0416786Y0068919D01*
X0416792Y0068973D01*
X0416794Y0069028D01*
X0416793Y0069028D02*
X0416793Y0070305D01*
X0414749Y0070305D02*
X0414686Y0070303D01*
X0414623Y0070297D01*
X0414561Y0070288D01*
X0414500Y0070274D01*
X0414439Y0070257D01*
X0414380Y0070236D01*
X0414322Y0070211D01*
X0414265Y0070183D01*
X0414211Y0070152D01*
X0414159Y0070117D01*
X0414108Y0070079D01*
X0414060Y0070038D01*
X0414015Y0069994D01*
X0413973Y0069948D01*
X0413933Y0069899D01*
X0413897Y0069848D01*
X0413864Y0069794D01*
X0413834Y0069739D01*
X0413808Y0069681D01*
X0413785Y0069623D01*
X0413766Y0069563D01*
X0413751Y0069502D01*
X0413739Y0069440D01*
X0413731Y0069377D01*
X0413727Y0069314D01*
X0413727Y0069252D01*
X0413731Y0069189D01*
X0413739Y0069126D01*
X0413751Y0069064D01*
X0413766Y0069003D01*
X0413785Y0068943D01*
X0413808Y0068885D01*
X0413834Y0068827D01*
X0413864Y0068772D01*
X0413897Y0068718D01*
X0413933Y0068667D01*
X0413973Y0068618D01*
X0414015Y0068572D01*
X0414060Y0068528D01*
X0414108Y0068487D01*
X0414159Y0068449D01*
X0414211Y0068414D01*
X0414265Y0068383D01*
X0414322Y0068355D01*
X0414380Y0068330D01*
X0414439Y0068309D01*
X0414500Y0068292D01*
X0414561Y0068278D01*
X0414623Y0068269D01*
X0414686Y0068263D01*
X0414749Y0068261D01*
X0416794Y0066687D02*
X0416792Y0066632D01*
X0416786Y0066578D01*
X0416776Y0066524D01*
X0416763Y0066471D01*
X0416746Y0066419D01*
X0416725Y0066368D01*
X0416700Y0066319D01*
X0416672Y0066272D01*
X0416641Y0066227D01*
X0416607Y0066185D01*
X0416569Y0066145D01*
X0416529Y0066107D01*
X0416487Y0066073D01*
X0416442Y0066042D01*
X0416395Y0066014D01*
X0416346Y0065989D01*
X0416295Y0065968D01*
X0416243Y0065951D01*
X0416190Y0065938D01*
X0416136Y0065928D01*
X0416082Y0065922D01*
X0416027Y0065920D01*
X0412193Y0065920D01*
X0414493Y0064029D02*
X0416027Y0064029D01*
X0416082Y0064027D01*
X0416136Y0064021D01*
X0416190Y0064011D01*
X0416243Y0063998D01*
X0416295Y0063981D01*
X0416346Y0063960D01*
X0416395Y0063935D01*
X0416442Y0063907D01*
X0416487Y0063876D01*
X0416529Y0063842D01*
X0416569Y0063804D01*
X0416607Y0063764D01*
X0416641Y0063722D01*
X0416672Y0063677D01*
X0416700Y0063630D01*
X0416725Y0063581D01*
X0416746Y0063530D01*
X0416763Y0063478D01*
X0416776Y0063425D01*
X0416786Y0063371D01*
X0416792Y0063317D01*
X0416794Y0063262D01*
X0416793Y0063262D02*
X0416793Y0061984D01*
X0412193Y0061984D01*
X0413727Y0061984D02*
X0413727Y0063262D01*
X0413726Y0063262D02*
X0413728Y0063317D01*
X0413734Y0063371D01*
X0413744Y0063425D01*
X0413757Y0063478D01*
X0413774Y0063530D01*
X0413795Y0063581D01*
X0413820Y0063630D01*
X0413848Y0063677D01*
X0413879Y0063722D01*
X0413913Y0063764D01*
X0413951Y0063804D01*
X0413991Y0063842D01*
X0414033Y0063876D01*
X0414078Y0063907D01*
X0414125Y0063935D01*
X0414174Y0063960D01*
X0414225Y0063981D01*
X0414277Y0063998D01*
X0414330Y0064011D01*
X0414384Y0064021D01*
X0414438Y0064027D01*
X0414493Y0064029D01*
X0413727Y0059805D02*
X0416793Y0059805D01*
X0416793Y0058528D01*
X0416794Y0058528D02*
X0416792Y0058473D01*
X0416786Y0058419D01*
X0416776Y0058365D01*
X0416763Y0058312D01*
X0416746Y0058260D01*
X0416725Y0058209D01*
X0416700Y0058160D01*
X0416672Y0058113D01*
X0416641Y0058068D01*
X0416607Y0058026D01*
X0416569Y0057986D01*
X0416529Y0057948D01*
X0416487Y0057914D01*
X0416442Y0057883D01*
X0416395Y0057855D01*
X0416346Y0057830D01*
X0416295Y0057809D01*
X0416243Y0057792D01*
X0416190Y0057779D01*
X0416136Y0057769D01*
X0416082Y0057763D01*
X0416027Y0057761D01*
X0413727Y0057761D01*
X0414749Y0055755D02*
X0415771Y0055755D01*
X0415834Y0055753D01*
X0415897Y0055747D01*
X0415959Y0055738D01*
X0416020Y0055724D01*
X0416081Y0055707D01*
X0416140Y0055686D01*
X0416198Y0055661D01*
X0416255Y0055633D01*
X0416309Y0055602D01*
X0416361Y0055567D01*
X0416412Y0055529D01*
X0416460Y0055488D01*
X0416505Y0055444D01*
X0416547Y0055398D01*
X0416587Y0055349D01*
X0416623Y0055298D01*
X0416656Y0055244D01*
X0416686Y0055189D01*
X0416712Y0055131D01*
X0416735Y0055073D01*
X0416754Y0055013D01*
X0416769Y0054952D01*
X0416781Y0054890D01*
X0416789Y0054827D01*
X0416793Y0054764D01*
X0416793Y0054702D01*
X0416789Y0054639D01*
X0416781Y0054576D01*
X0416769Y0054514D01*
X0416754Y0054453D01*
X0416735Y0054393D01*
X0416712Y0054335D01*
X0416686Y0054277D01*
X0416656Y0054222D01*
X0416623Y0054168D01*
X0416587Y0054117D01*
X0416547Y0054068D01*
X0416505Y0054022D01*
X0416460Y0053978D01*
X0416412Y0053937D01*
X0416361Y0053899D01*
X0416309Y0053864D01*
X0416255Y0053833D01*
X0416198Y0053805D01*
X0416140Y0053780D01*
X0416081Y0053759D01*
X0416020Y0053742D01*
X0415959Y0053728D01*
X0415897Y0053719D01*
X0415834Y0053713D01*
X0415771Y0053711D01*
X0414749Y0053711D01*
X0414686Y0053713D01*
X0414623Y0053719D01*
X0414561Y0053728D01*
X0414500Y0053742D01*
X0414439Y0053759D01*
X0414380Y0053780D01*
X0414322Y0053805D01*
X0414265Y0053833D01*
X0414211Y0053864D01*
X0414159Y0053899D01*
X0414108Y0053937D01*
X0414060Y0053978D01*
X0414015Y0054022D01*
X0413973Y0054068D01*
X0413933Y0054117D01*
X0413897Y0054168D01*
X0413864Y0054222D01*
X0413834Y0054277D01*
X0413808Y0054335D01*
X0413785Y0054393D01*
X0413766Y0054453D01*
X0413751Y0054514D01*
X0413739Y0054576D01*
X0413731Y0054639D01*
X0413727Y0054702D01*
X0413727Y0054764D01*
X0413731Y0054827D01*
X0413739Y0054890D01*
X0413751Y0054952D01*
X0413766Y0055013D01*
X0413785Y0055073D01*
X0413808Y0055131D01*
X0413834Y0055189D01*
X0413864Y0055244D01*
X0413897Y0055298D01*
X0413933Y0055349D01*
X0413973Y0055398D01*
X0414015Y0055444D01*
X0414060Y0055488D01*
X0414108Y0055529D01*
X0414159Y0055567D01*
X0414211Y0055602D01*
X0414265Y0055633D01*
X0414322Y0055661D01*
X0414380Y0055686D01*
X0414439Y0055707D01*
X0414500Y0055724D01*
X0414561Y0055738D01*
X0414623Y0055747D01*
X0414686Y0055753D01*
X0414749Y0055755D01*
X0415516Y0051661D02*
X0413471Y0051661D01*
X0413402Y0051659D01*
X0413333Y0051654D01*
X0413264Y0051644D01*
X0413196Y0051631D01*
X0413129Y0051614D01*
X0413063Y0051594D01*
X0412998Y0051570D01*
X0412934Y0051543D01*
X0412872Y0051512D01*
X0412812Y0051478D01*
X0412754Y0051441D01*
X0412698Y0051400D01*
X0412644Y0051357D01*
X0412592Y0051311D01*
X0412543Y0051262D01*
X0412497Y0051210D01*
X0412454Y0051156D01*
X0412413Y0051100D01*
X0412376Y0051042D01*
X0412342Y0050982D01*
X0412311Y0050920D01*
X0412284Y0050856D01*
X0412260Y0050791D01*
X0412240Y0050725D01*
X0412223Y0050658D01*
X0412210Y0050590D01*
X0412200Y0050521D01*
X0412195Y0050452D01*
X0412193Y0050383D01*
X0412193Y0049105D01*
X0416793Y0049105D01*
X0416793Y0050383D01*
X0416794Y0050383D02*
X0416792Y0050452D01*
X0416787Y0050521D01*
X0416777Y0050590D01*
X0416764Y0050658D01*
X0416747Y0050725D01*
X0416727Y0050791D01*
X0416703Y0050856D01*
X0416676Y0050920D01*
X0416645Y0050982D01*
X0416611Y0051042D01*
X0416574Y0051100D01*
X0416533Y0051156D01*
X0416490Y0051210D01*
X0416444Y0051262D01*
X0416395Y0051311D01*
X0416343Y0051357D01*
X0416289Y0051400D01*
X0416233Y0051441D01*
X0416175Y0051478D01*
X0416115Y0051512D01*
X0416053Y0051543D01*
X0415989Y0051570D01*
X0415924Y0051594D01*
X0415858Y0051614D01*
X0415791Y0051631D01*
X0415723Y0051644D01*
X0415654Y0051654D01*
X0415585Y0051659D01*
X0415516Y0051661D01*
X0416793Y0044814D02*
X0416793Y0044558D01*
X0416794Y0044558D02*
X0416792Y0044503D01*
X0416786Y0044449D01*
X0416776Y0044395D01*
X0416763Y0044342D01*
X0416746Y0044290D01*
X0416725Y0044239D01*
X0416700Y0044190D01*
X0416672Y0044143D01*
X0416641Y0044098D01*
X0416607Y0044056D01*
X0416569Y0044016D01*
X0416529Y0043978D01*
X0416487Y0043944D01*
X0416442Y0043913D01*
X0416395Y0043885D01*
X0416346Y0043860D01*
X0416295Y0043839D01*
X0416243Y0043822D01*
X0416190Y0043809D01*
X0416136Y0043799D01*
X0416082Y0043793D01*
X0416027Y0043791D01*
X0412193Y0043791D01*
X0413727Y0043280D02*
X0413727Y0044814D01*
X0413727Y0042221D02*
X0414238Y0042221D01*
X0413727Y0042221D02*
X0413727Y0040687D01*
X0416793Y0040687D01*
X0415771Y0038655D02*
X0414749Y0038655D01*
X0414686Y0038653D01*
X0414623Y0038647D01*
X0414561Y0038638D01*
X0414500Y0038624D01*
X0414439Y0038607D01*
X0414380Y0038586D01*
X0414322Y0038561D01*
X0414265Y0038533D01*
X0414211Y0038502D01*
X0414159Y0038467D01*
X0414108Y0038429D01*
X0414060Y0038388D01*
X0414015Y0038344D01*
X0413973Y0038298D01*
X0413933Y0038249D01*
X0413897Y0038198D01*
X0413864Y0038144D01*
X0413834Y0038089D01*
X0413808Y0038031D01*
X0413785Y0037973D01*
X0413766Y0037913D01*
X0413751Y0037852D01*
X0413739Y0037790D01*
X0413731Y0037727D01*
X0413727Y0037664D01*
X0413727Y0037602D01*
X0413731Y0037539D01*
X0413739Y0037476D01*
X0413751Y0037414D01*
X0413766Y0037353D01*
X0413785Y0037293D01*
X0413808Y0037235D01*
X0413834Y0037177D01*
X0413864Y0037122D01*
X0413897Y0037068D01*
X0413933Y0037017D01*
X0413973Y0036968D01*
X0414015Y0036922D01*
X0414060Y0036878D01*
X0414108Y0036837D01*
X0414159Y0036799D01*
X0414211Y0036764D01*
X0414265Y0036733D01*
X0414322Y0036705D01*
X0414380Y0036680D01*
X0414439Y0036659D01*
X0414500Y0036642D01*
X0414561Y0036628D01*
X0414623Y0036619D01*
X0414686Y0036613D01*
X0414749Y0036611D01*
X0415771Y0036611D01*
X0415834Y0036613D01*
X0415897Y0036619D01*
X0415959Y0036628D01*
X0416020Y0036642D01*
X0416081Y0036659D01*
X0416140Y0036680D01*
X0416198Y0036705D01*
X0416255Y0036733D01*
X0416309Y0036764D01*
X0416361Y0036799D01*
X0416412Y0036837D01*
X0416460Y0036878D01*
X0416505Y0036922D01*
X0416547Y0036968D01*
X0416587Y0037017D01*
X0416623Y0037068D01*
X0416656Y0037122D01*
X0416686Y0037177D01*
X0416712Y0037235D01*
X0416735Y0037293D01*
X0416754Y0037353D01*
X0416769Y0037414D01*
X0416781Y0037476D01*
X0416789Y0037539D01*
X0416793Y0037602D01*
X0416793Y0037664D01*
X0416789Y0037727D01*
X0416781Y0037790D01*
X0416769Y0037852D01*
X0416754Y0037913D01*
X0416735Y0037973D01*
X0416712Y0038031D01*
X0416686Y0038089D01*
X0416656Y0038144D01*
X0416623Y0038198D01*
X0416587Y0038249D01*
X0416547Y0038298D01*
X0416505Y0038344D01*
X0416460Y0038388D01*
X0416412Y0038429D01*
X0416361Y0038467D01*
X0416309Y0038502D01*
X0416255Y0038533D01*
X0416198Y0038561D01*
X0416140Y0038586D01*
X0416081Y0038607D01*
X0416020Y0038624D01*
X0415959Y0038638D01*
X0415897Y0038647D01*
X0415834Y0038653D01*
X0415771Y0038655D01*
X0414749Y0033650D02*
X0414749Y0032372D01*
X0416793Y0032372D02*
X0412193Y0032372D01*
X0412193Y0033650D01*
X0412195Y0033720D01*
X0412201Y0033791D01*
X0412210Y0033860D01*
X0412224Y0033929D01*
X0412241Y0033998D01*
X0412262Y0034065D01*
X0412287Y0034131D01*
X0412315Y0034195D01*
X0412347Y0034258D01*
X0412382Y0034319D01*
X0412421Y0034378D01*
X0412462Y0034435D01*
X0412507Y0034489D01*
X0412555Y0034541D01*
X0412605Y0034590D01*
X0412659Y0034637D01*
X0412714Y0034680D01*
X0412772Y0034720D01*
X0412832Y0034757D01*
X0412894Y0034790D01*
X0412958Y0034820D01*
X0413023Y0034847D01*
X0413089Y0034870D01*
X0413157Y0034889D01*
X0413226Y0034904D01*
X0413295Y0034916D01*
X0413365Y0034924D01*
X0413436Y0034928D01*
X0413506Y0034928D01*
X0413577Y0034924D01*
X0413647Y0034916D01*
X0413716Y0034904D01*
X0413785Y0034889D01*
X0413853Y0034870D01*
X0413919Y0034847D01*
X0413984Y0034820D01*
X0414048Y0034790D01*
X0414110Y0034757D01*
X0414170Y0034720D01*
X0414228Y0034680D01*
X0414283Y0034637D01*
X0414337Y0034590D01*
X0414387Y0034541D01*
X0414435Y0034489D01*
X0414480Y0034435D01*
X0414521Y0034378D01*
X0414560Y0034319D01*
X0414595Y0034258D01*
X0414627Y0034195D01*
X0414655Y0034131D01*
X0414680Y0034065D01*
X0414701Y0033998D01*
X0414718Y0033929D01*
X0414732Y0033860D01*
X0414741Y0033791D01*
X0414747Y0033720D01*
X0414749Y0033650D01*
X0415516Y0027472D02*
X0415005Y0026194D01*
X0414984Y0026147D01*
X0414959Y0026102D01*
X0414932Y0026059D01*
X0414901Y0026019D01*
X0414867Y0025980D01*
X0414830Y0025945D01*
X0414791Y0025912D01*
X0414749Y0025883D01*
X0414705Y0025857D01*
X0414659Y0025834D01*
X0414612Y0025815D01*
X0414563Y0025800D01*
X0414513Y0025789D01*
X0414462Y0025781D01*
X0414411Y0025777D01*
X0414360Y0025778D01*
X0414309Y0025782D01*
X0414259Y0025790D01*
X0414209Y0025802D01*
X0414161Y0025818D01*
X0414113Y0025837D01*
X0414068Y0025860D01*
X0414024Y0025886D01*
X0413983Y0025916D01*
X0413943Y0025949D01*
X0413907Y0025985D01*
X0413873Y0026023D01*
X0413843Y0026064D01*
X0413815Y0026107D01*
X0413792Y0026153D01*
X0413771Y0026200D01*
X0413754Y0026248D01*
X0413742Y0026297D01*
X0413732Y0026348D01*
X0413727Y0026398D01*
X0413726Y0026449D01*
X0416538Y0025812D02*
X0416580Y0025935D01*
X0416619Y0026060D01*
X0416654Y0026185D01*
X0416685Y0026312D01*
X0416712Y0026440D01*
X0416735Y0026568D01*
X0416755Y0026697D01*
X0416770Y0026827D01*
X0416782Y0026956D01*
X0416790Y0027087D01*
X0416794Y0027217D01*
X0416793Y0027268D01*
X0416788Y0027318D01*
X0416778Y0027369D01*
X0416766Y0027418D01*
X0416749Y0027466D01*
X0416728Y0027513D01*
X0416705Y0027559D01*
X0416677Y0027602D01*
X0416647Y0027643D01*
X0416613Y0027681D01*
X0416577Y0027717D01*
X0416537Y0027750D01*
X0416496Y0027780D01*
X0416452Y0027806D01*
X0416407Y0027829D01*
X0416359Y0027848D01*
X0416311Y0027864D01*
X0416261Y0027876D01*
X0416211Y0027884D01*
X0416160Y0027888D01*
X0416109Y0027889D01*
X0416058Y0027885D01*
X0416007Y0027877D01*
X0415957Y0027866D01*
X0415908Y0027851D01*
X0415861Y0027832D01*
X0415815Y0027809D01*
X0415771Y0027783D01*
X0415729Y0027754D01*
X0415690Y0027721D01*
X0415653Y0027686D01*
X0415619Y0027647D01*
X0415588Y0027607D01*
X0415561Y0027564D01*
X0415536Y0027519D01*
X0415515Y0027472D01*
X0413983Y0027600D02*
X0413944Y0027510D01*
X0413908Y0027417D01*
X0413875Y0027324D01*
X0413846Y0027230D01*
X0413819Y0027135D01*
X0413796Y0027039D01*
X0413776Y0026942D01*
X0413760Y0026844D01*
X0413747Y0026746D01*
X0413737Y0026648D01*
X0413730Y0026549D01*
X0413727Y0026450D01*
X0414493Y0023782D02*
X0416793Y0023782D01*
X0416793Y0022632D01*
X0416791Y0022574D01*
X0416785Y0022515D01*
X0416776Y0022458D01*
X0416763Y0022401D01*
X0416746Y0022345D01*
X0416725Y0022290D01*
X0416701Y0022237D01*
X0416673Y0022185D01*
X0416642Y0022135D01*
X0416608Y0022088D01*
X0416571Y0022043D01*
X0416531Y0022000D01*
X0416488Y0021960D01*
X0416443Y0021923D01*
X0416396Y0021889D01*
X0416346Y0021858D01*
X0416294Y0021830D01*
X0416241Y0021806D01*
X0416186Y0021785D01*
X0416130Y0021768D01*
X0416073Y0021755D01*
X0416016Y0021746D01*
X0415957Y0021740D01*
X0415899Y0021738D01*
X0415841Y0021740D01*
X0415782Y0021746D01*
X0415725Y0021755D01*
X0415668Y0021768D01*
X0415612Y0021785D01*
X0415557Y0021806D01*
X0415504Y0021830D01*
X0415452Y0021858D01*
X0415402Y0021889D01*
X0415355Y0021923D01*
X0415310Y0021960D01*
X0415267Y0022000D01*
X0415227Y0022043D01*
X0415190Y0022088D01*
X0415156Y0022135D01*
X0415125Y0022185D01*
X0415097Y0022237D01*
X0415073Y0022290D01*
X0415052Y0022345D01*
X0415035Y0022401D01*
X0415022Y0022458D01*
X0415013Y0022515D01*
X0415007Y0022574D01*
X0415005Y0022632D01*
X0415005Y0023782D01*
X0414493Y0023783D02*
X0414438Y0023781D01*
X0414384Y0023775D01*
X0414330Y0023765D01*
X0414277Y0023752D01*
X0414225Y0023735D01*
X0414174Y0023714D01*
X0414125Y0023689D01*
X0414078Y0023661D01*
X0414033Y0023630D01*
X0413991Y0023596D01*
X0413951Y0023558D01*
X0413913Y0023518D01*
X0413879Y0023476D01*
X0413848Y0023431D01*
X0413820Y0023384D01*
X0413795Y0023335D01*
X0413774Y0023284D01*
X0413757Y0023232D01*
X0413744Y0023179D01*
X0413734Y0023125D01*
X0413728Y0023071D01*
X0413726Y0023016D01*
X0413727Y0023016D02*
X0413727Y0021993D01*
X0416027Y0019420D02*
X0416082Y0019422D01*
X0416136Y0019428D01*
X0416190Y0019438D01*
X0416243Y0019451D01*
X0416295Y0019468D01*
X0416346Y0019489D01*
X0416395Y0019514D01*
X0416442Y0019542D01*
X0416487Y0019573D01*
X0416529Y0019607D01*
X0416569Y0019645D01*
X0416607Y0019685D01*
X0416641Y0019727D01*
X0416672Y0019772D01*
X0416700Y0019819D01*
X0416725Y0019868D01*
X0416746Y0019919D01*
X0416763Y0019971D01*
X0416776Y0020024D01*
X0416786Y0020078D01*
X0416792Y0020132D01*
X0416794Y0020187D01*
X0416027Y0019420D02*
X0412193Y0019420D01*
X0413727Y0017664D02*
X0413727Y0016130D01*
X0412193Y0016641D02*
X0416027Y0016641D01*
X0416082Y0016643D01*
X0416136Y0016649D01*
X0416190Y0016659D01*
X0416243Y0016672D01*
X0416295Y0016689D01*
X0416346Y0016710D01*
X0416395Y0016735D01*
X0416442Y0016763D01*
X0416487Y0016794D01*
X0416529Y0016828D01*
X0416569Y0016866D01*
X0416607Y0016906D01*
X0416641Y0016948D01*
X0416672Y0016993D01*
X0416700Y0017040D01*
X0416725Y0017089D01*
X0416746Y0017140D01*
X0416763Y0017192D01*
X0416776Y0017245D01*
X0416786Y0017299D01*
X0416792Y0017353D01*
X0416794Y0017408D01*
X0416793Y0017408D02*
X0416793Y0017664D01*
X0416793Y0014867D02*
X0412193Y0013333D01*
X0416793Y0011800D01*
X0415643Y0012183D02*
X0415643Y0014483D01*
X0416793Y0078205D02*
X0416793Y0080761D01*
X0416793Y0079483D02*
X0412193Y0079483D01*
X0416538Y0082505D02*
X0416538Y0082761D01*
X0416793Y0082761D01*
X0416793Y0082505D01*
X0416538Y0082505D01*
X0416154Y0086678D02*
X0416050Y0086726D01*
X0415945Y0086772D01*
X0415839Y0086814D01*
X0415731Y0086853D01*
X0415622Y0086889D01*
X0415512Y0086921D01*
X0415401Y0086951D01*
X0415289Y0086976D01*
X0415177Y0086999D01*
X0415064Y0087018D01*
X0414950Y0087033D01*
X0414836Y0087045D01*
X0414722Y0087054D01*
X0414608Y0087059D01*
X0414493Y0087061D01*
X0413216Y0086805D02*
X0415771Y0084761D01*
X0416794Y0085783D02*
X0416792Y0085842D01*
X0416787Y0085900D01*
X0416778Y0085958D01*
X0416765Y0086015D01*
X0416749Y0086072D01*
X0416729Y0086127D01*
X0416706Y0086181D01*
X0416680Y0086233D01*
X0416650Y0086284D01*
X0416618Y0086333D01*
X0416582Y0086380D01*
X0416544Y0086424D01*
X0416503Y0086466D01*
X0416459Y0086505D01*
X0416413Y0086542D01*
X0416365Y0086575D01*
X0416315Y0086606D01*
X0416263Y0086633D01*
X0416210Y0086657D01*
X0416155Y0086678D01*
X0416794Y0085783D02*
X0416792Y0085724D01*
X0416787Y0085666D01*
X0416778Y0085608D01*
X0416765Y0085551D01*
X0416749Y0085494D01*
X0416729Y0085439D01*
X0416706Y0085385D01*
X0416680Y0085333D01*
X0416650Y0085282D01*
X0416618Y0085233D01*
X0416582Y0085186D01*
X0416544Y0085142D01*
X0416503Y0085100D01*
X0416459Y0085061D01*
X0416413Y0085024D01*
X0416365Y0084991D01*
X0416315Y0084960D01*
X0416263Y0084933D01*
X0416210Y0084909D01*
X0416155Y0084888D01*
X0412832Y0086678D02*
X0412777Y0086657D01*
X0412724Y0086633D01*
X0412672Y0086606D01*
X0412622Y0086575D01*
X0412574Y0086542D01*
X0412528Y0086505D01*
X0412484Y0086466D01*
X0412443Y0086424D01*
X0412405Y0086380D01*
X0412369Y0086333D01*
X0412337Y0086284D01*
X0412307Y0086233D01*
X0412281Y0086181D01*
X0412258Y0086127D01*
X0412238Y0086072D01*
X0412222Y0086015D01*
X0412209Y0085958D01*
X0412200Y0085900D01*
X0412195Y0085842D01*
X0412193Y0085783D01*
X0412195Y0085724D01*
X0412200Y0085666D01*
X0412209Y0085608D01*
X0412222Y0085551D01*
X0412238Y0085494D01*
X0412258Y0085439D01*
X0412281Y0085385D01*
X0412307Y0085333D01*
X0412337Y0085282D01*
X0412369Y0085233D01*
X0412405Y0085186D01*
X0412443Y0085142D01*
X0412484Y0085100D01*
X0412528Y0085061D01*
X0412574Y0085024D01*
X0412622Y0084991D01*
X0412672Y0084960D01*
X0412724Y0084933D01*
X0412777Y0084909D01*
X0412832Y0084888D01*
X0412832Y0086678D02*
X0412936Y0086726D01*
X0413041Y0086772D01*
X0413147Y0086814D01*
X0413255Y0086853D01*
X0413364Y0086889D01*
X0413474Y0086921D01*
X0413585Y0086951D01*
X0413697Y0086976D01*
X0413809Y0086999D01*
X0413922Y0087018D01*
X0414036Y0087033D01*
X0414150Y0087045D01*
X0414264Y0087054D01*
X0414378Y0087059D01*
X0414493Y0087061D01*
X0414493Y0084505D02*
X0414378Y0084507D01*
X0414264Y0084512D01*
X0414150Y0084521D01*
X0414036Y0084533D01*
X0413922Y0084548D01*
X0413809Y0084567D01*
X0413697Y0084590D01*
X0413585Y0084615D01*
X0413474Y0084645D01*
X0413364Y0084677D01*
X0413255Y0084713D01*
X0413147Y0084752D01*
X0413041Y0084794D01*
X0412936Y0084840D01*
X0412832Y0084888D01*
X0414493Y0084505D02*
X0414608Y0084507D01*
X0414722Y0084512D01*
X0414836Y0084521D01*
X0414950Y0084533D01*
X0415064Y0084548D01*
X0415177Y0084567D01*
X0415289Y0084590D01*
X0415401Y0084615D01*
X0415512Y0084645D01*
X0415622Y0084677D01*
X0415731Y0084713D01*
X0415839Y0084752D01*
X0415945Y0084794D01*
X0416050Y0084840D01*
X0416154Y0084888D01*
D14*
X0451993Y0061600D02*
X0454493Y0064100D01*
X0459493Y0064100D01*
X0461993Y0061600D01*
X0461993Y0056600D01*
X0459493Y0054100D01*
X0461993Y0051600D01*
X0461993Y0046600D01*
X0459493Y0044100D01*
X0461993Y0041600D01*
X0461993Y0036600D01*
X0459493Y0034100D01*
X0461993Y0031600D01*
X0461993Y0026600D01*
X0459493Y0024100D01*
X0454493Y0024100D01*
X0451993Y0026600D01*
X0451993Y0031600D01*
X0454493Y0034100D01*
X0451993Y0036600D01*
X0451993Y0041600D01*
X0454493Y0044100D01*
X0451993Y0046600D01*
X0451993Y0051600D01*
X0454493Y0054100D01*
X0451993Y0056600D01*
X0451993Y0061600D01*
X0376993Y0061600D02*
X0376993Y0056600D01*
X0374493Y0054100D01*
X0376993Y0051600D01*
X0376993Y0046600D01*
X0374493Y0044100D01*
X0376993Y0041600D01*
X0376993Y0036600D01*
X0374493Y0034100D01*
X0376993Y0031600D01*
X0376993Y0026600D01*
X0374493Y0024100D01*
X0369493Y0024100D01*
X0366993Y0026600D01*
X0366993Y0031600D01*
X0369493Y0034100D01*
X0366993Y0036600D01*
X0366993Y0041600D01*
X0369493Y0044100D01*
X0366993Y0046600D01*
X0366993Y0051600D01*
X0369493Y0054100D01*
X0366993Y0056600D01*
X0366993Y0061600D01*
X0369493Y0064100D01*
X0374493Y0064100D01*
X0376993Y0061600D01*
D15*
X0378493Y0069100D02*
X0356993Y0069100D01*
X0356993Y0019100D01*
X0378493Y0019100D01*
X0378493Y0069100D01*
X0450493Y0069100D02*
X0450493Y0019100D01*
X0471993Y0019100D01*
X0471993Y0069100D01*
X0450493Y0069100D01*
X0610293Y0073600D02*
X0664793Y0073600D01*
X0664793Y0014600D01*
X0610293Y0014600D01*
X0610293Y0073600D01*
X0218693Y0073600D02*
X0164193Y0073600D01*
X0164193Y0014600D01*
X0218693Y0014600D01*
X0218693Y0073600D01*
D16*
X0527579Y0053600D02*
X0527581Y0053675D01*
X0527587Y0053749D01*
X0527597Y0053823D01*
X0527610Y0053896D01*
X0527628Y0053969D01*
X0527649Y0054040D01*
X0527674Y0054111D01*
X0527703Y0054180D01*
X0527736Y0054247D01*
X0527772Y0054312D01*
X0527811Y0054376D01*
X0527853Y0054437D01*
X0527899Y0054496D01*
X0527948Y0054553D01*
X0528000Y0054606D01*
X0528054Y0054657D01*
X0528111Y0054706D01*
X0528171Y0054750D01*
X0528233Y0054792D01*
X0528297Y0054831D01*
X0528363Y0054866D01*
X0528430Y0054897D01*
X0528500Y0054925D01*
X0528570Y0054949D01*
X0528642Y0054970D01*
X0528715Y0054986D01*
X0528788Y0054999D01*
X0528863Y0055008D01*
X0528937Y0055013D01*
X0529012Y0055014D01*
X0529086Y0055011D01*
X0529161Y0055004D01*
X0529234Y0054993D01*
X0529308Y0054979D01*
X0529380Y0054960D01*
X0529451Y0054938D01*
X0529521Y0054912D01*
X0529590Y0054882D01*
X0529656Y0054849D01*
X0529721Y0054812D01*
X0529784Y0054772D01*
X0529845Y0054728D01*
X0529903Y0054682D01*
X0529959Y0054632D01*
X0530012Y0054580D01*
X0530063Y0054525D01*
X0530110Y0054467D01*
X0530154Y0054407D01*
X0530195Y0054344D01*
X0530233Y0054280D01*
X0530267Y0054214D01*
X0530298Y0054145D01*
X0530325Y0054076D01*
X0530348Y0054005D01*
X0530367Y0053933D01*
X0530383Y0053860D01*
X0530395Y0053786D01*
X0530403Y0053712D01*
X0530407Y0053637D01*
X0530407Y0053563D01*
X0530403Y0053488D01*
X0530395Y0053414D01*
X0530383Y0053340D01*
X0530367Y0053267D01*
X0530348Y0053195D01*
X0530325Y0053124D01*
X0530298Y0053055D01*
X0530267Y0052986D01*
X0530233Y0052920D01*
X0530195Y0052856D01*
X0530154Y0052793D01*
X0530110Y0052733D01*
X0530063Y0052675D01*
X0530012Y0052620D01*
X0529959Y0052568D01*
X0529903Y0052518D01*
X0529845Y0052472D01*
X0529784Y0052428D01*
X0529721Y0052388D01*
X0529656Y0052351D01*
X0529590Y0052318D01*
X0529521Y0052288D01*
X0529451Y0052262D01*
X0529380Y0052240D01*
X0529308Y0052221D01*
X0529234Y0052207D01*
X0529161Y0052196D01*
X0529086Y0052189D01*
X0529012Y0052186D01*
X0528937Y0052187D01*
X0528863Y0052192D01*
X0528788Y0052201D01*
X0528715Y0052214D01*
X0528642Y0052230D01*
X0528570Y0052251D01*
X0528500Y0052275D01*
X0528430Y0052303D01*
X0528363Y0052334D01*
X0528297Y0052369D01*
X0528233Y0052408D01*
X0528171Y0052450D01*
X0528111Y0052494D01*
X0528054Y0052543D01*
X0528000Y0052594D01*
X0527948Y0052647D01*
X0527899Y0052704D01*
X0527853Y0052763D01*
X0527811Y0052824D01*
X0527772Y0052888D01*
X0527736Y0052953D01*
X0527703Y0053020D01*
X0527674Y0053089D01*
X0527649Y0053160D01*
X0527628Y0053231D01*
X0527610Y0053304D01*
X0527597Y0053377D01*
X0527587Y0053451D01*
X0527581Y0053525D01*
X0527579Y0053600D01*
X0298579Y0034600D02*
X0298581Y0034675D01*
X0298587Y0034749D01*
X0298597Y0034823D01*
X0298610Y0034896D01*
X0298628Y0034969D01*
X0298649Y0035040D01*
X0298674Y0035111D01*
X0298703Y0035180D01*
X0298736Y0035247D01*
X0298772Y0035312D01*
X0298811Y0035376D01*
X0298853Y0035437D01*
X0298899Y0035496D01*
X0298948Y0035553D01*
X0299000Y0035606D01*
X0299054Y0035657D01*
X0299111Y0035706D01*
X0299171Y0035750D01*
X0299233Y0035792D01*
X0299297Y0035831D01*
X0299363Y0035866D01*
X0299430Y0035897D01*
X0299500Y0035925D01*
X0299570Y0035949D01*
X0299642Y0035970D01*
X0299715Y0035986D01*
X0299788Y0035999D01*
X0299863Y0036008D01*
X0299937Y0036013D01*
X0300012Y0036014D01*
X0300086Y0036011D01*
X0300161Y0036004D01*
X0300234Y0035993D01*
X0300308Y0035979D01*
X0300380Y0035960D01*
X0300451Y0035938D01*
X0300521Y0035912D01*
X0300590Y0035882D01*
X0300656Y0035849D01*
X0300721Y0035812D01*
X0300784Y0035772D01*
X0300845Y0035728D01*
X0300903Y0035682D01*
X0300959Y0035632D01*
X0301012Y0035580D01*
X0301063Y0035525D01*
X0301110Y0035467D01*
X0301154Y0035407D01*
X0301195Y0035344D01*
X0301233Y0035280D01*
X0301267Y0035214D01*
X0301298Y0035145D01*
X0301325Y0035076D01*
X0301348Y0035005D01*
X0301367Y0034933D01*
X0301383Y0034860D01*
X0301395Y0034786D01*
X0301403Y0034712D01*
X0301407Y0034637D01*
X0301407Y0034563D01*
X0301403Y0034488D01*
X0301395Y0034414D01*
X0301383Y0034340D01*
X0301367Y0034267D01*
X0301348Y0034195D01*
X0301325Y0034124D01*
X0301298Y0034055D01*
X0301267Y0033986D01*
X0301233Y0033920D01*
X0301195Y0033856D01*
X0301154Y0033793D01*
X0301110Y0033733D01*
X0301063Y0033675D01*
X0301012Y0033620D01*
X0300959Y0033568D01*
X0300903Y0033518D01*
X0300845Y0033472D01*
X0300784Y0033428D01*
X0300721Y0033388D01*
X0300656Y0033351D01*
X0300590Y0033318D01*
X0300521Y0033288D01*
X0300451Y0033262D01*
X0300380Y0033240D01*
X0300308Y0033221D01*
X0300234Y0033207D01*
X0300161Y0033196D01*
X0300086Y0033189D01*
X0300012Y0033186D01*
X0299937Y0033187D01*
X0299863Y0033192D01*
X0299788Y0033201D01*
X0299715Y0033214D01*
X0299642Y0033230D01*
X0299570Y0033251D01*
X0299500Y0033275D01*
X0299430Y0033303D01*
X0299363Y0033334D01*
X0299297Y0033369D01*
X0299233Y0033408D01*
X0299171Y0033450D01*
X0299111Y0033494D01*
X0299054Y0033543D01*
X0299000Y0033594D01*
X0298948Y0033647D01*
X0298899Y0033704D01*
X0298853Y0033763D01*
X0298811Y0033824D01*
X0298772Y0033888D01*
X0298736Y0033953D01*
X0298703Y0034020D01*
X0298674Y0034089D01*
X0298649Y0034160D01*
X0298628Y0034231D01*
X0298610Y0034304D01*
X0298597Y0034377D01*
X0298587Y0034451D01*
X0298581Y0034525D01*
X0298579Y0034600D01*
D17*
X0383043Y0022950D02*
X0383043Y0020850D01*
X0383041Y0020803D01*
X0383036Y0020756D01*
X0383026Y0020710D01*
X0383014Y0020665D01*
X0382997Y0020620D01*
X0382978Y0020578D01*
X0382955Y0020537D01*
X0382928Y0020497D01*
X0382899Y0020460D01*
X0382867Y0020426D01*
X0382833Y0020394D01*
X0382796Y0020365D01*
X0382756Y0020338D01*
X0382715Y0020315D01*
X0382673Y0020296D01*
X0382628Y0020279D01*
X0382583Y0020267D01*
X0382537Y0020257D01*
X0382490Y0020252D01*
X0382443Y0020250D01*
X0382143Y0020250D01*
X0384321Y0020250D02*
X0385071Y0020250D01*
X0385125Y0020252D01*
X0385178Y0020258D01*
X0385230Y0020267D01*
X0385282Y0020280D01*
X0385333Y0020297D01*
X0385383Y0020318D01*
X0385430Y0020342D01*
X0385476Y0020369D01*
X0385520Y0020400D01*
X0385562Y0020433D01*
X0385601Y0020470D01*
X0385638Y0020509D01*
X0385671Y0020551D01*
X0385702Y0020595D01*
X0385729Y0020641D01*
X0385753Y0020688D01*
X0385774Y0020738D01*
X0385791Y0020789D01*
X0385804Y0020841D01*
X0385813Y0020893D01*
X0385819Y0020946D01*
X0385821Y0021000D01*
X0385819Y0021054D01*
X0385813Y0021107D01*
X0385804Y0021159D01*
X0385791Y0021211D01*
X0385774Y0021262D01*
X0385753Y0021312D01*
X0385729Y0021359D01*
X0385702Y0021405D01*
X0385671Y0021449D01*
X0385638Y0021491D01*
X0385601Y0021530D01*
X0385562Y0021567D01*
X0385520Y0021600D01*
X0385476Y0021631D01*
X0385430Y0021658D01*
X0385383Y0021682D01*
X0385333Y0021703D01*
X0385282Y0021720D01*
X0385230Y0021733D01*
X0385178Y0021742D01*
X0385125Y0021748D01*
X0385071Y0021750D01*
X0385221Y0021750D02*
X0384621Y0021750D01*
X0385221Y0021750D02*
X0385269Y0021752D01*
X0385317Y0021758D01*
X0385365Y0021767D01*
X0385411Y0021781D01*
X0385456Y0021798D01*
X0385500Y0021819D01*
X0385542Y0021843D01*
X0385581Y0021870D01*
X0385619Y0021901D01*
X0385654Y0021934D01*
X0385686Y0021971D01*
X0385715Y0022009D01*
X0385741Y0022050D01*
X0385763Y0022093D01*
X0385782Y0022137D01*
X0385797Y0022183D01*
X0385809Y0022230D01*
X0385817Y0022278D01*
X0385821Y0022326D01*
X0385821Y0022374D01*
X0385817Y0022422D01*
X0385809Y0022470D01*
X0385797Y0022517D01*
X0385782Y0022563D01*
X0385763Y0022607D01*
X0385741Y0022650D01*
X0385715Y0022691D01*
X0385686Y0022729D01*
X0385654Y0022766D01*
X0385619Y0022799D01*
X0385581Y0022830D01*
X0385542Y0022857D01*
X0385500Y0022881D01*
X0385456Y0022902D01*
X0385411Y0022919D01*
X0385365Y0022933D01*
X0385317Y0022942D01*
X0385269Y0022948D01*
X0385221Y0022950D01*
X0384321Y0022950D01*
X0254843Y0019928D02*
X0254843Y0018428D01*
X0254843Y0019178D02*
X0252143Y0019178D01*
X0252743Y0018428D01*
X0252143Y0017150D02*
X0254243Y0017150D01*
X0254290Y0017148D01*
X0254337Y0017143D01*
X0254383Y0017133D01*
X0254428Y0017121D01*
X0254473Y0017104D01*
X0254515Y0017085D01*
X0254556Y0017062D01*
X0254596Y0017035D01*
X0254633Y0017006D01*
X0254667Y0016974D01*
X0254699Y0016940D01*
X0254728Y0016903D01*
X0254755Y0016863D01*
X0254778Y0016822D01*
X0254797Y0016780D01*
X0254814Y0016735D01*
X0254826Y0016690D01*
X0254836Y0016644D01*
X0254841Y0016597D01*
X0254843Y0016550D01*
X0254843Y0016250D01*
X0443166Y0065250D02*
X0443466Y0065250D01*
X0443513Y0065252D01*
X0443560Y0065257D01*
X0443606Y0065267D01*
X0443651Y0065279D01*
X0443696Y0065296D01*
X0443738Y0065315D01*
X0443779Y0065338D01*
X0443819Y0065365D01*
X0443856Y0065394D01*
X0443890Y0065426D01*
X0443922Y0065460D01*
X0443951Y0065497D01*
X0443978Y0065537D01*
X0444001Y0065578D01*
X0444020Y0065620D01*
X0444037Y0065665D01*
X0444049Y0065710D01*
X0444059Y0065756D01*
X0444064Y0065803D01*
X0444066Y0065850D01*
X0444066Y0067950D01*
X0445343Y0066750D02*
X0445343Y0066000D01*
X0445343Y0066750D02*
X0446243Y0066750D01*
X0445343Y0066750D02*
X0445345Y0066817D01*
X0445351Y0066884D01*
X0445360Y0066951D01*
X0445373Y0067017D01*
X0445390Y0067082D01*
X0445410Y0067146D01*
X0445434Y0067209D01*
X0445462Y0067271D01*
X0445493Y0067330D01*
X0445527Y0067388D01*
X0445564Y0067444D01*
X0445605Y0067498D01*
X0445648Y0067550D01*
X0445694Y0067599D01*
X0445743Y0067645D01*
X0445795Y0067688D01*
X0445849Y0067729D01*
X0445905Y0067766D01*
X0445963Y0067800D01*
X0446022Y0067831D01*
X0446084Y0067859D01*
X0446147Y0067883D01*
X0446211Y0067903D01*
X0446276Y0067920D01*
X0446342Y0067933D01*
X0446409Y0067942D01*
X0446476Y0067948D01*
X0446543Y0067950D01*
X0446243Y0066750D02*
X0446290Y0066748D01*
X0446337Y0066743D01*
X0446383Y0066733D01*
X0446428Y0066721D01*
X0446473Y0066704D01*
X0446515Y0066685D01*
X0446556Y0066662D01*
X0446596Y0066635D01*
X0446633Y0066606D01*
X0446667Y0066574D01*
X0446699Y0066540D01*
X0446728Y0066503D01*
X0446755Y0066463D01*
X0446778Y0066422D01*
X0446797Y0066380D01*
X0446814Y0066335D01*
X0446826Y0066290D01*
X0446836Y0066244D01*
X0446841Y0066197D01*
X0446843Y0066150D01*
X0446843Y0066000D01*
X0446841Y0065946D01*
X0446835Y0065893D01*
X0446826Y0065841D01*
X0446813Y0065789D01*
X0446796Y0065738D01*
X0446775Y0065688D01*
X0446751Y0065641D01*
X0446724Y0065595D01*
X0446693Y0065551D01*
X0446660Y0065509D01*
X0446623Y0065470D01*
X0446584Y0065433D01*
X0446542Y0065400D01*
X0446498Y0065369D01*
X0446452Y0065342D01*
X0446405Y0065318D01*
X0446355Y0065297D01*
X0446304Y0065280D01*
X0446252Y0065267D01*
X0446200Y0065258D01*
X0446147Y0065252D01*
X0446093Y0065250D01*
X0446039Y0065252D01*
X0445986Y0065258D01*
X0445934Y0065267D01*
X0445882Y0065280D01*
X0445831Y0065297D01*
X0445781Y0065318D01*
X0445734Y0065342D01*
X0445688Y0065369D01*
X0445644Y0065400D01*
X0445602Y0065433D01*
X0445563Y0065470D01*
X0445526Y0065509D01*
X0445493Y0065551D01*
X0445462Y0065595D01*
X0445435Y0065641D01*
X0445411Y0065688D01*
X0445390Y0065738D01*
X0445373Y0065789D01*
X0445360Y0065841D01*
X0445351Y0065893D01*
X0445345Y0065946D01*
X0445343Y0066000D01*
X0574143Y0069172D02*
X0576243Y0069172D01*
X0576290Y0069170D01*
X0576337Y0069165D01*
X0576383Y0069155D01*
X0576428Y0069143D01*
X0576473Y0069126D01*
X0576515Y0069107D01*
X0576556Y0069084D01*
X0576596Y0069057D01*
X0576633Y0069028D01*
X0576667Y0068996D01*
X0576699Y0068962D01*
X0576728Y0068925D01*
X0576755Y0068885D01*
X0576778Y0068844D01*
X0576797Y0068802D01*
X0576814Y0068757D01*
X0576826Y0068712D01*
X0576836Y0068666D01*
X0576841Y0068619D01*
X0576843Y0068572D01*
X0576843Y0068272D01*
X0576843Y0070450D02*
X0576843Y0071350D01*
X0576841Y0071397D01*
X0576836Y0071444D01*
X0576826Y0071490D01*
X0576814Y0071535D01*
X0576797Y0071580D01*
X0576778Y0071622D01*
X0576755Y0071663D01*
X0576728Y0071703D01*
X0576699Y0071740D01*
X0576667Y0071774D01*
X0576633Y0071806D01*
X0576596Y0071835D01*
X0576556Y0071862D01*
X0576515Y0071885D01*
X0576473Y0071904D01*
X0576428Y0071921D01*
X0576383Y0071933D01*
X0576337Y0071943D01*
X0576290Y0071948D01*
X0576243Y0071950D01*
X0575943Y0071950D01*
X0575896Y0071948D01*
X0575849Y0071943D01*
X0575803Y0071933D01*
X0575758Y0071921D01*
X0575713Y0071904D01*
X0575671Y0071885D01*
X0575630Y0071862D01*
X0575590Y0071835D01*
X0575553Y0071806D01*
X0575519Y0071774D01*
X0575487Y0071740D01*
X0575458Y0071703D01*
X0575431Y0071663D01*
X0575408Y0071622D01*
X0575389Y0071580D01*
X0575372Y0071535D01*
X0575360Y0071490D01*
X0575350Y0071444D01*
X0575345Y0071397D01*
X0575343Y0071350D01*
X0575343Y0070450D01*
X0574143Y0070450D01*
X0574143Y0071950D01*
D18*
X0584493Y0044100D02*
X0584495Y0044284D01*
X0584502Y0044468D01*
X0584513Y0044652D01*
X0584529Y0044835D01*
X0584549Y0045018D01*
X0584574Y0045200D01*
X0584603Y0045382D01*
X0584637Y0045563D01*
X0584675Y0045743D01*
X0584718Y0045922D01*
X0584765Y0046100D01*
X0584816Y0046277D01*
X0584872Y0046453D01*
X0584931Y0046627D01*
X0584996Y0046799D01*
X0585064Y0046970D01*
X0585136Y0047139D01*
X0585213Y0047307D01*
X0585294Y0047472D01*
X0585379Y0047635D01*
X0585467Y0047797D01*
X0585560Y0047956D01*
X0585657Y0048112D01*
X0585757Y0048267D01*
X0585861Y0048419D01*
X0585969Y0048568D01*
X0586080Y0048714D01*
X0586195Y0048858D01*
X0586314Y0048999D01*
X0586436Y0049137D01*
X0586561Y0049272D01*
X0586690Y0049403D01*
X0586821Y0049532D01*
X0586956Y0049657D01*
X0587094Y0049779D01*
X0587235Y0049898D01*
X0587379Y0050013D01*
X0587525Y0050124D01*
X0587674Y0050232D01*
X0587826Y0050336D01*
X0587981Y0050436D01*
X0588137Y0050533D01*
X0588296Y0050626D01*
X0588458Y0050714D01*
X0588621Y0050799D01*
X0588786Y0050880D01*
X0588954Y0050957D01*
X0589123Y0051029D01*
X0589294Y0051097D01*
X0589466Y0051162D01*
X0589640Y0051221D01*
X0589816Y0051277D01*
X0589993Y0051328D01*
X0590171Y0051375D01*
X0590350Y0051418D01*
X0590530Y0051456D01*
X0590711Y0051490D01*
X0590893Y0051519D01*
X0591075Y0051544D01*
X0591258Y0051564D01*
X0591441Y0051580D01*
X0591625Y0051591D01*
X0591809Y0051598D01*
X0591993Y0051600D01*
X0592177Y0051598D01*
X0592361Y0051591D01*
X0592545Y0051580D01*
X0592728Y0051564D01*
X0592911Y0051544D01*
X0593093Y0051519D01*
X0593275Y0051490D01*
X0593456Y0051456D01*
X0593636Y0051418D01*
X0593815Y0051375D01*
X0593993Y0051328D01*
X0594170Y0051277D01*
X0594346Y0051221D01*
X0594520Y0051162D01*
X0594692Y0051097D01*
X0594863Y0051029D01*
X0595032Y0050957D01*
X0595200Y0050880D01*
X0595365Y0050799D01*
X0595528Y0050714D01*
X0595690Y0050626D01*
X0595849Y0050533D01*
X0596005Y0050436D01*
X0596160Y0050336D01*
X0596312Y0050232D01*
X0596461Y0050124D01*
X0596607Y0050013D01*
X0596751Y0049898D01*
X0596892Y0049779D01*
X0597030Y0049657D01*
X0597165Y0049532D01*
X0597296Y0049403D01*
X0597425Y0049272D01*
X0597550Y0049137D01*
X0597672Y0048999D01*
X0597791Y0048858D01*
X0597906Y0048714D01*
X0598017Y0048568D01*
X0598125Y0048419D01*
X0598229Y0048267D01*
X0598329Y0048112D01*
X0598426Y0047956D01*
X0598519Y0047797D01*
X0598607Y0047635D01*
X0598692Y0047472D01*
X0598773Y0047307D01*
X0598850Y0047139D01*
X0598922Y0046970D01*
X0598990Y0046799D01*
X0599055Y0046627D01*
X0599114Y0046453D01*
X0599170Y0046277D01*
X0599221Y0046100D01*
X0599268Y0045922D01*
X0599311Y0045743D01*
X0599349Y0045563D01*
X0599383Y0045382D01*
X0599412Y0045200D01*
X0599437Y0045018D01*
X0599457Y0044835D01*
X0599473Y0044652D01*
X0599484Y0044468D01*
X0599491Y0044284D01*
X0599493Y0044100D01*
X0599491Y0043916D01*
X0599484Y0043732D01*
X0599473Y0043548D01*
X0599457Y0043365D01*
X0599437Y0043182D01*
X0599412Y0043000D01*
X0599383Y0042818D01*
X0599349Y0042637D01*
X0599311Y0042457D01*
X0599268Y0042278D01*
X0599221Y0042100D01*
X0599170Y0041923D01*
X0599114Y0041747D01*
X0599055Y0041573D01*
X0598990Y0041401D01*
X0598922Y0041230D01*
X0598850Y0041061D01*
X0598773Y0040893D01*
X0598692Y0040728D01*
X0598607Y0040565D01*
X0598519Y0040403D01*
X0598426Y0040244D01*
X0598329Y0040088D01*
X0598229Y0039933D01*
X0598125Y0039781D01*
X0598017Y0039632D01*
X0597906Y0039486D01*
X0597791Y0039342D01*
X0597672Y0039201D01*
X0597550Y0039063D01*
X0597425Y0038928D01*
X0597296Y0038797D01*
X0597165Y0038668D01*
X0597030Y0038543D01*
X0596892Y0038421D01*
X0596751Y0038302D01*
X0596607Y0038187D01*
X0596461Y0038076D01*
X0596312Y0037968D01*
X0596160Y0037864D01*
X0596005Y0037764D01*
X0595849Y0037667D01*
X0595690Y0037574D01*
X0595528Y0037486D01*
X0595365Y0037401D01*
X0595200Y0037320D01*
X0595032Y0037243D01*
X0594863Y0037171D01*
X0594692Y0037103D01*
X0594520Y0037038D01*
X0594346Y0036979D01*
X0594170Y0036923D01*
X0593993Y0036872D01*
X0593815Y0036825D01*
X0593636Y0036782D01*
X0593456Y0036744D01*
X0593275Y0036710D01*
X0593093Y0036681D01*
X0592911Y0036656D01*
X0592728Y0036636D01*
X0592545Y0036620D01*
X0592361Y0036609D01*
X0592177Y0036602D01*
X0591993Y0036600D01*
X0591809Y0036602D01*
X0591625Y0036609D01*
X0591441Y0036620D01*
X0591258Y0036636D01*
X0591075Y0036656D01*
X0590893Y0036681D01*
X0590711Y0036710D01*
X0590530Y0036744D01*
X0590350Y0036782D01*
X0590171Y0036825D01*
X0589993Y0036872D01*
X0589816Y0036923D01*
X0589640Y0036979D01*
X0589466Y0037038D01*
X0589294Y0037103D01*
X0589123Y0037171D01*
X0588954Y0037243D01*
X0588786Y0037320D01*
X0588621Y0037401D01*
X0588458Y0037486D01*
X0588296Y0037574D01*
X0588137Y0037667D01*
X0587981Y0037764D01*
X0587826Y0037864D01*
X0587674Y0037968D01*
X0587525Y0038076D01*
X0587379Y0038187D01*
X0587235Y0038302D01*
X0587094Y0038421D01*
X0586956Y0038543D01*
X0586821Y0038668D01*
X0586690Y0038797D01*
X0586561Y0038928D01*
X0586436Y0039063D01*
X0586314Y0039201D01*
X0586195Y0039342D01*
X0586080Y0039486D01*
X0585969Y0039632D01*
X0585861Y0039781D01*
X0585757Y0039933D01*
X0585657Y0040088D01*
X0585560Y0040244D01*
X0585467Y0040403D01*
X0585379Y0040565D01*
X0585294Y0040728D01*
X0585213Y0040893D01*
X0585136Y0041061D01*
X0585064Y0041230D01*
X0584996Y0041401D01*
X0584931Y0041573D01*
X0584872Y0041747D01*
X0584816Y0041923D01*
X0584765Y0042100D01*
X0584718Y0042278D01*
X0584675Y0042457D01*
X0584637Y0042637D01*
X0584603Y0042818D01*
X0584574Y0043000D01*
X0584549Y0043182D01*
X0584529Y0043365D01*
X0584513Y0043548D01*
X0584502Y0043732D01*
X0584495Y0043916D01*
X0584493Y0044100D01*
X0229493Y0044100D02*
X0229495Y0044284D01*
X0229502Y0044468D01*
X0229513Y0044652D01*
X0229529Y0044835D01*
X0229549Y0045018D01*
X0229574Y0045200D01*
X0229603Y0045382D01*
X0229637Y0045563D01*
X0229675Y0045743D01*
X0229718Y0045922D01*
X0229765Y0046100D01*
X0229816Y0046277D01*
X0229872Y0046453D01*
X0229931Y0046627D01*
X0229996Y0046799D01*
X0230064Y0046970D01*
X0230136Y0047139D01*
X0230213Y0047307D01*
X0230294Y0047472D01*
X0230379Y0047635D01*
X0230467Y0047797D01*
X0230560Y0047956D01*
X0230657Y0048112D01*
X0230757Y0048267D01*
X0230861Y0048419D01*
X0230969Y0048568D01*
X0231080Y0048714D01*
X0231195Y0048858D01*
X0231314Y0048999D01*
X0231436Y0049137D01*
X0231561Y0049272D01*
X0231690Y0049403D01*
X0231821Y0049532D01*
X0231956Y0049657D01*
X0232094Y0049779D01*
X0232235Y0049898D01*
X0232379Y0050013D01*
X0232525Y0050124D01*
X0232674Y0050232D01*
X0232826Y0050336D01*
X0232981Y0050436D01*
X0233137Y0050533D01*
X0233296Y0050626D01*
X0233458Y0050714D01*
X0233621Y0050799D01*
X0233786Y0050880D01*
X0233954Y0050957D01*
X0234123Y0051029D01*
X0234294Y0051097D01*
X0234466Y0051162D01*
X0234640Y0051221D01*
X0234816Y0051277D01*
X0234993Y0051328D01*
X0235171Y0051375D01*
X0235350Y0051418D01*
X0235530Y0051456D01*
X0235711Y0051490D01*
X0235893Y0051519D01*
X0236075Y0051544D01*
X0236258Y0051564D01*
X0236441Y0051580D01*
X0236625Y0051591D01*
X0236809Y0051598D01*
X0236993Y0051600D01*
X0237177Y0051598D01*
X0237361Y0051591D01*
X0237545Y0051580D01*
X0237728Y0051564D01*
X0237911Y0051544D01*
X0238093Y0051519D01*
X0238275Y0051490D01*
X0238456Y0051456D01*
X0238636Y0051418D01*
X0238815Y0051375D01*
X0238993Y0051328D01*
X0239170Y0051277D01*
X0239346Y0051221D01*
X0239520Y0051162D01*
X0239692Y0051097D01*
X0239863Y0051029D01*
X0240032Y0050957D01*
X0240200Y0050880D01*
X0240365Y0050799D01*
X0240528Y0050714D01*
X0240690Y0050626D01*
X0240849Y0050533D01*
X0241005Y0050436D01*
X0241160Y0050336D01*
X0241312Y0050232D01*
X0241461Y0050124D01*
X0241607Y0050013D01*
X0241751Y0049898D01*
X0241892Y0049779D01*
X0242030Y0049657D01*
X0242165Y0049532D01*
X0242296Y0049403D01*
X0242425Y0049272D01*
X0242550Y0049137D01*
X0242672Y0048999D01*
X0242791Y0048858D01*
X0242906Y0048714D01*
X0243017Y0048568D01*
X0243125Y0048419D01*
X0243229Y0048267D01*
X0243329Y0048112D01*
X0243426Y0047956D01*
X0243519Y0047797D01*
X0243607Y0047635D01*
X0243692Y0047472D01*
X0243773Y0047307D01*
X0243850Y0047139D01*
X0243922Y0046970D01*
X0243990Y0046799D01*
X0244055Y0046627D01*
X0244114Y0046453D01*
X0244170Y0046277D01*
X0244221Y0046100D01*
X0244268Y0045922D01*
X0244311Y0045743D01*
X0244349Y0045563D01*
X0244383Y0045382D01*
X0244412Y0045200D01*
X0244437Y0045018D01*
X0244457Y0044835D01*
X0244473Y0044652D01*
X0244484Y0044468D01*
X0244491Y0044284D01*
X0244493Y0044100D01*
X0244491Y0043916D01*
X0244484Y0043732D01*
X0244473Y0043548D01*
X0244457Y0043365D01*
X0244437Y0043182D01*
X0244412Y0043000D01*
X0244383Y0042818D01*
X0244349Y0042637D01*
X0244311Y0042457D01*
X0244268Y0042278D01*
X0244221Y0042100D01*
X0244170Y0041923D01*
X0244114Y0041747D01*
X0244055Y0041573D01*
X0243990Y0041401D01*
X0243922Y0041230D01*
X0243850Y0041061D01*
X0243773Y0040893D01*
X0243692Y0040728D01*
X0243607Y0040565D01*
X0243519Y0040403D01*
X0243426Y0040244D01*
X0243329Y0040088D01*
X0243229Y0039933D01*
X0243125Y0039781D01*
X0243017Y0039632D01*
X0242906Y0039486D01*
X0242791Y0039342D01*
X0242672Y0039201D01*
X0242550Y0039063D01*
X0242425Y0038928D01*
X0242296Y0038797D01*
X0242165Y0038668D01*
X0242030Y0038543D01*
X0241892Y0038421D01*
X0241751Y0038302D01*
X0241607Y0038187D01*
X0241461Y0038076D01*
X0241312Y0037968D01*
X0241160Y0037864D01*
X0241005Y0037764D01*
X0240849Y0037667D01*
X0240690Y0037574D01*
X0240528Y0037486D01*
X0240365Y0037401D01*
X0240200Y0037320D01*
X0240032Y0037243D01*
X0239863Y0037171D01*
X0239692Y0037103D01*
X0239520Y0037038D01*
X0239346Y0036979D01*
X0239170Y0036923D01*
X0238993Y0036872D01*
X0238815Y0036825D01*
X0238636Y0036782D01*
X0238456Y0036744D01*
X0238275Y0036710D01*
X0238093Y0036681D01*
X0237911Y0036656D01*
X0237728Y0036636D01*
X0237545Y0036620D01*
X0237361Y0036609D01*
X0237177Y0036602D01*
X0236993Y0036600D01*
X0236809Y0036602D01*
X0236625Y0036609D01*
X0236441Y0036620D01*
X0236258Y0036636D01*
X0236075Y0036656D01*
X0235893Y0036681D01*
X0235711Y0036710D01*
X0235530Y0036744D01*
X0235350Y0036782D01*
X0235171Y0036825D01*
X0234993Y0036872D01*
X0234816Y0036923D01*
X0234640Y0036979D01*
X0234466Y0037038D01*
X0234294Y0037103D01*
X0234123Y0037171D01*
X0233954Y0037243D01*
X0233786Y0037320D01*
X0233621Y0037401D01*
X0233458Y0037486D01*
X0233296Y0037574D01*
X0233137Y0037667D01*
X0232981Y0037764D01*
X0232826Y0037864D01*
X0232674Y0037968D01*
X0232525Y0038076D01*
X0232379Y0038187D01*
X0232235Y0038302D01*
X0232094Y0038421D01*
X0231956Y0038543D01*
X0231821Y0038668D01*
X0231690Y0038797D01*
X0231561Y0038928D01*
X0231436Y0039063D01*
X0231314Y0039201D01*
X0231195Y0039342D01*
X0231080Y0039486D01*
X0230969Y0039632D01*
X0230861Y0039781D01*
X0230757Y0039933D01*
X0230657Y0040088D01*
X0230560Y0040244D01*
X0230467Y0040403D01*
X0230379Y0040565D01*
X0230294Y0040728D01*
X0230213Y0040893D01*
X0230136Y0041061D01*
X0230064Y0041230D01*
X0229996Y0041401D01*
X0229931Y0041573D01*
X0229872Y0041747D01*
X0229816Y0041923D01*
X0229765Y0042100D01*
X0229718Y0042278D01*
X0229675Y0042457D01*
X0229637Y0042637D01*
X0229603Y0042818D01*
X0229574Y0043000D01*
X0229549Y0043182D01*
X0229529Y0043365D01*
X0229513Y0043548D01*
X0229502Y0043732D01*
X0229495Y0043916D01*
X0229493Y0044100D01*
M02*
