G04 EAGLE Gerber X2 export*
%TF.Part,Single*%
%TF.FileFunction,Paste,Top*%
%TF.FilePolarity,Positive*%
%TF.GenerationSoftware,Autodesk,EAGLE,8.6.1*%
%TF.CreationDate,2018-02-09T18:52:30Z*%
G75*
%MOMM*%
%FSLAX34Y34*%
%LPD*%
%AMOC8*
5,1,8,0,0,1.08239X$1,22.5*%
G01*
%ADD10R,1.000000X1.100000*%
%ADD11R,1.803400X2.641600*%
%ADD12R,2.400000X1.800000*%
%ADD13R,1.800000X1.600000*%
%ADD14R,1.803400X1.117600*%
%ADD15R,0.406400X1.981200*%
%ADD16R,1.100000X1.000000*%
%ADD17R,1.400000X0.300000*%
%ADD18R,3.300000X4.400000*%
%ADD19R,3.900000X6.750000*%
%ADD20R,3.900000X6.200000*%
%ADD21R,0.800000X0.800000*%
%ADD22R,0.799997X0.755600*%
%ADD23R,0.600000X0.400000*%
%ADD24R,1.500000X1.300000*%
%ADD25R,1.803000X1.600000*%
%ADD26R,0.400000X0.300000*%
%ADD27R,1.270000X1.651000*%
%ADD28R,3.403600X0.889000*%
%ADD29R,3.251200X0.889000*%
%ADD30R,1.800000X5.700000*%
%ADD31R,0.350000X1.200000*%
%ADD32R,0.755600X0.799997*%
%ADD33R,0.990600X0.304800*%
%ADD34R,0.838200X1.600200*%
%ADD35R,3.098800X1.600200*%
%ADD36R,1.300000X1.500000*%
%ADD37R,1.981200X0.406400*%
%ADD38R,1.000000X1.500000*%
%ADD39R,1.000000X1.400000*%
%ADD40R,0.939800X1.701800*%
%ADD41R,6.654800X7.721600*%
%ADD42R,1.500000X1.000000*%
%ADD43R,1.701800X0.939800*%
%ADD44R,7.721600X6.654800*%
%ADD45R,2.540000X1.270000*%


D10*
X529006Y2768584D03*
X529006Y2785584D03*
D11*
X707695Y2759304D03*
X655117Y2759304D03*
D12*
X615366Y2766994D03*
X615366Y2807494D03*
D13*
X554406Y2768164D03*
X554406Y2796164D03*
D14*
X582346Y2767178D03*
X582346Y2797150D03*
D10*
X363144Y2209022D03*
X363144Y2226022D03*
X454974Y2246732D03*
X471974Y2246732D03*
D15*
X452234Y2225904D03*
X445734Y2225904D03*
X439234Y2225904D03*
X432734Y2225904D03*
X426234Y2225904D03*
X419734Y2225904D03*
X413234Y2225904D03*
X406734Y2225904D03*
X400234Y2225904D03*
X393734Y2225904D03*
X387234Y2225904D03*
X380734Y2225904D03*
X380734Y2168500D03*
X387234Y2168500D03*
X393734Y2168500D03*
X400234Y2168500D03*
X406734Y2168500D03*
X413234Y2168500D03*
X419734Y2168500D03*
X426234Y2168500D03*
X432734Y2168500D03*
X439234Y2168500D03*
X445734Y2168500D03*
X452234Y2168500D03*
D16*
X490264Y2173582D03*
X473264Y2173582D03*
X520234Y2173582D03*
X503234Y2173582D03*
X490514Y2219042D03*
X473514Y2219042D03*
X520234Y2219042D03*
X503234Y2219042D03*
X490264Y2196442D03*
X473264Y2196442D03*
X520234Y2196442D03*
X503234Y2196442D03*
D17*
X1617018Y2651082D03*
X1617018Y2656082D03*
X1617018Y2661082D03*
X1617018Y2666082D03*
X1617018Y2671082D03*
X1573018Y2671082D03*
X1573018Y2666082D03*
X1573018Y2661082D03*
X1573018Y2656082D03*
X1573018Y2651082D03*
D10*
X1596678Y2628062D03*
X1613678Y2628062D03*
X1566198Y2628062D03*
X1583198Y2628062D03*
X1535718Y2628062D03*
X1552718Y2628062D03*
D16*
X1539138Y2661962D03*
X1539138Y2644962D03*
D10*
X1573038Y2692832D03*
X1556038Y2692832D03*
D16*
X1539138Y2692442D03*
X1539138Y2675442D03*
X1644548Y2665772D03*
X1644548Y2648772D03*
X1672488Y2665772D03*
X1672488Y2648772D03*
D17*
X1827838Y2651082D03*
X1827838Y2656082D03*
X1827838Y2661082D03*
X1827838Y2666082D03*
X1827838Y2671082D03*
X1783838Y2671082D03*
X1783838Y2666082D03*
X1783838Y2661082D03*
X1783838Y2656082D03*
X1783838Y2651082D03*
D10*
X1807498Y2628062D03*
X1824498Y2628062D03*
X1777018Y2628062D03*
X1794018Y2628062D03*
X1746538Y2628062D03*
X1763538Y2628062D03*
D16*
X1749958Y2661962D03*
X1749958Y2644962D03*
D10*
X1783858Y2692832D03*
X1766858Y2692832D03*
D16*
X1749958Y2692442D03*
X1749958Y2675442D03*
X1855368Y2665772D03*
X1855368Y2648772D03*
X1883308Y2665772D03*
X1883308Y2648772D03*
D18*
X1100838Y2766844D03*
D19*
X1171838Y2856344D03*
D20*
X1042838Y2856344D03*
D10*
X447142Y2124396D03*
X447142Y2107396D03*
X467284Y2124422D03*
X467284Y2107422D03*
D21*
X228702Y2392876D03*
X228702Y2407876D03*
D22*
X228702Y2461178D03*
X228702Y2476734D03*
D21*
X261722Y2392876D03*
X261722Y2407876D03*
D22*
X261722Y2461178D03*
X261722Y2476734D03*
D21*
X294742Y2395416D03*
X294742Y2410416D03*
D22*
X294742Y2461178D03*
X294742Y2476734D03*
D18*
X1359410Y2764812D03*
D19*
X1430410Y2854312D03*
D20*
X1301410Y2854312D03*
D23*
X463108Y1059104D03*
X484108Y1059104D03*
X463108Y1065104D03*
X463108Y1071104D03*
X463108Y1053104D03*
X463108Y1047104D03*
X484108Y1047104D03*
X484108Y1053104D03*
X484108Y1065104D03*
X484108Y1071104D03*
X473608Y1059104D03*
D24*
X506628Y1048284D03*
X506628Y1029284D03*
D25*
X436778Y1033954D03*
X436778Y1005514D03*
D10*
X436778Y1065844D03*
X436778Y1082844D03*
D23*
X472808Y1188644D03*
X472808Y1178644D03*
X472808Y1198644D03*
X499808Y1188644D03*
X499808Y1178644D03*
X499808Y1198644D03*
D16*
X477808Y1221664D03*
X494808Y1221664D03*
D26*
X462148Y878604D03*
X462148Y868604D03*
X462148Y858604D03*
X490148Y858604D03*
X490148Y868604D03*
X490148Y878604D03*
D27*
X476148Y868604D03*
D16*
X484648Y835584D03*
X467648Y835584D03*
D10*
X637362Y1385350D03*
X637362Y1402350D03*
D16*
X2392544Y1813306D03*
X2375544Y1813306D03*
X2290454Y1895856D03*
X2307454Y1895856D03*
D28*
X2556256Y1894586D03*
D29*
X2495804Y1894078D03*
D30*
X2546744Y1813306D03*
X2500744Y1813306D03*
D16*
X2392544Y1648206D03*
X2375544Y1648206D03*
X2290454Y1730756D03*
X2307454Y1730756D03*
D28*
X2556256Y1729486D03*
D29*
X2495804Y1728978D03*
D30*
X2546744Y1648206D03*
X2500744Y1648206D03*
D16*
X2392544Y1483106D03*
X2375544Y1483106D03*
X2290454Y1565656D03*
X2307454Y1565656D03*
D28*
X2556256Y1564386D03*
D29*
X2495804Y1563878D03*
D30*
X2546744Y1483106D03*
X2500744Y1483106D03*
D16*
X2392544Y1318006D03*
X2375544Y1318006D03*
X2290454Y1400556D03*
X2307454Y1400556D03*
D28*
X2556256Y1399286D03*
D29*
X2495804Y1398778D03*
D30*
X2546744Y1318006D03*
X2500744Y1318006D03*
D16*
X2392544Y1152906D03*
X2375544Y1152906D03*
X2290454Y1235456D03*
X2307454Y1235456D03*
D28*
X2556256Y1234186D03*
D29*
X2495804Y1233678D03*
D30*
X2546744Y1152906D03*
X2500744Y1152906D03*
D16*
X2392544Y987806D03*
X2375544Y987806D03*
X2290454Y1070356D03*
X2307454Y1070356D03*
D28*
X2556256Y1069086D03*
D29*
X2495804Y1068578D03*
D30*
X2546744Y987806D03*
X2500744Y987806D03*
D31*
X2670954Y1344716D03*
X2664454Y1344716D03*
X2657954Y1344716D03*
X2651454Y1344716D03*
X2644954Y1344716D03*
X2638454Y1344716D03*
X2631954Y1344716D03*
X2625454Y1344716D03*
X2625454Y1286216D03*
X2631954Y1286216D03*
X2638454Y1286216D03*
X2644954Y1286216D03*
X2651454Y1286216D03*
X2657954Y1286216D03*
X2664454Y1286216D03*
X2670954Y1286216D03*
D16*
X2676534Y1363726D03*
X2693534Y1363726D03*
D24*
X2693924Y1307236D03*
X2693924Y1326236D03*
D32*
X2683922Y1105916D03*
X2668366Y1105916D03*
X2683922Y1131316D03*
X2668366Y1131316D03*
X2683922Y1156716D03*
X2668366Y1156716D03*
X2683922Y1182116D03*
X2668366Y1182116D03*
X2683922Y1207516D03*
X2668366Y1207516D03*
X2683922Y1232916D03*
X2668366Y1232916D03*
D33*
X2645442Y1600286D03*
X2645442Y1593786D03*
X2645442Y1587286D03*
X2645442Y1580786D03*
X2645442Y1574286D03*
X2645442Y1567786D03*
X2645442Y1561286D03*
X2645442Y1554786D03*
X2645442Y1548286D03*
X2645442Y1541786D03*
X2645442Y1535286D03*
X2645442Y1528786D03*
X2645442Y1522286D03*
X2645442Y1515786D03*
X2703798Y1515786D03*
X2703798Y1522286D03*
X2703798Y1528786D03*
X2703798Y1535286D03*
X2703798Y1541786D03*
X2703798Y1548286D03*
X2703798Y1554786D03*
X2703798Y1561286D03*
X2703798Y1567786D03*
X2703798Y1574286D03*
X2703798Y1580786D03*
X2703798Y1587286D03*
X2703798Y1593786D03*
X2703798Y1600286D03*
D32*
X2649410Y1828546D03*
X2664966Y1828546D03*
X2649410Y1803146D03*
X2664966Y1803146D03*
X2649410Y1777746D03*
X2664966Y1777746D03*
X2649730Y1752346D03*
X2665286Y1752346D03*
X2649730Y1726946D03*
X2665286Y1726946D03*
X2649730Y1701546D03*
X2665286Y1701546D03*
D22*
X2720340Y1567719D03*
X2720340Y1552163D03*
D24*
X2733294Y1608226D03*
X2733294Y1627226D03*
D22*
X2660904Y1385158D03*
X2660904Y1400714D03*
X2635504Y1446434D03*
X2635504Y1430878D03*
D21*
X438030Y2528570D03*
X423030Y2528570D03*
D32*
X409098Y2528570D03*
X393542Y2528570D03*
D34*
X434480Y2472944D03*
X411480Y2472944D03*
X388480Y2472944D03*
D35*
X411480Y2408936D03*
D16*
X447920Y2504440D03*
X430920Y2504440D03*
D36*
X391820Y2504440D03*
X410820Y2504440D03*
D22*
X386080Y2560162D03*
X386080Y2575718D03*
D37*
X419862Y1984970D03*
X419862Y1991470D03*
X419862Y1997970D03*
X419862Y2004470D03*
X419862Y2010970D03*
X419862Y2017470D03*
X419862Y2023970D03*
X419862Y2030470D03*
X419862Y2036970D03*
X419862Y2043470D03*
X362458Y2043470D03*
X362458Y2036970D03*
X362458Y2030470D03*
X362458Y2023970D03*
X362458Y2017470D03*
X362458Y2010970D03*
X362458Y2004470D03*
X362458Y1997970D03*
X362458Y1991470D03*
X362458Y1984970D03*
D10*
X548640Y2055740D03*
X548640Y2038740D03*
X528320Y2055740D03*
X528320Y2038740D03*
X528320Y2086220D03*
X528320Y2069220D03*
X548640Y2086220D03*
X548640Y2069220D03*
X472440Y2013340D03*
X472440Y2030340D03*
X508000Y2013340D03*
X508000Y2030340D03*
X490220Y2013340D03*
X490220Y2030340D03*
X444500Y2015880D03*
X444500Y2032880D03*
D38*
X1442720Y2471055D03*
X1442720Y2492105D03*
X1356360Y2509885D03*
X1356360Y2488835D03*
D39*
X1404620Y2470580D03*
X1395120Y2492580D03*
X1414120Y2492580D03*
D40*
X1434740Y2438527D03*
X1389740Y2438527D03*
D41*
X1412240Y2377440D03*
D42*
X162925Y601980D03*
X141875Y601980D03*
D38*
X210820Y670195D03*
X210820Y691245D03*
D39*
X203200Y611300D03*
X193700Y633300D03*
X212700Y633300D03*
D40*
X205380Y564007D03*
X160380Y564007D03*
D41*
X182880Y502920D03*
D38*
X1244600Y276495D03*
X1244600Y297545D03*
D42*
X1158605Y241300D03*
X1137555Y241300D03*
D39*
X1203960Y275160D03*
X1213460Y253160D03*
X1194460Y253160D03*
D43*
X1262253Y233320D03*
X1262253Y188320D03*
D44*
X1323340Y210820D03*
D45*
X165100Y2169160D03*
X165100Y2133600D03*
X165100Y2098040D03*
X165100Y2062480D03*
M02*
