G04 EAGLE Gerber X2 export*
%TF.Part,Single*%
%TF.FileFunction,Soldermask,Bot,1*%
%TF.FilePolarity,Negative*%
%TF.GenerationSoftware,Autodesk,EAGLE,8.6.1*%
%TF.CreationDate,2018-02-09T18:52:30Z*%
G75*
%MOMM*%
%FSLAX34Y34*%
%LPD*%
%AMOC8*
5,1,8,0,0,1.08239X$1,22.5*%
G01*
%ADD10C,3.378200*%
%ADD11C,14.427200*%
%ADD12C,2.743200*%
%ADD13C,2.997200*%
%ADD14R,1.711200X1.711200*%
%ADD15C,1.711200*%
%ADD16C,3.403200*%
%ADD17R,2.082800X2.082800*%
%ADD18C,2.082800*%
%ADD19C,1.953200*%
%ADD20C,1.727200*%
%ADD21P,3.656530X8X22.500000*%
%ADD22R,3.503200X0.703200*%
%ADD23R,3.503200X1.503200*%
%ADD24R,0.703200X0.653200*%
%ADD25P,4.343848X8X22.500000*%
%ADD26P,4.343848X8X202.500000*%
%ADD27C,1.359600*%


D10*
X1144270Y574802D03*
X1703070Y574802D03*
X2068576Y865124D03*
X2068576Y1423924D03*
X2068576Y1982724D03*
X1703070Y2272792D03*
X1144270Y2272792D03*
X778764Y1982724D03*
X778764Y1423924D03*
X778764Y865124D03*
D11*
X1423670Y1423670D03*
D12*
X757606Y2680564D02*
X757606Y2705964D01*
X605206Y2705964D02*
X605206Y2680564D01*
D13*
X681406Y2693264D03*
D14*
X1647088Y2751252D03*
D15*
X1634388Y2725852D03*
X1621688Y2751252D03*
X1608988Y2725852D03*
X1596288Y2751252D03*
X1583588Y2725852D03*
X1570888Y2751252D03*
X1558188Y2725852D03*
D16*
X1659788Y2814752D03*
X1545488Y2814752D03*
D14*
X1857908Y2751252D03*
D15*
X1845208Y2725852D03*
X1832508Y2751252D03*
X1819808Y2725852D03*
X1807108Y2751252D03*
X1794408Y2725852D03*
X1781708Y2751252D03*
X1769008Y2725852D03*
D16*
X1870608Y2814752D03*
X1756308Y2814752D03*
D10*
X2073808Y2756840D03*
X2105558Y2096440D03*
X2524658Y2096440D03*
X2556408Y2756840D03*
D17*
X2061108Y2699690D03*
D18*
X2086508Y2699690D03*
X2061108Y2674290D03*
X2086508Y2674290D03*
X2061108Y2648890D03*
X2086508Y2648890D03*
X2061108Y2623490D03*
X2086508Y2623490D03*
X2061108Y2598090D03*
X2086508Y2598090D03*
X2061108Y2572690D03*
X2086508Y2572690D03*
X2061108Y2547290D03*
X2086508Y2547290D03*
X2061108Y2521890D03*
X2086508Y2521890D03*
X2061108Y2496490D03*
X2086508Y2496490D03*
X2061108Y2471090D03*
X2086508Y2471090D03*
X2061108Y2445690D03*
X2086508Y2445690D03*
X2061108Y2420290D03*
X2086508Y2420290D03*
X2061108Y2394890D03*
X2086508Y2394890D03*
X2061108Y2369490D03*
X2086508Y2369490D03*
X2061108Y2344090D03*
X2086508Y2344090D03*
X2061108Y2318690D03*
X2086508Y2318690D03*
X2061108Y2293290D03*
X2086508Y2293290D03*
X2061108Y2267890D03*
X2086508Y2267890D03*
X2061108Y2242490D03*
X2086508Y2242490D03*
X2061108Y2217090D03*
X2086508Y2217090D03*
X2061108Y2191690D03*
X2086508Y2191690D03*
X2061108Y2166290D03*
X2086508Y2166290D03*
X2061108Y2140890D03*
X2086508Y2140890D03*
D17*
X2543708Y2699690D03*
D18*
X2569108Y2699690D03*
X2543708Y2674290D03*
X2569108Y2674290D03*
X2543708Y2648890D03*
X2569108Y2648890D03*
X2543708Y2623490D03*
X2569108Y2623490D03*
X2543708Y2598090D03*
X2569108Y2598090D03*
X2543708Y2572690D03*
X2569108Y2572690D03*
X2543708Y2547290D03*
X2569108Y2547290D03*
X2543708Y2521890D03*
X2569108Y2521890D03*
X2543708Y2496490D03*
X2569108Y2496490D03*
X2543708Y2471090D03*
X2569108Y2471090D03*
X2543708Y2445690D03*
X2569108Y2445690D03*
X2543708Y2420290D03*
X2569108Y2420290D03*
X2543708Y2394890D03*
X2569108Y2394890D03*
X2543708Y2369490D03*
X2569108Y2369490D03*
X2543708Y2344090D03*
X2569108Y2344090D03*
X2543708Y2318690D03*
X2569108Y2318690D03*
X2543708Y2293290D03*
X2569108Y2293290D03*
X2543708Y2267890D03*
X2569108Y2267890D03*
X2543708Y2242490D03*
X2569108Y2242490D03*
X2543708Y2217090D03*
X2569108Y2217090D03*
X2543708Y2191690D03*
X2569108Y2191690D03*
X2543708Y2166290D03*
X2569108Y2166290D03*
X2543708Y2140890D03*
X2569108Y2140890D03*
D19*
X509606Y2716444D03*
X484206Y2716444D03*
X458806Y2716444D03*
D20*
X599262Y1462430D02*
X614502Y1462430D01*
X614502Y1437030D02*
X599262Y1437030D01*
X599262Y1411630D02*
X614502Y1411630D01*
X614502Y1386230D02*
X599262Y1386230D01*
X599262Y1360830D02*
X614502Y1360830D01*
X614502Y1335430D02*
X599262Y1335430D01*
X337602Y1462430D02*
X322362Y1462430D01*
X322362Y1335430D02*
X337602Y1335430D01*
D15*
X2434844Y1819656D03*
X2434844Y1845056D03*
X2434844Y1870456D03*
X2434844Y1895856D03*
X2257044Y1895856D03*
X2257044Y1819656D03*
D21*
X2180844Y1813306D03*
X2180844Y1902206D03*
D15*
X2434844Y1654556D03*
X2434844Y1679956D03*
X2434844Y1705356D03*
X2434844Y1730756D03*
X2257044Y1730756D03*
X2257044Y1654556D03*
D21*
X2180844Y1648206D03*
X2180844Y1737106D03*
D15*
X2434844Y1489456D03*
X2434844Y1514856D03*
X2434844Y1540256D03*
X2434844Y1565656D03*
X2257044Y1565656D03*
X2257044Y1489456D03*
D21*
X2180844Y1483106D03*
X2180844Y1572006D03*
D15*
X2434844Y1324356D03*
X2434844Y1349756D03*
X2434844Y1375156D03*
X2434844Y1400556D03*
X2257044Y1400556D03*
X2257044Y1324356D03*
D21*
X2180844Y1318006D03*
X2180844Y1406906D03*
D15*
X2434844Y1159256D03*
X2434844Y1184656D03*
X2434844Y1210056D03*
X2434844Y1235456D03*
X2257044Y1235456D03*
X2257044Y1159256D03*
D21*
X2180844Y1152906D03*
X2180844Y1241806D03*
D15*
X2434844Y994156D03*
X2434844Y1019556D03*
X2434844Y1044956D03*
X2434844Y1070356D03*
X2257044Y1070356D03*
X2257044Y994156D03*
D21*
X2180844Y987806D03*
X2180844Y1076706D03*
D22*
X1283970Y1549624D03*
D23*
X1283970Y1563624D03*
D24*
X1283970Y1546374D03*
D22*
X1283970Y1577624D03*
D24*
X1283970Y1580874D03*
D22*
X1563370Y1549624D03*
D23*
X1563370Y1563624D03*
D24*
X1563370Y1546374D03*
D22*
X1563370Y1577624D03*
D24*
X1563370Y1580874D03*
D22*
X1283970Y711424D03*
D23*
X1283970Y725424D03*
D24*
X1283970Y708174D03*
D22*
X1283970Y739424D03*
D24*
X1283970Y742674D03*
D22*
X1004570Y2108424D03*
D23*
X1004570Y2122424D03*
D24*
X1004570Y2105174D03*
D22*
X1004570Y2136424D03*
D24*
X1004570Y2139674D03*
D22*
X1842770Y1549624D03*
D23*
X1842770Y1563624D03*
D24*
X1842770Y1546374D03*
D22*
X1842770Y1577624D03*
D24*
X1842770Y1580874D03*
D22*
X1563370Y990824D03*
D23*
X1563370Y1004824D03*
D24*
X1563370Y987574D03*
D22*
X1563370Y1018824D03*
D24*
X1563370Y1022074D03*
D22*
X1283970Y2108424D03*
D23*
X1283970Y2122424D03*
D24*
X1283970Y2105174D03*
D22*
X1283970Y2136424D03*
D24*
X1283970Y2139674D03*
D22*
X1004570Y711424D03*
D23*
X1004570Y725424D03*
D24*
X1004570Y708174D03*
D22*
X1004570Y739424D03*
D24*
X1004570Y742674D03*
D22*
X1842770Y711424D03*
D23*
X1842770Y725424D03*
D24*
X1842770Y708174D03*
D22*
X1842770Y739424D03*
D24*
X1842770Y742674D03*
D22*
X1563370Y1829024D03*
D23*
X1563370Y1843024D03*
D24*
X1563370Y1825774D03*
D22*
X1563370Y1857024D03*
D24*
X1563370Y1860274D03*
D22*
X1283970Y1270224D03*
D23*
X1283970Y1284224D03*
D24*
X1283970Y1266974D03*
D22*
X1283970Y1298224D03*
D24*
X1283970Y1301474D03*
D22*
X1563370Y711424D03*
D23*
X1563370Y725424D03*
D24*
X1563370Y708174D03*
D22*
X1563370Y739424D03*
D24*
X1563370Y742674D03*
D22*
X1004570Y1829024D03*
D23*
X1004570Y1843024D03*
D24*
X1004570Y1825774D03*
D22*
X1004570Y1857024D03*
D24*
X1004570Y1860274D03*
D22*
X1842770Y1270224D03*
D23*
X1842770Y1284224D03*
D24*
X1842770Y1266974D03*
D22*
X1842770Y1298224D03*
D24*
X1842770Y1301474D03*
D22*
X1563370Y2108424D03*
D23*
X1563370Y2122424D03*
D24*
X1563370Y2105174D03*
D22*
X1563370Y2136424D03*
D24*
X1563370Y2139674D03*
D22*
X1283970Y990824D03*
D23*
X1283970Y1004824D03*
D24*
X1283970Y987574D03*
D22*
X1283970Y1018824D03*
D24*
X1283970Y1022074D03*
D22*
X1004570Y1549624D03*
D23*
X1004570Y1563624D03*
D24*
X1004570Y1546374D03*
D22*
X1004570Y1577624D03*
D24*
X1004570Y1580874D03*
D22*
X1842770Y1829024D03*
D23*
X1842770Y1843024D03*
D24*
X1842770Y1825774D03*
D22*
X1842770Y1857024D03*
D24*
X1842770Y1860274D03*
D22*
X1004570Y1270224D03*
D23*
X1004570Y1284224D03*
D24*
X1004570Y1266974D03*
D22*
X1004570Y1298224D03*
D24*
X1004570Y1301474D03*
D22*
X1842770Y2108424D03*
D23*
X1842770Y2122424D03*
D24*
X1842770Y2105174D03*
D22*
X1842770Y2136424D03*
D24*
X1842770Y2139674D03*
D22*
X1563370Y1270224D03*
D23*
X1563370Y1284224D03*
D24*
X1563370Y1266974D03*
D22*
X1563370Y1298224D03*
D24*
X1563370Y1301474D03*
D22*
X1283970Y1829024D03*
D23*
X1283970Y1843024D03*
D24*
X1283970Y1825774D03*
D22*
X1283970Y1857024D03*
D24*
X1283970Y1860274D03*
D22*
X1004570Y990824D03*
D23*
X1004570Y1004824D03*
D24*
X1004570Y987574D03*
D22*
X1004570Y1018824D03*
D24*
X1004570Y1022074D03*
D22*
X1842770Y990824D03*
D23*
X1842770Y1004824D03*
D24*
X1842770Y987574D03*
D22*
X1842770Y1018824D03*
D24*
X1842770Y1022074D03*
D19*
X376840Y2715580D03*
X351440Y2715580D03*
X326040Y2715580D03*
D25*
X1490980Y2367280D03*
X1490980Y2453640D03*
D26*
X83820Y490220D03*
X83820Y568960D03*
D25*
X1397000Y287020D03*
X1318260Y289560D03*
X1051560Y88900D03*
X1099820Y88900D03*
X1267460Y91440D03*
X1338580Y91440D03*
D27*
X1993900Y2674620D03*
X1971040Y2674620D03*
M02*
