%
M48
M72
T01C0.01378
T02C0.03937
T03C0.04000
T04C0.05200
T05C0.08661
T06C0.11000
T07C0.12598
T08C0.15000
%
T01
X181320Y88800
X204320Y101800
X224820Y86300
X228320Y72800
X207666Y67146
X207320Y60800
X231320Y37800
X256320Y108800
X297320Y134800
X305320Y122800
X328320Y132800
X348820Y128050
X366320Y131050
X343820Y105050
X332320Y105050
X352320Y88800
X368820Y77800
X352320Y60800
X340070Y56800
X326070Y63300
X324320Y78550
X371320Y28800
X408320Y56800
X471320Y59800
X480320Y66800
X468320Y103800
X462320Y103800
X456320Y103800
X481320Y115800
X496320Y129800
X481320Y143800
X468320Y161800
X462320Y161800
X456320Y161800
X410320Y137800
X398320Y156800
X375070Y168550
X342320Y187550
X327570Y169800
X306320Y202800
X297320Y214800
X256320Y188800
X224820Y166300
X228320Y152800
X207666Y147146
X207320Y140800
X181320Y168800
X204320Y181800
X207320Y220800
X207666Y227146
X228320Y232800
X224820Y246300
X204320Y261800
X181320Y248800
X207320Y300800
X207666Y307146
X228320Y312800
X224820Y326300
X204320Y341800
X181320Y328800
X256320Y348800
X296320Y372800
X364320Y373800
X408320Y352800
X417320Y352800
X418320Y337800
X417320Y326800
X417320Y315800
X427320Y301800
X435320Y315800
X434320Y321800
X442331Y326062
X442320Y333800
X433320Y335800
X453320Y352800
X481320Y326800
X504320Y329800
X509320Y298800
X472320Y277800
X505320Y267800
X484320Y247800
X438320Y264800
X435320Y277800
X427320Y288800
X399320Y311800
X388320Y319800
X399320Y322800
X389320Y301800
X366320Y317800
X348320Y317800
X375320Y282800
X354320Y275800
X333320Y275800
X305320Y282800
X297320Y294800
X256320Y268800
X337320Y244800
X346320Y237800
X366320Y212800
X380320Y223800
X423320Y256800
X448320Y198800
X481320Y195800
T02
X461320Y237300
X451320Y242300
X461320Y247300
X461320Y257300
X451320Y262300
X451320Y272300
X461320Y267300
X451320Y252300
X461320Y302300
X461320Y312300
X451320Y317300
X451320Y327300
X461320Y332300
X461320Y322300
X451320Y337300
X451320Y307300
X293320Y307300
X293320Y317300
X293320Y327300
X293320Y337300
X293320Y257300
X293320Y247300
X293320Y237300
X293320Y227300
X293320Y177300
X293320Y167300
X293320Y157300
X293320Y147300
X293320Y97300
X293320Y87300
X293320Y77300
X293320Y67300
T03
X276320Y67300
X276320Y77300
X276320Y87300
X276320Y97300
X241320Y92300
X241320Y82300
X241320Y72300
X171320Y72300
X171320Y82300
X171320Y92300
X141320Y82300
X141320Y72300
X141320Y152300
X141320Y162300
X171320Y162300
X171320Y172300
X171320Y152300
X241320Y152300
X241320Y162300
X241320Y172300
X276320Y177300
X276320Y167300
X276320Y157300
X276320Y147300
X276320Y227300
X276320Y237300
X276320Y247300
X276320Y257300
X241320Y252300
X241320Y242300
X241320Y232300
X171320Y232300
X171320Y242300
X171320Y252300
X141320Y242300
X141320Y232300
X141320Y312300
X141320Y322300
X171320Y322300
X171320Y332300
X171320Y312300
X241320Y312300
X241320Y322300
X241320Y332300
X276320Y337300
X276320Y327300
X276320Y317300
X276320Y307300
T04
X426320Y179800
X426320Y119800
T05
X121320Y62300
X121320Y102300
X121320Y142300
X121320Y182300
X121320Y222300
X121320Y262300
X121320Y302300
X121320Y342300
T06
X426320Y149800
T07
X486320Y232300
X486320Y277300
X486320Y297300
X486320Y342300
T08
X506320Y374800
X126320Y374800
X126320Y29800
X506320Y29800
M30
