G75*
%MOIN*%
%OFA0B0*%
%FSLAX25Y25*%
%IPPOS*%
%LPD*%
%AMOC8*
5,1,8,0,0,1.08239X$1,22.5*
%
%ADD10R,0.04437X0.04831*%
%ADD11R,0.03475X0.03650*%
%ADD12R,0.07900X0.07900*%
%ADD13C,0.07900*%
%ADD14R,0.02700X0.08300*%
%ADD15C,0.13161*%
%ADD16C,0.06500*%
%ADD17C,0.06406*%
%ADD18C,0.15500*%
%ADD19R,0.03650X0.03650*%
%ADD20R,0.03800X0.06800*%
%ADD21R,0.12700X0.06800*%
%ADD22R,0.04831X0.04437*%
%ADD23R,0.05618X0.06406*%
%ADD24R,0.06800X0.05100*%
%ADD25R,0.07200X0.11600*%
%ADD26R,0.03650X0.03475*%
%ADD27C,0.02862*%
%ADD28R,0.06406X0.05618*%
%ADD29R,0.09949X0.10736*%
%ADD30R,0.02862X0.09161*%
%ADD31R,0.09600X0.29200*%
%ADD32R,0.06406X0.04634*%
%ADD33R,0.06406X0.09949*%
%ADD34R,0.07600X0.10900*%
%ADD35C,0.10500*%
%ADD36C,0.11500*%
%ADD37R,0.17823X0.13492*%
%ADD38R,0.27075X0.15854*%
%ADD39R,0.24909X0.15854*%
%ADD40R,0.06917X0.09084*%
%ADD41R,0.01681X0.06012*%
%ADD42R,0.06406X0.06406*%
%ADD43C,0.06406*%
%ADD44C,0.13098*%
D10*
X0197320Y0060453D03*
X0197320Y0067146D03*
X0197320Y0095453D03*
X0197320Y0102146D03*
X0197320Y0140453D03*
X0197320Y0147146D03*
X0197320Y0175453D03*
X0197320Y0182146D03*
X0197320Y0220453D03*
X0197320Y0227146D03*
X0197320Y0255453D03*
X0197320Y0262146D03*
X0197320Y0300453D03*
X0197320Y0307146D03*
X0197320Y0335453D03*
X0197320Y0342146D03*
X0256320Y0339146D03*
X0256320Y0332453D03*
X0256320Y0319146D03*
X0256320Y0312453D03*
X0256320Y0259146D03*
X0256320Y0252453D03*
X0256320Y0239146D03*
X0256320Y0232453D03*
X0256320Y0179146D03*
X0256320Y0172453D03*
X0256320Y0159146D03*
X0256320Y0152453D03*
X0256320Y0099146D03*
X0256320Y0092453D03*
X0256320Y0079146D03*
X0256320Y0072453D03*
X0444320Y0071453D03*
X0444320Y0078146D03*
D11*
X0349382Y0095800D03*
X0343258Y0095800D03*
X0337382Y0095800D03*
X0331258Y0095800D03*
X0198382Y0088800D03*
X0198382Y0083800D03*
X0198382Y0078800D03*
X0192258Y0078800D03*
X0192258Y0083800D03*
X0192258Y0088800D03*
X0192258Y0073800D03*
X0198382Y0073800D03*
X0198382Y0153800D03*
X0198382Y0158800D03*
X0198382Y0163800D03*
X0192258Y0163800D03*
X0192258Y0158800D03*
X0192258Y0153800D03*
X0192258Y0168800D03*
X0198382Y0168800D03*
X0198382Y0233800D03*
X0192258Y0233800D03*
X0192258Y0238800D03*
X0192258Y0243800D03*
X0192258Y0248800D03*
X0198382Y0248800D03*
X0198382Y0243800D03*
X0198382Y0238800D03*
X0198382Y0313800D03*
X0198382Y0318800D03*
X0198382Y0323800D03*
X0192258Y0323800D03*
X0192258Y0318800D03*
X0192258Y0313800D03*
X0192258Y0328800D03*
X0198382Y0328800D03*
X0341258Y0291300D03*
X0347382Y0291300D03*
X0421258Y0296300D03*
X0427382Y0296300D03*
X0427382Y0307300D03*
X0421258Y0307300D03*
X0419758Y0348800D03*
X0425882Y0348800D03*
X0431758Y0348800D03*
X0437882Y0348800D03*
D12*
X0276320Y0307300D03*
X0276320Y0227300D03*
X0276320Y0147300D03*
X0276320Y0067300D03*
D13*
X0276320Y0077300D03*
X0276320Y0087300D03*
X0276320Y0097300D03*
X0276320Y0157300D03*
X0276320Y0167300D03*
X0276320Y0177300D03*
X0276320Y0237300D03*
X0276320Y0247300D03*
X0276320Y0257300D03*
X0276320Y0317300D03*
X0276320Y0327300D03*
X0276320Y0337300D03*
D14*
X0224820Y0333500D03*
X0219820Y0333500D03*
X0214820Y0333500D03*
X0209820Y0333500D03*
X0209820Y0314100D03*
X0214820Y0314100D03*
X0219820Y0314100D03*
X0224820Y0314100D03*
X0224820Y0253500D03*
X0219820Y0253500D03*
X0214820Y0253500D03*
X0209820Y0253500D03*
X0209820Y0234100D03*
X0214820Y0234100D03*
X0219820Y0234100D03*
X0224820Y0234100D03*
X0224820Y0173500D03*
X0219820Y0173500D03*
X0214820Y0173500D03*
X0209820Y0173500D03*
X0209820Y0154100D03*
X0214820Y0154100D03*
X0219820Y0154100D03*
X0224820Y0154100D03*
X0224820Y0093500D03*
X0219820Y0093500D03*
X0214820Y0093500D03*
X0209820Y0093500D03*
X0209820Y0074100D03*
X0214820Y0074100D03*
X0219820Y0074100D03*
X0224820Y0074100D03*
D15*
X0121320Y0062300D03*
X0121320Y0102300D03*
X0121320Y0142300D03*
X0121320Y0182300D03*
X0121320Y0222300D03*
X0121320Y0262300D03*
X0121320Y0302300D03*
X0121320Y0342300D03*
D16*
X0138320Y0322300D02*
X0144320Y0322300D01*
X0144320Y0312300D02*
X0138320Y0312300D01*
X0168320Y0312300D02*
X0174320Y0312300D01*
X0174320Y0322300D02*
X0168320Y0322300D01*
X0168320Y0332300D02*
X0174320Y0332300D01*
X0238320Y0332300D02*
X0244320Y0332300D01*
X0244320Y0322300D02*
X0238320Y0322300D01*
X0238320Y0312300D02*
X0244320Y0312300D01*
X0244320Y0252300D02*
X0238320Y0252300D01*
X0238320Y0242300D02*
X0244320Y0242300D01*
X0244320Y0232300D02*
X0238320Y0232300D01*
X0174320Y0232300D02*
X0168320Y0232300D01*
X0168320Y0242300D02*
X0174320Y0242300D01*
X0174320Y0252300D02*
X0168320Y0252300D01*
X0144320Y0242300D02*
X0138320Y0242300D01*
X0138320Y0232300D02*
X0144320Y0232300D01*
X0168320Y0172300D02*
X0174320Y0172300D01*
X0174320Y0162300D02*
X0168320Y0162300D01*
X0168320Y0152300D02*
X0174320Y0152300D01*
X0144320Y0152300D02*
X0138320Y0152300D01*
X0138320Y0162300D02*
X0144320Y0162300D01*
X0168320Y0092300D02*
X0174320Y0092300D01*
X0174320Y0082300D02*
X0168320Y0082300D01*
X0168320Y0072300D02*
X0174320Y0072300D01*
X0144320Y0072300D02*
X0138320Y0072300D01*
X0138320Y0082300D02*
X0144320Y0082300D01*
X0238320Y0082300D02*
X0244320Y0082300D01*
X0244320Y0092300D02*
X0238320Y0092300D01*
X0238320Y0072300D02*
X0244320Y0072300D01*
X0244320Y0152300D02*
X0238320Y0152300D01*
X0238320Y0162300D02*
X0244320Y0162300D01*
X0244320Y0172300D02*
X0238320Y0172300D01*
D17*
X0290367Y0177300D02*
X0296273Y0177300D01*
X0296273Y0167300D02*
X0290367Y0167300D01*
X0290367Y0157300D02*
X0296273Y0157300D01*
X0296273Y0147300D02*
X0290367Y0147300D01*
X0290367Y0097300D02*
X0296273Y0097300D01*
X0296273Y0087300D02*
X0290367Y0087300D01*
X0290367Y0077300D02*
X0296273Y0077300D01*
X0296273Y0067300D02*
X0290367Y0067300D01*
X0290367Y0227300D02*
X0296273Y0227300D01*
X0296273Y0237300D02*
X0290367Y0237300D01*
X0290367Y0247300D02*
X0296273Y0247300D01*
X0296273Y0257300D02*
X0290367Y0257300D01*
X0290367Y0307300D02*
X0296273Y0307300D01*
X0296273Y0317300D02*
X0290367Y0317300D01*
X0290367Y0327300D02*
X0296273Y0327300D01*
X0296273Y0337300D02*
X0290367Y0337300D01*
D18*
X0126320Y0374800D03*
X0506320Y0374800D03*
X0506320Y0029800D03*
X0126320Y0029800D03*
D19*
X0349320Y0117597D03*
X0349320Y0123502D03*
X0461320Y0071752D03*
X0461320Y0065847D03*
X0363773Y0291300D03*
X0357867Y0291300D03*
D20*
X0357375Y0269400D03*
X0348320Y0269400D03*
X0339265Y0269400D03*
D21*
X0348320Y0244200D03*
D22*
X0355974Y0281800D03*
X0362666Y0281800D03*
D23*
X0348060Y0281800D03*
X0340580Y0281800D03*
D24*
X0358320Y0303800D03*
X0358320Y0309800D03*
X0367320Y0185800D03*
X0367320Y0179800D03*
D25*
X0367320Y0182800D03*
X0358320Y0306800D03*
D26*
X0338320Y0309862D03*
X0338320Y0303738D03*
X0412820Y0319738D03*
X0412820Y0325862D03*
X0412820Y0331738D03*
X0412820Y0337862D03*
X0412820Y0343738D03*
X0412820Y0349862D03*
X0438320Y0341862D03*
X0438320Y0335738D03*
X0349320Y0112362D03*
X0349320Y0106238D03*
X0453320Y0077862D03*
X0453320Y0071738D03*
D27*
X0403320Y0104800D03*
X0384320Y0083300D03*
X0380320Y0051800D03*
X0403320Y0181800D03*
X0383320Y0193800D03*
X0457320Y0216800D03*
X0374320Y0249800D03*
X0329320Y0272800D03*
X0374320Y0298800D03*
X0399320Y0299800D03*
X0399320Y0303800D03*
X0404320Y0311800D03*
X0404320Y0327800D03*
X0404320Y0352800D03*
D28*
X0426320Y0078540D03*
X0435320Y0078540D03*
X0435320Y0071060D03*
X0426320Y0071060D03*
X0361320Y0074540D03*
X0361320Y0067060D03*
D29*
X0368320Y0088201D03*
X0368320Y0113398D03*
D30*
X0347820Y0083036D03*
X0342820Y0083036D03*
X0337820Y0083036D03*
X0332820Y0083036D03*
X0332820Y0062564D03*
X0337820Y0062564D03*
X0342820Y0062564D03*
X0347820Y0062564D03*
D31*
X0328270Y0150800D03*
X0374370Y0150800D03*
D32*
X0327820Y0124668D03*
D33*
X0327820Y0115416D03*
D34*
X0425970Y0091800D03*
X0446670Y0091800D03*
D35*
X0431320Y0119800D02*
X0421320Y0119800D01*
X0421320Y0179800D02*
X0431320Y0179800D01*
D36*
X0426320Y0149800D03*
D37*
X0466659Y0172359D03*
X0466659Y0092359D03*
D38*
X0501895Y0064406D03*
X0501895Y0144406D03*
D39*
X0501895Y0115193D03*
X0501895Y0195193D03*
D40*
X0414320Y0082112D03*
X0414320Y0067488D03*
D41*
X0421883Y0318138D03*
X0423851Y0318138D03*
X0425820Y0318138D03*
X0427788Y0318138D03*
X0429757Y0318138D03*
X0429757Y0335461D03*
X0427788Y0335461D03*
X0425820Y0335461D03*
X0423851Y0335461D03*
X0421883Y0335461D03*
D42*
X0461320Y0302300D03*
X0461320Y0237300D03*
D43*
X0451320Y0242300D03*
X0461320Y0247300D03*
X0461320Y0257300D03*
X0451320Y0262300D03*
X0451320Y0272300D03*
X0461320Y0267300D03*
X0451320Y0252300D03*
X0451320Y0307300D03*
X0461320Y0312300D03*
X0451320Y0317300D03*
X0451320Y0327300D03*
X0461320Y0332300D03*
X0461320Y0322300D03*
X0451320Y0337300D03*
D44*
X0486320Y0342300D03*
X0486320Y0297300D03*
X0486320Y0277300D03*
X0486320Y0232300D03*
M02*
