  0
SECTION
  2
HEADER
  9
$ACADVER
  1
AC1015
  9
$ACADMAINTVER
 70
     6
  9
$DWGCODEPAGE
  3
ANSI_1252
  9
$INSBASE
 10
0.0
 20
0.0
 30
0.0
  9
$EXTMIN
 10
-14.118544629
 20
-11.7766742676
 30
0.0
  9
$EXTMAX
 10
-2.904815818
 20
-0.5644663098
 30
0.0
  9
$LIMMIN
 10
0.0
 20
0.0
  9
$LIMMAX
 10
12.0
 20
9.0
  9
$ORTHOMODE
 70
     0
  9
$REGENMODE
 70
     1
  9
$FILLMODE
 70
     1
  9
$QTEXTMODE
 70
     0
  9
$MIRRTEXT
 70
     1
  9
$LTSCALE
 40
1.0
  9
$ATTMODE
 70
     1
  9
$TEXTSIZE
 40
0.1377952756
  9
$TRACEWID
 40
0.05
  9
$TEXTSTYLE
  7
Standard
  9
$CLAYER
  8
0
  9
$CELTYPE
  6
ByLayer
  9
$CECOLOR
 62
   256
  9
$CELTSCALE
 40
1.0
  9
$DISPSILH
 70
     0
  9
$DIMSCALE
 40
1.0
  9
$DIMASZ
 40
0.13
  9
$DIMEXO
 40
0.0393700787
  9
$DIMDLI
 40
0.38
  9
$DIMRND
 40
0.0
  9
$DIMDLE
 40
0.0
  9
$DIMEXE
 40
0.0393700787
  9
$DIMTP
 40
0.0
  9
$DIMTM
 40
0.0
  9
$DIMTXT
 40
0.1377952756
  9
$DIMCEN
 40
0.09
  9
$DIMTSZ
 40
0.0
  9
$DIMTOL
 70
     0
  9
$DIMLIM
 70
     0
  9
$DIMTIH
 70
     1
  9
$DIMTOH
 70
     1
  9
$DIMSE1
 70
     0
  9
$DIMSE2
 70
     0
  9
$DIMTAD
 70
     1
  9
$DIMZIN
 70
     0
  9
$DIMBLK
  1

  9
$DIMASO
 70
     1
  9
$DIMSHO
 70
     1
  9
$DIMPOST
  1

  9
$DIMAPOST
  1

  9
$DIMALT
 70
     0
  9
$DIMALTD
 70
     2
  9
$DIMALTF
 40
25.4
  9
$DIMLFAC
 40
1.0
  9
$DIMTOFL
 70
     0
  9
$DIMTVP
 40
0.0
  9
$DIMTIX
 70
     0
  9
$DIMSOXD
 70
     0
  9
$DIMSAH
 70
     0
  9
$DIMBLK1
  1

  9
$DIMBLK2
  1

  9
$DIMSTYLE
  2
Standard
  9
$DIMCLRD
 70
     0
  9
$DIMCLRE
 70
     0
  9
$DIMCLRT
 70
     0
  9
$DIMTFAC
 40
1.0
  9
$DIMGAP
 40
0.06
  9
$DIMJUST
 70
     0
  9
$DIMSD1
 70
     0
  9
$DIMSD2
 70
     0
  9
$DIMTOLJ
 70
     1
  9
$DIMTZIN
 70
     0
  9
$DIMALTZ
 70
     0
  9
$DIMALTTZ
 70
     0
  9
$DIMUPT
 70
     0
  9
$DIMDEC
 70
     2
  9
$DIMTDEC
 70
     2
  9
$DIMALTU
 70
     2
  9
$DIMALTTD
 70
     2
  9
$DIMTXSTY
  7
Standard
  9
$DIMAUNIT
 70
     0
  9
$DIMADEC
 70
     2
  9
$DIMALTRND
 40
0.0
  9
$DIMAZIN
 70
     0
  9
$DIMDSEP
 70
    46
  9
$DIMATFIT
 70
     3
  9
$DIMFRAC
 70
     0
  9
$DIMLDRBLK
  1

  9
$DIMLUNIT
 70
     2
  9
$DIMLWD
 70
    -2
  9
$DIMLWE
 70
    -2
  9
$DIMTMOVE
 70
     0
  9
$LUNITS
 70
     2
  9
$LUPREC
 70
     2
  9
$SKETCHINC
 40
0.1
  9
$FILLETRAD
 40
0.5
  9
$AUNITS
 70
     0
  9
$AUPREC
 70
     2
  9
$MENU
  1
.
  9
$ELEVATION
 40
0.0
  9
$PELEVATION
 40
0.0
  9
$THICKNESS
 40
0.0
  9
$LIMCHECK
 70
     0
  9
$CHAMFERA
 40
0.0
  9
$CHAMFERB
 40
0.0
  9
$CHAMFERC
 40
0.0
  9
$CHAMFERD
 40
0.0
  9
$SKPOLY
 70
     0
  9
$TDCREATE
 40
2458157.641606238
  9
$TDUCREATE
 40
2458157.849939572
  9
$TDUPDATE
 40
2458157.641726667
  9
$TDUUPDATE
 40
2458157.85006
  9
$TDINDWG
 40
0.0000000116
  9
$TDUSRTIMER
 40
0.0000000116
  9
$USRTIMER
 70
     1
  9
$ANGBASE
 50
0.0
  9
$ANGDIR
 70
     0
  9
$PDMODE
 70
     0
  9
$PDSIZE
 40
-1.0
  9
$PLINEWID
 40
0.0
  9
$SPLFRAME
 70
     0
  9
$SPLINETYPE
 70
     6
  9
$SPLINESEGS
 70
     8
  9
$HANDSEED
  5
DC
  9
$SURFTAB1
 70
     6
  9
$SURFTAB2
 70
     6
  9
$SURFTYPE
 70
     6
  9
$SURFU
 70
     6
  9
$SURFV
 70
     6
  9
$UCSBASE
  2

  9
$UCSNAME
  2

  9
$UCSORG
 10
0.0
 20
0.0
 30
0.0
  9
$UCSXDIR
 10
1.0
 20
0.0
 30
0.0
  9
$UCSYDIR
 10
0.0
 20
1.0
 30
0.0
  9
$UCSORTHOREF
  2

  9
$UCSORTHOVIEW
 70
     0
  9
$UCSORGTOP
 10
0.0
 20
0.0
 30
0.0
  9
$UCSORGBOTTOM
 10
0.0
 20
0.0
 30
0.0
  9
$UCSORGLEFT
 10
0.0
 20
0.0
 30
0.0
  9
$UCSORGRIGHT
 10
0.0
 20
0.0
 30
0.0
  9
$UCSORGFRONT
 10
0.0
 20
0.0
 30
0.0
  9
$UCSORGBACK
 10
0.0
 20
0.0
 30
0.0
  9
$PUCSBASE
  2

  9
$PUCSNAME
  2

  9
$PUCSORG
 10
0.0
 20
0.0
 30
0.0
  9
$PUCSXDIR
 10
1.0
 20
0.0
 30
0.0
  9
$PUCSYDIR
 10
0.0
 20
1.0
 30
0.0
  9
$PUCSORTHOREF
  2

  9
$PUCSORTHOVIEW
 70
     0
  9
$PUCSORGTOP
 10
0.0
 20
0.0
 30
0.0
  9
$PUCSORGBOTTOM
 10
0.0
 20
0.0
 30
0.0
  9
$PUCSORGLEFT
 10
0.0
 20
0.0
 30
0.0
  9
$PUCSORGRIGHT
 10
0.0
 20
0.0
 30
0.0
  9
$PUCSORGFRONT
 10
0.0
 20
0.0
 30
0.0
  9
$PUCSORGBACK
 10
0.0
 20
0.0
 30
0.0
  9
$USERI1
 70
     0
  9
$USERI2
 70
     0
  9
$USERI3
 70
     0
  9
$USERI4
 70
     0
  9
$USERI5
 70
     0
  9
$USERR1
 40
0.0
  9
$USERR2
 40
0.0
  9
$USERR3
 40
0.0
  9
$USERR4
 40
0.0
  9
$USERR5
 40
0.0
  9
$WORLDVIEW
 70
     1
  9
$SHADEDGE
 70
     3
  9
$SHADEDIF
 70
    70
  9
$TILEMODE
 70
     1
  9
$MAXACTVP
 70
    64
  9
$PINSBASE
 10
0.0
 20
0.0
 30
0.0
  9
$PLIMCHECK
 70
     0
  9
$PEXTMIN
 10
1.0000000000E+20
 20
1.0000000000E+20
 30
1.0000000000E+20
  9
$PEXTMAX
 10
-1.0000000000E+20
 20
-1.0000000000E+20
 30
-1.0000000000E+20
  9
$PLIMMIN
 10
0.0
 20
0.0
  9
$PLIMMAX
 10
12.0
 20
9.0
  9
$UNITMODE
 70
     0
  9
$VISRETAIN
 70
     1
  9
$PLINEGEN
 70
     0
  9
$PSLTSCALE
 70
     1
  9
$TREEDEPTH
 70
  3020
  9
$CMLSTYLE
  2
Standard
  9
$CMLJUST
 70
     0
  9
$CMLSCALE
 40
1.0
  9
$PROXYGRAPHICS
 70
     1
  9
$MEASUREMENT
 70
     0
  9
$CELWEIGHT
370
    -1
  9
$ENDCAPS
280
     0
  9
$JOINSTYLE
280
     0
  9
$LWDISPLAY
290
     1
  9
$INSUNITS
 70
     1
  9
$HYPERLINKBASE
  1

  9
$STYLESHEET
  1

  9
$XEDIT
290
     1
  9
$CEPSNTYPE
380
     0
  9
$PSTYLEMODE
290
     1
  9
$FINGERPRINTGUID
  2
{32D71C3E-EC20-4A54-9BD3-B7D895CF4872}
  9
$VERSIONGUID
  2
{FAEB1C32-E019-11D5-929B-00C0DF256EC4}
  9
$EXTNAMES
290
     1
  9
$PSVPSCALE
 40
0.0
  9
$OLESTARTUP
290
     0
  0
ENDSEC
  0
SECTION
  2
CLASSES
  0
CLASS
  1
ACDBDICTIONARYWDFLT
  2
AcDbDictionaryWithDefault
  3
ObjectDBX Classes
 90
        0
280
     0
281
     0
  0
CLASS
  1
VISUALSTYLE
  2
AcDbVisualStyle
  3
ObjectDBX Classes
 90
     4095
280
     0
281
     0
  0
CLASS
  1
MATERIAL
  2
AcDbMaterial
  3
ObjectDBX Classes
 90
     1153
280
     0
281
     0
  0
CLASS
  1
SCALE
  2
AcDbScale
  3
ObjectDBX Classes
 90
     1153
280
     0
281
     0
  0
CLASS
  1
TABLESTYLE
  2
AcDbTableStyle
  3
ObjectDBX Classes
 90
     4095
280
     0
281
     0
  0
CLASS
  1
MLEADERSTYLE
  2
AcDbMLeaderStyle
  3
ACDB_MLEADERSTYLE_CLASS
 90
     4095
280
     0
281
     0
  0
CLASS
  1
SUN
  2
AcDbSun
  3
SCENEOE
 90
     1153
280
     0
281
     0
  0
CLASS
  1
ACDBPLACEHOLDER
  2
AcDbPlaceHolder
  3
ObjectDBX Classes
 90
        0
280
     0
281
     0
  0
CLASS
  1
LAYOUT
  2
AcDbLayout
  3
ObjectDBX Classes
 90
        0
280
     0
281
     0
  0
ENDSEC
  0
SECTION
  2
TABLES
  0
TABLE
  2
VPORT
  5
8
330
0
100
AcDbSymbolTable
 70
     1
  0
VPORT
  5
29
330
8
100
AcDbSymbolTableRecord
100
AcDbViewportTableRecord
  2
*Active
 70
     0
 10
0.0
 20
0.0
 11
1.0
 21
1.0
 12
-8.5116802235
 22
-6.1705702887
 13
0.0
 23
0.0
 14
0.5
 24
0.5
 15
0.5
 25
0.5
 16
0.0
 26
0.0
 36
1.0
 17
0.0
 27
0.0
 37
0.0
 40
11.436452117
 41
1.0001356426
 42
50.0
 43
0.0
 44
0.0
 50
0.0
 51
0.0
 71
     0
 72
   100
 73
     1
 74
     3
 75
     0
 76
     0
 77
     0
 78
     0
281
     0
 65
     1
110
0.0
120
0.0
130
0.0
111
1.0
121
0.0
131
0.0
112
0.0
122
1.0
132
0.0
 79
     0
146
0.0
  0
ENDTAB
  0
TABLE
  2
LTYPE
  5
5
330
0
100
AcDbSymbolTable
 70
     6
  0
LTYPE
  5
14
330
5
100
AcDbSymbolTableRecord
100
AcDbLinetypeTableRecord
  2
ByBlock
 70
     0
  3

 72
    65
 73
     0
 40
0.0
  0
LTYPE
  5
15
330
5
100
AcDbSymbolTableRecord
100
AcDbLinetypeTableRecord
  2
ByLayer
 70
     0
  3

 72
    65
 73
     0
 40
0.0
  0
LTYPE
  5
16
330
5
100
AcDbSymbolTableRecord
100
AcDbLinetypeTableRecord
  2
Continuous
 70
     0
  3
Solid line
 72
    65
 73
     0
 40
0.0
  0
LTYPE
  5
6E
330
5
100
AcDbSymbolTableRecord
100
AcDbLinetypeTableRecord
  2
HIDDEN
 70
     0
  3
Hidden __ __ __ __ __ __ __ __ __ __ __ __ __ __
 72
    65
 73
     2
 40
0.075
 49
0.05
 74
     0
 49
-0.025
 74
     0
  0
LTYPE
  5
6F
330
5
100
AcDbSymbolTableRecord
100
AcDbLinetypeTableRecord
  2
PHANTOM
 70
     0
  3
Phantom ______  __  __  ______  __  __  ______
 72
    65
 73
     6
 40
0.5
 49
0.25
 74
     0
 49
-0.05
 74
     0
 49
0.05
 74
     0
 49
-0.05
 74
     0
 49
0.05
 74
     0
 49
-0.05
 74
     0
  0
LTYPE
  5
70
330
5
100
AcDbSymbolTableRecord
100
AcDbLinetypeTableRecord
  2
CENTER
 70
     0
  3
Center ____ _ ____ _ ____ _ ____ _ ____ _ ____
 72
    65
 73
     4
 40
0.4
 49
0.25
 74
     0
 49
-0.05
 74
     0
 49
0.05
 74
     0
 49
-0.05
 74
     0
  0
LTYPE
  5
71
330
5
100
AcDbSymbolTableRecord
100
AcDbLinetypeTableRecord
  2
CENTERX2
 70
     0
  3
Center (2x) ________  __  ________  __  _____
 72
    65
 73
     4
 40
0.8
 49
0.5
 74
     0
 49
-0.1
 74
     0
 49
0.1
 74
     0
 49
-0.1
 74
     0
  0
LTYPE
  5
72
330
5
100
AcDbSymbolTableRecord
100
AcDbLinetypeTableRecord
  2
DOT2
 70
     0
  3
Dot (.5x) ........................................
 72
    65
 73
     2
 40
0.025
 49
0.0
 74
     0
 49
-0.025
 74
     0
  0
ENDTAB
  0
TABLE
  2
LAYER
  5
2
330
0
100
AcDbSymbolTable
 70
     1
  0
LAYER
  5
10
330
2
100
AcDbSymbolTableRecord
100
AcDbLayerTableRecord
  2
0
 70
     0
 62
     7
  6
Continuous
370
    -3
390
F
  0
ENDTAB
  0
TABLE
  2
STYLE
  5
3
330
0
100
AcDbSymbolTable
 70
     1
  0
STYLE
  5
11
330
3
100
AcDbSymbolTableRecord
100
AcDbTextStyleTableRecord
  2
Standard
 70
     0
 40
0.0
 41
1.0
 50
0.0
 71
     0
 42
0.1377952756
  3
txt
  4

  0
ENDTAB
  0
TABLE
  2
VIEW
  5
6
330
0
100
AcDbSymbolTable
 70
     0
  0
ENDTAB
  0
TABLE
  2
UCS
  5
7
330
0
100
AcDbSymbolTable
 70
     0
  0
ENDTAB
  0
TABLE
  2
APPID
  5
9
330
0
100
AcDbSymbolTable
 70
     1
  0
APPID
  5
12
330
9
100
AcDbSymbolTableRecord
100
AcDbRegAppTableRecord
  2
ACAD
 70
     0
  0
ENDTAB
  0
TABLE
  2
DIMSTYLE
  5
A
330
0
100
AcDbSymbolTable
 70
     1
100
AcDbDimStyleTable
  0
DIMSTYLE
105
27
330
A
100
AcDbSymbolTableRecord
100
AcDbDimStyleTableRecord
  2
Standard
 70
     0
178
     0
340
11
  0
ENDTAB
  0
TABLE
  2
BLOCK_RECORD
  5
1
330
0
100
AcDbSymbolTable
 70
     1
  0
BLOCK_RECORD
  5
1F
330
1
100
AcDbSymbolTableRecord
100
AcDbBlockTableRecord
  2
*Model_Space
340
22
  0
BLOCK_RECORD
  5
1B
330
1
100
AcDbSymbolTableRecord
100
AcDbBlockTableRecord
  2
*Paper_Space
340
1E
  0
BLOCK_RECORD
  5
23
330
1
100
AcDbSymbolTableRecord
100
AcDbBlockTableRecord
  2
*Paper_Space0
340
26
  0
ENDTAB
  0
ENDSEC
  0
SECTION
  2
BLOCKS
  0
BLOCK
  5
20
330
1F
100
AcDbEntity
  8
0
100
AcDbBlockBegin
  2
*Model_Space
 70
     0
 10
0.0
 20
0.0
 30
0.0
  3
*Model_Space
  1

  0
ENDBLK
  5
21
330
1F
100
AcDbEntity
  8
0
100
AcDbBlockEnd
  0
BLOCK
  5
1C
330
1B
100
AcDbEntity
 67
     1
  8
0
100
AcDbBlockBegin
  2
*Paper_Space
 70
     0
 10
0.0
 20
0.0
 30
0.0
  3
*Paper_Space
  1

  0
ENDBLK
  5
1D
330
1B
100
AcDbEntity
 67
     1
  8
0
100
AcDbBlockEnd
  0
BLOCK
  5
24
330
23
100
AcDbEntity
  8
0
100
AcDbBlockBegin
  2
*Paper_Space0
 70
     0
 10
0.0
 20
0.0
 30
0.0
  3
*Paper_Space0
  1

  0
ENDBLK
  5
25
330
23
100
AcDbEntity
  8
0
100
AcDbBlockEnd
  0
ENDSEC
  0
SECTION
  2
ENTITIES
  0
LINE
  5
73
330
1F
100
AcDbEntity
  8
0
  6
Continuous
 62
     7
370
    25
100
AcDbLine
 10
-3.7061041357
 20
-1.468713165
 30
0.0
 11
-3.6961042902
 21
-1.468713165
 31
0.0
  0
LINE
  5
74
330
1F
100
AcDbEntity
  8
0
  6
Continuous
 62
     7
370
    25
100
AcDbLine
 10
-3.7061041357
 20
-1.468713165
 30
0.0
 11
-3.7061041357
 21
-1.4437135514
 31
0.0
  0
LINE
  5
75
330
1F
100
AcDbEntity
  8
0
  6
Continuous
 62
     7
370
    25
100
AcDbLine
 10
-3.6961042902
 20
-1.4437135514
 30
0.0
 11
-3.7061041357
 21
-1.4437135514
 31
0.0
  0
LINE
  5
76
330
1F
100
AcDbEntity
  8
0
  6
Continuous
 62
     7
370
    25
100
AcDbLine
 10
-3.6961042902
 20
-1.468713165
 30
0.0
 11
-3.6961042902
 21
-1.4437135514
 31
0.0
  0
LINE
  5
77
330
1F
100
AcDbEntity
  8
0
  6
Continuous
 62
     7
370
    25
100
AcDbLine
 10
-3.7061041357
 20
-1.3687147105
 30
0.0
 11
-3.6961042902
 21
-1.3687147105
 31
0.0
  0
LINE
  5
78
330
1F
100
AcDbEntity
  8
0
  6
Continuous
 62
     7
370
    25
100
AcDbLine
 10
-3.7061041357
 20
-1.3687147105
 30
0.0
 11
-3.7061041357
 21
-1.3437150968
 31
0.0
  0
LINE
  5
79
330
1F
100
AcDbEntity
  8
0
  6
Continuous
 62
     7
370
    25
100
AcDbLine
 10
-3.6961042902
 20
-1.3437150968
 30
0.0
 11
-3.7061041357
 21
-1.3437150968
 31
0.0
  0
LINE
  5
7A
330
1F
100
AcDbEntity
  8
0
  6
Continuous
 62
     7
370
    25
100
AcDbLine
 10
-3.6961042902
 20
-1.3687147105
 30
0.0
 11
-3.6961042902
 21
-1.3437150968
 31
0.0
  0
LINE
  5
7B
330
1F
100
AcDbEntity
  8
0
  6
Continuous
 62
     7
370
    25
100
AcDbLine
 10
-3.7061041357
 20
-1.2687162559
 30
0.0
 11
-3.6961042902
 21
-1.2687162559
 31
0.0
  0
LINE
  5
7C
330
1F
100
AcDbEntity
  8
0
  6
Continuous
 62
     7
370
    25
100
AcDbLine
 10
-3.7061041357
 20
-1.2687162559
 30
0.0
 11
-3.7061041357
 21
-1.2437166422
 31
0.0
  0
LINE
  5
7D
330
1F
100
AcDbEntity
  8
0
  6
Continuous
 62
     7
370
    25
100
AcDbLine
 10
-3.6961042902
 20
-1.2437166422
 30
0.0
 11
-3.7061041357
 21
-1.2437166422
 31
0.0
  0
LINE
  5
7E
330
1F
100
AcDbEntity
  8
0
  6
Continuous
 62
     7
370
    25
100
AcDbLine
 10
-3.6961042902
 20
-1.2687162559
 30
0.0
 11
-3.6961042902
 21
-1.2437166422
 31
0.0
  0
LINE
  5
7F
330
1F
100
AcDbEntity
  8
0
  6
Continuous
 62
     7
370
    25
100
AcDbLine
 10
-3.7061041357
 20
-1.1687178013
 30
0.0
 11
-3.6961042902
 21
-1.1687178013
 31
0.0
  0
LINE
  5
80
330
1F
100
AcDbEntity
  8
0
  6
Continuous
 62
     7
370
    25
100
AcDbLine
 10
-3.7061041357
 20
-1.1687178013
 30
0.0
 11
-3.7061041357
 21
-1.1437181877
 31
0.0
  0
LINE
  5
81
330
1F
100
AcDbEntity
  8
0
  6
Continuous
 62
     7
370
    25
100
AcDbLine
 10
-3.6961042902
 20
-1.1437181877
 30
0.0
 11
-3.7061041357
 21
-1.1437181877
 31
0.0
  0
LINE
  5
82
330
1F
100
AcDbEntity
  8
0
  6
Continuous
 62
     7
370
    25
100
AcDbLine
 10
-3.6961042902
 20
-1.1687178013
 30
0.0
 11
-3.6961042902
 21
-1.1437181877
 31
0.0
  0
LINE
  5
83
330
1F
100
AcDbEntity
  8
0
  6
Continuous
 62
     7
370
    25
100
AcDbLine
 10
-5.8060716818
 20
-3.3436841884
 30
0.0
 11
-5.8510709864
 21
-3.3436841884
 31
0.0
  0
LINE
  5
84
330
1F
100
AcDbEntity
  8
0
  6
Continuous
 62
     7
370
    25
100
AcDbLine
 10
-5.8060716818
 20
-3.368683802
 30
0.0
 11
-5.8060716818
 21
-3.3436841884
 31
0.0
  0
LINE
  5
85
330
1F
100
AcDbEntity
  8
0
  6
Continuous
 62
     7
370
    25
100
AcDbLine
 10
-5.8510709864
 20
-3.368683802
 30
0.0
 11
-5.8060716818
 21
-3.368683802
 31
0.0
  0
LINE
  5
86
330
1F
100
AcDbEntity
  8
0
  6
Continuous
 62
     7
370
    25
100
AcDbLine
 10
-5.8510709864
 20
-3.3436841884
 30
0.0
 11
-5.8510709864
 21
-3.368683802
 31
0.0
  0
LINE
  5
87
330
1F
100
AcDbEntity
  8
0
  6
Continuous
 62
     7
370
    25
100
AcDbLine
 10
-6.6387351692
 20
-0.6678601728
 30
0.0
 11
-8.1492027834
 21
-0.6678601728
 31
0.0
  0
LINE
  5
88
330
1F
100
AcDbEntity
  8
0
  6
Continuous
 62
     7
370
    25
100
AcDbLine
 10
-8.1492027834
 20
-0.5644663098
 30
0.0
 11
-8.1492027834
 21
-0.6678601728
 31
0.0
  0
LINE
  5
89
330
1F
100
AcDbEntity
  8
0
  6
Continuous
 62
     7
370
    25
100
AcDbLine
 10
-8.1492027834
 20
-0.5644663098
 30
0.0
 11
-14.118544629
 21
-0.5644663098
 31
0.0
  0
LINE
  5
8A
330
1F
100
AcDbEntity
  8
0
  6
Continuous
 62
     7
370
    25
100
AcDbLine
 10
-14.118544629
 20
-0.5644663098
 30
0.0
 11
-14.118544629
 21
-11.7766742676
 31
0.0
  0
LINE
  5
8B
330
1F
100
AcDbEntity
  8
0
  6
Continuous
 62
     7
370
    25
100
AcDbLine
 10
-14.118544629
 20
-11.7766742676
 30
0.0
 11
-2.904815818
 21
-11.7766742676
 31
0.0
  0
LINE
  5
8C
330
1F
100
AcDbEntity
  8
0
  6
Continuous
 62
     7
370
    25
100
AcDbLine
 10
-2.904815818
 20
-11.7766742676
 30
0.0
 11
-2.904815818
 21
-0.5644663098
 31
0.0
  0
LINE
  5
8D
330
1F
100
AcDbEntity
  8
0
  6
Continuous
 62
     7
370
    25
100
AcDbLine
 10
-2.904815818
 20
-0.5644663098
 30
0.0
 11
-4.5410904587
 21
-0.5644663098
 31
0.0
  0
LINE
  5
8E
330
1F
100
AcDbEntity
  8
0
  6
Continuous
 62
     7
370
    25
100
AcDbLine
 10
-4.5410904587
 20
-0.5644663098
 30
0.0
 11
-4.5410904587
 21
-1.1487188831
 31
0.0
  0
LINE
  5
8F
330
1F
100
AcDbEntity
  8
0
  6
Continuous
 62
     7
370
    25
100
AcDbLine
 10
-5.2710807226
 20
-1.1487188831
 30
0.0
 11
-4.5410904587
 21
-1.1487188831
 31
0.0
  0
LINE
  5
90
330
1F
100
AcDbEntity
  8
0
  6
Continuous
 62
     7
370
    25
100
AcDbLine
 10
-5.2710807226
 20
-0.5644663098
 30
0.0
 11
-5.2710807226
 21
-1.1487188831
 31
0.0
  0
LINE
  5
91
330
1F
100
AcDbEntity
  8
0
  6
Continuous
 62
     7
370
    25
100
AcDbLine
 10
-5.2710807226
 20
-0.5644663098
 30
0.0
 11
-6.6387351692
 21
-0.5644663098
 31
0.0
  0
LINE
  5
92
330
1F
100
AcDbEntity
  8
0
  6
Continuous
 62
     7
370
    25
100
AcDbLine
 10
-6.6387351692
 20
-0.5644663098
 30
0.0
 11
-6.6387351692
 21
-0.6678601728
 31
0.0
  0
LINE
  5
93
330
1F
100
AcDbEntity
  8
0
  6
Continuous
 62
     7
370
    25
100
AcDbLine
 10
-3.7411035948
 20
-3.368683802
 30
0.0
 11
-3.6961042902
 21
-3.368683802
 31
0.0
  0
LINE
  5
94
330
1F
100
AcDbEntity
  8
0
  6
Continuous
 62
     7
370
    25
100
AcDbLine
 10
-3.7411035948
 20
-3.3436841884
 30
0.0
 11
-3.7411035948
 21
-3.368683802
 31
0.0
  0
LINE
  5
95
330
1F
100
AcDbEntity
  8
0
  6
Continuous
 62
     7
370
    25
100
AcDbLine
 10
-3.6961042902
 20
-3.3436841884
 30
0.0
 11
-3.7411035948
 21
-3.3436841884
 31
0.0
  0
LINE
  5
96
330
1F
100
AcDbEntity
  8
0
  6
Continuous
 62
     7
370
    25
100
AcDbLine
 10
-3.6961042902
 20
-3.368683802
 30
0.0
 11
-3.6961042902
 21
-3.3436841884
 31
0.0
  0
SPLINE
  5
97
330
1F
100
AcDbEntity
  8
0
  6
Continuous
 62
     7
370
    25
100
AcDbSpline
210
0.0
220
0.0
230
1.0
 70
    11
 71
     3
 72
    40
 73
    36
 74
     0
 42
0.000000001
 43
0.00000001
 40
0.0
 40
0.0
 40
0.0
 40
0.0
 40
0.0308145051820061
 40
0.0690195980213579
 40
0.1070552874480468
 40
0.1387701111641201
 40
0.1704532317345432
 40
0.2021820224608087
 40
0.2338777658580563
 40
0.2656394091010656
 40
0.2973659180324315
 40
0.3291287035574049
 40
0.3608571743074608
 40
0.392587009050666
 40
0.4242835149219609
 40
0.4560001469589333
 40
0.4876818732886563
 40
0.5195412745660379
 40
0.5513657000019969
 40
0.5831083750099129
 40
0.61481462256689
 40
0.6465362726123736
 40
0.6782202291494759
 40
0.709938723153339
 40
0.7416189129279047
 40
0.7733522222556628
 40
0.8050468245280964
 40
0.836812063852143
 40
0.8685407598602907
 40
0.9003008772768555
 40
0.9320260396392052
 40
0.9636460136895096
 40
0.9778495443053413
 40
0.9915321218504093
 40
1.0
 40
1.0
 40
1.0
 40
1.0
 10
-9.007179834523601
 20
-3.517057073818233
 30
0.0
 10
-9.00082515843334
 20
-3.516951916803329
 30
0.0
 10
-8.986612222373198
 20
-3.51498714069896
 30
0.0
 10
-8.96557909912701
 20
-3.507652624029879
 30
0.0
 10
-8.946812584094012
 20
-3.495245514537212
 30
0.0
 10
-8.9321029601681
 20
-3.480181262959537
 30
0.0
 10
-8.921464359512518
 20
-3.463537145589795
 30
0.0
 10
-8.914225999437765
 20
-3.445163200713394
 30
0.0
 10
-8.910878485145533
 20
-3.425684177922391
 30
0.0
 10
-8.911339207943655
 20
-3.405924813793411
 30
0.0
 10
-8.915821659715872
 20
-3.386661213275549
 30
0.0
 10
-8.92392405368362
 20
-3.368625873097101
 30
0.0
 10
-8.93553320855285
 20
-3.352620800845372
 30
0.0
 10
-8.949993689876747
 20
-3.339156431462897
 30
0.0
 10
-8.966890915168227
 20
-3.328920896763263
 30
0.0
 10
-8.985431069085887
 20
-3.322126562376243
 30
0.0
 10
-9.004999061097513
 20
-3.319244141606294
 30
0.0
 10
-9.024780105322781
 20
-3.320184443220791
 30
0.0
 10
-9.04396252383004
 20
-3.325153488161471
 30
0.0
 10
-9.06179941268556
 20
-3.333710003373047
 30
0.0
 10
-9.077501486632679
 20
-3.345708298733308
 30
0.0
 10
-9.090596587070136
 20
-3.360491985013339
 30
0.0
 10
-9.100408518100561
 20
-3.37763402919215
 30
0.0
 10
-9.106741236214017
 20
-3.396334201501936
 30
0.0
 10
-9.109135678858284
 20
-3.415941675869214
 30
0.0
 10
-9.107717641018091
 20
-3.435639449169329
 30
0.0
 10
-9.102312924239047
 20
-3.454652214641564
 30
0.0
 10
-9.093352319417354
 20
-3.472269829214389
 30
0.0
 10
-9.080980725592198
 20
-3.48770298982738
 30
0.0
 10
-9.065874822548382
 20
-3.500454961360549
 30
0.0
 10
-9.04851425740034
 20
-3.509876046193103
 30
0.0
 10
-9.033124374740835
 20
-3.51461442772165
 30
0.0
 10
-9.020990872422338
 20
-3.516578974036514
 30
0.0
 10
-9.013495865981655
 20
-3.517009055994168
 30
0.0
 10
-9.008926110262726
 20
-3.517085971143811
 30
0.0
 10
-9.007179834523601
 20
-3.517057073818233
 30
0.0
  0
SPLINE
  5
98
330
1F
100
AcDbEntity
  8
0
  6
Continuous
 62
     7
370
    25
100
AcDbSpline
210
0.0
220
0.0
230
1.0
 70
    11
 71
     3
 72
    40
 73
    36
 74
     0
 42
0.000000001
 43
0.00000001
 40
0.0
 40
0.0
 40
0.0
 40
0.0
 40
0.0308145049756845
 40
0.0690195975602352
 40
0.1070552867322208
 40
0.1387700819162783
 40
0.1704532292064325
 40
0.2021819986713999
 40
0.2338777632800557
 40
0.2656394063102469
 40
0.297365915029796
 40
0.3291285546074969
 40
0.3608571626201935
 40
0.392586881820278
 40
0.4242835072258737
 40
0.4560001390498998
 40
0.4876818651688339
 40
0.5195412662333839
 40
0.551365691456497
 40
0.5831081665732037
 40
0.6148146103638051
 40
0.6465360508337903
 40
0.6782202311535126
 40
0.709938744681662
 40
0.7416189146560346
 40
0.7733522237725938
 40
0.8050468258322627
 40
0.8368120757681133
 40
0.8685407611731664
 40
0.9003008887887093
 40
0.9320260400932261
 40
0.9636460139323401
 40
0.9778495444535927
 40
0.9915321219070266
 40
1.0
 40
1.0
 40
1.0
 40
1.0
 10
-10.11259831654231
 20
-3.319749561578138
 30
0.0
 10
-10.11895299263699
 20
-3.319854718587199
 30
0.0
 10
-10.1331659287793
 20
-3.321819494617222
 30
0.0
 10
-10.15419905154739
 20
-3.329154011732484
 30
0.0
 10
-10.17296556338689
 20
-3.341561116352369
 30
0.0
 10
-10.18767518288446
 20
-3.356625371406215
 30
0.0
 10
-10.19831378527161
 20
-3.37326948160563
 30
0.0
 10
-10.20555215435758
 20
-3.39164342925755
 30
0.0
 10
-10.2088996654318
 20
-3.411122453513302
 30
0.0
 10
-10.2084389415556
 20
-3.430881820649407
 30
0.0
 10
-10.20395650506044
 20
-3.450145395967889
 30
0.0
 10
-10.1958540873922
 20
-3.468180721721398
 30
0.0
 10
-10.18424497345183
 20
-3.484185788818273
 30
0.0
 10
-10.16978449517281
 20
-3.497650207625996
 30
0.0
 10
-10.15288725574439
 20
-3.507885724970066
 30
0.0
 10
-10.13434708300492
 20
-3.514680074225806
 30
0.0
 10
-10.11477908936777
 20
-3.517562494066528
 30
0.0
 10
-10.0949980471278
 20
-3.516622189842122
 30
0.0
 10
-10.07581566245545
 20
-3.511653166665143
 30
0.0
 10
-10.0579787932344
 20
-3.503096620316442
 30
0.0
 10
-10.04227671753626
 20
-3.491098406295837
 30
0.0
 10
-10.02918154163445
 20
-3.4763147218418
 30
0.0
 10
-10.01936965256481
 20
-3.459172641420799
 30
0.0
 10
-10.01303691438827
 20
-3.440472430984987
 30
0.0
 10
-10.01064247242057
 20
-3.420864955197037
 30
0.0
 10
-10.01206050994553
 20
-3.401167186232259
 30
0.0
 10
-10.01746522792989
 20
-3.3821544188464
 30
0.0
 10
-10.0264258310548
 20
-3.364536803157907
 30
0.0
 10
-10.03879742857848
 20
-3.349103642378255
 30
0.0
 10
-10.05390333157275
 20
-3.336351674563358
 30
0.0
 10
-10.07126389552143
 20
-3.326930588034193
 30
0.0
 10
-10.08665377635797
 20
-3.322192207730489
 30
0.0
 10
-10.09878727863763
 20
-3.320227661350635
 30
0.0
 10
-10.10628228508619
 20
-3.319797579402604
 30
0.0
 10
-10.11085204080196
 20
-3.319720664254164
 30
0.0
 10
-10.11259831654231
 20
-3.319749561578138
 30
0.0
  0
SPLINE
  5
99
330
1F
100
AcDbEntity
  8
0
  6
Continuous
 62
     7
370
    25
100
AcDbSpline
210
0.0
220
0.0
230
1.0
 70
    11
 71
     3
 72
    40
 73
    36
 74
     0
 42
0.000000001
 43
0.00000001
 40
0.0
 40
0.0
 40
0.0
 40
0.0
 40
0.0308145058669095
 40
0.0690195995559589
 40
0.1070552898264421
 40
0.1387701142484097
 40
0.1704532355214402
 40
0.2021820269536674
 40
0.2338777710539163
 40
0.2656394150017606
 40
0.2973659246386671
 40
0.3291285651338142
 40
0.3608571740640407
 40
0.3925868854052379
 40
0.4242835194543995
 40
0.4559999664097225
 40
0.4876818657876354
 40
0.5195411924958471
 40
0.5513656900244703
 40
0.5831083657370033
 40
0.6148146139989461
 40
0.6465362647485307
 40
0.6782202219901629
 40
0.709938719137861
 40
0.7416189072816617
 40
0.7733522174095762
 40
0.8050468201312742
 40
0.8368120582826469
 40
0.86854075693962
 40
0.9003008750617012
 40
0.9320260381289306
 40
0.9636460128817825
 40
0.9778495438127124
 40
0.9915321216622912
 40
1.0
 40
1.0
 40
1.0
 40
1.0
 10
-10.11259831654242
 20
-4.419749561578133
 30
0.0
 10
-10.11895299263278
 20
-4.419854718593036
 30
0.0
 10
-10.13316592869339
 20
-4.421819494697317
 30
0.0
 10
-10.15419905193828
 20
-4.42915401136647
 30
0.0
 10
-10.17296556697554
 20
-4.44156112086103
 30
0.0
 10
-10.18767519088867
 20
-4.456625372432363
 30
0.0
 10
-10.19831379158958
 20
-4.473269489824426
 30
0.0
 10
-10.20555215149402
 20
-4.49164343461841
 30
0.0
 10
-10.2088996664206
 20
-4.511122457716194
 30
0.0
 10
-10.20843894125233
 20
-4.530881820697489
 30
0.0
 10
-10.20395650518106
 20
-4.550145396022929
 30
0.0
 10
-10.19585408721217
 20
-4.568180721455464
 30
0.0
 10
-10.18424497511883
 20
-4.584185788353182
 30
0.0
 10
-10.16978449458765
 20
-4.597650202581925
 30
0.0
 10
-10.15288729268237
 20
-4.607885711155709
 30
0.0
 10
-10.13434711010621
 20
-4.61468002810364
 30
0.0
 10
-10.11477914070898
 20
-4.617562459656734
 30
0.0
 10
-10.0949980584398
 20
-4.616622207660871
 30
0.0
 10
-10.07581564096574
 20
-4.611653150088274
 30
0.0
 10
-10.05797873828087
 20
-4.603096632975157
 30
0.0
 10
-10.04227666446785
 20
-4.591098336405627
 30
0.0
 10
-10.02918156395815
 20
-4.576314650461632
 30
0.0
 10
-10.01936963283072
 20
-4.559172605708023
 30
0.0
 10
-10.0130369142971
 20
-4.540472433522705
 30
0.0
 10
-10.01064247207242
 20
-4.520864958982586
 30
0.0
 10
-10.01206051089541
 20
-4.501167186340115
 30
0.0
 10
-10.01746522665621
 20
-4.482154421092122
 30
0.0
 10
-10.02642583113975
 20
-4.464536806315358
 30
0.0
 10
-10.03879742523931
 20
-4.449103645888242
 30
0.0
 10
-10.05390332849772
 20
-4.436351674020067
 30
0.0
 10
-10.07126389367103
 20
-4.426930589207587
 30
0.0
 10
-10.08665377632445
 20
-4.422192207674301
 30
0.0
 10
-10.09878727864366
 20
-4.420227661359894
 30
0.0
 10
-10.10628228508425
 20
-4.419797579402189
 30
0.0
 10
-10.11085204080329
 20
-4.419720664252555
 30
0.0
 10
-10.11259831654242
 20
-4.419749561578133
 30
0.0
  0
SPLINE
  5
9A
330
1F
100
AcDbEntity
  8
0
  6
Continuous
 62
     7
370
    25
100
AcDbSpline
210
0.0
220
0.0
230
1.0
 70
    11
 71
     3
 72
    40
 73
    36
 74
     0
 42
0.000000001
 43
0.00000001
 40
0.0
 40
0.0
 40
0.0
 40
0.0
 40
0.0308145342726803
 40
0.0690196435416175
 40
0.1070552866102161
 40
0.1387701108534755
 40
0.1704532319497705
 40
0.2021820232045486
 40
0.233877767126761
 40
0.2656394108988727
 40
0.2973659203556008
 40
0.3291286872936147
 40
0.3608571714963617
 40
0.3925870438489671
 40
0.4242835107488578
 40
0.4559999567937277
 40
0.4876818571331566
 40
0.5195411836632801
 40
0.5513656810131198
 40
0.5831081568701778
 40
0.6148146013985678
 40
0.6465360426079025
 40
0.6782202236652731
 40
0.7099387379307341
 40
0.7416189086447085
 40
0.7733522184991765
 40
0.8050468212985875
 40
0.8368120719644945
 40
0.8685407581182765
 40
0.9003008861594716
 40
0.9320260385098699
 40
0.9636460130854745
 40
0.9778495439372995
 40
0.991532121709751
 40
1.0
 40
1.0
 40
1.0
 40
1.0
 10
-10.11259831654234
 20
-5.519749561578129
 30
0.0
 10
-10.11895299861669
 20
-5.519854718380989
 30
0.0
 10
-10.13316594524374
 20
-5.521819492455439
 30
0.0
 10
-10.15419905931879
 20
-5.529154032046577
 30
0.0
 10
-10.17296557530566
 20
-5.541561125094367
 30
0.0
 10
-10.18767519052152
 20
-5.556625373113508
 30
0.0
 10
-10.19831379165955
 20
-5.573269489626831
 30
0.0
 10
-10.20555215158111
 20
-5.59164343472517
 30
0.0
 10
-10.20889966600363
 20
-5.611122457485534
 30
0.0
 10
-10.20843894283631
 20
-5.630881821515764
 30
0.0
 10
-10.2039564933089
 20
-5.650145418592266
 30
0.0
 10
-10.19585409594424
 20
-5.66818075636584
 30
0.0
 10
-10.18424492844268
 20
-5.684185827483267
 30
0.0
 10
-10.16978444917017
 20
-5.697650199153554
 30
0.0
 10
-10.1528872658696
 20
-5.707885732849957
 30
0.0
 10
-10.13434710923355
 20
-5.714680026279739
 30
0.0
 10
-10.11477914094054
 20
-5.717562460742195
 30
0.0
 10
-10.09499805966421
 20
-5.716622205113406
 30
0.0
 10
-10.07581567622684
 20
-5.711653169575682
 30
0.0
 10
-10.05797879312511
 20
-5.703096621252102
 30
0.0
 10
-10.04227671756504
 20
-5.691098406044765
 30
0.0
 10
-10.02918154162671
 20
-5.676314721908507
 30
0.0
 10
-10.01936965256686
 20
-5.659172641402871
 30
0.0
 10
-10.0130369143879
 20
-5.64047243098994
 30
0.0
 10
-10.01064247242065
 20
-5.620864955196096
 30
0.0
 10
-10.0120605099456
 20
-5.60116718623302
 30
0.0
 10
-10.01746522792813
 20
-5.582154418847173
 30
0.0
 10
-10.02642583105808
 20
-5.564536803164238
 30
0.0
 10
-10.03879742852587
 20
-5.549103642416583
 30
0.0
 10
-10.05390333155456
 20
-5.53635167465213
 30
0.0
 10
-10.07126389544465
 20
-5.52693058802498
 30
0.0
 10
-10.08665377636346
 20
-5.522192207720522
 30
0.0
 10
-10.09878727863149
 20
-5.520227661370606
 30
0.0
 10
-10.10628228510422
 20
-5.519797579339079
 30
0.0
 10
-10.11085204077835
 20
-5.51972066433762
 30
0.0
 10
-10.11259831654234
 20
-5.519749561578129
 30
0.0
  0
SPLINE
  5
9B
330
1F
100
AcDbEntity
  8
0
  6
Continuous
 62
     7
370
    25
100
AcDbSpline
210
0.0
220
0.0
230
1.0
 70
    11
 71
     3
 72
    40
 73
    36
 74
     0
 42
0.000000001
 43
0.00000001
 40
0.0
 40
0.0
 40
0.0
 40
0.0
 40
0.0308145054148272
 40
0.0690195985430923
 40
0.1070552882583906
 40
0.1387701122131704
 40
0.1704532330247241
 40
0.2021820239904977
 40
0.2338777676282985
 40
0.2656394111120607
 40
0.2973659202832014
 40
0.3291285603135001
 40
0.3608571687785663
 40
0.3925868884301271
 40
0.4242835142883404
 40
0.4560001465646202
 40
0.4876818731349715
 40
0.5195412750743351
 40
0.5513657003464953
 40
0.5831082971702564
 40
0.6148146166989232
 40
0.6465362709573661
 40
0.678220226567094
 40
0.7099387405456645
 40
0.7416189109733002
 40
0.7733522205417522
 40
0.8050468230537441
 40
0.8368120734432003
 40
0.8685407592996852
 40
0.9003008873683093
 40
0.9320260391245327
 40
0.9636460134142555
 40
0.9778495441375191
 40
0.9915321217863108
 40
1.0
 40
1.0
 40
1.0
 40
1.0
 10
-10.11259831654242
 20
-6.619749561578133
 30
0.0
 10
-10.11895299263198
 20
-6.619854718591986
 30
0.0
 10
-10.13316592869314
 20
-6.621819494698053
 30
0.0
 10
-10.15419905193772
 20
-6.62915401136583
 30
0.0
 10
-10.17296556697479
 20
-6.641561120860407
 30
0.0
 10
-10.18767519088818
 20
-6.656625372432065
 30
0.0
 10
-10.19831379158887
 20
-6.673269489823165
 30
0.0
 10
-10.20555215149509
 20
-6.691643434619224
 30
0.0
 10
-10.20889966641744
 20
-6.711122457710719
 30
0.0
 10
-10.2084389412639
 20
-6.730881820717102
 30
0.0
 10
-10.20395650513859
 20
-6.750145395950342
 30
0.0
 10
-10.19585408737037
 20
-6.768180721726987
 30
0.0
 10
-10.18424497345844
 20
-6.784185788815115
 30
0.0
 10
-10.16978449516675
 20
-6.797650207634482
 30
0.0
 10
-10.152887255761
 20
-6.80788572494104
 30
0.0
 10
-10.13434708294262
 20
-6.814680074334335
 30
0.0
 10
-10.11477908951149
 20
-6.817562493674208
 30
0.0
 10
-10.09499804617079
 20
-6.816622191349794
 30
0.0
 10
-10.07581564119706
 20
-6.811653154956982
 30
0.0
 10
-10.05797876016526
 20
-6.80309662729238
 30
0.0
 10
-10.04227668498648
 20
-6.791098337672617
 30
0.0
 10
-10.02918155224483
 20
-6.776314658308746
 30
0.0
 10
-10.01936962706446
 20
-6.759172603219436
 30
0.0
 10
-10.01303691720028
 20
-6.740472429356835
 30
0.0
 10
-10.01064247166611
 20
-6.720864955633961
 30
0.0
 10
-10.0120605101472
 20
-6.701167186114943
 30
0.0
 10
-10.01746522787585
 20
-6.682154418877389
 30
0.0
 10
-10.0264258310697
 20
-6.664536803149083
 30
0.0
 10
-10.03879742857501
 20
-6.649103642380052
 30
0.0
 10
-10.05390333157409
 20
-6.636351674562506
 30
0.0
 10
-10.07126389552155
 20
-6.626930588034152
 30
0.0
 10
-10.08665377635789
 20
-6.622192207730679
 30
0.0
 10
-10.09878727863803
 20
-6.620227661350259
 30
0.0
 10
-10.10628228508516
 20
-6.6197975794036
 30
0.0
 10
-10.11085204080346
 20
-6.619720664252842
 30
0.0
 10
-10.11259831654242
 20
-6.619749561578133
 30
0.0
  0
SPLINE
  5
9C
330
1F
100
AcDbEntity
  8
0
  6
Continuous
 62
     7
370
    25
100
AcDbSpline
210
0.0
220
0.0
230
1.0
 70
    11
 71
     3
 72
    40
 73
    36
 74
     0
 42
0.000000001
 43
0.00000001
 40
0.0
 40
0.0
 40
0.0
 40
0.0
 40
0.0308145049447931
 40
0.0690195974903253
 40
0.1070552866244984
 40
0.138770110096765
 40
0.1704532304233354
 40
0.2021820209059048
 40
0.2338777640589218
 40
0.2656394070591434
 40
0.2973659157449287
 40
0.3291285552927691
 40
0.3608571632713766
 40
0.3925868824404829
 40
0.4242835078132423
 40
0.4560001396060349
 40
0.4876818656923704
 40
0.5195412667240487
 40
0.5513656919159162
 40
0.5831081670007996
 40
0.6148146107594032
 40
0.6465360511967571
 40
0.6782202314851815
 40
0.7099387449799047
 40
0.7416189149240007
 40
0.7733522240095266
 40
0.8050468260364827
 40
0.8368120759296152
 40
0.8685407613130172
 40
0.9003008885809283
 40
0.9320260401618871
 40
0.9636460139689972
 40
0.9778495444758296
 40
0.9915321219155413
 40
1.0
 40
1.0
 40
1.0
 40
1.0
 10
-10.11259831654239
 20
-7.719749561578134
 30
0.0
 10
-10.11895299263197
 20
-7.71985471859192
 30
0.0
 10
-10.13316592869329
 20
-7.7218194946981
 30
0.0
 10
-10.15419905193782
 20
-7.729154011365847
 30
0.0
 10
-10.17296556697501
 20
-7.741561120860623
 30
0.0
 10
-10.18767519088837
 20
-7.75662537243214
 30
0.0
 10
-10.19831379158905
 20
-7.773269489823496
 30
0.0
 10
-10.20555215149493
 20
-7.791643434619338
 30
0.0
 10
-10.20889966641744
 20
-7.811122457711003
 30
0.0
 10
-10.20843894126414
 20
-7.83088182071715
 30
0.0
 10
-10.20395650513831
 20
-7.850145395950956
 30
0.0
 10
-10.19585408737056
 20
-7.868180721726653
 30
0.0
 10
-10.18424497345686
 20
-7.88418578881768
 30
0.0
 10
-10.16978449517099
 20
-7.897650207626707
 30
0.0
 10
-10.15288725574424
 20
-7.907885724970244
 30
0.0
 10
-10.13434708300436
 20
-7.914680074225731
 30
0.0
 10
-10.11477908936756
 20
-7.917562494066572
 30
0.0
 10
-10.09499804712771
 20
-7.916622189841983
 30
0.0
 10
-10.07581566245536
 20
-7.91165316666508
 30
0.0
 10
-10.05797879323403
 20
-7.903096620316545
 30
0.0
 10
-10.04227671753614
 20
-7.891098406295764
 30
0.0
 10
-10.02918154163476
 20
-7.876314721841478
 30
0.0
 10
-10.01936965256488
 20
-7.859172641421034
 30
0.0
 10
-10.01303691438804
 20
-7.840472430985176
 30
0.0
 10
-10.01064247242055
 20
-7.820864955196862
 30
0.0
 10
-10.0120605099457
 20
-7.80116718623217
 30
0.0
 10
-10.01746522792818
 20
-7.782154418846844
 30
0.0
 10
-10.02642583105857
 20
-7.764536803164711
 30
0.0
 10
-10.03879742852568
 20
-7.7491036424165
 30
0.0
 10
-10.05390333155374
 20
-7.73635167465314
 30
0.0
 10
-10.07126389544593
 20
-7.726930588020319
 30
0.0
 10
-10.0866537763595
 20
-7.722192207734269
 30
0.0
 10
-10.09878727863779
 20
-7.720227661349664
 30
0.0
 10
-10.10628228508523
 20
-7.719797579403687
 30
0.0
 10
-10.11085204080345
 20
-7.719720664252861
 30
0.0
 10
-10.11259831654239
 20
-7.719749561578134
 30
0.0
  0
SPLINE
  5
9D
330
1F
100
AcDbEntity
  8
0
  6
Continuous
 62
     7
370
    25
100
AcDbSpline
210
0.0
220
0.0
230
1.0
 70
    11
 71
     3
 72
    40
 73
    36
 74
     0
 42
0.000000001
 43
0.00000001
 40
0.0
 40
0.0
 40
0.0
 40
0.0
 40
0.0308145049452424
 40
0.0690195974911144
 40
0.1070552866245958
 40
0.1387701100977595
 40
0.1704532304233698
 40
0.2021820209074254
 40
0.233877764058954
 40
0.2656394070585313
 40
0.297365915744835
 40
0.3291285552911218
 40
0.3608571632713636
 40
0.3925868824400456
 40
0.4242835078131963
 40
0.4560001396050883
 40
0.4876818656923656
 40
0.5195412667243229
 40
0.5513656919160184
 40
0.5831081670017999
 40
0.6148146107595011
 40
0.6465360511979354
 40
0.6782202314853445
 40
0.709938744980888
 40
0.7416189149241383
 40
0.7733522240090149
 40
0.8050468260366332
 40
0.8368120759296844
 40
0.8685407613131871
 40
0.9003008885811311
 40
0.9320260401619781
 40
0.9636460139690417
 40
0.9778495444748986
 40
0.9915321219155402
 40
1.0
 40
1.0
 40
1.0
 40
1.0
 10
-10.11259831654237
 20
-8.819749561578135
 30
0.0
 10
-10.11895299263204
 20
-8.819854718591907
 30
0.0
 10
-10.13316592869352
 20
-8.82181949469811
 30
0.0
 10
-10.15419905193802
 20
-8.829154011366006
 30
0.0
 10
-10.17296556697529
 20
-8.841561120860844
 30
0.0
 10
-10.1876751908885
 20
-8.856625372432305
 30
0.0
 10
-10.19831379158926
 20
-8.873269489823944
 30
0.0
 10
-10.20555215149509
 20
-8.891643434619597
 30
0.0
 10
-10.20889966641753
 20
-8.911122457711171
 30
0.0
 10
-10.20843894126363
 20
-8.930881820716934
 30
0.0
 10
-10.20395650513851
 20
-8.950145395950498
 30
0.0
 10
-10.19585408737101
 20
-8.968180721726492
 30
0.0
 10
-10.18424497345713
 20
-8.984185788817326
 30
0.0
 10
-10.16978449517104
 20
-8.99765020762657
 30
0.0
 10
-10.15288725574453
 20
-9.007885724970123
 30
0.0
 10
-10.13434708300457
 20
-9.014680074225682
 30
0.0
 10
-10.11477908936772
 20
-9.01756249406653
 30
0.0
 10
-10.09499804712762
 20
-9.016622189842229
 30
0.0
 10
-10.07581566245513
 20
-9.011653166664972
 30
0.0
 10
-10.0579787932339
 20
-9.003096620316361
 30
0.0
 10
-10.04227671753583
 20
-8.991098406295471
 30
0.0
 10
-10.0291815416345
 20
-8.976314721841346
 30
0.0
 10
-10.01936965256469
 20
-8.95917264142064
 30
0.0
 10
-10.01303691438818
 20
-8.940472430984915
 30
0.0
 10
-10.0106424724205
 20
-8.920864955196773
 30
0.0
 10
-10.0120605099458
 20
-8.901167186232257
 30
0.0
 10
-10.01746522792816
 20
-8.882154418846932
 30
0.0
 10
-10.02642583105841
 20
-8.864536803164555
 30
0.0
 10
-10.03879742852573
 20
-8.849103642416463
 30
0.0
 10
-10.0539033315539
 20
-8.836351674653278
 30
0.0
 10
-10.07126389544594
 20
-8.82693058802024
 30
0.0
 10
-10.08665377635933
 20
-8.82219220773439
 30
0.0
 10
-10.09878727863757
 20
-8.820227661349595
 30
0.0
 10
-10.10628228508502
 20
-8.819797579403707
 30
0.0
 10
-10.11085204080342
 20
-8.819720664252866
 30
0.0
 10
-10.11259831654237
 20
-8.819749561578135
 30
0.0
  0
SPLINE
  5
9E
330
1F
100
AcDbEntity
  8
0
  6
Continuous
 62
     7
370
    25
100
AcDbSpline
210
0.0
220
0.0
230
1.0
 70
    11
 71
     3
 72
    40
 73
    36
 74
     0
 42
0.000000001
 43
0.00000001
 40
0.0
 40
0.0
 40
0.0
 40
0.0
 40
0.030814505455973
 40
0.0690196367911244
 40
0.1070552905001103
 40
0.1387701432125789
 40
0.170453234668672
 40
0.2021820256778915
 40
0.2338777693567062
 40
0.2656394128822044
 40
0.2973659220961886
 40
0.3291285621689645
 40
0.3608571706761589
 40
0.3925868903707886
 40
0.4242835162703908
 40
0.4560001485889162
 40
0.4876818752014666
 40
0.51954127676261
 40
0.55136570248176
 40
0.583108298935312
 40
0.6148146189359589
 40
0.6465362347814456
 40
0.6782202262648704
 40
0.7099387229916805
 40
0.7416189107123348
 40
0.7733522224895468
 40
0.805046822801926
 40
0.8368120732209452
 40
0.8685407591319463
 40
0.9003008869271286
 40
0.9320260390340775
 40
0.963646013365831
 40
0.9778495441078346
 40
0.9915321217750377
 40
1.0
 40
1.0
 40
1.0
 40
1.0
 10
-7.912598316542395
 20
-3.319749561578141
 30
0.0
 10
-7.918952992608527
 20
-3.319854718657627
 30
0.0
 10
-7.933165936155063
 20
-3.321819496893499
 30
0.0
 10
-7.954199061442535
 20
-3.329154009931482
 30
0.0
 10
-7.972965580314865
 20
-3.341561126569933
 30
0.0
 10
-7.987675190088019
 20
-3.356625380908459
 30
0.0
 10
-7.99831379508446
 20
-3.373269494568681
 30
0.0
 10
-8.005552151157998
 20
-3.391643434869581
 30
0.0
 10
-8.008899666507954
 20
-3.411122457643645
 30
0.0
 10
-8.0084389412396
 20
-3.430881820734922
 30
0.0
 10
-8.003956505145117
 20
-3.450145395945408
 30
0.0
 10
-7.99585408736887
 20
-3.468180721728376
 30
0.0
 10
-7.984244973458736
 20
-3.484185788815046
 30
0.0
 10
-7.969784495166646
 20
-3.497650207634023
 30
0.0
 10
-7.952887255760225
 20
-3.507885724943184
 30
0.0
 10
-7.934347082945227
 20
-3.514680074326538
 30
0.0
 10
-7.914779089588189
 20
-3.51756249369044
 30
0.0
 10
-7.894998046298364
 20
-3.516622191253914
 30
0.0
 10
-7.875815641249771
 20
-3.511653155116694
 30
0.0
 10
-7.857978760607056
 20
-3.503096627047613
 30
0.0
 10
-7.842276689870248
 20
-3.491098343924727
 30
0.0
 10
-7.829181563095085
 20
-3.476314660203084
 30
0.0
 10
-7.819369636514138
 20
-3.459172611522404
 30
0.0
 10
-7.813036913893058
 20
-3.440472433783375
 30
0.0
 10
-7.810642472262214
 20
-3.420864958513822
 30
0.0
 10
-7.81206051040515
 20
-3.401167185797344
 30
0.0
 10
-7.817465228039906
 20
-3.382154418420448
 30
0.0
 10
-7.826425831084697
 20
-3.364536803167789
 30
0.0
 10
-7.838797428518575
 20
-3.349103642415676
 30
0.0
 10
-7.85390333155572
 20
-3.336351674653694
 30
0.0
 10
-7.87126389544586
 20
-3.326930588019166
 30
0.0
 10
-7.886653776358443
 20
-3.322192207737278
 30
0.0
 10
-7.898787278639276
 20
-3.320227661345178
 30
0.0
 10
-7.906282285080233
 20
-3.319797579417469
 30
0.0
 10
-7.910852040809884
 20
-3.319720664234815
 30
0.0
 10
-7.912598316542395
 20
-3.319749561578141
 30
0.0
  0
SPLINE
  5
9F
330
1F
100
AcDbEntity
  8
0
  6
Continuous
 62
     7
370
    25
100
AcDbSpline
210
0.0
220
0.0
230
1.0
 70
    11
 71
     3
 72
    40
 73
    36
 74
     0
 42
0.000000001
 43
0.00000001
 40
0.0
 40
0.0
 40
0.0
 40
0.0
 40
0.0308145049456425
 40
0.0690195974911203
 40
0.1070552866246358
 40
0.1387701100970732
 40
0.1704532304234698
 40
0.2021820209060895
 40
0.2338777640591234
 40
0.2656394070580402
 40
0.2973659157451457
 40
0.3291285552912753
 40
0.3608571632716444
 40
0.3925868824400878
 40
0.4242835078134927
 40
0.456000139605974
 40
0.4876818656926237
 40
0.5195412667244712
 40
0.5513656919162058
 40
0.583108167001418
 40
0.6148146107596852
 40
0.6465360511978645
 40
0.6782202314854248
 40
0.7099387449802863
 40
0.7416189149241346
 40
0.7733522240083648
 40
0.8050468260365483
 40
0.8368120759298633
 40
0.8685407613131393
 40
0.9003008885812952
 40
0.9320260401619094
 40
0.9636460139690168
 40
0.9778495444757789
 40
0.991532121915541
 40
1.0
 40
1.0
 40
1.0
 40
1.0
 10
-6.807179834523629
 20
-3.517057073818234
 30
0.0
 10
-6.800825158433875
 20
-3.51695191680445
 30
0.0
 10
-6.786612222372381
 20
-3.514987140698267
 30
0.0
 10
-6.765579099127915
 20
-3.507652624030273
 30
0.0
 10
-6.746812584090787
 20
-3.495245514535624
 30
0.0
 10
-6.732102960177593
 20
-3.480181262964133
 30
0.0
 10
-6.721464359476876
 20
-3.463537145572797
 30
0.0
 10
-6.714225999571036
 20
-3.445163200776966
 30
0.0
 10
-6.710878484648491
 20
-3.425684177685547
 30
0.0
 10
-6.711339209802083
 20
-3.405924814679423
 30
0.0
 10
-6.715821645927473
 20
-3.386661239445898
 30
0.0
 10
-6.723924063695127
 20
-3.368625913669824
 30
0.0
 10
-6.735533177608893
 20
-3.352620846578984
 30
0.0
 10
-6.749993655894938
 20
-3.339156427769636
 30
0.0
 10
-6.76689089532166
 20
-3.328920910426168
 30
0.0
 10
-6.785431068061635
 20
-3.322126561170565
 30
0.0
 10
-6.804999061698482
 20
-3.319244141329802
 30
0.0
 10
-6.824780103938408
 20
-3.320184445554344
 30
0.0
 10
-6.843962488610809
 20
-3.325153468731361
 30
0.0
 10
-6.861799357832099
 20
-3.333710015079912
 30
0.0
 10
-6.877501433530071
 20
-3.345708229100846
 30
0.0
 10
-6.890596609431447
 20
-3.360491913555042
 30
0.0
 10
-6.900408498501229
 20
-3.377633993975584
 30
0.0
 10
-6.906741236677702
 20
-3.396334204411333
 30
0.0
 10
-6.90913567864546
 20
-3.415941680199307
 30
0.0
 10
-6.907717641120264
 20
-3.435639449163943
 30
0.0
 10
-6.902312923137835
 20
-3.454652216549286
 30
0.0
 10
-6.893352320007677
 20
-3.472269832231848
 30
0.0
 10
-6.880980722540222
 20
-3.487702992979921
 30
0.0
 10
-6.865874819512035
 20
-3.500454960742982
 30
0.0
 10
-6.848514255620055
 20
-3.509876047376123
 30
0.0
 10
-6.833124374706516
 20
-3.514614427662075
 30
0.0
 10
-6.820990872428242
 20
-3.516578974046696
 30
0.0
 10
-6.813495865980799
 20
-3.517009055992677
 30
0.0
 10
-6.808926110262577
 20
-3.517085971143503
 30
0.0
 10
-6.807179834523629
 20
-3.517057073818234
 30
0.0
  0
CIRCLE
  5
A0
330
1F
100
AcDbEntity
  8
0
  6
Continuous
 62
     7
370
    25
100
AcDbCircle
 10
-3.3038304393
 20
-11.3001540302
 30
0.0
 40
0.3499945910241209
  0
CIRCLE
  5
A1
330
1F
100
AcDbEntity
  8
0
  6
Continuous
 62
     7
370
    25
100
AcDbCircle
 10
-13.568468658
 20
-11.3001540302
 30
0.0
 40
0.3499945910241209
  0
CIRCLE
  5
A2
330
1F
100
AcDbEntity
  8
0
  6
Continuous
 62
     7
370
    25
100
AcDbCircle
 10
-9.4041198518
 20
-2.4973208372
 30
0.0
 40
0.0472204842460258
  0
CIRCLE
  5
A3
330
1F
100
AcDbEntity
  8
0
  6
Continuous
 62
     7
370
    25
100
AcDbCircle
 10
-10.3486194548
 20
-1.5529109724
 30
0.0
 40
0.0472204842460222
  0
CIRCLE
  5
A4
330
1F
100
AcDbEntity
  8
0
  6
Continuous
 62
     7
370
    25
100
AcDbCircle
 10
-7.8692406776
 20
-10.3438198287
 30
0.0
 40
0.0472204842460231
  0
CIRCLE
  5
A5
330
1F
100
AcDbEntity
  8
0
  6
Continuous
 62
     7
370
    25
100
AcDbCircle
 10
-6.9247408948
 20
-11.2882295136
 30
0.0
 40
0.047220484246024
  0
CIRCLE
  5
A6
330
1F
100
AcDbEntity
  8
0
  6
Continuous
 62
     7
370
    25
100
AcDbCircle
 10
-11.6856901017
 20
-7.8122494905
 30
0.0
 40
0.047220484246024
  0
CIRCLE
  5
A7
330
1F
100
AcDbEntity
  8
0
  6
Continuous
 62
     7
370
    25
100
AcDbCircle
 10
-12.6300999664
 20
-8.7567490934
 30
0.0
 40
0.047220484246024
  0
CIRCLE
  5
A8
330
1F
100
AcDbEntity
  8
0
  6
Continuous
 62
     7
370
    25
100
AcDbCircle
 10
-11.1024087606
 20
-3.9684033177
 30
0.0
 40
0.0826771653543297
  0
CIRCLE
  5
A9
330
1F
100
AcDbEntity
  8
0
  6
Continuous
 62
     7
370
    25
100
AcDbCircle
 10
-11.1024087606
 20
-6.1684033177
 30
0.0
 40
0.0826771653543297
  0
CIRCLE
  5
AA
330
1F
100
AcDbEntity
  8
0
  6
Continuous
 62
     7
370
    25
100
AcDbCircle
 10
-11.1024087606
 20
-8.3684033177
 30
0.0
 40
0.0826771653543297
  0
CIRCLE
  5
AB
330
1F
100
AcDbEntity
  8
0
  6
Continuous
 62
     7
370
    25
100
AcDbCircle
 10
-9.5598890755
 20
-9.5109230027
 30
0.0
 40
0.0826771653543297
  0
CIRCLE
  5
AC
330
1F
100
AcDbEntity
  8
0
  6
Continuous
 62
     7
370
    25
100
AcDbCircle
 10
-7.3598890755
 20
-9.5109230027
 30
0.0
 40
0.0826771653543314
  0
CIRCLE
  5
AD
330
1F
100
AcDbEntity
  8
0
  6
Continuous
 62
     7
370
    25
100
AcDbCircle
 10
-5.9212331408
 20
-8.3684033177
 30
0.0
 40
0.0826771653543314
  0
CIRCLE
  5
AE
330
1F
100
AcDbEntity
  8
0
  6
Continuous
 62
     7
370
    25
100
AcDbCircle
 10
-5.9212331408
 20
-6.1684033177
 30
0.0
 40
0.0826771653543314
  0
CIRCLE
  5
AF
330
1F
100
AcDbEntity
  8
0
  6
Continuous
 62
     7
370
    25
100
AcDbCircle
 10
-5.9212331408
 20
-3.9684033177
 30
0.0
 40
0.0826771653543314
  0
CIRCLE
  5
B0
330
1F
100
AcDbEntity
  8
0
  6
Continuous
 62
     7
370
    25
100
AcDbCircle
 10
-7.3598890755
 20
-2.8258836327
 30
0.0
 40
0.0826771653543314
  0
CIRCLE
  5
B1
330
1F
100
AcDbEntity
  8
0
  6
Continuous
 62
     7
370
    25
100
AcDbCircle
 10
-9.5598890755
 20
-2.8258836327
 30
0.0
 40
0.0826771653543314
  0
CIRCLE
  5
B2
330
1F
100
AcDbEntity
  8
0
  6
Continuous
 62
     7
370
    25
100
AcDbCircle
 10
-12.118544629
 20
-4.2766742676
 30
0.0
 40
0.5000000000000071
  0
CIRCLE
  5
B3
330
1F
100
AcDbEntity
  8
0
  6
Continuous
 62
     7
370
    25
100
AcDbCircle
 10
-12.118544629
 20
-8.2766742676
 30
0.0
 40
0.5
  0
CIRCLE
  5
B4
330
1F
100
AcDbEntity
  8
0
  6
Continuous
 62
     7
370
    25
100
AcDbCircle
 10
-3.3038304393
 20
-1.0409865473
 30
0.0
 40
0.3499945910241209
  0
CIRCLE
  5
B5
330
1F
100
AcDbEntity
  8
0
  6
Continuous
 62
     7
370
    25
100
AcDbCircle
 10
-7.404815818
 20
-10.7766742676
 30
0.0
 40
0.5
  0
CIRCLE
  5
B6
330
1F
100
AcDbEntity
  8
0
  6
Continuous
 62
     7
370
    25
100
AcDbCircle
 10
-9.868544629
 20
-2.0644663098
 30
0.0
 40
0.4999999999999982
  0
LINE
  5
B7
330
1F
100
AcDbEntity
  8
0
  6
Continuous
 62
     7
370
    25
100
AcDbLine
 10
-10.509815818
 20
-0.7644663098
 30
0.0
 11
-10.759815818
 21
-0.7644663098
 31
0.0
  0
LINE
  5
B8
330
1F
100
AcDbEntity
  8
0
  6
Continuous
 62
     7
370
    25
100
AcDbLine
 10
-10.509815818
 20
-1.0144663098
 30
0.0
 11
-10.509815818
 21
-0.7644663098
 31
0.0
  0
LINE
  5
B9
330
1F
100
AcDbEntity
  8
0
  6
Continuous
 62
     7
370
    25
100
AcDbLine
 10
-10.759815818
 20
-1.0144663098
 30
0.0
 11
-10.509815818
 21
-1.0144663098
 31
0.0
  0
LINE
  5
BA
330
1F
100
AcDbEntity
  8
0
  6
Continuous
 62
     7
370
    25
100
AcDbLine
 10
-10.759815818
 20
-0.7644663098
 30
0.0
 11
-10.759815818
 21
-1.0144663098
 31
0.0
  0
LINE
  5
BB
330
1F
100
AcDbEntity
  8
0
  6
Continuous
 62
     7
370
    25
100
AcDbLine
 10
-10.509815818
 20
-2.3144663098
 30
0.0
 11
-10.759815818
 21
-2.3144663098
 31
0.0
  0
LINE
  5
BC
330
1F
100
AcDbEntity
  8
0
  6
Continuous
 62
     7
370
    25
100
AcDbLine
 10
-10.509815818
 20
-2.5644663098
 30
0.0
 11
-10.509815818
 21
-2.3144663098
 31
0.0
  0
LINE
  5
BD
330
1F
100
AcDbEntity
  8
0
  6
Continuous
 62
     7
370
    25
100
AcDbLine
 10
-10.759815818
 20
-2.5644663098
 30
0.0
 11
-10.509815818
 21
-2.5644663098
 31
0.0
  0
LINE
  5
BE
330
1F
100
AcDbEntity
  8
0
  6
Continuous
 62
     7
370
    25
100
AcDbLine
 10
-10.759815818
 20
-2.3144663098
 30
0.0
 11
-10.759815818
 21
-2.5644663098
 31
0.0
  0
LINE
  5
BF
330
1F
100
AcDbEntity
  8
0
  6
Continuous
 62
     7
370
    25
100
AcDbLine
 10
-6.259815818
 20
-2.3144663098
 30
0.0
 11
-6.509815818
 21
-2.3144663098
 31
0.0
  0
LINE
  5
C0
330
1F
100
AcDbEntity
  8
0
  6
Continuous
 62
     7
370
    25
100
AcDbLine
 10
-6.259815818
 20
-2.5644663098
 30
0.0
 11
-6.259815818
 21
-2.3144663098
 31
0.0
  0
LINE
  5
C1
330
1F
100
AcDbEntity
  8
0
  6
Continuous
 62
     7
370
    25
100
AcDbLine
 10
-6.509815818
 20
-2.5644663098
 30
0.0
 11
-6.259815818
 21
-2.5644663098
 31
0.0
  0
LINE
  5
C2
330
1F
100
AcDbEntity
  8
0
  6
Continuous
 62
     7
370
    25
100
AcDbLine
 10
-6.509815818
 20
-2.3144663098
 30
0.0
 11
-6.509815818
 21
-2.5644663098
 31
0.0
  0
LINE
  5
C3
330
1F
100
AcDbEntity
  8
0
  6
Continuous
 62
     7
370
    25
100
AcDbLine
 10
-6.509815818
 20
-1.0144663098
 30
0.0
 11
-6.259815818
 21
-1.0144663098
 31
0.0
  0
LINE
  5
C4
330
1F
100
AcDbEntity
  8
0
  6
Continuous
 62
     7
370
    25
100
AcDbLine
 10
-6.509815818
 20
-0.7644663098
 30
0.0
 11
-6.509815818
 21
-1.0144663098
 31
0.0
  0
LINE
  5
C5
330
1F
100
AcDbEntity
  8
0
  6
Continuous
 62
     7
370
    25
100
AcDbLine
 10
-6.509815818
 20
-0.7644663098
 30
0.0
 11
-6.259815818
 21
-0.7644663098
 31
0.0
  0
LINE
  5
C6
330
1F
100
AcDbEntity
  8
0
  6
Continuous
 62
     7
370
    25
100
AcDbLine
 10
-6.259815818
 20
-0.7644663098
 30
0.0
 11
-6.259815818
 21
-1.0144663098
 31
0.0
  0
LINE
  5
C7
330
1F
100
AcDbEntity
  8
0
  6
Continuous
 62
     7
370
    25
100
AcDbLine
 10
-6.259815818
 20
-11.3266742676
 30
0.0
 11
-6.259815818
 21
-11.5766742676
 31
0.0
  0
LINE
  5
C8
330
1F
100
AcDbEntity
  8
0
  6
Continuous
 62
     7
370
    25
100
AcDbLine
 10
-6.259815818
 20
-11.5766742676
 30
0.0
 11
-6.509815818
 21
-11.5766742676
 31
0.0
  0
LINE
  5
C9
330
1F
100
AcDbEntity
  8
0
  6
Continuous
 62
     7
370
    25
100
AcDbLine
 10
-6.509815818
 20
-11.5766742676
 30
0.0
 11
-6.509815818
 21
-11.3266742676
 31
0.0
  0
LINE
  5
CA
330
1F
100
AcDbEntity
  8
0
  6
Continuous
 62
     7
370
    25
100
AcDbLine
 10
-6.509815818
 20
-11.3266742676
 30
0.0
 11
-6.259815818
 21
-11.3266742676
 31
0.0
  0
LINE
  5
CB
330
1F
100
AcDbEntity
  8
0
  6
Continuous
 62
     7
370
    25
100
AcDbLine
 10
-6.259815818
 20
-9.7766742676
 30
0.0
 11
-6.259815818
 21
-10.0266742676
 31
0.0
  0
LINE
  5
CC
330
1F
100
AcDbEntity
  8
0
  6
Continuous
 62
     7
370
    25
100
AcDbLine
 10
-6.259815818
 20
-10.0266742676
 30
0.0
 11
-6.509815818
 21
-10.0266742676
 31
0.0
  0
LINE
  5
CD
330
1F
100
AcDbEntity
  8
0
  6
Continuous
 62
     7
370
    25
100
AcDbLine
 10
-6.509815818
 20
-10.0266742676
 30
0.0
 11
-6.509815818
 21
-9.7766742676
 31
0.0
  0
LINE
  5
CE
330
1F
100
AcDbEntity
  8
0
  6
Continuous
 62
     7
370
    25
100
AcDbLine
 10
-6.509815818
 20
-9.7766742676
 30
0.0
 11
-6.259815818
 21
-9.7766742676
 31
0.0
  0
LINE
  5
CF
330
1F
100
AcDbEntity
  8
0
  6
Continuous
 62
     7
370
    25
100
AcDbLine
 10
-10.509815818
 20
-11.3266742676
 30
0.0
 11
-10.509815818
 21
-11.5766742676
 31
0.0
  0
LINE
  5
D0
330
1F
100
AcDbEntity
  8
0
  6
Continuous
 62
     7
370
    25
100
AcDbLine
 10
-10.509815818
 20
-11.5766742676
 30
0.0
 11
-10.759815818
 21
-11.5766742676
 31
0.0
  0
LINE
  5
D1
330
1F
100
AcDbEntity
  8
0
  6
Continuous
 62
     7
370
    25
100
AcDbLine
 10
-10.759815818
 20
-11.5766742676
 30
0.0
 11
-10.759815818
 21
-11.3266742676
 31
0.0
  0
LINE
  5
D2
330
1F
100
AcDbEntity
  8
0
  6
Continuous
 62
     7
370
    25
100
AcDbLine
 10
-10.759815818
 20
-11.3266742676
 30
0.0
 11
-10.509815818
 21
-11.3266742676
 31
0.0
  0
LINE
  5
D3
330
1F
100
AcDbEntity
  8
0
  6
Continuous
 62
     7
370
    25
100
AcDbLine
 10
-10.509815818
 20
-9.7766742676
 30
0.0
 11
-10.509815818
 21
-10.0266742676
 31
0.0
  0
LINE
  5
D4
330
1F
100
AcDbEntity
  8
0
  6
Continuous
 62
     7
370
    25
100
AcDbLine
 10
-10.509815818
 20
-10.0266742676
 30
0.0
 11
-10.759815818
 21
-10.0266742676
 31
0.0
  0
LINE
  5
D5
330
1F
100
AcDbEntity
  8
0
  6
Continuous
 62
     7
370
    25
100
AcDbLine
 10
-10.759815818
 20
-10.0266742676
 30
0.0
 11
-10.759815818
 21
-9.7766742676
 31
0.0
  0
LINE
  5
D6
330
1F
100
AcDbEntity
  8
0
  6
Continuous
 62
     7
370
    25
100
AcDbLine
 10
-10.759815818
 20
-9.7766742676
 30
0.0
 11
-10.509815818
 21
-9.7766742676
 31
0.0
  0
CIRCLE
  5
D7
330
1F
100
AcDbEntity
  8
0
  6
Continuous
 62
     7
370
    25
100
AcDbCircle
 10
-13.568468658
 20
-1.0409865473
 30
0.0
 40
0.3499945910241244
  0
LINE
  5
D8
330
1F
100
AcDbEntity
  8
0
  6
Continuous
 62
     7
370
    25
100
AcDbLine
 10
-5.8060716818
 20
-1.1687178013
 30
0.0
 11
-5.8060716818
 21
-1.1437181877
 31
0.0
  0
LINE
  5
D9
330
1F
100
AcDbEntity
  8
0
  6
Continuous
 62
     7
370
    25
100
AcDbLine
 10
-5.8510709864
 20
-1.1687178013
 30
0.0
 11
-5.8060716818
 21
-1.1687178013
 31
0.0
  0
LINE
  5
DA
330
1F
100
AcDbEntity
  8
0
  6
Continuous
 62
     7
370
    25
100
AcDbLine
 10
-5.8510709864
 20
-1.1437181877
 30
0.0
 11
-5.8510709864
 21
-1.1687178013
 31
0.0
  0
LINE
  5
DB
330
1F
100
AcDbEntity
  8
0
  6
Continuous
 62
     7
370
    25
100
AcDbLine
 10
-5.8060716818
 20
-1.1437181877
 30
0.0
 11
-5.8510709864
 21
-1.1437181877
 31
0.0
  0
ENDSEC
  0
SECTION
  2
OBJECTS
  0
DICTIONARY
  5
C
330
0
100
AcDbDictionary
281
     1
  3
ACAD_GROUP
350
D
  3
ACAD_LAYOUT
350
1A
  3
ACAD_MLINESTYLE
350
17
  3
ACAD_PLOTSETTINGS
350
19
  3
ACAD_PLOTSTYLENAME
350
E
  3
ACAD_SCALELIST
350
47
  0
DICTIONARY
  5
D
102
{ACAD_REACTORS
330
C
102
}
330
C
100
AcDbDictionary
281
     1
  0
DICTIONARY
  5
1A
102
{ACAD_REACTORS
330
C
102
}
330
C
100
AcDbDictionary
281
     1
  3
Layout1
350
1E
  3
Layout2
350
26
  3
Model
350
22
  0
DICTIONARY
  5
17
102
{ACAD_REACTORS
330
C
102
}
330
C
100
AcDbDictionary
281
     1
  3
Standard
350
18
  0
DICTIONARY
  5
19
102
{ACAD_REACTORS
330
C
102
}
330
C
100
AcDbDictionary
281
     1
  0
ACDBDICTIONARYWDFLT
  5
E
102
{ACAD_REACTORS
330
C
102
}
330
C
100
AcDbDictionary
281
     1
  3
Normal
350
F
100
AcDbDictionaryWithDefault
340
F
  0
DICTIONARY
  5
47
102
{ACAD_REACTORS
330
C
102
}
330
C
100
AcDbDictionary
281
     1
  3
A0
350
48
  3
A1
350
49
  3
A2
350
4A
  3
A3
350
4B
  3
A4
350
4C
  3
A5
350
4D
  3
A6
350
4E
  3
A7
350
4F
  3
A8
350
50
  3
A9
350
51
  3
B0
350
52
  3
B1
350
53
  3
B2
350
54
  3
B3
350
55
  3
B4
350
56
  3
B5
350
57
  3
B6
350
58
  3
B7
350
59
  3
B8
350
5A
  3
B9
350
5B
  3
C0
350
5C
  3
C1
350
5D
  3
C2
350
5E
  3
C3
350
5F
  3
C4
350
60
  3
C5
350
61
  3
C6
350
62
  3
C7
350
63
  3
C8
350
64
  3
C9
350
65
  3
D0
350
66
  3
D1
350
67
  3
D2
350
68
  0
LAYOUT
  5
1E
102
{ACAD_REACTORS
330
1A
102
}
330
1A
100
AcDbPlotSettings
  1

  2
none_device
  4

  6

 40
0.0
 41
0.0
 42
0.0
 43
0.0
 44
0.0
 45
0.0
 46
0.0
 47
0.0
 48
0.0
 49
0.0
140
0.0
141
0.0
142
1.0
143
1.0
 70
   688
 72
     0
 73
     0
 74
     5
  7

 75
    16
147
1.0
148
0.0
149
0.0
100
AcDbLayout
  1
Layout1
 70
     1
 71
     1
 10
0.0
 20
0.0
 11
12.0
 21
9.0
 12
0.0
 22
0.0
 32
0.0
 14
1.0000000000E+20
 24
1.0000000000E+20
 34
1.0000000000E+20
 15
-1.0000000000E+20
 25
-1.0000000000E+20
 35
-1.0000000000E+20
146
0.0
 13
0.0
 23
0.0
 33
0.0
 16
1.0
 26
0.0
 36
0.0
 17
0.0
 27
1.0
 37
0.0
 76
     0
330
1B
  0
LAYOUT
  5
26
102
{ACAD_REACTORS
330
1A
102
}
330
1A
100
AcDbPlotSettings
  1

  2
none_device
  4

  6

 40
0.0
 41
0.0
 42
0.0
 43
0.0
 44
0.0
 45
0.0
 46
0.0
 47
0.0
 48
0.0
 49
0.0
140
0.0
141
0.0
142
1.0
143
1.0
 70
   688
 72
     0
 73
     0
 74
     5
  7

 75
    16
147
1.0
148
0.0
149
0.0
100
AcDbLayout
  1
Layout2
 70
     1
 71
     2
 10
0.0
 20
0.0
 11
0.0
 21
0.0
 12
0.0
 22
0.0
 32
0.0
 14
0.0
 24
0.0
 34
0.0
 15
0.0
 25
0.0
 35
0.0
146
0.0
 13
0.0
 23
0.0
 33
0.0
 16
1.0
 26
0.0
 36
0.0
 17
0.0
 27
1.0
 37
0.0
 76
     0
330
23
  0
LAYOUT
  5
22
102
{ACAD_REACTORS
330
1A
102
}
330
1A
100
AcDbPlotSettings
  1

  2
none_device
  4
ANSI_A_(11.00_x_8.50_Inches)
  6

 40
6.35
 41
19.05
 42
6.35000508
 43
19.05000254
 44
279.4
 45
215.9
 46
295.6101918389
 47
206.5310549007
 48
0.0
 49
0.0
140
0.0
141
0.0
142
0.7505212204
143
1.0
 70
  1696
 72
     0
 73
     0
 74
     0
  7

 75
     0
147
0.5913241897
148
-39.4088153714
149
0.0
100
AcDbLayout
  1
Model
 70
     1
 71
     0
 10
0.0
 20
0.0
 11
12.0
 21
9.0
 12
0.0
 22
0.0
 32
0.0
 14
-14.118544629
 24
-11.7766742676
 34
0.0
 15
-2.904815818
 25
-0.5644663098
 35
0.0
146
0.0
 13
0.0
 23
0.0
 33
0.0
 16
1.0
 26
0.0
 36
0.0
 17
0.0
 27
1.0
 37
0.0
 76
     0
330
1F
331
29
  0
MLINESTYLE
  5
18
102
{ACAD_REACTORS
330
17
102
}
330
17
100
AcDbMlineStyle
  2
Standard
 70
     0
  3

 62
   256
 51
90.0
 52
90.0
 71
     2
 49
0.5
 62
   256
  6
BYLAYER
 49
-0.5
 62
   256
  6
BYLAYER
  0
ACDBPLACEHOLDER
  5
F
102
{ACAD_REACTORS
330
E
102
}
330
E
  0
SCALE
  5
48
102
{ACAD_REACTORS
330
47
102
}
330
47
100
AcDbScale
 70
     0
300
1:1
140
1.0
141
1.0
290
     1
  0
SCALE
  5
49
102
{ACAD_REACTORS
330
47
102
}
330
47
100
AcDbScale
 70
     0
300
1:2
140
1.0
141
2.0
290
     0
  0
SCALE
  5
4A
102
{ACAD_REACTORS
330
47
102
}
330
47
100
AcDbScale
 70
     0
300
1:4
140
1.0
141
4.0
290
     0
  0
SCALE
  5
4B
102
{ACAD_REACTORS
330
47
102
}
330
47
100
AcDbScale
 70
     0
300
1:5
140
1.0
141
5.0
290
     0
  0
SCALE
  5
4C
102
{ACAD_REACTORS
330
47
102
}
330
47
100
AcDbScale
 70
     0
300
1:8
140
1.0
141
8.0
290
     0
  0
SCALE
  5
4D
102
{ACAD_REACTORS
330
47
102
}
330
47
100
AcDbScale
 70
     0
300
1:10
140
1.0
141
10.0
290
     0
  0
SCALE
  5
4E
102
{ACAD_REACTORS
330
47
102
}
330
47
100
AcDbScale
 70
     0
300
1:16
140
1.0
141
16.0
290
     0
  0
SCALE
  5
4F
102
{ACAD_REACTORS
330
47
102
}
330
47
100
AcDbScale
 70
     0
300
1:20
140
1.0
141
20.0
290
     0
  0
SCALE
  5
50
102
{ACAD_REACTORS
330
47
102
}
330
47
100
AcDbScale
 70
     0
300
1:30
140
1.0
141
30.0
290
     0
  0
SCALE
  5
51
102
{ACAD_REACTORS
330
47
102
}
330
47
100
AcDbScale
 70
     0
300
1:40
140
1.0
141
40.0
290
     0
  0
SCALE
  5
52
102
{ACAD_REACTORS
330
47
102
}
330
47
100
AcDbScale
 70
     0
300
1:50
140
1.0
141
50.0
290
     0
  0
SCALE
  5
53
102
{ACAD_REACTORS
330
47
102
}
330
47
100
AcDbScale
 70
     0
300
1:100
140
1.0
141
100.0
290
     0
  0
SCALE
  5
54
102
{ACAD_REACTORS
330
47
102
}
330
47
100
AcDbScale
 70
     0
300
2:1
140
2.0
141
1.0
290
     0
  0
SCALE
  5
55
102
{ACAD_REACTORS
330
47
102
}
330
47
100
AcDbScale
 70
     0
300
4:1
140
4.0
141
1.0
290
     0
  0
SCALE
  5
56
102
{ACAD_REACTORS
330
47
102
}
330
47
100
AcDbScale
 70
     0
300
8:1
140
8.0
141
1.0
290
     0
  0
SCALE
  5
57
102
{ACAD_REACTORS
330
47
102
}
330
47
100
AcDbScale
 70
     0
300
10:1
140
10.0
141
1.0
290
     0
  0
SCALE
  5
58
102
{ACAD_REACTORS
330
47
102
}
330
47
100
AcDbScale
 70
     0
300
100:1
140
100.0
141
1.0
290
     0
  0
SCALE
  5
59
102
{ACAD_REACTORS
330
47
102
}
330
47
100
AcDbScale
 70
     0
300
1/128" = 1'-0"
140
0.0078125
141
12.0
290
     0
  0
SCALE
  5
5A
102
{ACAD_REACTORS
330
47
102
}
330
47
100
AcDbScale
 70
     0
300
1/64" = 1'-0"
140
0.015625
141
12.0
290
     0
  0
SCALE
  5
5B
102
{ACAD_REACTORS
330
47
102
}
330
47
100
AcDbScale
 70
     0
300
1/32" = 1'-0"
140
0.03125
141
12.0
290
     0
  0
SCALE
  5
5C
102
{ACAD_REACTORS
330
47
102
}
330
47
100
AcDbScale
 70
     0
300
1/16" = 1'-0"
140
0.0625
141
12.0
290
     0
  0
SCALE
  5
5D
102
{ACAD_REACTORS
330
47
102
}
330
47
100
AcDbScale
 70
     0
300
3/32" = 1'-0"
140
0.09375
141
12.0
290
     0
  0
SCALE
  5
5E
102
{ACAD_REACTORS
330
47
102
}
330
47
100
AcDbScale
 70
     0
300
1/8" = 1'-0"
140
0.125
141
12.0
290
     0
  0
SCALE
  5
5F
102
{ACAD_REACTORS
330
47
102
}
330
47
100
AcDbScale
 70
     0
300
3/16" = 1'-0"
140
0.1875
141
12.0
290
     0
  0
SCALE
  5
60
102
{ACAD_REACTORS
330
47
102
}
330
47
100
AcDbScale
 70
     0
300
1/4" = 1'-0"
140
0.25
141
12.0
290
     0
  0
SCALE
  5
61
102
{ACAD_REACTORS
330
47
102
}
330
47
100
AcDbScale
 70
     0
300
3/8" = 1'-0"
140
0.375
141
12.0
290
     0
  0
SCALE
  5
62
102
{ACAD_REACTORS
330
47
102
}
330
47
100
AcDbScale
 70
     0
300
1/2" = 1'-0"
140
0.5
141
12.0
290
     0
  0
SCALE
  5
63
102
{ACAD_REACTORS
330
47
102
}
330
47
100
AcDbScale
 70
     0
300
3/4" = 1'-0"
140
0.75
141
12.0
290
     0
  0
SCALE
  5
64
102
{ACAD_REACTORS
330
47
102
}
330
47
100
AcDbScale
 70
     0
300
1" = 1'-0"
140
1.0
141
12.0
290
     0
  0
SCALE
  5
65
102
{ACAD_REACTORS
330
47
102
}
330
47
100
AcDbScale
 70
     0
300
1-1/2" = 1'-0"
140
1.5
141
12.0
290
     0
  0
SCALE
  5
66
102
{ACAD_REACTORS
330
47
102
}
330
47
100
AcDbScale
 70
     0
300
3" = 1'-0"
140
3.0
141
12.0
290
     0
  0
SCALE
  5
67
102
{ACAD_REACTORS
330
47
102
}
330
47
100
AcDbScale
 70
     0
300
6" = 1'-0"
140
6.0
141
12.0
290
     0
  0
SCALE
  5
68
102
{ACAD_REACTORS
330
47
102
}
330
47
100
AcDbScale
 70
     0
300
1'-0" = 1'-0"
140
12.0
141
12.0
290
     0
  0
ENDSEC
  0
EOF
