  0
SECTION
  2
HEADER
  9
$ACADVER
  1
AC1009
  9
$DWGCODEPAGE
  3
ansi_1252
  9
$INSBASE
 10
0.0
 20
0.0
 30
0.0
  9
$EXTMIN
 10
1.269999850968979
 20
13.68638562612122
 30
0.0
  9
$EXTMAX
 10
31.27000000000009
 20
43.68638562612145
 30
0.0
  9
$LIMMIN
 10
0.0
 20
0.0
  9
$LIMMAX
 10
12.0
 20
9.0
  9
$ORTHOMODE
 70
     0
  9
$REGENMODE
 70
     1
  9
$FILLMODE
 70
     1
  9
$QTEXTMODE
 70
     0
  9
$MIRRTEXT
 70
     1
  9
$DRAGMODE
 70
     2
  9
$LTSCALE
 40
1.0
  9
$OSMODE
 70
    37
  9
$ATTMODE
 70
     1
  9
$TEXTSIZE
 40
0.2
  9
$TRACEWID
 40
0.05
  9
$TEXTSTYLE
  7
STANDARD
  9
$CLAYER
  8
0
  9
$CELTYPE
  6
BYLAYER
  9
$CECOLOR
 62
   256
  9
$DIMSCALE
 40
1.0
  9
$DIMASZ
 40
0.18
  9
$DIMEXO
 40
0.0625
  9
$DIMDLI
 40
0.38
  9
$DIMRND
 40
0.0
  9
$DIMDLE
 40
0.0
  9
$DIMEXE
 40
0.18
  9
$DIMTP
 40
0.0
  9
$DIMTM
 40
0.0
  9
$DIMTXT
 40
0.18
  9
$DIMCEN
 40
0.09
  9
$DIMTSZ
 40
0.0
  9
$DIMTOL
 70
     0
  9
$DIMLIM
 70
     0
  9
$DIMTIH
 70
     1
  9
$DIMTOH
 70
     1
  9
$DIMSE1
 70
     0
  9
$DIMSE2
 70
     0
  9
$DIMTAD
 70
     0
  9
$DIMZIN
 70
     0
  9
$DIMBLK
  1

  9
$DIMASO
 70
     1
  9
$DIMSHO
 70
     1
  9
$DIMPOST
  1

  9
$DIMAPOST
  1

  9
$DIMALT
 70
     0
  9
$DIMALTD
 70
     2
  9
$DIMALTF
 40
25.4
  9
$DIMLFAC
 40
1.0
  9
$DIMTOFL
 70
     0
  9
$DIMTVP
 40
0.0
  9
$DIMTIX
 70
     0
  9
$DIMSOXD
 70
     0
  9
$DIMSAH
 70
     0
  9
$DIMBLK1
  1

  9
$DIMBLK2
  1

  9
$DIMSTYLE
  2
STANDARD
  9
$DIMCLRD
 70
     0
  9
$DIMCLRE
 70
     0
  9
$DIMCLRT
 70
     0
  9
$DIMTFAC
 40
1.0
  9
$DIMGAP
 40
0.09
  9
$LUNITS
 70
     2
  9
$LUPREC
 70
     3
  9
$SKETCHINC
 40
0.1
  9
$FILLETRAD
 40
0.5
  9
$AUNITS
 70
     0
  9
$AUPREC
 70
     0
  9
$MENU
  1
.
  9
$ELEVATION
 40
0.0
  9
$PELEVATION
 40
0.0
  9
$THICKNESS
 40
0.0
  9
$LIMCHECK
 70
     0
  9
$CHAMFERA
 40
0.0
  9
$CHAMFERB
 40
0.0
  9
$SKPOLY
 70
     0
  9
$TDCREATE
 40
2458186.624699445
  9
$TDUPDATE
 40
2458186.624712824
  9
$TDINDWG
 40
0.0000000116
  9
$TDUSRTIMER
 40
0.0000000116
  9
$USRTIMER
 70
     1
  9
$ANGBASE
 50
0.0
  9
$ANGDIR
 70
     0
  9
$PDMODE
 70
     0
  9
$PDSIZE
 40
0.0
  9
$PLINEWID
 40
0.0
  9
$COORDS
 70
     1
  9
$SPLFRAME
 70
     0
  9
$SPLINETYPE
 70
     6
  9
$SPLINESEGS
 70
     8
  9
$ATTDIA
 70
     0
  9
$ATTREQ
 70
     1
  9
$HANDLING
 70
     1
  9
$HANDSEED
  5
1EE
  9
$SURFTAB1
 70
     6
  9
$SURFTAB2
 70
     6
  9
$SURFTYPE
 70
     6
  9
$SURFU
 70
     6
  9
$SURFV
 70
     6
  9
$UCSNAME
  2

  9
$UCSORG
 10
0.0
 20
0.0
 30
0.0
  9
$UCSXDIR
 10
1.0
 20
0.0
 30
0.0
  9
$UCSYDIR
 10
0.0
 20
1.0
 30
0.0
  9
$PUCSNAME
  2

  9
$PUCSORG
 10
0.0
 20
0.0
 30
0.0
  9
$PUCSXDIR
 10
1.0
 20
0.0
 30
0.0
  9
$PUCSYDIR
 10
0.0
 20
1.0
 30
0.0
  9
$USERI1
 70
     0
  9
$USERI2
 70
     0
  9
$USERI3
 70
     0
  9
$USERI4
 70
     0
  9
$USERI5
 70
     0
  9
$USERR1
 40
0.0
  9
$USERR2
 40
0.0
  9
$USERR3
 40
0.0
  9
$USERR4
 40
0.0
  9
$USERR5
 40
0.0
  9
$WORLDVIEW
 70
     1
  9
$SHADEDGE
 70
     3
  9
$SHADEDIF
 70
    70
  9
$TILEMODE
 70
     1
  9
$MAXACTVP
 70
    64
  9
$PLIMCHECK
 70
     0
  9
$PEXTMIN
 10
1.000000000000000E+20
 20
1.000000000000000E+20
 30
1.000000000000000E+20
  9
$PEXTMAX
 10
-1.000000000000000E+20
 20
-1.000000000000000E+20
 30
-1.000000000000000E+20
  9
$PLIMMIN
 10
0.0
 20
0.0
  9
$PLIMMAX
 10
12.0
 20
9.0
  9
$UNITMODE
 70
     0
  9
$VISRETAIN
 70
     1
  9
$PLINEGEN
 70
     0
  9
$PSLTSCALE
 70
     1
  0
ENDSEC
  0
SECTION
  2
TABLES
  0
TABLE
  2
VPORT
 70
     1
  0
VPORT
  2
*ACTIVE
 70
     0
 10
0.0
 20
0.0
 11
1.0
 21
1.0
 12
16.26999992548453
 22
28.68638562612134
 13
0.0
 23
0.0
 14
0.5
 24
0.5
 15
0.5
 25
0.5
 16
0.0
 26
0.0
 36
1.0
 17
0.0
 27
0.0
 37
0.0
 40
30.60000000000023
 41
1.000000004967696
 42
50.0
 43
0.0
 44
0.0
 50
0.0
 51
0.0
 71
     0
 72
   100
 73
     1
 74
     3
 75
     0
 76
     0
 77
     0
 78
     0
  0
ENDTAB
  0
TABLE
  2
LTYPE
 70
     1
  0
LTYPE
  2
CONTINUOUS
 70
     0
  3
Solid line
 72
    65
 73
     0
 40
0.0
  0
ENDTAB
  0
TABLE
  2
LAYER
 70
     4
  0
LAYER
  2
0
 70
     0
 62
     7
  6
CONTINUOUS
  0
LAYER
  2
CUT_SHEETS$PROFILE_CUTS_IN
 70
     0
 62
     5
  6
CONTINUOUS
  0
LAYER
  2
CUT_SHEETS$PROFILE_CUTS_OU
 70
     0
 62
    96
  6
CONTINUOUS
  0
LAYER
  2
CUT_SHEETS$POCKETS
 70
     0
 62
     7
  6
CONTINUOUS
  0
ENDTAB
  0
TABLE
  2
STYLE
 70
     1
  0
STYLE
  2
STANDARD
 70
     0
 40
0.0
 41
1.0
 50
0.0
 71
     0
 42
0.2
  3
txt
  4

  0
ENDTAB
  0
TABLE
  2
VIEW
 70
     0
  0
ENDTAB
  0
TABLE
  2
UCS
 70
     0
  0
ENDTAB
  0
TABLE
  2
APPID
 70
     1
  0
APPID
  2
ACAD
 70
     0
  0
ENDTAB
  0
TABLE
  2
DIMSTYLE
 70
     1
  0
DIMSTYLE
  2
STANDARD
 70
     0
  3

  4

  5

  6

  7

 40
1.0
 41
0.18
 42
0.0625
 43
0.38
 44
0.18
 45
0.0
 46
0.0
 47
0.0
 48
0.0
140
0.18
141
0.09
142
0.0
143
25.4
144
1.0
145
0.0
146
1.0
147
0.09
 71
     0
 72
     0
 73
     1
 74
     1
 75
     0
 76
     0
 77
     0
 78
     0
170
     0
171
     2
172
     0
173
     0
174
     0
175
     0
176
     0
177
     0
178
     0
  0
ENDTAB
  0
ENDSEC
  0
SECTION
  2
BLOCKS
  0
BLOCK
  8
0
  2
$MODEL_SPACE
 70
     0
 10
0.0
 20
0.0
 30
0.0
  3
$MODEL_SPACE
  1

  0
ENDBLK
  5
21
  8
0
  0
BLOCK
 67
     1
  8
0
  2
$PAPER_SPACE
 70
     0
 10
0.0
 20
0.0
 30
0.0
  3
$PAPER_SPACE
  1

  0
ENDBLK
  5
1D
 67
     1
  8
0
  0
ENDSEC
  0
SECTION
  2
ENTITIES
  0
LINE
  5
6F
  8
CUT_SHEETS$PROFILE_CUTS_IN
 10
2.429666850387029
 20
38.89163242460836
 30
0.0
 11
2.429666850387026
 21
18.48113882763507
 31
0.0
  0
ARC
  5
70
  8
CUT_SHEETS$PROFILE_CUTS_IN
 10
2.485793451143714
 20
18.4250122268784
 30
0.0
 40
0.0793750000000008
 50
135.000000000002
 51
314.9999999999977
  0
LINE
  5
71
  8
CUT_SHEETS$PROFILE_CUTS_IN
 10
2.541920051900391
 20
18.36888562612171
 30
0.0
 11
2.634913648873663
 21
18.36888562612171
 31
0.0
  0
ARC
  5
72
  8
CUT_SHEETS$PROFILE_CUTS_IN
 10
2.691040249630345
 20
18.4250122268784
 30
0.0
 40
0.0793750000000001
 50
225.000000000002
 51
45.00000000000227
  0
LINE
  5
73
  8
CUT_SHEETS$PROFILE_CUTS_IN
 10
2.747166850387025
 20
18.48113882763507
 30
0.0
 11
2.747166850387025
 21
38.89163242460836
 31
0.0
  0
ARC
  5
74
  8
CUT_SHEETS$PROFILE_CUTS_IN
 10
2.691040249630344
 20
38.94775902536503
 30
0.0
 40
0.0793750000000011
 50
314.9999999999986
 51
134.9999999999987
  0
LINE
  5
75
  8
CUT_SHEETS$PROFILE_CUTS_IN
 10
2.634913648873663
 20
39.00388562612173
 30
0.0
 11
2.541920051900394
 21
39.00388562612173
 31
0.0
  0
ARC
  5
76
  8
CUT_SHEETS$PROFILE_CUTS_IN
 10
2.485793451143714
 20
38.94775902536503
 30
0.0
 40
0.0793750000000014
 50
45.00000000000113
 51
225.0000000000011
  0
LINE
  5
77
  8
CUT_SHEETS$PROFILE_CUTS_IN
 10
30.11033314961303
 20
38.89163242460836
 30
0.0
 11
30.11033314961304
 21
18.48113882763507
 31
0.0
  0
ARC
  5
78
  8
CUT_SHEETS$PROFILE_CUTS_IN
 10
30.05420654885635
 20
18.4250122268784
 30
0.0
 40
0.0793750000000004
 50
225.0000000000018
 51
44.99999999999819
  0
LINE
  5
79
  8
CUT_SHEETS$PROFILE_CUTS_IN
 10
29.99807994809967
 20
18.36888562612171
 30
0.0
 11
29.9050863511264
 21
18.36888562612171
 31
0.0
  0
ARC
  5
7A
  8
CUT_SHEETS$PROFILE_CUTS_IN
 10
29.84895975036972
 20
18.4250122268784
 30
0.0
 40
0.079375000000003
 50
134.9999999999964
 51
315.0
  0
LINE
  5
7B
  8
CUT_SHEETS$PROFILE_CUTS_IN
 10
29.79283314961304
 20
18.48113882763507
 30
0.0
 11
29.79283314961304
 21
38.89163242460836
 31
0.0
  0
ARC
  5
7C
  8
CUT_SHEETS$PROFILE_CUTS_IN
 10
29.84895975036972
 20
38.94775902536503
 30
0.0
 40
0.0793749999999979
 50
45.00000000000181
 51
225.0000000000036
  0
LINE
  5
7D
  8
CUT_SHEETS$PROFILE_CUTS_IN
 10
29.9050863511264
 20
39.00388562612173
 30
0.0
 11
29.99807994809967
 21
39.00388562612173
 31
0.0
  0
ARC
  5
7E
  8
CUT_SHEETS$PROFILE_CUTS_IN
 10
30.05420654885635
 20
38.94775902536503
 30
0.0
 40
0.0793750000000004
 50
314.9999999999982
 51
134.9999999999982
  0
LINE
  5
7F
  8
CUT_SHEETS$PROFILE_CUTS_IN
 10
11.07904676279959
 20
18.89528634590109
 30
0.0
 11
10.66855321992821
 21
18.89528634590109
 31
0.0
  0
ARC
  5
80
  8
CUT_SHEETS$PROFILE_CUTS_IN
 10
10.61242661917153
 20
18.95141294665778
 30
0.0
 40
0.0793749999999979
 50
134.9999998702967
 51
314.9999999999964
  0
LINE
  5
81
  8
CUT_SHEETS$PROFILE_CUTS_IN
 10
10.55630001854191
 20
19.00753954754152
 30
0.0
 11
10.55630001854191
 21
19.41803346252268
 31
0.0
  0
ARC
  5
82
  8
CUT_SHEETS$PROFILE_CUTS_IN
 10
10.61242661917153
 20
19.47416006340643
 30
0.0
 40
0.079375000000003
 50
45.0
 51
225.0000001297096
  0
LINE
  5
83
  8
CUT_SHEETS$PROFILE_CUTS_IN
 10
10.66855321992821
 20
19.53028666416311
 30
0.0
 11
11.07904676279962
 21
19.5302866641631
 31
0.0
  0
ARC
  5
84
  8
CUT_SHEETS$PROFILE_CUTS_IN
 10
11.1351733635563
 20
19.47416006340643
 30
0.0
 40
0.0793750000000004
 50
314.9999998702921
 51
135.0000000000018
  0
LINE
  5
85
  8
CUT_SHEETS$PROFILE_CUTS_IN
 10
11.19129996418592
 20
19.41803346252268
 30
0.0
 11
11.19129996418592
 21
19.00753954754149
 31
0.0
  0
ARC
  5
86
  8
CUT_SHEETS$PROFILE_CUTS_IN
 10
11.13517336355627
 20
18.95141294665779
 30
0.0
 40
0.0793749999999992
 50
225.0000000000018
 51
45.00000012966886
  0
ARC
  5
87
  8
CUT_SHEETS$PROFILE_CUTS_IN
 10
26.53137339924335
 20
15.107425875752
 30
0.0
 40
0.0793750000000004
 50
314.9999999999945
 51
135.0000000000018
  0
LINE
  5
88
  8
CUT_SHEETS$PROFILE_CUTS_IN
 10
26.47524679848667
 20
15.16355247650867
 30
0.0
 11
21.98630015976592
 21
15.16355247650867
 31
0.0
  0
LINE
  5
89
  8
CUT_SHEETS$PROFILE_CUTS_IN
 10
21.98630015976592
 20
15.16355247650867
 30
0.0
 11
21.98630015976592
 21
15.48103268134575
 31
0.0
  0
ARC
  5
8A
  8
CUT_SHEETS$PROFILE_CUTS_IN
 10
21.93017355900924
 20
15.53715928210243
 30
0.0
 40
0.0793749999999992
 50
314.9999999999991
 51
135.0000000000018
  0
LINE
  5
8B
  8
CUT_SHEETS$PROFILE_CUTS_IN
 10
21.87404695825256
 20
15.5932858828591
 30
0.0
 11
21.46355341538121
 21
15.5932858828591
 31
0.0
  0
ARC
  5
8C
  8
CUT_SHEETS$PROFILE_CUTS_IN
 10
21.40742681462453
 20
15.53715928210243
 30
0.0
 40
0.0793749999999992
 50
45.0000000000009
 51
225.0000000000698
  0
LINE
  5
8D
  8
CUT_SHEETS$PROFILE_CUTS_IN
 10
21.35130021386792
 20
15.48103268134568
 30
0.0
 11
21.35130021386794
 21
15.16355247650867
 31
0.0
  0
LINE
  5
8E
  8
CUT_SHEETS$PROFILE_CUTS_IN
 10
21.35130021386794
 20
15.16355247650867
 30
0.0
 11
11.19129996418592
 21
15.16355247650867
 31
0.0
  0
LINE
  5
8F
  8
CUT_SHEETS$PROFILE_CUTS_IN
 10
11.19129996418592
 20
15.16355247650867
 30
0.0
 11
11.19129996418593
 21
15.48103268109174
 31
0.0
  0
ARC
  5
90
  8
CUT_SHEETS$PROFILE_CUTS_IN
 10
11.13517336368325
 20
15.53715928210243
 30
0.0
 40
0.0793750000000017
 50
314.9999997407067
 51
135.0000000000009
  0
LINE
  5
91
  8
CUT_SHEETS$PROFILE_CUTS_IN
 10
11.07904676292657
 20
15.5932858828591
 30
0.0
 11
10.66855322005522
 21
15.5932858828591
 31
0.0
  0
ARC
  5
92
  8
CUT_SHEETS$PROFILE_CUTS_IN
 10
10.61242661929854
 20
15.53715928210243
 30
0.0
 40
0.0793749999999992
 50
44.9999999999991
 51
225.000000000068
  0
LINE
  5
93
  8
CUT_SHEETS$PROFILE_CUTS_IN
 10
10.55630001854192
 20
15.48103268134568
 30
0.0
 11
10.55630001854194
 21
15.16355247650867
 31
0.0
  0
LINE
  5
94
  8
CUT_SHEETS$PROFILE_CUTS_IN
 10
10.55630001854194
 20
15.16355247650867
 30
0.0
 11
6.064753201513398
 21
15.16355247650867
 31
0.0
  0
ARC
  5
95
  8
CUT_SHEETS$PROFILE_CUTS_IN
 10
6.008626600756717
 20
15.107425875752
 30
0.0
 40
0.0793750000000004
 50
45.00000000000181
 51
225.0000000000036
  0
LINE
  5
96
  8
CUT_SHEETS$PROFILE_CUTS_IN
 10
5.952500000000036
 20
15.0512992749953
 30
0.0
 11
5.952500000000043
 21
14.95830567802201
 31
0.0
  0
ARC
  5
97
  8
CUT_SHEETS$PROFILE_CUTS_IN
 10
6.008626600756716
 20
14.90217907726534
 30
0.0
 40
0.0793750000000011
 50
134.9999999999914
 51
314.9999999999986
  0
LINE
  5
98
  8
CUT_SHEETS$PROFILE_CUTS_IN
 10
6.064753201513398
 20
14.84605247650864
 30
0.0
 11
26.47524679848666
 21
14.84605247650864
 31
0.0
  0
ARC
  5
99
  8
CUT_SHEETS$PROFILE_CUTS_IN
 10
26.53137339924334
 20
14.90217907726534
 30
0.0
 40
0.0793749999999992
 50
225.0000000000009
 51
44.99999999999819
  0
LINE
  5
9A
  8
CUT_SHEETS$PROFILE_CUTS_IN
 10
26.58750000000003
 20
14.95830567802201
 30
0.0
 11
26.58750000000003
 21
15.05129927499531
 31
0.0
  0
LINE
  5
9B
  8
CUT_SHEETS$PROFILE_CUTS_IN
 10
21.87404695825258
 20
18.89528634590109
 30
0.0
 11
21.46355341538121
 21
18.89528634590109
 31
0.0
  0
ARC
  5
9C
  8
CUT_SHEETS$PROFILE_CUTS_IN
 10
21.40742681462453
 20
18.95141294665778
 30
0.0
 40
0.079375000000003
 50
134.9999999999384
 51
315.0
  0
LINE
  5
9D
  8
CUT_SHEETS$PROFILE_CUTS_IN
 10
21.35130021386791
 20
19.00753954741452
 30
0.0
 11
21.35130021386791
 21
19.41803346264969
 31
0.0
  0
ARC
  5
9E
  8
CUT_SHEETS$PROFILE_CUTS_IN
 10
21.40742681462453
 20
19.47416006340643
 30
0.0
 40
0.0793749999999979
 50
45.0
 51
225.0000000000617
  0
LINE
  5
9F
  8
CUT_SHEETS$PROFILE_CUTS_IN
 10
21.46355341538121
 20
19.5302866641631
 30
0.0
 11
21.87404695825262
 21
19.5302866641631
 31
0.0
  0
ARC
  5
A0
  8
CUT_SHEETS$PROFILE_CUTS_IN
 10
21.9301735590093
 20
19.47416006340643
 30
0.0
 40
0.0793749999999954
 50
314.9999999999438
 51
135.0000000000018
  0
LINE
  5
A1
  8
CUT_SHEETS$PROFILE_CUTS_IN
 10
21.98630015976592
 20
19.41803346264969
 30
0.0
 11
21.98630015976593
 21
19.00753954741449
 31
0.0
  0
ARC
  5
A2
  8
CUT_SHEETS$PROFILE_CUTS_IN
 10
21.93017355900927
 20
18.95141294665779
 30
0.0
 40
0.0793750000000004
 50
225.0000000000018
 51
45.00000000002357
  0
LINE
  5
A3
  8
CUT_SHEETS$PROFILE_CUTS_IN
 10
3.013679656440438
 20
18.16363882763545
 30
0.0
 11
3.013679656440441
 21
18.57413242460865
 31
0.0
  0
ARC
  5
A4
  8
CUT_SHEETS$PROFILE_CUTS_IN
 10
3.069806257197119
 20
18.63025902536534
 30
0.0
 40
0.0793750000000008
 50
45.00000000006347
 51
225.0000000000052
  0
LINE
  5
A5
  8
CUT_SHEETS$PROFILE_CUTS_IN
 10
3.125932857953739
 20
18.68638562612209
 30
0.0
 11
3.401426454927044
 21
18.68638562612207
 31
0.0
  0
ARC
  5
A6
  8
CUT_SHEETS$PROFILE_CUTS_IN
 10
3.457553055683724
 20
18.6302590253654
 30
0.0
 40
0.0793749999999976
 50
315.0000000000439
 51
134.9999999999998
  0
LINE
  5
A7
  8
CUT_SHEETS$PROFILE_CUTS_IN
 10
3.513679656440448
 20
18.57413242460876
 30
0.0
 11
3.513679656440438
 21
18.16363882763536
 31
0.0
  0
ARC
  5
A8
  8
CUT_SHEETS$PROFILE_CUTS_IN
 10
3.457553055683725
 20
18.10751222687872
 30
0.0
 40
0.0793750000000011
 50
224.9999999999911
 51
44.99999999995784
  0
LINE
  5
A9
  8
CUT_SHEETS$PROFILE_CUTS_IN
 10
3.401426454927034
 20
18.05138562612204
 30
0.0
 11
3.125932857953785
 21
18.05138562612208
 31
0.0
  0
ARC
  5
AA
  8
CUT_SHEETS$PROFILE_CUTS_IN
 10
3.069806257197115
 20
18.10751222687876
 30
0.0
 40
0.0793750000000001
 50
134.999999999995
 51
314.9999999999871
  0
LINE
  5
AB
  8
CUT_SHEETS$PROFILE_CUTS_IN
 10
26.90499999999999
 20
15.81781208104895
 30
0.0
 11
26.90499999999999
 21
15.54231848407576
 31
0.0
  0
ARC
  5
AC
  8
CUT_SHEETS$PROFILE_CUTS_IN
 10
26.84887339924334
 20
15.48619188331906
 30
0.0
 40
0.0793749999999992
 50
225.0000000000009
 51
45.00000000002993
  0
LINE
  5
AD
  8
CUT_SHEETS$PROFILE_CUTS_IN
 10
26.79274679848665
 20
15.43006528256236
 30
0.0
 11
26.38225320151331
 21
15.43006528256236
 31
0.0
  0
ARC
  5
AE
  8
CUT_SHEETS$PROFILE_CUTS_IN
 10
26.32612660075663
 20
15.48619188331906
 30
0.0
 40
0.0793749999999992
 50
134.9999999999374
 51
314.9999999999991
  0
LINE
  5
AF
  8
CUT_SHEETS$PROFILE_CUTS_IN
 10
26.27
 20
15.54231848407579
 30
0.0
 11
26.27
 21
15.81781208104894
 31
0.0
  0
ARC
  5
B0
  8
CUT_SHEETS$PROFILE_CUTS_IN
 10
26.32612660075662
 20
15.8739386818057
 30
0.0
 40
0.0793749999999992
 50
44.99999999999638
 51
225.0000000000626
  0
LINE
  5
B1
  8
CUT_SHEETS$PROFILE_CUTS_IN
 10
26.38225320151331
 20
15.93006528256236
 30
0.0
 11
26.79274679848669
 21
15.93006528256236
 31
0.0
  0
ARC
  5
B2
  8
CUT_SHEETS$PROFILE_CUTS_IN
 10
26.84887339924337
 20
15.87393868180569
 30
0.0
 40
0.0793750000000017
 50
314.9999999999401
 51
135.0000000000045
  0
LINE
  5
B3
  8
CUT_SHEETS$PROFILE_CUTS_IN
 10
29.0263203435598
 20
18.16363882763553
 30
0.0
 11
29.0263203435598
 21
18.57413242460857
 31
0.0
  0
ARC
  5
B4
  8
CUT_SHEETS$PROFILE_CUTS_IN
 10
29.08244694431634
 20
18.6302590253654
 30
0.0
 40
0.0793750000000004
 50
44.99999999999819
 51
225.0000000001396
  0
LINE
  5
B5
  8
CUT_SHEETS$PROFILE_CUTS_IN
 10
29.13857354507302
 20
18.68638562612207
 30
0.0
 11
29.41406714204632
 21
18.68638562612209
 31
0.0
  0
ARC
  5
B6
  8
CUT_SHEETS$PROFILE_CUTS_IN
 10
29.47019374280294
 20
18.63025902536534
 30
0.0
 40
0.0793749999999979
 50
315.0000000001958
 51
134.9999999999347
  0
LINE
  5
B7
  8
CUT_SHEETS$PROFILE_CUTS_IN
 10
29.5263203435598
 20
18.57413242460883
 30
0.0
 11
29.52632034355982
 21
18.16363882763526
 31
0.0
  0
ARC
  5
B8
  8
CUT_SHEETS$PROFILE_CUTS_IN
 10
29.47019374280294
 20
18.10751222687876
 30
0.0
 40
0.0793750000000004
 50
225.0000000000635
 51
44.99999999980597
  0
LINE
  5
B9
  8
CUT_SHEETS$PROFILE_CUTS_IN
 10
29.41406714204632
 20
18.05138562612202
 30
0.0
 11
29.13857354507302
 21
18.05138562612202
 31
0.0
  0
ARC
  5
BA
  8
CUT_SHEETS$PROFILE_CUTS_IN
 10
29.08244694431634
 20
18.10751222687871
 30
0.0
 40
0.0793749999999979
 50
134.9999999998549
 51
315.0
  0
LINE
  5
BB
  8
CUT_SHEETS$PROFILE_CUTS_IN
 10
5.634999999999984
 20
15.81781208104901
 30
0.0
 11
5.63499999999998
 21
15.54231848407573
 31
0.0
  0
ARC
  5
BC
  8
CUT_SHEETS$PROFILE_CUTS_IN
 10
5.691126600756665
 20
15.48619188331906
 30
0.0
 40
0.0793750000000004
 50
135.0
 51
315.0
  0
LINE
  5
BD
  8
CUT_SHEETS$PROFILE_CUTS_IN
 10
5.747253201513345
 20
15.43006528256236
 30
0.0
 11
6.157746798486695
 21
15.43006528256236
 31
0.0
  0
ARC
  5
BE
  8
CUT_SHEETS$PROFILE_CUTS_IN
 10
6.213873399243376
 20
15.48619188331906
 30
0.0
 40
0.0793749999999998
 50
225.0000000000004
 51
44.999999999966
  0
LINE
  5
BF
  8
CUT_SHEETS$PROFILE_CUTS_IN
 10
6.270000000000092
 20
15.5423184840757
 30
0.0
 11
6.270000000000088
 21
15.81781208104901
 31
0.0
  0
ARC
  5
C0
  8
CUT_SHEETS$PROFILE_CUTS_IN
 10
6.213873399243409
 20
15.8739386818057
 30
0.0
 40
0.0793750000000011
 50
314.999999999995
 51
135.0000000000059
  0
LINE
  5
C1
  8
CUT_SHEETS$PROFILE_CUTS_IN
 10
6.157746798486723
 20
15.93006528256236
 30
0.0
 11
5.747253201513345
 21
15.93006528256236
 31
0.0
  0
ARC
  5
C2
  8
CUT_SHEETS$PROFILE_CUTS_IN
 10
5.691126600756665
 20
15.87393868180569
 30
0.0
 40
0.0793749999999992
 50
45.0000000000009
 51
225.0000000000009
  0
LINE
  5
C3
  8
CUT_SHEETS$PROFILE_CUTS_IN
 10
11.07904676279959
 20
38.47748490634234
 30
0.0
 11
10.66855321992821
 21
38.47748490634234
 31
0.0
  0
ARC
  5
C4
  8
CUT_SHEETS$PROFILE_CUTS_IN
 10
10.61242661917153
 20
38.42135830558566
 30
0.0
 40
0.0793749999999979
 50
44.99999999999638
 51
225.0000001297115
  0
LINE
  5
C5
  8
CUT_SHEETS$PROFILE_CUTS_IN
 10
10.55630001854191
 20
38.36523170470191
 30
0.0
 11
10.55630001854191
 21
37.95473778972075
 31
0.0
  0
ARC
  5
C6
  8
CUT_SHEETS$PROFILE_CUTS_IN
 10
10.61242661917153
 20
37.89861118883701
 30
0.0
 40
0.0793749999999992
 50
134.9999998702912
 51
314.9999999999982
  0
LINE
  5
C7
  8
CUT_SHEETS$PROFILE_CUTS_IN
 10
10.66855321992821
 20
37.84248458808032
 30
0.0
 11
11.07904676279962
 21
37.84248458808034
 31
0.0
  0
ARC
  5
C8
  8
CUT_SHEETS$PROFILE_CUTS_IN
 10
11.13517336355631
 20
37.89861118883701
 30
0.0
 40
0.0793750000000004
 50
224.9999999999946
 51
45.00000012970875
  0
LINE
  5
C9
  8
CUT_SHEETS$PROFILE_CUTS_IN
 10
11.19129996418592
 20
37.95473778972075
 30
0.0
 11
11.19129996418592
 21
38.36523170470194
 31
0.0
  0
ARC
  5
CA
  8
CUT_SHEETS$PROFILE_CUTS_IN
 10
11.13517336355627
 20
38.42135830558564
 30
0.0
 40
0.079375000000003
 50
314.9999998703302
 51
134.9999999999991
  0
ARC
  5
CB
  8
CUT_SHEETS$PROFILE_CUTS_IN
 10
26.53137339924335
 20
42.26534537649143
 30
0.0
 40
0.0793750000000004
 50
224.9999999999946
 51
45.00000000000907
  0
LINE
  5
CC
  8
CUT_SHEETS$PROFILE_CUTS_IN
 10
26.47524679848667
 20
42.20921877573477
 30
0.0
 11
21.98630015976592
 21
42.20921877573477
 31
0.0
  0
LINE
  5
CD
  8
CUT_SHEETS$PROFILE_CUTS_IN
 10
21.98630015976592
 20
42.20921877573477
 30
0.0
 11
21.98630015976592
 21
41.89173857089769
 31
0.0
  0
ARC
  5
CE
  8
CUT_SHEETS$PROFILE_CUTS_IN
 10
21.93017355900924
 20
41.835611970141
 30
0.0
 40
0.0793750000000004
 50
224.9999999999964
 51
45.00000000000181
  0
LINE
  5
CF
  8
CUT_SHEETS$PROFILE_CUTS_IN
 10
21.87404695825256
 20
41.77948536938433
 30
0.0
 11
21.46355341538121
 21
41.77948536938433
 31
0.0
  0
ARC
  5
D0
  8
CUT_SHEETS$PROFILE_CUTS_IN
 10
21.40742681462453
 20
41.835611970141
 30
0.0
 40
0.0793750000000004
 50
134.9999999999329
 51
314.9999999999982
  0
LINE
  5
D1
  8
CUT_SHEETS$PROFILE_CUTS_IN
 10
21.35130021386792
 20
41.89173857089776
 30
0.0
 11
21.35130021386794
 21
42.20921877573477
 31
0.0
  0
LINE
  5
D2
  8
CUT_SHEETS$PROFILE_CUTS_IN
 10
21.35130021386794
 20
42.20921877573477
 30
0.0
 11
11.19129996418592
 21
42.20921877573477
 31
0.0
  0
LINE
  5
D3
  8
CUT_SHEETS$PROFILE_CUTS_IN
 10
11.19129996418592
 20
42.20921877573477
 30
0.0
 11
11.19129996418593
 21
41.89173857115169
 31
0.0
  0
ARC
  5
D4
  8
CUT_SHEETS$PROFILE_CUTS_IN
 10
11.13517336368325
 20
41.835611970141
 30
0.0
 40
0.0793749999999992
 50
225.0000000000018
 51
45.00000025929149
  0
LINE
  5
D5
  8
CUT_SHEETS$PROFILE_CUTS_IN
 10
11.07904676292657
 20
41.77948536938433
 30
0.0
 11
10.66855322005522
 21
41.77948536938433
 31
0.0
  0
ARC
  5
D6
  8
CUT_SHEETS$PROFILE_CUTS_IN
 10
10.61242661929854
 20
41.835611970141
 30
0.0
 40
0.0793750000000004
 50
134.9999999999338
 51
314.9999999999982
  0
LINE
  5
D7
  8
CUT_SHEETS$PROFILE_CUTS_IN
 10
10.55630001854192
 20
41.89173857089776
 30
0.0
 11
10.55630001854194
 21
42.20921877573477
 31
0.0
  0
LINE
  5
D8
  8
CUT_SHEETS$PROFILE_CUTS_IN
 10
10.55630001854194
 20
42.20921877573477
 30
0.0
 11
6.064753201513398
 21
42.20921877573477
 31
0.0
  0
ARC
  5
D9
  8
CUT_SHEETS$PROFILE_CUTS_IN
 10
6.008626600756719
 20
42.26534537649144
 30
0.0
 40
0.0793749999999992
 50
134.9999999999978
 51
314.9999999999973
  0
LINE
  5
DA
  8
CUT_SHEETS$PROFILE_CUTS_IN
 10
5.952500000000036
 20
42.32147197724814
 30
0.0
 11
5.952500000000043
 21
42.41446557422142
 31
0.0
  0
ARC
  5
DB
  8
CUT_SHEETS$PROFILE_CUTS_IN
 10
6.008626600756719
 20
42.47059217497809
 30
0.0
 40
0.0793749999999979
 50
45.00000000000544
 51
225.0000000000036
  0
LINE
  5
DC
  8
CUT_SHEETS$PROFILE_CUTS_IN
 10
6.064753201513398
 20
42.52671877573479
 30
0.0
 11
26.47524679848666
 21
42.52671877573479
 31
0.0
  0
ARC
  5
DD
  8
CUT_SHEETS$PROFILE_CUTS_IN
 10
26.53137339924334
 20
42.47059217497809
 30
0.0
 40
0.0793750000000004
 50
315.0
 51
134.9999999999982
  0
LINE
  5
DE
  8
CUT_SHEETS$PROFILE_CUTS_IN
 10
26.58750000000003
 20
42.41446557422142
 30
0.0
 11
26.58750000000003
 21
42.32147197724812
 31
0.0
  0
LINE
  5
DF
  8
CUT_SHEETS$PROFILE_CUTS_IN
 10
21.87404695825258
 20
38.47748490634234
 30
0.0
 11
21.46355341538121
 21
38.47748490634234
 31
0.0
  0
ARC
  5
E0
  8
CUT_SHEETS$PROFILE_CUTS_IN
 10
21.40742681462453
 20
38.42135830558566
 30
0.0
 40
0.0793750000000004
 50
45.00000000000181
 51
225.0000000000598
  0
LINE
  5
E1
  8
CUT_SHEETS$PROFILE_CUTS_IN
 10
21.35130021386791
 20
38.36523170482891
 30
0.0
 11
21.35130021386791
 21
37.95473778959375
 31
0.0
  0
ARC
  5
E2
  8
CUT_SHEETS$PROFILE_CUTS_IN
 10
21.40742681462453
 20
37.89861118883701
 30
0.0
 40
0.0793749999999979
 50
134.9999999999384
 51
314.9999999999982
  0
LINE
  5
E3
  8
CUT_SHEETS$PROFILE_CUTS_IN
 10
21.46355341538121
 20
37.84248458808034
 30
0.0
 11
21.87404695825262
 21
37.84248458808034
 31
0.0
  0
ARC
  5
E4
  8
CUT_SHEETS$PROFILE_CUTS_IN
 10
21.9301735590093
 20
37.89861118883702
 30
0.0
 40
0.0793750000000055
 50
225.0000000000054
 51
45.00000000004896
  0
LINE
  5
E5
  8
CUT_SHEETS$PROFILE_CUTS_IN
 10
21.98630015976592
 20
37.95473778959375
 30
0.0
 11
21.98630015976593
 21
38.36523170482894
 31
0.0
  0
ARC
  5
E6
  8
CUT_SHEETS$PROFILE_CUTS_IN
 10
21.93017355900927
 20
38.42135830558564
 30
0.0
 40
0.0793750000000004
 50
314.9999999999764
 51
134.9999999999982
  0
LINE
  5
E7
  8
CUT_SHEETS$PROFILE_CUTS_IN
 10
3.013679656440438
 20
39.20913242460799
 30
0.0
 11
3.013679656440441
 21
38.79863882763479
 31
0.0
  0
ARC
  5
E8
  8
CUT_SHEETS$PROFILE_CUTS_IN
 10
3.069806257197118
 20
38.74251222687808
 30
0.0
 40
0.079375000000002
 50
134.9999999999921
 51
314.999999999942
  0
LINE
  5
E9
  8
CUT_SHEETS$PROFILE_CUTS_IN
 10
3.125932857953739
 20
38.68638562612135
 30
0.0
 11
3.401426454927044
 21
38.68638562612136
 31
0.0
  0
ARC
  5
EA
  8
CUT_SHEETS$PROFILE_CUTS_IN
 10
3.457553055683722
 20
38.74251222687804
 30
0.0
 40
0.0793750000000039
 50
225.0000000000066
 51
44.99999999995422
  0
LINE
  5
EB
  8
CUT_SHEETS$PROFILE_CUTS_IN
 10
3.513679656440448
 20
38.79863882763468
 30
0.0
 11
3.513679656440438
 21
39.20913242460807
 31
0.0
  0
ARC
  5
EC
  8
CUT_SHEETS$PROFILE_CUTS_IN
 10
3.457553055683726
 20
39.26525902536472
 30
0.0
 40
0.0793750000000048
 50
315.0000000000376
 51
135.0000000000097
  0
LINE
  5
ED
  8
CUT_SHEETS$PROFILE_CUTS_IN
 10
3.401426454927034
 20
39.3213856261214
 30
0.0
 11
3.125932857953785
 21
39.32138562612136
 31
0.0
  0
ARC
  5
EE
  8
CUT_SHEETS$PROFILE_CUTS_IN
 10
3.069806257197115
 20
39.26525902536466
 30
0.0
 40
0.0793750000000077
 50
45.00000000001837
 51
225.0000000000032
  0
LINE
  5
EF
  8
CUT_SHEETS$PROFILE_CUTS_IN
 10
26.90499999999999
 20
41.55495917119448
 30
0.0
 11
26.90499999999999
 21
41.83045276816767
 31
0.0
  0
ARC
  5
F0
  8
CUT_SHEETS$PROFILE_CUTS_IN
 10
26.84887339924334
 20
41.88657936892437
 30
0.0
 40
0.0793750000000004
 50
314.9999999999691
 51
134.9999999999982
  0
LINE
  5
F1
  8
CUT_SHEETS$PROFILE_CUTS_IN
 10
26.79274679848665
 20
41.94270596968107
 30
0.0
 11
26.38225320151331
 21
41.94270596968107
 31
0.0
  0
ARC
  5
F2
  8
CUT_SHEETS$PROFILE_CUTS_IN
 10
26.32612660075663
 20
41.88657936892438
 30
0.0
 40
0.0793749999999954
 50
44.99999999999819
 51
225.0000000000635
  0
LINE
  5
F3
  8
CUT_SHEETS$PROFILE_CUTS_IN
 10
26.27
 20
41.83045276816765
 30
0.0
 11
26.27
 21
41.5549591711945
 31
0.0
  0
ARC
  5
F4
  8
CUT_SHEETS$PROFILE_CUTS_IN
 10
26.32612660075663
 20
41.49883257043773
 30
0.0
 40
0.0793750000000055
 50
134.9999999999366
 51
315.0000000000018
  0
LINE
  5
F5
  8
CUT_SHEETS$PROFILE_CUTS_IN
 10
26.38225320151331
 20
41.44270596968107
 30
0.0
 11
26.79274679848669
 21
41.44270596968107
 31
0.0
  0
ARC
  5
F6
  8
CUT_SHEETS$PROFILE_CUTS_IN
 10
26.84887339924337
 20
41.49883257043774
 30
0.0
 40
0.0793750000000004
 50
224.9999999999946
 51
45.00000000005984
  0
LINE
  5
F7
  8
CUT_SHEETS$PROFILE_CUTS_IN
 10
29.0263203435598
 20
39.2091324246079
 30
0.0
 11
29.0263203435598
 21
38.79863882763486
 31
0.0
  0
ARC
  5
F8
  8
CUT_SHEETS$PROFILE_CUTS_IN
 10
29.08244694431634
 20
38.74251222687803
 30
0.0
 40
0.0793750000000004
 50
134.9999999998604
 51
314.9999999999982
  0
LINE
  5
F9
  8
CUT_SHEETS$PROFILE_CUTS_IN
 10
29.13857354507302
 20
38.68638562612136
 30
0.0
 11
29.41406714204632
 21
38.68638562612135
 31
0.0
  0
ARC
  5
FA
  8
CUT_SHEETS$PROFILE_CUTS_IN
 10
29.47019374280294
 20
38.74251222687809
 30
0.0
 40
0.0793749999999979
 50
225.0000000000617
 51
44.99999999980779
  0
LINE
  5
FB
  8
CUT_SHEETS$PROFILE_CUTS_IN
 10
29.5263203435598
 20
38.7986388276346
 30
0.0
 11
29.52632034355982
 21
39.20913242460817
 31
0.0
  0
ARC
  5
FC
  8
CUT_SHEETS$PROFILE_CUTS_IN
 10
29.47019374280295
 20
39.26525902536467
 30
0.0
 40
0.0793749999999979
 50
315.0000000001922
 51
134.9999999999384
  0
LINE
  5
FD
  8
CUT_SHEETS$PROFILE_CUTS_IN
 10
29.41406714204632
 20
39.32138562612141
 30
0.0
 11
29.13857354507302
 21
39.32138562612141
 31
0.0
  0
ARC
  5
FE
  8
CUT_SHEETS$PROFILE_CUTS_IN
 10
29.08244694431634
 20
39.26525902536473
 30
0.0
 40
0.0793750000000004
 50
45.00000000000181
 51
225.0000000001469
  0
LINE
  5
FF
  8
CUT_SHEETS$PROFILE_CUTS_IN
 10
5.634999999999984
 20
41.55495917119443
 30
0.0
 11
5.63499999999998
 21
41.8304527681677
 31
0.0
  0
ARC
  5
100
  8
CUT_SHEETS$PROFILE_CUTS_IN
 10
5.691126600756665
 20
41.88657936892437
 30
0.0
 40
0.0793750000000017
 50
45.00000000000091
 51
225.0000000000009
  0
LINE
  5
101
  8
CUT_SHEETS$PROFILE_CUTS_IN
 10
5.747253201513345
 20
41.94270596968107
 30
0.0
 11
6.157746798486695
 21
41.94270596968107
 31
0.0
  0
ARC
  5
102
  8
CUT_SHEETS$PROFILE_CUTS_IN
 10
6.213873399243375
 20
41.88657936892437
 30
0.0
 40
0.0793750000000004
 50
315.0000000000349
 51
134.9999999999982
  0
LINE
  5
103
  8
CUT_SHEETS$PROFILE_CUTS_IN
 10
6.270000000000092
 20
41.83045276816773
 30
0.0
 11
6.270000000000088
 21
41.55495917119443
 31
0.0
  0
ARC
  5
104
  8
CUT_SHEETS$PROFILE_CUTS_IN
 10
6.213873399243415
 20
41.49883257043774
 30
0.0
 40
0.0793749999999948
 50
224.9999999999918
 51
45.0000000000059
  0
LINE
  5
105
  8
CUT_SHEETS$PROFILE_CUTS_IN
 10
6.157746798486723
 20
41.44270596968107
 30
0.0
 11
5.747253201513345
 21
41.44270596968107
 31
0.0
  0
ARC
  5
106
  8
CUT_SHEETS$PROFILE_CUTS_IN
 10
5.691126600756664
 20
41.49883257043774
 30
0.0
 40
0.0793750000000011
 50
134.9999999999987
 51
314.9999999999986
  0
LINE
  5
108
  8
CUT_SHEETS$PROFILE_CUTS_OU
 10
30.63499999999998
 20
43.05138562612132
 30
0.0
 11
30.63499999999996
 21
38.79863882763485
 31
0.0
  0
ARC
  5
109
  8
CUT_SHEETS$PROFILE_CUTS_OU
 10
30.69112660075647
 20
38.74251222687799
 30
0.0
 40
0.0793750000000055
 50
134.9999999998205
 51
314.999999999971
  0
LINE
  5
10A
  8
CUT_SHEETS$PROFILE_CUTS_OU
 10
30.74725320151313
 20
38.68638562612128
 30
0.0
 11
31.26999999999992
 21
38.68638562612128
 31
0.0
  0
LINE
  5
10B
  8
CUT_SHEETS$PROFILE_CUTS_OU
 10
31.26999999999992
 20
38.68638562612128
 30
0.0
 11
31.26999999999992
 21
37.68638562612128
 31
0.0
  0
LINE
  5
10C
  8
CUT_SHEETS$PROFILE_CUTS_OU
 10
31.26999999999992
 20
37.68638562612128
 30
0.0
 11
30.74725320151317
 21
37.68638562612128
 31
0.0
  0
ARC
  5
10D
  8
CUT_SHEETS$PROFILE_CUTS_OU
 10
30.69112660075648
 20
37.63025902536462
 30
0.0
 40
0.0793750000000029
 50
44.99999999999275
 51
225.0000000001668
  0
LINE
  5
10E
  8
CUT_SHEETS$PROFILE_CUTS_OU
 10
30.63499999999996
 20
37.57413242460777
 30
0.0
 11
30.63499999999998
 21
29.29863882763476
 31
0.0
  0
ARC
  5
10F
  8
CUT_SHEETS$PROFILE_CUTS_OU
 10
30.69112660075664
 20
29.24251222687804
 30
0.0
 40
0.0793750000000029
 50
134.9999999999673
 51
314.999999999971
  0
LINE
  5
110
  8
CUT_SHEETS$PROFILE_CUTS_OU
 10
30.7472532015133
 20
29.18638562612133
 30
0.0
 11
31.27000000000009
 21
29.18638562612133
 31
0.0
  0
LINE
  5
111
  8
CUT_SHEETS$PROFILE_CUTS_OU
 10
31.27000000000009
 20
29.18638562612133
 30
0.0
 11
31.27000000000009
 21
28.18638562612133
 31
0.0
  0
LINE
  5
112
  8
CUT_SHEETS$PROFILE_CUTS_OU
 10
31.27000000000009
 20
28.18638562612133
 30
0.0
 11
30.74725320151335
 21
28.18638562612133
 31
0.0
  0
ARC
  5
113
  8
CUT_SHEETS$PROFILE_CUTS_OU
 10
30.69112660075664
 20
28.13025902536468
 30
0.0
 40
0.079375000000003
 50
44.99999999997824
 51
225.0000000001415
  0
LINE
  5
114
  8
CUT_SHEETS$PROFILE_CUTS_OU
 10
30.6350000000001
 20
28.07413242460785
 30
0.0
 11
30.63499999999998
 21
19.79863882763487
 31
0.0
  0
ARC
  5
115
  8
CUT_SHEETS$PROFILE_CUTS_OU
 10
30.69112660075646
 20
19.74251222687799
 30
0.0
 40
0.0793749999999929
 50
134.9999999997969
 51
314.9999999999819
  0
LINE
  5
116
  8
CUT_SHEETS$PROFILE_CUTS_OU
 10
30.74725320151313
 20
19.68638562612129
 30
0.0
 11
31.26999999999992
 21
19.68638562612128
 31
0.0
  0
LINE
  5
117
  8
CUT_SHEETS$PROFILE_CUTS_OU
 10
31.26999999999992
 20
19.68638562612128
 30
0.0
 11
31.26999999999992
 21
18.68638562612128
 31
0.0
  0
LINE
  5
118
  8
CUT_SHEETS$PROFILE_CUTS_OU
 10
31.26999999999992
 20
18.68638562612128
 30
0.0
 11
30.74725320151317
 21
18.68638562612128
 31
0.0
  0
ARC
  5
119
  8
CUT_SHEETS$PROFILE_CUTS_OU
 10
30.69112660075647
 20
18.63025902536462
 30
0.0
 40
0.0793749999999979
 50
44.99999999997461
 51
225.0000000001741
  0
LINE
  5
11A
  8
CUT_SHEETS$PROFILE_CUTS_OU
 10
30.63499999999996
 20
18.57413242460776
 30
0.0
 11
30.63499999999998
 21
14.32138562612132
 31
0.0
  0
LINE
  5
11B
  8
CUT_SHEETS$PROFILE_CUTS_OU
 10
30.63499999999998
 20
14.32138562612132
 30
0.0
 11
26.38225320151331
 21
14.32138562612127
 31
0.0
  0
ARC
  5
11C
  8
CUT_SHEETS$PROFILE_CUTS_OU
 10
26.3261266007566
 20
14.26525902536462
 30
0.0
 40
0.0793749999999916
 50
44.99999999996282
 51
224.9999999999664
  0
LINE
  5
11D
  8
CUT_SHEETS$PROFILE_CUTS_OU
 10
26.26999999999989
 20
14.20913242460797
 30
0.0
 11
26.26999999999992
 21
13.68638562612122
 31
0.0
  0
LINE
  5
11E
  8
CUT_SHEETS$PROFILE_CUTS_OU
 10
26.26999999999992
 20
13.68638562612122
 30
0.0
 11
25.26999999999992
 21
13.68638562612122
 31
0.0
  0
LINE
  5
11F
  8
CUT_SHEETS$PROFILE_CUTS_OU
 10
25.26999999999992
 20
13.68638562612122
 30
0.0
 11
25.26999999999998
 21
14.209132424608
 31
0.0
  0
ARC
  5
120
  8
CUT_SHEETS$PROFILE_CUTS_OU
 10
25.21387339924324
 20
14.26525902536461
 30
0.0
 40
0.0793749999999942
 50
315.0000000000608
 51
135.0000000001251
  0
LINE
  5
121
  8
CUT_SHEETS$PROFILE_CUTS_OU
 10
25.15774679848644
 20
14.32138562612118
 30
0.0
 11
16.87968672253563
 21
14.32138562612131
 31
0.0
  0
ARC
  5
122
  8
CUT_SHEETS$PROFILE_CUTS_OU
 10
16.82612660075667
 20
14.26280487860114
 30
0.0
 40
0.0793749999999984
 50
47.5634605909913
 51
224.9999999999964
  0
LINE
  5
123
  8
CUT_SHEETS$PROFILE_CUTS_OU
 10
16.76999999999997
 20
14.20667827784444
 30
0.0
 11
16.76999999999997
 21
13.6863856261213
 31
0.0
  0
LINE
  5
124
  8
CUT_SHEETS$PROFILE_CUTS_OU
 10
16.76999999999997
 20
13.6863856261213
 30
0.0
 11
15.76999999999997
 21
13.6863856261213
 31
0.0
  0
LINE
  5
125
  8
CUT_SHEETS$PROFILE_CUTS_OU
 10
15.76999999999997
 20
13.6863856261213
 30
0.0
 11
15.77000000000004
 21
14.20667827784451
 31
0.0
  0
ARC
  5
126
  8
CUT_SHEETS$PROFILE_CUTS_OU
 10
15.71387339924329
 20
14.26280487860113
 30
0.0
 40
0.0793750000000055
 50
315.0000000000616
 51
132.4365394090798
  0
LINE
  5
127
  8
CUT_SHEETS$PROFILE_CUTS_OU
 10
15.66031327746425
 20
14.32138562612124
 30
0.0
 11
7.379686722535535
 21
14.32138562612125
 31
0.0
  0
ARC
  5
128
  8
CUT_SHEETS$PROFILE_CUTS_OU
 10
7.3261266007566
 20
14.26280487860105
 30
0.0
 40
0.0793750000000064
 50
47.5634605910287
 51
225.0000000000014
  0
LINE
  5
129
  8
CUT_SHEETS$PROFILE_CUTS_OU
 10
7.269999999999918
 20
14.20667827784436
 30
0.0
 11
7.269999999999918
 21
13.68638562612122
 31
0.0
  0
LINE
  5
12A
  8
CUT_SHEETS$PROFILE_CUTS_OU
 10
7.269999999999918
 20
13.68638562612122
 30
0.0
 11
6.269999999999918
 21
13.68638562612122
 31
0.0
  0
LINE
  5
12B
  8
CUT_SHEETS$PROFILE_CUTS_OU
 10
6.269999999999918
 20
13.68638562612122
 30
0.0
 11
6.269999999999982
 21
14.20667827784443
 31
0.0
  0
ARC
  5
12C
  8
CUT_SHEETS$PROFILE_CUTS_OU
 10
6.213873399243233
 20
14.26280487860105
 30
0.0
 40
0.0793750000000036
 50
315.0000000000639
 51
132.4365394090516
  0
LINE
  5
12D
  8
CUT_SHEETS$PROFILE_CUTS_OU
 10
6.160313277464219
 20
14.32138562612118
 30
0.0
 11
1.904999999999966
 21
14.32138562612132
 31
0.0
  0
LINE
  5
12E
  8
CUT_SHEETS$PROFILE_CUTS_OU
 10
1.904999999999966
 20
14.32138562612132
 30
0.0
 11
1.905000000000094
 21
18.57413242460788
 31
0.0
  0
ARC
  5
12F
  8
CUT_SHEETS$PROFILE_CUTS_OU
 10
1.848873399243483
 20
18.63025902536462
 30
0.0
 40
0.0793750000000008
 50
314.9999999999259
 51
135.0000000000851
  0
LINE
  5
130
  8
CUT_SHEETS$PROFILE_CUTS_OU
 10
1.792746798486718
 20
18.68638562612122
 30
0.0
 11
1.270000000000032
 21
18.68638562612128
 31
0.0
  0
LINE
  5
131
  8
CUT_SHEETS$PROFILE_CUTS_OU
 10
1.270000000000032
 20
18.68638562612128
 30
0.0
 11
1.270000000000032
 21
19.68638562612128
 31
0.0
  0
LINE
  5
132
  8
CUT_SHEETS$PROFILE_CUTS_OU
 10
1.270000000000032
 20
19.68638562612128
 30
0.0
 11
1.792746798486839
 21
19.68638562612128
 31
0.0
  0
ARC
  5
133
  8
CUT_SHEETS$PROFILE_CUTS_OU
 10
1.848873399243482
 20
19.74251222687799
 30
0.0
 40
0.0793749999999998
 50
225.0000000000385
 51
45.00000000014406
  0
LINE
  5
134
  8
CUT_SHEETS$PROFILE_CUTS_OU
 10
1.905000000000022
 20
19.79863882763481
 30
0.0
 11
1.905000000000154
 21
28.07413242460815
 31
0.0
  0
ARC
  5
135
  8
CUT_SHEETS$PROFILE_CUTS_OU
 10
1.848873399243315
 20
28.13025902536468
 30
0.0
 40
0.0793749999999981
 50
315.0000000001633
 51
135.0000000000873
  0
LINE
  5
136
  8
CUT_SHEETS$PROFILE_CUTS_OU
 10
1.792746798486547
 20
28.18638562612128
 30
0.0
 11
1.269999850968979
 21
28.18638562612133
 31
0.0
  0
LINE
  5
137
  8
CUT_SHEETS$PROFILE_CUTS_OU
 10
1.269999850968979
 20
28.18638562612133
 30
0.0
 11
1.270000000000088
 21
29.18638562612133
 31
0.0
  0
LINE
  5
138
  8
CUT_SHEETS$PROFILE_CUTS_OU
 10
1.270000000000088
 20
29.18638562612133
 30
0.0
 11
1.792746798486661
 21
29.18638562612133
 31
0.0
  0
ARC
  5
139
  8
CUT_SHEETS$PROFILE_CUTS_OU
 10
1.848873399243312
 20
29.24251222687804
 30
0.0
 40
0.0793749999999979
 50
225.000000000029
 51
44.99999999990594
  0
LINE
  5
13A
  8
CUT_SHEETS$PROFILE_CUTS_OU
 10
1.905000000000086
 20
29.29863882763464
 30
0.0
 11
1.905000000000133
 21
37.57413242460791
 31
0.0
  0
ARC
  5
13B
  8
CUT_SHEETS$PROFILE_CUTS_OU
 10
1.848873399243489
 20
37.63025902536462
 30
0.0
 40
0.0793749999999943
 50
314.9999999999648
 51
139.8140769143253
  0
LINE
  5
13C
  8
CUT_SHEETS$PROFILE_CUTS_OU
 10
1.788234503891324
 20
37.68147733259426
 30
0.0
 11
1.269999850968979
 21
37.68147733259431
 31
0.0
  0
LINE
  5
13D
  8
CUT_SHEETS$PROFILE_CUTS_OU
 10
1.269999850968979
 20
37.68147733259431
 30
0.0
 11
1.270000000000032
 21
38.68638562612128
 31
0.0
  0
LINE
  5
13E
  8
CUT_SHEETS$PROFILE_CUTS_OU
 10
1.270000000000032
 20
38.68638562612128
 30
0.0
 11
1.792746798486853
 21
38.68638562612125
 31
0.0
  0
ARC
  5
13F
  8
CUT_SHEETS$PROFILE_CUTS_OU
 10
1.848873399243482
 20
38.742512226878
 30
0.0
 40
0.0793750000000048
 50
225.0000000000567
 51
45.00000000014462
  0
LINE
  5
140
  8
CUT_SHEETS$PROFILE_CUTS_OU
 10
1.905000000000019
 20
38.79863882763482
 30
0.0
 11
1.904999999999966
 21
43.05138562612132
 31
0.0
  0
LINE
  5
141
  8
CUT_SHEETS$PROFILE_CUTS_OU
 10
1.904999999999966
 20
43.05138562612132
 30
0.0
 11
6.160313277464351
 21
43.05138562612137
 31
0.0
  0
ARC
  5
142
  8
CUT_SHEETS$PROFILE_CUTS_OU
 10
6.213873399243233
 20
43.10996637364164
 30
0.0
 40
0.0793750000000007
 50
227.5634605910788
 51
44.9999999999941
  0
LINE
  5
143
  8
CUT_SHEETS$PROFILE_CUTS_OU
 10
6.269999999999918
 20
43.16609297439831
 30
0.0
 11
6.269999999999918
 21
43.68638562612145
 31
0.0
  0
LINE
  5
144
  8
CUT_SHEETS$PROFILE_CUTS_OU
 10
6.269999999999918
 20
43.68638562612145
 30
0.0
 11
7.269999999999918
 21
43.68638562612145
 31
0.0
  0
LINE
  5
145
  8
CUT_SHEETS$PROFILE_CUTS_OU
 10
7.269999999999918
 20
43.68638562612145
 30
0.0
 11
7.269999999999918
 21
43.16609297439831
 31
0.0
  0
ARC
  5
146
  8
CUT_SHEETS$PROFILE_CUTS_OU
 10
7.326126600756599
 20
43.10996637364163
 30
0.0
 40
0.0793750000000011
 50
134.9999999999987
 51
312.4365394089511
  0
LINE
  5
147
  8
CUT_SHEETS$PROFILE_CUTS_OU
 10
7.379686722535507
 20
43.0513856261214
 30
0.0
 11
15.66031327746432
 21
43.05138562612137
 31
0.0
  0
ARC
  5
148
  8
CUT_SHEETS$PROFILE_CUTS_OU
 10
15.71387339924329
 20
43.10996637364153
 30
0.0
 40
0.0793749999999959
 50
227.5634605909914
 51
44.99999999999638
  0
LINE
  5
149
  8
CUT_SHEETS$PROFILE_CUTS_OU
 10
15.76999999999997
 20
43.16609297439823
 30
0.0
 11
15.76999999999997
 21
43.68638562612136
 31
0.0
  0
LINE
  5
14A
  8
CUT_SHEETS$PROFILE_CUTS_OU
 10
15.76999999999997
 20
43.68638562612136
 30
0.0
 11
16.76999999999997
 21
43.68638562612136
 31
0.0
  0
LINE
  5
14B
  8
CUT_SHEETS$PROFILE_CUTS_OU
 10
16.76999999999997
 20
43.68638562612136
 30
0.0
 11
16.76999999999997
 21
43.16609297439823
 31
0.0
  0
ARC
  5
14C
  8
CUT_SHEETS$PROFILE_CUTS_OU
 10
16.82612660075667
 20
43.10996637364156
 30
0.0
 40
0.0793749999999979
 50
135.0000000000109
 51
312.4365394089714
  0
LINE
  5
14D
  8
CUT_SHEETS$PROFILE_CUTS_OU
 10
16.8796867225356
 20
43.05138562612134
 30
0.0
 11
25.15774679848647
 21
43.05138562612146
 31
0.0
  0
ARC
  5
14E
  8
CUT_SHEETS$PROFILE_CUTS_OU
 10
25.21387339924323
 20
43.10751222687806
 30
0.0
 40
0.0793750000000055
 50
224.9999999999184
 51
44.99999999999275
  0
LINE
  5
14F
  8
CUT_SHEETS$PROFILE_CUTS_OU
 10
25.26999999999992
 20
43.16363882763474
 30
0.0
 11
25.26999999999992
 21
43.68147733259431
 31
0.0
  0
LINE
  5
150
  8
CUT_SHEETS$PROFILE_CUTS_OU
 10
25.26999999999992
 20
43.68147733259431
 30
0.0
 11
26.26999999999992
 21
43.68638562612145
 31
0.0
  0
LINE
  5
151
  8
CUT_SHEETS$PROFILE_CUTS_OU
 10
26.26999999999992
 20
43.68638562612145
 30
0.0
 11
26.26999999999992
 21
43.16363882763474
 31
0.0
  0
ARC
  5
152
  8
CUT_SHEETS$PROFILE_CUTS_OU
 10
26.3261266007566
 20
43.10751222687806
 30
0.0
 40
0.0793749999999979
 50
135.0000000000036
 51
315.0000000000254
  0
LINE
  5
153
  8
CUT_SHEETS$PROFILE_CUTS_OU
 10
26.38225320151331
 20
43.0513856261214
 30
0.0
 11
30.63499999999998
 21
43.05138562612132
 31
0.0
  0
CIRCLE
  5
154
  8
CUT_SHEETS$PROFILE_CUTS_IN
 10
6.800188870859909
 20
31.48681495892034
 30
0.0
 40
1.269999999999992
  0
CIRCLE
  5
155
  8
CUT_SHEETS$PROFILE_CUTS_IN
 10
3.30499999999997
 20
15.72138562612133
 30
0.0
 40
1.000000000000001
  0
CIRCLE
  5
156
  8
CUT_SHEETS$PROFILE_CUTS_IN
 10
3.304999999999986
 20
41.65138562612135
 30
0.0
 40
0.9999999999999858
  0
CIRCLE
  5
157
  8
CUT_SHEETS$PROFILE_CUTS_IN
 10
29.23499999999998
 20
15.72138562612133
 30
0.0
 40
1.0
  0
CIRCLE
  5
158
  8
CUT_SHEETS$PROFILE_CUTS_IN
 10
29.23499999999998
 20
41.65138562612134
 30
0.0
 40
1.0
  0
ARC
  5
159
  8
CUT_SHEETS$PROFILE_CUTS_IN
 10
14.29285941348756
 20
38.56845853602195
 30
0.0
 40
0.2999999999999958
 50
159.7257782926563
 51
225.0027219098644
  0
ARC
  5
15A
  8
CUT_SHEETS$PROFILE_CUTS_IN
 10
12.82012887085992
 20
39.11248495892033
 30
0.0
 40
1.26999999999997
 50
339.7257782926537
 51
110.2796655270667
  0
ARC
  5
15B
  8
CUT_SHEETS$PROFILE_CUTS_IN
 10
12.2759625378006
 20
40.58516387541583
 30
0.0
 40
0.3000000602311073
 50
225.0027292774106
 51
290.2796581595196
  0
LINE
  5
15C
  8
CUT_SHEETS$PROFILE_CUTS_IN
 10
12.0638405659809
 20
40.37302169382534
 30
0.0
 11
11.81287098991668
 21
40.62396742575586
 31
0.0
  0
ARC
  5
15D
  8
CUT_SHEETS$PROFILE_CUTS_IN
 10
11.60073883104438
 20
40.41183551591631
 30
0.0
 40
0.3000000000000033
 50
44.99996636876303
 51
224.9999999908111
  0
LINE
  5
15E
  8
CUT_SHEETS$PROFILE_CUTS_IN
 10
11.38860679665438
 20
40.19970348159436
 30
0.0
 11
11.60644776625747
 21
39.9818832086283
 31
0.0
  0
ARC
  5
15F
  8
CUT_SHEETS$PROFILE_CUTS_IN
 10
11.3943257393354
 20
39.76974108432942
 30
0.0
 40
0.3000000586792791
 50
335.2516011510824
 51
45.00271409890919
  0
ARC
  5
160
  8
CUT_SHEETS$PROFILE_CUTS_IN
 10
12.82012887085992
 20
39.11248495892032
 30
0.0
 40
1.269999999999993
 50
155.2515933401374
 51
294.7538504795828
  0
ARC
  5
161
  8
CUT_SHEETS$PROFILE_CUTS_IN
 10
13.47752046253338
 20
37.68674428143009
 30
0.0
 40
0.3000000586793894
 50
45.00272972083103
 51
114.7538426686214
  0
LINE
  5
162
  8
CUT_SHEETS$PROFILE_CUTS_IN
 10
13.68964243161412
 20
37.89888646356496
 30
0.0
 11
13.78763578672963
 21
37.80090241862038
 31
0.0
  0
ARC
  5
163
  8
CUT_SHEETS$PROFILE_CUTS_IN
 10
13.9997678211203
 20
38.01303445294163
 30
0.0
 40
0.2999999999999969
 50
224.9999999906245
 51
44.99999999843974
  0
LINE
  5
164
  8
CUT_SHEETS$PROFILE_CUTS_IN
 10
14.21189985548204
 20
38.22516648729182
 30
0.0
 11
14.08073745697671
 21
38.35631642429962
 31
0.0
  0
ARC
  5
165
  8
CUT_SHEETS$PROFILE_CUTS_IN
 10
7.351083668541227
 20
21.52710754430671
 30
0.0
 40
0.3000000000000141
 50
249.4637923658508
 51
314.7407359830474
  0
ARC
  5
166
  8
CUT_SHEETS$PROFILE_CUTS_IN
 10
6.800328870859928
 20
20.05687995892033
 30
0.0
 40
1.269999999999993
 50
69.46379236584471
 51
200.0176796002566
  0
ARC
  5
167
  8
CUT_SHEETS$PROFILE_CUTS_IN
 10
5.325177078713384
 20
19.51945315611081
 30
0.0
 40
0.3000001204621852
 50
314.7407507181529
 51
20.01766486517948
  0
LINE
  5
168
  8
CUT_SHEETS$PROFILE_CUTS_IN
 10
5.53634718443427
 20
19.30636336581776
 30
0.0
 11
5.284256517216413
 21
19.05654386300489
 31
0.0
  0
ARC
  5
169
  8
CUT_SHEETS$PROFILE_CUTS_IN
 10
5.495416234915989
 20
18.84344394836146
 30
0.0
 40
0.3000000000000027
 50
134.7379804419533
 51
314.7380140640088
  0
LINE
  5
16A
  8
CUT_SHEETS$PROFILE_CUTS_IN
 10
5.706576077665879
 20
18.63034415762987
 30
0.0
 11
5.925390151621777
 21
18.84718686650296
 31
0.0
  0
ARC
  5
16B
  8
CUT_SHEETS$PROFILE_CUTS_IN
 10
6.136560142256822
 20
18.63409696652991
 30
0.0
 40
0.3000001173588626
 50
64.98962303526334
 51
134.7407203611178
  0
ARC
  5
16C
  8
CUT_SHEETS$PROFILE_CUTS_IN
 10
6.800328870859945
 20
20.0568799589203
 30
0.0
 40
1.269999999999978
 50
244.9896074133264
 51
24.49186455277675
  0
ARC
  5
16D
  8
CUT_SHEETS$PROFILE_CUTS_IN
 10
8.22906056751078
 20
20.70774547747104
 30
0.0
 40
0.3000000586793568
 50
134.7407437940139
 51
204.4918567418183
  0
LINE
  5
16E
  8
CUT_SHEETS$PROFILE_CUTS_IN
 10
8.017890531030496
 20
20.92083524939951
 30
0.0
 11
8.116321626378387
 21
21.01837954794692
 31
0.0
  0
ARC
  5
16F
  8
CUT_SHEETS$PROFILE_CUTS_IN
 10
7.905161783629215
 20
21.23147933867921
 30
0.0
 40
0.300000000000004
 50
314.738014063816
 51
134.7380140716339
  0
LINE
  5
170
  8
CUT_SHEETS$PROFILE_CUTS_IN
 10
7.69400194085096
 20
21.4445791293827
 30
0.0
 11
7.562253634667222
 21
21.31401778526992
 31
0.0
  0
ARC
  5
171
  8
CUT_SHEETS$PROFILE_CUTS_IN
 10
17.60526950817231
 20
17.52750316900676
 30
0.0
 40
0.2999999999999568
 50
339.7257782926465
 51
45.00272190986324
  0
ARC
  5
172
  8
CUT_SHEETS$PROFILE_CUTS_IN
 10
19.07800005080002
 20
16.98347674610845
 30
0.0
 40
1.270000000000052
 50
159.7257782926599
 51
290.2796655270607
  0
ARC
  5
173
  8
CUT_SHEETS$PROFILE_CUTS_IN
 10
19.62216638385928
 20
15.51079782961282
 30
0.0
 40
0.3000000602311171
 50
45.0027292774125
 51
110.2796581595247
  0
LINE
  5
174
  8
CUT_SHEETS$PROFILE_CUTS_IN
 10
19.834288355679
 20
15.72294001120335
 30
0.0
 11
20.08525793174319
 21
15.47199427927282
 31
0.0
  0
ARC
  5
175
  8
CUT_SHEETS$PROFILE_CUTS_IN
 10
20.29739009061552
 20
15.68412618911236
 30
0.0
 40
0.3000000000000071
 50
224.9999663687589
 51
44.9999999908126
  0
LINE
  5
176
  8
CUT_SHEETS$PROFILE_CUTS_IN
 10
20.5095221250055
 20
15.89625822343431
 30
0.0
 11
20.29168115540241
 21
16.11407849640036
 31
0.0
  0
ARC
  5
177
  8
CUT_SHEETS$PROFILE_CUTS_IN
 10
20.50380311191332
 20
16.3262206081227
 30
0.0
 40
0.3000000000000497
 50
155.2515933401475
 51
225.0027219098551
  0
ARC
  5
178
  8
CUT_SHEETS$PROFILE_CUTS_IN
 10
19.07800005079996
 20
16.98347674610836
 30
0.0
 40
1.269999999999974
 50
335.2515933401353
 51
114.7538504795842
  0
ARC
  5
179
  8
CUT_SHEETS$PROFILE_CUTS_IN
 10
18.42060844655654
 20
18.40921735318609
 30
0.0
 40
0.3000000000000639
 50
225.0027219098714
 51
294.7538504795843
  0
LINE
  5
17A
  8
CUT_SHEETS$PROFILE_CUTS_IN
 10
18.20848649004568
 20
18.19707524146369
 30
0.0
 11
18.11049313493023
 21
18.29505928640827
 31
0.0
  0
ARC
  5
17B
  8
CUT_SHEETS$PROFILE_CUTS_IN
 10
17.89836110053954
 20
18.08292725208704
 30
0.0
 40
0.2999999999999944
 50
44.99999999061925
 51
224.9999999984416
  0
LINE
  5
17C
  8
CUT_SHEETS$PROFILE_CUTS_IN
 10
17.68622906617781
 20
17.87079521773685
 30
0.0
 11
17.81739146468313
 21
17.73964528072906
 31
0.0
  0
LINE
  5
17D
  8
CUT_SHEETS$PROFILE_CUTS_IN
 10
17.18478887104257
 20
37.66785995892323
 30
0.0
 11
10.25629992142738
 21
37.66785999080695
 31
0.0
  0
ARC
  5
17E
  8
CUT_SHEETS$PROFILE_CUTS_IN
 10
10.25630018916524
 20
36.58848485244366
 30
0.0
 40
1.079375138363323
 50
90.00001421215745
 51
179.9999906216932
  0
LINE
  5
17F
  8
CUT_SHEETS$PROFILE_CUTS_IN
 10
9.176925050801927
 20
36.5884850291183
 30
0.0
 11
9.176925050801904
 21
20.78848502280354
 31
0.0
  0
ARC
  5
180
  8
CUT_SHEETS$PROFILE_CUTS_IN
 10
10.25630005307488
 20
20.78848502507651
 30
0.0
 40
1.079375002272979
 50
180.0000001206548
 51
269.9999932654865
  0
LINE
  5
181
  8
CUT_SHEETS$PROFILE_CUTS_IN
 10
10.25629992620576
 20
19.70911002280354
 30
0.0
 11
22.75630005059949
 21
19.70910995904032
 31
0.0
  0
ARC
  5
182
  8
CUT_SHEETS$PROFILE_CUTS_IN
 10
22.75630005070069
 20
20.28848495914153
 30
0.0
 40
0.5793750001012157
 50
269.9999999899911
 51
359.9999999899908
  0
LINE
  5
183
  8
CUT_SHEETS$PROFILE_CUTS_IN
 10
23.33567505080191
 20
20.28848495904032
 30
0.0
 11
23.33567505080191
 21
37.08848510590874
 31
0.0
  0
ARC
  5
184
  8
CUT_SHEETS$PROFILE_CUTS_IN
 10
22.75629991882284
 20
37.08848482694323
 30
0.0
 40
0.5793751319791408
 50
0.0000275875600848
 51
89.99998602528846
  0
LINE
  5
185
  8
CUT_SHEETS$PROFILE_CUTS_IN
 10
22.75630006013517
 20
37.66785995892235
 30
0.0
 11
17.18478887104257
 21
37.66785995892323
 31
0.0
  0
LINE
  5
187
  8
CUT_SHEETS$POCKETS
 10
2.667791850386911
 20
20.36185415357681
 30
0.0
 11
2.667791850386911
 21
18.99459928542688
 31
0.0
  0
LINE
  5
188
  8
CUT_SHEETS$POCKETS
 10
2.667791850386911
 20
18.99459928542688
 30
0.0
 11
2.718735573141164
 21
18.97505500502566
 31
0.0
  0
ARC
  5
189
  8
CUT_SHEETS$POCKETS
 10
2.821938870859881
 20
19.2440626163768
 30
0.0
 40
0.2881249999997629
 50
249.0109624881793
 51
270.0000000000084
  0
LINE
  5
18A
  8
CUT_SHEETS$POCKETS
 10
2.821938870859924
 20
18.95593761637704
 30
0.0
 11
2.904438870859956
 21
18.95593761637704
 31
0.0
  0
ARC
  5
18B
  8
CUT_SHEETS$POCKETS
 10
2.904438870859959
 20
19.24406261637699
 30
0.0
 40
0.2881249999999511
 50
269.9999999999995
 51
0.0000000000134232
  0
LINE
  5
18C
  8
CUT_SHEETS$POCKETS
 10
3.192563870859908
 20
19.24406261637706
 30
0.0
 11
3.192563870859908
 21
20.16695492973437
 31
0.0
  0
ARC
  5
18D
  8
CUT_SHEETS$POCKETS
 10
2.90443887085992
 20
20.16695492973436
 30
0.0
 40
0.2881249999999871
 50
0.0000000000021194
 51
89.99999999998887
  0
LINE
  5
18E
  8
CUT_SHEETS$POCKETS
 10
2.904438870859976
 20
20.45507992973435
 30
0.0
 11
2.821938870859953
 21
20.45507992973438
 31
0.0
  0
ARC
  5
18F
  8
CUT_SHEETS$POCKETS
 10
2.821938870859802
 20
20.16695492973503
 30
0.0
 40
0.2881249999993472
 50
89.99999999997006
 51
110.9890375118418
  0
LINE
  5
190
  8
CUT_SHEETS$POCKETS
 10
2.718735573141136
 20
20.43596254108574
 30
0.0
 11
2.667791850386911
 21
20.36185415357681
 31
0.0
  0
LINE
  5
191
  8
CUT_SHEETS$POCKETS
 10
7.16479884734195
 20
41.44910495892034
 30
0.0
 11
5.241638894377882
 21
41.44910495892034
 31
0.0
  0
ARC
  5
192
  8
CUT_SHEETS$POCKETS
 10
5.241638870859916
 20
41.60785495892034
 30
0.0
 40
0.1587499999999994
 50
89.99999999998141
 51
270.0000084880643
  0
LINE
  5
193
  8
CUT_SHEETS$POCKETS
 10
5.241638870859967
 20
41.76660495892034
 30
0.0
 11
7.16479887085995
 21
41.76660495892034
 31
0.0
  0
ARC
  5
194
  8
CUT_SHEETS$POCKETS
 10
7.16479887085994
 20
41.60785495892035
 30
0.0
 40
0.1587499999999906
 50
269.999991511927
 51
89.99999999999648
  0
LINE
  5
195
  8
CUT_SHEETS$POCKETS
 10
9.601048884241543
 20
41.04667995892034
 30
0.0
 11
8.077048870859933
 21
41.04667995892035
 31
0.0
  0
ARC
  5
196
  8
CUT_SHEETS$POCKETS
 10
8.077048870859834
 20
41.33480495892027
 30
0.0
 40
0.2881249999999156
 50
179.9999999999859
 51
270.0000000000198
  0
LINE
  5
197
  8
CUT_SHEETS$POCKETS
 10
7.788923870859908
 20
41.33480495892034
 30
0.0
 11
7.78892387085991
 21
41.41730495892035
 31
0.0
  0
ARC
  5
198
  8
CUT_SHEETS$POCKETS
 10
8.077048870860006
 20
41.41730495892025
 30
0.0
 40
0.2881250000000959
 50
90.00000000002015
 51
179.9999999999802
  0
LINE
  5
199
  8
CUT_SHEETS$POCKETS
 10
8.077048870859905
 20
41.70542995892035
 30
0.0
 11
9.601048870859923
 21
41.70542995892035
 31
0.0
  0
ARC
  5
19A
  8
CUT_SHEETS$POCKETS
 10
9.60104887085991
 20
41.41730495892034
 30
0.0
 40
0.288125000000008
 50
0.0000000000028259
 51
89.99999999999753
  0
LINE
  5
19B
  8
CUT_SHEETS$POCKETS
 10
9.889173870859919
 20
41.41730495892035
 30
0.0
 11
9.889173870859926
 21
41.33480494553871
 31
0.0
  0
ARC
  5
19C
  8
CUT_SHEETS$POCKETS
 10
9.60104878709301
 20
41.33480504268726
 30
0.0
 40
0.2881250837669324
 50
270.000019318696
 51
359.9999806813004
  0
LINE
  5
19D
  8
CUT_SHEETS$POCKETS
 10
7.759326613408883
 20
27.66911265409765
 30
0.0
 11
7.75932661340888
 21
29.19311265409766
 31
0.0
  0
ARC
  5
19E
  8
CUT_SHEETS$POCKETS
 10
8.047451613408912
 20
29.19311265409764
 30
0.0
 40
0.2881250000000319
 50
90.0000000000053
 51
179.9999999999951
  0
LINE
  5
19F
  8
CUT_SHEETS$POCKETS
 10
8.047451613408885
 20
29.48123765409767
 30
0.0
 11
8.129951613408897
 21
29.48123765409767
 31
0.0
  0
ARC
  5
1A0
  8
CUT_SHEETS$POCKETS
 10
8.129951613408906
 20
29.19311265409769
 30
0.0
 40
0.288124999999976
 50
359.999999999993
 51
90.00000000000176
  0
LINE
  5
1A1
  8
CUT_SHEETS$POCKETS
 10
8.41807661340888
 20
29.19311265409765
 30
0.0
 11
8.41807661340888
 21
27.66911265409767
 31
0.0
  0
ARC
  5
1A2
  8
CUT_SHEETS$POCKETS
 10
8.129951613408958
 20
27.6691126540976
 30
0.0
 40
0.2881249999999227
 50
269.999999999989
 51
0.0000000000141297
  0
LINE
  5
1A3
  8
CUT_SHEETS$POCKETS
 10
8.129951613408902
 20
27.38098765409768
 30
0.0
 11
8.047451613408898
 21
27.38098765409765
 31
0.0
  0
ARC
  5
1A4
  8
CUT_SHEETS$POCKETS
 10
8.047451613408915
 20
27.66911265409768
 30
0.0
 40
0.2881250000000328
 50
180.0000000000056
 51
269.9999999999964
  0
LINE
  5
1A5
  8
CUT_SHEETS$POCKETS
 10
4.990326613408873
 20
27.66911264740683
 30
0.0
 11
4.990326613408874
 21
29.19311265409765
 31
0.0
  0
ARC
  5
1A6
  8
CUT_SHEETS$POCKETS
 10
5.278451613408853
 20
29.19311265409768
 30
0.0
 40
0.2881249999999786
 50
89.99999999999294
 51
180.0000000000056
  0
LINE
  5
1A7
  8
CUT_SHEETS$POCKETS
 10
5.278451613408889
 20
29.48123765409767
 30
0.0
 11
5.360951613408927
 21
29.48123765409767
 31
0.0
  0
ARC
  5
1A8
  8
CUT_SHEETS$POCKETS
 10
5.360951613408897
 20
29.19311265409769
 30
0.0
 40
0.2881249999999795
 50
359.9999999999936
 51
89.99999999999399
  0
LINE
  5
1A9
  8
CUT_SHEETS$POCKETS
 10
5.649076613408876
 20
29.19311265409765
 30
0.0
 11
5.649076613408874
 21
27.66911265409767
 31
0.0
  0
ARC
  5
1AA
  8
CUT_SHEETS$POCKETS
 10
5.360951613408977
 20
27.66911265409757
 30
0.0
 40
0.2881249999998969
 50
269.9999999999903
 51
0.0000000000183686
  0
LINE
  5
1AB
  8
CUT_SHEETS$POCKETS
 10
5.360951613408928
 20
27.38098765409768
 30
0.0
 11
5.278451606718082
 21
27.38098765409765
 31
0.0
  0
ARC
  5
1AC
  8
CUT_SHEETS$POCKETS
 10
5.278451655292352
 20
27.66911269598113
 30
0.0
 40
0.2881250418834865
 50
180.0000096593568
 51
269.9999903406497
  0
ARC
  5
1AD
  8
CUT_SHEETS$POCKETS
 10
15.41989546550117
 20
15.31656498070875
 30
0.0
 40
0.2881250499575707
 50
312.8620295188879
 51
359.9999949149736
  0
LINE
  5
1AE
  8
CUT_SHEETS$POCKETS
 10
15.61588828263982
 20
15.10537108864956
 30
0.0
 11
12.25044716511745
 21
15.10537108350222
 31
0.0
  0
ARC
  5
1AF
  8
CUT_SHEETS$POCKETS
 10
12.44643992675518
 20
15.31656495891645
 30
0.0
 40
0.2881250000032362
 50
179.9999999990904
 51
227.1379763194337
  0
LINE
  5
1B0
  8
CUT_SHEETS$POCKETS
 10
12.15831492675194
 20
15.31656495892102
 30
0.0
 11
12.15831492675198
 21
15.39906495892036
 31
0.0
  0
ARC
  5
1B1
  8
CUT_SHEETS$POCKETS
 10
12.44643992675202
 20
15.3990649589203
 30
0.0
 40
0.2881250000000399
 50
90.00000000001377
 51
179.9999999999873
  0
LINE
  5
1B2
  8
CUT_SHEETS$POCKETS
 10
12.44643992675195
 20
15.68718995892034
 30
0.0
 11
15.41989551545872
 21
15.68718995892033
 31
0.0
  0
ARC
  5
1B3
  8
CUT_SHEETS$POCKETS
 10
15.41989551545876
 20
15.39906495892035
 30
0.0
 40
0.2881249999999795
 50
359.9999999999975
 51
90.00000000000708
  0
LINE
  5
1B4
  8
CUT_SHEETS$POCKETS
 10
15.70802051545874
 20
15.39906495892033
 30
0.0
 11
15.70802051545874
 21
15.31656495513752
 31
0.0
  0
LINE
  5
1B5
  8
CUT_SHEETS$POCKETS
 10
23.99217887085993
 20
33.46547493540238
 30
0.0
 11
23.99217887085992
 21
24.32147498243828
 31
0.0
  0
ARC
  5
1B6
  8
CUT_SHEETS$POCKETS
 10
23.83342887085993
 20
24.32147495892034
 30
0.0
 40
0.1587499999999959
 50
180.0000000000064
 51
0.0000084880566111
  0
LINE
  5
1B7
  8
CUT_SHEETS$POCKETS
 10
23.67467887085993
 20
24.32147495892032
 30
0.0
 11
23.67467887085993
 21
33.46547495892033
 31
0.0
  0
ARC
  5
1B8
  8
CUT_SHEETS$POCKETS
 10
23.83342887085993
 20
33.46547495892034
 30
0.0
 40
0.1587499999999977
 50
359.9999915119395
 51
180.0000000000026
  0
LINE
  5
1B9
  8
CUT_SHEETS$POCKETS
 10
24.75417887085992
 20
33.46547493540238
 30
0.0
 11
24.75417887085992
 21
24.32147498243832
 31
0.0
  0
ARC
  5
1BA
  8
CUT_SHEETS$POCKETS
 10
24.59542887085993
 20
24.32147495892034
 30
0.0
 40
0.1587499999999959
 50
180.0000000000026
 51
0.0000084880707157
  0
LINE
  5
1BB
  8
CUT_SHEETS$POCKETS
 10
24.43667887085993
 20
24.32147495892033
 30
0.0
 11
24.43667887085993
 21
33.46547495892034
 31
0.0
  0
ARC
  5
1BC
  8
CUT_SHEETS$POCKETS
 10
24.59542887085993
 20
33.46547495892035
 30
0.0
 40
0.1587500000000013
 50
359.999991511937
 51
180.0000000000026
  0
LINE
  5
1BD
  8
CUT_SHEETS$POCKETS
 10
26.53217887085992
 20
33.46547493540239
 30
0.0
 11
26.53217887085992
 21
24.32147498243832
 31
0.0
  0
ARC
  5
1BE
  8
CUT_SHEETS$POCKETS
 10
26.37342887085992
 20
24.32147495892033
 30
0.0
 40
0.1587499999999994
 50
179.9999999999987
 51
0.0000084880745625
  0
LINE
  5
1BF
  8
CUT_SHEETS$POCKETS
 10
26.21467887085992
 20
24.32147495892033
 30
0.0
 11
26.21467887085992
 21
33.46547495892034
 31
0.0
  0
ARC
  5
1C0
  8
CUT_SHEETS$POCKETS
 10
26.37342887085992
 20
33.46547495892033
 30
0.0
 40
0.1587499999999977
 50
359.9999915119446
 51
179.9999999999974
  0
LINE
  5
1C1
  8
CUT_SHEETS$POCKETS
 10
27.5478188708599
 20
41.64268995892036
 30
0.0
 11
27.63031887085991
 21
41.64268995892036
 31
0.0
  0
ARC
  5
1C2
  8
CUT_SHEETS$POCKETS
 10
27.63031887085992
 20
41.35456495892037
 30
0.0
 40
0.2881249999999866
 50
359.9999999999957
 51
90.00000000000212
  0
LINE
  5
1C3
  8
CUT_SHEETS$POCKETS
 10
27.91844387085992
 20
41.35456495892035
 30
0.0
 11
27.91844387085992
 21
35.93806495892034
 31
0.0
  0
ARC
  5
1C4
  8
CUT_SHEETS$POCKETS
 10
27.63031887085995
 20
35.93806495892031
 30
0.0
 40
0.288124999999976
 50
269.999999999993
 51
0.0000000000070648
  0
LINE
  5
1C5
  8
CUT_SHEETS$POCKETS
 10
27.63031887085991
 20
35.64993995892033
 30
0.0
 11
27.54781887085991
 21
35.64993995892033
 31
0.0
  0
ARC
  5
1C6
  8
CUT_SHEETS$POCKETS
 10
27.5478188708599
 20
35.93806495892029
 30
0.0
 40
0.2881249999999653
 50
179.9999999999915
 51
270.0000000000021
  0
LINE
  5
1C7
  8
CUT_SHEETS$POCKETS
 10
27.25969387085993
 20
35.93806495892034
 30
0.0
 11
27.25969387085993
 21
41.35456495892036
 31
0.0
  0
ARC
  5
1C8
  8
CUT_SHEETS$POCKETS
 10
27.54781887085998
 20
41.35456495892031
 30
0.0
 40
0.2881250000000577
 50
90.00000000001766
 51
179.9999999999901
  0
LINE
  5
1C9
  8
CUT_SHEETS$POCKETS
 10
20.51476887085993
 20
41.50212646526862
 30
0.0
 11
17.56916887085993
 21
41.50212646526862
 31
0.0
  0
ARC
  5
1CA
  8
CUT_SHEETS$POCKETS
 10
17.56916887085987
 20
41.79025146526858
 30
0.0
 40
0.2881249999999582
 50
179.9999999999887
 51
270.0000000000113
  0
LINE
  5
1CB
  8
CUT_SHEETS$POCKETS
 10
17.28104387085991
 20
41.79025146526863
 30
0.0
 11
17.28104387085991
 21
41.87275146526865
 31
0.0
  0
ARC
  5
1CC
  8
CUT_SHEETS$POCKETS
 10
17.56916887085995
 20
41.87275146526858
 30
0.0
 40
0.2881250000000364
 50
90.00000000000708
 51
179.9999999999859
  0
LINE
  5
1CD
  8
CUT_SHEETS$POCKETS
 10
17.56916887085991
 20
42.16087646526861
 30
0.0
 11
20.5147688708599
 21
42.16087646526861
 31
0.0
  0
ARC
  5
1CE
  8
CUT_SHEETS$POCKETS
 10
20.51476887085994
 20
41.87275146526864
 30
0.0
 40
0.2881249999999724
 50
0.000000000001413
 51
90.00000000000635
  0
LINE
  5
1CF
  8
CUT_SHEETS$POCKETS
 10
20.80289387085991
 20
41.87275146526864
 30
0.0
 11
20.80289387085991
 21
41.79025146526863
 31
0.0
  0
ARC
  5
1D0
  8
CUT_SHEETS$POCKETS
 10
20.51476887085992
 20
41.79025146526861
 30
0.0
 40
0.2881249999999866
 50
270.0000000000014
 51
0.0000000000042389
  0
LINE
  5
1D1
  8
CUT_SHEETS$POCKETS
 10
22.43369387085993
 20
37.50910995892367
 30
0.0
 11
22.75630005080173
 21
37.50910995892235
 31
0.0
  0
ARC
  5
1D2
  8
CUT_SHEETS$POCKETS
 10
22.75630005080182
 20
37.08848495892207
 30
0.0
 40
0.4206250000002854
 50
59.10024118080522
 51
90.00000000001113
  0
LINE
  5
1D3
  8
CUT_SHEETS$POCKETS
 10
22.97230682067573
 20
37.44940941915423
 30
0.0
 11
23.09244387085993
 21
37.37750956471994
 31
0.0
  0
LINE
  5
1D4
  8
CUT_SHEETS$POCKETS
 10
23.09244387085993
 20
37.37750956471994
 30
0.0
 11
23.09244387085993
 21
41.35456495892035
 31
0.0
  0
ARC
  5
1D5
  8
CUT_SHEETS$POCKETS
 10
22.80431887085994
 20
41.35456495892037
 30
0.0
 40
0.2881249999999866
 50
359.9999999999957
 51
89.9999999999986
  0
LINE
  5
1D6
  8
CUT_SHEETS$POCKETS
 10
22.80431887085995
 20
41.64268995892036
 30
0.0
 11
22.72181887085994
 21
41.64268995892036
 31
0.0
  0
ARC
  5
1D7
  8
CUT_SHEETS$POCKETS
 10
22.72181887085993
 20
41.35456495892037
 30
0.0
 40
0.2881249999999866
 50
89.9999999999979
 51
180.0000000000042
  0
LINE
  5
1D8
  8
CUT_SHEETS$POCKETS
 10
22.43369387085993
 20
41.35456495892035
 30
0.0
 11
22.43369387085993
 21
37.50910995892367
 31
0.0
  0
LINE
  5
1D9
  8
CUT_SHEETS$POCKETS
 10
16.60541387085993
 20
38.99116040822156
 30
0.0
 11
16.60541387085993
 21
37.50910995892331
 31
0.0
  0
LINE
  5
1DA
  8
CUT_SHEETS$POCKETS
 10
16.60541387085993
 20
37.50910995892331
 30
0.0
 11
17.26416387085992
 21
37.50910995892335
 31
0.0
  0
LINE
  5
1DB
  8
CUT_SHEETS$POCKETS
 10
17.26416387085992
 20
37.50910995892335
 30
0.0
 11
17.26416387085992
 21
38.99116040153074
 31
0.0
  0
ARC
  5
1DC
  8
CUT_SHEETS$POCKETS
 10
16.97603887085995
 20
38.99116040153076
 30
0.0
 40
0.2881249999999795
 50
359.9999999999972
 51
89.9999999999986
  0
LINE
  5
1DD
  8
CUT_SHEETS$POCKETS
 10
16.97603887085995
 20
39.27928540153074
 30
0.0
 11
16.89353886416913
 21
39.27928540153074
 31
0.0
  0
ARC
  5
1DE
  8
CUT_SHEETS$POCKETS
 10
16.89353891274336
 20
38.99116035964732
 30
0.0
 40
0.2881250418834297
 50
90.0000096593413
 51
179.9999903406552
  0
LINE
  5
1DF
  8
CUT_SHEETS$POCKETS
 10
15.1845983481092
 20
17.56361495892034
 30
0.0
 11
16.00409551545874
 21
17.56361495892034
 31
0.0
  0
ARC
  5
1E0
  8
CUT_SHEETS$POCKETS
 10
16.00409551545874
 20
17.35486495892036
 30
0.0
 40
0.2087499999999807
 50
359.9999999999922
 51
90.00000000000098
  0
LINE
  5
1E1
  8
CUT_SHEETS$POCKETS
 10
16.21284551545872
 20
17.35486495892033
 30
0.0
 11
16.21284551545875
 21
17.27236495892032
 31
0.0
  0
ARC
  5
1E2
  8
CUT_SHEETS$POCKETS
 10
16.00409551545873
 20
17.27236495892035
 30
0.0
 40
0.2087500000000162
 50
270.0000000000019
 51
359.9999999999902
  0
LINE
  5
1E3
  8
CUT_SHEETS$POCKETS
 10
16.00409551545874
 20
17.06361495892034
 30
0.0
 11
15.18459834810923
 21
17.06361495892034
 31
0.0
  0
ARC
  5
1E4
  8
CUT_SHEETS$POCKETS
 10
15.18459834810917
 20
17.27236495892029
 30
0.0
 40
0.2087499999999523
 50
179.9999999999922
 51
270.0000000000146
  0
LINE
  5
1E5
  8
CUT_SHEETS$POCKETS
 10
14.97584834810922
 20
17.27236495892032
 30
0.0
 11
14.97584834810922
 21
17.35486495892033
 31
0.0
  0
ARC
  5
1E6
  8
CUT_SHEETS$POCKETS
 10
15.18459834810928
 20
17.35486495892028
 30
0.0
 40
0.2087500000000588
 50
90.00000000002146
 51
179.9999999999873
  0
ENDSEC
  0
EOF
