  0
SECTION
  2
HEADER
  9
$ACADVER
  1
AC1009
  9
$DWGCODEPAGE
  3
ansi_1252
  9
$INSBASE
 10
0.0
 20
0.0
 30
0.0
  9
$EXTMIN
 10
32.23000000000022
 20
0.9524999999991306
 30
0.0
  9
$EXTMAX
 10
62.22999999999999
 20
5.952499999999159
 30
0.0
  9
$LIMMIN
 10
0.0
 20
0.0
  9
$LIMMAX
 10
12.0
 20
9.0
  9
$ORTHOMODE
 70
     0
  9
$REGENMODE
 70
     1
  9
$FILLMODE
 70
     1
  9
$QTEXTMODE
 70
     0
  9
$MIRRTEXT
 70
     1
  9
$DRAGMODE
 70
     2
  9
$LTSCALE
 40
1.0
  9
$OSMODE
 70
    37
  9
$ATTMODE
 70
     1
  9
$TEXTSIZE
 40
0.2
  9
$TRACEWID
 40
0.05
  9
$TEXTSTYLE
  7
STANDARD
  9
$CLAYER
  8
0
  9
$CELTYPE
  6
BYLAYER
  9
$CECOLOR
 62
   256
  9
$DIMSCALE
 40
1.0
  9
$DIMASZ
 40
0.18
  9
$DIMEXO
 40
0.0625
  9
$DIMDLI
 40
0.38
  9
$DIMRND
 40
0.0
  9
$DIMDLE
 40
0.0
  9
$DIMEXE
 40
0.18
  9
$DIMTP
 40
0.0
  9
$DIMTM
 40
0.0
  9
$DIMTXT
 40
0.18
  9
$DIMCEN
 40
0.09
  9
$DIMTSZ
 40
0.0
  9
$DIMTOL
 70
     0
  9
$DIMLIM
 70
     0
  9
$DIMTIH
 70
     1
  9
$DIMTOH
 70
     1
  9
$DIMSE1
 70
     0
  9
$DIMSE2
 70
     0
  9
$DIMTAD
 70
     0
  9
$DIMZIN
 70
     0
  9
$DIMBLK
  1

  9
$DIMASO
 70
     1
  9
$DIMSHO
 70
     1
  9
$DIMPOST
  1

  9
$DIMAPOST
  1

  9
$DIMALT
 70
     0
  9
$DIMALTD
 70
     2
  9
$DIMALTF
 40
25.4
  9
$DIMLFAC
 40
1.0
  9
$DIMTOFL
 70
     0
  9
$DIMTVP
 40
0.0
  9
$DIMTIX
 70
     0
  9
$DIMSOXD
 70
     0
  9
$DIMSAH
 70
     0
  9
$DIMBLK1
  1

  9
$DIMBLK2
  1

  9
$DIMSTYLE
  2
STANDARD
  9
$DIMCLRD
 70
     0
  9
$DIMCLRE
 70
     0
  9
$DIMCLRT
 70
     0
  9
$DIMTFAC
 40
1.0
  9
$DIMGAP
 40
0.09
  9
$LUNITS
 70
     2
  9
$LUPREC
 70
     3
  9
$SKETCHINC
 40
0.1
  9
$FILLETRAD
 40
0.5
  9
$AUNITS
 70
     0
  9
$AUPREC
 70
     0
  9
$MENU
  1
.
  9
$ELEVATION
 40
0.0
  9
$PELEVATION
 40
0.0
  9
$THICKNESS
 40
0.0
  9
$LIMCHECK
 70
     0
  9
$CHAMFERA
 40
0.0
  9
$CHAMFERB
 40
0.0
  9
$SKPOLY
 70
     0
  9
$TDCREATE
 40
2458186.64419941
  9
$TDUPDATE
 40
2458186.644216597
  9
$TDINDWG
 40
0.0000000116
  9
$TDUSRTIMER
 40
0.0000000116
  9
$USRTIMER
 70
     1
  9
$ANGBASE
 50
0.0
  9
$ANGDIR
 70
     0
  9
$PDMODE
 70
     0
  9
$PDSIZE
 40
0.0
  9
$PLINEWID
 40
0.0
  9
$COORDS
 70
     1
  9
$SPLFRAME
 70
     0
  9
$SPLINETYPE
 70
     6
  9
$SPLINESEGS
 70
     8
  9
$ATTDIA
 70
     0
  9
$ATTREQ
 70
     1
  9
$HANDLING
 70
     1
  9
$HANDSEED
  5
E3
  9
$SURFTAB1
 70
     6
  9
$SURFTAB2
 70
     6
  9
$SURFTYPE
 70
     6
  9
$SURFU
 70
     6
  9
$SURFV
 70
     6
  9
$UCSNAME
  2

  9
$UCSORG
 10
0.0
 20
0.0
 30
0.0
  9
$UCSXDIR
 10
1.0
 20
0.0
 30
0.0
  9
$UCSYDIR
 10
0.0
 20
1.0
 30
0.0
  9
$PUCSNAME
  2

  9
$PUCSORG
 10
0.0
 20
0.0
 30
0.0
  9
$PUCSXDIR
 10
1.0
 20
0.0
 30
0.0
  9
$PUCSYDIR
 10
0.0
 20
1.0
 30
0.0
  9
$USERI1
 70
     0
  9
$USERI2
 70
     0
  9
$USERI3
 70
     0
  9
$USERI4
 70
     0
  9
$USERI5
 70
     0
  9
$USERR1
 40
0.0
  9
$USERR2
 40
0.0
  9
$USERR3
 40
0.0
  9
$USERR4
 40
0.0
  9
$USERR5
 40
0.0
  9
$WORLDVIEW
 70
     1
  9
$SHADEDGE
 70
     3
  9
$SHADEDIF
 70
    70
  9
$TILEMODE
 70
     1
  9
$MAXACTVP
 70
    64
  9
$PLIMCHECK
 70
     0
  9
$PEXTMIN
 10
1.000000000000000E+20
 20
1.000000000000000E+20
 30
1.000000000000000E+20
  9
$PEXTMAX
 10
-1.000000000000000E+20
 20
-1.000000000000000E+20
 30
-1.000000000000000E+20
  9
$PLIMMIN
 10
0.0
 20
0.0
  9
$PLIMMAX
 10
12.0
 20
9.0
  9
$UNITMODE
 70
     0
  9
$VISRETAIN
 70
     1
  9
$PLINEGEN
 70
     0
  9
$PSLTSCALE
 70
     1
  0
ENDSEC
  0
SECTION
  2
TABLES
  0
TABLE
  2
VPORT
 70
     1
  0
VPORT
  2
*ACTIVE
 70
     0
 10
0.0
 20
0.0
 11
1.0
 21
1.0
 12
47.2300000000001
 22
3.452499999999145
 13
0.0
 23
0.0
 14
0.5
 24
0.5
 15
0.5
 25
0.5
 16
0.0
 26
0.0
 36
1.0
 17
0.0
 27
0.0
 37
0.0
 40
5.100000000000029
 41
5.99999999999992
 42
50.0
 43
0.0
 44
0.0
 50
0.0
 51
0.0
 71
     0
 72
   100
 73
     1
 74
     3
 75
     0
 76
     0
 77
     0
 78
     0
  0
ENDTAB
  0
TABLE
  2
LTYPE
 70
     1
  0
LTYPE
  2
CONTINUOUS
 70
     0
  3
Solid line
 72
    65
 73
     0
 40
0.0
  0
ENDTAB
  0
TABLE
  2
LAYER
 70
     3
  0
LAYER
  2
0
 70
     0
 62
     7
  6
CONTINUOUS
  0
LAYER
  2
CUT_SHEETS$PROFILE_CUTS_IN
 70
     0
 62
     5
  6
CONTINUOUS
  0
LAYER
  2
CUT_SHEETS$PROFILE_CUTS_OU
 70
     0
 62
    96
  6
CONTINUOUS
  0
ENDTAB
  0
TABLE
  2
STYLE
 70
     1
  0
STYLE
  2
STANDARD
 70
     0
 40
0.0
 41
1.0
 50
0.0
 71
     0
 42
0.2
  3
txt
  4

  0
ENDTAB
  0
TABLE
  2
VIEW
 70
     0
  0
ENDTAB
  0
TABLE
  2
UCS
 70
     0
  0
ENDTAB
  0
TABLE
  2
APPID
 70
     1
  0
APPID
  2
ACAD
 70
     0
  0
ENDTAB
  0
TABLE
  2
DIMSTYLE
 70
     1
  0
DIMSTYLE
  2
STANDARD
 70
     0
  3

  4

  5

  6

  7

 40
1.0
 41
0.18
 42
0.0625
 43
0.38
 44
0.18
 45
0.0
 46
0.0
 47
0.0
 48
0.0
140
0.18
141
0.09
142
0.0
143
25.4
144
1.0
145
0.0
146
1.0
147
0.09
 71
     0
 72
     0
 73
     1
 74
     1
 75
     0
 76
     0
 77
     0
 78
     0
170
     0
171
     2
172
     0
173
     0
174
     0
175
     0
176
     0
177
     0
178
     0
  0
ENDTAB
  0
ENDSEC
  0
SECTION
  2
BLOCKS
  0
BLOCK
  8
0
  2
$MODEL_SPACE
 70
     0
 10
0.0
 20
0.0
 30
0.0
  3
$MODEL_SPACE
  1

  0
ENDBLK
  5
21
  8
0
  0
BLOCK
 67
     1
  8
0
  2
$PAPER_SPACE
 70
     0
 10
0.0
 20
0.0
 30
0.0
  3
$PAPER_SPACE
  1

  0
ENDBLK
  5
1D
 67
     1
  8
0
  0
ENDSEC
  0
SECTION
  2
ENTITIES
  0
LINE
  5
6F
  8
CUT_SHEETS$PROFILE_CUTS_IN
 10
42.15130001854992
 20
2.064753201509558
 30
0.0
 11
42.15130001854834
 21
2.840246798484938
 31
0.0
  0
ARC
  5
70
  8
CUT_SHEETS$PROFILE_CUTS_IN
 10
42.0951734177914
 20
2.896373399241367
 30
0.0
 40
0.0793749999999992
 50
315.0000000002639
 51
135.00000000025
  0
LINE
  5
71
  8
CUT_SHEETS$PROFILE_CUTS_IN
 10
42.03904681703446
 20
2.952499999997795
 30
0.0
 11
41.62855322006251
 21
2.952499999996956
 31
0.0
  0
ARC
  5
72
  8
CUT_SHEETS$PROFILE_CUTS_IN
 10
41.57242661930476
 20
2.896373399241367
 30
0.0
 40
0.0793749999999957
 50
44.99999999889952
 51
225.0000000002337
  0
LINE
  5
73
  8
CUT_SHEETS$PROFILE_CUTS_IN
 10
41.51630001854831
 20
2.84024679848444
 30
0.0
 11
41.51630001854991
 21
2.064753201513252
 31
0.0
  0
ARC
  5
74
  8
CUT_SHEETS$PROFILE_CUTS_IN
 10
41.57242661930475
 20
2.008626600754735
 30
0.0
 40
0.0793750000000011
 50
134.99999999813
 51
314.999999998762
  0
LINE
  5
75
  8
CUT_SHEETS$PROFILE_CUTS_IN
 10
41.62855322006023
 20
1.952499999996843
 30
0.0
 11
42.03904681703497
 21
1.952499999997781
 31
0.0
  0
ARC
  5
76
  8
CUT_SHEETS$PROFILE_CUTS_IN
 10
42.0951734177914
 20
2.008626600754733
 30
0.0
 40
0.0793749999999964
 50
225.0000000002636
 51
44.99999999811728
  0
LINE
  5
77
  8
CUT_SHEETS$PROFILE_CUTS_IN
 10
42.15130001854322
 20
4.064753201509472
 30
0.0
 11
42.15130001854166
 21
4.840246798484866
 31
0.0
  0
ARC
  5
78
  8
CUT_SHEETS$PROFILE_CUTS_IN
 10
42.09517341778471
 20
4.896373399241281
 30
0.0
 40
0.0793749999999992
 50
315.0000000002639
 51
135.0000000002498
  0
LINE
  5
79
  8
CUT_SHEETS$PROFILE_CUTS_IN
 10
42.03904681702778
 20
4.952499999997723
 30
0.0
 11
41.62855322005584
 21
4.952499999996885
 31
0.0
  0
ARC
  5
7A
  8
CUT_SHEETS$PROFILE_CUTS_IN
 10
41.57242661929807
 20
4.896373399241281
 30
0.0
 40
0.0793750000000011
 50
44.99999999889612
 51
225.0000000002375
  0
LINE
  5
7B
  8
CUT_SHEETS$PROFILE_CUTS_IN
 10
41.51630001854161
 20
4.840246798484369
 30
0.0
 11
41.51630001854322
 21
4.064753201513167
 31
0.0
  0
ARC
  5
7C
  8
CUT_SHEETS$PROFILE_CUTS_IN
 10
41.57242661929807
 20
4.00862660075465
 30
0.0
 40
0.0793750000000011
 50
134.99999999813
 51
314.9999999987619
  0
LINE
  5
7D
  8
CUT_SHEETS$PROFILE_CUTS_IN
 10
41.62855322005353
 20
3.952499999996757
 30
0.0
 11
42.03904681702829
 21
3.95249999999771
 31
0.0
  0
ARC
  5
7E
  8
CUT_SHEETS$PROFILE_CUTS_IN
 10
42.09517341778471
 20
4.008626600754647
 30
0.0
 40
0.0793749999999967
 50
225.0000000002638
 51
44.99999999811728
  0
LINE
  5
80
  8
CUT_SHEETS$PROFILE_CUTS_OU
 10
61.59499999999997
 20
1.840246798485876
 30
0.0
 11
61.59500000000006
 21
0.9524999999991306
 31
0.0
  0
LINE
  5
81
  8
CUT_SHEETS$PROFILE_CUTS_OU
 10
61.59500000000006
 20
0.9524999999991306
 30
0.0
 11
60.23000000000008
 21
0.9524999999991306
 31
0.0
  0
LINE
  5
82
  8
CUT_SHEETS$PROFILE_CUTS_OU
 10
60.23000000000008
 20
0.9524999999991306
 30
0.0
 11
60.23000000000002
 21
1.157746798485843
 31
0.0
  0
ARC
  5
83
  8
CUT_SHEETS$PROFILE_CUTS_OU
 10
60.17387339924338
 20
1.213873399242551
 30
0.0
 40
0.0793749999999953
 50
314.999999999962
 51
135.000000000035
  0
LINE
  5
84
  8
CUT_SHEETS$PROFILE_CUTS_OU
 10
60.11774679848666
 20
1.269999999999211
 30
0.0
 11
59.34225320151333
 21
1.269999999999169
 31
0.0
  0
ARC
  5
85
  8
CUT_SHEETS$PROFILE_CUTS_OU
 10
59.28612660075672
 20
1.213873399242421
 30
0.0
 40
0.0793749999999965
 50
45.00000000006064
 51
225.0000000000537
  0
LINE
  5
86
  8
CUT_SHEETS$PROFILE_CUTS_OU
 10
59.23000000000008
 20
1.157746798485686
 30
0.0
 11
59.23000000000008
 21
0.9524999999991306
 31
0.0
  0
LINE
  5
87
  8
CUT_SHEETS$PROFILE_CUTS_OU
 10
59.23000000000008
 20
0.9524999999991306
 30
0.0
 11
47.73000000000005
 21
0.952499999999159
 31
0.0
  0
LINE
  5
88
  8
CUT_SHEETS$PROFILE_CUTS_OU
 10
47.73000000000005
 20
0.952499999999159
 30
0.0
 11
47.73
 21
1.157746798485871
 31
0.0
  0
ARC
  5
89
  8
CUT_SHEETS$PROFILE_CUTS_OU
 10
47.67387339924336
 20
1.213873399242588
 30
0.0
 40
0.0793749999999915
 50
314.9999999999648
 51
135.0000000000599
  0
LINE
  5
8A
  8
CUT_SHEETS$PROFILE_CUTS_OU
 10
47.61774679848662
 20
1.269999999999211
 30
0.0
 11
46.84225320151333
 21
1.269999999999154
 31
0.0
  0
ARC
  5
8B
  8
CUT_SHEETS$PROFILE_CUTS_OU
 10
46.78612660075668
 20
1.213873399242449
 30
0.0
 40
0.0793749999999968
 50
45.00000000003185
 51
225.0000000000626
  0
LINE
  5
8C
  8
CUT_SHEETS$PROFILE_CUTS_OU
 10
46.73000000000005
 20
1.157746798485715
 30
0.0
 11
46.73000000000005
 21
0.952499999999159
 31
0.0
  0
LINE
  5
8D
  8
CUT_SHEETS$PROFILE_CUTS_OU
 10
46.73000000000005
 20
0.952499999999159
 30
0.0
 11
35.23000000000002
 21
0.952499999999159
 31
0.0
  0
LINE
  5
8E
  8
CUT_SHEETS$PROFILE_CUTS_OU
 10
35.23000000000002
 20
0.952499999999159
 30
0.0
 11
35.22999999999996
 21
1.157746798485857
 31
0.0
  0
ARC
  5
8F
  8
CUT_SHEETS$PROFILE_CUTS_OU
 10
35.17387339924333
 20
1.213873399242581
 30
0.0
 40
0.0793749999999935
 50
314.9999999999561
 51
135.0000000000631
  0
LINE
  5
90
  8
CUT_SHEETS$PROFILE_CUTS_OU
 10
35.11774679848659
 20
1.269999999999211
 30
0.0
 11
34.34225320151332
 21
1.269999999999154
 31
0.0
  0
ARC
  5
91
  8
CUT_SHEETS$PROFILE_CUTS_OU
 10
34.28612660075667
 20
1.213873399242454
 30
0.0
 40
0.0793749999999939
 50
45.00000000002969
 51
225.0000000000526
  0
LINE
  5
92
  8
CUT_SHEETS$PROFILE_CUTS_OU
 10
34.23000000000002
 20
1.157746798485729
 30
0.0
 11
34.23000000000002
 21
0.952499999999159
 31
0.0
  0
LINE
  5
93
  8
CUT_SHEETS$PROFILE_CUTS_OU
 10
34.23000000000002
 20
0.952499999999159
 30
0.0
 11
32.86500000000004
 21
0.952499999999159
 31
0.0
  0
LINE
  5
94
  8
CUT_SHEETS$PROFILE_CUTS_OU
 10
32.86500000000004
 20
0.952499999999159
 30
0.0
 11
32.86500000000021
 21
1.840246798485833
 31
0.0
  0
ARC
  5
95
  8
CUT_SHEETS$PROFILE_CUTS_OU
 10
32.80887339924351
 20
1.896373399242491
 30
0.0
 40
0.0793749999999876
 50
315.0000000000111
 51
134.9999999999906
  0
LINE
  5
96
  8
CUT_SHEETS$PROFILE_CUTS_OU
 10
32.75274679848684
 20
1.952499999999187
 30
0.0
 11
32.23000000000022
 21
1.952499999999159
 31
0.0
  0
LINE
  5
97
  8
CUT_SHEETS$PROFILE_CUTS_OU
 10
32.23000000000022
 20
1.952499999999159
 30
0.0
 11
32.23000000000022
 21
2.952499999999159
 31
0.0
  0
LINE
  5
98
  8
CUT_SHEETS$PROFILE_CUTS_OU
 10
32.23000000000022
 20
2.952499999999159
 30
0.0
 11
32.75274679848678
 21
2.952499999999159
 31
0.0
  0
ARC
  5
99
  8
CUT_SHEETS$PROFILE_CUTS_OU
 10
32.80887339924348
 20
3.008626600755835
 30
0.0
 40
0.0793750000000029
 50
224.9999999999928
 51
44.99999999991274
  0
LINE
  5
9A
  8
CUT_SHEETS$PROFILE_CUTS_OU
 10
32.86500000000026
 20
3.064753201512428
 30
0.0
 11
32.86500000000026
 21
3.84024679848589
 31
0.0
  0
ARC
  5
9B
  8
CUT_SHEETS$PROFILE_CUTS_OU
 10
32.80887339924351
 20
3.896373399242482
 30
0.0
 40
0.0793749999999898
 50
315.0000000000965
 51
134.9999999999522
  0
LINE
  5
9C
  8
CUT_SHEETS$PROFILE_CUTS_OU
 10
32.75274679848687
 20
3.952499999999216
 30
0.0
 11
32.23000000000022
 21
3.952499999999159
 31
0.0
  0
LINE
  5
9D
  8
CUT_SHEETS$PROFILE_CUTS_OU
 10
32.23000000000022
 20
3.952499999999159
 30
0.0
 11
32.23000000000022
 21
4.952499999999159
 31
0.0
  0
LINE
  5
9E
  8
CUT_SHEETS$PROFILE_CUTS_OU
 10
32.23000000000022
 20
4.952499999999159
 30
0.0
 11
32.75274679848681
 21
4.952499999999159
 31
0.0
  0
ARC
  5
9F
  8
CUT_SHEETS$PROFILE_CUTS_OU
 10
32.80887339924351
 20
5.00862660075583
 30
0.0
 40
0.0793749999999979
 50
224.9999999999891
 51
44.99999999996147
  0
LINE
  5
A0
  8
CUT_SHEETS$PROFILE_CUTS_OU
 10
32.86500000000022
 20
5.064753201512456
 30
0.0
 11
32.86500000000004
 21
5.952499999999159
 31
0.0
  0
LINE
  5
A1
  8
CUT_SHEETS$PROFILE_CUTS_OU
 10
32.86500000000004
 20
5.952499999999159
 30
0.0
 11
34.23000000000002
 21
5.952499999999159
 31
0.0
  0
LINE
  5
A2
  8
CUT_SHEETS$PROFILE_CUTS_OU
 10
34.23000000000002
 20
5.952499999999159
 30
0.0
 11
34.23
 21
5.429753201512593
 31
0.0
  0
ARC
  5
A3
  8
CUT_SHEETS$PROFILE_CUTS_OU
 10
34.28612660075669
 20
5.373626600755912
 30
0.0
 40
0.0793750000000124
 50
135.0000000000005
 51
314.999999999942
  0
LINE
  5
A4
  8
CUT_SHEETS$PROFILE_CUTS_OU
 10
34.3422532015133
 20
5.317499999999168
 30
0.0
 11
35.11774679848671
 21
5.317499999999168
 31
0.0
  0
ARC
  5
A5
  8
CUT_SHEETS$PROFILE_CUTS_OU
 10
35.17387339924333
 20
5.37362660075591
 30
0.0
 40
0.0793750000000067
 50
225.0000000000535
 51
45.00000000000362
  0
LINE
  5
A6
  8
CUT_SHEETS$PROFILE_CUTS_OU
 10
35.23000000000002
 20
5.429753201512593
 30
0.0
 11
35.23000000000002
 21
5.952499999999159
 31
0.0
  0
LINE
  5
A7
  8
CUT_SHEETS$PROFILE_CUTS_OU
 10
35.23000000000002
 20
5.952499999999159
 30
0.0
 11
37.22999999999485
 21
5.952499999999159
 31
0.0
  0
LINE
  5
A8
  8
CUT_SHEETS$PROFILE_CUTS_OU
 10
37.22999999999485
 20
5.952499999999159
 30
0.0
 11
37.22999999999485
 21
5.429753201512607
 31
0.0
  0
ARC
  5
A9
  8
CUT_SHEETS$PROFILE_CUTS_OU
 10
37.28612660075152
 20
5.37362660075591
 30
0.0
 40
0.0793749999999992
 50
134.9999999999882
 51
314.9999999998853
  0
LINE
  5
AA
  8
CUT_SHEETS$PROFILE_CUTS_OU
 10
37.34225320150807
 20
5.317499999999111
 30
0.0
 11
38.11774679848159
 21
5.317499999999111
 31
0.0
  0
ARC
  5
AB
  8
CUT_SHEETS$PROFILE_CUTS_OU
 10
38.17387339923818
 20
5.373626600755903
 30
0.0
 40
0.0793750000000023
 50
225.0000000001011
 51
45.00000000001994
  0
LINE
  5
AC
  8
CUT_SHEETS$PROFILE_CUTS_OU
 10
38.22999999999485
 20
5.429753201512593
 30
0.0
 11
38.22999999999485
 21
5.952499999999159
 31
0.0
  0
LINE
  5
AD
  8
CUT_SHEETS$PROFILE_CUTS_OU
 10
38.22999999999485
 20
5.952499999999159
 30
0.0
 11
46.73000000000005
 21
5.952499999999159
 31
0.0
  0
LINE
  5
AE
  8
CUT_SHEETS$PROFILE_CUTS_OU
 10
46.73000000000005
 20
5.952499999999159
 30
0.0
 11
46.73000000000005
 21
5.429753201512607
 31
0.0
  0
ARC
  5
AF
  8
CUT_SHEETS$PROFILE_CUTS_OU
 10
46.78612660075671
 20
5.373626600755906
 30
0.0
 40
0.0793749999999967
 50
134.9999999999828
 51
314.9999999998894
  0
LINE
  5
B0
  8
CUT_SHEETS$PROFILE_CUTS_OU
 10
46.84225320151327
 20
5.317499999999111
 30
0.0
 11
47.61774679848679
 21
5.317499999999111
 31
0.0
  0
ARC
  5
B1
  8
CUT_SHEETS$PROFILE_CUTS_OU
 10
47.67387339924338
 20
5.37362660075591
 30
0.0
 40
0.0793750000000023
 50
225.0000000001083
 51
45.0000000000127
  0
LINE
  5
B2
  8
CUT_SHEETS$PROFILE_CUTS_OU
 10
47.73000000000005
 20
5.429753201512593
 30
0.0
 11
47.73000000000005
 21
5.952499999999159
 31
0.0
  0
LINE
  5
B3
  8
CUT_SHEETS$PROFILE_CUTS_OU
 10
47.73000000000005
 20
5.952499999999159
 30
0.0
 11
56.22999999999485
 21
5.95249999999913
 31
0.0
  0
LINE
  5
B4
  8
CUT_SHEETS$PROFILE_CUTS_OU
 10
56.22999999999485
 20
5.95249999999913
 30
0.0
 11
56.22999999999485
 21
5.429753201512565
 31
0.0
  0
ARC
  5
B5
  8
CUT_SHEETS$PROFILE_CUTS_OU
 10
56.28612660075152
 20
5.37362660075588
 30
0.0
 40
0.0793749999999979
 50
134.9999999999891
 51
314.9999999999093
  0
LINE
  5
B6
  8
CUT_SHEETS$PROFILE_CUTS_OU
 10
56.3422532015081
 20
5.317499999999097
 30
0.0
 11
57.11774679848159
 21
5.317499999999097
 31
0.0
  0
ARC
  5
B7
  8
CUT_SHEETS$PROFILE_CUTS_OU
 10
57.17387339923817
 20
5.373626600755889
 30
0.0
 40
0.0793750000000042
 50
225.0000000001024
 51
44.99999999999955
  0
LINE
  5
B8
  8
CUT_SHEETS$PROFILE_CUTS_OU
 10
57.22999999999485
 20
5.429753201512565
 30
0.0
 11
57.22999999999485
 21
5.95249999999913
 31
0.0
  0
LINE
  5
B9
  8
CUT_SHEETS$PROFILE_CUTS_OU
 10
57.22999999999485
 20
5.95249999999913
 30
0.0
 11
59.23000000000008
 21
5.95249999999913
 31
0.0
  0
LINE
  5
BA
  8
CUT_SHEETS$PROFILE_CUTS_OU
 10
59.23000000000008
 20
5.95249999999913
 30
0.0
 11
59.23000000000008
 21
5.429753201512565
 31
0.0
  0
ARC
  5
BB
  8
CUT_SHEETS$PROFILE_CUTS_OU
 10
59.28612660075674
 20
5.373626600755872
 30
0.0
 40
0.0793749999999992
 50
134.999999999981
 51
314.9999999999501
  0
LINE
  5
BC
  8
CUT_SHEETS$PROFILE_CUTS_OU
 10
59.34225320151336
 20
5.317499999999139
 30
0.0
 11
60.11774679848678
 21
5.317499999999139
 31
0.0
  0
ARC
  5
BD
  8
CUT_SHEETS$PROFILE_CUTS_OU
 10
60.1738733992434
 20
5.373626600755889
 30
0.0
 40
0.0793750000000111
 50
225.0000000000639
 51
44.99999999999321
  0
LINE
  5
BE
  8
CUT_SHEETS$PROFILE_CUTS_OU
 10
60.23000000000008
 20
5.429753201512579
 30
0.0
 11
60.23000000000008
 21
5.95249999999913
 31
0.0
  0
LINE
  5
BF
  8
CUT_SHEETS$PROFILE_CUTS_OU
 10
60.23000000000008
 20
5.95249999999913
 30
0.0
 11
61.59500000000006
 21
5.95249999999913
 31
0.0
  0
LINE
  5
C0
  8
CUT_SHEETS$PROFILE_CUTS_OU
 10
61.59500000000006
 20
5.95249999999913
 30
0.0
 11
61.59499999999997
 21
5.064753201512385
 31
0.0
  0
ARC
  5
C1
  8
CUT_SHEETS$PROFILE_CUTS_OU
 10
61.65112660075675
 20
5.008626600755805
 30
0.0
 40
0.0793750000000117
 50
135.0000000001097
 51
315.0000000000095
  0
LINE
  5
C2
  8
CUT_SHEETS$PROFILE_CUTS_OU
 10
61.70725320151345
 20
4.95249999999913
 30
0.0
 11
62.22999999999999
 21
4.95249999999913
 31
0.0
  0
LINE
  5
C3
  8
CUT_SHEETS$PROFILE_CUTS_OU
 10
62.22999999999999
 20
4.95249999999913
 30
0.0
 11
62.22999999999999
 21
3.952499999999131
 31
0.0
  0
LINE
  5
C4
  8
CUT_SHEETS$PROFILE_CUTS_OU
 10
62.22999999999999
 20
3.952499999999131
 30
0.0
 11
61.70725320151344
 21
3.952499999999131
 31
0.0
  0
ARC
  5
C5
  8
CUT_SHEETS$PROFILE_CUTS_OU
 10
61.65112660075675
 20
3.896373399242464
 30
0.0
 40
0.0793749999999989
 50
44.9999999999898
 51
224.9999999998898
  0
LINE
  5
C6
  8
CUT_SHEETS$PROFILE_CUTS_OU
 10
61.59499999999996
 20
3.840246798485876
 30
0.0
 11
61.59499999999996
 21
3.064753201512386
 31
0.0
  0
ARC
  5
C7
  8
CUT_SHEETS$PROFILE_CUTS_OU
 10
61.65112660075675
 20
3.008626600755795
 30
0.0
 40
0.0793750000000083
 50
135.000000000105
 51
315.0000000000102
  0
LINE
  5
C8
  8
CUT_SHEETS$PROFILE_CUTS_OU
 10
61.70725320151344
 20
2.952499999999131
 30
0.0
 11
62.22999999999999
 21
2.952499999999131
 31
0.0
  0
LINE
  5
C9
  8
CUT_SHEETS$PROFILE_CUTS_OU
 10
62.22999999999999
 20
2.952499999999131
 30
0.0
 11
62.22999999999999
 21
1.952499999999131
 31
0.0
  0
LINE
  5
CA
  8
CUT_SHEETS$PROFILE_CUTS_OU
 10
62.22999999999999
 20
1.952499999999131
 30
0.0
 11
61.70725320151344
 21
1.952499999999131
 31
0.0
  0
ARC
  5
CB
  8
CUT_SHEETS$PROFILE_CUTS_OU
 10
61.65112660075673
 20
1.896373399242465
 30
0.0
 40
0.0793750000000067
 50
44.99999999996646
 51
224.9999999999075
  0
LINE
  5
CC
  8
CUT_SHEETS$PROFILE_CUTS_IN
 10
52.94630021387357
 20
2.064753201511888
 30
0.0
 11
52.94630021387198
 21
2.840246798487268
 31
0.0
  0
ARC
  5
CD
  8
CUT_SHEETS$PROFILE_CUTS_IN
 10
52.89017361311504
 20
2.896373399243697
 30
0.0
 40
0.0793749999999992
 50
315.0000000002639
 51
135.00000000025
  0
LINE
  5
CE
  8
CUT_SHEETS$PROFILE_CUTS_IN
 10
52.83404701235811
 20
2.952500000000125
 30
0.0
 11
52.42355341538615
 21
2.952499999999287
 31
0.0
  0
ARC
  5
CF
  8
CUT_SHEETS$PROFILE_CUTS_IN
 10
52.36742681462841
 20
2.896373399243698
 30
0.0
 40
0.0793749999999957
 50
44.99999999889952
 51
225.0000000002337
  0
LINE
  5
D0
  8
CUT_SHEETS$PROFILE_CUTS_IN
 10
52.31130021387195
 20
2.840246798486771
 30
0.0
 11
52.31130021387355
 21
2.064753201515583
 31
0.0
  0
ARC
  5
D1
  8
CUT_SHEETS$PROFILE_CUTS_IN
 10
52.3674268146284
 20
2.008626600757066
 30
0.0
 40
0.0793750000000011
 50
134.99999999813
 51
314.999999998762
  0
LINE
  5
D2
  8
CUT_SHEETS$PROFILE_CUTS_IN
 10
52.42355341538388
 20
1.952499999999173
 30
0.0
 11
52.83404701235861
 21
1.952500000000111
 31
0.0
  0
ARC
  5
D3
  8
CUT_SHEETS$PROFILE_CUTS_IN
 10
52.89017361311504
 20
2.008626600757063
 30
0.0
 40
0.0793749999999964
 50
225.0000000002636
 51
44.99999999811728
  0
LINE
  5
D4
  8
CUT_SHEETS$PROFILE_CUTS_IN
 10
52.94630021386688
 20
4.064753201511802
 30
0.0
 11
52.9463002138653
 21
4.840246798487197
 31
0.0
  0
ARC
  5
D5
  8
CUT_SHEETS$PROFILE_CUTS_IN
 10
52.89017361310836
 20
4.896373399243611
 30
0.0
 40
0.0793749999999992
 50
315.0000000002639
 51
135.0000000002498
  0
LINE
  5
D6
  8
CUT_SHEETS$PROFILE_CUTS_IN
 10
52.83404701235142
 20
4.952500000000054
 30
0.0
 11
52.42355341537947
 21
4.952499999999215
 31
0.0
  0
ARC
  5
D7
  8
CUT_SHEETS$PROFILE_CUTS_IN
 10
52.36742681462171
 20
4.896373399243612
 30
0.0
 40
0.0793750000000011
 50
44.99999999889612
 51
225.0000000002375
  0
LINE
  5
D8
  8
CUT_SHEETS$PROFILE_CUTS_IN
 10
52.31130021386527
 20
4.840246798486699
 30
0.0
 11
52.31130021386687
 21
4.064753201515497
 31
0.0
  0
ARC
  5
D9
  8
CUT_SHEETS$PROFILE_CUTS_IN
 10
52.36742681462171
 20
4.008626600756981
 30
0.0
 40
0.0793750000000011
 50
134.99999999813
 51
314.9999999987619
  0
LINE
  5
DA
  8
CUT_SHEETS$PROFILE_CUTS_IN
 10
52.42355341537719
 20
3.952499999999088
 30
0.0
 11
52.83404701235193
 21
3.95250000000004
 31
0.0
  0
ARC
  5
DB
  8
CUT_SHEETS$PROFILE_CUTS_IN
 10
52.89017361310836
 20
4.008626600756978
 30
0.0
 40
0.0793749999999967
 50
225.0000000002638
 51
44.99999999811728
  0
ENDSEC
  0
EOF
