%
M48
M72
T01C0.01378
T02C0.03150
T03C0.03937
T04C0.04000
T05C0.05200
T06C0.11000
T07C0.12598
T08C0.12795
T09C0.15000
%
T01
X40350Y23350
X83350Y73350
X79600Y94600
X100600Y139600
X100600Y173600
X98000Y212100
X107900Y212100
X118000Y212100
X128000Y212300
X138000Y212300
X148300Y212300
X158800Y201300
X169800Y201300
X174000Y204800
X174100Y208378
X174100Y211956
X174100Y215534
X174000Y219112
X174000Y222690
X169800Y227300
X173900Y231600
X187600Y245600
X191800Y232300
X206800Y232300
X214711Y235600
X209769Y244769
X205600Y244600
X220300Y221600
X234600Y235600
X234600Y244589
X236100Y255600
X248600Y258989
X248600Y249600
X249600Y233600
X257600Y222678
X266800Y216700
X278486Y211714
X283600Y226600
X279300Y229600
X279300Y235600
X287600Y236211
X287600Y244589
X292600Y244589
X299600Y257600
X314600Y244600
X314589Y236211
X322600Y226600
X321300Y219500
X327600Y208600
X337600Y208600
X347600Y208600
X357600Y208600
X367600Y208600
X377600Y208600
X384600Y225600
X364600Y238600
X352600Y227600
X346600Y258600
X329600Y292600
X340600Y314600
X340600Y317600
X343600Y317600
X343600Y314600
X346600Y314600
X346600Y317600
X356600Y302600
X374600Y323600
X361600Y325600
X361600Y329600
X346600Y336600
X343600Y336600
X343600Y339600
X346600Y339600
X340600Y339600
X340600Y336600
X356600Y349600
X378600Y378800
X403600Y363800
X403600Y329600
X394600Y329600
X398600Y294600
X419600Y290600
X419600Y287600
X419600Y284600
X422600Y284600
X422600Y287600
X422600Y290600
X439600Y318600
X441600Y346600
X468600Y334600
X466600Y294100
X441600Y256600
X470600Y236600
X437600Y219600
X398600Y256600
X424600Y174600
X424600Y139600
X399600Y99600
X359600Y139600
X359600Y174600
X312300Y208600
X304400Y223600
X304300Y227600
X276600Y259600
X278600Y268600
X261600Y276600
X233600Y275600
X214611Y290600
X195600Y282100
X224600Y339600
X224608Y352608
X209600Y349800
X188600Y353600
X178600Y370600
X184600Y373800
X166600Y368600
X166600Y355600
X142100Y366100
X137100Y366100
X129600Y358600
X124600Y363600
X114600Y380600
X133100Y393200
X115100Y405200
X84600Y418800
X63600Y396800
X115600Y437800
X139600Y468800
X158600Y442800
X174100Y453700
X194600Y444300
X198100Y452300
X202600Y448300
X224100Y456300
X227600Y464300
X234600Y460300
X221600Y479300
X254600Y479300
X279100Y452300
X289100Y456300
X299600Y460300
X286600Y476300
X265600Y442300
X253600Y439300
X254100Y412300
X244600Y413300
X236100Y399300
X233600Y389300
X219100Y400300
X207600Y386300
X196600Y402300
X196600Y415300
X167100Y402200
X163100Y382200
X103600Y309100
X54600Y233600
X33600Y204600
X139600Y97600
X164600Y139600
X164600Y174600
X206300Y184600
X216300Y199600
X229600Y174600
X229600Y139600
X202600Y95600
X213350Y72100
X263600Y96600
X294600Y139600
X294600Y174600
X295300Y184600
X270600Y195400
X257600Y200600
X244600Y219689
X270586Y232614
X266600Y244589
X280600Y318600
X272600Y338800
X259600Y346600
X270600Y350600
X256600Y363800
X254100Y393550
X262600Y402300
X278600Y417300
X283900Y400300
X288600Y399300
X301100Y399800
X304600Y387300
X314600Y392300
X334600Y379800
X330767Y371767
X328600Y362600
X313600Y347600
X301600Y347600
X292600Y365800
X317600Y326600
X347600Y387800
X338600Y395600
X306600Y416300
X318600Y441300
X323600Y442100
X344600Y461600
X344600Y466600
X344600Y471600
X344600Y476600
X344600Y481600
X344600Y486600
X349600Y486600
X349600Y481600
X349600Y476600
X349600Y471600
X349600Y466600
X349600Y461600
X349600Y441600
X349600Y436600
X354600Y436600
X354600Y441600
X359600Y441600
X359600Y436600
X364600Y436600
X364600Y441600
X369600Y441600
X369600Y436600
X374600Y436600
X374600Y441600
X429600Y461600
X429600Y466600
X429600Y471600
X429600Y476600
X429600Y481600
X429600Y486600
X434600Y486600
X434600Y481600
X434600Y476600
X434600Y471600
X434600Y466600
X434600Y461600
X319600Y479300
X79600Y468800
X333600Y97600
X343350Y72100
X371600Y8600
X448350Y44350
X469600Y134600
X231600Y8600
X145850Y8350
T02
X142100Y433800
X132100Y433800
X127100Y443800
X137100Y443800
X147100Y443800
X152100Y433800
X92100Y433800
X82100Y433800
X72100Y433800
X67100Y443800
X77100Y443800
X87100Y443800
T03
X204100Y436300
X214100Y436300
X224100Y436300
X234100Y436300
X229100Y446300
X219100Y446300
X209100Y446300
X239100Y446300
X269100Y436300
X279100Y436300
X289100Y436300
X299100Y436300
X294100Y446300
X284100Y446300
X274100Y446300
X304100Y446300
X301600Y314600
X301600Y304600
X301600Y294600
X301600Y284600
X301600Y274600
X341600Y273600
X351600Y273600
X361600Y273600
X371600Y273600
X406600Y296600
X416600Y296600
X426600Y296600
X421600Y121600
X411600Y121600
X401600Y121600
X391600Y121600
X356600Y121600
X346600Y121600
X336600Y121600
X326600Y121600
X291600Y121600
X281600Y121600
X271600Y121600
X261600Y121600
X226600Y121600
X216600Y121600
X206600Y121600
X196600Y121600
X161600Y121600
X151600Y121600
X141600Y121600
X131600Y121600
X96600Y121600
X86600Y121600
X76600Y121600
X66600Y121600
X66600Y51600
X96600Y51600
X131600Y51600
X161600Y51600
X196600Y51600
X226600Y51600
X261600Y51600
X291600Y51600
X326600Y51600
X356600Y51600
X391600Y51600
X421600Y51600
T04
X189600Y274100
X179600Y274100
X169600Y274100
X159600Y274100
X149600Y274100
X139600Y274100
X129600Y274100
X119600Y274100
X109600Y274100
X99600Y274100
X89600Y274100
X79600Y274100
X79600Y344100
X89600Y344100
X99600Y344100
X109600Y344100
X119600Y344100
X129600Y344100
X139600Y344100
X149600Y344100
X159600Y344100
X169600Y344100
X179600Y344100
X189600Y344100
T05
X359600Y411600
X419600Y411600
X424100Y21600
X389100Y21600
X359100Y21600
X324100Y21600
X294100Y21600
X259100Y21600
X229100Y21600
X194100Y21600
X164100Y21600
X129100Y21600
X99100Y21600
X64100Y21600
T06
X389600Y411600
T07
X309100Y471300
X264100Y471300
X244100Y471300
X199100Y471300
T08
X159600Y468800
X119600Y468800
X99600Y468800
X59600Y468800
T09
X21600Y21600
X21600Y476600
X466600Y476600
X466600Y21600
M30
