  0
SECTION
  2
HEADER
  9
$ACADVER
  1
AC1009
  9
$FILLMODE
 70
1
  9
$EXTMIN
 10
-27.2648
 20
-0.7061
 30
0.0000
  9
$EXTMAX
 10
404.0886
 20
355.2952
 30
0.0000
  0
ENDSEC
  0
SECTION
  2
TABLES
  0
TABLE
  2
LTYPE
 70
1
  0
LTYPE
  2
CONTINUOUS
 70
64
  3
Solid line
 72
65
 73
0
 40
0
  0
ENDTAB
  0
TABLE
  2
LAYER
 70
255
  0
LAYER
  2
20
 70
64
 62
7
  6
CONTINUOUS
  0
ENDTAB
  0
ENDSEC
  0
SECTION
  2
BLOCKS
  0
BLOCK
  8
0
  2
RECT
 70
64
 10
0.0000
 20
0.0000
 30
0.0000
  3
RECT
  0
SOLID
  8
0
 10
-0.5000
 20
-0.5000
 30
0.0000
 11
0.5000
 21
-0.5000
 31
0.0000
 12
-0.5000
 22
0.5000
 32
0.0000
 13
0.5000
 23
0.5000
 33
0.0000
  0
ENDBLK
  8
0
  0
BLOCK
  8
0
  2
PIE
 70
64
 10
0.0000
 20
0.0000
 30
0.0000
  3
PIE
  0
POLYLINE
  8
0
 66
1
 10
0.0000
 20
0.0000
 30
0.0000
 40
0.5000
 41
0.5000
 70
0
  0
VERTEX
  8
0
 10
0.0000
 20
-0.2500
 30
0.0000
 42
1.0000
  0
VERTEX
  8
0
 10
0.0000
 20
0.2500
 30
0.0000
 42
1.0000
  0
VERTEX
  8
0
 10
0.0000
 20
-0.2500
 30
0.0000
  0
SEQEND
  8
0
  0
ENDBLK
  8
0
  0
BLOCK
  8
0
  2
OCTAGONP
 70
64
 10
0.0000
 20
0.0000
 30
0.0000
  3
OCTAGONP
  0
POLYLINE
  8
0
 66
1
 10
0.0000
 20
0.0000
 30
0.0000
 40
0.5000
 41
0.5000
 70
0
  0
VERTEX
  8
0
 10
-0.2500
 20
-0.1036
 30
0.0000
  0
VERTEX
  8
0
 10
-0.2500
 20
0.1036
 30
0.0000
  0
VERTEX
  8
0
 10
-0.1036
 20
0.2500
 30
0.0000
  0
VERTEX
  8
0
 10
0.1036
 20
0.2500
 30
0.0000
  0
VERTEX
  8
0
 10
0.2500
 20
0.1036
 30
0.0000
  0
VERTEX
  8
0
 10
0.2500
 20
-0.1036
 30
0.0000
  0
VERTEX
  8
0
 10
0.1036
 20
-0.2500
 30
0.0000
  0
VERTEX
  8
0
 10
-0.1036
 20
-0.2500
 30
0.0000
  0
VERTEX
  8
0
 10
-0.2500
 20
-0.1036
 30
0.0000
  0
VERTEX
  8
0
 10
-0.2500
 20
0.1036
 30
0.0000
  0
SEQEND
  8
0
  0
ENDBLK
  8
0
  0
BLOCK
  8
0
  2
SQUAREP
 70
64
 10
0.0000
 20
0.0000
 30
0.0000
  3
SQUAREP
  0
SOLID
  8
0
 10
-0.5000
 20
-0.5000
 30
0.0000
 11
0.5000
 21
-0.5000
 31
0.0000
 12
-0.5000
 22
0.5000
 32
0.0000
 13
0.5000
 23
0.5000
 33
0.0000
  0
ENDBLK
  8
0
  0
BLOCK
  8
0
  2
ROUNDP
 70
64
 10
0.0000
 20
0.0000
 30
0.0000
  3
ROUNDP
  0
POLYLINE
  8
0
 66
1
 10
0.0000
 20
0.0000
 30
0.0000
 40
0.5000
 41
0.5000
 70
0
  0
VERTEX
  8
0
 10
0.0000
 20
-0.2500
 30
0.0000
 42
1.0000
  0
VERTEX
  8
0
 10
0.0000
 20
0.2500
 30
0.0000
 42
1.0000
  0
VERTEX
  8
0
 10
0.0000
 20
-0.2500
 30
0.0000
  0
SEQEND
  8
0
  0
ENDBLK
  8
0
  0
BLOCK
  8
0
  2
ANNULUSP
 70
64
 10
0.0000
 20
0.0000
 30
0.0000
  3
ANNULUSP
  0
POLYLINE
  8
0
 66
1
 10
0.0000
 20
0.0000
 30
0.0000
 40
0.5000
 41
0.5000
 70
0
  0
VERTEX
  8
0
 10
0.0000
 20
-0.2500
 30
0.0000
 42
1.0000
  0
VERTEX
  8
0
 10
0.0000
 20
0.2500
 30
0.0000
 42
1.0000
  0
VERTEX
  8
0
 10
0.0000
 20
-0.2500
 30
0.0000
  0
SEQEND
  8
0
  0
ENDBLK
  8
0
  0
BLOCK
  8
0
  2
THERMALP
 70
64
 10
0.0000
 20
0.0000
 30
0.0000
  3
THERMALP
  0
POLYLINE
  8
0
 66
1
 10
0.0000
 20
0.0000
 30
0.0000
 40
0.1000
 41
0.1000
 70
0
  0
VERTEX
  8
0
 10
-0.2379
 20
0.4500
 30
0.0000
  0
VERTEX
  8
0
 10
0.2379
 20
0.4500
 30
0.0000
  0
SEQEND
  8
0
  0
POLYLINE
  8
0
 66
1
 10
0.0000
 20
0.0000
 30
0.0000
 40
0.0500
 41
0.0500
 70
0
  0
VERTEX
  8
0
 10
0.2379
 20
0.4250
 30
0.0000
 42
1.0000
  0
VERTEX
  8
0
 10
0.2379
 20
0.4750
 30
0.0000
  0
SEQEND
  8
0
  0
POLYLINE
  8
0
 66
1
 10
0.0000
 20
0.0000
 30
0.0000
 40
0.0500
 41
0.0500
 70
0
  0
VERTEX
  8
0
 10
-0.2379
 20
0.4750
 30
0.0000
 42
1.0000
  0
VERTEX
  8
0
 10
-0.2379
 20
0.4250
 30
0.0000
  0
SEQEND
  8
0
  0
POLYLINE
  8
0
 66
1
 10
0.0000
 20
0.0000
 30
0.0000
 40
0.1000
 41
0.1000
 70
0
  0
VERTEX
  8
0
 10
0.4500
 20
0.2379
 30
0.0000
  0
VERTEX
  8
0
 10
0.4500
 20
-0.2379
 30
0.0000
  0
SEQEND
  8
0
  0
POLYLINE
  8
0
 66
1
 10
0.0000
 20
0.0000
 30
0.0000
 40
0.0500
 41
0.0500
 70
0
  0
VERTEX
  8
0
 10
0.4250
 20
-0.2379
 30
0.0000
 42
1.0000
  0
VERTEX
  8
0
 10
0.4750
 20
-0.2379
 30
0.0000
  0
SEQEND
  8
0
  0
POLYLINE
  8
0
 66
1
 10
0.0000
 20
0.0000
 30
0.0000
 40
0.0500
 41
0.0500
 70
0
  0
VERTEX
  8
0
 10
0.4750
 20
0.2379
 30
0.0000
 42
1.0000
  0
VERTEX
  8
0
 10
0.4250
 20
0.2379
 30
0.0000
  0
SEQEND
  8
0
  0
POLYLINE
  8
0
 66
1
 10
0.0000
 20
0.0000
 30
0.0000
 40
0.1000
 41
0.1000
 70
0
  0
VERTEX
  8
0
 10
0.2379
 20
-0.4500
 30
0.0000
  0
VERTEX
  8
0
 10
-0.2379
 20
-0.4500
 30
0.0000
  0
SEQEND
  8
0
  0
POLYLINE
  8
0
 66
1
 10
0.0000
 20
0.0000
 30
0.0000
 40
0.0500
 41
0.0500
 70
0
  0
VERTEX
  8
0
 10
-0.2379
 20
-0.4250
 30
0.0000
 42
1.0000
  0
VERTEX
  8
0
 10
-0.2379
 20
-0.4750
 30
0.0000
  0
SEQEND
  8
0
  0
POLYLINE
  8
0
 66
1
 10
0.0000
 20
0.0000
 30
0.0000
 40
0.0500
 41
0.0500
 70
0
  0
VERTEX
  8
0
 10
0.2379
 20
-0.4750
 30
0.0000
 42
1.0000
  0
VERTEX
  8
0
 10
0.2379
 20
-0.4250
 30
0.0000
  0
SEQEND
  8
0
  0
POLYLINE
  8
0
 66
1
 10
0.0000
 20
0.0000
 30
0.0000
 40
0.1000
 41
0.1000
 70
0
  0
VERTEX
  8
0
 10
-0.4500
 20
-0.2379
 30
0.0000
  0
VERTEX
  8
0
 10
-0.4500
 20
0.2379
 30
0.0000
  0
SEQEND
  8
0
  0
POLYLINE
  8
0
 66
1
 10
0.0000
 20
0.0000
 30
0.0000
 40
0.0500
 41
0.0500
 70
0
  0
VERTEX
  8
0
 10
-0.4250
 20
0.2379
 30
0.0000
 42
1.0000
  0
VERTEX
  8
0
 10
-0.4750
 20
0.2379
 30
0.0000
  0
SEQEND
  8
0
  0
POLYLINE
  8
0
 66
1
 10
0.0000
 20
0.0000
 30
0.0000
 40
0.0500
 41
0.0500
 70
0
  0
VERTEX
  8
0
 10
-0.4750
 20
-0.2379
 30
0.0000
 42
1.0000
  0
VERTEX
  8
0
 10
-0.4250
 20
-0.2379
 30
0.0000
  0
SEQEND
  8
0
  0
ENDBLK
  8
0
  0
BLOCK
  8
0
  2
OCTAGONV
 70
64
 10
0.0000
 20
0.0000
 30
0.0000
  3
OCTAGONV
  0
POLYLINE
  8
0
 66
1
 10
0.0000
 20
0.0000
 30
0.0000
 40
0.5000
 41
0.5000
 70
0
  0
VERTEX
  8
0
 10
-0.2500
 20
-0.1036
 30
0.0000
  0
VERTEX
  8
0
 10
-0.2500
 20
0.1036
 30
0.0000
  0
VERTEX
  8
0
 10
-0.1036
 20
0.2500
 30
0.0000
  0
VERTEX
  8
0
 10
0.1036
 20
0.2500
 30
0.0000
  0
VERTEX
  8
0
 10
0.2500
 20
0.1036
 30
0.0000
  0
VERTEX
  8
0
 10
0.2500
 20
-0.1036
 30
0.0000
  0
VERTEX
  8
0
 10
0.1036
 20
-0.2500
 30
0.0000
  0
VERTEX
  8
0
 10
-0.1036
 20
-0.2500
 30
0.0000
  0
VERTEX
  8
0
 10
-0.2500
 20
-0.1036
 30
0.0000
  0
VERTEX
  8
0
 10
-0.2500
 20
0.1036
 30
0.0000
  0
SEQEND
  8
0
  0
ENDBLK
  8
0
  0
BLOCK
  8
0
  2
SQUAREV
 70
64
 10
0.0000
 20
0.0000
 30
0.0000
  3
SQUAREV
  0
SOLID
  8
0
 10
-0.5000
 20
-0.5000
 30
0.0000
 11
0.5000
 21
-0.5000
 31
0.0000
 12
-0.5000
 22
0.5000
 32
0.0000
 13
0.5000
 23
0.5000
 33
0.0000
  0
ENDBLK
  8
0
  0
BLOCK
  8
0
  2
ROUNDV
 70
64
 10
0.0000
 20
0.0000
 30
0.0000
  3
ROUNDV
  0
POLYLINE
  8
0
 66
1
 10
0.0000
 20
0.0000
 30
0.0000
 40
0.5000
 41
0.5000
 70
0
  0
VERTEX
  8
0
 10
0.0000
 20
-0.2500
 30
0.0000
 42
1.0000
  0
VERTEX
  8
0
 10
0.0000
 20
0.2500
 30
0.0000
 42
1.0000
  0
VERTEX
  8
0
 10
0.0000
 20
-0.2500
 30
0.0000
  0
SEQEND
  8
0
  0
ENDBLK
  8
0
  0
BLOCK
  8
0
  2
ANNULUSV
 70
64
 10
0.0000
 20
0.0000
 30
0.0000
  3
ANNULUSV
  0
POLYLINE
  8
0
 66
1
 10
0.0000
 20
0.0000
 30
0.0000
 40
0.5000
 41
0.5000
 70
0
  0
VERTEX
  8
0
 10
0.0000
 20
-0.2500
 30
0.0000
 42
1.0000
  0
VERTEX
  8
0
 10
0.0000
 20
0.2500
 30
0.0000
 42
1.0000
  0
VERTEX
  8
0
 10
0.0000
 20
-0.2500
 30
0.0000
  0
SEQEND
  8
0
  0
ENDBLK
  8
0
  0
BLOCK
  8
0
  2
THERMALV
 70
64
 10
0.0000
 20
0.0000
 30
0.0000
  3
THERMALV
  0
POLYLINE
  8
0
 66
1
 10
0.0000
 20
0.0000
 30
0.0000
 40
0.1000
 41
0.1000
 70
0
  0
VERTEX
  8
0
 10
-0.2379
 20
0.4500
 30
0.0000
  0
VERTEX
  8
0
 10
0.2379
 20
0.4500
 30
0.0000
  0
SEQEND
  8
0
  0
POLYLINE
  8
0
 66
1
 10
0.0000
 20
0.0000
 30
0.0000
 40
0.0500
 41
0.0500
 70
0
  0
VERTEX
  8
0
 10
0.2379
 20
0.4250
 30
0.0000
 42
1.0000
  0
VERTEX
  8
0
 10
0.2379
 20
0.4750
 30
0.0000
  0
SEQEND
  8
0
  0
POLYLINE
  8
0
 66
1
 10
0.0000
 20
0.0000
 30
0.0000
 40
0.0500
 41
0.0500
 70
0
  0
VERTEX
  8
0
 10
-0.2379
 20
0.4750
 30
0.0000
 42
1.0000
  0
VERTEX
  8
0
 10
-0.2379
 20
0.4250
 30
0.0000
  0
SEQEND
  8
0
  0
POLYLINE
  8
0
 66
1
 10
0.0000
 20
0.0000
 30
0.0000
 40
0.1000
 41
0.1000
 70
0
  0
VERTEX
  8
0
 10
0.4500
 20
0.2379
 30
0.0000
  0
VERTEX
  8
0
 10
0.4500
 20
-0.2379
 30
0.0000
  0
SEQEND
  8
0
  0
POLYLINE
  8
0
 66
1
 10
0.0000
 20
0.0000
 30
0.0000
 40
0.0500
 41
0.0500
 70
0
  0
VERTEX
  8
0
 10
0.4250
 20
-0.2379
 30
0.0000
 42
1.0000
  0
VERTEX
  8
0
 10
0.4750
 20
-0.2379
 30
0.0000
  0
SEQEND
  8
0
  0
POLYLINE
  8
0
 66
1
 10
0.0000
 20
0.0000
 30
0.0000
 40
0.0500
 41
0.0500
 70
0
  0
VERTEX
  8
0
 10
0.4750
 20
0.2379
 30
0.0000
 42
1.0000
  0
VERTEX
  8
0
 10
0.4250
 20
0.2379
 30
0.0000
  0
SEQEND
  8
0
  0
POLYLINE
  8
0
 66
1
 10
0.0000
 20
0.0000
 30
0.0000
 40
0.1000
 41
0.1000
 70
0
  0
VERTEX
  8
0
 10
0.2379
 20
-0.4500
 30
0.0000
  0
VERTEX
  8
0
 10
-0.2379
 20
-0.4500
 30
0.0000
  0
SEQEND
  8
0
  0
POLYLINE
  8
0
 66
1
 10
0.0000
 20
0.0000
 30
0.0000
 40
0.0500
 41
0.0500
 70
0
  0
VERTEX
  8
0
 10
-0.2379
 20
-0.4250
 30
0.0000
 42
1.0000
  0
VERTEX
  8
0
 10
-0.2379
 20
-0.4750
 30
0.0000
  0
SEQEND
  8
0
  0
POLYLINE
  8
0
 66
1
 10
0.0000
 20
0.0000
 30
0.0000
 40
0.0500
 41
0.0500
 70
0
  0
VERTEX
  8
0
 10
0.2379
 20
-0.4750
 30
0.0000
 42
1.0000
  0
VERTEX
  8
0
 10
0.2379
 20
-0.4250
 30
0.0000
  0
SEQEND
  8
0
  0
POLYLINE
  8
0
 66
1
 10
0.0000
 20
0.0000
 30
0.0000
 40
0.1000
 41
0.1000
 70
0
  0
VERTEX
  8
0
 10
-0.4500
 20
-0.2379
 30
0.0000
  0
VERTEX
  8
0
 10
-0.4500
 20
0.2379
 30
0.0000
  0
SEQEND
  8
0
  0
POLYLINE
  8
0
 66
1
 10
0.0000
 20
0.0000
 30
0.0000
 40
0.0500
 41
0.0500
 70
0
  0
VERTEX
  8
0
 10
-0.4250
 20
0.2379
 30
0.0000
 42
1.0000
  0
VERTEX
  8
0
 10
-0.4750
 20
0.2379
 30
0.0000
  0
SEQEND
  8
0
  0
POLYLINE
  8
0
 66
1
 10
0.0000
 20
0.0000
 30
0.0000
 40
0.0500
 41
0.0500
 70
0
  0
VERTEX
  8
0
 10
-0.4750
 20
-0.2379
 30
0.0000
 42
1.0000
  0
VERTEX
  8
0
 10
-0.4250
 20
-0.2379
 30
0.0000
  0
SEQEND
  8
0
  0
ENDBLK
  8
0
  0
BLOCK
  8
0
  2
LONGP100
 70
64
 10
0.0000
 20
0.0000
 30
0.0000
  3
LONGP100
  0
POLYLINE
  8
0
 66
1
 10
0.0000
 20
0.0000
 30
0.0000
 40
1.0000
 41
1.0000
 70
0
  0
VERTEX
  8
0
 10
-0.5000
 20
0.0000
 30
0.0000
  0
VERTEX
  8
0
 10
0.5000
 20
0.0000
 30
0.0000
  0
SEQEND
  8
0
  0
POLYLINE
  8
0
 66
1
 10
0.0000
 20
0.0000
 30
0.0000
 40
0.5000
 41
0.5000
 70
0
  0
VERTEX
  8
0
 10
0.5000
 20
-0.2500
 30
0.0000
 42
1.0000
  0
VERTEX
  8
0
 10
0.5000
 20
0.2500
 30
0.0000
  0
SEQEND
  8
0
  0
POLYLINE
  8
0
 66
1
 10
0.0000
 20
0.0000
 30
0.0000
 40
0.5000
 41
0.5000
 70
0
  0
VERTEX
  8
0
 10
-0.5000
 20
0.2500
 30
0.0000
 42
1.0000
  0
VERTEX
  8
0
 10
-0.5000
 20
-0.2500
 30
0.0000
  0
SEQEND
  8
0
  0
ENDBLK
  8
0
  0
ENDSEC
  0
SECTION
  2
ENTITIES
  0
POLYLINE
  8
20
 66
1
 10
0.0000
 20
0.0000
 30
0.0000
 40
0.0250
 41
0.0250
 70
0
  0
VERTEX
  8
20
 10
189.9886
 20
281.9400
 30
0.0000
  0
VERTEX
  8
20
 10
151.6380
 20
281.9400
 30
0.0000
  0
SEQEND
  8
0
  0
POLYLINE
  8
20
 66
1
 10
0.0000
 20
0.0000
 30
0.0000
 40
0.0125
 41
0.0125
 70
0
  0
VERTEX
  8
20
 10
151.6380
 20
281.9463
 30
0.0000
 42
1.0000
  0
VERTEX
  8
20
 10
151.6380
 20
281.9337
 30
0.0000
  0
SEQEND
  8
0
  0
POLYLINE
  8
20
 66
1
 10
0.0000
 20
0.0000
 30
0.0000
 40
0.0125
 41
0.0125
 70
0
  0
VERTEX
  8
20
 10
189.9886
 20
281.9337
 30
0.0000
 42
1.0000
  0
VERTEX
  8
20
 10
189.9886
 20
281.9463
 30
0.0000
  0
SEQEND
  8
0
  0
POLYLINE
  8
20
 66
1
 10
0.0000
 20
0.0000
 30
0.0000
 40
0.0250
 41
0.0250
 70
0
  0
VERTEX
  8
20
 10
151.6380
 20
281.9400
 30
0.0000
  0
VERTEX
  8
20
 10
151.6227
 20
281.9400
 30
0.0000
  0
SEQEND
  8
0
  0
POLYLINE
  8
20
 66
1
 10
0.0000
 20
0.0000
 30
0.0000
 40
0.0125
 41
0.0125
 70
0
  0
VERTEX
  8
20
 10
151.6227
 20
281.9463
 30
0.0000
 42
1.0000
  0
VERTEX
  8
20
 10
151.6227
 20
281.9337
 30
0.0000
  0
SEQEND
  8
0
  0
POLYLINE
  8
20
 66
1
 10
0.0000
 20
0.0000
 30
0.0000
 40
0.0125
 41
0.0125
 70
0
  0
VERTEX
  8
20
 10
151.6380
 20
281.9337
 30
0.0000
 42
1.0000
  0
VERTEX
  8
20
 10
151.6380
 20
281.9463
 30
0.0000
  0
SEQEND
  8
0
  0
POLYLINE
  8
20
 66
1
 10
0.0000
 20
0.0000
 30
0.0000
 40
0.0250
 41
0.0250
 70
0
  0
VERTEX
  8
20
 10
151.6227
 20
284.7340
 30
0.0000
  0
VERTEX
  8
20
 10
151.6227
 20
281.9400
 30
0.0000
  0
SEQEND
  8
0
  0
POLYLINE
  8
20
 66
1
 10
0.0000
 20
0.0000
 30
0.0000
 40
0.0125
 41
0.0125
 70
0
  0
VERTEX
  8
20
 10
151.6164
 20
281.9400
 30
0.0000
 42
1.0000
  0
VERTEX
  8
20
 10
151.6289
 20
281.9400
 30
0.0000
  0
SEQEND
  8
0
  0
POLYLINE
  8
20
 66
1
 10
0.0000
 20
0.0000
 30
0.0000
 40
0.0125
 41
0.0125
 70
0
  0
VERTEX
  8
20
 10
151.6289
 20
284.7340
 30
0.0000
 42
1.0000
  0
VERTEX
  8
20
 10
151.6164
 20
284.7340
 30
0.0000
  0
SEQEND
  8
0
  0
LINE
  8
20
 10
151.6227
 20
284.7340
 30
0.0000
 11
0.0000
 21
284.7340
 31
0.0000
  0
LINE
  8
20
 10
0.0000
 20
284.7340
 30
0.0000
 11
0.0000
 21
265.1760
 31
0.0000
  0
LINE
  8
20
 10
0.0000
 20
19.8120
 30
0.0000
 11
0.0000
 21
0.0000
 31
0.0000
  0
LINE
  8
20
 10
0.0000
 20
0.0000
 30
0.0000
 11
284.7340
 21
0.0000
 31
0.0000
  0
LINE
  8
20
 10
284.7340
 20
0.0000
 30
0.0000
 11
284.7340
 21
284.7340
 31
0.0000
  0
LINE
  8
20
 10
284.7340
 20
284.7340
 30
0.0000
 11
224.5360
 21
284.7340
 31
0.0000
  0
LINE
  8
20
 10
224.7270
 20
284.7340
 30
0.0000
 11
189.9886
 21
284.7907
 31
0.0000
  0
POLYLINE
  8
20
 66
1
 10
0.0000
 20
0.0000
 30
0.0000
 40
0.0250
 41
0.0250
 70
0
  0
VERTEX
  8
20
 10
189.9886
 20
284.7907
 30
0.0000
  0
VERTEX
  8
20
 10
189.9886
 20
281.9400
 30
0.0000
  0
SEQEND
  8
0
  0
POLYLINE
  8
20
 66
1
 10
0.0000
 20
0.0000
 30
0.0000
 40
0.0125
 41
0.0125
 70
0
  0
VERTEX
  8
20
 10
189.9823
 20
281.9400
 30
0.0000
 42
1.0000
  0
VERTEX
  8
20
 10
189.9948
 20
281.9400
 30
0.0000
  0
SEQEND
  8
0
  0
POLYLINE
  8
20
 66
1
 10
0.0000
 20
0.0000
 30
0.0000
 40
0.0125
 41
0.0125
 70
0
  0
VERTEX
  8
20
 10
189.9948
 20
284.7907
 30
0.0000
 42
1.0000
  0
VERTEX
  8
20
 10
189.9823
 20
284.7907
 30
0.0000
  0
SEQEND
  8
0
  0
POLYLINE
  8
20
 66
1
 10
0.0000
 20
0.0000
 30
0.0000
 40
0.0250
 41
0.0250
 70
0
  0
VERTEX
  8
20
 10
91.6631
 20
279.7107
 30
0.0000
  0
VERTEX
  8
20
 10
82.7731
 20
279.7107
 30
0.0000
  0
SEQEND
  8
0
  0
POLYLINE
  8
20
 66
1
 10
0.0000
 20
0.0000
 30
0.0000
 40
0.0125
 41
0.0125
 70
0
  0
VERTEX
  8
20
 10
82.7731
 20
279.7170
 30
0.0000
 42
1.0000
  0
VERTEX
  8
20
 10
82.7731
 20
279.7045
 30
0.0000
  0
SEQEND
  8
0
  0
POLYLINE
  8
20
 66
1
 10
0.0000
 20
0.0000
 30
0.0000
 40
0.0125
 41
0.0125
 70
0
  0
VERTEX
  8
20
 10
91.6631
 20
279.7045
 30
0.0000
 42
1.0000
  0
VERTEX
  8
20
 10
91.6631
 20
279.7170
 30
0.0000
  0
SEQEND
  8
0
  0
POLYLINE
  8
20
 66
1
 10
0.0000
 20
0.0000
 30
0.0000
 40
0.0250
 41
0.0250
 70
0
  0
VERTEX
  8
20
 10
91.6631
 20
273.3607
 30
0.0000
  0
VERTEX
  8
20
 10
91.6631
 20
279.7107
 30
0.0000
  0
SEQEND
  8
0
  0
POLYLINE
  8
20
 66
1
 10
0.0000
 20
0.0000
 30
0.0000
 40
0.0125
 41
0.0125
 70
0
  0
VERTEX
  8
20
 10
91.6694
 20
279.7107
 30
0.0000
 42
1.0000
  0
VERTEX
  8
20
 10
91.6569
 20
279.7107
 30
0.0000
  0
SEQEND
  8
0
  0
POLYLINE
  8
20
 66
1
 10
0.0000
 20
0.0000
 30
0.0000
 40
0.0125
 41
0.0125
 70
0
  0
VERTEX
  8
20
 10
91.6569
 20
273.3607
 30
0.0000
 42
1.0000
  0
VERTEX
  8
20
 10
91.6694
 20
273.3607
 30
0.0000
  0
SEQEND
  8
0
  0
POLYLINE
  8
20
 66
1
 10
0.0000
 20
0.0000
 30
0.0000
 40
0.0250
 41
0.0250
 70
0
  0
VERTEX
  8
20
 10
82.7731
 20
273.3607
 30
0.0000
  0
VERTEX
  8
20
 10
91.6631
 20
273.3607
 30
0.0000
  0
SEQEND
  8
0
  0
POLYLINE
  8
20
 66
1
 10
0.0000
 20
0.0000
 30
0.0000
 40
0.0125
 41
0.0125
 70
0
  0
VERTEX
  8
20
 10
91.6631
 20
273.3545
 30
0.0000
 42
1.0000
  0
VERTEX
  8
20
 10
91.6631
 20
273.3670
 30
0.0000
  0
SEQEND
  8
0
  0
POLYLINE
  8
20
 66
1
 10
0.0000
 20
0.0000
 30
0.0000
 40
0.0125
 41
0.0125
 70
0
  0
VERTEX
  8
20
 10
82.7731
 20
273.3670
 30
0.0000
 42
1.0000
  0
VERTEX
  8
20
 10
82.7731
 20
273.3545
 30
0.0000
  0
SEQEND
  8
0
  0
POLYLINE
  8
20
 66
1
 10
0.0000
 20
0.0000
 30
0.0000
 40
0.0250
 41
0.0250
 70
0
  0
VERTEX
  8
20
 10
82.7731
 20
279.7107
 30
0.0000
  0
VERTEX
  8
20
 10
82.7731
 20
273.3607
 30
0.0000
  0
SEQEND
  8
0
  0
POLYLINE
  8
20
 66
1
 10
0.0000
 20
0.0000
 30
0.0000
 40
0.0125
 41
0.0125
 70
0
  0
VERTEX
  8
20
 10
82.7669
 20
273.3607
 30
0.0000
 42
1.0000
  0
VERTEX
  8
20
 10
82.7794
 20
273.3607
 30
0.0000
  0
SEQEND
  8
0
  0
POLYLINE
  8
20
 66
1
 10
0.0000
 20
0.0000
 30
0.0000
 40
0.0125
 41
0.0125
 70
0
  0
VERTEX
  8
20
 10
82.7794
 20
279.7107
 30
0.0000
 42
1.0000
  0
VERTEX
  8
20
 10
82.7669
 20
279.7107
 30
0.0000
  0
SEQEND
  8
0
  0
POLYLINE
  8
20
 66
1
 10
0.0000
 20
0.0000
 30
0.0000
 40
0.0250
 41
0.0250
 70
0
  0
VERTEX
  8
20
 10
91.6631
 20
240.3407
 30
0.0000
  0
VERTEX
  8
20
 10
82.7731
 20
240.3407
 30
0.0000
  0
SEQEND
  8
0
  0
POLYLINE
  8
20
 66
1
 10
0.0000
 20
0.0000
 30
0.0000
 40
0.0125
 41
0.0125
 70
0
  0
VERTEX
  8
20
 10
82.7731
 20
240.3470
 30
0.0000
 42
1.0000
  0
VERTEX
  8
20
 10
82.7731
 20
240.3345
 30
0.0000
  0
SEQEND
  8
0
  0
POLYLINE
  8
20
 66
1
 10
0.0000
 20
0.0000
 30
0.0000
 40
0.0125
 41
0.0125
 70
0
  0
VERTEX
  8
20
 10
91.6631
 20
240.3345
 30
0.0000
 42
1.0000
  0
VERTEX
  8
20
 10
91.6631
 20
240.3470
 30
0.0000
  0
SEQEND
  8
0
  0
POLYLINE
  8
20
 66
1
 10
0.0000
 20
0.0000
 30
0.0000
 40
0.0250
 41
0.0250
 70
0
  0
VERTEX
  8
20
 10
91.6631
 20
233.9907
 30
0.0000
  0
VERTEX
  8
20
 10
91.6631
 20
240.3407
 30
0.0000
  0
SEQEND
  8
0
  0
POLYLINE
  8
20
 66
1
 10
0.0000
 20
0.0000
 30
0.0000
 40
0.0125
 41
0.0125
 70
0
  0
VERTEX
  8
20
 10
91.6694
 20
240.3407
 30
0.0000
 42
1.0000
  0
VERTEX
  8
20
 10
91.6569
 20
240.3407
 30
0.0000
  0
SEQEND
  8
0
  0
POLYLINE
  8
20
 66
1
 10
0.0000
 20
0.0000
 30
0.0000
 40
0.0125
 41
0.0125
 70
0
  0
VERTEX
  8
20
 10
91.6569
 20
233.9907
 30
0.0000
 42
1.0000
  0
VERTEX
  8
20
 10
91.6694
 20
233.9907
 30
0.0000
  0
SEQEND
  8
0
  0
POLYLINE
  8
20
 66
1
 10
0.0000
 20
0.0000
 30
0.0000
 40
0.0250
 41
0.0250
 70
0
  0
VERTEX
  8
20
 10
82.7731
 20
233.9907
 30
0.0000
  0
VERTEX
  8
20
 10
91.6631
 20
233.9907
 30
0.0000
  0
SEQEND
  8
0
  0
POLYLINE
  8
20
 66
1
 10
0.0000
 20
0.0000
 30
0.0000
 40
0.0125
 41
0.0125
 70
0
  0
VERTEX
  8
20
 10
91.6631
 20
233.9845
 30
0.0000
 42
1.0000
  0
VERTEX
  8
20
 10
91.6631
 20
233.9970
 30
0.0000
  0
SEQEND
  8
0
  0
POLYLINE
  8
20
 66
1
 10
0.0000
 20
0.0000
 30
0.0000
 40
0.0125
 41
0.0125
 70
0
  0
VERTEX
  8
20
 10
82.7731
 20
233.9970
 30
0.0000
 42
1.0000
  0
VERTEX
  8
20
 10
82.7731
 20
233.9845
 30
0.0000
  0
SEQEND
  8
0
  0
POLYLINE
  8
20
 66
1
 10
0.0000
 20
0.0000
 30
0.0000
 40
0.0250
 41
0.0250
 70
0
  0
VERTEX
  8
20
 10
82.7731
 20
240.3407
 30
0.0000
  0
VERTEX
  8
20
 10
82.7731
 20
233.9907
 30
0.0000
  0
SEQEND
  8
0
  0
POLYLINE
  8
20
 66
1
 10
0.0000
 20
0.0000
 30
0.0000
 40
0.0125
 41
0.0125
 70
0
  0
VERTEX
  8
20
 10
82.7669
 20
233.9907
 30
0.0000
 42
1.0000
  0
VERTEX
  8
20
 10
82.7794
 20
233.9907
 30
0.0000
  0
SEQEND
  8
0
  0
POLYLINE
  8
20
 66
1
 10
0.0000
 20
0.0000
 30
0.0000
 40
0.0125
 41
0.0125
 70
0
  0
VERTEX
  8
20
 10
82.7794
 20
240.3407
 30
0.0000
 42
1.0000
  0
VERTEX
  8
20
 10
82.7669
 20
240.3407
 30
0.0000
  0
SEQEND
  8
0
  0
POLYLINE
  8
20
 66
1
 10
0.0000
 20
0.0000
 30
0.0000
 40
0.0250
 41
0.0250
 70
0
  0
VERTEX
  8
20
 10
202.1531
 20
240.3407
 30
0.0000
  0
VERTEX
  8
20
 10
193.2631
 20
240.3407
 30
0.0000
  0
SEQEND
  8
0
  0
POLYLINE
  8
20
 66
1
 10
0.0000
 20
0.0000
 30
0.0000
 40
0.0125
 41
0.0125
 70
0
  0
VERTEX
  8
20
 10
193.2631
 20
240.3470
 30
0.0000
 42
1.0000
  0
VERTEX
  8
20
 10
193.2631
 20
240.3345
 30
0.0000
  0
SEQEND
  8
0
  0
POLYLINE
  8
20
 66
1
 10
0.0000
 20
0.0000
 30
0.0000
 40
0.0125
 41
0.0125
 70
0
  0
VERTEX
  8
20
 10
202.1531
 20
240.3345
 30
0.0000
 42
1.0000
  0
VERTEX
  8
20
 10
202.1531
 20
240.3470
 30
0.0000
  0
SEQEND
  8
0
  0
POLYLINE
  8
20
 66
1
 10
0.0000
 20
0.0000
 30
0.0000
 40
0.0250
 41
0.0250
 70
0
  0
VERTEX
  8
20
 10
202.1531
 20
233.9907
 30
0.0000
  0
VERTEX
  8
20
 10
202.1531
 20
240.3407
 30
0.0000
  0
SEQEND
  8
0
  0
POLYLINE
  8
20
 66
1
 10
0.0000
 20
0.0000
 30
0.0000
 40
0.0125
 41
0.0125
 70
0
  0
VERTEX
  8
20
 10
202.1594
 20
240.3407
 30
0.0000
 42
1.0000
  0
VERTEX
  8
20
 10
202.1469
 20
240.3407
 30
0.0000
  0
SEQEND
  8
0
  0
POLYLINE
  8
20
 66
1
 10
0.0000
 20
0.0000
 30
0.0000
 40
0.0125
 41
0.0125
 70
0
  0
VERTEX
  8
20
 10
202.1469
 20
233.9907
 30
0.0000
 42
1.0000
  0
VERTEX
  8
20
 10
202.1594
 20
233.9907
 30
0.0000
  0
SEQEND
  8
0
  0
POLYLINE
  8
20
 66
1
 10
0.0000
 20
0.0000
 30
0.0000
 40
0.0250
 41
0.0250
 70
0
  0
VERTEX
  8
20
 10
193.2631
 20
233.9907
 30
0.0000
  0
VERTEX
  8
20
 10
202.1531
 20
233.9907
 30
0.0000
  0
SEQEND
  8
0
  0
POLYLINE
  8
20
 66
1
 10
0.0000
 20
0.0000
 30
0.0000
 40
0.0125
 41
0.0125
 70
0
  0
VERTEX
  8
20
 10
202.1531
 20
233.9845
 30
0.0000
 42
1.0000
  0
VERTEX
  8
20
 10
202.1531
 20
233.9970
 30
0.0000
  0
SEQEND
  8
0
  0
POLYLINE
  8
20
 66
1
 10
0.0000
 20
0.0000
 30
0.0000
 40
0.0125
 41
0.0125
 70
0
  0
VERTEX
  8
20
 10
193.2631
 20
233.9970
 30
0.0000
 42
1.0000
  0
VERTEX
  8
20
 10
193.2631
 20
233.9845
 30
0.0000
  0
SEQEND
  8
0
  0
POLYLINE
  8
20
 66
1
 10
0.0000
 20
0.0000
 30
0.0000
 40
0.0250
 41
0.0250
 70
0
  0
VERTEX
  8
20
 10
193.2631
 20
240.3407
 30
0.0000
  0
VERTEX
  8
20
 10
193.2631
 20
233.9907
 30
0.0000
  0
SEQEND
  8
0
  0
POLYLINE
  8
20
 66
1
 10
0.0000
 20
0.0000
 30
0.0000
 40
0.0125
 41
0.0125
 70
0
  0
VERTEX
  8
20
 10
193.2569
 20
233.9907
 30
0.0000
 42
1.0000
  0
VERTEX
  8
20
 10
193.2694
 20
233.9907
 30
0.0000
  0
SEQEND
  8
0
  0
POLYLINE
  8
20
 66
1
 10
0.0000
 20
0.0000
 30
0.0000
 40
0.0125
 41
0.0125
 70
0
  0
VERTEX
  8
20
 10
193.2694
 20
240.3407
 30
0.0000
 42
1.0000
  0
VERTEX
  8
20
 10
193.2569
 20
240.3407
 30
0.0000
  0
SEQEND
  8
0
  0
POLYLINE
  8
20
 66
1
 10
0.0000
 20
0.0000
 30
0.0000
 40
0.0250
 41
0.0250
 70
0
  0
VERTEX
  8
20
 10
193.2631
 20
273.3607
 30
0.0000
  0
VERTEX
  8
20
 10
202.1531
 20
273.3607
 30
0.0000
  0
SEQEND
  8
0
  0
POLYLINE
  8
20
 66
1
 10
0.0000
 20
0.0000
 30
0.0000
 40
0.0125
 41
0.0125
 70
0
  0
VERTEX
  8
20
 10
202.1531
 20
273.3545
 30
0.0000
 42
1.0000
  0
VERTEX
  8
20
 10
202.1531
 20
273.3670
 30
0.0000
  0
SEQEND
  8
0
  0
POLYLINE
  8
20
 66
1
 10
0.0000
 20
0.0000
 30
0.0000
 40
0.0125
 41
0.0125
 70
0
  0
VERTEX
  8
20
 10
193.2631
 20
273.3670
 30
0.0000
 42
1.0000
  0
VERTEX
  8
20
 10
193.2631
 20
273.3545
 30
0.0000
  0
SEQEND
  8
0
  0
POLYLINE
  8
20
 66
1
 10
0.0000
 20
0.0000
 30
0.0000
 40
0.0250
 41
0.0250
 70
0
  0
VERTEX
  8
20
 10
193.2631
 20
279.7107
 30
0.0000
  0
VERTEX
  8
20
 10
193.2631
 20
273.3607
 30
0.0000
  0
SEQEND
  8
0
  0
POLYLINE
  8
20
 66
1
 10
0.0000
 20
0.0000
 30
0.0000
 40
0.0125
 41
0.0125
 70
0
  0
VERTEX
  8
20
 10
193.2569
 20
273.3607
 30
0.0000
 42
1.0000
  0
VERTEX
  8
20
 10
193.2694
 20
273.3607
 30
0.0000
  0
SEQEND
  8
0
  0
POLYLINE
  8
20
 66
1
 10
0.0000
 20
0.0000
 30
0.0000
 40
0.0125
 41
0.0125
 70
0
  0
VERTEX
  8
20
 10
193.2694
 20
279.7107
 30
0.0000
 42
1.0000
  0
VERTEX
  8
20
 10
193.2569
 20
279.7107
 30
0.0000
  0
SEQEND
  8
0
  0
POLYLINE
  8
20
 66
1
 10
0.0000
 20
0.0000
 30
0.0000
 40
0.0250
 41
0.0250
 70
0
  0
VERTEX
  8
20
 10
193.2631
 20
279.7107
 30
0.0000
  0
VERTEX
  8
20
 10
202.1531
 20
279.7107
 30
0.0000
  0
SEQEND
  8
0
  0
POLYLINE
  8
20
 66
1
 10
0.0000
 20
0.0000
 30
0.0000
 40
0.0125
 41
0.0125
 70
0
  0
VERTEX
  8
20
 10
202.1531
 20
279.7045
 30
0.0000
 42
1.0000
  0
VERTEX
  8
20
 10
202.1531
 20
279.7170
 30
0.0000
  0
SEQEND
  8
0
  0
POLYLINE
  8
20
 66
1
 10
0.0000
 20
0.0000
 30
0.0000
 40
0.0125
 41
0.0125
 70
0
  0
VERTEX
  8
20
 10
193.2631
 20
279.7170
 30
0.0000
 42
1.0000
  0
VERTEX
  8
20
 10
193.2631
 20
279.7045
 30
0.0000
  0
SEQEND
  8
0
  0
POLYLINE
  8
20
 66
1
 10
0.0000
 20
0.0000
 30
0.0000
 40
0.0250
 41
0.0250
 70
0
  0
VERTEX
  8
20
 10
202.1531
 20
279.7107
 30
0.0000
  0
VERTEX
  8
20
 10
202.1531
 20
273.3607
 30
0.0000
  0
SEQEND
  8
0
  0
POLYLINE
  8
20
 66
1
 10
0.0000
 20
0.0000
 30
0.0000
 40
0.0125
 41
0.0125
 70
0
  0
VERTEX
  8
20
 10
202.1469
 20
273.3607
 30
0.0000
 42
1.0000
  0
VERTEX
  8
20
 10
202.1594
 20
273.3607
 30
0.0000
  0
SEQEND
  8
0
  0
POLYLINE
  8
20
 66
1
 10
0.0000
 20
0.0000
 30
0.0000
 40
0.0125
 41
0.0125
 70
0
  0
VERTEX
  8
20
 10
202.1594
 20
279.7107
 30
0.0000
 42
1.0000
  0
VERTEX
  8
20
 10
202.1469
 20
279.7107
 30
0.0000
  0
SEQEND
  8
0
  0
POLYLINE
  8
20
 66
1
 10
0.0000
 20
0.0000
 30
0.0000
 40
0.0250
 41
0.0250
 70
0
  0
VERTEX
  8
20
 10
202.1531
 20
11.4306
 30
0.0000
  0
VERTEX
  8
20
 10
202.1531
 20
5.0807
 30
0.0000
  0
SEQEND
  8
0
  0
POLYLINE
  8
20
 66
1
 10
0.0000
 20
0.0000
 30
0.0000
 40
0.0125
 41
0.0125
 70
0
  0
VERTEX
  8
20
 10
202.1469
 20
5.0807
 30
0.0000
 42
1.0000
  0
VERTEX
  8
20
 10
202.1594
 20
5.0807
 30
0.0000
  0
SEQEND
  8
0
  0
POLYLINE
  8
20
 66
1
 10
0.0000
 20
0.0000
 30
0.0000
 40
0.0125
 41
0.0125
 70
0
  0
VERTEX
  8
20
 10
202.1594
 20
11.4306
 30
0.0000
 42
1.0000
  0
VERTEX
  8
20
 10
202.1469
 20
11.4306
 30
0.0000
  0
SEQEND
  8
0
  0
POLYLINE
  8
20
 66
1
 10
0.0000
 20
0.0000
 30
0.0000
 40
0.0250
 41
0.0250
 70
0
  0
VERTEX
  8
20
 10
202.1531
 20
5.0807
 30
0.0000
  0
VERTEX
  8
20
 10
193.2631
 20
5.0807
 30
0.0000
  0
SEQEND
  8
0
  0
POLYLINE
  8
20
 66
1
 10
0.0000
 20
0.0000
 30
0.0000
 40
0.0125
 41
0.0125
 70
0
  0
VERTEX
  8
20
 10
193.2631
 20
5.0869
 30
0.0000
 42
1.0000
  0
VERTEX
  8
20
 10
193.2631
 20
5.0744
 30
0.0000
  0
SEQEND
  8
0
  0
POLYLINE
  8
20
 66
1
 10
0.0000
 20
0.0000
 30
0.0000
 40
0.0125
 41
0.0125
 70
0
  0
VERTEX
  8
20
 10
202.1531
 20
5.0744
 30
0.0000
 42
1.0000
  0
VERTEX
  8
20
 10
202.1531
 20
5.0869
 30
0.0000
  0
SEQEND
  8
0
  0
POLYLINE
  8
20
 66
1
 10
0.0000
 20
0.0000
 30
0.0000
 40
0.0250
 41
0.0250
 70
0
  0
VERTEX
  8
20
 10
193.2631
 20
5.0807
 30
0.0000
  0
VERTEX
  8
20
 10
193.2631
 20
11.4306
 30
0.0000
  0
SEQEND
  8
0
  0
POLYLINE
  8
20
 66
1
 10
0.0000
 20
0.0000
 30
0.0000
 40
0.0125
 41
0.0125
 70
0
  0
VERTEX
  8
20
 10
193.2694
 20
11.4306
 30
0.0000
 42
1.0000
  0
VERTEX
  8
20
 10
193.2569
 20
11.4306
 30
0.0000
  0
SEQEND
  8
0
  0
POLYLINE
  8
20
 66
1
 10
0.0000
 20
0.0000
 30
0.0000
 40
0.0125
 41
0.0125
 70
0
  0
VERTEX
  8
20
 10
193.2569
 20
5.0807
 30
0.0000
 42
1.0000
  0
VERTEX
  8
20
 10
193.2694
 20
5.0807
 30
0.0000
  0
SEQEND
  8
0
  0
POLYLINE
  8
20
 66
1
 10
0.0000
 20
0.0000
 30
0.0000
 40
0.0250
 41
0.0250
 70
0
  0
VERTEX
  8
20
 10
193.2631
 20
11.4306
 30
0.0000
  0
VERTEX
  8
20
 10
202.1531
 20
11.4306
 30
0.0000
  0
SEQEND
  8
0
  0
POLYLINE
  8
20
 66
1
 10
0.0000
 20
0.0000
 30
0.0000
 40
0.0125
 41
0.0125
 70
0
  0
VERTEX
  8
20
 10
202.1531
 20
11.4244
 30
0.0000
 42
1.0000
  0
VERTEX
  8
20
 10
202.1531
 20
11.4369
 30
0.0000
  0
SEQEND
  8
0
  0
POLYLINE
  8
20
 66
1
 10
0.0000
 20
0.0000
 30
0.0000
 40
0.0125
 41
0.0125
 70
0
  0
VERTEX
  8
20
 10
193.2631
 20
11.4369
 30
0.0000
 42
1.0000
  0
VERTEX
  8
20
 10
193.2631
 20
11.4244
 30
0.0000
  0
SEQEND
  8
0
  0
POLYLINE
  8
20
 66
1
 10
0.0000
 20
0.0000
 30
0.0000
 40
0.0250
 41
0.0250
 70
0
  0
VERTEX
  8
20
 10
202.1531
 20
50.8007
 30
0.0000
  0
VERTEX
  8
20
 10
202.1531
 20
44.4507
 30
0.0000
  0
SEQEND
  8
0
  0
POLYLINE
  8
20
 66
1
 10
0.0000
 20
0.0000
 30
0.0000
 40
0.0125
 41
0.0125
 70
0
  0
VERTEX
  8
20
 10
202.1469
 20
44.4507
 30
0.0000
 42
1.0000
  0
VERTEX
  8
20
 10
202.1594
 20
44.4507
 30
0.0000
  0
SEQEND
  8
0
  0
POLYLINE
  8
20
 66
1
 10
0.0000
 20
0.0000
 30
0.0000
 40
0.0125
 41
0.0125
 70
0
  0
VERTEX
  8
20
 10
202.1594
 20
50.8007
 30
0.0000
 42
1.0000
  0
VERTEX
  8
20
 10
202.1469
 20
50.8007
 30
0.0000
  0
SEQEND
  8
0
  0
POLYLINE
  8
20
 66
1
 10
0.0000
 20
0.0000
 30
0.0000
 40
0.0250
 41
0.0250
 70
0
  0
VERTEX
  8
20
 10
202.1531
 20
44.4507
 30
0.0000
  0
VERTEX
  8
20
 10
193.2631
 20
44.4507
 30
0.0000
  0
SEQEND
  8
0
  0
POLYLINE
  8
20
 66
1
 10
0.0000
 20
0.0000
 30
0.0000
 40
0.0125
 41
0.0125
 70
0
  0
VERTEX
  8
20
 10
193.2631
 20
44.4569
 30
0.0000
 42
1.0000
  0
VERTEX
  8
20
 10
193.2631
 20
44.4444
 30
0.0000
  0
SEQEND
  8
0
  0
POLYLINE
  8
20
 66
1
 10
0.0000
 20
0.0000
 30
0.0000
 40
0.0125
 41
0.0125
 70
0
  0
VERTEX
  8
20
 10
202.1531
 20
44.4444
 30
0.0000
 42
1.0000
  0
VERTEX
  8
20
 10
202.1531
 20
44.4569
 30
0.0000
  0
SEQEND
  8
0
  0
POLYLINE
  8
20
 66
1
 10
0.0000
 20
0.0000
 30
0.0000
 40
0.0250
 41
0.0250
 70
0
  0
VERTEX
  8
20
 10
193.2631
 20
44.4507
 30
0.0000
  0
VERTEX
  8
20
 10
193.2631
 20
50.8007
 30
0.0000
  0
SEQEND
  8
0
  0
POLYLINE
  8
20
 66
1
 10
0.0000
 20
0.0000
 30
0.0000
 40
0.0125
 41
0.0125
 70
0
  0
VERTEX
  8
20
 10
193.2694
 20
50.8007
 30
0.0000
 42
1.0000
  0
VERTEX
  8
20
 10
193.2569
 20
50.8007
 30
0.0000
  0
SEQEND
  8
0
  0
POLYLINE
  8
20
 66
1
 10
0.0000
 20
0.0000
 30
0.0000
 40
0.0125
 41
0.0125
 70
0
  0
VERTEX
  8
20
 10
193.2569
 20
44.4507
 30
0.0000
 42
1.0000
  0
VERTEX
  8
20
 10
193.2694
 20
44.4507
 30
0.0000
  0
SEQEND
  8
0
  0
POLYLINE
  8
20
 66
1
 10
0.0000
 20
0.0000
 30
0.0000
 40
0.0250
 41
0.0250
 70
0
  0
VERTEX
  8
20
 10
193.2631
 20
50.8007
 30
0.0000
  0
VERTEX
  8
20
 10
202.1531
 20
50.8007
 30
0.0000
  0
SEQEND
  8
0
  0
POLYLINE
  8
20
 66
1
 10
0.0000
 20
0.0000
 30
0.0000
 40
0.0125
 41
0.0125
 70
0
  0
VERTEX
  8
20
 10
202.1531
 20
50.7944
 30
0.0000
 42
1.0000
  0
VERTEX
  8
20
 10
202.1531
 20
50.8069
 30
0.0000
  0
SEQEND
  8
0
  0
POLYLINE
  8
20
 66
1
 10
0.0000
 20
0.0000
 30
0.0000
 40
0.0125
 41
0.0125
 70
0
  0
VERTEX
  8
20
 10
193.2631
 20
50.8069
 30
0.0000
 42
1.0000
  0
VERTEX
  8
20
 10
193.2631
 20
50.7944
 30
0.0000
  0
SEQEND
  8
0
  0
POLYLINE
  8
20
 66
1
 10
0.0000
 20
0.0000
 30
0.0000
 40
0.0250
 41
0.0250
 70
0
  0
VERTEX
  8
20
 10
91.6631
 20
11.4306
 30
0.0000
  0
VERTEX
  8
20
 10
91.6631
 20
5.0807
 30
0.0000
  0
SEQEND
  8
0
  0
POLYLINE
  8
20
 66
1
 10
0.0000
 20
0.0000
 30
0.0000
 40
0.0125
 41
0.0125
 70
0
  0
VERTEX
  8
20
 10
91.6569
 20
5.0807
 30
0.0000
 42
1.0000
  0
VERTEX
  8
20
 10
91.6694
 20
5.0807
 30
0.0000
  0
SEQEND
  8
0
  0
POLYLINE
  8
20
 66
1
 10
0.0000
 20
0.0000
 30
0.0000
 40
0.0125
 41
0.0125
 70
0
  0
VERTEX
  8
20
 10
91.6694
 20
11.4306
 30
0.0000
 42
1.0000
  0
VERTEX
  8
20
 10
91.6569
 20
11.4306
 30
0.0000
  0
SEQEND
  8
0
  0
POLYLINE
  8
20
 66
1
 10
0.0000
 20
0.0000
 30
0.0000
 40
0.0250
 41
0.0250
 70
0
  0
VERTEX
  8
20
 10
91.6631
 20
5.0807
 30
0.0000
  0
VERTEX
  8
20
 10
82.7731
 20
5.0807
 30
0.0000
  0
SEQEND
  8
0
  0
POLYLINE
  8
20
 66
1
 10
0.0000
 20
0.0000
 30
0.0000
 40
0.0125
 41
0.0125
 70
0
  0
VERTEX
  8
20
 10
82.7731
 20
5.0869
 30
0.0000
 42
1.0000
  0
VERTEX
  8
20
 10
82.7731
 20
5.0744
 30
0.0000
  0
SEQEND
  8
0
  0
POLYLINE
  8
20
 66
1
 10
0.0000
 20
0.0000
 30
0.0000
 40
0.0125
 41
0.0125
 70
0
  0
VERTEX
  8
20
 10
91.6631
 20
5.0744
 30
0.0000
 42
1.0000
  0
VERTEX
  8
20
 10
91.6631
 20
5.0869
 30
0.0000
  0
SEQEND
  8
0
  0
POLYLINE
  8
20
 66
1
 10
0.0000
 20
0.0000
 30
0.0000
 40
0.0250
 41
0.0250
 70
0
  0
VERTEX
  8
20
 10
82.7731
 20
5.0807
 30
0.0000
  0
VERTEX
  8
20
 10
82.7731
 20
11.4306
 30
0.0000
  0
SEQEND
  8
0
  0
POLYLINE
  8
20
 66
1
 10
0.0000
 20
0.0000
 30
0.0000
 40
0.0125
 41
0.0125
 70
0
  0
VERTEX
  8
20
 10
82.7794
 20
11.4306
 30
0.0000
 42
1.0000
  0
VERTEX
  8
20
 10
82.7669
 20
11.4306
 30
0.0000
  0
SEQEND
  8
0
  0
POLYLINE
  8
20
 66
1
 10
0.0000
 20
0.0000
 30
0.0000
 40
0.0125
 41
0.0125
 70
0
  0
VERTEX
  8
20
 10
82.7669
 20
5.0807
 30
0.0000
 42
1.0000
  0
VERTEX
  8
20
 10
82.7794
 20
5.0807
 30
0.0000
  0
SEQEND
  8
0
  0
POLYLINE
  8
20
 66
1
 10
0.0000
 20
0.0000
 30
0.0000
 40
0.0250
 41
0.0250
 70
0
  0
VERTEX
  8
20
 10
82.7731
 20
11.4306
 30
0.0000
  0
VERTEX
  8
20
 10
91.6631
 20
11.4306
 30
0.0000
  0
SEQEND
  8
0
  0
POLYLINE
  8
20
 66
1
 10
0.0000
 20
0.0000
 30
0.0000
 40
0.0125
 41
0.0125
 70
0
  0
VERTEX
  8
20
 10
91.6631
 20
11.4244
 30
0.0000
 42
1.0000
  0
VERTEX
  8
20
 10
91.6631
 20
11.4369
 30
0.0000
  0
SEQEND
  8
0
  0
POLYLINE
  8
20
 66
1
 10
0.0000
 20
0.0000
 30
0.0000
 40
0.0125
 41
0.0125
 70
0
  0
VERTEX
  8
20
 10
82.7731
 20
11.4369
 30
0.0000
 42
1.0000
  0
VERTEX
  8
20
 10
82.7731
 20
11.4244
 30
0.0000
  0
SEQEND
  8
0
  0
POLYLINE
  8
20
 66
1
 10
0.0000
 20
0.0000
 30
0.0000
 40
0.0250
 41
0.0250
 70
0
  0
VERTEX
  8
20
 10
91.6631
 20
50.8007
 30
0.0000
  0
VERTEX
  8
20
 10
91.6631
 20
44.4507
 30
0.0000
  0
SEQEND
  8
0
  0
POLYLINE
  8
20
 66
1
 10
0.0000
 20
0.0000
 30
0.0000
 40
0.0125
 41
0.0125
 70
0
  0
VERTEX
  8
20
 10
91.6569
 20
44.4507
 30
0.0000
 42
1.0000
  0
VERTEX
  8
20
 10
91.6694
 20
44.4507
 30
0.0000
  0
SEQEND
  8
0
  0
POLYLINE
  8
20
 66
1
 10
0.0000
 20
0.0000
 30
0.0000
 40
0.0125
 41
0.0125
 70
0
  0
VERTEX
  8
20
 10
91.6694
 20
50.8007
 30
0.0000
 42
1.0000
  0
VERTEX
  8
20
 10
91.6569
 20
50.8007
 30
0.0000
  0
SEQEND
  8
0
  0
POLYLINE
  8
20
 66
1
 10
0.0000
 20
0.0000
 30
0.0000
 40
0.0250
 41
0.0250
 70
0
  0
VERTEX
  8
20
 10
91.6631
 20
44.4507
 30
0.0000
  0
VERTEX
  8
20
 10
82.7731
 20
44.4507
 30
0.0000
  0
SEQEND
  8
0
  0
POLYLINE
  8
20
 66
1
 10
0.0000
 20
0.0000
 30
0.0000
 40
0.0125
 41
0.0125
 70
0
  0
VERTEX
  8
20
 10
82.7731
 20
44.4569
 30
0.0000
 42
1.0000
  0
VERTEX
  8
20
 10
82.7731
 20
44.4444
 30
0.0000
  0
SEQEND
  8
0
  0
POLYLINE
  8
20
 66
1
 10
0.0000
 20
0.0000
 30
0.0000
 40
0.0125
 41
0.0125
 70
0
  0
VERTEX
  8
20
 10
91.6631
 20
44.4444
 30
0.0000
 42
1.0000
  0
VERTEX
  8
20
 10
91.6631
 20
44.4569
 30
0.0000
  0
SEQEND
  8
0
  0
POLYLINE
  8
20
 66
1
 10
0.0000
 20
0.0000
 30
0.0000
 40
0.0250
 41
0.0250
 70
0
  0
VERTEX
  8
20
 10
82.7731
 20
44.4507
 30
0.0000
  0
VERTEX
  8
20
 10
82.7731
 20
50.8007
 30
0.0000
  0
SEQEND
  8
0
  0
POLYLINE
  8
20
 66
1
 10
0.0000
 20
0.0000
 30
0.0000
 40
0.0125
 41
0.0125
 70
0
  0
VERTEX
  8
20
 10
82.7794
 20
50.8007
 30
0.0000
 42
1.0000
  0
VERTEX
  8
20
 10
82.7669
 20
50.8007
 30
0.0000
  0
SEQEND
  8
0
  0
POLYLINE
  8
20
 66
1
 10
0.0000
 20
0.0000
 30
0.0000
 40
0.0125
 41
0.0125
 70
0
  0
VERTEX
  8
20
 10
82.7669
 20
44.4507
 30
0.0000
 42
1.0000
  0
VERTEX
  8
20
 10
82.7794
 20
44.4507
 30
0.0000
  0
SEQEND
  8
0
  0
POLYLINE
  8
20
 66
1
 10
0.0000
 20
0.0000
 30
0.0000
 40
0.0250
 41
0.0250
 70
0
  0
VERTEX
  8
20
 10
82.7731
 20
50.8007
 30
0.0000
  0
VERTEX
  8
20
 10
91.6631
 20
50.8007
 30
0.0000
  0
SEQEND
  8
0
  0
POLYLINE
  8
20
 66
1
 10
0.0000
 20
0.0000
 30
0.0000
 40
0.0125
 41
0.0125
 70
0
  0
VERTEX
  8
20
 10
91.6631
 20
50.7944
 30
0.0000
 42
1.0000
  0
VERTEX
  8
20
 10
91.6631
 20
50.8069
 30
0.0000
  0
SEQEND
  8
0
  0
POLYLINE
  8
20
 66
1
 10
0.0000
 20
0.0000
 30
0.0000
 40
0.0125
 41
0.0125
 70
0
  0
VERTEX
  8
20
 10
82.7731
 20
50.8069
 30
0.0000
 42
1.0000
  0
VERTEX
  8
20
 10
82.7731
 20
50.7944
 30
0.0000
  0
SEQEND
  8
0
  0
LINE
  8
20
 10
0.0000
 20
265.1760
 30
0.0000
 11
9.6520
 21
255.5240
 31
0.0000
  0
LINE
  8
20
 10
9.6520
 20
255.5240
 30
0.0000
 11
9.6520
 21
29.4640
 31
0.0000
  0
LINE
  8
20
 10
9.6520
 20
29.4640
 30
0.0000
 11
0.0000
 21
19.8120
 31
0.0000
  0
LINE
  8
20
 10
236.9820
 20
253.2380
 30
0.0000
 11
236.9820
 21
232.9180
 31
0.0000
  0
LINE
  8
20
 10
236.9820
 20
232.9180
 30
0.0000
 11
254.7620
 21
232.9180
 31
0.0000
  0
LINE
  8
20
 10
254.7620
 20
232.9180
 30
0.0000
 11
254.7620
 21
247.3960
 31
0.0000
  0
LINE
  8
20
 10
271.0180
 20
253.2380
 30
0.0000
 11
236.9820
 21
253.2380
 31
0.0000
  0
LINE
  8
20
 10
254.7620
 20
247.3960
 30
0.0000
 11
271.0180
 21
247.3960
 31
0.0000
  0
LINE
  8
20
 10
271.0180
 20
247.3960
 30
0.0000
 11
271.0180
 21
253.2380
 31
0.0000
  0
POLYLINE
  8
20
 66
1
 10
0.0000
 20
0.0000
 30
0.0000
 40
0.0250
 41
0.0250
 70
0
  0
VERTEX
  8
20
 10
275.2031
 20
5.3733
 30
0.0000
 42
1.0000
  0
VERTEX
  8
20
 10
275.2031
 20
11.7233
 30
0.0000
 42
1.0000
  0
VERTEX
  8
20
 10
275.2031
 20
5.3733
 30
0.0000
  0
SEQEND
  8
0
  0
POLYLINE
  8
20
 66
1
 10
0.0000
 20
0.0000
 30
0.0000
 40
0.0250
 41
0.0250
 70
0
  0
VERTEX
  8
20
 10
119.7478
 20
234.4968
 30
0.0000
 42
1.0000
  0
VERTEX
  8
20
 10
119.7478
 20
236.8956
 30
0.0000
 42
1.0000
  0
VERTEX
  8
20
 10
119.7478
 20
234.4968
 30
0.0000
  0
SEQEND
  8
0
  0
POLYLINE
  8
20
 66
1
 10
0.0000
 20
0.0000
 30
0.0000
 40
0.0250
 41
0.0250
 70
0
  0
VERTEX
  8
20
 10
95.7575
 20
258.4848
 30
0.0000
 42
1.0000
  0
VERTEX
  8
20
 10
95.7575
 20
260.8836
 30
0.0000
 42
1.0000
  0
VERTEX
  8
20
 10
95.7575
 20
258.4848
 30
0.0000
  0
SEQEND
  8
0
  0
POLYLINE
  8
20
 66
1
 10
0.0000
 20
0.0000
 30
0.0000
 40
0.0250
 41
0.0250
 70
0
  0
VERTEX
  8
20
 10
58.7479
 20
66.7316
 30
0.0000
 42
1.0000
  0
VERTEX
  8
20
 10
58.7479
 20
69.1304
 30
0.0000
 42
1.0000
  0
VERTEX
  8
20
 10
58.7479
 20
66.7316
 30
0.0000
  0
SEQEND
  8
0
  0
POLYLINE
  8
20
 66
1
 10
0.0000
 20
0.0000
 30
0.0000
 40
0.0250
 41
0.0250
 70
0
  0
VERTEX
  8
20
 10
34.7599
 20
42.7414
 30
0.0000
 42
1.0000
  0
VERTEX
  8
20
 10
34.7599
 20
45.1402
 30
0.0000
 42
1.0000
  0
VERTEX
  8
20
 10
34.7599
 20
42.7414
 30
0.0000
  0
SEQEND
  8
0
  0
POLYLINE
  8
20
 66
1
 10
0.0000
 20
0.0000
 30
0.0000
 40
0.0250
 41
0.0250
 70
0
  0
VERTEX
  8
20
 10
47.7520
 20
157.7340
 30
0.0000
 42
1.0000
  0
VERTEX
  8
20
 10
47.7520
 20
183.1340
 30
0.0000
 42
1.0000
  0
VERTEX
  8
20
 10
47.7520
 20
157.7340
 30
0.0000
  0
SEQEND
  8
0
  0
POLYLINE
  8
20
 66
1
 10
0.0000
 20
0.0000
 30
0.0000
 40
0.0250
 41
0.0250
 70
0
  0
VERTEX
  8
20
 10
47.7534
 20
43.4347
 30
0.0000
 42
1.0000
  0
VERTEX
  8
20
 10
47.7534
 20
68.8346
 30
0.0000
 42
1.0000
  0
VERTEX
  8
20
 10
47.7534
 20
43.4347
 30
0.0000
  0
SEQEND
  8
0
  0
POLYLINE
  8
20
 66
1
 10
0.0000
 20
0.0000
 30
0.0000
 40
0.0250
 41
0.0250
 70
0
  0
VERTEX
  8
20
 10
167.9901
 20
6.8586
 30
0.0000
 42
1.0000
  0
VERTEX
  8
20
 10
167.9901
 20
44.9586
 30
0.0000
 42
1.0000
  0
VERTEX
  8
20
 10
167.9901
 20
6.8586
 30
0.0000
  0
SEQEND
  8
0
  0
POLYLINE
  8
20
 66
1
 10
0.0000
 20
0.0000
 30
0.0000
 40
0.0250
 41
0.0250
 70
0
  0
VERTEX
  8
20
 10
107.9514
 20
233.9907
 30
0.0000
 42
1.0000
  0
VERTEX
  8
20
 10
107.9514
 20
259.3907
 30
0.0000
 42
1.0000
  0
VERTEX
  8
20
 10
107.9514
 20
233.9907
 30
0.0000
  0
SEQEND
  8
0
  0
CIRCLE
  8
20
 10
114.4270
 20
57.4802
 30
0.0000
 40
1.5875
  0
CIRCLE
  8
20
 10
170.3070
 20
57.4802
 30
0.0000
 40
1.5875
  0
CIRCLE
  8
20
 10
206.8576
 20
86.5124
 30
0.0000
 40
1.5875
  0
CIRCLE
  8
20
 10
206.8576
 20
142.3924
 30
0.0000
 40
1.5875
  0
CIRCLE
  8
20
 10
206.8576
 20
198.2724
 30
0.0000
 40
1.5875
  0
CIRCLE
  8
20
 10
170.3070
 20
227.2792
 30
0.0000
 40
1.5875
  0
CIRCLE
  8
20
 10
114.4270
 20
227.2792
 30
0.0000
 40
1.5875
  0
CIRCLE
  8
20
 10
77.8764
 20
198.2724
 30
0.0000
 40
1.5875
  0
CIRCLE
  8
20
 10
77.8764
 20
142.3924
 30
0.0000
 40
1.5875
  0
CIRCLE
  8
20
 10
77.8764
 20
86.5124
 30
0.0000
 40
1.5875
  0
CIRCLE
  8
20
 10
142.3670
 20
142.3670
 30
0.0000
 40
7.1120
  0
CIRCLE
  8
20
 10
244.4242
 20
33.1470
 30
0.0000
 40
2.5400
  0
CIRCLE
  8
20
 10
257.1166
 20
43.5204
 30
0.0000
 40
1.3970
  0
CIRCLE
  8
20
 10
165.9788
 20
281.4752
 30
0.0000
 40
1.6000
  0
CIRCLE
  8
20
 10
154.5488
 20
281.4752
 30
0.0000
 40
1.6000
  0
CIRCLE
  8
20
 10
187.0608
 20
281.4752
 30
0.0000
 40
1.6000
  0
CIRCLE
  8
20
 10
175.6308
 20
281.4752
 30
0.0000
 40
1.6000
  0
ENDSEC
  0
EOF
