G04 EAGLE Gerber X2 export*
%TF.Part,Single*%
%TF.FileFunction,Legend,Bot,1*%
%TF.FilePolarity,Positive*%
%TF.GenerationSoftware,Autodesk,EAGLE,9.1.1*%
%TF.CreationDate,2018-08-01T19:31:55Z*%
G75*
%MOMM*%
%FSLAX34Y34*%
%LPD*%
%AMOC8*
5,1,8,0,0,1.08239X$1,22.5*%
G01*
%ADD10C,0.304800*%
%ADD11C,0.152400*%
%ADD12C,0.050800*%
%ADD13C,0.127000*%
%ADD14C,0.177800*%
%ADD15C,0.300000*%
%ADD16C,0.101600*%


D10*
X737870Y533908D02*
X2109470Y533908D01*
X2109470Y2313940D01*
X737870Y2313940D01*
X737870Y533908D01*
D11*
X1583588Y2735377D02*
X1583588Y2767127D01*
X1570888Y2767127D02*
X1570888Y2760777D01*
X1558188Y2767127D02*
X1558188Y2735377D01*
X1647088Y2760777D02*
X1647088Y2767127D01*
X1634388Y2767127D02*
X1634388Y2735377D01*
X1621688Y2760777D02*
X1621688Y2767127D01*
X1608988Y2767127D02*
X1608988Y2735377D01*
X1596288Y2760777D02*
X1596288Y2767127D01*
D12*
X1624699Y2775301D02*
X1625885Y2774115D01*
X1625885Y2771742D01*
X1624699Y2770556D01*
X1619954Y2770556D01*
X1618767Y2771742D01*
X1618767Y2774115D01*
X1619954Y2775301D01*
X1622326Y2775301D01*
X1622326Y2772929D01*
X1618767Y2777572D02*
X1625885Y2777572D01*
X1618767Y2782318D01*
X1625885Y2782318D01*
X1625885Y2784589D02*
X1618767Y2784589D01*
X1618767Y2788148D01*
X1619954Y2789334D01*
X1624699Y2789334D01*
X1625885Y2788148D01*
X1625885Y2784589D01*
X1580667Y2775301D02*
X1580667Y2770556D01*
X1585413Y2775301D01*
X1586599Y2775301D01*
X1587785Y2774115D01*
X1587785Y2771742D01*
X1586599Y2770556D01*
X1587785Y2781131D02*
X1580667Y2781131D01*
X1584226Y2777572D02*
X1587785Y2781131D01*
X1584226Y2782318D02*
X1584226Y2777572D01*
X1583040Y2784589D02*
X1587785Y2784589D01*
X1583040Y2784589D02*
X1580667Y2786961D01*
X1583040Y2789334D01*
X1587785Y2789334D01*
X1650099Y2775301D02*
X1651285Y2774115D01*
X1651285Y2771742D01*
X1650099Y2770556D01*
X1648913Y2770556D01*
X1647726Y2771742D01*
X1647726Y2774115D01*
X1646540Y2775301D01*
X1645354Y2775301D01*
X1644167Y2774115D01*
X1644167Y2771742D01*
X1645354Y2770556D01*
X1644167Y2777572D02*
X1651285Y2777572D01*
X1644167Y2777572D02*
X1644167Y2781131D01*
X1645354Y2782318D01*
X1650099Y2782318D01*
X1651285Y2781131D01*
X1651285Y2777572D01*
X1648913Y2784589D02*
X1644167Y2784589D01*
X1648913Y2784589D02*
X1651285Y2786961D01*
X1648913Y2789334D01*
X1644167Y2789334D01*
X1647726Y2789334D02*
X1647726Y2784589D01*
X1644167Y2791605D02*
X1651285Y2791605D01*
X1651285Y2795164D01*
X1650099Y2796350D01*
X1647726Y2796350D01*
X1646540Y2795164D01*
X1646540Y2791605D01*
X1637399Y2775301D02*
X1638585Y2774115D01*
X1638585Y2771742D01*
X1637399Y2770556D01*
X1636213Y2770556D01*
X1635026Y2771742D01*
X1635026Y2774115D01*
X1633840Y2775301D01*
X1632654Y2775301D01*
X1631467Y2774115D01*
X1631467Y2771742D01*
X1632654Y2770556D01*
X1631467Y2777572D02*
X1638585Y2777572D01*
X1631467Y2777572D02*
X1631467Y2781131D01*
X1632654Y2782318D01*
X1637399Y2782318D01*
X1638585Y2781131D01*
X1638585Y2777572D01*
X1636213Y2784589D02*
X1631467Y2784589D01*
X1636213Y2784589D02*
X1638585Y2786961D01*
X1636213Y2789334D01*
X1631467Y2789334D01*
X1635026Y2789334D02*
X1635026Y2784589D01*
X1631467Y2791605D02*
X1638585Y2791605D01*
X1636213Y2793978D01*
X1638585Y2796350D01*
X1631467Y2796350D01*
X1611999Y2775301D02*
X1613185Y2774115D01*
X1613185Y2771742D01*
X1611999Y2770556D01*
X1610813Y2770556D01*
X1609626Y2771742D01*
X1609626Y2774115D01*
X1608440Y2775301D01*
X1607254Y2775301D01*
X1606067Y2774115D01*
X1606067Y2771742D01*
X1607254Y2770556D01*
X1613185Y2781131D02*
X1611999Y2782318D01*
X1613185Y2781131D02*
X1613185Y2778759D01*
X1611999Y2777572D01*
X1607254Y2777572D01*
X1606067Y2778759D01*
X1606067Y2781131D01*
X1607254Y2782318D01*
X1606067Y2784589D02*
X1613185Y2784589D01*
X1606067Y2784589D02*
X1606067Y2789334D01*
X1606067Y2791605D02*
X1613185Y2791605D01*
X1613185Y2795164D01*
X1611999Y2796350D01*
X1609626Y2796350D01*
X1608440Y2795164D01*
X1608440Y2791605D01*
X1599299Y2775301D02*
X1600485Y2774115D01*
X1600485Y2771742D01*
X1599299Y2770556D01*
X1598113Y2770556D01*
X1596926Y2771742D01*
X1596926Y2774115D01*
X1595740Y2775301D01*
X1594554Y2775301D01*
X1593367Y2774115D01*
X1593367Y2771742D01*
X1594554Y2770556D01*
X1600485Y2781131D02*
X1599299Y2782318D01*
X1600485Y2781131D02*
X1600485Y2778759D01*
X1599299Y2777572D01*
X1594554Y2777572D01*
X1593367Y2778759D01*
X1593367Y2781131D01*
X1594554Y2782318D01*
X1593367Y2784589D02*
X1600485Y2784589D01*
X1593367Y2784589D02*
X1593367Y2789334D01*
X1593367Y2791605D02*
X1600485Y2791605D01*
X1598113Y2793978D01*
X1600485Y2796350D01*
X1593367Y2796350D01*
X1575085Y2770556D02*
X1569154Y2770556D01*
X1567967Y2771742D01*
X1567967Y2774115D01*
X1569154Y2775301D01*
X1575085Y2775301D01*
X1575085Y2781131D02*
X1573899Y2782318D01*
X1575085Y2781131D02*
X1575085Y2778759D01*
X1573899Y2777572D01*
X1572713Y2777572D01*
X1571526Y2778759D01*
X1571526Y2781131D01*
X1570340Y2782318D01*
X1569154Y2782318D01*
X1567967Y2781131D01*
X1567967Y2778759D01*
X1569154Y2777572D01*
X1567967Y2784589D02*
X1575085Y2784589D01*
X1575085Y2788148D01*
X1573899Y2789334D01*
X1572713Y2789334D01*
X1571526Y2788148D01*
X1570340Y2789334D01*
X1569154Y2789334D01*
X1567967Y2788148D01*
X1567967Y2784589D01*
X1571526Y2784589D02*
X1571526Y2788148D01*
X1567967Y2791605D02*
X1575085Y2791605D01*
X1575085Y2795164D01*
X1573899Y2796350D01*
X1571526Y2796350D01*
X1570340Y2795164D01*
X1570340Y2791605D01*
X1562385Y2770556D02*
X1556454Y2770556D01*
X1555267Y2771742D01*
X1555267Y2774115D01*
X1556454Y2775301D01*
X1562385Y2775301D01*
X1562385Y2781131D02*
X1561199Y2782318D01*
X1562385Y2781131D02*
X1562385Y2778759D01*
X1561199Y2777572D01*
X1560013Y2777572D01*
X1558826Y2778759D01*
X1558826Y2781131D01*
X1557640Y2782318D01*
X1556454Y2782318D01*
X1555267Y2781131D01*
X1555267Y2778759D01*
X1556454Y2777572D01*
X1555267Y2784589D02*
X1562385Y2784589D01*
X1562385Y2788148D01*
X1561199Y2789334D01*
X1560013Y2789334D01*
X1558826Y2788148D01*
X1557640Y2789334D01*
X1556454Y2789334D01*
X1555267Y2788148D01*
X1555267Y2784589D01*
X1558826Y2784589D02*
X1558826Y2788148D01*
X1555267Y2791605D02*
X1562385Y2791605D01*
X1560013Y2793978D01*
X1562385Y2796350D01*
X1555267Y2796350D01*
D11*
X1794408Y2767127D02*
X1794408Y2735377D01*
X1781708Y2760777D02*
X1781708Y2767127D01*
X1769008Y2767127D02*
X1769008Y2735377D01*
X1857908Y2760777D02*
X1857908Y2767127D01*
X1845208Y2767127D02*
X1845208Y2735377D01*
X1832508Y2760777D02*
X1832508Y2767127D01*
X1819808Y2767127D02*
X1819808Y2735377D01*
X1807108Y2760777D02*
X1807108Y2767127D01*
D12*
X1835519Y2775301D02*
X1836705Y2774115D01*
X1836705Y2771742D01*
X1835519Y2770556D01*
X1830774Y2770556D01*
X1829587Y2771742D01*
X1829587Y2774115D01*
X1830774Y2775301D01*
X1833146Y2775301D01*
X1833146Y2772929D01*
X1829587Y2777572D02*
X1836705Y2777572D01*
X1829587Y2782318D01*
X1836705Y2782318D01*
X1836705Y2784589D02*
X1829587Y2784589D01*
X1829587Y2788148D01*
X1830774Y2789334D01*
X1835519Y2789334D01*
X1836705Y2788148D01*
X1836705Y2784589D01*
X1791487Y2775301D02*
X1791487Y2770556D01*
X1796233Y2775301D01*
X1797419Y2775301D01*
X1798605Y2774115D01*
X1798605Y2771742D01*
X1797419Y2770556D01*
X1798605Y2781131D02*
X1791487Y2781131D01*
X1795046Y2777572D02*
X1798605Y2781131D01*
X1795046Y2782318D02*
X1795046Y2777572D01*
X1793860Y2784589D02*
X1798605Y2784589D01*
X1793860Y2784589D02*
X1791487Y2786961D01*
X1793860Y2789334D01*
X1798605Y2789334D01*
X1860919Y2775301D02*
X1862105Y2774115D01*
X1862105Y2771742D01*
X1860919Y2770556D01*
X1859733Y2770556D01*
X1858546Y2771742D01*
X1858546Y2774115D01*
X1857360Y2775301D01*
X1856174Y2775301D01*
X1854987Y2774115D01*
X1854987Y2771742D01*
X1856174Y2770556D01*
X1854987Y2777572D02*
X1862105Y2777572D01*
X1854987Y2777572D02*
X1854987Y2781131D01*
X1856174Y2782318D01*
X1860919Y2782318D01*
X1862105Y2781131D01*
X1862105Y2777572D01*
X1859733Y2784589D02*
X1854987Y2784589D01*
X1859733Y2784589D02*
X1862105Y2786961D01*
X1859733Y2789334D01*
X1854987Y2789334D01*
X1858546Y2789334D02*
X1858546Y2784589D01*
X1854987Y2791605D02*
X1862105Y2791605D01*
X1862105Y2795164D01*
X1860919Y2796350D01*
X1858546Y2796350D01*
X1857360Y2795164D01*
X1857360Y2791605D01*
X1848219Y2775301D02*
X1849405Y2774115D01*
X1849405Y2771742D01*
X1848219Y2770556D01*
X1847033Y2770556D01*
X1845846Y2771742D01*
X1845846Y2774115D01*
X1844660Y2775301D01*
X1843474Y2775301D01*
X1842287Y2774115D01*
X1842287Y2771742D01*
X1843474Y2770556D01*
X1842287Y2777572D02*
X1849405Y2777572D01*
X1842287Y2777572D02*
X1842287Y2781131D01*
X1843474Y2782318D01*
X1848219Y2782318D01*
X1849405Y2781131D01*
X1849405Y2777572D01*
X1847033Y2784589D02*
X1842287Y2784589D01*
X1847033Y2784589D02*
X1849405Y2786961D01*
X1847033Y2789334D01*
X1842287Y2789334D01*
X1845846Y2789334D02*
X1845846Y2784589D01*
X1842287Y2791605D02*
X1849405Y2791605D01*
X1847033Y2793978D01*
X1849405Y2796350D01*
X1842287Y2796350D01*
X1822819Y2775301D02*
X1824005Y2774115D01*
X1824005Y2771742D01*
X1822819Y2770556D01*
X1821633Y2770556D01*
X1820446Y2771742D01*
X1820446Y2774115D01*
X1819260Y2775301D01*
X1818074Y2775301D01*
X1816887Y2774115D01*
X1816887Y2771742D01*
X1818074Y2770556D01*
X1824005Y2781131D02*
X1822819Y2782318D01*
X1824005Y2781131D02*
X1824005Y2778759D01*
X1822819Y2777572D01*
X1818074Y2777572D01*
X1816887Y2778759D01*
X1816887Y2781131D01*
X1818074Y2782318D01*
X1816887Y2784589D02*
X1824005Y2784589D01*
X1816887Y2784589D02*
X1816887Y2789334D01*
X1816887Y2791605D02*
X1824005Y2791605D01*
X1824005Y2795164D01*
X1822819Y2796350D01*
X1820446Y2796350D01*
X1819260Y2795164D01*
X1819260Y2791605D01*
X1810119Y2775301D02*
X1811305Y2774115D01*
X1811305Y2771742D01*
X1810119Y2770556D01*
X1808933Y2770556D01*
X1807746Y2771742D01*
X1807746Y2774115D01*
X1806560Y2775301D01*
X1805374Y2775301D01*
X1804187Y2774115D01*
X1804187Y2771742D01*
X1805374Y2770556D01*
X1811305Y2781131D02*
X1810119Y2782318D01*
X1811305Y2781131D02*
X1811305Y2778759D01*
X1810119Y2777572D01*
X1805374Y2777572D01*
X1804187Y2778759D01*
X1804187Y2781131D01*
X1805374Y2782318D01*
X1804187Y2784589D02*
X1811305Y2784589D01*
X1804187Y2784589D02*
X1804187Y2789334D01*
X1804187Y2791605D02*
X1811305Y2791605D01*
X1808933Y2793978D01*
X1811305Y2796350D01*
X1804187Y2796350D01*
X1785905Y2770556D02*
X1779974Y2770556D01*
X1778787Y2771742D01*
X1778787Y2774115D01*
X1779974Y2775301D01*
X1785905Y2775301D01*
X1785905Y2781131D02*
X1784719Y2782318D01*
X1785905Y2781131D02*
X1785905Y2778759D01*
X1784719Y2777572D01*
X1783533Y2777572D01*
X1782346Y2778759D01*
X1782346Y2781131D01*
X1781160Y2782318D01*
X1779974Y2782318D01*
X1778787Y2781131D01*
X1778787Y2778759D01*
X1779974Y2777572D01*
X1778787Y2784589D02*
X1785905Y2784589D01*
X1785905Y2788148D01*
X1784719Y2789334D01*
X1783533Y2789334D01*
X1782346Y2788148D01*
X1781160Y2789334D01*
X1779974Y2789334D01*
X1778787Y2788148D01*
X1778787Y2784589D01*
X1782346Y2784589D02*
X1782346Y2788148D01*
X1778787Y2791605D02*
X1785905Y2791605D01*
X1785905Y2795164D01*
X1784719Y2796350D01*
X1782346Y2796350D01*
X1781160Y2795164D01*
X1781160Y2791605D01*
X1773205Y2770556D02*
X1767274Y2770556D01*
X1766087Y2771742D01*
X1766087Y2774115D01*
X1767274Y2775301D01*
X1773205Y2775301D01*
X1773205Y2781131D02*
X1772019Y2782318D01*
X1773205Y2781131D02*
X1773205Y2778759D01*
X1772019Y2777572D01*
X1770833Y2777572D01*
X1769646Y2778759D01*
X1769646Y2781131D01*
X1768460Y2782318D01*
X1767274Y2782318D01*
X1766087Y2781131D01*
X1766087Y2778759D01*
X1767274Y2777572D01*
X1766087Y2784589D02*
X1773205Y2784589D01*
X1773205Y2788148D01*
X1772019Y2789334D01*
X1770833Y2789334D01*
X1769646Y2788148D01*
X1768460Y2789334D01*
X1767274Y2789334D01*
X1766087Y2788148D01*
X1766087Y2784589D01*
X1769646Y2784589D02*
X1769646Y2788148D01*
X1766087Y2791605D02*
X1773205Y2791605D01*
X1770833Y2793978D01*
X1773205Y2796350D01*
X1766087Y2796350D01*
D13*
X2781732Y335890D02*
X2781732Y303590D01*
X2917232Y303590D01*
X2917232Y393590D01*
X2781732Y393590D01*
X2781732Y334620D01*
D14*
X1312297Y1550292D02*
X1311111Y1551478D01*
X1312297Y1550292D02*
X1312297Y1547919D01*
X1311111Y1546733D01*
X1306365Y1546733D01*
X1305179Y1547919D01*
X1305179Y1550292D01*
X1306365Y1551478D01*
X1305179Y1554919D02*
X1312297Y1554919D01*
X1308738Y1554919D02*
X1308738Y1559664D01*
X1312297Y1559664D02*
X1305179Y1559664D01*
X1305179Y1563105D02*
X1305179Y1567850D01*
X1305179Y1563105D02*
X1309924Y1567850D01*
X1311111Y1567850D01*
X1312297Y1566664D01*
X1312297Y1564291D01*
X1311111Y1563105D01*
X1308738Y1571290D02*
X1308738Y1576036D01*
X1311111Y1579476D02*
X1312297Y1580662D01*
X1312297Y1583035D01*
X1311111Y1584222D01*
X1309924Y1584222D01*
X1308738Y1583035D01*
X1307552Y1584222D01*
X1306365Y1584222D01*
X1305179Y1583035D01*
X1305179Y1580662D01*
X1306365Y1579476D01*
X1307552Y1579476D01*
X1308738Y1580662D01*
X1309924Y1579476D01*
X1311111Y1579476D01*
X1308738Y1580662D02*
X1308738Y1583035D01*
X1590511Y1551478D02*
X1591697Y1550292D01*
X1591697Y1547919D01*
X1590511Y1546733D01*
X1585765Y1546733D01*
X1584579Y1547919D01*
X1584579Y1550292D01*
X1585765Y1551478D01*
X1584579Y1554919D02*
X1591697Y1554919D01*
X1588138Y1554919D02*
X1588138Y1559664D01*
X1591697Y1559664D02*
X1584579Y1559664D01*
X1590511Y1565477D02*
X1591697Y1567850D01*
X1590511Y1565477D02*
X1588138Y1563105D01*
X1585765Y1563105D01*
X1584579Y1564291D01*
X1584579Y1566664D01*
X1585765Y1567850D01*
X1586952Y1567850D01*
X1588138Y1566664D01*
X1588138Y1563105D01*
X1588138Y1571290D02*
X1588138Y1576036D01*
X1591697Y1579476D02*
X1591697Y1584222D01*
X1590511Y1584222D01*
X1585765Y1579476D01*
X1584579Y1579476D01*
X1311111Y713278D02*
X1312297Y712092D01*
X1312297Y709719D01*
X1311111Y708533D01*
X1306365Y708533D01*
X1305179Y709719D01*
X1305179Y712092D01*
X1306365Y713278D01*
X1305179Y716719D02*
X1312297Y716719D01*
X1308738Y716719D02*
X1308738Y721464D01*
X1312297Y721464D02*
X1305179Y721464D01*
X1311111Y727277D02*
X1312297Y729650D01*
X1311111Y727277D02*
X1308738Y724905D01*
X1306365Y724905D01*
X1305179Y726091D01*
X1305179Y728464D01*
X1306365Y729650D01*
X1307552Y729650D01*
X1308738Y728464D01*
X1308738Y724905D01*
X1308738Y733090D02*
X1308738Y737836D01*
X1311111Y741276D02*
X1312297Y742462D01*
X1312297Y744835D01*
X1311111Y746022D01*
X1309924Y746022D01*
X1308738Y744835D01*
X1307552Y746022D01*
X1306365Y746022D01*
X1305179Y744835D01*
X1305179Y742462D01*
X1306365Y741276D01*
X1307552Y741276D01*
X1308738Y742462D01*
X1309924Y741276D01*
X1311111Y741276D01*
X1308738Y742462D02*
X1308738Y744835D01*
X1032897Y2109092D02*
X1031711Y2110278D01*
X1032897Y2109092D02*
X1032897Y2106719D01*
X1031711Y2105533D01*
X1026965Y2105533D01*
X1025779Y2106719D01*
X1025779Y2109092D01*
X1026965Y2110278D01*
X1025779Y2113719D02*
X1032897Y2113719D01*
X1029338Y2113719D02*
X1029338Y2118464D01*
X1032897Y2118464D02*
X1025779Y2118464D01*
X1031711Y2124277D02*
X1032897Y2126650D01*
X1031711Y2124277D02*
X1029338Y2121905D01*
X1026965Y2121905D01*
X1025779Y2123091D01*
X1025779Y2125464D01*
X1026965Y2126650D01*
X1028152Y2126650D01*
X1029338Y2125464D01*
X1029338Y2121905D01*
X1029338Y2130090D02*
X1029338Y2134836D01*
X1026965Y2138276D02*
X1025779Y2139462D01*
X1025779Y2141835D01*
X1026965Y2143022D01*
X1031711Y2143022D01*
X1032897Y2141835D01*
X1032897Y2139462D01*
X1031711Y2138276D01*
X1030524Y2138276D01*
X1029338Y2139462D01*
X1029338Y2143022D01*
X1869911Y1551478D02*
X1871097Y1550292D01*
X1871097Y1547919D01*
X1869911Y1546733D01*
X1865165Y1546733D01*
X1863979Y1547919D01*
X1863979Y1550292D01*
X1865165Y1551478D01*
X1863979Y1554919D02*
X1871097Y1554919D01*
X1867538Y1554919D02*
X1867538Y1559664D01*
X1871097Y1559664D02*
X1863979Y1559664D01*
X1868724Y1563105D02*
X1871097Y1565477D01*
X1863979Y1565477D01*
X1863979Y1563105D02*
X1863979Y1567850D01*
X1867538Y1571290D02*
X1867538Y1576036D01*
X1869911Y1581849D02*
X1871097Y1584222D01*
X1869911Y1581849D02*
X1867538Y1579476D01*
X1865165Y1579476D01*
X1863979Y1580662D01*
X1863979Y1583035D01*
X1865165Y1584222D01*
X1866352Y1584222D01*
X1867538Y1583035D01*
X1867538Y1579476D01*
X1590511Y992678D02*
X1591697Y991492D01*
X1591697Y989119D01*
X1590511Y987933D01*
X1585765Y987933D01*
X1584579Y989119D01*
X1584579Y991492D01*
X1585765Y992678D01*
X1584579Y996119D02*
X1591697Y996119D01*
X1588138Y996119D02*
X1588138Y1000864D01*
X1591697Y1000864D02*
X1584579Y1000864D01*
X1589324Y1004305D02*
X1591697Y1006677D01*
X1584579Y1006677D01*
X1584579Y1004305D02*
X1584579Y1009050D01*
X1588138Y1012490D02*
X1588138Y1017236D01*
X1591697Y1020676D02*
X1591697Y1025422D01*
X1590511Y1025422D01*
X1585765Y1020676D01*
X1584579Y1020676D01*
X1312297Y2109092D02*
X1311111Y2110278D01*
X1312297Y2109092D02*
X1312297Y2106719D01*
X1311111Y2105533D01*
X1306365Y2105533D01*
X1305179Y2106719D01*
X1305179Y2109092D01*
X1306365Y2110278D01*
X1305179Y2113719D02*
X1312297Y2113719D01*
X1308738Y2113719D02*
X1308738Y2118464D01*
X1312297Y2118464D02*
X1305179Y2118464D01*
X1309924Y2121905D02*
X1312297Y2124277D01*
X1305179Y2124277D01*
X1305179Y2121905D02*
X1305179Y2126650D01*
X1308738Y2130090D02*
X1308738Y2134836D01*
X1311111Y2138276D02*
X1312297Y2139462D01*
X1312297Y2141835D01*
X1311111Y2143022D01*
X1309924Y2143022D01*
X1308738Y2141835D01*
X1307552Y2143022D01*
X1306365Y2143022D01*
X1305179Y2141835D01*
X1305179Y2139462D01*
X1306365Y2138276D01*
X1307552Y2138276D01*
X1308738Y2139462D01*
X1309924Y2138276D01*
X1311111Y2138276D01*
X1308738Y2139462D02*
X1308738Y2141835D01*
X1031711Y713278D02*
X1032897Y712092D01*
X1032897Y709719D01*
X1031711Y708533D01*
X1026965Y708533D01*
X1025779Y709719D01*
X1025779Y712092D01*
X1026965Y713278D01*
X1025779Y716719D02*
X1032897Y716719D01*
X1029338Y716719D02*
X1029338Y721464D01*
X1032897Y721464D02*
X1025779Y721464D01*
X1030524Y724905D02*
X1032897Y727277D01*
X1025779Y727277D01*
X1025779Y724905D02*
X1025779Y729650D01*
X1029338Y733090D02*
X1029338Y737836D01*
X1026965Y741276D02*
X1025779Y742462D01*
X1025779Y744835D01*
X1026965Y746022D01*
X1031711Y746022D01*
X1032897Y744835D01*
X1032897Y742462D01*
X1031711Y741276D01*
X1030524Y741276D01*
X1029338Y742462D01*
X1029338Y746022D01*
X1869911Y713278D02*
X1871097Y712092D01*
X1871097Y709719D01*
X1869911Y708533D01*
X1865165Y708533D01*
X1863979Y709719D01*
X1863979Y712092D01*
X1865165Y713278D01*
X1863979Y716719D02*
X1871097Y716719D01*
X1867538Y716719D02*
X1867538Y721464D01*
X1871097Y721464D02*
X1863979Y721464D01*
X1869911Y724905D02*
X1871097Y726091D01*
X1871097Y728464D01*
X1869911Y729650D01*
X1868724Y729650D01*
X1867538Y728464D01*
X1867538Y727277D01*
X1867538Y728464D02*
X1866352Y729650D01*
X1865165Y729650D01*
X1863979Y728464D01*
X1863979Y726091D01*
X1865165Y724905D01*
X1867538Y733090D02*
X1867538Y737836D01*
X1869911Y743649D02*
X1871097Y746022D01*
X1869911Y743649D02*
X1867538Y741276D01*
X1865165Y741276D01*
X1863979Y742462D01*
X1863979Y744835D01*
X1865165Y746022D01*
X1866352Y746022D01*
X1867538Y744835D01*
X1867538Y741276D01*
X1591697Y1829692D02*
X1590511Y1830878D01*
X1591697Y1829692D02*
X1591697Y1827319D01*
X1590511Y1826133D01*
X1585765Y1826133D01*
X1584579Y1827319D01*
X1584579Y1829692D01*
X1585765Y1830878D01*
X1584579Y1834319D02*
X1591697Y1834319D01*
X1588138Y1834319D02*
X1588138Y1839064D01*
X1591697Y1839064D02*
X1584579Y1839064D01*
X1590511Y1842505D02*
X1591697Y1843691D01*
X1591697Y1846064D01*
X1590511Y1847250D01*
X1589324Y1847250D01*
X1588138Y1846064D01*
X1588138Y1844877D01*
X1588138Y1846064D02*
X1586952Y1847250D01*
X1585765Y1847250D01*
X1584579Y1846064D01*
X1584579Y1843691D01*
X1585765Y1842505D01*
X1588138Y1850690D02*
X1588138Y1855436D01*
X1591697Y1858876D02*
X1591697Y1863622D01*
X1590511Y1863622D01*
X1585765Y1858876D01*
X1584579Y1858876D01*
X1311111Y1272078D02*
X1312297Y1270892D01*
X1312297Y1268519D01*
X1311111Y1267333D01*
X1306365Y1267333D01*
X1305179Y1268519D01*
X1305179Y1270892D01*
X1306365Y1272078D01*
X1305179Y1275519D02*
X1312297Y1275519D01*
X1308738Y1275519D02*
X1308738Y1280264D01*
X1312297Y1280264D02*
X1305179Y1280264D01*
X1311111Y1283705D02*
X1312297Y1284891D01*
X1312297Y1287264D01*
X1311111Y1288450D01*
X1309924Y1288450D01*
X1308738Y1287264D01*
X1308738Y1286077D01*
X1308738Y1287264D02*
X1307552Y1288450D01*
X1306365Y1288450D01*
X1305179Y1287264D01*
X1305179Y1284891D01*
X1306365Y1283705D01*
X1308738Y1291890D02*
X1308738Y1296636D01*
X1311111Y1300076D02*
X1312297Y1301262D01*
X1312297Y1303635D01*
X1311111Y1304822D01*
X1309924Y1304822D01*
X1308738Y1303635D01*
X1307552Y1304822D01*
X1306365Y1304822D01*
X1305179Y1303635D01*
X1305179Y1301262D01*
X1306365Y1300076D01*
X1307552Y1300076D01*
X1308738Y1301262D01*
X1309924Y1300076D01*
X1311111Y1300076D01*
X1308738Y1301262D02*
X1308738Y1303635D01*
X1590511Y713278D02*
X1591697Y712092D01*
X1591697Y709719D01*
X1590511Y708533D01*
X1585765Y708533D01*
X1584579Y709719D01*
X1584579Y712092D01*
X1585765Y713278D01*
X1584579Y716719D02*
X1591697Y716719D01*
X1588138Y716719D02*
X1588138Y721464D01*
X1591697Y721464D02*
X1584579Y721464D01*
X1584579Y724905D02*
X1584579Y729650D01*
X1584579Y724905D02*
X1589324Y729650D01*
X1590511Y729650D01*
X1591697Y728464D01*
X1591697Y726091D01*
X1590511Y724905D01*
X1588138Y733090D02*
X1588138Y737836D01*
X1591697Y741276D02*
X1591697Y746022D01*
X1590511Y746022D01*
X1585765Y741276D01*
X1584579Y741276D01*
X1032897Y1829692D02*
X1031711Y1830878D01*
X1032897Y1829692D02*
X1032897Y1827319D01*
X1031711Y1826133D01*
X1026965Y1826133D01*
X1025779Y1827319D01*
X1025779Y1829692D01*
X1026965Y1830878D01*
X1025779Y1834319D02*
X1032897Y1834319D01*
X1029338Y1834319D02*
X1029338Y1839064D01*
X1032897Y1839064D02*
X1025779Y1839064D01*
X1031711Y1842505D02*
X1032897Y1843691D01*
X1032897Y1846064D01*
X1031711Y1847250D01*
X1030524Y1847250D01*
X1029338Y1846064D01*
X1029338Y1844877D01*
X1029338Y1846064D02*
X1028152Y1847250D01*
X1026965Y1847250D01*
X1025779Y1846064D01*
X1025779Y1843691D01*
X1026965Y1842505D01*
X1029338Y1850690D02*
X1029338Y1855436D01*
X1026965Y1858876D02*
X1025779Y1860062D01*
X1025779Y1862435D01*
X1026965Y1863622D01*
X1031711Y1863622D01*
X1032897Y1862435D01*
X1032897Y1860062D01*
X1031711Y1858876D01*
X1030524Y1858876D01*
X1029338Y1860062D01*
X1029338Y1863622D01*
X1869911Y1272078D02*
X1871097Y1270892D01*
X1871097Y1268519D01*
X1869911Y1267333D01*
X1865165Y1267333D01*
X1863979Y1268519D01*
X1863979Y1270892D01*
X1865165Y1272078D01*
X1863979Y1275519D02*
X1871097Y1275519D01*
X1867538Y1275519D02*
X1867538Y1280264D01*
X1871097Y1280264D02*
X1863979Y1280264D01*
X1871097Y1283705D02*
X1871097Y1288450D01*
X1871097Y1283705D02*
X1867538Y1283705D01*
X1868724Y1286077D01*
X1868724Y1287264D01*
X1867538Y1288450D01*
X1865165Y1288450D01*
X1863979Y1287264D01*
X1863979Y1284891D01*
X1865165Y1283705D01*
X1867538Y1291890D02*
X1867538Y1296636D01*
X1869911Y1302449D02*
X1871097Y1304822D01*
X1869911Y1302449D02*
X1867538Y1300076D01*
X1865165Y1300076D01*
X1863979Y1301262D01*
X1863979Y1303635D01*
X1865165Y1304822D01*
X1866352Y1304822D01*
X1867538Y1303635D01*
X1867538Y1300076D01*
X1591697Y2109092D02*
X1590511Y2110278D01*
X1591697Y2109092D02*
X1591697Y2106719D01*
X1590511Y2105533D01*
X1585765Y2105533D01*
X1584579Y2106719D01*
X1584579Y2109092D01*
X1585765Y2110278D01*
X1584579Y2113719D02*
X1591697Y2113719D01*
X1588138Y2113719D02*
X1588138Y2118464D01*
X1591697Y2118464D02*
X1584579Y2118464D01*
X1591697Y2121905D02*
X1591697Y2126650D01*
X1591697Y2121905D02*
X1588138Y2121905D01*
X1589324Y2124277D01*
X1589324Y2125464D01*
X1588138Y2126650D01*
X1585765Y2126650D01*
X1584579Y2125464D01*
X1584579Y2123091D01*
X1585765Y2121905D01*
X1588138Y2130090D02*
X1588138Y2134836D01*
X1591697Y2138276D02*
X1591697Y2143022D01*
X1590511Y2143022D01*
X1585765Y2138276D01*
X1584579Y2138276D01*
X1311111Y992678D02*
X1312297Y991492D01*
X1312297Y989119D01*
X1311111Y987933D01*
X1306365Y987933D01*
X1305179Y989119D01*
X1305179Y991492D01*
X1306365Y992678D01*
X1305179Y996119D02*
X1312297Y996119D01*
X1308738Y996119D02*
X1308738Y1000864D01*
X1312297Y1000864D02*
X1305179Y1000864D01*
X1312297Y1004305D02*
X1312297Y1009050D01*
X1312297Y1004305D02*
X1308738Y1004305D01*
X1309924Y1006677D01*
X1309924Y1007864D01*
X1308738Y1009050D01*
X1306365Y1009050D01*
X1305179Y1007864D01*
X1305179Y1005491D01*
X1306365Y1004305D01*
X1308738Y1012490D02*
X1308738Y1017236D01*
X1311111Y1020676D02*
X1312297Y1021862D01*
X1312297Y1024235D01*
X1311111Y1025422D01*
X1309924Y1025422D01*
X1308738Y1024235D01*
X1307552Y1025422D01*
X1306365Y1025422D01*
X1305179Y1024235D01*
X1305179Y1021862D01*
X1306365Y1020676D01*
X1307552Y1020676D01*
X1308738Y1021862D01*
X1309924Y1020676D01*
X1311111Y1020676D01*
X1308738Y1021862D02*
X1308738Y1024235D01*
X1032897Y1550292D02*
X1031711Y1551478D01*
X1032897Y1550292D02*
X1032897Y1547919D01*
X1031711Y1546733D01*
X1026965Y1546733D01*
X1025779Y1547919D01*
X1025779Y1550292D01*
X1026965Y1551478D01*
X1025779Y1554919D02*
X1032897Y1554919D01*
X1029338Y1554919D02*
X1029338Y1559664D01*
X1032897Y1559664D02*
X1025779Y1559664D01*
X1032897Y1563105D02*
X1032897Y1567850D01*
X1032897Y1563105D02*
X1029338Y1563105D01*
X1030524Y1565477D01*
X1030524Y1566664D01*
X1029338Y1567850D01*
X1026965Y1567850D01*
X1025779Y1566664D01*
X1025779Y1564291D01*
X1026965Y1563105D01*
X1029338Y1571290D02*
X1029338Y1576036D01*
X1026965Y1579476D02*
X1025779Y1580662D01*
X1025779Y1583035D01*
X1026965Y1584222D01*
X1031711Y1584222D01*
X1032897Y1583035D01*
X1032897Y1580662D01*
X1031711Y1579476D01*
X1030524Y1579476D01*
X1029338Y1580662D01*
X1029338Y1584222D01*
X1869911Y1830878D02*
X1871097Y1829692D01*
X1871097Y1827319D01*
X1869911Y1826133D01*
X1865165Y1826133D01*
X1863979Y1827319D01*
X1863979Y1829692D01*
X1865165Y1830878D01*
X1863979Y1834319D02*
X1871097Y1834319D01*
X1867538Y1834319D02*
X1867538Y1839064D01*
X1871097Y1839064D02*
X1863979Y1839064D01*
X1863979Y1842505D02*
X1863979Y1847250D01*
X1863979Y1842505D02*
X1868724Y1847250D01*
X1869911Y1847250D01*
X1871097Y1846064D01*
X1871097Y1843691D01*
X1869911Y1842505D01*
X1867538Y1850690D02*
X1867538Y1855436D01*
X1869911Y1861249D02*
X1871097Y1863622D01*
X1869911Y1861249D02*
X1867538Y1858876D01*
X1865165Y1858876D01*
X1863979Y1860062D01*
X1863979Y1862435D01*
X1865165Y1863622D01*
X1866352Y1863622D01*
X1867538Y1862435D01*
X1867538Y1858876D01*
X1032897Y1270892D02*
X1031711Y1272078D01*
X1032897Y1270892D02*
X1032897Y1268519D01*
X1031711Y1267333D01*
X1026965Y1267333D01*
X1025779Y1268519D01*
X1025779Y1270892D01*
X1026965Y1272078D01*
X1025779Y1275519D02*
X1032897Y1275519D01*
X1029338Y1275519D02*
X1029338Y1280264D01*
X1032897Y1280264D02*
X1025779Y1280264D01*
X1025779Y1283705D02*
X1025779Y1288450D01*
X1025779Y1283705D02*
X1030524Y1288450D01*
X1031711Y1288450D01*
X1032897Y1287264D01*
X1032897Y1284891D01*
X1031711Y1283705D01*
X1029338Y1291890D02*
X1029338Y1296636D01*
X1026965Y1300076D02*
X1025779Y1301262D01*
X1025779Y1303635D01*
X1026965Y1304822D01*
X1031711Y1304822D01*
X1032897Y1303635D01*
X1032897Y1301262D01*
X1031711Y1300076D01*
X1030524Y1300076D01*
X1029338Y1301262D01*
X1029338Y1304822D01*
X1869911Y2110278D02*
X1871097Y2109092D01*
X1871097Y2106719D01*
X1869911Y2105533D01*
X1865165Y2105533D01*
X1863979Y2106719D01*
X1863979Y2109092D01*
X1865165Y2110278D01*
X1863979Y2113719D02*
X1871097Y2113719D01*
X1867538Y2113719D02*
X1867538Y2118464D01*
X1871097Y2118464D02*
X1863979Y2118464D01*
X1863979Y2125464D02*
X1871097Y2125464D01*
X1867538Y2121905D01*
X1867538Y2126650D01*
X1867538Y2130090D02*
X1867538Y2134836D01*
X1869911Y2140649D02*
X1871097Y2143022D01*
X1869911Y2140649D02*
X1867538Y2138276D01*
X1865165Y2138276D01*
X1863979Y2139462D01*
X1863979Y2141835D01*
X1865165Y2143022D01*
X1866352Y2143022D01*
X1867538Y2141835D01*
X1867538Y2138276D01*
X1590511Y1272078D02*
X1591697Y1270892D01*
X1591697Y1268519D01*
X1590511Y1267333D01*
X1585765Y1267333D01*
X1584579Y1268519D01*
X1584579Y1270892D01*
X1585765Y1272078D01*
X1584579Y1275519D02*
X1591697Y1275519D01*
X1588138Y1275519D02*
X1588138Y1280264D01*
X1591697Y1280264D02*
X1584579Y1280264D01*
X1584579Y1287264D02*
X1591697Y1287264D01*
X1588138Y1283705D01*
X1588138Y1288450D01*
X1588138Y1291890D02*
X1588138Y1296636D01*
X1591697Y1300076D02*
X1591697Y1304822D01*
X1590511Y1304822D01*
X1585765Y1300076D01*
X1584579Y1300076D01*
X1312297Y1829692D02*
X1311111Y1830878D01*
X1312297Y1829692D02*
X1312297Y1827319D01*
X1311111Y1826133D01*
X1306365Y1826133D01*
X1305179Y1827319D01*
X1305179Y1829692D01*
X1306365Y1830878D01*
X1305179Y1834319D02*
X1312297Y1834319D01*
X1308738Y1834319D02*
X1308738Y1839064D01*
X1312297Y1839064D02*
X1305179Y1839064D01*
X1305179Y1846064D02*
X1312297Y1846064D01*
X1308738Y1842505D01*
X1308738Y1847250D01*
X1308738Y1850690D02*
X1308738Y1855436D01*
X1311111Y1858876D02*
X1312297Y1860062D01*
X1312297Y1862435D01*
X1311111Y1863622D01*
X1309924Y1863622D01*
X1308738Y1862435D01*
X1307552Y1863622D01*
X1306365Y1863622D01*
X1305179Y1862435D01*
X1305179Y1860062D01*
X1306365Y1858876D01*
X1307552Y1858876D01*
X1308738Y1860062D01*
X1309924Y1858876D01*
X1311111Y1858876D01*
X1308738Y1860062D02*
X1308738Y1862435D01*
X1031711Y992678D02*
X1032897Y991492D01*
X1032897Y989119D01*
X1031711Y987933D01*
X1026965Y987933D01*
X1025779Y989119D01*
X1025779Y991492D01*
X1026965Y992678D01*
X1025779Y996119D02*
X1032897Y996119D01*
X1029338Y996119D02*
X1029338Y1000864D01*
X1032897Y1000864D02*
X1025779Y1000864D01*
X1025779Y1007864D02*
X1032897Y1007864D01*
X1029338Y1004305D01*
X1029338Y1009050D01*
X1029338Y1012490D02*
X1029338Y1017236D01*
X1026965Y1020676D02*
X1025779Y1021862D01*
X1025779Y1024235D01*
X1026965Y1025422D01*
X1031711Y1025422D01*
X1032897Y1024235D01*
X1032897Y1021862D01*
X1031711Y1020676D01*
X1030524Y1020676D01*
X1029338Y1021862D01*
X1029338Y1025422D01*
X1869911Y992678D02*
X1871097Y991492D01*
X1871097Y989119D01*
X1869911Y987933D01*
X1865165Y987933D01*
X1863979Y989119D01*
X1863979Y991492D01*
X1865165Y992678D01*
X1863979Y996119D02*
X1871097Y996119D01*
X1867538Y996119D02*
X1867538Y1000864D01*
X1871097Y1000864D02*
X1863979Y1000864D01*
X1869911Y1006677D02*
X1871097Y1009050D01*
X1869911Y1006677D02*
X1867538Y1004305D01*
X1865165Y1004305D01*
X1863979Y1005491D01*
X1863979Y1007864D01*
X1865165Y1009050D01*
X1866352Y1009050D01*
X1867538Y1007864D01*
X1867538Y1004305D01*
X1867538Y1012490D02*
X1867538Y1017236D01*
X1869911Y1023049D02*
X1871097Y1025422D01*
X1869911Y1023049D02*
X1867538Y1020676D01*
X1865165Y1020676D01*
X1863979Y1021862D01*
X1863979Y1024235D01*
X1865165Y1025422D01*
X1866352Y1025422D01*
X1867538Y1024235D01*
X1867538Y1020676D01*
D13*
X2758400Y2747160D02*
X2758400Y2770660D01*
X2779400Y2770660D01*
X2816400Y2770660D02*
X2816400Y2640660D01*
X2758400Y2640660D02*
X2758400Y2664160D01*
X2758400Y2640660D02*
X2779400Y2640660D01*
D15*
X2746900Y2753160D02*
X2746902Y2753237D01*
X2746908Y2753314D01*
X2746918Y2753391D01*
X2746932Y2753467D01*
X2746949Y2753542D01*
X2746971Y2753616D01*
X2746996Y2753689D01*
X2747026Y2753761D01*
X2747058Y2753831D01*
X2747095Y2753899D01*
X2747134Y2753965D01*
X2747177Y2754029D01*
X2747224Y2754091D01*
X2747273Y2754150D01*
X2747326Y2754207D01*
X2747381Y2754261D01*
X2747439Y2754312D01*
X2747500Y2754360D01*
X2747563Y2754405D01*
X2747628Y2754446D01*
X2747695Y2754484D01*
X2747764Y2754519D01*
X2747835Y2754549D01*
X2747907Y2754577D01*
X2747981Y2754600D01*
X2748055Y2754620D01*
X2748131Y2754636D01*
X2748207Y2754648D01*
X2748284Y2754656D01*
X2748361Y2754660D01*
X2748439Y2754660D01*
X2748516Y2754656D01*
X2748593Y2754648D01*
X2748669Y2754636D01*
X2748745Y2754620D01*
X2748819Y2754600D01*
X2748893Y2754577D01*
X2748965Y2754549D01*
X2749036Y2754519D01*
X2749105Y2754484D01*
X2749172Y2754446D01*
X2749237Y2754405D01*
X2749300Y2754360D01*
X2749361Y2754312D01*
X2749419Y2754261D01*
X2749474Y2754207D01*
X2749527Y2754150D01*
X2749576Y2754091D01*
X2749623Y2754029D01*
X2749666Y2753965D01*
X2749705Y2753899D01*
X2749742Y2753831D01*
X2749774Y2753761D01*
X2749804Y2753689D01*
X2749829Y2753616D01*
X2749851Y2753542D01*
X2749868Y2753467D01*
X2749882Y2753391D01*
X2749892Y2753314D01*
X2749898Y2753237D01*
X2749900Y2753160D01*
X2749898Y2753083D01*
X2749892Y2753006D01*
X2749882Y2752929D01*
X2749868Y2752853D01*
X2749851Y2752778D01*
X2749829Y2752704D01*
X2749804Y2752631D01*
X2749774Y2752559D01*
X2749742Y2752489D01*
X2749705Y2752421D01*
X2749666Y2752355D01*
X2749623Y2752291D01*
X2749576Y2752229D01*
X2749527Y2752170D01*
X2749474Y2752113D01*
X2749419Y2752059D01*
X2749361Y2752008D01*
X2749300Y2751960D01*
X2749237Y2751915D01*
X2749172Y2751874D01*
X2749105Y2751836D01*
X2749036Y2751801D01*
X2748965Y2751771D01*
X2748893Y2751743D01*
X2748819Y2751720D01*
X2748745Y2751700D01*
X2748669Y2751684D01*
X2748593Y2751672D01*
X2748516Y2751664D01*
X2748439Y2751660D01*
X2748361Y2751660D01*
X2748284Y2751664D01*
X2748207Y2751672D01*
X2748131Y2751684D01*
X2748055Y2751700D01*
X2747981Y2751720D01*
X2747907Y2751743D01*
X2747835Y2751771D01*
X2747764Y2751801D01*
X2747695Y2751836D01*
X2747628Y2751874D01*
X2747563Y2751915D01*
X2747500Y2751960D01*
X2747439Y2752008D01*
X2747381Y2752059D01*
X2747326Y2752113D01*
X2747273Y2752170D01*
X2747224Y2752229D01*
X2747177Y2752291D01*
X2747134Y2752355D01*
X2747095Y2752421D01*
X2747058Y2752489D01*
X2747026Y2752559D01*
X2746996Y2752631D01*
X2746971Y2752704D01*
X2746949Y2752778D01*
X2746932Y2752853D01*
X2746918Y2752929D01*
X2746908Y2753006D01*
X2746902Y2753083D01*
X2746900Y2753160D01*
D16*
X2718043Y2725233D02*
X2716088Y2727188D01*
X2716088Y2729143D01*
X2718043Y2731099D01*
X2727820Y2731099D01*
X2727820Y2733054D02*
X2727820Y2729143D01*
X2727820Y2736961D02*
X2727820Y2744783D01*
X2725865Y2744783D01*
X2718043Y2736961D01*
X2716088Y2736961D01*
D11*
X520700Y62230D02*
X457200Y62230D01*
X457200Y163830D01*
X520700Y163830D01*
X520700Y62230D01*
D12*
X492506Y75017D02*
X492506Y79762D01*
X492506Y75017D02*
X490133Y72644D01*
X487761Y75017D01*
X487761Y79762D01*
X485490Y72644D02*
X483117Y72644D01*
X484303Y72644D02*
X484303Y79762D01*
X483117Y79762D02*
X485490Y79762D01*
X480812Y79762D02*
X480812Y72644D01*
X476067Y72644D02*
X480812Y79762D01*
X476067Y79762D02*
X476067Y72644D01*
X473796Y76203D02*
X469050Y76203D01*
X492506Y100417D02*
X492506Y105162D01*
X492506Y100417D02*
X490133Y98044D01*
X487761Y100417D01*
X487761Y105162D01*
X485490Y98044D02*
X483117Y98044D01*
X484303Y98044D02*
X484303Y105162D01*
X483117Y105162D02*
X485490Y105162D01*
X480812Y105162D02*
X480812Y98044D01*
X476067Y98044D02*
X480812Y105162D01*
X476067Y105162D02*
X476067Y98044D01*
X473796Y101603D02*
X469050Y101603D01*
X471423Y103976D02*
X471423Y99230D01*
X492506Y120737D02*
X492506Y125482D01*
X492506Y120737D02*
X490133Y118364D01*
X487761Y120737D01*
X487761Y125482D01*
X484303Y125482D02*
X481931Y125482D01*
X484303Y125482D02*
X485490Y124296D01*
X485490Y119550D01*
X484303Y118364D01*
X481931Y118364D01*
X480744Y119550D01*
X480744Y124296D01*
X481931Y125482D01*
X478473Y125482D02*
X478473Y119550D01*
X477287Y118364D01*
X474914Y118364D01*
X473728Y119550D01*
X473728Y125482D01*
X469084Y125482D02*
X469084Y118364D01*
X466712Y125482D02*
X471457Y125482D01*
X464441Y121923D02*
X459695Y121923D01*
X492506Y148677D02*
X492506Y153422D01*
X492506Y148677D02*
X490133Y146304D01*
X487761Y148677D01*
X487761Y153422D01*
X484303Y153422D02*
X481931Y153422D01*
X484303Y153422D02*
X485490Y152236D01*
X485490Y147490D01*
X484303Y146304D01*
X481931Y146304D01*
X480744Y147490D01*
X480744Y152236D01*
X481931Y153422D01*
X478473Y153422D02*
X478473Y147490D01*
X477287Y146304D01*
X474914Y146304D01*
X473728Y147490D01*
X473728Y153422D01*
X469084Y153422D02*
X469084Y146304D01*
X466712Y153422D02*
X471457Y153422D01*
X464441Y149863D02*
X459695Y149863D01*
X462068Y152236D02*
X462068Y147490D01*
D11*
X398780Y87630D02*
X381000Y87630D01*
X381000Y113030D02*
X398780Y113030D01*
X398780Y138430D02*
X381000Y138430D01*
X281940Y138430D02*
X261620Y138430D01*
X261620Y113030D02*
X281940Y113030D01*
X281940Y87630D02*
X261620Y87630D01*
D12*
X375833Y85344D02*
X375833Y92462D01*
X373461Y92462D02*
X378206Y92462D01*
X371190Y92462D02*
X366444Y85344D01*
X371190Y85344D02*
X366444Y92462D01*
X359428Y92462D02*
X364173Y85344D01*
X353598Y92462D02*
X352412Y91276D01*
X353598Y92462D02*
X355971Y92462D01*
X357157Y91276D01*
X357157Y90089D01*
X355971Y88903D01*
X353598Y88903D01*
X352412Y87717D01*
X352412Y86530D01*
X353598Y85344D01*
X355971Y85344D01*
X357157Y86530D01*
X346581Y92462D02*
X345395Y91276D01*
X346581Y92462D02*
X348954Y92462D01*
X350141Y91276D01*
X350141Y86530D01*
X348954Y85344D01*
X346581Y85344D01*
X345395Y86530D01*
X343124Y85344D02*
X343124Y92462D01*
X343124Y85344D02*
X338379Y85344D01*
X375833Y108204D02*
X375833Y115322D01*
X373461Y115322D02*
X378206Y115322D01*
X371190Y115322D02*
X366444Y108204D01*
X371190Y108204D02*
X366444Y115322D01*
X359428Y115322D02*
X364173Y108204D01*
X353598Y115322D02*
X352412Y114136D01*
X353598Y115322D02*
X355971Y115322D01*
X357157Y114136D01*
X357157Y112949D01*
X355971Y111763D01*
X353598Y111763D01*
X352412Y110577D01*
X352412Y109390D01*
X353598Y108204D01*
X355971Y108204D01*
X357157Y109390D01*
X350141Y108204D02*
X350141Y115322D01*
X350141Y108204D02*
X346581Y108204D01*
X345395Y109390D01*
X345395Y114136D01*
X346581Y115322D01*
X350141Y115322D01*
X343124Y112949D02*
X343124Y108204D01*
X343124Y112949D02*
X340751Y115322D01*
X338379Y112949D01*
X338379Y108204D01*
X338379Y111763D02*
X343124Y111763D01*
X373461Y142076D02*
X374647Y143262D01*
X377020Y143262D01*
X378206Y142076D01*
X378206Y137330D01*
X377020Y136144D01*
X374647Y136144D01*
X373461Y137330D01*
X373461Y139703D01*
X375833Y139703D01*
X371190Y136144D02*
X371190Y143262D01*
X366444Y136144D01*
X366444Y143262D01*
X364173Y143262D02*
X364173Y136144D01*
X360614Y136144D01*
X359428Y137330D01*
X359428Y142076D01*
X360614Y143262D01*
X364173Y143262D01*
X312292Y92462D02*
X312292Y85344D01*
X312292Y92462D02*
X308733Y92462D01*
X307546Y91276D01*
X307546Y88903D01*
X308733Y87717D01*
X312292Y87717D01*
X301716Y92462D02*
X300530Y91276D01*
X301716Y92462D02*
X304089Y92462D01*
X305275Y91276D01*
X305275Y86530D01*
X304089Y85344D01*
X301716Y85344D01*
X300530Y86530D01*
X300530Y88903D01*
X302903Y88903D01*
X298259Y85344D02*
X298259Y92462D01*
X293513Y85344D01*
X293513Y92462D01*
X291242Y92462D02*
X291242Y85344D01*
X287683Y85344D01*
X286497Y86530D01*
X286497Y91276D01*
X287683Y92462D01*
X291242Y92462D01*
X305275Y110744D02*
X305275Y117862D01*
X301716Y117862D01*
X300530Y116676D01*
X300530Y114303D01*
X301716Y113117D01*
X305275Y113117D01*
X298259Y110744D02*
X298259Y117862D01*
X294700Y117862D01*
X293513Y116676D01*
X293513Y114303D01*
X294700Y113117D01*
X298259Y113117D01*
X295886Y113117D02*
X293513Y110744D01*
X291242Y110744D02*
X291242Y117862D01*
X287683Y117862D01*
X286497Y116676D01*
X286497Y115489D01*
X287683Y114303D01*
X286497Y113117D01*
X286497Y111930D01*
X287683Y110744D01*
X291242Y110744D01*
X291242Y114303D02*
X287683Y114303D01*
X305275Y138517D02*
X305275Y143262D01*
X305275Y138517D02*
X302903Y136144D01*
X300530Y138517D01*
X300530Y143262D01*
X294700Y143262D02*
X293513Y142076D01*
X294700Y143262D02*
X297072Y143262D01*
X298259Y142076D01*
X298259Y137330D01*
X297072Y136144D01*
X294700Y136144D01*
X293513Y137330D01*
X287683Y143262D02*
X286497Y142076D01*
X287683Y143262D02*
X290056Y143262D01*
X291242Y142076D01*
X291242Y137330D01*
X290056Y136144D01*
X287683Y136144D01*
X286497Y137330D01*
D11*
X444500Y163830D02*
X444500Y62230D01*
X444500Y163830D02*
X215900Y163830D01*
X215900Y62230D01*
X444500Y62230D01*
X128270Y2324100D02*
X128270Y2387600D01*
X229870Y2387600D01*
X229870Y2324100D01*
X128270Y2324100D01*
D12*
X141057Y2352294D02*
X145802Y2352294D01*
X141057Y2352294D02*
X138684Y2354667D01*
X141057Y2357039D01*
X145802Y2357039D01*
X138684Y2359310D02*
X138684Y2361683D01*
X138684Y2360497D02*
X145802Y2360497D01*
X145802Y2361683D02*
X145802Y2359310D01*
X145802Y2363988D02*
X138684Y2363988D01*
X138684Y2368733D02*
X145802Y2363988D01*
X145802Y2368733D02*
X138684Y2368733D01*
X142243Y2371004D02*
X142243Y2375750D01*
X166457Y2352294D02*
X171202Y2352294D01*
X166457Y2352294D02*
X164084Y2354667D01*
X166457Y2357039D01*
X171202Y2357039D01*
X164084Y2359310D02*
X164084Y2361683D01*
X164084Y2360497D02*
X171202Y2360497D01*
X171202Y2361683D02*
X171202Y2359310D01*
X171202Y2363988D02*
X164084Y2363988D01*
X164084Y2368733D02*
X171202Y2363988D01*
X171202Y2368733D02*
X164084Y2368733D01*
X167643Y2371004D02*
X167643Y2375750D01*
X170016Y2373377D02*
X165270Y2373377D01*
X186777Y2352294D02*
X191522Y2352294D01*
X186777Y2352294D02*
X184404Y2354667D01*
X186777Y2357039D01*
X191522Y2357039D01*
X191522Y2360497D02*
X191522Y2362869D01*
X191522Y2360497D02*
X190336Y2359310D01*
X185590Y2359310D01*
X184404Y2360497D01*
X184404Y2362869D01*
X185590Y2364056D01*
X190336Y2364056D01*
X191522Y2362869D01*
X191522Y2366327D02*
X185590Y2366327D01*
X184404Y2367513D01*
X184404Y2369886D01*
X185590Y2371072D01*
X191522Y2371072D01*
X191522Y2375716D02*
X184404Y2375716D01*
X191522Y2373343D02*
X191522Y2378089D01*
X187963Y2380360D02*
X187963Y2385105D01*
X214717Y2352294D02*
X219462Y2352294D01*
X214717Y2352294D02*
X212344Y2354667D01*
X214717Y2357039D01*
X219462Y2357039D01*
X219462Y2360497D02*
X219462Y2362869D01*
X219462Y2360497D02*
X218276Y2359310D01*
X213530Y2359310D01*
X212344Y2360497D01*
X212344Y2362869D01*
X213530Y2364056D01*
X218276Y2364056D01*
X219462Y2362869D01*
X219462Y2366327D02*
X213530Y2366327D01*
X212344Y2367513D01*
X212344Y2369886D01*
X213530Y2371072D01*
X219462Y2371072D01*
X219462Y2375716D02*
X212344Y2375716D01*
X219462Y2373343D02*
X219462Y2378089D01*
X215903Y2380360D02*
X215903Y2385105D01*
X218276Y2382732D02*
X213530Y2382732D01*
D11*
X153670Y2446020D02*
X153670Y2463800D01*
X179070Y2463800D02*
X179070Y2446020D01*
X204470Y2446020D02*
X204470Y2463800D01*
X204470Y2562860D02*
X204470Y2583180D01*
X179070Y2583180D02*
X179070Y2562860D01*
X153670Y2562860D02*
X153670Y2583180D01*
D12*
X151384Y2468967D02*
X158502Y2468967D01*
X158502Y2471339D02*
X158502Y2466594D01*
X158502Y2473610D02*
X151384Y2478356D01*
X151384Y2473610D02*
X158502Y2478356D01*
X158502Y2485372D02*
X151384Y2480627D01*
X158502Y2491202D02*
X157316Y2492389D01*
X158502Y2491202D02*
X158502Y2488829D01*
X157316Y2487643D01*
X156129Y2487643D01*
X154943Y2488829D01*
X154943Y2491202D01*
X153757Y2492389D01*
X152570Y2492389D01*
X151384Y2491202D01*
X151384Y2488829D01*
X152570Y2487643D01*
X158502Y2498219D02*
X157316Y2499405D01*
X158502Y2498219D02*
X158502Y2495846D01*
X157316Y2494660D01*
X152570Y2494660D01*
X151384Y2495846D01*
X151384Y2498219D01*
X152570Y2499405D01*
X151384Y2501676D02*
X158502Y2501676D01*
X151384Y2501676D02*
X151384Y2506421D01*
X174244Y2468967D02*
X181362Y2468967D01*
X181362Y2471339D02*
X181362Y2466594D01*
X181362Y2473610D02*
X174244Y2478356D01*
X174244Y2473610D02*
X181362Y2478356D01*
X181362Y2485372D02*
X174244Y2480627D01*
X181362Y2491202D02*
X180176Y2492389D01*
X181362Y2491202D02*
X181362Y2488829D01*
X180176Y2487643D01*
X178989Y2487643D01*
X177803Y2488829D01*
X177803Y2491202D01*
X176617Y2492389D01*
X175430Y2492389D01*
X174244Y2491202D01*
X174244Y2488829D01*
X175430Y2487643D01*
X174244Y2494660D02*
X181362Y2494660D01*
X174244Y2494660D02*
X174244Y2498219D01*
X175430Y2499405D01*
X180176Y2499405D01*
X181362Y2498219D01*
X181362Y2494660D01*
X178989Y2501676D02*
X174244Y2501676D01*
X178989Y2501676D02*
X181362Y2504049D01*
X178989Y2506421D01*
X174244Y2506421D01*
X177803Y2506421D02*
X177803Y2501676D01*
X208116Y2471339D02*
X209302Y2470153D01*
X209302Y2467780D01*
X208116Y2466594D01*
X203370Y2466594D01*
X202184Y2467780D01*
X202184Y2470153D01*
X203370Y2471339D01*
X205743Y2471339D01*
X205743Y2468967D01*
X202184Y2473610D02*
X209302Y2473610D01*
X202184Y2478356D01*
X209302Y2478356D01*
X209302Y2480627D02*
X202184Y2480627D01*
X202184Y2484186D01*
X203370Y2485372D01*
X208116Y2485372D01*
X209302Y2484186D01*
X209302Y2480627D01*
X158502Y2532508D02*
X151384Y2532508D01*
X158502Y2532508D02*
X158502Y2536067D01*
X157316Y2537254D01*
X154943Y2537254D01*
X153757Y2536067D01*
X153757Y2532508D01*
X158502Y2543084D02*
X157316Y2544270D01*
X158502Y2543084D02*
X158502Y2540711D01*
X157316Y2539525D01*
X152570Y2539525D01*
X151384Y2540711D01*
X151384Y2543084D01*
X152570Y2544270D01*
X154943Y2544270D01*
X154943Y2541898D01*
X151384Y2546541D02*
X158502Y2546541D01*
X151384Y2551287D01*
X158502Y2551287D01*
X158502Y2553558D02*
X151384Y2553558D01*
X151384Y2557117D01*
X152570Y2558303D01*
X157316Y2558303D01*
X158502Y2557117D01*
X158502Y2553558D01*
X176784Y2539525D02*
X183902Y2539525D01*
X183902Y2543084D01*
X182716Y2544270D01*
X180343Y2544270D01*
X179157Y2543084D01*
X179157Y2539525D01*
X176784Y2546541D02*
X183902Y2546541D01*
X183902Y2550100D01*
X182716Y2551287D01*
X180343Y2551287D01*
X179157Y2550100D01*
X179157Y2546541D01*
X179157Y2548914D02*
X176784Y2551287D01*
X176784Y2553558D02*
X183902Y2553558D01*
X183902Y2557117D01*
X182716Y2558303D01*
X181529Y2558303D01*
X180343Y2557117D01*
X179157Y2558303D01*
X177970Y2558303D01*
X176784Y2557117D01*
X176784Y2553558D01*
X180343Y2553558D02*
X180343Y2557117D01*
X204557Y2539525D02*
X209302Y2539525D01*
X204557Y2539525D02*
X202184Y2541898D01*
X204557Y2544270D01*
X209302Y2544270D01*
X209302Y2550100D02*
X208116Y2551287D01*
X209302Y2550100D02*
X209302Y2547728D01*
X208116Y2546541D01*
X203370Y2546541D01*
X202184Y2547728D01*
X202184Y2550100D01*
X203370Y2551287D01*
X209302Y2557117D02*
X208116Y2558303D01*
X209302Y2557117D02*
X209302Y2554744D01*
X208116Y2553558D01*
X203370Y2553558D01*
X202184Y2554744D01*
X202184Y2557117D01*
X203370Y2558303D01*
D11*
X229870Y2400300D02*
X128270Y2400300D01*
X229870Y2400300D02*
X229870Y2628900D01*
X128270Y2628900D01*
X128270Y2400300D01*
X2278380Y2802890D02*
X2341880Y2802890D01*
X2341880Y2701290D01*
X2278380Y2701290D01*
X2278380Y2802890D01*
D12*
X2331793Y2792482D02*
X2331793Y2787737D01*
X2329420Y2785364D01*
X2327047Y2787737D01*
X2327047Y2792482D01*
X2324776Y2785364D02*
X2322404Y2785364D01*
X2323590Y2785364D02*
X2323590Y2792482D01*
X2324776Y2792482D02*
X2322404Y2792482D01*
X2320099Y2792482D02*
X2320099Y2785364D01*
X2315353Y2785364D02*
X2320099Y2792482D01*
X2315353Y2792482D02*
X2315353Y2785364D01*
X2313082Y2788923D02*
X2308337Y2788923D01*
X2331793Y2767082D02*
X2331793Y2762337D01*
X2329420Y2759964D01*
X2327047Y2762337D01*
X2327047Y2767082D01*
X2324776Y2759964D02*
X2322404Y2759964D01*
X2323590Y2759964D02*
X2323590Y2767082D01*
X2324776Y2767082D02*
X2322404Y2767082D01*
X2320099Y2767082D02*
X2320099Y2759964D01*
X2315353Y2759964D02*
X2320099Y2767082D01*
X2315353Y2767082D02*
X2315353Y2759964D01*
X2313082Y2763523D02*
X2308337Y2763523D01*
X2310710Y2765896D02*
X2310710Y2761150D01*
X2341148Y2746762D02*
X2341148Y2742017D01*
X2338775Y2739644D01*
X2336403Y2742017D01*
X2336403Y2746762D01*
X2332945Y2746762D02*
X2330573Y2746762D01*
X2332945Y2746762D02*
X2334132Y2745576D01*
X2334132Y2740830D01*
X2332945Y2739644D01*
X2330573Y2739644D01*
X2329386Y2740830D01*
X2329386Y2745576D01*
X2330573Y2746762D01*
X2327115Y2746762D02*
X2327115Y2740830D01*
X2325929Y2739644D01*
X2323556Y2739644D01*
X2322370Y2740830D01*
X2322370Y2746762D01*
X2317726Y2746762D02*
X2317726Y2739644D01*
X2320099Y2746762D02*
X2315353Y2746762D01*
X2313082Y2743203D02*
X2308337Y2743203D01*
X2341148Y2718822D02*
X2341148Y2714077D01*
X2338775Y2711704D01*
X2336403Y2714077D01*
X2336403Y2718822D01*
X2332945Y2718822D02*
X2330573Y2718822D01*
X2332945Y2718822D02*
X2334132Y2717636D01*
X2334132Y2712890D01*
X2332945Y2711704D01*
X2330573Y2711704D01*
X2329386Y2712890D01*
X2329386Y2717636D01*
X2330573Y2718822D01*
X2327115Y2718822D02*
X2327115Y2712890D01*
X2325929Y2711704D01*
X2323556Y2711704D01*
X2322370Y2712890D01*
X2322370Y2718822D01*
X2317726Y2718822D02*
X2317726Y2711704D01*
X2320099Y2718822D02*
X2315353Y2718822D01*
X2313082Y2715263D02*
X2308337Y2715263D01*
X2310710Y2717636D02*
X2310710Y2712890D01*
D11*
X2400300Y2777490D02*
X2418080Y2777490D01*
X2418080Y2752090D02*
X2400300Y2752090D01*
X2400300Y2726690D02*
X2418080Y2726690D01*
X2517140Y2726690D02*
X2537460Y2726690D01*
X2537460Y2752090D02*
X2517140Y2752090D01*
X2517140Y2777490D02*
X2537460Y2777490D01*
D12*
X2460092Y2779782D02*
X2460092Y2772664D01*
X2462464Y2779782D02*
X2457719Y2779782D01*
X2455448Y2779782D02*
X2450703Y2772664D01*
X2455448Y2772664D02*
X2450703Y2779782D01*
X2443686Y2779782D02*
X2448432Y2772664D01*
X2437856Y2779782D02*
X2436670Y2778596D01*
X2437856Y2779782D02*
X2440229Y2779782D01*
X2441415Y2778596D01*
X2441415Y2777409D01*
X2440229Y2776223D01*
X2437856Y2776223D01*
X2436670Y2775037D01*
X2436670Y2773850D01*
X2437856Y2772664D01*
X2440229Y2772664D01*
X2441415Y2773850D01*
X2430840Y2779782D02*
X2429654Y2778596D01*
X2430840Y2779782D02*
X2433213Y2779782D01*
X2434399Y2778596D01*
X2434399Y2773850D01*
X2433213Y2772664D01*
X2430840Y2772664D01*
X2429654Y2773850D01*
X2427383Y2772664D02*
X2427383Y2779782D01*
X2427383Y2772664D02*
X2422637Y2772664D01*
X2460092Y2756922D02*
X2460092Y2749804D01*
X2462464Y2756922D02*
X2457719Y2756922D01*
X2455448Y2756922D02*
X2450703Y2749804D01*
X2455448Y2749804D02*
X2450703Y2756922D01*
X2443686Y2756922D02*
X2448432Y2749804D01*
X2437856Y2756922D02*
X2436670Y2755736D01*
X2437856Y2756922D02*
X2440229Y2756922D01*
X2441415Y2755736D01*
X2441415Y2754549D01*
X2440229Y2753363D01*
X2437856Y2753363D01*
X2436670Y2752177D01*
X2436670Y2750990D01*
X2437856Y2749804D01*
X2440229Y2749804D01*
X2441415Y2750990D01*
X2434399Y2749804D02*
X2434399Y2756922D01*
X2434399Y2749804D02*
X2430840Y2749804D01*
X2429654Y2750990D01*
X2429654Y2755736D01*
X2430840Y2756922D01*
X2434399Y2756922D01*
X2427383Y2754549D02*
X2427383Y2749804D01*
X2427383Y2754549D02*
X2425010Y2756922D01*
X2422637Y2754549D01*
X2422637Y2749804D01*
X2422637Y2753363D02*
X2427383Y2753363D01*
X2437856Y2728982D02*
X2436670Y2727796D01*
X2437856Y2728982D02*
X2440229Y2728982D01*
X2441415Y2727796D01*
X2441415Y2723050D01*
X2440229Y2721864D01*
X2437856Y2721864D01*
X2436670Y2723050D01*
X2436670Y2725423D01*
X2439043Y2725423D01*
X2434399Y2721864D02*
X2434399Y2728982D01*
X2429653Y2721864D01*
X2429653Y2728982D01*
X2427382Y2728982D02*
X2427382Y2721864D01*
X2423823Y2721864D01*
X2422637Y2723050D01*
X2422637Y2727796D01*
X2423823Y2728982D01*
X2427382Y2728982D01*
X2514346Y2772664D02*
X2514346Y2779782D01*
X2510787Y2779782D01*
X2509601Y2778596D01*
X2509601Y2776223D01*
X2510787Y2775037D01*
X2514346Y2775037D01*
X2503771Y2779782D02*
X2502584Y2778596D01*
X2503771Y2779782D02*
X2506143Y2779782D01*
X2507330Y2778596D01*
X2507330Y2773850D01*
X2506143Y2772664D01*
X2503771Y2772664D01*
X2502584Y2773850D01*
X2502584Y2776223D01*
X2504957Y2776223D01*
X2500313Y2772664D02*
X2500313Y2779782D01*
X2495568Y2772664D01*
X2495568Y2779782D01*
X2493297Y2779782D02*
X2493297Y2772664D01*
X2489738Y2772664D01*
X2488552Y2773850D01*
X2488552Y2778596D01*
X2489738Y2779782D01*
X2493297Y2779782D01*
X2514346Y2754382D02*
X2514346Y2747264D01*
X2514346Y2754382D02*
X2510787Y2754382D01*
X2509601Y2753196D01*
X2509601Y2750823D01*
X2510787Y2749637D01*
X2514346Y2749637D01*
X2507330Y2747264D02*
X2507330Y2754382D01*
X2503771Y2754382D01*
X2502584Y2753196D01*
X2502584Y2750823D01*
X2503771Y2749637D01*
X2507330Y2749637D01*
X2504957Y2749637D02*
X2502584Y2747264D01*
X2500313Y2747264D02*
X2500313Y2754382D01*
X2496754Y2754382D01*
X2495568Y2753196D01*
X2495568Y2752009D01*
X2496754Y2750823D01*
X2495568Y2749637D01*
X2495568Y2748450D01*
X2496754Y2747264D01*
X2500313Y2747264D01*
X2500313Y2750823D02*
X2496754Y2750823D01*
X2514346Y2728982D02*
X2514346Y2724237D01*
X2511973Y2721864D01*
X2509601Y2724237D01*
X2509601Y2728982D01*
X2503771Y2728982D02*
X2502584Y2727796D01*
X2503771Y2728982D02*
X2506143Y2728982D01*
X2507330Y2727796D01*
X2507330Y2723050D01*
X2506143Y2721864D01*
X2503771Y2721864D01*
X2502584Y2723050D01*
X2496754Y2728982D02*
X2495568Y2727796D01*
X2496754Y2728982D02*
X2499127Y2728982D01*
X2500313Y2727796D01*
X2500313Y2723050D01*
X2499127Y2721864D01*
X2496754Y2721864D01*
X2495568Y2723050D01*
D11*
X2354580Y2701290D02*
X2354580Y2802890D01*
X2354580Y2701290D02*
X2583180Y2701290D01*
X2583180Y2802890D01*
X2354580Y2802890D01*
M02*
