%
M48
M72
T01C0.01378
T02C0.03150
T03C0.03937
T04C0.12598
T05C0.12795
T06C0.15000
%
T01
X82600Y56600
X103600Y56600
X116600Y56600
X132600Y67600
X118600Y79100
X129600Y93600
X119600Y96100
X105850Y109100
X106600Y114100
X116600Y122600
X125350Y114100
X88600Y113600
X81600Y113600
X67600Y94600
X71600Y84100
X75600Y74100
X32600Y80600
X48600Y114600
X75600Y139100
X71600Y143600
X67600Y159600
X48600Y179600
X32600Y145600
X104600Y167600
X119100Y161100
X131600Y164600
X126600Y174600
X119600Y148600
X118600Y143900
X162600Y163600
X171600Y173600
X171600Y176600
X171600Y179600
X174600Y179600
X174600Y176600
X174600Y173600
X177600Y173600
X177600Y176600
X177600Y179600
X185600Y188600
X196600Y179600
X196600Y176600
X196600Y173600
X199600Y173600
X202600Y173600
X202600Y176600
X199600Y176600
X199600Y179600
X202600Y179600
X209600Y163600
X189600Y158600
X185600Y158600
X219600Y128600
X183600Y113600
X183600Y110600
X183600Y107600
X180600Y107600
X180600Y110600
X180600Y113600
X163600Y79600
X164100Y55350
X199600Y68600
X208600Y68600
X249600Y39600
X309600Y81600
X282600Y114600
X255600Y104600
X310600Y147600
X247600Y177600
X100600Y27600
T02
X256600Y69100
X266600Y74100
X256600Y79100
X266600Y84100
X256600Y89100
X266600Y94100
X256600Y134100
X266600Y139100
X256600Y144100
X266600Y149100
X256600Y154100
X266600Y159100
T03
X196600Y101600
X186600Y101600
X176600Y101600
X91600Y94100
X81600Y89100
X91600Y84100
X81600Y79100
X91600Y74100
X81600Y69100
X91600Y64100
X81600Y99100
X91600Y129100
X81600Y134100
X91600Y139100
X81600Y144100
X91600Y149100
X81600Y154100
X91600Y159100
X81600Y164100
T04
X56600Y169100
X56600Y124100
X56600Y104100
X56600Y59100
T05
X291600Y61600
X291600Y101600
X291600Y126600
X291600Y166600
T06
X21600Y21600
X21600Y206600
X316600Y206600
X316600Y21600
M30
