G75*
%MOIN*%
%OFA0B0*%
%FSLAX25Y25*%
%IPPOS*%
%LPD*%
%AMOC8*
5,1,8,0,0,1.08239X$1,22.5*
%
%ADD10C,0.15500*%
%ADD11R,0.03800X0.06800*%
%ADD12R,0.12700X0.06800*%
%ADD13R,0.04437X0.04831*%
%ADD14R,0.06406X0.05618*%
%ADD15R,0.01681X0.06012*%
%ADD16R,0.03650X0.03475*%
%ADD17R,0.03475X0.03650*%
%ADD18R,0.06406X0.06406*%
%ADD19C,0.06406*%
%ADD20C,0.13098*%
%ADD21C,0.05224*%
%ADD22C,0.13295*%
%ADD23R,0.05618X0.06406*%
%ADD24R,0.28846X0.10736*%
%ADD25C,0.07100*%
%ADD26R,0.03650X0.03650*%
%ADD27C,0.02075*%
%ADD28C,0.02862*%
D10*
X0021600Y0021600D03*
X0021600Y0206600D03*
X0316600Y0206600D03*
X0316600Y0021600D03*
D11*
X0196655Y0151000D03*
X0187600Y0151000D03*
X0178545Y0151000D03*
D12*
X0187600Y0176200D03*
D13*
X0165600Y0157946D03*
X0165600Y0151254D03*
D14*
X0205600Y0150860D03*
X0205600Y0158340D03*
X0203850Y0060340D03*
X0203850Y0052860D03*
D15*
X0115037Y0078939D03*
X0113069Y0078939D03*
X0111100Y0078939D03*
X0109131Y0078939D03*
X0107163Y0078939D03*
X0107163Y0096261D03*
X0109131Y0096261D03*
X0111100Y0096261D03*
X0113069Y0096261D03*
X0115037Y0096261D03*
X0115037Y0143939D03*
X0113069Y0143939D03*
X0111100Y0143939D03*
X0109131Y0143939D03*
X0107163Y0143939D03*
X0107163Y0161261D03*
X0109131Y0161261D03*
X0111100Y0161261D03*
X0113069Y0161261D03*
X0115037Y0161261D03*
D16*
X0125600Y0147662D03*
X0125600Y0141538D03*
X0101600Y0132662D03*
X0101600Y0126538D03*
X0120100Y0107662D03*
X0128100Y0107662D03*
X0128100Y0101538D03*
X0120100Y0101538D03*
X0100600Y0098538D03*
X0100600Y0104662D03*
X0125600Y0082662D03*
X0125600Y0076538D03*
X0101600Y0067662D03*
X0101600Y0061538D03*
X0165600Y0168538D03*
X0165600Y0174662D03*
D17*
X0125662Y0132600D03*
X0119538Y0132600D03*
X0113662Y0132600D03*
X0107538Y0132600D03*
X0107538Y0126600D03*
X0113662Y0126600D03*
X0119538Y0126600D03*
X0125662Y0126600D03*
X0200538Y0085600D03*
X0206662Y0085600D03*
X0125662Y0067600D03*
X0119538Y0067600D03*
X0113662Y0067600D03*
X0107538Y0067600D03*
X0107538Y0061600D03*
X0113662Y0061600D03*
X0119538Y0061600D03*
X0125662Y0061600D03*
D18*
X0081600Y0099100D03*
X0081600Y0164100D03*
D19*
X0091600Y0159100D03*
X0081600Y0154100D03*
X0091600Y0149100D03*
X0081600Y0144100D03*
X0091600Y0139100D03*
X0081600Y0134100D03*
X0091600Y0129100D03*
X0091600Y0094100D03*
X0081600Y0089100D03*
X0091600Y0084100D03*
X0081600Y0079100D03*
X0091600Y0074100D03*
X0081600Y0069100D03*
X0091600Y0064100D03*
D20*
X0056600Y0059100D03*
X0056600Y0104100D03*
X0056600Y0124100D03*
X0056600Y0169100D03*
D21*
X0256600Y0154100D03*
X0266600Y0149100D03*
X0256600Y0144100D03*
X0266600Y0139100D03*
X0256600Y0134100D03*
X0266600Y0159100D03*
X0266600Y0094100D03*
X0256600Y0089100D03*
X0266600Y0084100D03*
X0256600Y0079100D03*
X0266600Y0074100D03*
X0256600Y0069100D03*
D22*
X0291600Y0061600D03*
X0291600Y0101600D03*
X0291600Y0126600D03*
X0291600Y0166600D03*
D23*
X0193340Y0085600D03*
X0185860Y0085600D03*
X0176340Y0085600D03*
X0168860Y0085600D03*
D24*
X0181600Y0073655D03*
X0181600Y0055545D03*
D25*
X0176600Y0101600D03*
X0186600Y0101600D03*
X0196600Y0101600D03*
D26*
X0200647Y0074600D03*
X0206553Y0074600D03*
X0100600Y0110647D03*
X0100600Y0116553D03*
X0207600Y0167647D03*
X0207600Y0173553D03*
D27*
X0195600Y0184600D03*
X0159600Y0168600D03*
X0164600Y0144600D03*
X0183600Y0144600D03*
X0211600Y0144600D03*
X0239600Y0139600D03*
X0239600Y0135600D03*
X0239350Y0153350D03*
X0297600Y0183600D03*
X0138600Y0089600D03*
X0138600Y0086600D03*
X0139600Y0053600D03*
X0139600Y0050600D03*
X0082600Y0044600D03*
X0071600Y0044600D03*
X0067600Y0044600D03*
X0053600Y0044600D03*
X0054600Y0183600D03*
X0067600Y0183600D03*
X0071600Y0183600D03*
X0082600Y0183600D03*
X0109600Y0183600D03*
X0113600Y0183600D03*
X0298600Y0044600D03*
D28*
X0214600Y0076350D03*
X0213600Y0108850D03*
X0190600Y0044100D03*
M02*
