G75*
%MOIN*%
%OFA0B0*%
%FSLAX25Y25*%
%IPPOS*%
%LPD*%
%AMOC8*
5,1,8,0,0,1.08239X$1,22.5*
%
%ADD10C,0.15500*%
%ADD11R,0.06406X0.06406*%
%ADD12C,0.06406*%
%ADD13C,0.13098*%
%ADD14C,0.05224*%
%ADD15C,0.13295*%
%ADD16C,0.07100*%
%ADD17R,0.06800X0.05100*%
%ADD18R,0.07200X0.11600*%
D10*
X0021600Y0021600D03*
X0021600Y0206600D03*
X0316600Y0206600D03*
X0316600Y0021600D03*
D11*
X0081600Y0099100D03*
X0081600Y0164100D03*
D12*
X0091600Y0159100D03*
X0081600Y0154100D03*
X0091600Y0149100D03*
X0081600Y0144100D03*
X0091600Y0139100D03*
X0081600Y0134100D03*
X0091600Y0129100D03*
X0091600Y0094100D03*
X0081600Y0089100D03*
X0091600Y0084100D03*
X0081600Y0079100D03*
X0091600Y0074100D03*
X0081600Y0069100D03*
X0091600Y0064100D03*
D13*
X0056600Y0059100D03*
X0056600Y0104100D03*
X0056600Y0124100D03*
X0056600Y0169100D03*
D14*
X0256600Y0154100D03*
X0266600Y0149100D03*
X0256600Y0144100D03*
X0266600Y0139100D03*
X0256600Y0134100D03*
X0266600Y0159100D03*
X0266600Y0094100D03*
X0256600Y0089100D03*
X0266600Y0084100D03*
X0256600Y0079100D03*
X0266600Y0074100D03*
X0256600Y0069100D03*
D15*
X0291600Y0061600D03*
X0291600Y0101600D03*
X0291600Y0126600D03*
X0291600Y0166600D03*
D16*
X0196600Y0101600D03*
X0186600Y0101600D03*
X0176600Y0101600D03*
D17*
X0176600Y0067100D03*
X0176600Y0061100D03*
D18*
X0176600Y0064100D03*
M02*
